<svg width="39" height="37" viewBox="0 0 39 37" fill="none" xmlns="http://www.w3.org/2000/svg">
<g clip-path="url(#clip0_1320_1094)">
<path d="M7.12862 12.2448C6.67037 12.7908 5.94034 13.2234 5.21153 13.16C5.11524 12.4239 5.47843 11.6354 5.89768 11.1467C6.35471 10.5897 7.15421 10.1899 7.80259 10.157C7.87937 10.9261 7.57956 11.6817 7.12984 12.2448H7.12862ZM7.79528 13.3051C6.73618 13.2405 5.82699 13.9132 5.32487 13.9132C4.81178 13.9132 4.04275 13.3368 3.20546 13.3563C2.11956 13.3697 1.10434 13.99 0.552245 14.9882C-0.597036 16.9735 0.253651 19.9131 1.35784 21.5316C1.89775 22.3311 2.54368 23.2074 3.39559 23.183C4.20118 23.1501 4.52537 22.6504 5.49671 22.6504C6.48025 22.6504 6.75934 23.183 7.61734 23.1635C8.4985 23.1501 9.05668 22.364 9.59659 21.5645C10.2121 20.6566 10.4656 19.7669 10.479 19.723C10.4656 19.7035 8.77149 19.0503 8.75931 17.082C8.7459 15.4306 10.0914 14.6445 10.1487 14.5994C9.39306 13.4574 8.1999 13.3368 7.79406 13.3063L7.79528 13.3051ZM13.9085 11.0699V23.0807H15.7549V18.9747H18.3082C20.6372 18.9747 22.2752 17.3562 22.2752 15.0199C22.2752 12.6786 20.6702 11.0711 18.3716 11.0711L13.9085 11.0699ZM15.7549 12.6445H17.8817C19.4807 12.6445 20.3959 13.5074 20.3959 15.0247C20.3959 16.5421 19.4806 17.4123 17.8695 17.4123H15.7549V12.6445ZM25.6378 23.1696C26.7992 23.1696 27.8717 22.5798 28.3617 21.6389H28.4007V23.0807H30.1069V17.1003C30.1069 15.3745 28.7371 14.252 26.6225 14.252C24.6677 14.252 23.2198 15.3879 23.1698 16.943H24.8261C24.9662 16.2008 25.639 15.7182 26.5726 15.7182C27.7023 15.7182 28.3312 16.2508 28.3312 17.2295V17.8888L26.0339 18.029C23.8877 18.1618 22.7323 19.0442 22.7323 20.5871C22.7323 22.1422 23.9267 23.1709 25.639 23.1709L25.6378 23.1696ZM26.1399 21.7474C25.1552 21.7474 24.5275 21.2708 24.5275 20.542C24.5275 19.7864 25.1308 19.3415 26.2788 19.2709L28.33 19.1441V19.8229C28.33 20.9479 27.3842 21.7474 26.1326 21.7474H26.1399ZM32.386 26.3494C34.1812 26.3494 35.027 25.651 35.7632 23.5499L39.0002 14.3715H37.1282L34.9576 21.4609H34.9186L32.748 14.3715H30.8187L33.9423 23.1124L33.7766 23.6449C33.4902 24.5407 33.0344 24.8881 32.2215 24.8881C32.0752 24.8881 31.7961 24.8698 31.6816 24.8576V26.2994C31.7888 26.3299 32.2471 26.3433 32.3799 26.3433L32.386 26.3494Z" fill="white"/>
</g>
<defs>
<clipPath id="clip0_1320_1094">
<rect width="39" height="36.5625" fill="white"/>
</clipPath>
</defs>
</svg>
