<svg width="34" height="34" viewBox="0 0 34 34" fill="none" xmlns="http://www.w3.org/2000/svg">
<path d="M22.2527 26.5406H21.5223C21.3814 26.5406 21.2463 26.4847 21.1466 26.385C21.047 26.2854 20.991 26.1503 20.991 26.0094C20.991 25.8685 21.047 25.7334 21.1466 25.6337C21.2463 25.5341 21.3814 25.4781 21.5223 25.4781H22.2527C22.3936 25.4781 22.5288 25.5341 22.6284 25.6337C22.728 25.7334 22.784 25.8685 22.784 26.0094C22.784 26.1503 22.728 26.2854 22.6284 26.385C22.5288 26.4847 22.3936 26.5406 22.2527 26.5406ZM24.8917 26.5406H24.1652C24.0243 26.5406 23.8892 26.4847 23.7896 26.385C23.69 26.2854 23.634 26.1503 23.634 26.0094C23.634 25.8685 23.69 25.7334 23.7896 25.6337C23.8892 25.5341 24.0243 25.4781 24.1652 25.4781H24.8917C25.0326 25.4781 25.1678 25.5341 25.2674 25.6337C25.367 25.7334 25.423 25.8685 25.423 26.0094C25.423 26.1503 25.367 26.2854 25.2674 26.385C25.1678 26.4847 25.0326 26.5406 24.8917 26.5406ZM27.5314 26.5406H26.7531C26.6122 26.5406 26.4771 26.4847 26.3774 26.385C26.2778 26.2854 26.2218 26.1503 26.2218 26.0094C26.2218 25.8685 26.2778 25.7334 26.3774 25.6337C26.4771 25.5341 26.6122 25.4781 26.7531 25.4781H27.5314C27.6723 25.4781 27.8074 25.5341 27.907 25.6337C28.0067 25.7334 28.0626 25.8685 28.0626 26.0094C28.0626 26.1503 28.0067 26.2854 27.907 26.385C27.8074 26.4847 27.6723 26.5406 27.5314 26.5406ZM13.9765 31.7422C13.8962 31.7423 13.8169 31.7242 13.7446 31.6892C13.6723 31.6543 13.6089 31.6034 13.5591 31.5403C13.5093 31.4773 13.4744 31.4038 13.4571 31.3254C13.4398 31.2469 13.4406 31.1656 13.4592 31.0875L14.3365 27.4258C14.3527 27.358 14.3822 27.294 14.4232 27.2376C14.4642 27.1811 14.5159 27.1333 14.5754 27.0968C14.6348 27.0603 14.7009 27.0359 14.7698 27.025C14.8387 27.014 14.9091 27.0168 14.9769 27.0331C15.0448 27.0493 15.1088 27.0788 15.1652 27.1198C15.2217 27.1608 15.2695 27.2125 15.306 27.2719C15.3425 27.3314 15.3669 27.3975 15.3778 27.4664C15.3887 27.5353 15.386 27.6057 15.3697 27.6735L14.4925 31.3339C14.4649 31.45 14.399 31.5535 14.3054 31.6276C14.2118 31.7017 14.0959 31.7421 13.9765 31.7422ZM20.0235 31.7422C19.901 31.7421 19.7824 31.6996 19.6877 31.6221C19.5929 31.5445 19.5279 31.4366 19.5035 31.3166L18.7591 27.6563C18.7452 27.5879 18.7449 27.5175 18.7582 27.449C18.7715 27.3805 18.7982 27.3153 18.8367 27.2571C18.8752 27.1989 18.9248 27.1489 18.9826 27.1099C19.0405 27.0709 19.1054 27.0436 19.1738 27.0297C19.2422 27.0158 19.3126 27.0155 19.3811 27.0288C19.4496 27.0421 19.5148 27.0688 19.573 27.1073C19.6312 27.1458 19.6812 27.1954 19.7202 27.2533C19.7592 27.3111 19.7865 27.3761 19.8004 27.4444L20.5448 31.1054C20.5604 31.1826 20.5587 31.2623 20.5398 31.3388C20.5208 31.4153 20.4851 31.4865 20.4352 31.5475C20.3853 31.6085 20.3225 31.6576 20.2513 31.6912C20.1801 31.7249 20.1023 31.7423 20.0235 31.7422Z" fill="#4F61FB"/>
<path d="M22.1133 31.7421H11.8542C11.7133 31.7421 11.5782 31.6861 11.4785 31.5865C11.3789 31.4869 11.3229 31.3518 11.3229 31.2109C11.3229 31.07 11.3789 30.9348 11.4785 30.8352C11.5782 30.7356 11.7133 30.6796 11.8542 30.6796H22.1133C22.2542 30.6796 22.3893 30.7356 22.4889 30.8352C22.5886 30.9348 22.6445 31.07 22.6445 31.2109C22.6445 31.3518 22.5886 31.4869 22.4889 31.5865C22.3893 31.6861 22.2542 31.7421 22.1133 31.7421ZM29.0694 28.0811H4.93267C4.74265 28.0855 4.55371 28.0513 4.37728 27.9806C4.20084 27.9099 4.04057 27.8041 3.90614 27.6698C3.7717 27.5354 3.6659 27.3752 3.59512 27.1988C3.52434 27.0224 3.49004 26.8335 3.49431 26.6434V11.872C3.49431 11.0506 4.12584 10.4071 4.93267 10.4071H10.2757C10.4166 10.4071 10.5517 10.4631 10.6514 10.5627C10.751 10.6623 10.807 10.7975 10.807 10.9384C10.807 11.0793 10.751 11.2144 10.6514 11.314C10.5517 11.4136 10.4166 11.4696 10.2757 11.4696H4.93267C4.63584 11.4696 4.55681 11.7226 4.55681 11.872V26.6434C4.55681 26.7563 4.59334 27.0186 4.93267 27.0186H29.0694C29.119 27.0203 29.1685 27.0117 29.2147 26.9935C29.2609 26.9752 29.3028 26.9476 29.3379 26.9124C29.373 26.8772 29.4004 26.8351 29.4186 26.7889C29.4367 26.7426 29.4451 26.6931 29.4432 26.6434V11.872C29.4432 11.6775 29.2931 11.4696 29.0694 11.4696H23.7243C23.5834 11.4696 23.4483 11.4136 23.3487 11.314C23.249 11.2144 23.1931 11.0793 23.1931 10.9384C23.1931 10.7975 23.249 10.6623 23.3487 10.5627C23.4483 10.4631 23.5834 10.4071 23.7243 10.4071H29.0694C29.454 10.4113 29.8212 10.5679 30.0905 10.8425C30.3597 11.1172 30.5091 11.4874 30.5057 11.872V26.6434C30.5079 26.8327 30.4722 27.0205 30.4008 27.1958C30.3293 27.3711 30.2236 27.5304 30.0899 27.6643C29.9561 27.7982 29.7969 27.9041 29.6216 27.9756C29.4464 28.0472 29.2586 28.0831 29.0694 28.0811Z" fill="#4F61FB"/>
<path d="M29.9745 25H4.0256C3.88471 25 3.74958 24.944 3.64995 24.8444C3.55033 24.7447 3.49435 24.6096 3.49435 24.4687C3.49435 24.3278 3.55033 24.1927 3.64995 24.0931C3.74958 23.9934 3.88471 23.9375 4.0256 23.9375H29.9745C30.1154 23.9375 30.2505 23.9934 30.3502 24.0931C30.4498 24.1927 30.5058 24.3278 30.5058 24.4687C30.5058 24.6096 30.4498 24.7447 30.3502 24.8444C30.2505 24.944 30.1154 25 29.9745 25ZM21.8563 19.9664H12.1438C11.5077 19.9657 10.8978 19.7127 10.448 19.2629C9.99822 18.8131 9.74521 18.2032 9.74451 17.5671V4.65707C9.74521 4.02096 9.99822 3.41111 10.448 2.96132C10.8978 2.51152 11.5077 2.25852 12.1438 2.25781H21.8563C22.4925 2.25852 23.1023 2.51152 23.5521 2.96132C24.0019 3.41111 24.2549 4.02096 24.2556 4.65707V17.5671C24.2549 18.2032 24.0019 18.8131 23.5521 19.2629C23.1023 19.7127 22.4925 19.9657 21.8563 19.9664ZM12.1438 3.32031C11.7893 3.32066 11.4495 3.46161 11.1989 3.71223C10.9483 3.96284 10.8074 4.30265 10.807 4.65707V17.5671C10.8074 17.9215 10.9483 18.2613 11.1989 18.512C11.4495 18.7626 11.7893 18.9035 12.1438 18.9039H21.8563C22.2108 18.9035 22.5506 18.7626 22.8012 18.512C23.0518 18.2613 23.1928 17.9215 23.1931 17.5671V4.65707C23.1928 4.30265 23.0518 3.96284 22.8012 3.71223C22.5506 3.46161 22.2108 3.32066 21.8563 3.32031H12.1438Z" fill="#4F61FB"/>
<path d="M18.8242 11.4165H15.1758C14.8156 11.4162 14.4701 11.273 14.2153 11.0183C13.9604 10.7635 13.817 10.4182 13.8165 10.0579C13.8364 9.97287 13.5927 8.13209 15.3286 7.06229C15.4477 6.98797 15.5915 6.96386 15.7283 6.99522C15.8652 7.02658 15.9841 7.11086 16.059 7.22963C16.1597 7.38888 16.299 7.52006 16.464 7.61097C16.629 7.70188 16.8143 7.74955 17.0027 7.74955C17.1911 7.74955 17.3764 7.70188 17.5414 7.61097C17.7064 7.52006 17.8457 7.38888 17.9463 7.22963C18.0211 7.11075 18.14 7.02633 18.2769 6.99484C18.4138 6.96336 18.5575 6.98737 18.6768 7.06162C19.1398 7.34607 19.5221 7.74464 19.787 8.21915C20.0518 8.69366 20.1904 9.22823 20.1895 9.77166V10.0579C20.1893 10.2368 20.1537 10.4139 20.0849 10.579C20.0161 10.7442 19.9155 10.8942 19.7886 11.0204C19.6618 11.1466 19.5114 11.2465 19.3459 11.3145C19.1804 11.3825 19.0031 11.4172 18.8242 11.4165ZM15.5298 8.24233C14.7369 9.00069 14.9003 9.93369 14.879 10.0579C14.8792 10.1365 14.9105 10.2118 14.9662 10.2673C15.0218 10.3229 15.0972 10.354 15.1758 10.354H18.8242C18.9028 10.354 18.9782 10.3229 19.0339 10.2673C19.0895 10.2118 19.1209 10.1365 19.121 10.0579V9.77166C19.1215 9.48631 19.064 9.20383 18.9521 8.94131C18.8403 8.67879 18.6764 8.44168 18.4703 8.24432C18.0681 8.61054 17.5436 8.81335 16.9996 8.81298C16.4557 8.81261 15.9315 8.60909 15.5298 8.24233Z" fill="#4F61FB"/>
<path d="M15.1592 7.79871C15.0857 7.67977 15.0621 7.53665 15.0934 7.40038C15.1247 7.26412 15.2085 7.14569 15.3266 7.0708C15.4446 6.9959 15.5875 6.97057 15.7241 7.0003C15.8607 7.03003 15.9801 7.11242 16.0564 7.22961C16.157 7.38885 16.2963 7.52003 16.4613 7.61094C16.6263 7.70185 16.8116 7.74952 17 7.74952C17.1884 7.74952 17.3737 7.70185 17.5387 7.61094C17.7037 7.52003 17.843 7.38885 17.9437 7.22961C17.9806 7.16982 18.0291 7.11795 18.0862 7.07703C18.1433 7.0361 18.208 7.00691 18.2765 6.99117C18.345 6.97542 18.416 6.97342 18.4853 6.98529C18.5545 6.99716 18.6208 7.02266 18.6801 7.06031C18.7395 7.09796 18.7908 7.14701 18.831 7.20463C18.8713 7.26224 18.8997 7.32727 18.9147 7.39595C18.9296 7.46463 18.9308 7.5356 18.9181 7.60473C18.9054 7.67387 18.8791 7.7398 18.8408 7.79871C18.6443 8.10908 18.3725 8.36472 18.0506 8.54186C17.7288 8.719 17.3674 8.81189 17 8.81189C16.6327 8.81189 16.2713 8.719 15.9494 8.54186C15.6276 8.36472 15.3558 8.10908 15.1592 7.79871Z" fill="#4F61FB"/>
<path d="M18.1077 7.96276C17.9894 7.88731 17.9058 7.76817 17.8751 7.63133C17.8444 7.49449 17.869 7.35105 17.9436 7.2323C18.0503 7.06345 18.1098 6.86907 18.1158 6.66942C18.1218 6.46977 18.0741 6.27217 17.9777 6.09723C17.8813 5.92229 17.7398 5.77642 17.5678 5.67482C17.3958 5.57323 17.1997 5.51963 17 5.51963C16.8003 5.51963 16.6042 5.57323 16.4322 5.67482C16.2602 5.77642 16.1187 5.92229 16.0223 6.09723C15.9259 6.27217 15.8782 6.46977 15.8842 6.66942C15.8902 6.86907 15.9497 7.06345 16.0564 7.2323C16.0947 7.2912 16.121 7.35714 16.1337 7.42627C16.1463 7.49541 16.1452 7.56637 16.1302 7.63505C16.1153 7.70373 16.0869 7.76876 16.0466 7.82638C16.0063 7.88399 15.955 7.93305 15.8957 7.9707C15.8363 8.00835 15.7701 8.03384 15.7008 8.04571C15.6316 8.05758 15.5606 8.05558 15.4921 8.03984C15.4236 8.02409 15.3589 7.99491 15.3018 7.95398C15.2446 7.91305 15.1962 7.86119 15.1592 7.8014C14.95 7.47179 14.8331 7.09204 14.8208 6.70182C14.8086 6.3116 14.9013 5.92525 15.0895 5.58315C15.2776 5.24105 15.5541 4.95576 15.8902 4.75711C16.2263 4.55845 16.6096 4.45372 17 4.45386C18.7266 4.45386 19.7479 6.36835 18.8408 7.79874C18.7398 7.95812 18.356 8.12015 18.1077 7.96276ZM21.2912 13.6896H12.7088C12.5679 13.6896 12.4328 13.6337 12.3332 13.534C12.2336 13.4344 12.1776 13.2993 12.1776 13.1584C12.1776 13.0175 12.2336 12.8824 12.3332 12.7827C12.4328 12.6831 12.5679 12.6271 12.7088 12.6271H21.2912C21.4321 12.6271 21.5672 12.6831 21.6668 12.7827C21.7665 12.8824 21.8224 13.0175 21.8224 13.1584C21.8224 13.2993 21.7665 13.4344 21.6668 13.534C21.5672 13.6337 21.4321 13.6896 21.2912 13.6896ZM21.2912 15.7303H12.7088C12.5679 15.7303 12.4328 15.6743 12.3332 15.5747C12.2336 15.4751 12.1776 15.3399 12.1776 15.1991C12.1776 15.0582 12.2336 14.923 12.3332 14.8234C12.4328 14.7238 12.5679 14.6678 12.7088 14.6678H21.2912C21.4321 14.6678 21.5672 14.7238 21.6668 14.8234C21.7665 14.923 21.8224 15.0582 21.8224 15.1991C21.8224 15.3399 21.7665 15.4751 21.6668 15.5747C21.5672 15.6743 21.4321 15.7303 21.2912 15.7303ZM21.2912 17.7703H12.7088C12.5679 17.7703 12.4328 17.7143 12.3332 17.6147C12.2336 17.5151 12.1776 17.3799 12.1776 17.2391C12.1776 17.0982 12.2336 16.963 12.3332 16.8634C12.4328 16.7638 12.5679 16.7078 12.7088 16.7078H21.2912C21.4321 16.7078 21.5672 16.7638 21.6668 16.8634C21.7665 16.963 21.8224 17.0982 21.8224 17.2391C21.8224 17.3799 21.7665 17.5151 21.6668 17.6147C21.5672 17.7143 21.4321 17.7703 21.2912 17.7703Z" fill="#4F61FB"/>
</svg>
