<svg width="34" height="34" viewBox="0 0 34 34" fill="none" xmlns="http://www.w3.org/2000/svg">
<path d="M29.75 2.65625H4.25C3.37344 2.65625 2.65625 3.37344 2.65625 4.25V29.75C2.65625 30.6266 3.37344 31.3438 4.25 31.3438H29.75C30.6266 31.3438 31.3438 30.6266 31.3438 29.75V4.25C31.3438 3.37344 30.6266 2.65625 29.75 2.65625ZM30.2812 4.25V6.90625H13.3503L13.7487 3.71875H29.75C30.0422 3.71875 30.2812 3.95781 30.2812 4.25ZM4.25 3.71875H12.6809L12.2825 6.90625H3.71875V4.25C3.71875 3.95781 3.95781 3.71875 4.25 3.71875ZM29.75 30.2812H4.25C3.95781 30.2812 3.71875 30.0422 3.71875 29.75V7.96875H30.2812V29.75C30.2812 30.0422 30.0422 30.2812 29.75 30.2812ZM4.78125 5.3125C4.78125 5.02031 5.02031 4.78125 5.3125 4.78125C5.60469 4.78125 5.84375 5.02031 5.84375 5.3125C5.84375 5.60469 5.60469 5.84375 5.3125 5.84375C5.02031 5.84375 4.78125 5.60469 4.78125 5.3125ZM7.4375 5.3125C7.4375 5.02031 7.67656 4.78125 7.96875 4.78125C8.26094 4.78125 8.5 5.02031 8.5 5.3125C8.5 5.60469 8.26094 5.84375 7.96875 5.84375C7.67656 5.84375 7.4375 5.60469 7.4375 5.3125ZM10.0938 5.3125C10.0938 5.02031 10.3328 4.78125 10.625 4.78125C10.9172 4.78125 11.1562 5.02031 11.1562 5.3125C11.1562 5.60469 10.9172 5.84375 10.625 5.84375C10.3328 5.84375 10.0938 5.60469 10.0938 5.3125ZM13.2812 18.3281H20.7188C21.0109 18.3281 21.25 18.0891 21.25 17.7969C21.25 16.0809 20.2247 14.5987 18.7531 13.9294C19.3003 13.4406 19.6562 12.7394 19.6562 11.9531C19.6562 10.4869 18.4663 9.29688 17 9.29688C15.5337 9.29688 14.3438 10.4869 14.3438 11.9531C14.3438 12.7447 14.6944 13.4459 15.2469 13.9294C13.7753 14.5987 12.75 16.0756 12.75 17.7969C12.75 18.0891 12.9891 18.3281 13.2812 18.3281ZM15.4062 11.9531C15.4062 11.0766 16.1234 10.3594 17 10.3594C17.8766 10.3594 18.5938 11.0766 18.5938 11.9531C18.5938 12.8297 17.8766 13.5469 17 13.5469C16.1234 13.5469 15.4062 12.8297 15.4062 11.9531ZM17 14.6094C18.5778 14.6094 19.89 15.7622 20.145 17.2656H13.8603C14.1153 15.7622 15.4275 14.6094 17.0053 14.6094H17ZM25.5 19.9219H8.5C7.91563 19.9219 7.4375 20.4 7.4375 20.9844V22.5781C7.4375 23.1625 7.91563 23.6406 8.5 23.6406H25.5C26.0844 23.6406 26.5625 23.1625 26.5625 22.5781V20.9844C26.5625 20.4 26.0844 19.9219 25.5 19.9219ZM8.5 20.9844H11.6875V22.5781H8.5V20.9844ZM12.75 22.5781V20.9844H25.5V22.5781H12.75ZM25.5 25.2344H8.5C7.91563 25.2344 7.4375 25.7125 7.4375 26.2969V27.8906C7.4375 28.475 7.91563 28.9531 8.5 28.9531H25.5C26.0844 28.9531 26.5625 28.475 26.5625 27.8906V26.2969C26.5625 25.7125 26.0844 25.2344 25.5 25.2344ZM8.5 26.2969H11.6875V27.8906H8.5V26.2969ZM12.75 27.8906V26.2969H25.5V27.8906H12.75Z" fill="#4F61FB"/>
</svg>
