<svg width="32" height="32" viewBox="0 0 32 32" fill="none" xmlns="http://www.w3.org/2000/svg">
<g clip-path="url(#clip0_6916_2316)">
<path d="M9.6 32H22.4C25.0509 32 27.2 29.8509 27.2 27.2C27.2 24.5491 25.0509 22.4 22.4 22.4H9.6C6.94906 22.4 4.8 24.5491 4.8 27.2C4.8 29.8509 6.94906 32 9.6 32ZM9.6 23.4667H22.4C24.4619 23.4667 26.1333 25.1382 26.1333 27.2C26.1333 29.2618 24.4618 30.9333 22.4 30.9333H9.6C7.53813 30.9333 5.86669 29.2619 5.86669 27.2C5.86669 25.1381 7.53813 23.4667 9.6 23.4667ZM29.3333 11.2H2.66669C1.19463 11.2017 0.00175 12.3946 0 13.8667V18.1334C0.00175 19.6054 1.19463 20.7983 2.66669 20.8001H29.3334C30.8054 20.7983 31.9982 19.6054 32.0001 18.1334V13.8667C31.9982 12.3946 30.8054 11.2017 29.3333 11.2ZM30.9333 18.1333C30.9333 19.0169 30.2169 19.7333 29.3333 19.7333H2.66669C1.78306 19.7333 1.06669 19.0169 1.06669 18.1333V13.8666C1.06669 12.9829 1.78306 12.2666 2.66669 12.2666H29.3334C30.217 12.2666 30.9334 12.983 30.9334 13.8666L30.9333 18.1333ZM29.3333 0H2.66669C1.19463 0.00175 0.00175 1.19463 0 2.66669V6.93337C0.00175 8.40537 1.19463 9.59825 2.66669 9.60006H29.3334C30.8054 9.59831 31.9982 8.40544 32.0001 6.93337V2.66669C31.9982 1.19463 30.8054 0.00175 29.3333 0ZM30.9333 6.93331C30.9333 7.81694 30.2169 8.53331 29.3333 8.53331H2.66669C1.78306 8.53331 1.06669 7.81694 1.06669 6.93331V2.66669C1.06669 1.78306 1.78306 1.06669 2.66669 1.06669H29.3334C30.217 1.06669 30.9334 1.78306 30.9334 2.66669L30.9333 6.93331Z" fill="#4F61FB"/>
<path d="M7.99999 13.3333H3.7333C2.84968 13.3333 2.1333 14.0497 2.1333 14.9333V17.0666C2.1333 17.9502 2.84968 18.6666 3.7333 18.6666H7.99999C8.88368 18.6666 9.59999 17.9502 9.59999 17.0666V14.9333C9.59999 14.0497 8.88368 13.3333 7.99999 13.3333ZM7.46668 14.4L6.19361 15.36C6.09922 15.4302 5.98484 15.4684 5.8672 15.469C5.74956 15.4695 5.63481 15.4325 5.53974 15.3632L4.26668 14.4H7.46668ZM7.99999 17.6H3.7333C3.59186 17.6 3.45621 17.5438 3.35619 17.4438C3.25618 17.3438 3.19999 17.2081 3.19999 17.0667V14.9334L4.90668 16.2134C5.18551 16.4203 5.52367 16.5318 5.87092 16.5312C6.21817 16.5307 6.55597 16.4181 6.83411 16.2102L8.5333 14.9334V17.0667C8.5333 17.2081 8.47711 17.3438 8.3771 17.4438C8.27708 17.5438 8.14143 17.6 7.99999 17.6ZM7.13655 4.69599C7.34942 4.42011 7.46545 4.08176 7.46668 3.7333C7.46668 2.84968 6.7503 2.1333 5.86668 2.1333C4.98305 2.1333 4.26668 2.84968 4.26668 3.7333C4.26848 4.08084 4.38448 4.41815 4.5968 4.6933C4.32942 4.89042 4.11202 5.14752 3.96206 5.44393C3.8121 5.74034 3.73377 6.0678 3.73336 6.39999C3.73336 6.98911 4.21093 7.46668 4.80005 7.46668H6.93336C7.52249 7.46668 8.00005 6.98911 8.00005 6.39999C7.99919 6.06826 7.92064 5.74134 7.77069 5.44543C7.62074 5.14952 7.40356 4.89285 7.13655 4.69599ZM5.3333 3.7333C5.3333 3.59186 5.38949 3.45621 5.4895 3.35619C5.58952 3.25618 5.72517 3.19999 5.86661 3.19999C6.00806 3.19999 6.14371 3.25618 6.24372 3.35619C6.34374 3.45621 6.39993 3.59186 6.39993 3.7333C6.39993 3.87474 6.34374 4.01039 6.24372 4.11041C6.14371 4.21042 6.00806 4.26661 5.86661 4.26661C5.72517 4.26661 5.58952 4.21042 5.4895 4.11041C5.38949 4.01039 5.3333 3.87474 5.3333 3.7333ZM4.79999 6.39999C4.79999 5.81086 5.27755 5.3333 5.86668 5.3333C6.4558 5.3333 6.93336 5.81086 6.93336 6.39999H4.79999Z" fill="#4F61FB"/>
<path fill-rule="evenodd" clip-rule="evenodd" d="M11.7333 15.4668H14.4C14.5414 15.4668 14.6771 15.4106 14.7771 15.3106C14.8771 15.2105 14.9333 15.0749 14.9333 14.9334C14.9333 14.792 14.8771 14.6564 14.7771 14.5563C14.6771 14.4563 14.5414 14.4001 14.4 14.4001H11.7333C11.5919 14.4001 11.4562 14.4563 11.3562 14.5563C11.2562 14.6564 11.2 14.792 11.2 14.9334C11.2 15.0749 11.2562 15.2105 11.3562 15.3106C11.4562 15.4106 11.5919 15.4668 11.7333 15.4668ZM28.2667 16.5334H11.7333C11.5919 16.5334 11.4562 16.5896 11.3562 16.6896C11.2562 16.7896 11.2 16.9253 11.2 17.0667C11.2 17.2081 11.2562 17.3438 11.3562 17.4438C11.4562 17.5438 11.5919 17.6 11.7333 17.6H28.2666C28.5612 17.6 28.7999 17.3613 28.7999 17.0667C28.7999 16.7721 28.5612 16.5334 28.2667 16.5334ZM11.7333 4.26676H14.4C14.5404 4.26524 14.6746 4.20838 14.7734 4.10852C14.8722 4.00867 14.9276 3.87388 14.9276 3.73342C14.9276 3.59296 14.8722 3.45817 14.7734 3.35831C14.6746 3.25845 14.5404 3.20159 14.4 3.20007H11.7333C11.5936 3.20269 11.4605 3.26004 11.3626 3.35977C11.2647 3.45951 11.2099 3.59367 11.2099 3.73342C11.2099 3.87316 11.2647 4.00733 11.3626 4.10706C11.4605 4.2068 11.5936 4.26414 11.7333 4.26676ZM28.2667 5.33339H11.7333C11.5919 5.33339 11.4562 5.38957 11.3562 5.48959C11.2562 5.5896 11.2 5.72525 11.2 5.8667C11.2 6.00814 11.2562 6.14379 11.3562 6.24381C11.4562 6.34382 11.5919 6.40001 11.7333 6.40001H28.2666C28.408 6.40001 28.5437 6.34382 28.6437 6.24381C28.7437 6.14379 28.7999 6.00814 28.7999 5.8667C28.7999 5.79667 28.7861 5.72732 28.7593 5.66261C28.7326 5.59791 28.6933 5.53912 28.6438 5.48959C28.5942 5.44007 28.5354 5.40079 28.4707 5.37398C28.406 5.34718 28.3367 5.33339 28.2667 5.33339ZM14.0229 29.1771C14.1137 29.2679 14.2341 29.3229 14.3622 29.332C14.4902 29.3411 14.6173 29.3038 14.72 29.2268L18.9867 26.0268C19.097 25.9409 19.1692 25.8151 19.1877 25.6765C19.2062 25.538 19.1696 25.3977 19.0857 25.2858C19.0018 25.174 18.8774 25.0995 18.7392 25.0785C18.601 25.0575 18.46 25.0915 18.3467 25.1734L14.4501 28.0961L13.7104 27.3563C13.6098 27.2592 13.4751 27.2054 13.3352 27.2066C13.1954 27.2078 13.0616 27.2639 12.9627 27.3628C12.8638 27.4617 12.8078 27.5955 12.8065 27.7353C12.8053 27.8751 12.8591 28.0099 12.9562 28.1104L14.0229 29.1771Z" fill="#4F61FB"/>
</g>
<defs>
<clipPath id="clip0_6916_2316">
<rect width="32" height="32" fill="white"/>
</clipPath>
</defs>
</svg>
