<svg width="20" height="34" viewBox="0 0 20 34" fill="none" xmlns="http://www.w3.org/2000/svg">
<path d="M15.3548 20.2903H13.7097V15.3548H15.3548C15.4668 15.3548 15.5762 15.3205 15.6681 15.2565C15.76 15.1925 15.8301 15.1019 15.869 14.9968C15.9079 14.8918 15.9138 14.7773 15.8857 14.6689C15.8576 14.5604 15.7969 14.4632 15.7118 14.3904L10.2279 9.69C10.1286 9.60511 10.0022 9.55847 9.87152 9.55847C9.74085 9.55847 9.61448 9.60511 9.51514 9.69L4.03127 14.3904C3.94629 14.4632 3.88565 14.5603 3.85749 14.6687C3.82933 14.777 3.835 14.8913 3.87375 14.9964C3.91249 15.1014 3.98244 15.192 4.07422 15.2561C4.16599 15.3202 4.27517 15.3546 4.3871 15.3548H6.03226V20.2903H4.3871C4.24166 20.2903 4.10218 20.3481 3.99933 20.4509C3.89649 20.5538 3.83871 20.6933 3.83871 20.8387C3.83871 20.9841 3.89649 21.1236 3.99933 21.2265C4.10218 21.3293 4.24166 21.3871 4.3871 21.3871H15.3548C15.5003 21.3871 15.6398 21.3293 15.7426 21.2265C15.8455 21.1236 15.9032 20.9841 15.9032 20.8387C15.9032 20.6933 15.8455 20.5538 15.7426 20.4509C15.6398 20.3481 15.5003 20.2903 15.3548 20.2903ZM9.87097 10.8285L13.8741 14.2581H5.86788L9.87097 10.8285ZM7.12904 15.3548H12.6129V20.2903H11.5161V17.5484C11.5161 17.4029 11.4584 17.2635 11.3555 17.1606C11.2527 17.0578 11.1132 17 10.9677 17H8.7742C8.62876 17 8.48927 17.0578 8.38643 17.1606C8.28359 17.2635 8.22581 17.4029 8.22581 17.5484V20.2903H7.12904V15.3548ZM10.4194 20.2903H9.32259V18.0968H10.4194V20.2903Z" fill="#4F61FB"/>
<path d="M17 0H2.74194C1.22825 0.00185081 0.00185081 1.22825 0 2.74194V31.2581C0.00185081 32.7718 1.22825 33.9981 2.74194 34H17C18.5137 33.9981 19.7401 32.7718 19.7419 31.2581V2.74194C19.7401 1.22825 18.5137 0.00185081 17 0ZM1.09677 5.48387H18.6452V27.4194H1.09677V5.48387ZM2.74194 1.09677H17C17.9085 1.09677 18.6452 1.8334 18.6452 2.74194V4.3871H1.09677V2.74194C1.09677 1.8334 1.8334 1.09677 2.74194 1.09677ZM17 32.9032H2.74194C1.8334 32.9032 1.09677 32.1666 1.09677 31.2581V28.5161H18.6452V31.2581C18.6452 32.1666 17.9085 32.9032 17 32.9032Z" fill="#4F61FB"/>
<path d="M9.87096 29.0645C8.96242 29.0645 8.2258 29.8011 8.2258 30.7097C8.2258 31.6182 8.96242 32.3548 9.87096 32.3548C10.7795 32.3548 11.5161 31.6182 11.5161 30.7097C11.5161 29.8011 10.7795 29.0645 9.87096 29.0645ZM9.87096 31.2581C9.72552 31.2581 9.58604 31.2003 9.4832 31.0974C9.38035 30.9946 9.32258 30.8551 9.32258 30.7097C9.32258 30.5642 9.38035 30.4247 9.4832 30.3219C9.58604 30.2191 9.72552 30.1613 9.87096 30.1613C10.0164 30.1613 10.1559 30.2191 10.2587 30.3219C10.3616 30.4247 10.4194 30.5642 10.4194 30.7097C10.4194 30.8551 10.3616 30.9946 10.2587 31.0974C10.1559 31.2003 10.0164 31.2581 9.87096 31.2581ZM7.67742 3.29031H12.0645C12.21 3.29031 12.3494 3.23254 12.4523 3.12969C12.5551 3.02685 12.6129 2.88737 12.6129 2.74193C12.6129 2.59648 12.5551 2.457 12.4523 2.35416C12.3494 2.25131 12.21 2.19354 12.0645 2.19354H7.67742C7.53197 2.19354 7.39249 2.25131 7.28965 2.35416C7.1868 2.457 7.12903 2.59648 7.12903 2.74193C7.12903 2.88737 7.1868 3.02685 7.28965 3.12969C7.39249 3.23254 7.53197 3.29031 7.67742 3.29031ZM16.4544 2.74193C16.4544 3.04635 16.2076 3.29305 15.9032 3.29305C15.5988 3.29305 15.3521 3.04635 15.3521 2.74193C15.3521 2.4375 15.5988 2.1908 15.9032 2.1908C16.2076 2.1908 16.4544 2.4375 16.4544 2.74193ZM17.5484 6.03225H15.9032C15.7578 6.03225 15.6183 6.09002 15.5155 6.19287C15.4126 6.29571 15.3548 6.43519 15.3548 6.58063C15.3548 6.72608 15.4126 6.86556 15.5155 6.9684C15.6183 7.07125 15.7578 7.12902 15.9032 7.12902H17V10.4193C17 10.5648 17.0578 10.7043 17.1606 10.8071C17.2635 10.91 17.4029 10.9677 17.5484 10.9677C17.6938 10.9677 17.8333 10.91 17.9362 10.8071C18.039 10.7043 18.0968 10.5648 18.0968 10.4193V6.58063C18.0968 6.43519 18.039 6.29571 17.9362 6.19287C17.8333 6.09002 17.6938 6.03225 17.5484 6.03225ZM17.5484 11.5161C17.4029 11.5161 17.2635 11.5739 17.1606 11.6767C17.0578 11.7796 17 11.9191 17 12.0645V13.7097C17 13.8551 17.0578 13.9946 17.1606 14.0974C17.2635 14.2003 17.4029 14.2581 17.5484 14.2581C17.6938 14.2581 17.8333 14.2003 17.9362 14.0974C18.039 13.9946 18.0968 13.8551 18.0968 13.7097V12.0645C18.0968 11.9191 18.039 11.7796 17.9362 11.6767C17.8333 11.5739 17.6938 11.5161 17.5484 11.5161Z" fill="#4F61FB"/>
</svg>
