<svg width="34" height="34" viewBox="0 0 34 34" fill="none" xmlns="http://www.w3.org/2000/svg">
<path d="M30.4711 30.3053L27.7086 27.5343C28.3589 26.1752 28.5077 24.6299 28.1287 23.1717C27.7496 21.7135 26.8672 20.4363 25.6373 19.5659C24.4075 18.6955 22.9095 18.288 21.4082 18.4155C19.907 18.5429 18.4991 19.1971 17.4336 20.2624C16.3681 21.3276 15.7136 22.7353 15.5858 24.2366C15.458 25.7378 15.8651 27.2359 16.7352 28.4659C17.6053 29.6959 18.8823 30.5787 20.3405 30.9581C21.7986 31.3375 23.3439 31.189 24.7032 30.5391L27.4735 33.3016C27.6703 33.4986 27.9041 33.6549 28.1614 33.7616C28.4187 33.8683 28.6944 33.9232 28.973 33.9233C29.2515 33.9234 29.5273 33.8686 29.7847 33.7622C30.042 33.6557 30.2759 33.4995 30.4729 33.3026C30.6699 33.1058 30.8262 32.872 30.9329 32.6147C31.0396 32.3574 31.0945 32.0817 31.0946 31.8031C31.0947 31.5246 31.04 31.2488 30.9335 30.9914C30.827 30.7341 30.6708 30.5002 30.474 30.3032L30.4711 30.3053ZM18.4521 28.2979C17.7587 27.6045 17.2866 26.721 17.0953 25.7592C16.904 24.7973 17.0022 23.8004 17.3775 22.8944C17.7528 21.9884 18.3883 21.2141 19.2037 20.6693C20.0191 20.1245 20.9777 19.8337 21.9584 19.8337C22.939 19.8337 23.8976 20.1245 24.713 20.6693C25.5284 21.2141 26.1639 21.9884 26.5392 22.8944C26.9145 23.8004 27.0127 24.7973 26.8215 25.7592C26.6302 26.721 26.158 27.6045 25.4646 28.2979C24.5341 29.2267 23.2731 29.7483 21.9584 29.7483C20.6437 29.7483 19.3826 29.2267 18.4521 28.2979ZM29.4667 32.3C29.3341 32.4311 29.1552 32.5046 28.9687 32.5046C28.7823 32.5046 28.6034 32.4311 28.4708 32.3L25.9342 29.7691C26.3064 29.4761 26.6426 29.1401 26.9358 28.7682L29.4667 31.3083C29.5324 31.3736 29.5845 31.4511 29.62 31.5366C29.6556 31.6221 29.6739 31.7137 29.6739 31.8063C29.6739 31.8988 29.6556 31.9905 29.62 32.076C29.5845 32.1614 29.5324 32.239 29.4667 32.3042V32.3Z" fill="#4F61FB"/>
<path d="M17.7083 31.1666H8.50001C7.93643 31.1666 7.39592 30.9428 6.99741 30.5442C6.59889 30.1457 6.37501 29.6052 6.37501 29.0416V4.95831C6.37501 4.39472 6.59889 3.85422 6.99741 3.45571C7.39592 3.05719 7.93643 2.83331 8.50001 2.83331H20.8108C20.9585 2.83369 21.1057 2.84959 21.25 2.88077V7.08331C21.25 7.64689 21.4739 8.18739 21.8724 8.58591C22.2709 8.98442 22.8114 9.20831 23.375 9.20831H27.5705C27.6054 9.35956 27.6237 9.51419 27.625 9.66943V19.125C27.625 19.3128 27.6996 19.493 27.8325 19.6258C27.9653 19.7587 28.1455 19.8333 28.3333 19.8333C28.5212 19.8333 28.7014 19.7587 28.8342 19.6258C28.9671 19.493 29.0417 19.3128 29.0417 19.125V9.66943C29.0426 9.20563 28.952 8.74619 28.775 8.31748C28.5981 7.88877 28.3382 7.49921 28.0103 7.17114L23.3212 2.46002C22.9929 2.12823 22.6019 1.8651 22.1709 1.68596C21.7399 1.50683 21.2776 1.41528 20.8108 1.41664H8.50001C7.56105 1.41777 6.66086 1.79127 5.99692 2.45521C5.33297 3.11916 4.95947 4.01934 4.95834 4.95831V29.0416C4.95947 29.9806 5.33297 30.8808 5.99692 31.5447C6.66086 32.2087 7.56105 32.5822 8.50001 32.5833H17.7083C17.8962 32.5833 18.0764 32.5087 18.2092 32.3758C18.3421 32.243 18.4167 32.0628 18.4167 31.875C18.4167 31.6871 18.3421 31.5069 18.2092 31.3741C18.0764 31.2413 17.8962 31.1666 17.7083 31.1666ZM26.6291 7.79164H23.375C23.1871 7.79164 23.007 7.71701 22.8741 7.58417C22.7413 7.45134 22.6667 7.27117 22.6667 7.08331V3.81081L26.6291 7.79164Z" fill="#4F61FB"/>
<path d="M9.91671 9.20829H17.7084C17.8962 9.20829 18.0764 9.13366 18.2092 9.00083C18.3421 8.86799 18.4167 8.68782 18.4167 8.49996C18.4167 8.3121 18.3421 8.13193 18.2092 7.99909C18.0764 7.86625 17.8962 7.79163 17.7084 7.79163H9.91671C9.72885 7.79163 9.54868 7.86625 9.41584 7.99909C9.283 8.13193 9.20837 8.3121 9.20837 8.49996C9.20837 8.68782 9.283 8.86799 9.41584 9.00083C9.54868 9.13366 9.72885 9.20829 9.91671 9.20829ZM24.0834 12.0416H12.0417C11.8538 12.0416 11.6737 12.1163 11.5408 12.2491C11.408 12.3819 11.3334 12.5621 11.3334 12.75C11.3334 12.9378 11.408 13.118 11.5408 13.2508C11.6737 13.3837 11.8538 13.4583 12.0417 13.4583H24.0834C24.2712 13.4583 24.4514 13.3837 24.5842 13.2508C24.7171 13.118 24.7917 12.9378 24.7917 12.75C24.7917 12.5621 24.7171 12.3819 24.5842 12.2491C24.4514 12.1163 24.2712 12.0416 24.0834 12.0416ZM24.7917 16.2916C24.7917 16.1038 24.7171 15.9236 24.5842 15.7908C24.4514 15.6579 24.2712 15.5833 24.0834 15.5833H9.91671C9.72885 15.5833 9.54868 15.6579 9.41584 15.7908C9.283 15.9236 9.20837 16.1038 9.20837 16.2916C9.20837 16.4795 9.283 16.6597 9.41584 16.7925C9.54868 16.9253 9.72885 17 9.91671 17H24.0834C24.2712 17 24.4514 16.9253 24.5842 16.7925C24.7171 16.6597 24.7917 16.4795 24.7917 16.2916ZM14.875 19.8333C14.875 19.6454 14.8004 19.4653 14.6676 19.3324C14.5347 19.1996 14.3546 19.125 14.1667 19.125H9.91671C9.72885 19.125 9.54868 19.1996 9.41584 19.3324C9.283 19.4653 9.20837 19.6454 9.20837 19.8333C9.20837 20.0212 9.283 20.2013 9.41584 20.3342C9.54868 20.467 9.72885 20.5416 9.91671 20.5416H14.1667C14.3546 20.5416 14.5347 20.467 14.6676 20.3342C14.8004 20.2013 14.875 20.0212 14.875 19.8333ZM9.91671 24.0833H12.75C12.9379 24.0833 13.1181 24.0087 13.2509 23.8758C13.3837 23.743 13.4584 23.5628 13.4584 23.375C13.4584 23.1871 13.3837 23.0069 13.2509 22.8741C13.1181 22.7413 12.9379 22.6666 12.75 22.6666H9.91671C9.72885 22.6666 9.54868 22.7413 9.41584 22.8741C9.283 23.0069 9.20837 23.1871 9.20837 23.375C9.20837 23.5628 9.283 23.743 9.41584 23.8758C9.54868 24.0087 9.72885 24.0833 9.91671 24.0833ZM9.91671 27.625H13.4584C13.6462 27.625 13.8264 27.5503 13.9592 27.4175C14.0921 27.2847 14.1667 27.1045 14.1667 26.9166C14.1667 26.7288 14.0921 26.5486 13.9592 26.4158C13.8264 26.2829 13.6462 26.2083 13.4584 26.2083H9.91671C9.72885 26.2083 9.54868 26.2829 9.41584 26.4158C9.283 26.5486 9.20837 26.7288 9.20837 26.9166C9.20837 27.1045 9.283 27.2847 9.41584 27.4175C9.54868 27.5503 9.72885 27.625 9.91671 27.625ZM21.9584 26.9166C21.3948 26.9166 20.8543 26.6927 20.4558 26.2942C20.0573 25.8957 19.8334 25.3552 19.8334 24.7916C19.8334 24.6038 19.7587 24.4236 19.6259 24.2908C19.4931 24.1579 19.3129 24.0833 19.125 24.0833C18.9372 24.0833 18.757 24.1579 18.6242 24.2908C18.4913 24.4236 18.4167 24.6038 18.4167 24.7916C18.4178 25.7306 18.7913 26.6308 19.4553 27.2947C20.1192 27.9587 21.0194 28.3322 21.9584 28.3333C22.1462 28.3333 22.3264 28.2587 22.4592 28.1258C22.5921 27.993 22.6667 27.8128 22.6667 27.625C22.6667 27.4371 22.5921 27.2569 22.4592 27.1241C22.3264 26.9913 22.1462 26.9166 21.9584 26.9166Z" fill="#4F61FB"/>
</svg>
