<svg width="28" height="30" viewBox="0 0 28 30" fill="none" xmlns="http://www.w3.org/2000/svg">
<path d="M21.4375 29.6094H7.625C7.48077 29.6094 7.33925 29.5702 7.21553 29.4961C7.09181 29.422 6.99052 29.3157 6.92247 29.1885C6.85441 29.0613 6.82215 28.9181 6.82911 28.774C6.83607 28.63 6.882 28.4905 6.962 28.3705L7.047 28.243C7.16147 28.0711 7.33823 27.9503 7.54 27.9062C8.54156 27.681 9.437 27.1224 10.0798 26.3219C10.7225 25.5215 11.0745 24.5266 11.0781 23.5V22.4375C11.0781 22.2262 11.1621 22.0235 11.3115 21.874C11.461 21.7246 11.6637 21.6406 11.875 21.6406H26.75C26.9613 21.6406 27.164 21.7246 27.3135 21.874C27.4629 22.0235 27.5469 22.2262 27.5469 22.4375V23.5C27.5452 25.1198 26.901 26.6728 25.7556 27.8181C24.6103 28.9635 23.0573 29.6077 21.4375 29.6094ZM10.6659 28.0156H21.4375C22.6347 28.0142 23.7824 27.538 24.629 26.6915C25.4755 25.8449 25.9517 24.6972 25.9531 23.5V23.2344H12.6719V23.5C12.6692 24.3507 12.4895 25.1915 12.1441 25.9689C11.7988 26.7464 11.2953 27.4434 10.6659 28.0156ZM17.1875 8.35938H5.5C5.28866 8.35938 5.08597 8.27542 4.93652 8.12598C4.78708 7.97653 4.70313 7.77384 4.70313 7.5625C4.70313 7.35116 4.78708 7.14847 4.93652 6.99902C5.08597 6.84958 5.28866 6.76562 5.5 6.76562H17.1875C17.3988 6.76562 17.6015 6.84958 17.751 6.99902C17.9004 7.14847 17.9844 7.35116 17.9844 7.5625C17.9844 7.77384 17.9004 7.97653 17.751 8.12598C17.6015 8.27542 17.3988 8.35938 17.1875 8.35938ZM17.1875 12.0781H5.5C5.28866 12.0781 5.08597 11.9942 4.93652 11.8447C4.78708 11.6953 4.70313 11.4926 4.70313 11.2812C4.70313 11.0699 4.78708 10.8672 4.93652 10.7178C5.08597 10.5683 5.28866 10.4844 5.5 10.4844H17.1875C17.3988 10.4844 17.6015 10.5683 17.751 10.7178C17.9004 10.8672 17.9844 11.0699 17.9844 11.2812C17.9844 11.4926 17.9004 11.6953 17.751 11.8447C17.6015 11.9942 17.3988 12.0781 17.1875 12.0781ZM17.1875 19.5156H5.5C5.28866 19.5156 5.08597 19.4317 4.93652 19.2822C4.78708 19.1328 4.70313 18.9301 4.70313 18.7188C4.70313 18.5074 4.78708 18.3047 4.93652 18.1553C5.08597 18.0058 5.28866 17.9219 5.5 17.9219H17.1875C17.3988 17.9219 17.6015 18.0058 17.751 18.1553C17.9004 18.3047 17.9844 18.5074 17.9844 18.7188C17.9844 18.9301 17.9004 19.1328 17.751 19.2822C17.6015 19.4317 17.3988 19.5156 17.1875 19.5156ZM17.1875 15.7969H5.5C5.28866 15.7969 5.08597 15.7129 4.93652 15.5635C4.78708 15.414 4.70313 15.2113 4.70313 15C4.70313 14.7887 4.78708 14.586 4.93652 14.4365C5.08597 14.2871 5.28866 14.2031 5.5 14.2031H17.1875C17.3988 14.2031 17.6015 14.2871 17.751 14.4365C17.9004 14.586 17.9844 14.7887 17.9844 15C17.9844 15.2113 17.9004 15.414 17.751 15.5635C17.6015 15.7129 17.3988 15.7969 17.1875 15.7969Z" fill="#4F61FB"/>
<path d="M19.3125 29.6093H6.5625C4.9428 29.6074 3.39 28.9631 2.2447 27.8178C1.09939 26.6725 0.455095 25.1197 0.453127 23.5V1.76122C0.452795 1.57135 0.493115 1.38361 0.571375 1.21061C0.649636 1.03761 0.764024 0.883376 0.90685 0.758265C1.04968 0.633153 1.21763 0.540067 1.39942 0.485264C1.58122 0.43046 1.77264 0.415209 1.96081 0.440536C2.73064 0.552654 3.46012 0.855841 4.08263 1.32241C4.63471 1.76426 5.32427 1.9985 6.03125 1.98435C6.7387 1.99917 7.4287 1.76403 7.97988 1.32029C8.79884 0.716277 9.78975 0.39049 10.8074 0.390681C11.825 0.390873 12.8158 0.717031 13.6345 1.32135C14.1931 1.75127 14.8782 1.98439 15.5831 1.98439C16.288 1.98439 16.9731 1.75127 17.5318 1.32135C18.3457 0.70372 19.3428 0.376087 20.3644 0.390599L20.8319 0.430974C21.0126 0.420991 21.1934 0.448018 21.3633 0.510399C21.5332 0.572779 21.6886 0.669199 21.8199 0.793748C21.9512 0.918297 22.0557 1.06835 22.127 1.23471C22.1983 1.40107 22.2348 1.58024 22.2344 1.76122V22.4375C22.2344 22.6488 22.1504 22.8515 22.001 23.0009C21.8515 23.1504 21.6488 23.2343 21.4375 23.2343C21.2262 23.2343 21.0235 23.1504 20.874 23.0009C20.7246 22.8515 20.6406 22.6488 20.6406 22.4375V2.01304L20.2921 1.98116C19.6087 1.98129 18.9462 2.21651 18.4158 2.64735C17.5951 3.25192 16.6025 3.57805 15.5831 3.57805C14.5638 3.57805 13.5712 3.25192 12.7505 2.64735C12.1941 2.21797 11.5112 1.98497 10.8084 1.98478C10.1056 1.98459 9.4226 2.21721 8.866 2.64629C8.05166 3.26475 7.05371 3.59278 6.03125 3.5781C5.01051 3.59239 4.01413 3.266 3.19969 2.65054C2.85437 2.38913 2.46346 2.19421 2.04688 2.07572V23.5C2.04828 24.6972 2.52449 25.8449 3.37103 26.6915C4.21757 27.538 5.36532 28.0142 6.5625 28.0156H19.3125C19.5238 28.0156 19.7265 28.0996 19.876 28.249C20.0254 28.3984 20.1094 28.6011 20.1094 28.8125C20.1094 29.0238 20.0254 29.2265 19.876 29.3759C19.7265 29.5254 19.5238 29.6093 19.3125 29.6093Z" fill="#4F61FB"/>
</svg>
