<svg width="32" height="32" viewBox="0 0 32 32" fill="none" xmlns="http://www.w3.org/2000/svg">
<path d="M26 16H15.3333C15.1565 16 14.987 15.9298 14.8619 15.8048C14.7369 15.6798 14.6667 15.5102 14.6667 15.3334C14.6667 15.1566 14.7369 14.987 14.8619 14.862C14.987 14.7369 15.1565 14.6667 15.3333 14.6667H26C26.1768 14.6667 26.3464 14.7369 26.4714 14.862C26.5964 14.987 26.6667 15.1566 26.6667 15.3334C26.6667 15.5102 26.5964 15.6798 26.4714 15.8048C26.3464 15.9298 26.1768 16 26 16ZM31.3333 9.33337H15.3333C15.1565 9.33337 14.987 9.26314 14.8619 9.13811C14.7369 9.01309 14.6667 8.84352 14.6667 8.66671C14.6667 8.4899 14.7369 8.32033 14.8619 8.1953C14.987 8.07028 15.1565 8.00004 15.3333 8.00004H31.3333C31.5101 8.00004 31.6797 8.07028 31.8047 8.1953C31.9298 8.32033 32 8.4899 32 8.66671C32 8.84352 31.9298 9.01309 31.8047 9.13811C31.6797 9.26314 31.5101 9.33337 31.3333 9.33337ZM26 2.66671H15.3333C15.1565 2.66671 14.987 2.59647 14.8619 2.47145C14.7369 2.34642 14.6667 2.17685 14.6667 2.00004C14.6667 1.82323 14.7369 1.65366 14.8619 1.52864C14.987 1.40361 15.1565 1.33337 15.3333 1.33337H26C26.1768 1.33337 26.3464 1.40361 26.4714 1.52864C26.5964 1.65366 26.6667 1.82323 26.6667 2.00004C26.6667 2.17685 26.5964 2.34642 26.4714 2.47145C26.3464 2.59647 26.1768 2.66671 26 2.66671ZM30 29.3334H16.6667C15.564 29.3334 14.6667 28.436 14.6667 27.3334V23.3334C14.6667 22.2307 15.564 21.3334 16.6667 21.3334H30C31.1027 21.3334 32 22.2307 32 23.3334V27.3334C32 28.436 31.1027 29.3334 30 29.3334ZM16.6667 22.6667C16.4899 22.6667 16.3203 22.7369 16.1953 22.862C16.0702 22.987 16 23.1566 16 23.3334V27.3334C16 27.5102 16.0702 27.6798 16.1953 27.8048C16.3203 27.9298 16.4899 28 16.6667 28H30C30.1768 28 30.3464 27.9298 30.4714 27.8048C30.5964 27.6798 30.6667 27.5102 30.6667 27.3334V23.3334C30.6667 23.1566 30.5964 22.987 30.4714 22.862C30.3464 22.7369 30.1768 22.6667 30 22.6667H16.6667ZM11.3333 26H0.666667C0.489856 26 0.320286 25.9298 0.195262 25.8048C0.0702379 25.6798 0 25.5102 0 25.3334C0 25.1566 0.0702379 24.987 0.195262 24.862C0.320286 24.7369 0.489856 24.6667 0.666667 24.6667H11.3333C11.5101 24.6667 11.6797 24.7369 11.8047 24.862C11.9298 24.987 12 25.1566 12 25.3334C12 25.5102 11.9298 25.6798 11.8047 25.8048C11.6797 25.9298 11.5101 26 11.3333 26Z" fill="#4F61FB"/>
<path d="M5.99999 31.3334C5.86824 31.3334 5.73945 31.2943 5.62988 31.2212C5.52032 31.148 5.43489 31.044 5.38439 30.9223C5.33388 30.8006 5.32057 30.6667 5.34613 30.5374C5.37169 30.4082 5.43497 30.2894 5.52799 30.1961L10.3907 25.3334L5.52932 20.4721C5.40789 20.3464 5.34069 20.178 5.34221 20.0032C5.34373 19.8284 5.41384 19.6612 5.53745 19.5375C5.66105 19.4139 5.82826 19.3438 6.00306 19.3423C6.17785 19.3408 6.34626 19.408 6.47199 19.5294L11.8053 24.8628C11.9303 24.9878 12.0005 25.1573 12.0005 25.3341C12.0005 25.5109 11.9303 25.6804 11.8053 25.8054L6.47199 31.1388C6.34656 31.2635 6.17687 31.3335 5.99999 31.3334Z" fill="#4F61FB"/>
</svg>
