<svg width="30" height="32" viewBox="0 0 30 32" fill="none" xmlns="http://www.w3.org/2000/svg">
<path d="M15.5938 3.25H12.4062C12.2654 3.25 12.1302 3.19403 12.0306 3.0944C11.931 2.99477 11.875 2.85965 11.875 2.71875C11.875 2.57785 11.931 2.44273 12.0306 2.3431C12.1302 2.24347 12.2654 2.1875 12.4062 2.1875H15.5938C15.7346 2.1875 15.8698 2.24347 15.9694 2.3431C16.069 2.44273 16.125 2.57785 16.125 2.71875C16.125 2.85965 16.069 2.99477 15.9694 3.0944C15.8698 3.19403 15.7346 3.25 15.5938 3.25ZM19.8438 31.9375H8.15625C7.45194 31.9369 6.77664 31.6569 6.27862 31.1589C5.7806 30.6609 5.50056 29.9856 5.5 29.2812V21.8438C5.5 21.7029 5.55597 21.5677 5.6556 21.4681C5.75523 21.3685 5.89035 21.3125 6.03125 21.3125C6.17215 21.3125 6.30727 21.3685 6.4069 21.4681C6.50653 21.5677 6.5625 21.7029 6.5625 21.8438V29.2812C6.5625 30.1599 7.27756 30.875 8.15625 30.875H19.8438C20.7224 30.875 21.4375 30.1599 21.4375 29.2812V28.2188C21.4375 28.0779 21.4935 27.9427 21.5931 27.8431C21.6927 27.7435 21.8279 27.6875 21.9688 27.6875C22.1096 27.6875 22.2448 27.7435 22.3444 27.8431C22.444 27.9427 22.5 28.0779 22.5 28.2188V29.2812C22.5 30.7464 21.3089 31.9375 19.8438 31.9375Z" fill="#4F61FB"/>
<path d="M21.9687 10.6875C21.8278 10.6875 21.6927 10.6315 21.5931 10.5319C21.4935 10.4323 21.4375 10.2971 21.4375 10.1562V2.71875C21.4375 1.84006 20.7224 1.125 19.8437 1.125H8.15624C7.27755 1.125 6.56249 1.84006 6.56249 2.71875V3.78125C6.56249 3.92215 6.50652 4.05727 6.40689 4.1569C6.30726 4.25653 6.17213 4.3125 6.03124 4.3125C5.89034 4.3125 5.75522 4.25653 5.65559 4.1569C5.55596 4.05727 5.49999 3.92215 5.49999 3.78125V2.71875C5.49999 1.25356 6.69105 0.0625 8.15624 0.0625H19.8437C21.3089 0.0625 22.5 1.25356 22.5 2.71875V10.1562C22.5 10.2971 22.444 10.4323 22.3444 10.5319C22.2448 10.6315 22.1096 10.6875 21.9687 10.6875ZM7.62499 13.875C6.1598 13.875 4.96874 12.6839 4.96874 11.2188C4.96874 9.75356 6.1598 8.5625 7.62499 8.5625C9.09018 8.5625 10.2812 9.75356 10.2812 11.2188C10.2812 12.6839 9.09018 13.875 7.62499 13.875ZM7.62499 9.625C6.7463 9.625 6.03124 10.3401 6.03124 11.2188C6.03124 12.0974 6.7463 12.8125 7.62499 12.8125C8.50368 12.8125 9.21874 12.0974 9.21874 11.2188C9.21874 10.3401 8.50368 9.625 7.62499 9.625ZM7.62499 20.25C5.75702 20.2488 3.95849 19.5418 2.5898 18.2706C2.51985 18.2062 2.46853 18.1242 2.44123 18.0331C2.41393 17.9421 2.41167 17.8454 2.43468 17.7531C2.63187 16.9486 3.09363 16.2337 3.74585 15.7231C4.39807 15.2125 5.20293 14.9358 6.03124 14.9375H9.21874C10.047 14.9359 10.8518 15.2125 11.5041 15.7228C12.1565 16.2332 12.6186 16.9478 12.8164 17.7521C12.8391 17.8443 12.8368 17.941 12.8095 18.032C12.7822 18.123 12.731 18.205 12.6612 18.2695C11.2924 19.5414 9.49347 20.2488 7.62499 20.25ZM3.5588 17.7074C5.8538 19.621 9.39618 19.621 11.6912 17.7074C11.5023 17.2047 11.1642 16.7718 10.7223 16.4666C10.2804 16.1614 9.75577 15.9986 9.21874 16H6.03124C5.4942 15.9986 4.96957 16.1614 4.52767 16.4666C4.08576 16.7718 3.7477 17.2047 3.5588 17.7074Z" fill="#4F61FB"/>
<path d="M7.625 20.25C3.52481 20.25 0.1875 16.9127 0.1875 12.8125C0.1875 8.71231 3.52481 5.375 7.625 5.375C11.7252 5.375 15.0625 8.71231 15.0625 12.8125C15.0625 16.9127 11.7252 20.25 7.625 20.25ZM7.625 6.4375C4.10919 6.4375 1.25 9.29669 1.25 12.8125C1.25 16.3283 4.10919 19.1875 7.625 19.1875C11.1408 19.1875 14 16.3283 14 12.8125C14 9.29669 11.1408 6.4375 7.625 6.4375ZM2.84375 24.4469C2.5505 24.4469 2.3125 24.262 2.3125 23.9688V23.8625C2.3125 23.7216 2.36847 23.5865 2.4681 23.4868C2.56773 23.3872 2.70285 23.3312 2.84375 23.3312C2.98465 23.3312 3.11977 23.3872 3.2194 23.4868C3.31903 23.5865 3.375 23.7216 3.375 23.8625C3.375 24.1558 3.137 24.4469 2.84375 24.4469ZM2.84375 26.5719C2.5505 26.5719 2.3125 26.387 2.3125 26.0938V25.9875C2.3125 25.8466 2.36847 25.7115 2.4681 25.6118C2.56773 25.5122 2.70285 25.4562 2.84375 25.4562C2.98465 25.4562 3.11977 25.5122 3.2194 25.6118C3.31903 25.7115 3.375 25.8466 3.375 25.9875C3.375 26.2808 3.137 26.5719 2.84375 26.5719ZM2.84375 28.6969C2.5505 28.6969 2.3125 28.512 2.3125 28.2188V28.1125C2.3125 27.9716 2.36847 27.8365 2.4681 27.7368C2.56773 27.6372 2.70285 27.5812 2.84375 27.5812C2.98465 27.5812 3.11977 27.6372 3.2194 27.7368C3.31903 27.8365 3.375 27.9716 3.375 28.1125C3.375 28.4058 3.137 28.6969 2.84375 28.6969ZM25.1562 4.36563C24.863 4.36563 24.625 4.18075 24.625 3.8875V3.78125C24.625 3.64035 24.681 3.50523 24.7806 3.4056C24.8802 3.30597 25.0154 3.25 25.1562 3.25C25.2971 3.25 25.4323 3.30597 25.5319 3.4056C25.6315 3.50523 25.6875 3.64035 25.6875 3.78125C25.6875 4.0745 25.4495 4.36563 25.1562 4.36563ZM25.1562 6.49063C24.863 6.49063 24.625 6.30575 24.625 6.0125V5.90625C24.625 5.76535 24.681 5.63023 24.7806 5.5306C24.8802 5.43097 25.0154 5.375 25.1562 5.375C25.2971 5.375 25.4323 5.43097 25.5319 5.5306C25.6315 5.63023 25.6875 5.76535 25.6875 5.90625C25.6875 6.1995 25.4495 6.49063 25.1562 6.49063ZM25.1562 8.61563C24.863 8.61563 24.625 8.43075 24.625 8.1375V8.03125C24.625 7.89035 24.681 7.75523 24.7806 7.6556C24.8802 7.55597 25.0154 7.5 25.1562 7.5C25.2971 7.5 25.4323 7.55597 25.5319 7.6556C25.6315 7.75523 25.6875 7.89035 25.6875 8.03125C25.6875 8.3245 25.4495 8.61563 25.1562 8.61563ZM22.8612 26.625H21.0763C20.9548 26.625 20.8371 26.5833 20.7427 26.5069C20.6483 26.4305 20.5831 26.3241 20.5578 26.2053L20.2741 24.8953C19.8798 24.7755 19.4985 24.6164 19.1361 24.4203L17.995 25.1502C17.8929 25.2164 17.7711 25.2453 17.6501 25.2322C17.5292 25.219 17.4164 25.1646 17.3309 25.078L16.0761 23.8136C15.9911 23.7275 15.938 23.615 15.9256 23.4946C15.9133 23.3743 15.9424 23.2533 16.0081 23.1517L16.7349 22.0233C16.5367 21.6604 16.3775 21.2776 16.2599 20.8811L14.9488 20.59C14.8307 20.5639 14.7251 20.4983 14.6494 20.404C14.5737 20.3097 14.5324 20.1924 14.5323 20.0715V18.3078C14.5324 18.1868 14.5737 18.0695 14.6494 17.9753C14.7251 17.881 14.8307 17.8154 14.9488 17.7893L16.2599 17.4981C16.38 17.0954 16.5404 16.7129 16.7359 16.3549L16.0071 15.2169C15.9417 15.115 15.9132 14.9938 15.9261 14.8734C15.9391 14.7531 15.9927 14.6407 16.0782 14.555L17.3331 13.3002C17.4185 13.2141 17.5309 13.1601 17.6514 13.1471C17.7719 13.1342 17.8933 13.1631 17.995 13.229L19.1361 13.9589C19.4984 13.7626 19.8797 13.6035 20.2741 13.484L20.5578 12.1739C20.582 12.0543 20.6469 11.9468 20.7414 11.8695C20.8359 11.7922 20.9542 11.75 21.0763 11.75H22.8612C23.1109 11.75 23.3277 11.9243 23.3797 12.1697L23.6634 13.4798C24.0523 13.5966 24.4338 13.7571 24.8014 13.9547L25.9425 13.2247C26.0442 13.1588 26.1656 13.1299 26.2861 13.1429C26.4066 13.1559 26.519 13.2099 26.6044 13.2959L27.8593 14.5507C27.9448 14.6365 27.9984 14.7488 28.0114 14.8692C28.0243 14.9896 27.9958 15.1108 27.9304 15.2127L27.2005 16.3538C27.4002 16.7236 27.5586 17.1039 27.6765 17.4939L28.9887 17.785C29.1068 17.8111 29.2124 17.8767 29.2881 17.971C29.3638 18.0653 29.4051 18.1826 29.4052 18.3035V20.0672C29.4051 20.1882 29.3638 20.3055 29.2881 20.3997C29.2124 20.494 29.1068 20.5596 28.9887 20.5858L27.6765 20.8769C27.5564 21.2715 27.3969 21.6531 27.2005 22.0159L27.9294 23.1464C27.9951 23.248 28.0242 23.3689 28.0119 23.4893C27.9995 23.6097 27.9464 23.7222 27.8614 23.8083L26.6066 25.0727C26.5208 25.1589 26.4082 25.2131 26.2873 25.2262C26.1665 25.2394 26.0447 25.2107 25.9425 25.1449L24.8014 24.415C24.4391 24.6113 24.0578 24.7705 23.6634 24.8899L23.3797 26.2C23.3557 26.3198 23.2909 26.4276 23.1964 26.5051C23.1019 26.5826 22.9835 26.6249 22.8612 26.625ZM21.5044 25.5625H22.432L22.6923 24.3555C22.7133 24.2578 22.7614 24.1679 22.8311 24.0963C22.9009 24.0247 22.9894 23.9742 23.0865 23.9507C23.5991 23.8254 24.0891 23.621 24.5389 23.3451C24.6238 23.2932 24.7215 23.2663 24.8209 23.2674C24.9203 23.2686 25.0174 23.2977 25.101 23.3514L26.1529 24.024L26.8042 23.3674L26.1338 22.3219C26.0799 22.2381 26.0506 22.1409 26.0493 22.0414C26.048 21.9418 26.0747 21.8439 26.1263 21.7588C26.4079 21.2955 26.6119 20.8067 26.7319 20.3063C26.7553 20.2096 26.8053 20.1214 26.8763 20.0517C26.9473 19.982 27.0364 19.9336 27.1336 19.9121L28.3438 19.6433V18.7328L27.1336 18.4639C27.0365 18.4422 26.9475 18.3938 26.8765 18.3241C26.8056 18.2545 26.7555 18.1664 26.7319 18.0697C26.6066 17.5571 26.4023 17.0671 26.1263 16.6173C26.0742 16.5326 26.0472 16.4348 26.0483 16.3354C26.0494 16.2359 26.0787 16.1388 26.1327 16.0553L26.8063 15.0023L26.1561 14.3521L25.1031 15.0257C25.0195 15.0794 24.9224 15.1086 24.823 15.1097C24.7236 15.1108 24.6259 15.0839 24.5411 15.0321C24.0913 14.756 23.6013 14.5517 23.0886 14.4264C22.9914 14.4031 22.9027 14.3527 22.833 14.2811C22.7632 14.2094 22.7152 14.1195 22.6944 14.0216L22.4331 12.8125H21.5055L21.2452 14.0195C21.2242 14.1172 21.1761 14.2071 21.1064 14.2787C21.0366 14.3503 20.9481 14.4008 20.851 14.4243C20.3384 14.5496 19.8484 14.754 19.3986 15.0299C19.3137 15.0818 19.216 15.1087 19.1166 15.1076C19.0172 15.1064 18.9201 15.0773 18.8365 15.0236L17.7836 14.3499L17.1333 15.0002L17.8069 16.0531C17.8612 16.1381 17.8902 16.2367 17.8906 16.3376C17.8909 16.4384 17.8627 16.5372 17.8091 16.6226C17.5309 17.0681 17.3277 17.5563 17.2077 18.0676C17.1844 18.1643 17.1344 18.2526 17.0634 18.3223C16.9924 18.392 16.9032 18.4403 16.8061 18.4618L15.5938 18.7317V19.6423L16.8039 19.9111C16.901 19.9328 16.99 19.9812 17.061 20.0509C17.1319 20.1205 17.182 20.2086 17.2056 20.3053C17.332 20.8312 17.5349 21.3178 17.8069 21.7502C17.8611 21.8357 17.8896 21.9349 17.889 22.036C17.8885 22.1371 17.8589 22.236 17.8037 22.3208L17.1312 23.3652L17.7825 24.0219L18.8344 23.3493C18.9182 23.296 19.0152 23.2672 19.1145 23.2661C19.2138 23.2649 19.3114 23.2916 19.3964 23.3429C19.8597 23.6245 20.3484 23.8285 20.8489 23.9486C20.9461 23.9719 21.0348 24.0223 21.1045 24.0939C21.1743 24.1656 21.2223 24.2555 21.2431 24.3534L21.5044 25.5625Z" fill="#4F61FB"/>
<path d="M23.7771 21.6631C23.6698 21.6636 23.5649 21.6315 23.4762 21.5711C23.3875 21.5106 23.3193 21.4247 23.2805 21.3247C23.2417 21.2246 23.2341 21.1151 23.2589 21.0107C23.2836 20.9063 23.3395 20.8118 23.419 20.7398C23.6315 20.5454 23.996 20.5231 24.1957 20.7313C24.3955 20.9396 24.4263 21.2371 24.2212 21.4411C24.1927 21.4692 24.1637 21.4969 24.1341 21.524C24.037 21.6138 23.9094 21.6635 23.7771 21.6631Z" fill="#4F61FB"/>
<path d="M21.9688 22.375C20.2114 22.375 18.7812 20.9449 18.7812 19.1875C18.7812 17.4301 20.2114 16 21.9688 16C23.7261 16 25.1562 17.4301 25.1562 19.1875C25.1562 19.3284 25.1003 19.4635 25.0007 19.5632C24.901 19.6628 24.7659 19.7188 24.625 19.7188C24.4841 19.7188 24.349 19.6628 24.2493 19.5632C24.1497 19.4635 24.0938 19.3284 24.0938 19.1875C24.0938 18.0156 23.1407 17.0625 21.9688 17.0625C20.7968 17.0625 19.8438 18.0156 19.8438 19.1875C19.8438 20.3594 20.7968 21.3125 21.9688 21.3125C22.1096 21.3125 22.2448 21.3685 22.3444 21.4681C22.444 21.5677 22.5 21.7029 22.5 21.8438C22.5 21.9846 22.444 22.1198 22.3444 22.2194C22.2448 22.319 22.1096 22.375 21.9688 22.375Z" fill="#4F61FB"/>
</svg>
