<svg width="32" height="32" viewBox="0 0 32 32" fill="none" xmlns="http://www.w3.org/2000/svg">
<path d="M25.3707 4.19259H22.4757V2.89747C22.4757 2.47845 22.0186 2.28801 21.5996 2.28801H19.3522C18.8189 0.764314 17.4857 0.00246641 15.962 0.00246641C14.455 -0.0541855 13.0844 0.869816 12.5717 2.28801H10.3624C9.94338 2.28801 9.52436 2.47845 9.52436 2.89747V4.19259H6.62928C4.91368 4.21089 3.51014 5.56427 3.4295 7.27804V29.1049C3.4295 30.781 4.9532 31.9999 6.62928 31.9999H25.3707C27.0468 31.9999 28.5705 30.781 28.5705 29.1049V7.27811C28.4898 5.56427 27.0863 4.21089 25.3707 4.19259ZM11.048 3.8117H13.1431C13.3212 3.78997 13.4877 3.71162 13.618 3.58819C13.7483 3.46476 13.8355 3.30277 13.8669 3.12605C14.0925 2.14365 14.9543 1.43845 15.962 1.41191C16.9603 1.44217 17.8092 2.14955 18.0189 3.12605C18.0521 3.30853 18.1449 3.47484 18.2828 3.59892C18.4207 3.723 18.5958 3.79784 18.7808 3.8117H20.9521V6.85909H11.048V3.8117ZM27.0468 29.105C27.0468 29.943 26.2087 30.4763 25.3707 30.4763H6.62928C5.79124 30.4763 4.9532 29.943 4.9532 29.105V7.27811C5.03092 6.40581 5.75362 5.73233 6.62928 5.71636H9.52428V7.65907C9.56453 8.08589 9.93419 8.40517 10.3623 8.38286H21.5995C21.8098 8.39436 22.0167 8.32628 22.179 8.19217C22.3413 8.05805 22.4472 7.86773 22.4756 7.65907V5.71629H25.3706C26.2462 5.73233 26.969 6.40573 27.0467 7.27804V29.105H27.0468Z" fill="#4F61FB"/>
<path d="M13.0669 17.0298C12.7812 16.7286 12.3068 16.7116 12.0003 16.9917L9.56235 19.3153L8.53387 18.2487C8.24813 17.9475 7.77377 17.9306 7.46725 18.2107C7.3252 18.3595 7.24594 18.5573 7.24594 18.763C7.24594 18.9687 7.3252 19.1665 7.46725 19.3153L9.02901 20.9152C9.09578 20.99 9.17813 21.0492 9.27027 21.0887C9.36241 21.1282 9.46208 21.147 9.56228 21.1438C9.76323 21.141 9.95491 21.0588 10.0955 20.9152L13.0667 18.0964C13.3613 17.8262 13.381 17.3683 13.1107 17.0738C13.0968 17.0585 13.0822 17.0438 13.0669 17.0298ZM23.9994 18.6677H15.2382C14.8174 18.6677 14.4763 19.0088 14.4763 19.4296C14.4763 19.8504 14.8174 20.1914 15.2382 20.1914H23.9994C24.4202 20.1914 24.7612 19.8504 24.7612 19.4296C24.7612 19.0088 24.4202 18.6677 23.9994 18.6677ZM13.0669 10.935C12.7812 10.6338 12.3068 10.6168 12.0003 10.897L9.56235 13.2206L8.53387 12.154C8.24813 11.8528 7.77377 11.8358 7.46725 12.1159C7.3252 12.2647 7.24594 12.4625 7.24594 12.6682C7.24594 12.8739 7.3252 13.0718 7.46725 13.2206L9.02901 14.8205C9.09578 14.8952 9.17813 14.9544 9.27027 14.9939C9.36241 15.0334 9.46208 15.0522 9.56228 15.049C9.76323 15.0462 9.95491 14.964 10.0955 14.8205L13.0667 12.0016C13.3613 11.7314 13.381 11.2735 13.1107 10.9791C13.0968 10.9637 13.0822 10.949 13.0669 10.935ZM23.9994 12.573H15.2382C14.8174 12.573 14.4763 12.914 14.4763 13.3348C14.4763 13.7556 14.8174 14.0967 15.2382 14.0967H23.9994C24.4202 14.0967 24.7612 13.7556 24.7612 13.3348C24.7612 12.914 24.4202 12.573 23.9994 12.573ZM13.0669 23.1245C12.7812 22.8233 12.3068 22.8064 12.0003 23.0864L9.56235 25.4101L8.53387 24.3434C8.24813 24.0422 7.77377 24.0253 7.46725 24.3054C7.3252 24.4542 7.24594 24.652 7.24594 24.8577C7.24594 25.0634 7.3252 25.2612 7.46725 25.4101L9.02901 27.0099C9.09578 27.0847 9.17813 27.1439 9.27027 27.1834C9.36241 27.2229 9.46208 27.2417 9.56228 27.2385C9.76323 27.2357 9.95491 27.1535 10.0955 27.0099L13.0667 24.1911C13.3613 23.9209 13.381 23.463 13.1107 23.1685C13.0968 23.1532 13.0822 23.1385 13.0669 23.1245ZM23.9994 24.7625H15.2382C14.8174 24.7625 14.4763 25.1036 14.4763 25.5244C14.4763 25.9451 14.8174 26.2862 15.2382 26.2862H23.9994C24.4202 26.2862 24.7612 25.9451 24.7612 25.5244C24.7612 25.1036 24.4202 24.7625 23.9994 24.7625Z" fill="#4F61FB"/>
</svg>
