<svg width="32" height="32" viewBox="0 0 32 32" fill="none" xmlns="http://www.w3.org/2000/svg">
<path d="M3.98264 18.6878C3.7179 18.423 3.50464 18.0921 3.36492 17.7023C3.22519 17.3126 3.13695 16.9008 3.11488 16.4522C3.07811 15.6947 3.18842 15.0108 3.45316 14.3784C3.71055 13.7533 4.09295 13.1797 4.60772 12.665C5.35781 11.9149 6.33587 11.2898 7.5419 10.8044C8.74794 10.3191 10.079 9.95873 11.5277 9.73076C12.9911 9.5028 14.4766 9.38513 15.9988 9.37778C17.5211 9.38513 19.0066 9.5028 20.4553 9.73077C21.8966 9.96609 23.2203 10.3191 24.4043 10.7971C25.5956 11.2824 26.5737 11.9075 27.3385 12.6723C27.8385 13.1724 28.2283 13.7386 28.493 14.3563C28.7651 14.9814 28.8975 15.6727 28.8754 16.4301C28.8681 17.3641 28.5813 18.1068 28.0371 18.651C27.8312 18.8569 27.5812 19.0187 27.3091 19.1143C27.0296 19.2172 26.7281 19.254 26.4045 19.1952L22.2937 18.4966C21.9775 18.4451 21.7128 18.3715 21.4848 18.2759C21.2642 18.1877 21.073 18.07 20.9333 17.9303C20.7568 17.7538 20.6318 17.5259 20.5656 17.2538C20.492 16.989 20.4553 16.6728 20.4553 16.3198L20.4332 15.18C20.4332 15.0182 20.3744 14.8858 20.2567 14.7682C20.1979 14.7093 20.1391 14.6652 20.0655 14.6211C19.9846 14.5843 19.9184 14.5622 19.8596 14.5328C19.4846 14.4225 18.9404 14.3343 18.2344 14.2754C17.5211 14.224 16.7783 14.1872 16.0062 14.1798C15.2193 14.1872 14.4766 14.2093 13.7559 14.2681C13.0499 14.3269 12.5131 14.4225 12.1307 14.5402C12.0792 14.5622 12.013 14.5843 11.9395 14.6137C11.8586 14.6505 11.7924 14.702 11.7262 14.7682C11.6012 14.8932 11.5498 15.0329 11.5498 15.1947L11.5424 16.3051C11.5424 16.6728 11.5056 16.989 11.4247 17.2464C11.3586 17.5185 11.2409 17.7391 11.057 17.923C10.9173 18.0627 10.7408 18.1803 10.5129 18.2759C10.2849 18.3715 10.0202 18.4451 9.71129 18.5039L5.54901 19.2099C5.22544 19.2687 4.93864 19.2467 4.6739 19.1437C4.41652 19.0334 4.18855 18.8937 3.98264 18.6878Z" fill="white"/>
</svg>
