<svg>
    <symbol id="time" viewBox="0 0 11 13" xmlns="http://www.w3.org/2000/svg">
        <path
            d="M4.61987 12.0879C4.30715 12.088 3.99521 12.0565 3.6888 11.9941C3.09792 11.873 2.53666 11.6368 2.03703 11.299C1.29426 10.7975 0.712841 10.0914 0.363238 9.26625C0.245049 8.98681 0.154819 8.69636 0.0938671 8.39914C-0.031289 7.78474 -0.031289 7.15141 0.0938671 6.537C0.214898 5.94612 0.451092 5.38486 0.788972 4.88524C1.29041 4.14246 1.9965 3.56105 2.82169 3.21144C3.10113 3.09325 3.39158 3.00302 3.6888 2.94207C4.3032 2.81692 4.93653 2.81692 5.55094 2.94207C6.14182 3.0631 6.70308 3.2993 7.2027 3.63718C7.94548 4.13862 8.52689 4.84471 8.8765 5.6699C8.99469 5.94933 9.08492 6.23978 9.14587 6.537C9.26894 7.14162 9.27087 7.76464 9.15155 8.37C9.04922 8.8907 8.8568 9.38954 8.58296 9.84408C8.17284 10.5289 7.59211 11.0956 6.89748 11.4889C6.20286 11.8822 5.4181 12.0886 4.61987 12.0879ZM6.21122 5.30387C6.13636 5.30381 6.06222 5.31853 5.99307 5.34719C5.92391 5.37586 5.8611 5.41789 5.80823 5.47089L4.19342 7.08356C4.08645 7.19072 4.02643 7.33599 4.02656 7.48741C4.02669 7.63883 4.08697 7.78399 4.19413 7.89096C4.3013 7.99794 4.44656 8.05796 4.59798 8.05783C4.7494 8.05769 4.89456 7.99741 5.00153 7.89025L5.80823 7.08356L6.61492 6.27758C6.69556 6.19817 6.75066 6.09651 6.77319 5.9856C6.79571 5.87469 6.78462 5.75958 6.74134 5.65501C6.69806 5.55044 6.62456 5.46116 6.53025 5.3986C6.43593 5.33605 6.3251 5.30306 6.21193 5.30387H6.21122Z" />
        <path
            d="M2.3584 0.604244C2.3584 0.444019 2.42205 0.290356 2.53534 0.17706C2.64864 0.0637634 2.8023 0.000114083 2.96253 0.000114083L6.58731 0.000114083C6.74753 0.000114083 6.9012 0.0637634 7.01449 0.17706C7.12779 0.290356 7.19144 0.444019 7.19144 0.604244C7.19144 0.764469 7.12779 0.918132 7.01449 1.03143C6.9012 1.14472 6.74753 1.20837 6.58731 1.20837L2.96253 1.20837C2.8023 1.20837 2.64864 1.14472 2.53534 1.03143C2.42205 0.918132 2.3584 0.764469 2.3584 0.604244V0.604244Z" />
        <path
            d="M8.55942 1.73251C8.67645 1.61548 8.83517 1.54974 9.00068 1.54974C9.16618 1.54974 9.3249 1.61548 9.44193 1.73251L10.239 2.52959C10.356 2.64661 10.4218 2.80534 10.4218 2.97084C10.4218 3.13635 10.356 3.29507 10.239 3.4121C10.122 3.52913 9.96326 3.59487 9.79775 3.59487C9.63225 3.59487 9.47352 3.52913 9.3565 3.4121L8.55942 2.61502C8.44239 2.49799 8.37665 2.33927 8.37665 2.17377C8.37665 2.00826 8.44239 1.84954 8.55942 1.73251Z" />
    </symbol>

    <symbol id="star" viewBox="0 0 10 10" xmlns="http://www.w3.org/2000/svg">
        <path
            d="M3.29369 3.11798L4.59245 0.50188C4.75915 0.16604 5.24085 0.16604 5.40755 0.50188L6.7063 3.11798L9.61075 3.54008C9.9834 3.59424 10.1319 4.0497 9.86215 4.31095L7.76085 6.3459L8.25675 9.2207C8.32045 9.5899 7.9307 9.8714 7.59725 9.69705L5 8.339L2.40274 9.69705C2.0693 9.8714 1.67955 9.5899 1.74323 9.2207L2.23913 6.3459L0.137876 4.31095C-0.131914 4.0497 0.0166109 3.59424 0.389261 3.54008L3.29369 3.11798Z" />
    </symbol>
    <symbol id="map" viewBox="0 0 12 12" xmlns="http://www.w3.org/2000/svg">
        <path
            d="M10.0156 4.225C9.50561 1.915 7.54819 0.875 5.82876 0.875C5.82876 0.875 5.82876 0.875 5.8239 0.875C4.10933 0.875 2.14704 1.91 1.63704 4.22C1.06876 6.8 2.60361 8.985 3.99276 10.36C4.50761 10.87 5.16819 11.125 5.82876 11.125C6.48933 11.125 7.1499 10.87 7.6599 10.36C9.04904 8.985 10.5839 6.805 10.0156 4.225ZM5.82876 6.73C4.98361 6.73 4.29876 6.025 4.29876 5.155C4.29876 4.285 4.98361 3.58 5.82876 3.58C6.6739 3.58 7.35876 4.285 7.35876 5.155C7.35876 6.025 6.6739 6.73 5.82876 6.73Z" />
    </symbol>

    <symbol id="shipping" viewBox="0 0 14 12" xmlns="http://www.w3.org/2000/svg">
        <path
            d="M4.99508 5.99621C5.00121 5.323 5.18206 4.66292 5.51993 4.08059C5.8578 3.49827 6.3411 3.01368 6.92251 2.67426C7.03823 2.58282 7.17567 2.52291 7.32143 2.50038C7.46718 2.47785 7.61628 2.49346 7.75421 2.54569C7.89214 2.59793 8.01417 2.685 8.10844 2.79843C8.20271 2.91186 8.26601 3.04776 8.29213 3.19292C8.43443 3.61056 8.6066 4.01827 8.74463 4.43734C8.78143 4.56314 8.85082 4.67695 8.94578 4.76729C9.04075 4.85763 9.1579 4.92127 9.28538 4.95175C9.70801 5.07341 10.1306 5.19366 10.5511 5.3203C10.6064 5.33074 10.659 5.35211 10.7059 5.38314C10.7528 5.41418 10.793 5.45426 10.8242 5.50104C10.8554 5.54783 10.877 5.60036 10.8877 5.65558C10.8983 5.7108 10.8978 5.76758 10.8862 5.82262C10.8798 5.882 10.8607 5.93932 10.8303 5.9907C10.7998 6.04207 10.7587 6.08631 10.7096 6.12043C10.6606 6.15456 10.6048 6.17777 10.546 6.1885C10.4873 6.19923 10.4269 6.19723 10.369 6.18264C9.94565 6.12359 9.52373 6.05741 9.10394 5.9763C8.78918 5.92913 8.4907 5.80574 8.23451 5.61688C7.97831 5.42802 7.77218 5.17941 7.63401 4.89269C7.56286 4.75039 7.47604 4.6145 7.38283 4.45228C7.05563 4.77111 6.83582 5.18391 6.75389 5.63336C6.70195 5.8397 6.75386 5.93787 6.95877 6.00831C7.56781 6.21677 8.17259 6.43948 8.77451 6.66858C8.8944 6.69739 9.00512 6.75594 9.09643 6.83881C9.18774 6.92168 9.25671 7.02621 9.29697 7.14275C9.33724 7.2593 9.34748 7.38411 9.32681 7.50567C9.30613 7.62722 9.25517 7.74161 9.17864 7.83829C8.87696 8.33634 8.55397 8.82157 8.23451 9.30894C8.00825 9.65402 8.00398 9.65116 8.23451 10.0012C8.24874 10.0226 8.27363 10.0446 8.27363 10.066C8.27363 10.1805 8.30848 10.3314 8.25014 10.3997C8.20722 10.442 8.15508 10.4738 8.0978 10.4925C8.04052 10.5113 7.97966 10.5165 7.92001 10.5078C7.61301 10.4209 7.31251 10.3124 7.0207 10.1834C6.96394 10.1649 6.91208 10.1338 6.86892 10.0925C6.82577 10.0513 6.79243 10.0009 6.77139 9.94498C6.75035 9.88911 6.74215 9.82921 6.74737 9.76974C6.7526 9.71026 6.77112 9.65273 6.80157 9.60137C7.02498 9.06396 7.24906 8.52655 7.4739 7.98913C7.49239 7.94431 7.50593 7.89805 7.52514 7.84682C7.04915 7.70452 6.58385 7.56649 6.12351 7.41992C5.92091 7.36369 5.72575 7.28343 5.54221 7.18086C5.3486 7.05507 5.19451 6.8771 5.0977 6.66749C5.00089 6.45789 4.96532 6.22517 4.99508 5.99621Z" />
        <path
            d="M3.90118 6.64073C3.48638 6.64571 3.07086 6.63647 2.65606 6.64501C2.48415 6.64873 2.31302 6.66947 2.14519 6.70691C1.79242 6.78144 1.46716 6.95217 1.20545 7.20019C0.94374 7.44822 0.755804 7.76385 0.662448 8.11212L0.513062 8.55965L0.42343 8.54897C0.291525 8.24172 0.242511 7.90524 0.28134 7.57314C0.320168 7.24103 0.445419 6.92492 0.644644 6.65639C0.244783 6.5703 0.0463098 6.38177 0.0391948 6.05732C0.0202216 5.21823 0.00744665 4.3789 0.000806019 3.53934C-0.00339611 3.46041 0.00886382 3.38147 0.0368498 3.30755C0.0648358 3.23363 0.107886 3.16634 0.163307 3.10998C0.218728 3.05363 0.285283 3.00943 0.358725 2.9802C0.432167 2.95098 0.51085 2.93737 0.58984 2.94025C1.46451 2.93219 2.33925 2.93219 3.21391 2.94025C3.38578 2.94018 3.55183 3.00233 3.68144 3.11519C3.81105 3.22806 3.89544 3.38403 3.91898 3.55428C4.07836 4.38341 4.23557 5.21349 4.39068 6.04451C4.41172 6.11746 4.41469 6.19443 4.39936 6.26879C4.38404 6.34315 4.35087 6.41265 4.3027 6.47133C4.25452 6.53001 4.19278 6.57609 4.12283 6.6056C4.05288 6.63511 3.97683 6.64717 3.90118 6.64073Z" />
        <path
            d="M10.7331 7.431C10.8647 7.36483 10.9181 7.3015 10.8619 7.15422C10.8218 7.03834 10.7914 6.91935 10.7708 6.79848C10.7324 6.60922 10.7964 6.47973 10.9387 6.44273C11.0945 6.40075 11.2183 6.48614 11.2703 6.67682C11.3172 6.84829 11.3592 7.02189 11.4076 7.21328C11.5806 7.20365 11.754 7.20365 11.927 7.21328C12.3552 7.2662 12.7569 7.44891 13.0782 7.73687C13.3995 8.02484 13.6249 8.40425 13.7242 8.82412C13.8227 9.24488 13.7906 9.68565 13.6322 10.0877C13.4738 10.4898 13.1967 10.834 12.8377 11.0746C12.4786 11.312 12.0554 11.4339 11.625 11.4238C11.1947 11.4138 10.7776 11.2723 10.43 11.0184C10.14 10.8037 9.90975 10.5184 9.7611 10.1897C9.61246 9.86093 9.55038 9.49964 9.58075 9.14013C9.61113 8.78062 9.73294 8.43485 9.93463 8.1357C10.1363 7.83655 10.4112 7.59396 10.7331 7.431ZM10.4891 9.75759C10.5995 10.0533 10.8161 10.2973 11.0967 10.442C11.3773 10.5867 11.7017 10.6217 12.0067 10.5402C12.3186 10.4536 12.5858 10.2516 12.7543 9.97524C12.9228 9.69883 12.9798 9.36868 12.9138 9.05178C12.8538 8.75706 12.6887 8.49421 12.4493 8.31214C12.2099 8.13007 11.9125 8.04121 11.6125 8.06209C11.6687 8.27981 11.7192 8.49397 11.7832 8.70244C11.7939 8.73872 11.8544 8.76363 11.8999 8.7864C11.9738 8.81819 12.0402 8.86529 12.0945 8.92458C12.1489 8.98388 12.1901 9.05403 12.2153 9.1304C12.2406 9.20678 12.2494 9.28764 12.2412 9.36766C12.2329 9.44768 12.2078 9.52505 12.1674 9.59465C12.1292 9.66116 12.0778 9.71926 12.0165 9.76542C11.9552 9.81159 11.8852 9.84487 11.8107 9.86329C11.7362 9.8817 11.6587 9.88485 11.583 9.87256C11.5072 9.86026 11.4347 9.83277 11.3699 9.79174C11.3029 9.74756 11.2459 9.69 11.2023 9.62268C11.1588 9.55536 11.1296 9.47977 11.1167 9.40062C11.1038 9.32148 11.1074 9.24051 11.1274 9.16284C11.1473 9.08517 11.1831 9.01248 11.2326 8.94934C11.2692 8.88825 11.2831 8.81616 11.2717 8.74584C11.2368 8.55872 11.1827 8.37587 11.1294 8.17665C10.8446 8.31269 10.621 8.55033 10.5025 8.84288C10.384 9.13542 10.3792 9.46169 10.4891 9.75759Z" />
        <path
            d="M3.12233 7.20745C3.39966 7.20385 3.67489 7.2556 3.93197 7.35968C4.18905 7.46376 4.42279 7.61808 4.6195 7.81359C4.81621 8.00911 4.972 8.2419 5.07765 8.49834C5.18329 8.75478 5.23668 9.02972 5.23476 9.30707C5.2372 9.58427 5.18477 9.85922 5.08051 10.1161C4.97625 10.3729 4.82219 10.6066 4.62723 10.8037C4.43227 11.0008 4.20028 11.1573 3.94457 11.2644C3.68885 11.3714 3.41448 11.4268 3.13727 11.4273C2.86 11.4277 2.58543 11.3733 2.32928 11.2671C2.07313 11.161 1.84044 11.0052 1.64471 10.8088C1.44898 10.6124 1.29402 10.3792 1.18874 10.1227C1.08345 9.86624 1.02996 9.59146 1.03127 9.31419C1.02995 8.75775 1.24933 8.22348 1.64133 7.82856C2.03332 7.43363 2.5659 7.21028 3.12233 7.20745ZM3.13797 10.5856C3.47381 10.5819 3.79479 10.4464 4.03168 10.2083C4.26857 9.97023 4.40242 9.64861 4.40445 9.31276C4.40203 8.9763 4.26725 8.65431 4.02934 8.41639C3.79142 8.17848 3.46948 8.04374 3.13302 8.04132C2.96664 8.04196 2.80203 8.07557 2.64873 8.14023C2.49543 8.20488 2.3565 8.2993 2.23991 8.418C2.12333 8.5367 2.03143 8.67733 1.96954 8.83177C1.90765 8.9862 1.87704 9.15137 1.87939 9.31773C1.87712 9.4839 1.90795 9.64887 1.97015 9.80297C2.03235 9.95708 2.12467 10.0972 2.24165 10.2153C2.35863 10.3333 2.49788 10.4269 2.65142 10.4905C2.80496 10.554 2.9697 10.5864 3.13588 10.5856H3.13797Z" />
        <path
            d="M10.5124 1.44271C10.095 1.36246 9.68274 1.25721 9.27794 1.12752C9.01184 1.04855 8.86954 1.13251 8.90725 1.40714C8.9473 1.64019 8.9993 1.87101 9.06306 2.09871C9.08015 2.18749 9.12226 2.26958 9.1844 2.33525C9.24654 2.40092 9.32616 2.44748 9.41386 2.46944C9.77601 2.5662 10.1388 2.66012 10.5046 2.74194C10.6753 2.77965 10.718 2.83728 10.6092 2.981C10.5415 3.08771 10.4418 3.17029 10.3244 3.21693C10.2069 3.26358 10.0777 3.27189 9.9553 3.24069C9.50948 3.13575 9.07173 2.99902 8.64543 2.83157C8.36554 2.71369 8.12947 2.51134 7.97016 2.25278C7.81084 1.99423 7.73621 1.69239 7.75676 1.38938C7.78789 1.21396 7.83432 1.04159 7.89551 0.874261C8.01296 0.599357 8.21305 0.3678 8.46804 0.21175C8.72302 0.0556997 9.02026 -0.0171061 9.3185 0.00339042C9.63945 0.0207337 9.94818 0.132182 10.2062 0.323876C10.4642 0.51557 10.66 0.778988 10.7692 1.08127C10.8753 1.37156 10.8105 1.49038 10.5124 1.44271Z" />
        <path
            d="M12.4357 6.76416C12.2582 6.71603 12.0868 6.6475 11.9249 6.55995C11.7907 6.48994 11.6786 6.38403 11.6011 6.25399C11.5235 6.12396 11.4837 5.97492 11.4859 5.82355C11.4844 5.59477 11.5537 5.37113 11.6843 5.18325C11.8148 4.99537 12.0002 4.85247 12.2152 4.77411C12.2628 4.73711 12.3184 4.71159 12.3775 4.69955C12.4366 4.68751 12.4976 4.68925 12.556 4.70467C12.6143 4.72009 12.6682 4.74876 12.7136 4.78844C12.7591 4.82812 12.7947 4.87777 12.8179 4.93348C13.006 5.23858 13.0968 5.59369 13.0782 5.95164C13.0373 6.15316 12.9826 6.35164 12.9146 6.54573C12.9019 6.59449 12.8784 6.6398 12.846 6.67837C12.8136 6.71695 12.7729 6.74781 12.7271 6.76872C12.6812 6.78964 12.6313 6.80008 12.5809 6.79929C12.5305 6.7985 12.4809 6.78651 12.4357 6.76416Z" />
        <path
            d="M9.20053 1.25427C9.23041 1.24502 9.3201 1.32542 9.32508 1.37309C9.33006 1.42076 9.27381 1.48764 9.21547 1.60077C9.13507 1.49618 9.05824 1.43925 9.06322 1.38731C9.0682 1.33537 9.1429 1.2685 9.20053 1.25427Z" />
        <path
            d="M3.10381 8.74255C3.18194 8.73773 3.26025 8.74882 3.33397 8.77514C3.40769 8.80147 3.47528 8.84246 3.53269 8.89567C3.5901 8.94889 3.6361 9.01321 3.66792 9.08473C3.69974 9.15625 3.71676 9.23347 3.71786 9.31174C3.71755 9.46343 3.65921 9.60925 3.55484 9.71932C3.45046 9.82938 3.3079 9.89535 3.15645 9.90371C3.07968 9.90588 3.00321 9.89287 2.9315 9.8654C2.85978 9.83794 2.79427 9.79658 2.7386 9.74368C2.68292 9.69078 2.6382 9.6274 2.6071 9.55719C2.57601 9.48697 2.55909 9.41129 2.55734 9.33452C2.55361 9.2596 2.56486 9.18467 2.59043 9.11415C2.616 9.04363 2.65541 8.97893 2.70629 8.92381C2.75717 8.86869 2.81852 8.82427 2.88677 8.79314C2.95502 8.76202 3.02883 8.74483 3.10381 8.74255Z" />
    </symbol>

    <symbol id="rupee" viewBox="0 0 8 10" xmlns="http://www.w3.org/2000/svg">
        <path
            d="M7.5625 1.25V0H0.6875V1.25H2.875C3.68875 1.25 4.37563 1.77375 4.63438 2.5H0.6875V3.75H4.63438C4.50608 4.11452 4.26808 4.43038 3.95305 4.6542C3.63803 4.87802 3.26144 4.99881 2.875 5H0.6875V6.50875L4.17875 10H5.94625L2.19625 6.25H2.875C3.59498 6.24904 4.2926 5.99984 4.85025 5.54444C5.40789 5.08903 5.79145 4.45527 5.93625 3.75H7.5625V2.5H5.93625C5.84045 2.04513 5.64302 1.6178 5.35875 1.25H7.5625Z" />
    </symbol>

    <symbol id="edit" viewBox="0 0 18 18" xmlns="http://www.w3.org/2000/svg">
        <path
            d="M7.94458 1.44446H6.50014C2.88902 1.44446 1.44458 2.8889 1.44458 6.50001V10.8333C1.44458 14.4445 2.88902 15.8889 6.50014 15.8889H10.8335C14.4446 15.8889 15.889 14.4445 15.889 10.8333V9.3889"
            stroke-width="1.35" stroke-linecap="round" stroke-linejoin="round" />
        <path
            d="M11.5845 2.18111L5.89337 7.87222C5.6767 8.08889 5.46003 8.515 5.4167 8.82556L5.10615 10.9994C4.99059 11.7867 5.5467 12.3356 6.33392 12.2272L8.50781 11.9167C8.81115 11.8733 9.23726 11.6567 9.46115 11.44L15.1523 5.74889C16.1345 4.76667 16.5967 3.62556 15.1523 2.18111C13.7078 0.736666 12.5667 1.19889 11.5845 2.18111Z"
            stroke-width="1.35" stroke-miterlimit="10" stroke-linecap="round" stroke-linejoin="round" />
        <path d="M10.7686 2.99719C11.2524 4.7233 12.603 6.07386 14.3363 6.56497" stroke-width="1.35"
            stroke-miterlimit="10" stroke-linecap="round" stroke-linejoin="round" />
    </symbol>


    <symbol id="order" viewBox="0 0 28 28" xmlns="http://www.w3.org/2000/svg">
        <path
            d="M23.1548 20.9511V4.82636C23.1548 3.7903 22.312 2.94756 21.276 2.94756H16.1132V1.0657H18.1189C18.3706 1.0657 18.575 0.861621 18.575 0.609599C18.5747 0.357885 18.3706 0.153809 18.1189 0.153809H16.1132H11.8553H9.84954C9.59783 0.153809 9.39375 0.357885 9.39375 0.609599C9.39375 0.861621 9.59783 1.0657 9.84954 1.0657H11.8553V2.94756H6.69251C5.65645 2.94756 4.81372 3.7903 4.81372 4.82636V20.9511C4.81372 21.9872 5.65645 22.8299 6.69251 22.8299H8.05312L4.90285 27.0873C4.75317 27.2898 4.79589 27.5753 4.99812 27.7253C5.20036 27.8753 5.48588 27.8329 5.63586 27.63L6.9894 25.8007H20.9785L22.332 27.63C22.4217 27.7508 22.5594 27.8147 22.699 27.8147C22.7933 27.8147 22.8883 27.7855 22.97 27.7253C23.1726 27.5753 23.215 27.2898 23.0653 27.0873L19.9151 22.8299H21.276C22.312 22.8299 23.1548 21.9872 23.1548 20.9511ZM12.7672 1.0657H15.2013V2.94756H12.7672V1.0657ZM20.3042 24.8885H7.66464L9.18783 22.8299H18.781L20.3042 24.8885ZM8.72805 21.918H6.69251C6.15927 21.918 5.72561 21.4844 5.72561 20.9511V4.82636C5.72561 4.29311 6.15958 3.85945 6.69251 3.85945H11.8553H16.1132H21.2763C21.8095 3.85945 22.2432 4.29342 22.2432 4.82636V20.9511C22.2432 21.4844 21.8095 21.918 21.2763 21.918H19.2404H8.72805Z" />
        <path
            d="M19.4624 14.0387H8.50621C7.92072 14.0387 7.44434 13.5623 7.44434 12.9769V6.77159C7.44434 6.1861 7.92072 5.70972 8.50621 5.70972H19.4624C20.0479 5.70972 20.5243 6.1861 20.5243 6.77159V12.9769C20.5243 13.5627 20.0479 14.0387 19.4624 14.0387ZM8.50621 6.62161C8.42353 6.62161 8.35622 6.68891 8.35622 6.77159V12.9769C8.35622 13.0595 8.42353 13.1268 8.50621 13.1268H19.4624C19.5448 13.1268 19.6124 13.0595 19.6124 12.9769V6.77159C19.6124 6.68891 19.5451 6.62161 19.4624 6.62161H8.50621Z" />
        <path
            d="M9.67034 20.2995C8.51626 20.2995 7.57764 19.3606 7.57764 18.2068C7.57764 17.0531 8.51626 16.1141 9.67034 16.1141C10.8244 16.1141 11.763 17.0531 11.763 18.2068C11.763 19.3606 10.8244 20.2995 9.67034 20.2995ZM9.67034 17.026C9.01908 17.026 8.48953 17.5559 8.48953 18.2068C8.48953 18.8578 9.01939 19.3877 9.67034 19.3877C10.3213 19.3877 10.8512 18.8578 10.8512 18.2068C10.8512 17.5559 10.3216 17.026 9.67034 17.026Z" />
        <path
            d="M18.2983 20.2995C17.1445 20.2995 16.2056 19.3606 16.2056 18.2068C16.2056 17.0531 17.1445 16.1141 18.2983 16.1141C19.452 16.1141 20.391 17.0531 20.391 18.2068C20.391 19.3606 19.452 20.2995 18.2983 20.2995ZM18.2983 17.026C17.6473 17.026 17.1175 17.5559 17.1175 18.2068C17.1175 18.8578 17.6473 19.3877 18.2983 19.3877C18.9492 19.3877 19.4791 18.8578 19.4791 18.2068C19.4791 17.5559 18.9492 17.026 18.2983 17.026Z" />
    </symbol>

    <symbol id="work" viewBox="0 0 20 20" fill="none" xmlns="http://www.w3.org/2000/svg">
        <path
            d="M6.6666 18.3333H13.3333C16.6833 18.3333 17.2833 16.9917 17.4583 15.3583L18.0833 8.69167C18.3083 6.65833 17.7249 5 14.1666 5H5.83327C2.27494 5 1.6916 6.65833 1.9166 8.69167L2.5416 15.3583C2.7166 16.9917 3.3166 18.3333 6.6666 18.3333Z"
            stroke-width="1.5" stroke-miterlimit="10" stroke-linecap="round" stroke-linejoin="round" />
        <path
            d="M6.66675 4.99996V4.33329C6.66675 2.85829 6.66675 1.66663 9.33341 1.66663H10.6667C13.3334 1.66663 13.3334 2.85829 13.3334 4.33329V4.99996"
            stroke-width="1.5" stroke-miterlimit="10" stroke-linecap="round" stroke-linejoin="round" />
        <path
            d="M11.6666 10.8333V11.6667C11.6666 11.675 11.6666 11.675 11.6666 11.6833C11.6666 12.5917 11.6583 13.3333 9.99992 13.3333C8.34992 13.3333 8.33325 12.6 8.33325 11.6917V10.8333C8.33325 10 8.33325 10 9.16659 10H10.8333C11.6666 10 11.6666 10 11.6666 10.8333Z"
            stroke-width="1.5" stroke-miterlimit="10" stroke-linecap="round" stroke-linejoin="round" />
        <path d="M18.0417 9.16663C16.1167 10.5666 13.9167 11.4 11.6667 11.6833" stroke="#2F3032" stroke-width="1.5"
            stroke-miterlimit="10" stroke-linecap="round" stroke-linejoin="round" />
        <path d="M2.18335 9.39172C4.05835 10.6751 6.17502 11.4501 8.33335 11.6917" stroke="#2F3032" stroke-width="1.5"
            stroke-miterlimit="10" stroke-linecap="round" stroke-linejoin="round" />
    </symbol>

    <symbol id="home" viewBox="0 0 20 20" fill="none" xmlns="http://www.w3.org/2000/svg">
        <path d="M10 15V12.5" stroke-width="1.5" stroke-linecap="round" stroke-linejoin="round" />
        <path
            d="M8.39172 2.35004L2.61672 6.97504C1.96672 7.4917 1.55006 8.58337 1.69172 9.40004L2.80006 16.0334C3.00006 17.2167 4.13339 18.175 5.33339 18.175H14.6667C15.8584 18.175 17.0001 17.2084 17.2001 16.0334L18.3084 9.40004C18.4417 8.58337 18.0251 7.4917 17.3834 6.97504L11.6084 2.35837C10.7167 1.6417 9.27506 1.6417 8.39172 2.35004Z"
            stroke-width="1.5" stroke-linecap="round" stroke-linejoin="round" />
    </symbol>

    <symbol id="home2" viewBox="0 0 16 16" xmlns="http://www.w3.org/2000/svg">
        <path
            d="M13.36 4.54667L9.51999 1.86C8.47333 1.12667 6.86666 1.16667 5.85999 1.94667L2.51999 4.55333C1.85333 5.07333 1.32666 6.14 1.32666 6.98V11.58C1.32666 13.28 2.70666 14.6667 4.40666 14.6667H11.5933C13.2933 14.6667 14.6733 13.2867 14.6733 11.5867V7.06667C14.6733 6.16667 14.0933 5.06 13.36 4.54667ZM8.49999 12C8.49999 12.2733 8.27333 12.5 7.99999 12.5C7.72666 12.5 7.49999 12.2733 7.49999 12V10C7.49999 9.72667 7.72666 9.5 7.99999 9.5C8.27333 9.5 8.49999 9.72667 8.49999 10V12Z" />
    </symbol>

    <symbol id="work2" viewBox="0 0 16 16" xmlns="http://www.w3.org/2000/svg">
        <path
            d="M14.0599 4.65339C13.4933 4.02672 12.5466 3.71339 11.1733 3.71339H11.0133V3.68672C11.0133 2.56672 11.0133 1.18005 8.50661 1.18005H7.49328C4.98661 1.18005 4.98661 2.57339 4.98661 3.68672V3.72005H4.82661C3.44661 3.72005 2.50661 4.03339 1.93994 4.66005C1.27994 5.39339 1.29994 6.38005 1.36661 7.05339L1.37328 7.10005L1.4174 7.56334C1.43166 7.71311 1.51241 7.84856 1.63857 7.93053C1.79893 8.03473 2.02015 8.17572 2.15994 8.25339C2.25328 8.31339 2.35328 8.36672 2.45328 8.42005C3.59328 9.04672 4.84661 9.46672 6.11994 9.67339C6.17994 10.3001 6.45328 11.0334 7.91328 11.0334C9.37328 11.0334 9.65994 10.3067 9.70661 9.66005C11.0666 9.44005 12.3799 8.96672 13.5666 8.27339C13.6066 8.25339 13.6333 8.23339 13.6666 8.21339C13.9104 8.07561 14.1625 7.90836 14.3964 7.74175C14.5099 7.66087 14.582 7.53464 14.5974 7.39613L14.5999 7.37339L14.6333 7.06005C14.6399 7.02005 14.6399 6.98672 14.6466 6.94005C14.6999 6.26672 14.6866 5.34672 14.0599 4.65339ZM8.72661 9.22005C8.72661 9.92672 8.72661 10.0334 7.90661 10.0334C7.08661 10.0334 7.08661 9.90672 7.08661 9.22672V8.38672H8.72661V9.22005ZM5.93994 3.71339V3.68672C5.93994 2.55339 5.93994 2.13339 7.49328 2.13339H8.50661C10.0599 2.13339 10.0599 2.56005 10.0599 3.68672V3.72005H5.93994V3.71339Z" />
        <path
            d="M13.6456 9.28356C14.0003 9.11763 14.4077 9.39853 14.3723 9.78851L14.1601 12.1267C14.0201 13.46 13.4734 14.82 10.5401 14.82H5.46006C2.52672 14.82 1.98006 13.46 1.84006 12.1334L1.63935 9.92552C1.6043 9.54006 2.00224 9.25952 2.35586 9.41685C3.11559 9.75488 4.25609 10.2378 5.02976 10.454C5.19335 10.4997 5.32589 10.6181 5.40399 10.7689C5.82484 11.5817 6.68651 12.0134 7.91339 12.0134C9.12824 12.0134 9.99996 11.5651 10.4226 10.7492C10.5008 10.5982 10.6338 10.4798 10.7975 10.4337C11.6223 10.2013 12.8451 9.65803 13.6456 9.28356Z" />
    </symbol>

    <symbol id="hotel" viewBox="0 0 16 16" xmlns="http://www.w3.org/2000/svg">
        <path
            d="M14.6668 14.1666H1.3335C1.06016 14.1666 0.833496 14.3933 0.833496 14.6666C0.833496 14.94 1.06016 15.1666 1.3335 15.1666H14.6668C14.9402 15.1666 15.1668 14.94 15.1668 14.6666C15.1668 14.3933 14.9402 14.1666 14.6668 14.1666Z" />
        <path
            d="M11.3333 1.33337H4.66667C2.66667 1.33337 2 2.52671 2 4.00004V14.6667H14V4.00004C14 2.52671 13.3333 1.33337 11.3333 1.33337ZM6.66667 11.5H4.66667C4.39333 11.5 4.16667 11.2734 4.16667 11C4.16667 10.7267 4.39333 10.5 4.66667 10.5H6.66667C6.94 10.5 7.16667 10.7267 7.16667 11C7.16667 11.2734 6.94 11.5 6.66667 11.5ZM6.66667 8.50004H4.66667C4.39333 8.50004 4.16667 8.27337 4.16667 8.00004C4.16667 7.72671 4.39333 7.50004 4.66667 7.50004H6.66667C6.94 7.50004 7.16667 7.72671 7.16667 8.00004C7.16667 8.27337 6.94 8.50004 6.66667 8.50004ZM6.66667 5.50004H4.66667C4.39333 5.50004 4.16667 5.27337 4.16667 5.00004C4.16667 4.72671 4.39333 4.50004 4.66667 4.50004H6.66667C6.94 4.50004 7.16667 4.72671 7.16667 5.00004C7.16667 5.27337 6.94 5.50004 6.66667 5.50004ZM11.3333 11.5H9.33333C9.06 11.5 8.83333 11.2734 8.83333 11C8.83333 10.7267 9.06 10.5 9.33333 10.5H11.3333C11.6067 10.5 11.8333 10.7267 11.8333 11C11.8333 11.2734 11.6067 11.5 11.3333 11.5ZM11.3333 8.50004H9.33333C9.06 8.50004 8.83333 8.27337 8.83333 8.00004C8.83333 7.72671 9.06 7.50004 9.33333 7.50004H11.3333C11.6067 7.50004 11.8333 7.72671 11.8333 8.00004C11.8333 8.27337 11.6067 8.50004 11.3333 8.50004ZM11.3333 5.50004H9.33333C9.06 5.50004 8.83333 5.27337 8.83333 5.00004C8.83333 4.72671 9.06 4.50004 9.33333 4.50004H11.3333C11.6067 4.50004 11.8333 4.72671 11.8333 5.00004C11.8333 5.27337 11.6067 5.50004 11.3333 5.50004Z" />
    </symbol>

    <symbol id="speed-star" viewBox="0 0 28 28" fill="none" xmlns="http://www.w3.org/2000/svg">
        <path
            d="M17.955 6.07837L19.5999 9.36837C19.8216 9.82337 20.4166 10.255 20.9183 10.3484L23.8933 10.8384C25.795 11.1534 26.2383 12.53 24.8733 13.9067L22.5516 16.2284C22.1666 16.6134 21.945 17.3717 22.0733 17.92L22.7383 20.79C23.2633 23.0534 22.0499 23.94 20.0549 22.75L17.2666 21.0934C16.7649 20.79 15.9249 20.79 15.4233 21.0934L12.6349 22.75C10.6399 23.9284 9.42661 23.0534 9.95161 20.79L10.6166 17.92C10.7449 17.3834 10.5233 16.625 10.1383 16.2284L7.81662 13.9067C6.45162 12.5417 6.89495 11.165 8.79662 10.8384L11.7716 10.3484C12.2733 10.2667 12.8683 9.82337 13.0899 9.36837L14.7349 6.07837C15.6099 4.29337 17.0566 4.29337 17.955 6.07837Z"
            stroke-width="1.5" stroke-linecap="round" stroke-linejoin="round" />
        <path d="M9.33325 5.83337H2.33325" stroke-width="1.5" stroke-linecap="round" stroke-linejoin="round" />
        <path d="M5.83325 22.1666H2.33325" stroke-width="1.5" stroke-linecap="round" stroke-linejoin="round" />
        <path d="M3.49992 14H2.33325" stroke-width="1.5" stroke-linecap="round" stroke-linejoin="round" />
    </symbol>

    <symbol id="back-arrow" viewBox="0 0 15 15" fill="none" xmlns="http://www.w3.org/2000/svg">
        <path
            d="M8.51012 15C7.99991 15 7.63786 14.8079 7.42398 14.4236C7.20928 14.04 7.2448 13.6696 7.53051 13.3125L12.2755 7.5L7.53051 1.6875C7.2448 1.33036 7.20928 0.959643 7.42398 0.575357C7.63786 0.191786 7.99991 0 8.51012 0C8.73461 0 8.9387 0.0489287 9.12237 0.146786C9.30605 0.245357 9.45911 0.366071 9.58156 0.508928L14.7551 6.88393C14.8367 6.97321 14.898 7.07143 14.9388 7.17857C14.9796 7.28571 15 7.39286 15 7.5C15 7.60714 14.9796 7.70964 14.9388 7.8075C14.898 7.90607 14.8367 8.00893 14.7551 8.11607L9.58156 14.4911C9.45911 14.6339 9.30605 14.7546 9.12237 14.8532C8.9387 14.9511 8.73461 15 8.51012 15ZM1.22431 15C0.714095 15 0.35205 14.8079 0.138169 14.4236C-0.0765275 14.04 -0.0410164 13.6696 0.244702 13.3125L4.98966 7.5L0.244702 1.6875C-0.0410164 1.33036 -0.0765275 0.959643 0.138169 0.575357C0.35205 0.191786 0.714095 0 1.22431 0C1.4488 0 1.65288 0.0489287 1.83656 0.146786C2.02024 0.245357 2.1733 0.366071 2.29575 0.508928L7.46929 6.88393C7.55092 6.97321 7.61215 7.07143 7.65296 7.17857C7.69378 7.28571 7.71419 7.39286 7.71419 7.5C7.71419 7.60714 7.69378 7.71429 7.65296 7.82143C7.61215 7.92857 7.55092 8.02678 7.46929 8.11607L2.29575 14.4911C2.1733 14.6339 2.02024 14.7546 1.83656 14.8532C1.65288 14.9511 1.4488 15 1.22431 15Z"
            fill="url(#paint0_linear_295_11717)" />
        <defs>
            <linearGradient id="paint0_linear_295_11717" x1="4.2" y1="1.875" x2="13.725" y2="15"
                gradientUnits="userSpaceOnUse">
                <stop stop-color="#5F95FF" />
                <stop offset="1" stop-color="#226DFF" />
            </linearGradient>
        </defs>
    </symbol>


    <symbol id="pin" viewBox="0 0 16 16" xmlns="http://www.w3.org/2000/svg">
        <path
            d="M9.82825 0.721925C9.89395 0.721807 9.95904 0.734641 10.0198 0.759693C10.0805 0.784745 10.1357 0.821523 10.1822 0.867925L15.1322 5.81792C15.226 5.91169 15.2786 6.03884 15.2786 6.17142C15.2786 6.30401 15.226 6.43116 15.1322 6.52492C14.6522 7.00492 14.0602 7.11292 13.6292 7.11292C13.4522 7.11292 13.2942 7.09492 13.1692 7.07392L10.0352 10.2079C10.1178 10.5403 10.1713 10.8793 10.1952 11.2209C10.2412 11.9229 10.1632 12.9079 9.47525 13.5959C9.38148 13.6897 9.25433 13.7423 9.12175 13.7423C8.98917 13.7423 8.86201 13.6897 8.76825 13.5959L5.93925 10.7679L2.75725 13.9499C2.56225 14.1449 1.53825 14.8519 1.34325 14.6569C1.14825 14.4619 1.85525 13.4369 2.05025 13.2429L5.23225 10.0609L2.40425 7.23192C2.31051 7.13816 2.25786 7.01101 2.25786 6.87842C2.25786 6.74584 2.31051 6.61869 2.40425 6.52492C3.09225 5.83692 4.07725 5.75792 4.77925 5.80492C5.12091 5.82886 5.45984 5.8824 5.79225 5.96492L8.92625 2.83192C8.90009 2.67964 8.88671 2.52544 8.88625 2.37092C8.88625 1.94092 8.99425 1.34892 9.47525 0.867925C9.56895 0.774456 9.6959 0.721953 9.82825 0.721925Z" />
    </symbol>

    <svg id="check" viewBox="0 0 16 16" color-profile="" xmlns="http://www.w3.org/2000/svg">
        <path
            d="M0.273315 8.94L3.99998 12.6667L4.93998 11.72L1.21998 8M14.8266 3.72L7.77332 10.78L4.99998 8L4.04665 8.94L7.77332 12.6667L15.7733 4.66667M12 4.66667L11.06 3.72L6.82665 7.95333L7.77332 8.89333L12 4.66667Z"
            fill="url(#paint0_linear_295_12429)" />
        <defs>
            <linearGradient id="paint0_linear_295_12429" x1="4.61332" y1="4.83833" x2="8.87222" y2="15.0056"
                gradientUnits="userSpaceOnUse">
                <stop stop-color="#5F95FF" />
                <stop offset="1" stop-color="#226DFF" />
            </linearGradient>
        </defs>
    </svg>


    <symbol id="volume" viewBox="0 0 16 16" xmlns="http://www.w3.org/2000/svg">
        <path
            d="M12 11.1667C11.8933 11.1667 11.7933 11.1333 11.7 11.0667C11.48 10.9 11.4333 10.5867 11.6 10.3667C12.44 9.24666 12.62 7.76 12.08 6.47333C11.9733 6.22 12.0933 5.92666 12.3467 5.82C12.6 5.71333 12.8933 5.83333 13 6.08666C13.68 7.7 13.4467 9.57333 12.4 10.9733C12.3 11.1 12.1533 11.1667 12 11.1667Z"
            fill="#989898" />
        <path
            d="M13.22 12.8333C13.1134 12.8333 13.0134 12.8 12.92 12.7333C12.7 12.5667 12.6534 12.2533 12.82 12.0333C14.2467 10.1333 14.56 7.58666 13.64 5.39333C13.5334 5.14 13.6534 4.84666 13.9067 4.74C14.16 4.63333 14.4534 4.75333 14.56 5.00666C15.62 7.52666 15.26 10.4467 13.62 12.6333C13.5267 12.7667 13.3734 12.8333 13.22 12.8333Z"
            fill="#989898" />
        <path
            d="M9.35999 8.64001C9.77999 8.22001 10.5 8.52001 10.5 9.11334V11.0667C10.5 12.2133 10.0867 13.0733 9.34665 13.4867C9.04665 13.6533 8.71332 13.7333 8.36665 13.7333C7.83332 13.7333 7.25999 13.5533 6.67332 13.1867L6.24665 12.92C5.88665 12.6933 5.82665 12.1867 6.12665 11.8867L9.35999 8.64001Z"
            fill="#989898" />
        <path
            d="M14.513 1.48667C14.313 1.28667 13.9863 1.28667 13.7863 1.48667L10.4863 4.78667C10.4463 3.72 10.0463 2.92 9.33967 2.52667C8.59301 2.11334 7.63967 2.22 6.66634 2.82667L4.72634 4.04C4.59301 4.12 4.43967 4.16667 4.28634 4.16667H3.66634H3.33301C1.71967 4.16667 0.833008 5.05334 0.833008 6.66667V9.33334C0.833008 10.9467 1.71967 11.8333 3.33301 11.8333H3.43967L1.47967 13.7933C1.27967 13.9933 1.27967 14.32 1.47967 14.52C1.58634 14.6133 1.71301 14.6667 1.84634 14.6667C1.97967 14.6667 2.10634 14.6133 2.20634 14.5133L14.513 2.20667C14.7197 2.00667 14.7197 1.68667 14.513 1.48667Z"
            fill="#989898" />
    </symbol>

    <svg id="right-check" viewBox="0 0 12 10" fill="none" xmlns="http://www.w3.org/2000/svg">
        <path
            d="M11.9997 1.66656L3.99967 9.66656L0.333008 5.9999L1.27301 5.0599L3.99967 7.7799L11.0597 0.726562L11.9997 1.66656Z"
            fill="#989898" />
    </svg>

    <svg id="picture" viewBox="0 0 16 16" fill="none" xmlns="http://www.w3.org/2000/svg">
        <path
            d="M1.71954 12.6733L1.70621 12.6866C1.52621 12.2933 1.41288 11.8466 1.36621 11.3533C1.41288 11.8399 1.53954 12.2799 1.71954 12.6733Z"
            fill="#989898" />
        <path
            d="M5.99975 6.91992C6.87604 6.91992 7.58642 6.20954 7.58642 5.33325C7.58642 4.45696 6.87604 3.74658 5.99975 3.74658C5.12346 3.74658 4.41309 4.45696 4.41309 5.33325C4.41309 6.20954 5.12346 6.91992 5.99975 6.91992Z"
            fill="#989898" />
        <path
            d="M10.793 1.33325H5.20634C2.77967 1.33325 1.33301 2.77992 1.33301 5.20658V10.7933C1.33301 11.5199 1.45967 12.1533 1.70634 12.6866C2.27967 13.9533 3.50634 14.6666 5.20634 14.6666H10.793C13.2197 14.6666 14.6663 13.2199 14.6663 10.7933V9.26658V5.20658C14.6663 2.77992 13.2197 1.33325 10.793 1.33325ZM13.5797 8.33325C13.0597 7.88658 12.2197 7.88658 11.6997 8.33325L8.92634 10.7133C8.40634 11.1599 7.56634 11.1599 7.04634 10.7133L6.81967 10.5266C6.34634 10.1133 5.59301 10.0733 5.05967 10.4333L2.56634 12.1066C2.41967 11.7333 2.33301 11.2999 2.33301 10.7933V5.20658C2.33301 3.32659 3.32634 2.33325 5.20634 2.33325H10.793C12.673 2.33325 13.6663 3.32659 13.6663 5.20658V8.40658L13.5797 8.33325Z"
            fill="#989898" />
    </svg>


    <symbol id="chat" viewBox="0 0 30 30" fill="none" xmlns="http://www.w3.org/2000/svg">
        <path
            d="M19.4875 15.5V20.5875C19.4875 21.0375 19.4375 21.4625 19.325 21.85C18.8625 23.6875 17.3375 24.8375 15.2375 24.8375H11.8375L8.0625 27.35C7.5 27.7375 6.75 27.325 6.75 26.65V24.8375C5.475 24.8375 4.4125 24.4125 3.675 23.675C2.925 22.925 2.5 21.8625 2.5 20.5875V15.5C2.5 13.125 3.975 11.4875 6.25 11.275C6.4125 11.2625 6.575 11.25 6.75 11.25H15.2375C17.7875 11.25 19.4875 12.95 19.4875 15.5Z"
            fill="white" />
        <path
            d="M22.1875 19.5C23.775 19.5 25.1125 18.975 26.0375 18.0375C26.975 17.1125 27.5 15.775 27.5 14.1875V7.8125C27.5 4.875 25.125 2.5 22.1875 2.5H11.5625C8.625 2.5 6.25 4.875 6.25 7.8125V8.75C6.25 9.1 6.525 9.375 6.875 9.375H15.2375C18.625 9.375 21.3625 12.1125 21.3625 15.5V18.875C21.3625 19.225 21.6375 19.5 21.9875 19.5H22.1875Z"
            fill="white" />
    </symbol>

    <svg id="emoji" viewBox="0 0 20 20" fill="none" xmlns="http://www.w3.org/2000/svg">
        <path
            d="M10 2C12.1217 2 14.1566 2.84285 15.6569 4.34315C17.1571 5.84344 18 7.87827 18 10C18 12.1217 17.1571 14.1566 15.6569 15.6569C14.1566 17.1571 12.1217 18 10 18C7.87827 18 5.84344 17.1571 4.34315 15.6569C2.84285 14.1566 2 12.1217 2 10C2 7.87827 2.84285 5.84344 4.34315 4.34315C5.84344 2.84285 7.87827 2 10 2ZM10 3C9.08075 3 8.1705 3.18106 7.32122 3.53284C6.47194 3.88463 5.70026 4.40024 5.05025 5.05025C4.40024 5.70026 3.88463 6.47194 3.53284 7.32122C3.18106 8.1705 3 9.08075 3 10C3 10.9193 3.18106 11.8295 3.53284 12.6788C3.88463 13.5281 4.40024 14.2997 5.05025 14.9497C5.70026 15.5998 6.47194 16.1154 7.32122 16.4672C8.1705 16.8189 9.08075 17 10 17C11.8565 17 13.637 16.2625 14.9497 14.9497C16.2625 13.637 17 11.8565 17 10C17 8.14348 16.2625 6.36301 14.9497 5.05025C13.637 3.7375 11.8565 3 10 3ZM7.155 12.427C7.87781 13.1547 8.85195 13.5779 9.87715 13.6095C10.9024 13.6411 11.9007 13.2788 12.667 12.597L12.845 12.427C12.9329 12.3377 13.051 12.2847 13.1761 12.2783C13.3012 12.272 13.4241 12.3128 13.5205 12.3928C13.617 12.4728 13.6799 12.586 13.6968 12.7101C13.7137 12.8342 13.6835 12.9601 13.612 13.063L13.555 13.133L13.532 13.155C13.0652 13.6189 12.5115 13.9862 11.9027 14.2361C11.2939 14.486 10.6418 14.6135 9.98374 14.6114C9.32564 14.6093 8.6744 14.4775 8.06722 14.2237C7.46004 13.9698 6.90881 13.5989 6.445 13.132C6.35151 13.0378 6.29925 12.9104 6.29972 12.7777C6.30019 12.6451 6.35335 12.518 6.4475 12.4245C6.54165 12.331 6.66909 12.2788 6.80177 12.2792C6.93445 12.2797 7.06151 12.3328 7.155 12.427ZM12.5 7.5C12.7652 7.5 13.0196 7.60536 13.2071 7.79289C13.3946 7.98043 13.5 8.23478 13.5 8.5C13.5 8.76522 13.3946 9.01957 13.2071 9.20711C13.0196 9.39464 12.7652 9.5 12.5 9.5C12.2348 9.5 11.9804 9.39464 11.7929 9.20711C11.6054 9.01957 11.5 8.76522 11.5 8.5C11.5 8.23478 11.6054 7.98043 11.7929 7.79289C11.9804 7.60536 12.2348 7.5 12.5 7.5ZM7.5 7.5C7.76522 7.5 8.01957 7.60536 8.20711 7.79289C8.39464 7.98043 8.5 8.23478 8.5 8.5C8.5 8.76522 8.39464 9.01957 8.20711 9.20711C8.01957 9.39464 7.76522 9.5 7.5 9.5C7.23478 9.5 6.98043 9.39464 6.79289 9.20711C6.60536 9.01957 6.5 8.76522 6.5 8.5C6.5 8.23478 6.60536 7.98043 6.79289 7.79289C6.98043 7.60536 7.23478 7.5 7.5 7.5Z" />
    </svg>

    <symbol id="dot" viewBox="0 0 4 16" fill="none" xmlns="http://www.w3.org/2000/svg">
        <path
            d="M2 3.5C1.60218 3.5 1.22064 3.34196 0.93934 3.06066C0.658036 2.77936 0.5 2.39782 0.5 2C0.5 1.60218 0.658036 1.22064 0.93934 0.93934C1.22064 0.658035 1.60218 0.5 2 0.5C2.39782 0.5 2.77936 0.658035 3.06066 0.93934C3.34196 1.22064 3.5 1.60218 3.5 2C3.5 2.39782 3.34196 2.77936 3.06066 3.06066C2.77936 3.34196 2.39782 3.5 2 3.5ZM2 9.5C1.60218 9.5 1.22064 9.34196 0.93934 9.06066C0.658036 8.77936 0.5 8.39782 0.5 8C0.5 7.60218 0.658036 7.22064 0.93934 6.93934C1.22064 6.65804 1.60218 6.5 2 6.5C2.39782 6.5 2.77936 6.65804 3.06066 6.93934C3.34196 7.22064 3.5 7.60218 3.5 8C3.5 8.39782 3.34196 8.77936 3.06066 9.06066C2.77936 9.34196 2.39782 9.5 2 9.5ZM0.5 14C0.5 14.3978 0.658036 14.7794 0.93934 15.0607C1.22064 15.342 1.60218 15.5 2 15.5C2.39782 15.5 2.77936 15.342 3.06066 15.0607C3.34196 14.7794 3.5 14.3978 3.5 14C3.5 13.6022 3.34196 13.2206 3.06066 12.9393C2.77936 12.658 2.39782 12.5 2 12.5C1.60218 12.5 1.22064 12.658 0.93934 12.9393C0.658036 13.2206 0.5 13.6022 0.5 14Z"
            fill="#313131" />
    </symbol>

</svg>