<svg width="22" height="22" viewBox="0 0 22 22" fill="none" xmlns="http://www.w3.org/2000/svg">
<path d="M1.83337 1.83331H3.42838C4.41838 1.83331 5.19754 2.68581 5.11504 3.66665L4.35421 12.7966C4.22587 14.2908 5.40837 15.5741 6.9117 15.5741H16.6742C17.9942 15.5741 19.1492 14.4925 19.25 13.1817L19.745 6.30665C19.855 4.78498 18.7 3.54748 17.1692 3.54748H5.33505" stroke="white" stroke-width="1.5" stroke-miterlimit="10" stroke-linecap="round" stroke-linejoin="round"/>
<path d="M14.8958 20.1667C15.5287 20.1667 16.0417 19.6537 16.0417 19.0208C16.0417 18.388 15.5287 17.875 14.8958 17.875C14.263 17.875 13.75 18.388 13.75 19.0208C13.75 19.6537 14.263 20.1667 14.8958 20.1667Z" stroke="white" stroke-width="1.5" stroke-miterlimit="10" stroke-linecap="round" stroke-linejoin="round"/>
<path d="M7.56246 20.1667C8.19529 20.1667 8.70829 19.6537 8.70829 19.0208C8.70829 18.388 8.19529 17.875 7.56246 17.875C6.92963 17.875 6.41663 18.388 6.41663 19.0208C6.41663 19.6537 6.92963 20.1667 7.56246 20.1667Z" stroke="white" stroke-width="1.5" stroke-miterlimit="10" stroke-linecap="round" stroke-linejoin="round"/>
<path d="M8.25 7.33331H19.25" stroke="white" stroke-width="1.5" stroke-miterlimit="10" stroke-linecap="round" stroke-linejoin="round"/>
</svg>
