<svg width="512" height="512" viewBox="0 0 512 512" fill="none" xmlns="http://www.w3.org/2000/svg">
<g clip-path="url(#clip0_2167_277)">
<path d="M358.4 -3.88789e-05C338.017 -0.0727192 318.022 5.5684 300.682 16.2834C283.343 26.9984 269.353 42.3583 260.301 60.6208L256 69.2633L251.699 60.6208C242.647 42.3583 228.657 26.9984 211.318 16.2834C193.978 5.5684 173.983 -0.0727192 153.6 -3.88789e-05C140.021 -3.88789e-05 126.998 5.39423 117.396 14.9961C107.794 24.598 102.4 37.6209 102.4 51.2C102.4 64.779 107.794 77.802 117.396 87.4038C126.998 97.0057 140.021 102.4 153.6 102.4H358.4C371.979 102.4 385.002 97.0057 394.604 87.4038C404.206 77.802 409.6 64.779 409.6 51.2C409.6 37.6209 404.206 24.598 394.604 14.9961C385.002 5.39423 371.979 -3.88789e-05 358.4 -3.88789e-05ZM153.6 81.92C145.453 81.92 137.639 78.6834 131.878 72.9223C126.117 67.1612 122.88 59.3474 122.88 51.2C122.88 43.0525 126.117 35.2388 131.878 29.4776C137.639 23.7165 145.453 20.48 153.6 20.48C170.174 20.4233 186.432 25.0115 200.532 33.7244C214.631 42.4374 226.007 54.9264 233.37 69.7753L239.411 81.92H153.6ZM358.4 81.92H272.589L278.63 69.7753C285.993 54.9264 297.369 42.4374 311.468 33.7244C325.568 25.0115 341.826 20.4233 358.4 20.48C366.547 20.48 374.361 23.7165 380.122 29.4776C385.883 35.2388 389.12 43.0525 389.12 51.2C389.12 59.3474 385.883 67.1612 380.122 72.9223C374.361 78.6834 366.547 81.92 358.4 81.92Z" fill="#41A7A7"/>
<path d="M460.8 204.8H51.2C48.4841 204.8 45.8796 205.879 43.9592 207.799C42.0388 209.72 40.96 212.324 40.96 215.04V481.28C40.9708 489.424 44.2108 497.232 49.9696 502.99C55.7284 508.749 63.5358 511.989 71.68 512H440.32C448.464 511.989 456.272 508.749 462.03 502.99C467.789 497.232 471.029 489.424 471.04 481.28V215.04C471.04 212.324 469.961 209.72 468.041 207.799C466.12 205.879 463.516 204.8 460.8 204.8Z" fill="#D0E8E8"/>
<path d="M40.96 204.8H471.04V266.24H40.96V204.8Z" fill="#BAE3E3"/>
<path d="M184.32 204.8H327.68V512H184.32V204.8Z" fill="#41A7A7"/>
<path d="M184.32 204.8H327.68V266.24H184.32V204.8Z" fill="#287E7E"/>
<path d="M481.28 81.9199H30.72C13.7538 81.9199 0 95.6737 0 112.64V194.56C0 211.526 13.7538 225.28 30.72 225.28H481.28C498.246 225.28 512 211.526 512 194.56V112.64C512 95.6737 498.246 81.9199 481.28 81.9199Z" fill="#D0E8E8"/>
<path d="M143.36 81.9199H368.64V225.28H143.36V81.9199Z" fill="#41A7A7"/>
</g>
<defs>
<clipPath id="clip0_2167_277">
<rect width="512" height="512" fill="white"/>
</clipPath>
</defs>
</svg>
