<svg width="40" height="40" viewBox="0 0 40 40" fill="none" xmlns="http://www.w3.org/2000/svg">
<path d="M37.4031 24.6641C37.8228 23.0944 40 21.7016 40 20C40 18.2984 37.8228 16.9055 37.4031 15.3359C36.9693 13.7121 38.1456 11.4198 37.3229 9.99813C36.4886 8.55593 33.9074 8.43361 32.7369 7.26311C31.5664 6.09264 31.4441 3.51147 30.0019 2.67711C28.5802 1.85442 26.2879 3.03071 24.6641 2.59693C23.0944 2.17719 21.7016 0 20 0C18.2984 0 16.9056 2.17719 15.3359 2.59693C13.7121 3.03073 11.4198 1.85442 9.99813 2.67711C8.55593 3.51145 8.43361 6.09261 7.26311 7.26311C6.09264 8.43358 3.51147 8.55593 2.67711 9.99813C1.85442 11.4198 3.03071 13.7121 2.59693 15.3359C2.17719 16.9056 0 18.2984 0 20C0 21.7016 2.17719 23.0944 2.59693 24.6641C3.03073 26.2879 1.85442 28.5802 2.67711 30.0019C3.51145 31.4441 6.09261 31.5664 7.26311 32.7369C8.43358 33.9074 8.55593 36.4885 9.99813 37.3229C11.4198 38.1456 13.7121 36.9693 15.3359 37.4031C16.9056 37.8228 18.2984 40 20 40C21.7016 40 23.0945 37.8228 24.6641 37.4031C26.2879 36.9693 28.5802 38.1456 30.0019 37.3229C31.4441 36.4885 31.5664 33.9074 32.7369 32.7369C33.9074 31.5664 36.4885 31.4441 37.3229 30.0019C38.1456 28.5802 36.9693 26.2879 37.4031 24.6641ZM20 34.2985C12.103 34.2985 5.7015 27.897 5.7015 20C5.7015 12.103 12.103 5.70147 20 5.70147C27.897 5.70147 34.2985 12.1029 34.2985 20C34.2985 27.897 27.8971 34.2985 20 34.2985Z" fill="#41A7A7"/>
<path d="M28.0236 21.8079C27.8907 21.3331 27.6865 20.9363 27.411 20.6176C27.1354 20.2988 26.8034 20.0598 26.4149 19.9004C26.0265 19.741 25.5733 19.6613 25.0553 19.6613C23.9795 19.6613 23.1942 19.9885 22.6996 20.6424C22.2048 21.2966 21.9575 22.271 21.9575 23.5659C21.9575 24.3762 22.092 25.0568 22.3609 25.6079C22.6299 26.1592 23.0017 26.5675 23.4765 26.833C23.9512 27.0987 24.4908 27.2315 25.0951 27.2315C26.0646 27.2315 26.8283 26.9227 27.3861 26.3051C27.9439 25.6876 28.2228 24.7447 28.2228 23.4763C28.2228 22.8388 28.1564 22.2827 28.0236 21.8079ZM26.0912 25.3539C25.9119 25.7756 25.5798 25.9864 25.0951 25.9864C24.617 25.9864 24.2833 25.7806 24.0941 25.3688C23.9048 24.9572 23.8102 24.3065 23.8102 23.4165C23.8102 22.8388 23.8483 22.3691 23.9248 22.0071C24.001 21.6452 24.1322 21.3713 24.3182 21.1853C24.504 20.9995 24.763 20.9064 25.0951 20.9064C25.5665 20.9064 25.8953 21.1041 26.0812 21.499C26.2671 21.8942 26.3601 22.52 26.3601 23.3766C26.3602 24.2731 26.2705 24.9323 26.0912 25.3539Z" fill="#41A7A7"/>
<path d="M25.0352 12.9578C25.0352 12.7653 24.9737 12.6109 24.8509 12.4946C24.7279 12.3785 24.567 12.3203 24.3678 12.3203C24.1619 12.3203 24.0042 12.3818 23.8946 12.5046C23.7851 12.6275 23.6571 12.8118 23.5112 13.0574L15.1641 26.5442C15.0311 26.7435 14.9648 26.9128 14.9648 27.0522C14.9648 27.2381 15.0411 27.3892 15.1939 27.5055C15.3466 27.6216 15.4993 27.6798 15.6521 27.6798C15.9177 27.6798 16.1567 27.4971 16.3693 27.1319L24.6666 13.7547C24.9122 13.3629 25.0352 13.0972 25.0352 12.9578Z" fill="#41A7A7"/>
<path d="M17.186 19.1035C17.7439 18.486 18.0228 17.5431 18.0228 16.2747C18.0228 15.6372 17.9563 15.0828 17.8235 14.6112C17.6906 14.1398 17.4881 13.7397 17.2159 13.411C16.9436 13.0823 16.6116 12.8382 16.2198 12.6789C15.8279 12.5195 15.3732 12.4398 14.8552 12.4398C14.138 12.4398 13.5486 12.5892 13.0872 12.8881C12.6256 13.1869 12.2919 13.6251 12.0861 14.2029C11.8802 14.7806 11.7773 15.5012 11.7773 16.3644C11.7773 17.1679 11.9101 17.8485 12.1758 18.4063C12.4413 18.9641 12.8116 19.3742 13.2864 19.6365C13.7611 19.8988 14.2974 20.0299 14.8951 20.0299C15.8645 20.0299 16.6282 19.7211 17.186 19.1035ZM15.8961 18.1573C15.7201 18.5756 15.3864 18.7848 14.8951 18.7848C14.5696 18.7848 14.3139 18.6902 14.1281 18.5009C13.9421 18.3117 13.8143 18.0312 13.7446 17.6592C13.6749 17.2874 13.64 16.806 13.64 16.2149C13.64 15.6439 13.6749 15.1741 13.7446 14.8055C13.8143 14.437 13.9438 14.158 14.1331 13.9688C14.3223 13.7795 14.5763 13.6849 14.8951 13.6849C15.3665 13.6849 15.6952 13.8826 15.8812 14.2776C16.067 14.6727 16.1601 15.3052 16.1601 16.1751C16.1601 17.0782 16.072 17.7389 15.8961 18.1573Z" fill="#41A7A7"/>
<path d="M37.3231 30.0018C36.4888 31.444 33.9076 31.5664 32.7371 32.7369C31.5667 33.9073 31.4443 36.4885 30.0021 37.3229C28.5805 38.1456 26.2882 36.9693 24.6644 37.403C23.0947 37.8228 21.7018 40 20.0002 40V34.2987C27.8972 34.2987 34.2989 27.897 34.2989 20C34.2989 12.103 27.8973 5.70129 20.0003 5.70129V0C21.7019 0 23.0947 2.17719 24.6644 2.59693C26.2882 3.03073 28.5805 1.85442 30.0021 2.6771C31.4443 3.51145 31.5667 6.09261 32.7372 7.26311C33.9076 8.43358 36.4888 8.55593 37.3232 9.99813C38.1459 11.4198 36.9696 13.7121 37.4033 15.3359C37.8231 16.9056 40.0003 18.2984 40.0003 20C40.0003 21.7016 37.8231 23.0944 37.4033 24.6641C36.9695 26.2879 38.1459 28.5802 37.3231 30.0018Z" fill="#41A7A7"/>
<path d="M25.0355 12.9579C25.0355 13.0974 24.9125 13.3629 24.6668 13.7546L20.0002 21.2781V18.7305L23.5114 13.0573C23.6573 12.8116 23.7855 12.6276 23.8948 12.5046C24.0044 12.3816 24.162 12.3203 24.368 12.3203C24.5674 12.3203 24.7281 12.3785 24.8511 12.4947C24.9738 12.6108 25.0355 12.7653 25.0355 12.9579Z" fill="#41A7A7"/>
</svg>
