<svg viewBox="0 0 35 91" id="shape" xmlns="http://www.w3.org/2000/svg">
    <path opacity="0.3"
        d="M0.879957 1.06257C5.74328 1.70172 10.4145 3.37008 14.5824 5.95646C18.7502 8.54284 22.319 11.9878 25.0508 16.0619C27.7826 20.1359 29.6147 24.7454 30.425 29.5831C31.2353 34.4208 31.0052 39.3757 29.7501 44.1176C28.8229 48.2775 26.6332 52.0494 23.4804 54.9173C20.2286 57.6182 15.4745 58.7742 11.6202 57.0248C7.76595 55.2755 5.50038 50.2408 7.44925 46.4834C9.23288 43.0271 13.8432 41.7417 17.5853 42.7976C21.3274 43.8536 24.2813 46.7135 26.6298 49.8477C30.8189 55.6462 33.3558 62.4728 33.97 69.5998C34.5842 76.7268 33.2526 83.8869 30.1173 90.3165"
        stroke-width="1.20981" stroke-linecap="round" stroke-linejoin="round" stroke-dasharray="3.47 3.47" />
</svg>