<svg width="265" height="247" viewBox="0 0 265 247" fill="none" xmlns="http://www.w3.org/2000/svg">
<path opacity="0.3" d="M48.7283 45.3163C28.8606 53.1579 15.8968 72.2638 8.55331 89.8399C-18.2476 153.979 18.8212 244.539 107.306 231.563C153.564 224.782 200.133 193.34 220.101 154.835C236.546 123.117 236.423 81.0079 228.71 49.3075C223.207 26.6852 209.2 3.33039 179.152 3.86372C156.459 4.26224 142.447 19.9923 126.418 32.8214C103.502 51.1653 73.7534 35.4411 48.7283 45.3163Z" fill="#E3EBF7"/>
<path d="M137.09 247C207.645 247 264.841 241.416 264.841 234.528C264.841 227.641 207.645 222.057 137.09 222.057C66.5345 222.057 9.33838 227.641 9.33838 234.528C9.33838 241.416 66.5345 247 137.09 247Z" fill="#F5F5F5"/>
<mask id="mask0_490_3223" style="mask-type:luminance" maskUnits="userSpaceOnUse" x="126" y="2" width="122" height="227">
<path d="M133.134 228.879H240.871C244.428 228.879 247.317 225.995 247.317 222.432V8.44675C247.317 4.88932 244.434 2 240.871 2H133.134C129.576 2 126.687 4.88346 126.687 8.44675V222.438C126.687 225.995 129.57 228.879 133.134 228.879Z" fill="white"/>
</mask>
<g mask="url(#mask0_490_3223)">
<path d="M120.687 228.879L253.32 228.879L253.32 2.00011L120.687 2.00011L120.687 228.879Z" fill="#F5F5F5"/>
<path d="M251.18 54.8927H217.381" stroke="white" stroke-width="0.763706" stroke-linecap="round" stroke-linejoin="round" stroke-dasharray="1.44 1.44"/>
<path d="M216.666 54.8927H215.957V54.1894" stroke="white" stroke-width="0.763706" stroke-linecap="round" stroke-linejoin="round"/>
<path d="M215.957 52.8004V3.40071" stroke="white" stroke-width="0.763706" stroke-linecap="round" stroke-linejoin="round" stroke-dasharray="1.39 1.39"/>
<path d="M215.957 2.70329V2" stroke="white" stroke-width="0.763706" stroke-linecap="round" stroke-linejoin="round"/>
<path d="M215.957 54.8927V55.596" stroke="white" stroke-width="0.763706" stroke-linecap="round" stroke-linejoin="round"/>
<path d="M215.957 57.0435V105.476" stroke="white" stroke-width="0.763706" stroke-linecap="round" stroke-linejoin="round" stroke-dasharray="1.45 1.45"/>
<path d="M215.957 106.203V106.906H215.254" stroke="white" stroke-width="0.763706" stroke-linecap="round" stroke-linejoin="round"/>
<path d="M213.853 106.906H122.092" stroke="white" stroke-width="0.763706" stroke-linecap="round" stroke-linejoin="round" stroke-dasharray="1.4 1.4"/>
<path d="M184.397 56.7863C188.072 47.9136 183.859 37.7415 174.986 34.0663C166.113 30.391 155.941 34.6043 152.266 43.477C148.591 52.3497 152.804 62.5217 161.677 66.197C170.549 69.8723 180.721 65.6589 184.397 56.7863Z" stroke="white" stroke-width="0.763706" stroke-linecap="round" stroke-linejoin="round" stroke-dasharray="1.4 1.4"/>
<path d="M176.105 53.3775C177.896 49.0849 175.868 44.153 171.575 42.3618C167.283 40.5706 162.351 42.5984 160.56 46.891C158.768 51.1836 160.796 56.1155 165.089 57.9067C169.382 59.6979 174.313 57.6701 176.105 53.3775Z" fill="#E8E8E8"/>
<path d="M251.209 213.512C239.377 211.941 230.246 201.838 230.246 189.577C230.246 177.076 239.74 166.82 251.913 165.56" stroke="white" stroke-width="0.763706" stroke-linecap="round" stroke-linejoin="round" stroke-dasharray="1.42 1.42"/>
<path d="M253.319 177.522V201.644C246.902 201.357 241.779 196.077 241.779 189.583C241.785 183.089 246.902 177.809 253.319 177.522Z" fill="#D3D3D3"/>
<path d="M158.089 36.074L157.567 35.5993" stroke="white" stroke-width="0.763706" stroke-linecap="round" stroke-linejoin="round"/>
<path d="M156.53 34.6557L121.723 2.94943" stroke="white" stroke-width="0.763706" stroke-linecap="round" stroke-linejoin="round" stroke-dasharray="1.41 1.41"/>
<path d="M215.957 106.906L216.443 107.416" stroke="white" stroke-width="0.763706" stroke-linecap="round" stroke-linejoin="round"/>
<path d="M217.428 108.459L252.346 145.434" stroke="white" stroke-width="0.763706" stroke-linecap="round" stroke-linejoin="round" stroke-dasharray="1.43 1.43"/>
<path d="M251.209 146.466H187.117" stroke="white" stroke-width="0.763706" stroke-linecap="round" stroke-linejoin="round" stroke-dasharray="1.41 1.41"/>
<path d="M186.414 146.466H185.71V147.169" stroke="white" stroke-width="0.763706" stroke-linecap="round" stroke-linejoin="round"/>
<path d="M185.71 148.587V227.466" stroke="white" stroke-width="0.763706" stroke-linecap="round" stroke-linejoin="round" stroke-dasharray="1.42 1.42"/>
<path d="M185.71 228.175V228.879" stroke="white" stroke-width="0.763706" stroke-linecap="round" stroke-linejoin="round"/>
<path d="M230.246 189.583H229.542" stroke="white" stroke-width="0.763706" stroke-linecap="round" stroke-linejoin="round"/>
<path d="M228.147 189.583H187.111" stroke="white" stroke-width="0.763706" stroke-linecap="round" stroke-linejoin="round" stroke-dasharray="1.39 1.39"/>
<path d="M186.414 189.583H185.71" stroke="white" stroke-width="0.763706" stroke-linecap="round" stroke-linejoin="round"/>
<path d="M150.933 228.879V228.175" stroke="white" stroke-width="0.763706" stroke-linecap="round" stroke-linejoin="round"/>
<path d="M150.933 226.787V169.287" stroke="white" stroke-width="0.763706" stroke-linecap="round" stroke-linejoin="round" stroke-dasharray="1.39 1.39"/>
<path d="M150.933 168.596V167.893H151.636" stroke="white" stroke-width="0.763706" stroke-linecap="round" stroke-linejoin="round"/>
<path d="M153.089 167.893H184.28" stroke="white" stroke-width="0.763706" stroke-linecap="round" stroke-linejoin="round" stroke-dasharray="1.45 1.45"/>
<path d="M185.007 167.893H185.71" stroke="white" stroke-width="0.763706" stroke-linecap="round" stroke-linejoin="round"/>
<path d="M150.933 167.893L150.358 167.488" stroke="white" stroke-width="0.763706" stroke-linecap="round" stroke-linejoin="round"/>
<path d="M149.198 166.662L121.84 147.286" stroke="white" stroke-width="0.763706" stroke-linecap="round" stroke-linejoin="round" stroke-dasharray="1.43 1.43"/>
<path d="M122.801 146.466H184.297" stroke="white" stroke-width="0.763706" stroke-linecap="round" stroke-linejoin="round" stroke-dasharray="1.41 1.41"/>
<path d="M185.007 146.466H185.71" stroke="white" stroke-width="0.763706" stroke-linecap="round" stroke-linejoin="round"/>
<path d="M201.305 146.466L200.86 145.927" stroke="white" stroke-width="0.763706" stroke-linecap="round" stroke-linejoin="round"/>
<path d="M199.946 144.831L168.321 106.906V68.9349" stroke="white" stroke-width="0.763706" stroke-linecap="round" stroke-linejoin="round" stroke-dasharray="1.42 1.42"/>
<path d="M168.321 68.2257V67.5224" stroke="white" stroke-width="0.763706" stroke-linecap="round" stroke-linejoin="round"/>
<path d="M123.381 103.058H164.312V87.6736H123.381V103.058Z" fill="#CDD4E0"/>
<path d="M219.519 71.7425H250.575V58.556H219.519V71.7425Z" fill="#E6E6E6"/>
<path d="M190.413 186.023H205.247V150.583H190.413V186.023Z" fill="#CDD4E0"/>
<path d="M154.421 225.584H182.992V213.704H154.421V225.584Z" fill="#CDD4E0"/>
</g>
<path d="M133.134 228.879H240.871C244.428 228.879 247.317 225.995 247.317 222.432V8.44675C247.317 4.88932 244.434 2 240.871 2H133.134C129.576 2 126.687 4.88346 126.687 8.44675V222.438C126.687 225.995 129.57 228.879 133.134 228.879Z" stroke="#1C2547" stroke-width="2.40399" stroke-miterlimit="10"/>
<path d="M167.131 8.14786H206.873C210.266 8.14786 213.02 5.39334 213.02 2H160.989C160.983 5.39334 163.738 8.14786 167.131 8.14786Z" fill="#1C2547"/>
<path d="M178.818 189.02H123.2V231.733H178.818V189.02Z" fill="#FFCCA8"/>
<path d="M144.111 189.02H123.2V231.733H144.111V189.02Z" fill="#EEBE9C"/>
<path d="M157.94 199.957H165.441V189.026H157.94V199.957Z" fill="#FF9C54"/>
<path d="M130.94 199.957H136.367V189.026H130.94V199.957Z" fill="#FF9C54"/>
<path d="M125.818 230.39H136.068V225.848H125.818V230.39Z" fill="#FF9C54"/>
<path d="M128.004 227.311H133.876V226.813H128.004V227.311Z" fill="white"/>
<path d="M128.004 228.369H133.876V227.87H128.004V228.369Z" fill="white"/>
<path d="M128.004 229.426H133.876V228.928H128.004V229.426Z" fill="white"/>
<path d="M144.346 34.8843C144.346 34.9136 144.346 34.9429 144.352 34.9722C144.27 41.4072 150.095 48.0415 152.217 50.2393C152.357 50.3917 152.486 50.5206 152.598 50.6261C152.703 50.5206 152.832 50.3917 152.978 50.2393C155.112 48.0298 160.978 41.3486 160.849 34.8843C160.849 30.3305 157.157 26.6383 152.598 26.6383C148.038 26.6325 144.346 30.3247 144.346 34.8843ZM150.224 35.7751C150.224 34.4623 151.285 33.4015 152.598 33.4015C153.91 33.4015 154.971 34.4623 154.971 35.7751C154.971 37.0879 153.91 38.1487 152.598 38.1487C151.285 38.1487 150.224 37.0879 150.224 35.7751Z" fill="#FF9C54"/>
<path d="M120.598 80.2909L101.222 86.5595L104.034 95.2523L123.411 88.9836L120.598 80.2909Z" fill="#064BB5"/>
<path d="M120.892 81.1997L101.516 87.4684L103.74 94.3434L123.116 88.0748L120.892 81.1997Z" fill="#3771C9"/>
<path d="M115.066 86.892C115.558 88.404 114.726 90.0274 113.214 90.5197C111.702 91.012 110.078 90.1798 109.586 88.6678C109.094 87.1557 109.926 85.5323 111.438 85.04C112.95 84.5477 114.579 85.3799 115.066 86.892Z" fill="#064BB5"/>
<path d="M112.566 89.1147L112.897 89.0129L113.189 89.9179L112.861 90.0242L112.566 89.1147ZM112.594 89.0162L111.847 86.7065L112.055 86.5796L112.822 88.9524L112.594 89.0162ZM111.494 85.801L111.823 85.6947L112.082 86.4961L111.771 86.6564L111.494 85.801ZM112.941 86.8898C112.927 86.8777 112.888 86.8654 112.824 86.8528C112.76 86.8373 112.681 86.8246 112.588 86.8148C112.496 86.805 112.397 86.8022 112.292 86.8062C112.187 86.8103 112.087 86.8278 111.991 86.8589C111.865 86.8997 111.774 86.9538 111.72 87.0211C111.668 87.0845 111.656 87.1612 111.685 87.2513C111.708 87.3233 111.752 87.3721 111.817 87.3976C111.882 87.4231 111.969 87.4364 112.078 87.4373C112.187 87.4353 112.32 87.432 112.478 87.4274C112.7 87.4154 112.898 87.4241 113.073 87.4536C113.248 87.4801 113.393 87.5408 113.51 87.6356C113.63 87.7294 113.722 87.8754 113.786 88.0735C113.845 88.2536 113.861 88.4174 113.836 88.5648C113.813 88.7083 113.757 88.8375 113.668 88.9524C113.578 89.0643 113.467 89.1616 113.334 89.2443C113.201 89.3239 113.058 89.3885 112.905 89.438C112.749 89.4885 112.583 89.5254 112.408 89.5488C112.236 89.5682 112.065 89.5737 111.896 89.5652C111.727 89.5538 111.566 89.5264 111.412 89.4831L111.528 88.7344C111.548 88.7446 111.596 88.7605 111.673 88.7821C111.752 88.7998 111.846 88.8156 111.957 88.8295C112.07 88.8395 112.191 88.8416 112.322 88.8357C112.453 88.8299 112.58 88.8071 112.703 88.7673C112.838 88.7236 112.93 88.6705 112.979 88.6081C113.029 88.5457 113.041 88.477 113.017 88.4019C112.991 88.3209 112.936 88.269 112.852 88.2463C112.772 88.2227 112.667 88.2118 112.538 88.2136C112.413 88.2145 112.268 88.2167 112.103 88.2202C111.888 88.2233 111.704 88.2082 111.551 88.1749C111.401 88.1407 111.277 88.0797 111.179 87.9921C111.084 87.9034 111.01 87.7781 110.957 87.616C110.885 87.3909 110.876 87.1848 110.932 86.9977C110.989 86.8066 111.095 86.643 111.25 86.5067C111.404 86.3674 111.588 86.2632 111.801 86.1943C111.954 86.1448 112.105 86.1157 112.255 86.107C112.405 86.0984 112.55 86.1012 112.69 86.1154C112.831 86.1296 112.956 86.1486 113.067 86.1726L112.941 86.8898Z" fill="white"/>
<path d="M115.487 74.7495L99.4834 87.3458L105.135 94.5255L121.138 81.9292L115.487 74.7495Z" fill="#064BB5"/>
<path d="M116.078 75.5001L100.074 88.0964L104.544 93.7747L120.547 81.1784L116.078 75.5001Z" fill="#3771C9"/>
<path d="M112.569 82.854C113.553 84.1023 113.336 85.9133 112.088 86.8979C110.84 87.8825 109.029 87.6656 108.044 86.4173C107.06 85.169 107.276 83.358 108.525 82.3734C109.773 81.383 111.584 81.5998 112.569 82.854Z" fill="#064BB5"/>
<path d="M111.008 85.8055L111.282 85.5956L111.87 86.3431L111.599 86.5567L111.008 85.8055ZM111 85.7035L109.498 83.7958L109.649 83.6048L111.191 85.5646L111 85.7035ZM108.853 83.0686L109.125 82.8549L109.646 83.5168L109.41 83.7751L108.853 83.0686ZM110.588 83.5886C110.571 83.5821 110.53 83.5839 110.466 83.5943C110.4 83.6021 110.321 83.6175 110.231 83.6405C110.141 83.6634 110.047 83.6949 109.95 83.7351C109.853 83.7752 109.765 83.8265 109.686 83.8889C109.582 83.9709 109.516 84.0529 109.488 84.135C109.461 84.2126 109.477 84.2886 109.535 84.363C109.582 84.4225 109.64 84.453 109.709 84.4545C109.779 84.4561 109.865 84.4383 109.969 84.4011C110.07 84.3615 110.194 84.3123 110.34 84.2533C110.544 84.1652 110.733 84.1047 110.908 84.0715C111.08 84.036 111.238 84.0424 111.381 84.0908C111.526 84.1373 111.662 84.2423 111.791 84.406C111.908 84.5547 111.981 84.7026 112.008 84.8497C112.036 84.9923 112.028 85.1329 111.985 85.2715C111.939 85.4076 111.869 85.5374 111.773 85.6608C111.676 85.7818 111.564 85.892 111.437 85.9915C111.308 86.093 111.166 86.185 111.01 86.2675C110.855 86.3456 110.696 86.4099 110.535 86.4603C110.372 86.5083 110.212 86.5386 110.053 86.5511L109.902 85.8086C109.924 85.8113 109.975 85.8094 110.054 85.8032C110.134 85.7925 110.228 85.7745 110.337 85.7492C110.446 85.7196 110.561 85.6793 110.682 85.6285C110.802 85.5778 110.913 85.5124 111.015 85.4324C111.127 85.3445 111.195 85.2628 111.22 85.1871C111.244 85.1114 111.232 85.0426 111.184 84.9806C111.131 84.9137 111.061 84.8841 110.975 84.8918C110.891 84.8975 110.789 84.9235 110.669 84.9699C110.552 85.0143 110.416 85.0667 110.263 85.1271C110.063 85.2043 109.885 85.2539 109.73 85.2758C109.577 85.2958 109.439 85.2817 109.317 85.2334C109.197 85.1832 109.084 85.0911 108.979 84.9572C108.833 84.7713 108.753 84.581 108.74 84.3862C108.728 84.1871 108.771 83.9967 108.869 83.8152C108.965 83.6312 109.101 83.4699 109.277 83.3314C109.404 83.2318 109.536 83.1521 109.673 83.0921C109.81 83.0321 109.948 82.9844 110.084 82.949C110.221 82.9136 110.345 82.888 110.457 82.8721L110.588 83.5886Z" fill="white"/>
<path d="M77.3403 173.636C74.7264 154.413 71.632 121.347 71.632 121.347H48.4236C48.4236 121.347 44.4267 128.679 46.3548 137.757L51.1899 178.02C42.3813 187.913 36.0283 202.418 31.1874 217.023C30.6306 218.711 30.0856 220.398 29.564 222.08L34.8386 224.53C34.8386 224.53 36.0166 222.936 37.8979 220.322C44.7431 210.828 60.9479 187.813 64.1596 178.442C65.4489 181.167 66.2577 182.867 66.2577 182.867C65.7068 189.067 67.0137 201.527 70.6474 221.828C71.0049 223.839 71.3858 225.919 71.7961 228.082H78.4479C78.4479 228.082 78.5476 225.696 78.653 221.828C78.9578 210.834 79.2743 187.86 77.3403 173.636Z" fill="#F8AFB4"/>
<path d="M55.9662 72.5802C55.9486 72.5509 55.931 72.5158 55.9193 72.4865C55.7962 72.1758 55.9603 71.8359 56.0013 71.5077C56.1244 70.5173 55.1632 69.7788 54.4072 69.1341C52.5435 67.5459 51.3655 65.2895 50.5685 62.9746C49.8476 60.8764 49.4022 58.6201 49.8124 56.4399C50.2461 54.1484 51.6175 52.0913 53.4402 50.6378C55.2629 49.1844 57.5017 48.3111 59.799 47.9302C63.1338 47.3793 66.8905 47.9771 69.2054 50.4444C70.9402 52.2964 71.6083 54.9103 71.8076 57.4362C71.9365 59.042 71.9248 60.7534 72.8098 62.0955C73.2962 62.828 74.0053 63.3789 74.609 64.0236C74.7204 64.1408 74.8258 64.2639 74.8669 64.4221C74.9606 64.8031 74.5856 65.1313 74.228 65.2895C73.8705 65.4478 72.8567 65.4243 72.675 65.7701C72.4757 66.1511 72.5519 67.499 72.4464 67.88C72.0596 69.2279 72.3409 68.9114 72.1885 69.896C72.0362 70.8923 72.1006 71.3495 72.1006 72.4103C72.0948 73.6176 71.9775 74.6901 70.8582 75.1531C70.2428 75.4109 68.6018 75.3465 67.9688 75.1531C66.2341 74.6315 65.6597 74.8249 64.1711 73.7875C64.1711 75.3172 63.8605 77.808 63.8605 79.3376C61.2584 77.5266 58.9668 74.7487 56.3705 72.9377C56.2123 72.8439 56.0599 72.7326 55.9662 72.5802Z" fill="#F8AFB4"/>
<path d="M71.3448 60.8999C70.9111 60.7827 70.4891 60.7475 70.0672 60.8002C69.6452 60.8413 69.235 60.9761 68.8013 61.1109C68.9712 60.9585 69.1646 60.8354 69.3698 60.7416C69.5807 60.642 69.8034 60.5951 70.032 60.5541C70.495 60.5189 70.9932 60.5893 71.3448 60.8999Z" fill="#283563"/>
<path d="M69.5459 61.316C69.5459 61.6793 69.8389 61.9724 70.2023 61.9724C70.5657 61.9724 70.8587 61.6793 70.8587 61.316C70.8587 60.9526 70.5657 60.6596 70.2023 60.6596C69.8389 60.6596 69.5459 60.9526 69.5459 61.316Z" fill="#283563"/>
<path d="M70.2783 61.1577C70.2783 61.2457 70.4072 61.316 70.5655 61.316C70.7237 61.316 70.8527 61.2457 70.8527 61.1577C70.8527 61.0698 70.7237 60.9995 70.5655 60.9995C70.4072 60.9995 70.2783 61.0698 70.2783 61.1577Z" fill="white"/>
<path d="M71.6728 59.3468C70.9754 59.0244 70.2721 58.8662 69.5981 58.9834C69.2523 59.042 68.9066 59.1475 68.5725 59.2765C68.2384 59.4113 67.8985 59.5636 67.5645 59.7512C68.004 59.1065 68.7366 58.6787 69.5219 58.5322C70.3424 58.3915 71.1981 58.7314 71.6728 59.3468Z" fill="#283563"/>
<path d="M71.9956 68.1437C71.263 68.0909 69.8271 68.3078 69.8271 68.3078C69.8271 68.3078 71.5561 70.6169 72.1714 70.3473C72.7868 70.0718 72.4996 69.2396 72.4996 69.2396C72.6227 69.1458 72.693 68.9876 72.6813 68.7297C72.6696 68.7356 72.7282 68.2023 71.9956 68.1437Z" fill="#FF9C54"/>
<path d="M72.4879 69.2455C72.0132 69.2162 71.5443 69.1107 71.0872 68.9583C70.6359 68.8059 70.1964 68.6067 69.8154 68.3136L69.8213 68.3078C70.2081 68.5832 70.6535 68.7708 71.1048 68.9114C71.5561 69.0462 72.019 69.1458 72.4879 69.2396V69.2455Z" fill="#283563"/>
<path d="M71.2981 115.404C71.1692 112.708 71.0872 110.124 71.1223 108.266C71.2044 103.806 74.586 100.002 74.2637 95.5248C73.9003 90.4084 70.1846 86.388 67.0785 82.643C66.1935 81.5822 56.16 71.0916 56.0428 71.2791C56.0428 71.285 49.3499 81.6291 47.7851 92.8523C46.8708 99.4221 47.4745 109.655 48.1367 117.028C48.1367 117.028 42.909 134.463 43.7881 142.973C44.6672 151.483 47.3221 182.708 47.3221 182.708H79.5969L71.2981 115.404Z" fill="#F3893C"/>
<path d="M60.7719 66.0983C58.9024 65.6587 58.0174 61.8083 59.4533 61.316C60.8833 60.8237 61.903 64.0353 61.903 64.0353C61.903 64.0353 62.5829 61.5856 67.5645 58.7255C68.385 58.2567 69.0589 57.7644 69.6216 57.2662C72.8098 54.4355 72.0127 49.2078 68.2033 47.2914C65.6304 45.9962 61.5162 44.9354 55.4914 46.0723C43.8228 48.2759 46.9056 61.2632 48.4469 65.1137C49.9883 68.9642 47.896 79.6423 48.7751 79.9764C49.6542 80.3046 56.8101 80.5976 60.3324 79.9764C63.8546 79.3552 60.7719 66.0983 60.7719 66.0983Z" fill="#283563"/>
<path d="M109.644 93.9131C109.967 93.7607 110.353 93.5732 110.611 93.4325C111.127 93.1512 113.038 92.3718 112.774 91.774C112.51 91.1703 107.704 93.3564 107.704 93.3564C107.704 93.3564 112.041 91.2113 111.801 90.7659C111.561 90.3147 108.63 91.2465 107.511 91.7564C106.392 92.2663 104.381 92.6882 104.381 92.6882C104.381 92.6882 104.909 92.1959 105.448 92.0905C105.987 91.985 106.902 90.9476 106.685 90.5784C106.468 90.2092 105.431 90.8597 105.126 91.0062C104.821 91.1527 103.291 91.8091 102.506 92.2721C101.721 92.741 101.006 95.6127 101.006 95.6127C100.988 95.6362 100.976 95.6772 100.965 95.7241C99.9977 96.0581 84.4024 101.479 75.3594 106.619C75.7872 106.373 74.0583 103.589 71.8312 100.389C68.9185 96.1929 65.1618 91.2817 64.312 90.426C61.7215 87.8063 56.6989 83.0416 52.7078 85.6964C45.6633 90.385 69.9382 118.458 74.2751 116.694C78.1314 115.123 97.7179 102.183 102.049 99.3108C102.494 99.0236 105.894 98.3379 106.421 98.0273C106.948 97.7167 107.493 97.4413 108.543 96.7731C109.592 96.105 111.344 95.1146 111.203 94.7512C111.057 94.3878 109.381 95.3138 109.381 95.3138C109.381 95.3138 109.967 94.9387 111.045 94.3234C112.123 93.708 112.686 93.3036 112.475 92.9813C112.311 92.741 110.582 93.4853 109.644 93.9131Z" fill="#F8AFB4"/>
<path d="M79.4967 224.348C79.2505 224.348 81.3662 228.328 84.1266 229.219C86.887 230.11 91.8393 230.842 92.0854 231.897C92.3316 232.952 92.5719 234.171 92.0854 234.411C91.599 234.657 70.3247 234.411 70.3247 234.411V224.747L79.4967 224.348Z" fill="#251A12"/>
<path d="M39.7675 219.613C39.5566 219.496 39.4686 223.997 41.4496 226.118C43.4305 228.24 47.404 231.282 47.1051 232.325C46.8062 233.368 46.4253 234.552 45.8802 234.523C45.3352 234.499 26.8564 223.956 26.8564 223.956L31.5509 215.511L39.7675 219.613Z" fill="#251A12"/>
<path d="M151.05 82.6547C151.05 82.6547 150.44 79.7595 149.667 79.2672C148.893 78.7749 147.393 78.0599 147.094 77.9076C146.795 77.7552 145.781 77.0695 145.552 77.427C145.324 77.7845 146.197 78.857 146.73 78.9801C147.264 79.1031 147.774 79.613 147.774 79.613C147.774 79.613 145.781 79.1207 144.679 78.5757C143.577 78.0306 140.688 76.9933 140.43 77.4328C140.172 77.8724 144.433 80.1698 144.433 80.1698C144.433 80.1698 139.703 77.8138 139.422 78.4057C139.141 78.9977 141.016 79.8416 141.526 80.1405C142.036 80.4394 143.062 80.9551 143.062 80.9551C143.062 80.9551 139.914 79.3024 139.686 79.613C139.457 79.9295 140.008 80.3515 141.069 81.0079C142.13 81.6643 142.698 82.0569 142.698 82.0569C142.698 82.0569 141.057 81.0723 140.899 81.4298C140.741 81.7873 142.458 82.8423 143.484 83.5455C144.509 84.2488 145.043 84.5477 145.558 84.8759C146.074 85.2041 149.444 86.007 149.878 86.3118C150.311 86.6165 151.343 83.1236 151.05 82.6547Z" fill="#EC756E"/>
<path d="M179.949 87.0795C183.008 82.9888 186.935 78.2182 187.814 77.386C190.492 74.86 195.685 70.2711 199.576 73.0666C206.451 78.0013 181.203 105.201 176.931 103.284C172.658 101.368 149.028 86.347 149.028 86.347L152.028 80.9376C152.028 80.9376 166.258 86.0715 175.395 91.7036C174.979 91.4458 177.616 90.2033 179.949 87.0795Z" fill="#064BB5"/>
<path d="M205.373 179.714L210.208 139.433C210.208 139.433 188.301 168.18 192.397 180.135C195.609 189.513 211.814 212.522 218.659 222.016C220.986 221.236 223.435 220.293 225.369 218.716C220.534 204.112 214.181 189.606 205.373 179.714Z" fill="#1C2547"/>
<path d="M218.659 222.016C220.54 224.63 221.718 226.224 221.718 226.224L226.993 223.774C226.471 222.092 225.932 220.404 225.369 218.716C223.435 220.293 220.985 221.242 218.659 222.016Z" fill="#F8AFB4"/>
<path d="M199.869 65.2485C199.887 65.2192 199.905 65.184 199.916 65.1547C200.039 64.8441 199.875 64.5042 199.834 64.176C199.711 63.1855 200.672 62.4471 201.428 61.8024C203.292 60.2142 204.47 57.9578 205.267 55.6428C205.988 53.5447 206.433 51.2884 206.023 49.1082C205.589 46.8167 204.218 44.7595 202.395 43.3061C200.573 41.8526 198.334 40.9794 196.037 40.5985C192.702 40.0476 188.945 40.6454 186.63 43.1127C184.895 44.9647 184.227 47.5785 184.028 50.1045C183.899 51.7103 183.911 53.4216 183.026 54.7637C182.539 55.4963 181.83 56.0472 181.227 56.6919C181.115 56.8091 181.01 56.9322 180.969 57.0904C180.875 57.4714 181.25 57.7996 181.608 57.9578C181.965 58.116 182.387 58.245 182.569 58.5908C182.768 58.9717 182.791 59.6281 182.785 60.0266C182.78 60.8999 182.92 61.3453 183.073 62.3299C183.225 63.3262 183.735 64.0178 183.741 65.0844C183.747 66.2917 183.864 67.3642 184.983 67.8272C185.599 68.0851 187.24 68.0206 187.873 67.8272C189.607 67.3056 190.182 67.499 191.67 66.4617C191.67 67.9913 191.67 69.5209 191.67 71.0564C194.272 69.2455 196.869 67.4287 199.471 65.6177C199.617 65.5122 199.776 65.4009 199.869 65.2485Z" fill="#EC756E"/>
<path d="M178.109 229.775H184.761C185.165 227.613 185.546 225.532 185.91 223.522C183.243 223.522 180.576 223.522 177.904 223.522C178.009 227.384 178.109 229.775 178.109 229.775Z" fill="#F8AFB4"/>
<path d="M208.139 123.041L183.072 126.733C183.072 126.733 181.842 156.107 179.228 175.33C177.294 189.554 177.61 212.527 177.909 223.522C180.576 223.522 183.242 223.522 185.915 223.522C189.548 203.215 190.855 190.755 190.305 184.56C190.305 184.56 207.599 148.277 209.68 141.496C212.751 131.498 208.139 123.041 208.139 123.041Z" fill="#283563"/>
<path d="M200.754 67.8272V63.9064C200.754 63.9064 192.754 68.1378 190.756 71.5194L190.949 75.0241L200.754 67.8272Z" fill="#064BB5"/>
<path d="M200.754 67.8272C200.754 67.8272 189.22 72.9026 184.145 85.3624C179.07 97.8222 183.067 126.733 183.067 126.733C183.067 126.733 202.29 127.964 208.133 123.041C208.139 123.041 212.903 71.0564 200.754 67.8272Z" fill="#3771C9"/>
<path d="M184.239 51.2239C184.239 51.2239 185.493 50.7726 186.525 51.0012C187.556 51.2239 188.81 52.0795 188.722 52.437C188.634 52.7945 188.007 52.9293 187.152 52.437C186.302 51.9447 184.057 52.7359 183.852 52.2495C183.653 51.7572 183.676 51.3763 184.239 51.2239Z" fill="#1C2547"/>
<path d="M184.491 53.5682C184.842 53.2576 185.341 53.1872 185.798 53.2224C186.026 53.2634 186.255 53.3103 186.46 53.4099C186.671 53.5037 186.864 53.6268 187.028 53.7791C186.595 53.6444 186.19 53.5096 185.762 53.4685C185.346 53.4158 184.924 53.451 184.491 53.5682Z" fill="#283563"/>
<path d="M186.29 53.9843C186.29 54.3476 185.997 54.6407 185.634 54.6407C185.271 54.6407 184.978 54.3476 184.978 53.9843C184.978 53.6209 185.271 53.3279 185.634 53.3279C185.997 53.3279 186.29 53.6209 186.29 53.9843Z" fill="#283563"/>
<path d="M185.552 53.826C185.552 53.9139 185.423 53.9843 185.265 53.9843C185.106 53.9843 184.978 53.9139 184.978 53.826C184.978 53.7381 185.106 53.6678 185.265 53.6678C185.423 53.6678 185.552 53.7381 185.552 53.826Z" fill="white"/>
<path d="M182.92 61.7087C182.92 61.7087 183.863 62.1013 184.825 60.5541" stroke="#283563" stroke-width="0.124715" stroke-miterlimit="10" stroke-linecap="round" stroke-linejoin="round"/>
<path d="M177.593 221.559C177.839 221.559 175.724 225.538 172.963 226.429C170.203 227.32 165.251 228.052 165.004 229.107C164.758 230.162 164.518 231.381 165.004 231.627C165.491 231.874 186.765 231.627 186.765 231.627V221.963L177.593 221.559Z" fill="#064BB5"/>
<path d="M217.053 220.058C217.276 219.953 217.059 224.454 214.937 226.435C212.821 228.416 208.649 231.188 208.877 232.249C209.106 233.309 209.405 234.511 209.95 234.528C210.495 234.54 229.642 225.269 229.642 225.269L225.527 216.524L217.053 220.058Z" fill="#064BB5"/>
<path d="M190.809 39.2974C187.427 38.0608 183.677 39.778 182.294 43.101C181.666 44.6072 181.321 46.4474 182.258 47.9829C184.233 51.2239 188.723 47.432 188.723 47.432C188.723 47.432 188.201 52.7535 192.345 52.7535C196.306 52.7535 196.16 52.0151 196.16 52.0151C196.16 52.0151 195.574 55.426 196.125 54.7051C196.676 53.9843 197.83 52.777 198.932 53.9843C200.034 55.1916 198.879 57.3366 197.443 57.2252C196.013 57.1139 196.998 64.8734 199.366 65.0961C201.733 65.3188 206.029 59.3175 207.184 56.3461C208.338 53.3748 207.184 47.5375 207.184 47.5375C207.184 47.5375 208.778 42.8021 205.642 39.778C202.507 36.7539 199.366 39.2271 199.366 39.2271C199.366 39.2271 197.162 36.1971 194.302 36.4198C191.442 36.6425 191.055 39.3912 191.055 39.3912C191.055 39.3912 190.973 39.356 190.809 39.2974Z" fill="#1C2547"/>
<path d="M177.681 61.0934H128.703V98.7072H177.681V61.0934Z" fill="#FFCCA8"/>
<path d="M147.117 61.0934H128.703V98.7072H147.117V79.9003V61.0934Z" fill="#EEBE9C"/>
<path d="M159.3 70.7158H165.905V61.0867H159.3V70.7158Z" fill="#FF9C54"/>
<path d="M135.523 70.7158H140.299V61.0867H135.523V70.7158Z" fill="#FF9C54"/>
<path d="M131.007 97.5234H140.032V93.5206H131.007V97.5234Z" fill="#FF9C54"/>
<path d="M132.935 94.8134H138.11V94.3738H132.935V94.8134Z" fill="white"/>
<path d="M132.935 95.7419H138.11V95.3023H132.935V95.7419Z" fill="white"/>
<path d="M132.935 96.6703H138.11V96.2307H132.935V96.6703Z" fill="white"/>
<path d="M157.063 97.3357C157.063 97.3357 155.727 94.6984 154.853 94.4171C153.98 94.1358 152.345 93.8428 152.017 93.7666C151.689 93.6962 150.534 93.2919 150.405 93.7021C150.276 94.1065 151.396 94.9153 151.946 94.8977C152.497 94.8801 153.119 95.2376 153.119 95.2376C153.119 95.2376 151.067 95.2786 149.86 95.0325C148.659 94.7863 145.593 94.5343 145.459 95.0266C145.324 95.5189 150.03 96.6325 150.03 96.6325C150.03 96.6325 144.855 95.5775 144.732 96.2222C144.609 96.8669 146.643 97.1951 147.211 97.3533C147.779 97.5115 148.905 97.746 148.905 97.746C148.905 97.746 145.435 96.9606 145.3 97.324C145.166 97.6874 145.804 97.957 146.994 98.3145C148.184 98.672 148.834 98.9064 148.834 98.9064C148.834 98.9064 146.994 98.3789 146.936 98.7657C146.877 99.1525 148.811 99.7269 149.977 100.143C151.149 100.559 151.741 100.706 152.322 100.893C152.902 101.081 156.371 100.981 156.869 101.163C157.368 101.35 157.467 97.7108 157.063 97.3357Z" fill="#EC756E"/>
<path d="M186.12 94.1475C188.019 89.4062 190.58 83.78 191.219 82.7544C193.153 79.6189 196.986 73.852 201.464 75.5457C209.382 78.5347 192.01 111.337 187.386 110.587C182.762 109.837 156.061 101.427 156.061 101.427L157.561 95.4252C157.561 95.4252 172.635 96.7086 182.915 99.7914C182.446 99.6448 184.673 97.7636 186.12 94.1475Z" fill="#064BB5"/>
<path d="M84.5429 58.6904H112.873C115.083 58.6904 116.87 56.9029 116.87 54.6934C116.87 52.4839 115.083 50.6964 112.873 50.6964H84.5429C82.3334 50.6964 80.5459 52.4839 80.5459 54.6934C80.5459 56.897 82.3393 58.6904 84.5429 58.6904Z" fill="#DBDBDB"/>
<path d="M110.675 52.7184L110.189 54.2246H108.601L109.884 55.1564L109.398 56.6685L110.675 55.7366L111.959 56.6685L111.472 55.1564L112.756 54.2246H111.168L110.675 52.7184Z" fill="white"/>
<path d="M104.692 52.7184L104.205 54.2246H102.617L103.901 55.1564L103.414 56.6685L104.692 55.7366L105.975 56.6685L105.489 55.1564L106.767 54.2246H105.184L104.692 52.7184Z" fill="white"/>
<path d="M98.708 52.7184L98.2215 54.2246H96.6333L97.9168 55.1564L97.4245 56.6685L98.708 55.7366L99.9915 56.6685L99.505 55.1564L100.783 54.2246H99.2003L98.708 52.7184Z" fill="white"/>
<path d="M92.7241 52.7184L92.2377 54.2246H90.6494L91.9329 55.1564L91.4406 56.6685L92.7241 55.7366L94.0076 56.6685L93.5153 55.1564L94.7988 54.2246H93.2164L92.7241 52.7184Z" fill="white"/>
<path d="M86.7407 52.7184L86.2484 54.2246H84.666L85.9495 55.1564L85.4572 56.6685L86.7407 55.7366L88.0242 56.6685L87.5319 55.1564L88.8154 54.2246H87.233L86.7407 52.7184Z" fill="#BEBEBE"/>
<path d="M89.3894 58.6904L83.9565 61.316V58.7255L89.3894 58.6904Z" fill="#DBDBDB"/>
</svg>
