<svg width="19" height="19" viewBox="0 0 19 19" fill="none" xmlns="http://www.w3.org/2000/svg">
<path d="M15.8577 6.6896C15.0502 3.0321 11.951 1.38544 9.22854 1.38544C9.22854 1.38544 9.22854 1.38544 9.22085 1.38544C6.50611 1.38544 3.39916 3.02419 2.59166 6.68169C1.69187 10.7667 4.12206 14.2263 6.32154 16.4034C7.13673 17.2109 8.18264 17.6146 9.22854 17.6146C10.2744 17.6146 11.3204 17.2109 12.1279 16.4034C14.3273 14.2263 16.7575 10.7746 15.8577 6.6896ZM9.22854 10.6559C7.8904 10.6559 6.80604 9.53961 6.80604 8.16211C6.80604 6.78461 7.8904 5.66835 9.22854 5.66835C10.5667 5.66835 11.651 6.78461 11.651 8.16211C11.651 9.53961 10.5667 10.6559 9.22854 10.6559Z" fill="#007AC4"/>
</svg>
