<svg width="22" height="22" viewBox="0 0 22 22" fill="none" xmlns="http://www.w3.org/2000/svg">
<path d="M19.7358 9.96417L18.3425 8.57083C18.1041 8.3325 17.9116 7.865 17.9116 7.535V5.555C17.9116 4.74833 17.2516 4.08833 16.445 4.08833H14.4741C14.1441 4.08833 13.6766 3.89583 13.4383 3.6575L12.045 2.26417C11.4766 1.69583 10.5416 1.69583 9.97331 2.26417L8.56164 3.6575C8.33247 3.89583 7.86497 4.08833 7.52581 4.08833H5.55497C4.74831 4.08833 4.08831 4.74833 4.08831 5.555V7.52583C4.08831 7.85583 3.89581 8.32333 3.65747 8.56167L2.26414 9.955C1.69581 10.5233 1.69581 11.4583 2.26414 12.0267L3.65747 13.42C3.89581 13.6583 4.08831 14.1258 4.08831 14.4558V16.4267C4.08831 17.2333 4.74831 17.8933 5.55497 17.8933H7.52581C7.85581 17.8933 8.32331 18.0858 8.56164 18.3242L9.95497 19.7175C10.5233 20.2858 11.4583 20.2858 12.0266 19.7175L13.42 18.3242C13.6583 18.0858 14.1258 17.8933 14.4558 17.8933H16.4266C17.2333 17.8933 17.8933 17.2333 17.8933 16.4267V14.4558C17.8933 14.1258 18.0858 13.6583 18.3241 13.42L19.7175 12.0267C20.3133 11.4675 20.3133 10.5325 19.7358 9.96417ZM7.33331 8.25C7.33331 7.74583 7.74581 7.33333 8.24997 7.33333C8.75414 7.33333 9.16664 7.74583 9.16664 8.25C9.16664 8.75417 8.76331 9.16667 8.24997 9.16667C7.74581 9.16667 7.33331 8.75417 7.33331 8.25ZM8.73581 14.2358C8.59831 14.3733 8.42414 14.4375 8.24997 14.4375C8.07581 14.4375 7.90164 14.3733 7.76414 14.2358C7.49831 13.97 7.49831 13.53 7.76414 13.2642L13.2641 7.76417C13.53 7.49833 13.97 7.49833 14.2358 7.76417C14.5016 8.03 14.5016 8.47 14.2358 8.73583L8.73581 14.2358ZM13.75 14.6667C13.2366 14.6667 12.8241 14.2542 12.8241 13.75C12.8241 13.2458 13.2366 12.8333 13.7408 12.8333C14.245 12.8333 14.6575 13.2458 14.6575 13.75C14.6575 14.2542 14.2541 14.6667 13.75 14.6667Z" fill="#007AC4"/>
</svg>
