<svg width="37" height="37" viewBox="0 0 37 37" fill="none" xmlns="http://www.w3.org/2000/svg">
<path d="M29.5498 3.29065C29.7134 3.73768 31.53 9.05774 27.8043 15.3313C25.5413 19.1418 22.1053 19.394 21.7689 19.4096C21.5718 19.1363 19.632 16.2892 21.2079 12.1471C23.8026 5.32746 29.0981 3.44067 29.5498 3.29065Z" fill="#80C56E"/>
<path d="M29.5498 3.29065L21.7688 19.4096C22.1054 19.3939 25.5413 19.1418 27.8043 15.3313C31.5301 9.05774 29.7134 3.73768 29.5498 3.29065Z" fill="#66AD66"/>
<path d="M21.5284 19.9077L21.7688 19.4096L21.7499 19.3829C21.6012 19.7304 21.5284 19.9077 21.5284 19.9077Z" fill="black" stroke="black" stroke-width="1.08398" stroke-miterlimit="10" stroke-linecap="round" stroke-linejoin="round"/>
<path d="M7.45014 3.29065C7.2866 3.73768 5.46999 9.05774 9.19572 15.3313C11.4587 19.1418 14.8947 19.394 15.2311 19.4096C15.4282 19.1363 17.368 16.2892 15.7921 12.1471C13.1974 5.32746 7.90187 3.44067 7.45014 3.29065Z" fill="#80C56E"/>
<path d="M15.792 12.1471C13.1974 5.32746 7.90187 3.44067 7.45013 3.29065C12.0513 12.0789 14.5331 17.7081 15.2501 19.3829C15.5262 18.9882 17.3274 16.1824 15.792 12.1471Z" fill="#66AD66"/>
<path d="M18.5 0C17.9453 0.538307 11.533 7.03593 12.5528 18.8405C13.1722 26.0106 18.0189 28.8047 18.5 29.0652C18.9811 28.8047 23.8278 26.0105 24.4472 18.8405C25.467 7.03593 19.0547 0.538307 18.5 0Z" fill="#80C56E"/>
<path d="M18.5 0V29.0652C18.9811 28.8047 23.8278 26.0105 24.4472 18.8405C25.467 7.03593 19.0547 0.538307 18.5 0Z" fill="#66AD66"/>
<path d="M32.228 18.0695C33.4345 13.923 33.0261 10.0691 33.0261 10.0691C33.0261 10.0691 30.7027 11.1041 24.8638 14.8773C20.3251 17.8102 18.9209 22.9525 18.5 24.3384H23.8341C27.7115 24.3384 31.1447 21.7926 32.228 18.0695Z" fill="#80C56E"/>
<path d="M33.0262 10.069C33.0262 10.069 27.0253 21.9236 18.5 24.3383H23.8341C27.7116 24.3383 31.1447 21.7926 32.2281 18.0695C33.4345 13.923 33.0262 10.069 33.0262 10.069Z" fill="#66AD66"/>
<path d="M4.77197 18.0695C3.56549 13.923 3.97387 10.0691 3.97387 10.0691C3.97387 10.0691 6.29728 11.1041 12.1362 14.8773C16.6748 17.8102 18.0791 22.9525 18.5 24.3384H13.1658C9.28843 24.3384 5.85523 21.7926 4.77197 18.0695Z" fill="#80C56E"/>
<path d="M18.5 24.3383C18.0791 22.9524 16.6748 17.8101 12.1362 14.8772C6.29721 11.104 3.9738 10.069 3.9738 10.069C3.9738 10.069 9.97467 21.9237 18.5 24.3383Z" fill="#66AD66"/>
<path d="M22.3572 37H14.6427C12.5965 37 10.8413 35.541 10.4672 33.5293L8.81322 24.6354H28.1868L26.5329 33.5293C26.1587 35.541 24.4034 37 22.3572 37Z" fill="#FEC37D"/>
<path d="M24.4396 24.6354L22.7857 33.5293C22.4116 35.541 20.6562 37 18.61 37H22.3572C24.4034 37 26.1587 35.541 26.5328 33.5293L28.1868 24.6354H24.4396V24.6354Z" fill="#F9AE5D"/>
<path d="M28.5245 26.6341H8.47545C7.66304 26.6341 7.00441 25.9755 7.00441 25.1631C7.00441 24.3506 7.66304 23.692 8.47545 23.692H28.5246C29.337 23.692 29.9956 24.3506 29.9956 25.1631C29.9956 25.9755 29.337 26.6341 28.5245 26.6341Z" fill="#F2A559"/>
<path d="M28.5245 23.692H26.1677V26.6341H28.5245C29.3369 26.6341 29.9956 25.9755 29.9956 25.1631C29.9956 24.3506 29.337 23.692 28.5245 23.692Z" fill="#EA8F3D"/>
</svg>
