<svg width="37" height="37" viewBox="0 0 37 37" fill="none" xmlns="http://www.w3.org/2000/svg">
<path d="M12.758 0H24.2234C24.645 0 24.9835 0.349332 24.9674 0.770568C24.9044 2.42083 25.0851 5.68441 27.2123 8.90999C29.7046 12.6892 33.3254 14.0759 34.8567 14.5299C35.007 14.5744 35.1395 14.665 35.2352 14.7891C35.331 14.9131 35.3853 15.0641 35.3904 15.2207C35.4579 17.2794 35.2791 20.7421 33.6321 24.5872C31.7041 29.0881 28.7533 31.8038 27.2157 33.0417H9.78418C8.24666 31.8038 5.29591 29.0881 3.36786 24.5872C1.715 20.7287 1.54077 17.2552 1.61029 15.1992C1.61533 15.0471 1.66669 14.9003 1.75749 14.7782C1.84829 14.6561 1.97421 14.5647 2.11839 14.5161C3.75658 13.9638 7.95738 12.2047 10.3742 7.68097C11.8301 4.9559 12.0424 2.34372 12.0136 0.754959C12.0061 0.339576 12.3426 0 12.758 0Z" fill="#335E80"/>
<path d="M35.3904 15.2207C35.3853 15.0641 35.3311 14.9131 35.2353 14.7891C35.1395 14.665 35.007 14.5744 34.8568 14.5299C33.3255 14.0758 29.7046 12.6892 27.2123 8.90992C25.0851 5.68434 24.9044 2.42075 24.9674 0.770496C24.9835 0.349332 24.6449 0 24.2234 0H21.99C22.4115 0 22.75 0.349332 22.734 0.770568C22.671 2.42083 22.8517 5.68441 24.9788 8.90999C27.4711 12.6892 31.092 14.0759 32.6233 14.53C32.7736 14.5744 32.906 14.6651 33.0018 14.7891C33.0976 14.9131 33.1519 15.0642 33.1569 15.2208C33.2245 17.2794 33.0457 20.7422 31.3986 24.5873C29.4707 29.0881 26.5198 31.8039 24.9823 33.0418H27.2157C28.7532 31.8039 31.704 29.0881 33.632 24.5873C35.2792 20.7421 35.4579 17.2794 35.3904 15.2207Z" fill="#235170"/>
<path d="M27.2122 8.91C27.173 8.85053 27.1358 8.79105 27.0979 8.73158C27.0329 8.77457 26.9777 8.83073 26.9359 8.89642C26.3153 9.8702 25.5385 10.7162 24.6273 11.4108C22.3186 13.1694 19.8 13.4592 18.4999 13.4748C17.1999 13.4592 14.6812 13.1694 12.3726 11.4108C11.4272 10.6905 10.6265 9.8061 9.99269 8.78202C9.95039 8.71381 9.89381 8.65558 9.82684 8.61133C9.61894 8.93613 9.39729 9.25193 9.16251 9.55786C9.84874 10.6188 10.7 11.5403 11.6958 12.2992C14.2643 14.2556 17.0573 14.5753 18.4935 14.5917H18.5062C19.9425 14.5753 22.7355 14.2556 25.304 12.2991C26.2634 11.5679 27.0867 10.685 27.7578 9.67587C27.5671 9.42697 27.3852 9.17152 27.2122 8.91Z" fill="#FFF8BF"/>
<path d="M26.9359 8.89628C26.642 9.35702 26.3101 9.79238 25.9436 10.1978C26.1849 10.4826 26.4381 10.7572 26.7025 11.0207C27.0887 10.6005 27.4416 10.1508 27.7578 9.6756L27.7577 9.67545C27.6619 9.55017 27.5682 9.42332 27.4766 9.29497C27.3453 9.11057 27.219 8.92266 27.0979 8.73145C27.0329 8.7744 26.9777 8.83057 26.9359 8.89628Z" fill="#FCEA9D"/>
<path d="M18.4999 22.9007C18.3519 22.9007 18.2099 22.8418 18.1051 22.7371C18.0004 22.6324 17.9416 22.4904 17.9416 22.3423V14.0156C17.9416 13.8675 18.0004 13.7255 18.1051 13.6208C18.2099 13.5161 18.3519 13.4573 18.4999 13.4573C18.648 13.4573 18.79 13.5161 18.8947 13.6208C18.9994 13.7255 19.0583 13.8675 19.0583 14.0156V22.3423C19.0583 22.4157 19.0438 22.4883 19.0158 22.556C18.9877 22.6237 18.9466 22.6853 18.8948 22.7371C18.8429 22.789 18.7814 22.8301 18.7136 22.8582C18.6459 22.8862 18.5733 22.9007 18.4999 22.9007Z" fill="#FFF8BF"/>
<path d="M18.4999 30.5924C16.4895 30.5924 14.854 28.9568 14.854 26.9464C14.854 25.1904 17.6356 21.8929 18.3396 21.0866C18.3595 21.0637 18.3842 21.0453 18.4119 21.0328C18.4395 21.0202 18.4695 21.0137 18.4999 21.0137C18.5303 21.0137 18.5604 21.0202 18.588 21.0328C18.6157 21.0453 18.6403 21.0637 18.6603 21.0866C19.3642 21.8929 22.1459 25.1904 22.1459 26.9464C22.1459 28.9568 20.5103 30.5924 18.4999 30.5924Z" fill="#FFE179"/>
<path d="M18.6603 21.0866C18.6403 21.0637 18.6157 21.0453 18.588 21.0328C18.5604 21.0202 18.5303 21.0137 18.4999 21.0137C18.4696 21.0137 18.4395 21.0202 18.4119 21.0328C18.3842 21.0453 18.3596 21.0637 18.3396 21.0866C18.0116 21.4634 17.6928 21.8479 17.3832 22.24C18.4552 23.5969 19.9125 25.6753 19.9125 26.9464C19.9125 28.5674 18.849 29.944 17.3832 30.4168C17.744 30.5332 18.1208 30.5925 18.4999 30.5924C20.5103 30.5924 22.1459 28.9568 22.1459 26.9464C22.1459 25.1904 19.3642 21.8929 18.6603 21.0866Z" fill="#FBD268"/>
<path d="M18.4999 28.5285C19.3737 28.5285 20.0821 27.8201 20.0821 26.9464C20.0821 26.0726 19.3737 25.3643 18.4999 25.3643C17.6262 25.3643 16.9178 26.0726 16.9178 26.9464C16.9178 27.8201 17.6262 28.5285 18.4999 28.5285Z" fill="#F58A97"/>
<path d="M18.5 25.3643C18.1439 25.3643 17.8164 25.4834 17.552 25.6819C18.1098 25.9264 18.5 26.4827 18.5 27.1309C18.5 27.6485 18.2502 28.1067 17.8658 28.3954C18.0657 28.4833 18.2816 28.5286 18.5 28.5286C19.3737 28.5286 20.0821 27.8202 20.0821 26.9464C20.0821 26.0725 19.3737 25.3643 18.5 25.3643Z" fill="#F07281"/>
<path d="M18.4999 15.2133C19.1613 15.2133 19.6975 14.6771 19.6975 14.0157C19.6975 13.3543 19.1613 12.8181 18.4999 12.8181C17.8385 12.8181 17.3024 13.3543 17.3024 14.0157C17.3024 14.6771 17.8385 15.2133 18.4999 15.2133Z" fill="#F58A97"/>
<path d="M18.4999 12.8181C18.2982 12.8181 18.1084 12.8686 17.9416 12.9566C18.3216 13.1574 18.5809 13.5561 18.5809 14.0157C18.5809 14.4754 18.3216 14.874 17.9416 15.0748C18.1136 15.1658 18.3053 15.2134 18.4999 15.2133C19.1613 15.2133 19.6975 14.6771 19.6975 14.0157C19.6975 13.3543 19.1613 12.8181 18.4999 12.8181Z" fill="#F07281"/>
<path d="M25.2001 17.3172C25.052 17.3172 24.91 17.2584 24.8053 17.1537C24.7006 17.049 24.6418 16.907 24.6418 16.7589V11.7822C24.6418 11.6341 24.7006 11.4921 24.8053 11.3874C24.91 11.2827 25.052 11.2239 25.2001 11.2239C25.3482 11.2239 25.4902 11.2827 25.5949 11.3874C25.6996 11.4921 25.7584 11.6341 25.7584 11.7822V16.7588C25.7585 16.8322 25.744 16.9048 25.716 16.9725C25.6879 17.0403 25.6468 17.1018 25.5949 17.1537C25.5431 17.2055 25.4815 17.2467 25.4138 17.2747C25.3461 17.3028 25.2734 17.3172 25.2001 17.3172Z" fill="#FFF8BF"/>
<path d="M25.2001 24.0617C23.3529 24.0617 21.85 22.5588 21.85 20.7116C21.85 19.1573 24.2216 16.2658 24.974 15.3876C25.0019 15.3549 25.0366 15.3287 25.0756 15.3107C25.1147 15.2928 25.1571 15.2834 25.2001 15.2834C25.2431 15.2834 25.2856 15.2928 25.3246 15.3107C25.3636 15.3287 25.3983 15.3549 25.4262 15.3876C26.1786 16.2658 28.5502 19.1573 28.5502 20.7116C28.5502 22.5588 27.0474 24.0617 25.2001 24.0617Z" fill="#FFE179"/>
<path d="M25.4262 15.3876C25.3983 15.3549 25.3636 15.3287 25.3246 15.3107C25.2856 15.2928 25.2431 15.2834 25.2001 15.2834C25.1571 15.2834 25.1147 15.2928 25.0756 15.3107C25.0366 15.3287 25.0019 15.3549 24.974 15.3876C24.6685 15.7449 24.3715 16.1094 24.0834 16.4808C25.0578 17.737 26.3168 19.5789 26.3168 20.7116C26.3168 22.1674 25.3831 23.4086 24.0834 23.8696C24.442 23.9968 24.8197 24.0618 25.2001 24.0617C27.0474 24.0617 28.5502 22.5588 28.5502 20.7116C28.5502 19.1573 26.1786 16.2657 25.4262 15.3876Z" fill="#FBD268"/>
<path d="M25.2001 21.8284C25.8169 21.8284 26.3168 21.3284 26.3168 20.7117C26.3168 20.0949 25.8169 19.595 25.2001 19.595C24.5834 19.595 24.0834 20.0949 24.0834 20.7117C24.0834 21.3284 24.5834 21.8284 25.2001 21.8284Z" fill="#F58A97"/>
<path d="M25.2001 19.595C24.9965 19.595 24.8061 19.6503 24.6418 19.7456C24.9752 19.9387 25.2001 20.2985 25.2001 20.7117C25.2001 21.1248 24.9752 21.4846 24.6418 21.6777C24.8113 21.7764 25.004 21.8284 25.2001 21.8283C25.8168 21.8283 26.3168 21.3284 26.3168 20.7116C26.3168 20.095 25.8169 19.595 25.2001 19.595Z" fill="#F07281"/>
<path d="M25.2001 12.9799C25.8615 12.9799 26.3977 12.4437 26.3977 11.7823C26.3977 11.1209 25.8615 10.5847 25.2001 10.5847C24.5387 10.5847 24.0025 11.1209 24.0025 11.7823C24.0025 12.4437 24.5387 12.9799 25.2001 12.9799Z" fill="#F58A97"/>
<path d="M25.2001 10.5847C24.9984 10.5847 24.8086 10.6352 24.6418 10.7233C25.0218 10.924 25.2811 11.3227 25.2811 11.7823C25.2811 12.2419 25.0218 12.6406 24.6418 12.8414C24.8138 12.9324 25.0055 12.98 25.2001 12.9799C25.8615 12.9799 26.3977 12.4437 26.3977 11.7823C26.3977 11.1209 25.8616 10.5847 25.2001 10.5847Z" fill="#F07281"/>
<path d="M11.7998 17.3172C11.6517 17.3172 11.5097 17.2584 11.405 17.1537C11.3003 17.049 11.2414 16.907 11.2414 16.7589V11.7822C11.2414 11.7089 11.2559 11.6363 11.2839 11.5685C11.312 11.5008 11.3531 11.4393 11.405 11.3874C11.4568 11.3356 11.5184 11.2944 11.5861 11.2664C11.6538 11.2383 11.7264 11.2239 11.7998 11.2239C11.8731 11.2239 11.9457 11.2383 12.0134 11.2664C12.0812 11.2944 12.1427 11.3356 12.1946 11.3874C12.2464 11.4393 12.2875 11.5008 12.3156 11.5685C12.3436 11.6363 12.3581 11.7089 12.3581 11.7822V16.7588C12.3581 16.8322 12.3437 16.9048 12.3156 16.9725C12.2876 17.0403 12.2464 17.1018 12.1946 17.1537C12.1427 17.2055 12.0812 17.2467 12.0134 17.2747C11.9457 17.3028 11.8731 17.3172 11.7998 17.3172Z" fill="#FFF8BF"/>
<path d="M11.7998 24.0617C9.95251 24.0617 8.44968 22.5588 8.44968 20.7116C8.44968 19.1573 10.8213 16.2658 11.5736 15.3876C11.6016 15.3549 11.6363 15.3287 11.6753 15.3107C11.7143 15.2928 11.7568 15.2834 11.7998 15.2834C11.8427 15.2834 11.8852 15.2928 11.9242 15.3107C11.9633 15.3287 11.998 15.3549 12.0259 15.3876C12.7782 16.2658 15.1499 19.1573 15.1499 20.7116C15.1499 22.5588 13.647 24.0617 11.7998 24.0617Z" fill="#FFE179"/>
<path d="M12.0259 15.3876C11.998 15.3549 11.9633 15.3287 11.9242 15.3107C11.8852 15.2928 11.8427 15.2834 11.7998 15.2834C11.7568 15.2834 11.7143 15.2928 11.6753 15.3107C11.6363 15.3287 11.6016 15.3549 11.5736 15.3876C11.2681 15.7449 10.9712 16.1094 10.683 16.4808C11.6575 17.737 12.9164 19.5789 12.9164 20.7116C12.9164 22.1674 11.9827 23.4086 10.683 23.8696C11.0416 23.9968 11.4193 24.0618 11.7998 24.0617C13.647 24.0617 15.1499 22.5588 15.1499 20.7116C15.1499 19.1573 12.7782 16.2657 12.0259 15.3876Z" fill="#FBD268"/>
<path d="M11.7998 21.8284C12.4165 21.8284 12.9165 21.3284 12.9165 20.7117C12.9165 20.0949 12.4165 19.595 11.7998 19.595C11.183 19.595 10.683 20.0949 10.683 20.7117C10.683 21.3284 11.183 21.8284 11.7998 21.8284Z" fill="#F58A97"/>
<path d="M11.7998 19.595C11.5961 19.595 11.4058 19.6503 11.2414 19.7456C11.5749 19.9387 11.7998 20.2985 11.7998 20.7117C11.7998 21.1248 11.5749 21.4846 11.2414 21.6777C11.411 21.7764 11.6036 21.8284 11.7998 21.8283C12.4165 21.8283 12.9165 21.3284 12.9165 20.7116C12.9164 20.095 12.4165 19.595 11.7998 19.595Z" fill="#F07281"/>
<path d="M11.7998 12.9799C12.4612 12.9799 12.9973 12.4437 12.9973 11.7823C12.9973 11.1209 12.4612 10.5847 11.7998 10.5847C11.1383 10.5847 10.6022 11.1209 10.6022 11.7823C10.6022 12.4437 11.1383 12.9799 11.7998 12.9799Z" fill="#F58A97"/>
<path d="M11.7998 10.5847C11.598 10.5847 11.4082 10.6352 11.2414 10.7233C11.6214 10.924 11.8807 11.3227 11.8807 11.7823C11.8807 12.2419 11.6214 12.6406 11.2414 12.8414C11.4134 12.9324 11.6051 12.98 11.7998 12.9799C12.4611 12.9799 12.9974 12.4437 12.9974 11.7823C12.9974 11.1209 12.4611 10.5847 11.7998 10.5847Z" fill="#F07281"/>
<path d="M30.4273 37H6.57257C6.16138 37 5.82809 36.6667 5.82809 36.2555V33.2777C5.82809 32.8665 6.16138 32.5332 6.57257 32.5332H30.4273C30.8385 32.5332 31.1718 32.8665 31.1718 33.2777V36.2555C31.1718 36.6667 30.8384 37 30.4273 37Z" fill="#FFE179"/>
<path d="M30.4273 32.5332H28.1939C28.6051 32.5332 28.9384 32.8665 28.9384 33.2777V36.2555C28.9384 36.6667 28.6051 37 28.1939 37H30.4273C30.8385 37 31.1718 36.6667 31.1718 36.2555V33.2777C31.1718 32.8665 30.8384 32.5332 30.4273 32.5332Z" fill="#FBD268"/>
<path d="M21.6798 35.3249H15.3201C15.172 35.3249 15.03 35.2661 14.9253 35.1614C14.8206 35.0567 14.7618 34.9147 14.7618 34.7666C14.7618 34.6185 14.8206 34.4765 14.9253 34.3718C15.03 34.2671 15.172 34.2083 15.3201 34.2083H21.6798C21.8279 34.2083 21.9699 34.2671 22.0746 34.3718C22.1793 34.4765 22.2382 34.6185 22.2382 34.7666C22.2382 34.9147 22.1793 35.0567 22.0746 35.1614C21.9699 35.2661 21.8279 35.3249 21.6798 35.3249Z" fill="#FFF8BF"/>
</svg>
