<svg width="37" height="37" viewBox="0 0 37 37" fill="none" xmlns="http://www.w3.org/2000/svg">
<g clip-path="url(#clip0_6882_4338)">
<path d="M18.5 0.571533C11.4906 0.571533 7.17285 4.52526 7.16092 4.53191C7.16092 4.53191 6.98142 4.75593 6.94781 4.90494C6.67508 6.11554 6.42027 7.73804 6.42027 8.92197C6.42027 18.9814 14.9033 27.1342 24.9628 27.1342C28.8365 27.1342 33.1462 25.2776 36.0306 23.0454C36.0951 22.9955 36.2999 22.66 36.2999 22.66C36.3126 22.5823 36.7142 20.983 36.7142 18.7858C36.7142 8.72635 28.5594 0.571533 18.5 0.571533Z" fill="#E5F6FD"/>
<path d="M36.2999 22.66C33.1885 25.1382 29.2483 26.62 24.9613 26.62C14.9019 26.62 6.74705 18.4652 6.74705 8.40571C6.74659 7.10336 6.88536 5.80469 7.16098 4.53184C7.16055 4.5322 7.16142 4.53148 7.16098 4.53184C2.97204 7.86907 0.285706 13.0138 0.285706 18.7858C0.285706 28.8453 8.44052 37.0001 18.5 37.0001C27.1549 37.0001 34.5082 30.9301 36.2999 22.66Z" fill="#CCE1FE"/>
<path d="M24.9613 26.62C14.9019 26.62 6.74705 18.4652 6.74705 8.40578C6.74705 7.07617 6.89042 5.78059 7.16098 4.53198C2.97204 7.86906 0.285706 13.0138 0.285706 18.7858C0.285706 23.9017 2.39485 28.525 5.79097 31.8335L29.252 33.4877C32.7671 30.9147 35.3368 27.1052 36.2999 22.66C33.1885 25.1382 29.2482 26.62 24.9613 26.62Z" fill="#CCE1FE"/>
<path d="M17.2196 30.825L17.9348 36.9914C18.1225 36.9971 18.3109 37 18.5 37C22.5029 37 26.2274 35.7015 29.252 33.4875L17.2196 30.825Z" fill="#88F2A9"/>
<path d="M13.9976 30.012L5.79097 31.8334C6.69168 32.711 7.68046 33.4934 8.74165 34.1682L12.4568 33.3721C12.5328 33.3529 12.6092 33.3347 12.6861 33.3177L17.7392 32.1961V30.8398L13.9976 30.012Z" fill="#77D0B2"/>
<path d="M13.9976 30.012L8.66476 31.1956V33.256C8.66476 33.5669 8.69114 33.8717 8.74166 34.1682C9.7608 34.8163 10.8421 35.361 11.9695 35.7943L13.2477 35.4122L14.2205 36.4944C15.4382 36.7873 16.6829 36.9538 17.9349 36.9914C18.8669 36.0228 19.44 34.7063 19.44 33.256V31.2163L13.9976 30.012Z" fill="white"/>
<path d="M10.6207 33.0668C10.6207 34.1788 11.1495 35.1672 11.9695 35.7943C12.7038 36.0764 13.4557 36.3103 14.2205 36.4944C16.0377 36.4067 17.4841 34.9057 17.4841 33.0668V25.3804H10.6206V33.0668H10.6207Z" fill="#E09380"/>
<path d="M17.4841 30.1028V26.2358H10.6207V30.1028C10.6207 31.998 12.1571 33.5345 14.0524 33.5345C15.9477 33.5345 17.4841 31.998 17.4841 30.1028Z" fill="#D27F6C"/>
<path d="M23.7952 20.0874H23.1894V14.2964H23.7952C25.0568 14.2964 26.0795 15.3191 26.0795 16.5807V17.8031C26.0795 19.0646 25.0567 20.0874 23.7952 20.0874Z" fill="#E09380"/>
<path d="M23.7952 18.2026V16.1809C24.2356 16.1809 24.5926 16.538 24.5926 16.9784V17.4051C24.5926 17.8456 24.2355 18.2026 23.7952 18.2026Z" fill="#DD5CA2"/>
<path d="M1.92888 17.8031C1.92888 19.0647 2.95158 20.0874 4.2132 20.0874H4.74211L4.90355 14.2964H4.2132C2.95158 14.2964 1.92888 15.3191 1.92888 16.5807V17.8031Z" fill="#E09380"/>
<path d="M3.41293 17.4058C3.41293 17.8479 3.77123 18.2062 4.21328 18.2062V16.1772C3.77123 16.1772 3.41293 16.5355 3.41293 16.9776V17.4058Z" fill="#DD5CA2"/>
<path d="M23.7951 16.9913L22.0945 5.59372C20.3 2.05819 17.0898 2.53356 14.0042 2.53356C13.9128 2.53356 13.8219 2.53478 13.7311 2.53731C9.78112 2.64557 6.66481 5.94543 6.66481 9.89692V23.7543C6.66481 23.8296 6.66597 23.9046 6.66821 23.9794C6.78593 27.9044 10.0577 31.0024 13.9844 31.0383L15.3342 31.0507C20.1091 30.4232 23.7952 26.3381 23.7952 21.3918L23.7951 16.9913Z" fill="#EDBC83"/>
<path d="M15.3341 31.0501C10.5192 30.4226 6.77942 26.3049 6.77942 21.2952V12.3244C6.77942 7.3519 10.4863 3.24563 15.2873 2.61713C14.8618 2.5614 14.4332 2.53344 14.0042 2.53345C8.59683 2.53345 4.21327 10.884 4.21327 16.2913V18.8713C4.21327 24.2812 8.57421 31.0756 13.9409 31.1329C13.9528 31.1331 13.9645 31.134 13.9764 31.1341C14.1753 31.1356 14.3743 31.131 14.5729 31.1205L14.5805 31.1202C14.8325 31.1066 15.0839 31.0832 15.3341 31.0501Z" fill="#E09380"/>
<path d="M11.7234 13.8764H9.35699C8.90887 13.8764 8.54552 13.5131 8.54552 13.0649C8.54552 12.6168 8.9088 12.2534 9.35699 12.2534H11.7234C12.1715 12.2534 12.5349 12.6167 12.5349 13.0649C12.5349 13.5131 12.1715 13.8764 11.7234 13.8764ZM18.4855 13.8764H16.1191C15.671 13.8764 15.3076 13.5131 15.3076 13.0649C15.3076 12.6168 15.6709 12.2534 16.1191 12.2534H18.4855C18.9336 12.2534 19.297 12.6167 19.297 13.0649C19.297 13.5131 18.9336 13.8764 18.4855 13.8764ZM19.1212 26.2142V23.2676C19.1212 22.2139 18.2671 21.3598 17.2134 21.3598H10.8817C9.82802 21.3598 8.97384 22.2139 8.97384 23.2676V24.6454C8.97384 25.3344 8.16461 25.7083 7.64213 25.2591C7.29439 24.9603 6.96783 24.6376 6.66481 24.2935V26.2537C6.66481 26.329 6.66597 26.404 6.66821 26.4788C6.78593 30.4038 10.0577 33.5018 13.9844 33.5377L15.3342 33.55C20.1091 32.9225 23.7952 28.8374 23.7952 23.8911V17.8926C23.7951 21.4166 21.9241 24.5034 19.1212 26.2142ZM10.3734 23.2676C10.3734 23.1328 10.427 23.0035 10.5223 22.9082C10.6176 22.8129 10.7469 22.7593 10.8817 22.7593H17.2135C17.3483 22.7593 17.4776 22.8129 17.5729 22.9082C17.6682 23.0035 17.7217 23.1328 17.7217 23.2676V26.9203C16.9961 27.2155 16.2373 27.4214 15.4621 27.5336V25.7212H13.3533C12.9076 25.7212 12.5463 26.0825 12.5463 26.5282C12.5463 27.0572 12.0453 27.4444 11.5338 27.3092C11.3277 27.2548 11.1234 27.1936 10.9213 27.1258C10.5934 27.0156 10.3734 26.7068 10.3734 26.3608V23.2676Z" fill="#26447E"/>
<path d="M6.80334 24.4475C5.19659 22.6981 4.21327 20.3645 4.21327 17.7961V23.7947C4.21327 29.2046 8.57421 33.5751 13.9409 33.6324C13.9528 33.6325 13.9645 33.6334 13.9764 33.6335C14.1753 33.635 14.3743 33.6305 14.5729 33.6199L14.5805 33.6196C14.8325 33.606 15.0839 33.5826 15.3342 33.5496C10.7303 32.9497 7.11192 29.158 6.80334 24.4475Z" fill="#20396B"/>
<path d="M12.7376 19.7516C12.5359 20.5571 12.9025 21.4346 13.6035 21.6991C13.8928 21.8085 14.212 21.8085 14.5012 21.6991C15.2023 21.4346 15.5689 20.5571 15.3672 19.7516L14.6984 17.0812C14.5301 16.4089 13.5746 16.4089 13.4063 17.0812L12.7376 19.7516ZM9.67366 3.68774V5.01151C9.67366 7.77256 11.9119 10.0108 14.673 10.0108H16.1122C18.5821 10.0108 20.8271 9.0487 22.4938 7.47923V3.68774H9.67366Z" fill="#E09380"/>
<path d="M5.37018 3.68774V10.0108H5.57787C8.31847 10.0108 10.5401 7.78911 10.5401 5.04858V3.68774H5.37018Z" fill="#E09380"/>
<path d="M5.77666 6.00928H4.2132V16.2915C5.0767 16.2915 5.77666 15.5916 5.77666 14.7281V6.00928Z" fill="#20396B"/>
<path d="M22.2317 14.449V15.4278C22.2317 16.2913 22.9317 16.9912 23.7952 16.9912V14.4377C23.2742 14.4351 22.7529 14.4443 22.2317 14.449Z" fill="#E09380"/>
<path d="M23.7951 4.30957L22.2316 6.00919V14.728C22.2316 15.5915 22.9316 16.2914 23.7951 16.2914V4.30957Z" fill="#20396B"/>
<path d="M16.1122 9.31092H14.673C11.9119 9.31092 9.67366 7.07264 9.67366 4.31158V0H25.4231C25.4231 5.14228 21.2544 9.31092 16.1122 9.31092Z" fill="#26447E"/>
<path d="M4.2132 9.31092H5.57786C8.31846 9.31092 10.5401 7.08926 10.5401 4.34866V0C7.04586 0 4.2132 2.83267 4.2132 6.32693V9.31092Z" fill="#26447E"/>
<path d="M19.6428 28.0268C21.1044 28.0268 22.2894 26.8419 22.2894 25.3802C22.2894 23.9186 21.1044 22.7336 19.6428 22.7336C18.1811 22.7336 16.9962 23.9186 16.9962 25.3802C16.9962 26.8419 18.1811 28.0268 19.6428 28.0268Z" fill="white"/>
<path d="M22.2317 27.6962C23.6934 27.6962 24.8783 26.5113 24.8783 25.0497C24.8783 23.588 23.6934 22.4031 22.2317 22.4031C20.77 22.4031 19.5851 23.588 19.5851 25.0497C19.5851 26.5113 20.77 27.6962 22.2317 27.6962Z" fill="white"/>
<path d="M19.6428 30.5661C20.7483 30.5661 21.6445 29.6699 21.6445 28.5644C21.6445 27.4589 20.7483 26.5627 19.6428 26.5627C18.5373 26.5627 17.6411 27.4589 17.6411 28.5644C17.6411 29.6699 18.5373 30.5661 19.6428 30.5661Z" fill="white"/>
<path d="M16.3601 29.1809C17.4656 29.1809 18.3618 28.2847 18.3618 27.1792C18.3618 26.0737 17.4656 25.1775 16.3601 25.1775C15.2546 25.1775 14.3584 26.0737 14.3584 27.1792C14.3584 28.2847 15.2546 29.1809 16.3601 29.1809Z" fill="white"/>
<path d="M17.6939 24.1949C18.6559 24.1949 19.4357 23.4151 19.4357 22.4532C19.4357 21.4912 18.6559 20.7114 17.6939 20.7114C16.732 20.7114 15.9522 21.4912 15.9522 22.4532C15.9522 23.4151 16.732 24.1949 17.6939 24.1949Z" fill="white"/>
<path d="M10.6831 17.3844C9.88208 17.3844 9.23053 16.7328 9.23053 15.9319H9.91749C9.91749 16.354 10.261 16.6975 10.6831 16.6975C11.1052 16.6975 11.4487 16.354 11.4487 15.9319H12.1357C12.1355 16.7327 11.484 17.3844 10.6831 17.3844ZM17.4692 17.3844C16.6683 17.3844 16.0167 16.7328 16.0167 15.9319H16.7037C16.7037 16.354 17.0471 16.6975 17.4692 16.6975C17.8913 16.6975 18.2348 16.354 18.2348 15.9319H18.9218C18.9217 16.7327 18.2701 17.3844 17.4692 17.3844Z" fill="#20396B"/>
<path d="M14.0455 25.1479C13.2806 25.1479 12.5016 24.9052 11.7139 24.4196C11.665 24.3894 11.6224 24.35 11.5888 24.3034C11.5551 24.2568 11.531 24.2041 11.5177 24.1482C11.5044 24.0923 11.5023 24.0343 11.5115 23.9776C11.5206 23.9209 11.5408 23.8665 11.571 23.8176C11.6011 23.7687 11.6406 23.7262 11.6872 23.6925C11.7337 23.6589 11.7865 23.6347 11.8424 23.6214C11.8983 23.6082 11.9563 23.606 12.013 23.6152C12.0697 23.6243 12.1241 23.6446 12.173 23.6747C13.4536 24.464 14.6463 24.467 15.8194 23.6834C15.8672 23.6515 15.9208 23.6293 15.9771 23.6181C16.0335 23.6069 16.0915 23.6069 16.1478 23.6181C16.2042 23.6293 16.2578 23.6515 16.3055 23.6834C16.3533 23.7154 16.3943 23.7564 16.4262 23.8042C16.4582 23.8519 16.4803 23.9055 16.4916 23.9619C16.5028 24.0182 16.5028 24.0762 16.4915 24.1326C16.4803 24.1889 16.4581 24.2425 16.4262 24.2903C16.3943 24.338 16.3533 24.3791 16.3055 24.411C15.57 24.9023 14.8149 25.1479 14.0455 25.1479Z" fill="#E09380"/>
<path d="M27.0174 26.2709C28.1434 26.2709 29.0562 25.3581 29.0562 24.2321C29.0562 23.1061 28.1434 22.1934 27.0174 22.1934C25.8914 22.1934 24.9787 23.1061 24.9787 24.2321C24.9787 25.3581 25.8914 26.2709 27.0174 26.2709Z" fill="white"/>
<path d="M27.0571 27.5905C27.6201 27.5905 28.0765 27.1341 28.0765 26.5711C28.0765 26.0081 27.6201 25.5518 27.0571 25.5518C26.4941 25.5518 26.0377 26.0081 26.0377 26.5711C26.0377 27.1341 26.4941 27.5905 27.0571 27.5905Z" fill="white"/>
<path d="M29.3207 27.9962C29.7083 27.9962 30.0224 27.682 30.0224 27.2945C30.0224 26.9069 29.7083 26.5928 29.3207 26.5928C28.9332 26.5928 28.619 26.9069 28.619 27.2945C28.619 27.682 28.9332 27.9962 29.3207 27.9962Z" fill="white"/>
<path d="M23.3507 26.3904C25.5403 26.3904 27.3152 24.6154 27.3152 22.4259C27.3152 20.2364 25.5403 18.4614 23.3507 18.4614C21.1612 18.4614 19.3862 20.2364 19.3862 22.4259C19.3862 24.6154 21.1612 26.3904 23.3507 26.3904Z" fill="#F7E07D"/>
<path d="M26.7518 24.4396C27.532 23.6594 26.9472 21.8098 25.4457 20.3083C23.9442 18.8068 22.0946 18.222 21.3144 19.0022C20.5343 19.7824 21.119 21.632 22.6205 23.1335C24.122 24.635 25.9717 25.2198 26.7518 24.4396Z" fill="#FBF490"/>
<path d="M21.3193 19.0021L26.7567 24.4395C26.7567 24.4395 29.3198 20.6416 29.0599 19.2451C28.8952 18.3601 27.4099 16.7852 26.5138 16.6991C25.0998 16.563 21.3193 19.0021 21.3193 19.0021Z" fill="#FBF490"/>
<path d="M31.8262 11.0918L31.8036 11.1143C31.5363 11.3816 31.1668 11.526 30.7621 11.5353C29.8353 11.5568 28.896 11.9349 28.1676 12.6633C27.6675 13.1634 27.3325 13.7629 27.1647 14.3896L27.5145 16.2914L33.4923 15.7901V12.758L31.8262 11.0918Z" fill="#817DDB"/>
<path d="M26.9595 15.7363C26.8898 15.9502 26.7756 16.1425 26.6186 16.2993L26.3349 16.5831L29.1756 19.4239L29.4594 19.1401C29.6164 18.9832 29.8087 18.869 30.0224 18.7992L26.9595 15.7363Z" fill="#6E64C2"/>
<path d="M33.6168 12.8823C33.2426 14.5225 31.776 15.7468 30.0224 15.7468C28.8699 15.7468 27.8411 15.2177 27.1648 14.3896C27.0887 14.673 27.0467 14.9644 27.0397 15.2578C27.0303 15.6625 26.886 16.0319 26.6186 16.2993L26.3349 16.5831L29.1756 19.4239L29.4594 19.1401C29.7267 18.8728 30.0962 18.7284 30.501 18.7191C31.4278 18.6976 32.3671 18.3194 33.0955 17.5911C33.8238 16.8627 34.202 15.9234 34.2235 14.9966C34.2328 14.5918 34.3772 14.2224 34.6445 13.955L34.667 13.9326L33.6168 12.8823Z" fill="#6E64C2"/>
<path d="M26.2404 16.8975L27.9791 18.6362L28.7061 17.9092L26.9674 16.1705C26.871 16.0741 26.7402 16.0199 26.6039 16.0199C26.4676 16.0199 26.3368 16.0741 26.2404 16.1705C26.144 16.2669 26.0898 16.3977 26.0898 16.534C26.0898 16.6703 26.144 16.8011 26.2404 16.8975ZM32.2996 10.8383L34.0383 12.577L33.3113 13.304L31.5726 11.5653C31.5249 11.5176 31.487 11.4609 31.4612 11.3985C31.4353 11.3362 31.422 11.2693 31.422 11.2018C31.422 11.1343 31.4353 11.0675 31.4612 11.0051C31.487 10.9427 31.5249 10.886 31.5726 10.8383C31.6203 10.7906 31.677 10.7527 31.7394 10.7269C31.8017 10.701 31.8686 10.6877 31.9361 10.6877C32.0036 10.6877 32.0705 10.701 32.1328 10.7269C32.1952 10.7527 32.2519 10.7906 32.2996 10.8383Z" fill="#26447E"/>
<path d="M28.658 17.861L29.5883 18.7913C29.6847 18.8877 29.7388 19.0184 29.7388 19.1548C29.7388 19.2911 29.6847 19.4219 29.5883 19.5183C29.4919 19.6147 29.3611 19.6688 29.2248 19.6688C29.0884 19.6688 28.9577 19.6147 28.8613 19.5183L27.931 18.588L28.658 17.861ZM33.9902 12.5288L34.9205 13.4591C34.9682 13.5068 35.0061 13.5635 35.0319 13.6259C35.0577 13.6882 35.071 13.7551 35.071 13.8226C35.071 13.8901 35.0577 13.9569 35.0319 14.0193C35.0061 14.0817 34.9682 14.1383 34.9205 14.1861C34.8727 14.2338 34.8161 14.2717 34.7537 14.2975C34.6913 14.3233 34.6245 14.3366 34.557 14.3366C34.4895 14.3366 34.4226 14.3233 34.3602 14.2975C34.2979 14.2717 34.2412 14.2338 34.1935 14.1861L33.2632 13.2558L33.9902 12.5288Z" fill="#20396B"/>
<path d="M24.5926 24.9126L26.4628 21.7174C26.5149 21.6284 26.3916 21.542 26.3257 21.6214L23.8236 24.6361L24.5926 24.9126ZM23.3961 24.2086L24.5657 22.7192C24.6196 22.6504 24.5293 22.562 24.4617 22.6175L23.0026 23.8151L23.3961 24.2086Z" fill="#F7E07D"/>
<path d="M19.9782 23.3306C20.6515 23.3306 21.1974 22.7847 21.1974 22.1114C21.1974 21.438 20.6515 20.8921 19.9782 20.8921C19.3048 20.8921 18.7589 21.438 18.7589 22.1114C18.7589 22.7847 19.3048 23.3306 19.9782 23.3306Z" fill="white"/>
<path d="M20.455 21.4448C20.9558 21.4448 21.3618 21.0388 21.3618 20.5381C21.3618 20.0373 20.9558 19.6313 20.455 19.6313C19.9543 19.6313 19.5483 20.0373 19.5483 20.5381C19.5483 21.0388 19.9543 21.4448 20.455 21.4448Z" fill="white"/>
<path d="M18.5782 20.3146C18.9389 20.3146 19.2314 20.0222 19.2314 19.6614C19.2314 19.3007 18.9389 19.0083 18.5782 19.0083C18.2175 19.0083 17.9251 19.3007 17.9251 19.6614C17.9251 20.0222 18.2175 20.3146 18.5782 20.3146Z" fill="white"/>
<path d="M19.8093 26.4454C20.7713 26.4454 21.5511 25.6656 21.5511 24.7037C21.5511 23.7417 20.7713 22.9619 19.8093 22.9619C18.8474 22.9619 18.0676 23.7417 18.0676 24.7037C18.0676 25.6656 18.8474 26.4454 19.8093 26.4454Z" fill="white"/>
</g>
<defs>
<clipPath id="clip0_6882_4338">
<rect width="37" height="37" fill="white"/>
</clipPath>
</defs>
</svg>
