<svg width="37" height="37" viewBox="0 0 37 37" fill="none" xmlns="http://www.w3.org/2000/svg">
<path d="M29.3319 37H7.66801C6.92794 37 6.32799 36.4 6.32799 35.66V6.70017L18.5 4.4668L30.672 6.70017V35.6599C30.672 36.4 30.0721 37 29.3319 37Z" fill="#ECF4FF"/>
<path d="M28.4386 6.29041V35.66C28.4386 36.4 27.8386 37 27.0986 37H29.3319C30.072 37 30.672 36.4 30.672 35.66V6.70015L28.4386 6.29041Z" fill="#DDEAFB"/>
<path d="M30.672 6.70018H6.32791V1.36047C6.32791 0.609127 6.93704 0 7.68846 0H29.3116C30.0629 0 30.672 0.609127 30.672 1.36047V6.70018Z" fill="#4073C8"/>
<path d="M29.3116 0H27.0782C27.8295 0 28.4387 0.609127 28.4387 1.36047V6.70018H30.672V1.36047C30.672 0.609127 30.0629 0 29.3116 0Z" fill="#3B66C1"/>
<path d="M17.112 4.46684C17.7287 4.46684 18.2287 3.96687 18.2287 3.35012C18.2287 2.73337 17.7287 2.2334 17.112 2.2334C16.4952 2.2334 15.9953 2.73337 15.9953 3.35012C15.9953 3.96687 16.4952 4.46684 17.112 4.46684Z" fill="#C8EA73"/>
<path d="M21.7649 4.46684C22.3816 4.46684 22.8816 3.96687 22.8816 3.35012C22.8816 2.73337 22.3816 2.2334 21.7649 2.2334C21.1481 2.2334 20.6481 2.73337 20.6481 3.35012C20.6481 3.96687 21.1481 4.46684 21.7649 4.46684Z" fill="#FFE07D"/>
<path d="M26.4178 4.46684C27.0346 4.46684 27.5346 3.96687 27.5346 3.35012C27.5346 2.73337 27.0346 2.2334 26.4178 2.2334C25.8011 2.2334 25.3011 2.73337 25.3011 3.35012C25.3011 3.96687 25.8011 4.46684 26.4178 4.46684Z" fill="#DD4FB1"/>
<path d="M34.3444 20.1417H16.4283C16.0306 20.1417 15.7083 19.8193 15.7083 19.4217V11.9281C15.7083 11.5304 16.0307 11.2081 16.4283 11.2081H34.3444C34.742 11.2081 35.0643 11.5305 35.0643 11.9281V19.4217C35.0643 19.8193 34.742 20.1417 34.3444 20.1417Z" fill="#FFE07D"/>
<path d="M34.3444 11.2081H32.111C32.5087 11.2081 32.831 11.5305 32.831 11.9281V19.4217C32.831 19.8194 32.5086 20.1417 32.111 20.1417H34.3444C34.742 20.1417 35.0643 19.8193 35.0643 19.4217V11.9282C35.0643 11.5305 34.742 11.2081 34.3444 11.2081Z" fill="#FFD064"/>
<path d="M18.484 13.9835H28.6182C28.9176 13.9835 29.1602 13.7409 29.1602 13.4415C29.1602 13.1421 28.9176 12.8995 28.6182 12.8995H18.484C18.1847 12.8995 17.942 13.1421 17.942 13.4415C17.942 13.7409 18.1847 13.9835 18.484 13.9835ZM32.2354 15.1329H18.4839C18.1846 15.1329 17.9419 15.3755 17.9419 15.6749C17.9419 15.9743 18.1846 16.2169 18.4839 16.2169H32.2354C32.5348 16.2169 32.7774 15.9743 32.7774 15.6749C32.7774 15.3755 32.5348 15.1329 32.2354 15.1329ZM21.5151 17.3663H18.484C18.1847 17.3663 17.942 17.6089 17.942 17.9083C17.942 18.2077 18.1847 18.4503 18.484 18.4503H21.5151C21.8145 18.4503 22.0571 18.2077 22.0571 17.9083C22.0571 17.6089 21.8144 17.3663 21.5151 17.3663Z" fill="#4073C8"/>
<path d="M11.6138 15.6751C11.6138 17.1218 10.9786 18.4205 9.97262 19.3064H3.57639C2.57046 18.4205 1.93524 17.1218 1.93524 15.6751C1.93524 13.0027 4.10177 10.8362 6.77487 10.8362C9.44725 10.8362 11.6138 13.0027 11.6138 15.6751Z" fill="#4073C8"/>
<path d="M6.77458 16.8338C7.76134 16.8338 8.56128 16.0338 8.56128 15.0471C8.56128 14.0603 7.76134 13.2604 6.77458 13.2604C5.78782 13.2604 4.98788 14.0603 4.98788 15.0471C4.98788 16.0338 5.78782 16.8338 6.77458 16.8338Z" fill="#DD4FB1"/>
<path d="M9.97284 19.3065C9.1204 20.0577 8.00079 20.514 6.77458 20.514C5.54838 20.514 4.42877 20.0577 3.57632 19.3065C3.94481 17.8846 5.23721 16.8341 6.77458 16.8341C8.31196 16.8341 9.60436 17.8846 9.97284 19.3065Z" fill="#DA2EA2"/>
<path d="M20.5717 32.3981H2.65559C2.25791 32.3981 1.93561 32.0757 1.93561 31.6781V24.1845C1.93561 23.7868 2.25798 23.4645 2.65559 23.4645H20.5717C20.9694 23.4645 21.2917 23.7869 21.2917 24.1845V31.678C21.2917 32.0757 20.9694 32.3981 20.5717 32.3981Z" fill="#FFE07D"/>
<path d="M20.5717 23.4645H18.3383C18.736 23.4645 19.0583 23.7869 19.0583 24.1845V31.678C19.0583 32.0757 18.7359 32.398 18.3383 32.398H20.5717C20.9694 32.398 21.2917 32.0757 21.2917 31.678V24.1845C21.2917 23.7869 20.9694 23.4645 20.5717 23.4645Z" fill="#FFD064"/>
<path d="M4.71133 26.2399H14.8455C15.1448 26.2399 15.3875 25.9973 15.3875 25.6979C15.3875 25.3985 15.1448 25.1559 14.8455 25.1559H4.71133C4.41201 25.1559 4.16934 25.3985 4.16934 25.6979C4.16934 25.9973 4.41201 26.2399 4.71133 26.2399ZM18.4628 27.3893H4.71133C4.41201 27.3893 4.16934 27.6318 4.16934 27.9312C4.16934 28.2306 4.41201 28.4732 4.71133 28.4732H18.4628C18.7621 28.4732 19.0048 28.2306 19.0048 27.9312C19.0048 27.6318 18.7621 27.3893 18.4628 27.3893ZM7.74244 29.6226H4.71133C4.41201 29.6226 4.16934 29.8652 4.16934 30.1646C4.16934 30.464 4.41201 30.7066 4.71133 30.7066H7.74237C8.0417 30.7066 8.28436 30.464 8.28436 30.1646C8.28436 29.8652 8.04177 29.6226 7.74244 29.6226Z" fill="#4073C8"/>
<path d="M35.0647 27.9314C35.0647 29.3782 34.4295 30.6768 33.4235 31.5628H27.0273C26.0214 30.6768 25.3862 29.3782 25.3862 27.9314C25.3862 25.2591 27.5527 23.0925 30.2251 23.0925C32.8982 23.0925 35.0647 25.2591 35.0647 27.9314Z" fill="#4073C8"/>
<path d="M30.2254 29.0901C31.2121 29.0901 32.0121 28.2902 32.0121 27.3034C32.0121 26.3167 31.2121 25.5167 30.2254 25.5167C29.2386 25.5167 28.4387 26.3167 28.4387 27.3034C28.4387 28.2902 29.2386 29.0901 30.2254 29.0901Z" fill="#C8EA73"/>
<path d="M33.4236 31.5627C32.5711 32.3139 31.4515 32.7702 30.2253 32.7702C28.9992 32.7702 27.8795 32.3139 27.027 31.5627C27.3955 30.1408 28.6879 29.0903 30.2253 29.0903C31.7627 29.0903 33.0551 30.1408 33.4236 31.5627Z" fill="#B7E445"/>
</svg>
