<svg width="37" height="37" viewBox="0 0 37 37" fill="none" xmlns="http://www.w3.org/2000/svg">
<g clip-path="url(#clip0_6871_3658)">
<path d="M17.9219 5.78125L19.6562 5.20312L18.5 6.9375V7.11094C17.93 6.98943 17.3484 6.93127 16.7656 6.9375C16.1829 6.93127 15.6012 6.98943 15.0312 7.11094V6.9375L13.875 5.20312L15.5805 5.78125L16.7656 4.625L17.9219 5.78125Z" fill="#628C1B"/>
<path d="M16.7656 6.93746C17.3484 6.93123 17.93 6.9894 18.5 7.1109C20.1939 7.46934 21.3906 8.46371 21.3906 10.4062C21.3906 11.6328 20.9033 12.8092 20.036 13.6766C19.1686 14.5439 17.9923 15.0312 16.7656 15.0312C15.539 15.0312 14.3626 14.5439 13.4953 13.6766C12.6279 12.8092 12.1406 11.6328 12.1406 10.4062C12.1406 8.46371 13.3373 7.46934 15.0312 7.1109C15.6012 6.9894 16.1829 6.93123 16.7656 6.93746Z" fill="#99343B"/>
<path d="M18.2109 13.2968H17.6328C16.8239 13.2932 16.0468 12.9814 15.4597 12.425C14.8726 11.8685 14.5197 11.1092 14.4727 10.3017C14.4258 9.49414 14.6884 8.69906 15.2071 8.07834C15.7258 7.45761 16.4615 7.0579 17.2645 6.96059C17.0986 6.95192 16.9391 6.93746 16.7656 6.93746C16.1829 6.93123 15.6012 6.9894 15.0312 7.1109C13.3373 7.46934 12.1406 8.46371 12.1406 10.4062C12.1406 11.6328 12.6279 12.8092 13.4953 13.6766C14.3626 14.5439 15.539 15.0312 16.7656 15.0312C17.9923 15.0312 19.1686 14.5439 20.036 13.6766C20.9033 12.8092 21.3906 11.6328 21.3906 10.4062C21.3906 10.3663 21.3825 10.3334 21.382 10.2946C21.3366 11.1053 20.9829 11.8679 20.3933 12.4262C19.8037 12.9844 19.0229 13.2959 18.2109 13.2968Z" fill="#7D2A30"/>
<path d="M9.81656 31.0453C9.86026 31.3512 9.78066 31.6619 9.59526 31.9091C9.40986 32.1563 9.13386 32.3197 8.82797 32.3634C8.52208 32.4071 8.21136 32.3275 7.96416 32.1421C7.71697 31.9567 7.55354 31.6807 7.50984 31.3748L6.37094 23.2984C6.36516 23.2406 6.35938 23.1828 6.35938 23.1307C6.35984 22.8361 6.4719 22.5527 6.67299 22.3374C6.87409 22.1221 7.14927 21.991 7.44315 21.9705C7.73703 21.95 8.02777 22.0415 8.25683 22.2268C8.48589 22.412 8.63626 22.6772 8.67766 22.9689L9.81656 31.0453ZM16.1875 23.125V31.2187C16.1875 31.5254 16.0657 31.8195 15.8488 32.0363C15.632 32.2531 15.3379 32.375 15.0312 32.375C14.7246 32.375 14.4305 32.2531 14.2137 32.0363C13.9968 31.8195 13.875 31.5254 13.875 31.2187V23.125C13.8759 22.8186 13.998 22.525 14.2147 22.3084C14.4313 22.0917 14.7249 21.9696 15.0312 21.9687C15.3372 21.971 15.63 22.0935 15.8463 22.3099C16.0627 22.5262 16.1852 22.819 16.1875 23.125ZM30.6406 23.1307C30.6406 23.1828 30.6348 23.2406 30.6291 23.2984L29.4902 31.3748C29.4685 31.5263 29.4173 31.672 29.3393 31.8036C29.2614 31.9353 29.1582 32.0503 29.0358 32.1421C28.9134 32.2339 28.7742 32.3007 28.6259 32.3387C28.4777 32.3766 28.3235 32.385 28.172 32.3634C28.0206 32.3418 27.8749 32.2905 27.7432 32.2125C27.6115 32.1346 27.4965 32.0315 27.4047 31.9091C27.3129 31.7867 27.2461 31.6474 27.2082 31.4992C27.1702 31.351 27.1618 31.1967 27.1834 31.0453L28.3223 22.9689C28.3637 22.6772 28.5141 22.412 28.7432 22.2268C28.9722 22.0415 29.263 21.95 29.5568 21.9705C29.8507 21.991 30.1259 22.1221 30.327 22.3374C30.5281 22.5527 30.6402 22.8361 30.6406 23.1307ZM23.125 23.125V31.2187C23.125 31.5254 23.0032 31.8195 22.7863 32.0363C22.5695 32.2531 22.2754 32.375 21.9688 32.375C21.6621 32.375 21.368 32.2531 21.1512 32.0363C20.9343 31.8195 20.8125 31.5254 20.8125 31.2187V23.125C20.8134 22.8186 20.9355 22.525 21.1522 22.3084C21.3688 22.0917 21.6624 21.9696 21.9688 21.9687C22.2747 21.971 22.5675 22.0935 22.7838 22.3099C23.0002 22.5262 23.1227 22.819 23.125 23.125Z" fill="#8EA241"/>
<path d="M6.9375 24.287C6.93799 24.0061 7.04012 23.7348 7.22503 23.5234C7.40993 23.3119 7.66511 23.1745 7.94344 23.1365C8.21655 23.0983 8.49429 23.1599 8.72564 23.31L8.67766 22.97C8.63626 22.6783 8.48589 22.4132 8.25683 22.228C8.02777 22.0427 7.73703 21.9511 7.44315 21.9716C7.14927 21.9922 6.87409 22.1233 6.67299 22.3385C6.4719 22.5538 6.35984 22.8373 6.35938 23.1319C6.35938 23.1839 6.36516 23.2417 6.37094 23.2996L7.50984 31.376C7.53306 31.5425 7.59258 31.702 7.68418 31.843C7.77579 31.9841 7.89725 32.1033 8.03998 32.1923L6.94906 24.4546C6.94328 24.3968 6.9375 24.339 6.9375 24.287ZM15.6094 23.125C15.8131 23.1258 16.0128 23.1815 16.1875 23.2863V23.125C16.1852 22.819 16.0627 22.5262 15.8463 22.3099C15.63 22.0935 15.3372 21.971 15.0312 21.9687C14.7249 21.9696 14.4313 22.0917 14.2147 22.3084C13.998 22.525 13.8759 22.8186 13.875 23.125V31.2187C13.8761 31.4206 13.9301 31.6187 14.0315 31.7932C14.1329 31.9678 14.2783 32.1127 14.4531 32.2137V24.2812C14.454 23.9748 14.5762 23.6813 14.7928 23.4646C15.0094 23.248 15.303 23.1259 15.6094 23.125ZM28.9005 24.1251C28.9272 23.9371 28.9995 23.7584 29.1112 23.6047C29.2229 23.4511 29.3705 23.3271 29.5411 23.2437C29.7118 23.1603 29.9003 23.1199 30.0901 23.1261C30.28 23.1323 30.4654 23.1849 30.6302 23.2793C30.6354 23.2284 30.6406 23.177 30.6406 23.1307C30.6402 22.8361 30.5281 22.5527 30.327 22.3374C30.1259 22.1221 29.8507 21.991 29.5568 21.9705C29.263 21.95 28.9722 22.0415 28.7432 22.2268C28.5141 22.412 28.3637 22.6772 28.3223 22.9689L27.1834 31.0453C27.1495 31.2768 27.1866 31.5131 27.2898 31.723C27.3931 31.933 27.5575 32.1067 27.7616 32.2212V32.2015L28.9005 24.1251ZM22.5469 23.125C22.7506 23.1258 22.9503 23.1815 23.125 23.2863V23.125C23.1227 22.819 23.0002 22.5262 22.7838 22.3099C22.5675 22.0935 22.2747 21.971 21.9688 21.9687C21.6624 21.9696 21.3688 22.0917 21.1522 22.3084C20.9355 22.525 20.8134 22.8186 20.8125 23.125V31.2187C20.8136 31.4206 20.8676 31.6187 20.969 31.7932C21.0704 31.9678 21.2158 32.1127 21.3906 32.2137V24.2812C21.3915 23.9748 21.5137 23.6813 21.7303 23.4646C21.9469 23.248 22.2405 23.1259 22.5469 23.125Z" fill="#628C1B"/>
<path d="M25.4375 4.04688H11.5625V0.578125H25.4375V2.3125V4.04688Z" fill="#88AB00"/>
<path d="M34.6875 19.0781L32.6409 34.4158C32.5678 34.9711 32.2952 35.4808 31.874 35.8499C31.4528 36.219 30.9116 36.4223 30.3516 36.4219H6.64844C6.08836 36.4223 5.54725 36.219 5.12601 35.8499C4.70477 35.4808 4.43218 34.9711 4.35906 34.4158L2.3125 19.0781H34.6875ZM30.6291 23.2984C30.6348 23.2406 30.6406 23.1828 30.6406 23.1308C30.6402 22.8362 30.5281 22.5527 30.327 22.3374C30.1259 22.1221 29.8507 21.991 29.5568 21.9705C29.263 21.95 28.9722 22.0416 28.7432 22.2268C28.5141 22.4121 28.3637 22.6772 28.3223 22.9689L27.1834 31.0453C27.1397 31.3512 27.2193 31.6619 27.4047 31.9091C27.5901 32.1563 27.8661 32.3197 28.172 32.3634C28.4779 32.4071 28.7886 32.3275 29.0358 32.1421C29.283 31.9567 29.4465 31.6807 29.4902 31.3748L30.6291 23.2984ZM23.125 31.2188V23.125C23.1227 22.819 23.0002 22.5263 22.7838 22.3099C22.5675 22.0936 22.2747 21.971 21.9688 21.9688C21.6624 21.9697 21.3688 22.0918 21.1522 22.3084C20.9355 22.5251 20.8134 22.8186 20.8125 23.125V31.2188C20.8125 31.5254 20.9343 31.8195 21.1512 32.0363C21.368 32.2532 21.6621 32.375 21.9688 32.375C22.2754 32.375 22.5695 32.2532 22.7863 32.0363C23.0032 31.8195 23.125 31.5254 23.125 31.2188ZM16.1875 31.2188V23.125C16.1852 22.819 16.0627 22.5263 15.8463 22.3099C15.63 22.0936 15.3372 21.971 15.0312 21.9688C14.7249 21.9697 14.4313 22.0918 14.2147 22.3084C13.998 22.5251 13.8759 22.8186 13.875 23.125V31.2188C13.875 31.5254 13.9968 31.8195 14.2137 32.0363C14.4305 32.2532 14.7246 32.375 15.0312 32.375C15.3379 32.375 15.632 32.2532 15.8488 32.0363C16.0657 31.8195 16.1875 31.5254 16.1875 31.2188ZM8.82219 32.3634C8.97446 32.3432 9.12119 32.2928 9.25385 32.2154C9.38651 32.138 9.50247 32.0349 9.59498 31.9123C9.68749 31.7897 9.75472 31.6499 9.79276 31.501C9.8308 31.3522 9.83889 31.1973 9.81656 31.0453L8.67766 22.9689C8.63626 22.6772 8.48589 22.4121 8.25683 22.2268C8.02777 22.0416 7.73703 21.95 7.44315 21.9705C7.14927 21.991 6.87408 22.1221 6.67299 22.3374C6.4719 22.5527 6.35984 22.8362 6.35938 23.1308C6.35938 23.1828 6.36516 23.2406 6.37094 23.2984L7.50984 31.3748C7.5304 31.5262 7.58076 31.672 7.658 31.8039C7.73525 31.9357 7.83785 32.0509 7.95988 32.1428C8.0819 32.2347 8.22094 32.3015 8.36895 32.3394C8.51696 32.3773 8.671 32.3855 8.82219 32.3634Z" fill="#FAD27A"/>
<path d="M34.6875 19.0781H1.15625C1.00292 19.0781 0.855873 19.0172 0.747454 18.9088C0.639034 18.8004 0.578125 18.6533 0.578125 18.5V15.0312C0.578125 14.8779 0.639034 14.7309 0.747454 14.6225C0.855873 14.514 1.00292 14.4531 1.15625 14.4531H35.8438C35.9971 14.4531 36.1441 14.514 36.2525 14.6225C36.361 14.7309 36.4219 14.8779 36.4219 15.0312V18.5C36.4219 18.6533 36.361 18.8004 36.2525 18.9088C36.1441 19.0172 35.9971 19.0781 35.8438 19.0781H34.6875Z" fill="#88AB00"/>
<path d="M33.5312 14.4531H32.375V5.78125C32.3741 5.01489 32.0692 4.28018 31.5273 3.73828C30.9854 3.19638 30.2507 2.89154 29.4844 2.89062H25.4375V1.73438H29.4844C30.5573 1.7356 31.5859 2.16236 32.3446 2.92103C33.1033 3.6797 33.53 4.70833 33.5312 5.78125V14.4531ZM4.625 14.4531H3.46875V5.78125C3.46997 4.70833 3.89673 3.6797 4.6554 2.92103C5.41408 2.16236 6.4427 1.7356 7.51562 1.73438H11.5625V2.89062H7.51562C6.74927 2.89154 6.01456 3.19638 5.47266 3.73828C4.93076 4.28018 4.62592 5.01489 4.625 5.78125V14.4531Z" fill="#CEDADA"/>
<path d="M11.5625 0.578125V4.04688H25.4375V0.578125H23.7031C23.7031 1.03811 23.5204 1.47925 23.1951 1.80451C22.8699 2.12977 22.4287 2.3125 21.9688 2.3125H15.0312C14.5713 2.3125 14.1301 2.12977 13.8049 1.80451C13.4796 1.47925 13.2969 1.03811 13.2969 0.578125H11.5625ZM35.8438 14.4531H31.5078C31.8911 14.4531 32.2588 14.6054 32.5298 14.8764C32.8009 15.1475 32.9531 15.5151 32.9531 15.8984C32.9531 16.2818 32.8009 16.6494 32.5298 16.9204C32.2588 17.1915 31.8911 17.3438 31.5078 17.3438H5.49219C5.10887 17.3438 4.74125 17.1915 4.4702 16.9204C4.19915 16.6494 4.04688 16.2818 4.04688 15.8984C4.04688 15.5151 4.19915 15.1475 4.4702 14.8764C4.74125 14.6054 5.10887 14.4531 5.49219 14.4531H1.15625C1.00292 14.4531 0.855873 14.514 0.747454 14.6225C0.639034 14.7309 0.578125 14.8779 0.578125 15.0312V18.5C0.578125 18.6533 0.639034 18.8004 0.747454 18.9088C0.855873 19.0172 1.00292 19.0781 1.15625 19.0781H35.8438C35.9971 19.0781 36.1441 19.0172 36.2525 18.9088C36.361 18.8004 36.4219 18.6533 36.4219 18.5V15.0312C36.4219 14.8779 36.361 14.7309 36.2525 14.6225C36.1441 14.514 35.9971 14.4531 35.8438 14.4531Z" fill="#628C1B"/>
<path d="M30.9944 34.6875H13.3547C12.3814 34.6873 11.4201 34.4732 10.5388 34.0602C9.65756 33.6471 8.87789 33.0454 8.25505 32.2975C8.0591 32.2249 7.8865 32.1006 7.75559 31.9377C7.62467 31.7748 7.54035 31.5795 7.51158 31.3725L7.47978 31.1453C6.75216 29.7734 6.52876 28.1897 6.84847 26.6701L6.37094 23.2984C6.36516 23.2406 6.35938 23.1828 6.35938 23.1308C6.35984 22.8362 6.4719 22.5527 6.67299 22.3374C6.87408 22.1221 7.14927 21.991 7.44315 21.9705C7.73703 21.95 8.02777 22.0416 8.25683 22.2268C8.48589 22.4121 8.63626 22.6772 8.67766 22.9689L8.72159 23.2782C9.95872 22.0659 11.6226 21.388 13.3547 21.3906H34.3788L34.6875 19.0781H2.3125L4.35906 34.4158C4.43218 34.9711 4.70477 35.4808 5.12601 35.8499C5.54725 36.219 6.08836 36.4223 6.64844 36.4219H30.3516C30.9116 36.4223 31.4528 36.219 31.874 35.8499C32.2952 35.4808 32.5678 34.9711 32.6409 34.4158L32.7074 33.9198C32.4917 34.1607 32.2277 34.3536 31.9326 34.4859C31.6375 34.6181 31.3178 34.6868 30.9944 34.6875Z" fill="#F5B662"/>
<path d="M28.0391 14.4531H8.96094C8.482 14.4531 8.09375 14.8414 8.09375 15.3203C8.09375 15.7992 8.482 16.1875 8.96094 16.1875H28.0391C28.518 16.1875 28.9062 15.7992 28.9062 15.3203C28.9062 14.8414 28.518 14.4531 28.0391 14.4531Z" fill="#ACCC5F"/>
<path d="M32.375 12.7188H33.5312V14.4531H32.375V12.7188ZM3.46875 12.7188H4.625V14.4531H3.46875V12.7188ZM25.4375 1.73438H27.75V2.89062H25.4375V1.73438ZM9.25 1.73438H11.5625V2.89062H9.25V1.73438Z" fill="#A3B7B6"/>
<path d="M21.3906 1.15625H15.6094C15.2901 1.15625 15.0312 1.41509 15.0312 1.73438C15.0312 2.05366 15.2901 2.3125 15.6094 2.3125H21.3906C21.7099 2.3125 21.9688 2.05366 21.9688 1.73438C21.9688 1.41509 21.7099 1.15625 21.3906 1.15625Z" fill="#ACCC5F"/>
<path d="M19.6562 9.56219V8.09375C19.6572 7.78737 19.7793 7.49381 19.9959 7.27717C20.2126 7.06053 20.5061 6.93842 20.8125 6.9375C21.1185 6.93977 21.4112 7.06232 21.6276 7.27867C21.8439 7.49501 21.9665 7.78779 21.9688 8.09375V9.56219C21.6177 9.35774 21.2187 9.25003 20.8125 9.25003C20.4063 9.25003 20.0073 9.35774 19.6562 9.56219Z" fill="#88AB00"/>
<path d="M18.5 13.875C18.4982 14.0702 18.5235 14.2648 18.5752 14.4531H16.8408C16.7892 14.2648 16.7639 14.0702 16.7656 13.875L16.1875 11.5625C16.1867 11.3771 16.21 11.1925 16.2569 11.0132C16.3789 10.5104 16.6664 10.0631 17.0732 9.74331C17.48 9.42351 17.9825 9.24976 18.5 9.24996C18.6938 9.23322 18.8889 9.25695 19.0731 9.31965C19.2572 9.38235 19.4262 9.48265 19.5695 9.61417C19.2417 9.82268 18.9718 10.1106 18.7849 10.4511C18.5979 10.7917 18.4999 11.1739 18.5 11.5625V13.875ZM23.0498 14.4531C23.1015 14.2648 23.1268 14.0702 23.125 13.875V11.5625C23.1239 10.9493 22.8808 10.3613 22.4486 9.92636C22.3295 9.80812 22.1976 9.70342 22.0555 9.61417C22.1988 9.48265 22.3678 9.38235 22.552 9.31965C22.7361 9.25695 22.9312 9.23322 23.125 9.24996C23.7383 9.24996 24.3265 9.49359 24.7602 9.92727C25.1939 10.3609 25.4375 10.9491 25.4375 11.5625L24.8594 13.875C24.8611 14.0702 24.8359 14.2648 24.7842 14.4531H23.0498Z" fill="#FF8B26"/>
<path d="M22.0555 9.61419C22.1976 9.70344 22.3295 9.80814 22.4486 9.92638C22.8808 10.3613 23.1239 10.9493 23.125 11.5625V13.875C23.1268 14.0702 23.1015 14.2648 23.0498 14.4531H18.5752C18.5235 14.2648 18.4982 14.0702 18.5 13.875V11.5625C18.4999 11.174 18.5979 10.7917 18.7849 10.4511C18.9718 10.1106 19.2417 9.8227 19.5695 9.61419L19.6562 9.56216C20.0073 9.35771 20.4063 9.25 20.8125 9.25C21.2187 9.25 21.6177 9.35771 21.9687 9.56216L22.0555 9.61419Z" fill="#FAAB1B"/>
<path d="M0.595473 0.594864C0.595473 0.594864 4.75219 0.271114 7.99547 2.45065C8.15157 2.54893 8.30188 2.65877 8.45219 2.7744C8.4811 3.04611 8.44063 3.80982 7.50985 5.06435C7.16419 5.52836 6.78344 5.96516 6.37094 6.37091C5.96519 6.7834 5.52839 7.16416 5.06438 7.50982C3.80985 8.4406 3.04672 8.48107 2.775 8.45216C0.242817 5.15685 0.595473 0.594864 0.595473 0.594864Z" fill="#CEDADA"/>
<path d="M5.13376 7.60817L7.35376 9.82817L7.38267 9.8802C7.04058 10.0534 6.73684 10.2936 6.48953 10.5866C6.24222 10.8796 6.0564 11.2194 5.94313 11.5857L5.87954 11.5625C5.26434 10.9891 4.65534 10.409 4.05267 9.82239C3.85032 9.62583 3.65954 9.43504 3.48032 9.25583C3.22671 9.00479 2.99103 8.73626 2.77501 8.45223C3.04673 8.48114 3.80985 8.44067 5.06438 7.50989L5.13376 7.60817ZM16.1875 11.5625L16.7656 13.875C16.7639 14.0703 16.7892 14.2649 16.8408 14.4532H14.6959C14.9168 13.9016 15.0306 13.313 15.0313 12.7188C15.0313 10.7763 13.8345 9.78192 12.1406 9.42348V9.25004L13.1986 7.66598C14.3028 8.87426 15.355 10.0536 16.1875 10.996L16.2569 11.0133C16.21 11.1926 16.1867 11.3772 16.1875 11.5625Z" fill="#A3B7B6"/>
<path d="M7.51563 7.51558L8.67188 9.24996V9.42339C8.22201 9.5114 7.7876 9.6653 7.38266 9.88011L7.35375 9.82808L5.13375 7.60808L5.06438 7.5098C5.52839 7.16414 5.96519 6.78339 6.37094 6.37089C6.78343 5.96514 7.16419 5.52834 7.50985 5.06433L7.60813 5.13371L9.82813 7.35371L9.90328 7.42886L9.2211 8.09371L7.51563 7.51558Z" fill="#516667"/>
<path d="M13.1177 7.57346L11.5625 8.09377L10.4062 6.93752L9.90328 7.42893L9.82812 7.35377L7.60812 5.13377L7.50984 5.0644C8.44062 3.80987 8.48109 3.04617 8.45219 2.77502C8.73634 2.99089 9.00488 3.22658 9.25578 3.48034C10.4005 4.62502 11.788 6.11659 13.1177 7.57346Z" fill="#B8CFCD"/>
<path d="M28.3281 5.20312H32.9531C33.1065 5.20312 33.2535 5.26403 33.3619 5.37245C33.4703 5.48087 33.5312 5.62792 33.5312 5.78125V6.9375H27.75V5.78125C27.75 5.62792 27.8109 5.48087 27.9193 5.37245C28.0277 5.26403 28.1748 5.20312 28.3281 5.20312Z" fill="#56D5F8"/>
<path d="M33.5312 6.9375L35.8438 9.82812H29.4844L27.75 6.9375H33.5312Z" fill="#99EFFF"/>
<path d="M29.4844 9.82812H35.8438V14.4531H29.4844V9.82812Z" fill="#69E5FD"/>
<path d="M18.5 13.875C18.4982 14.0702 18.5235 14.2648 18.5752 14.4531H16.8408C16.7892 14.2648 16.7639 14.0702 16.7656 13.875L16.1875 11.5625C16.1867 11.3771 16.21 11.1925 16.2569 11.0132C16.3789 10.5104 16.6664 10.0631 17.0732 9.74331C17.48 9.42351 17.9825 9.24976 18.5 9.24996C18.6938 9.23322 18.8889 9.25695 19.0731 9.31965C19.2572 9.38235 19.4262 9.48265 19.5695 9.61417C19.2417 9.82268 18.9718 10.1106 18.7849 10.4511C18.5979 10.7917 18.4999 11.1739 18.5 11.5625V13.875ZM23.125 9.24996C23.7383 9.24996 24.3265 9.49359 24.7602 9.92727C25.1939 10.3609 25.4375 10.9491 25.4375 11.5625L24.8594 13.875C24.8611 14.0702 24.8359 14.2648 24.7842 14.4531H23.0498C23.1015 14.2648 23.1268 14.0702 23.125 13.875V11.5625C23.1239 10.9493 22.8808 10.3613 22.4486 9.92636C22.3295 9.80812 22.1976 9.70342 22.0555 9.61417C22.1988 9.48265 22.3678 9.38235 22.552 9.31965C22.7361 9.25695 22.9312 9.23322 23.125 9.24996Z" fill="#FF8B26"/>
<path d="M11.5625 8.09375L13.1177 7.57344C13.1476 7.60151 13.1748 7.63249 13.1986 7.66594L12.1406 9.25V9.42344C11.5707 9.30193 10.989 9.24377 10.4062 9.25C9.8235 9.24377 9.24185 9.30193 8.67188 9.42344V9.25L7.51562 7.51562L9.22109 8.09375L9.90328 7.42891L10.4062 6.9375L11.5625 8.09375Z" fill="#88AB00"/>
<path d="M8.67188 9.4234C9.24186 9.3019 9.82351 9.24373 10.4063 9.24996C10.989 9.24373 11.5707 9.3019 12.1406 9.4234C13.8345 9.78184 15.0313 10.7762 15.0313 12.7187C15.0306 13.3129 14.9168 13.9015 14.6959 14.4531H6.11657C5.89569 13.9015 5.78189 13.3129 5.78126 12.7187C5.77772 12.335 5.8323 11.953 5.94313 11.5856C6.0564 11.2193 6.24222 10.8795 6.48953 10.5865C6.73683 10.2935 7.04058 10.0533 7.38267 9.88012C7.7876 9.6653 8.22202 9.51141 8.67188 9.4234Z" fill="#CC464F"/>
<path d="M29.4844 9.82812H25.4375V14.4531H29.4844V9.82812Z" fill="#01A3EC"/>
<path d="M28.3593 7.95269L27.75 6.9375L25.4375 9.82812H26.0156L28.3593 7.95269Z" fill="#0191D8"/>
<path d="M29.4844 9.82807L28.3593 7.95264L26.0156 9.82807H25.4375H29.4844Z" fill="#006CBF"/>
<path d="M29.4844 9.82812V14.4531H35.8438V13.2969H34.1094C33.3427 13.2969 32.6075 12.9923 32.0654 12.4502C31.5233 11.9081 31.2188 11.1729 31.2188 10.4062V9.82812H29.4844Z" fill="#30CFFF"/>
<path d="M29.5665 6.9375H27.75L29.4844 9.82812H31.2188L29.5665 6.9375Z" fill="#69E5FD"/>
<path d="M28.9062 5.20312H28.3281C28.1748 5.20312 28.0277 5.26403 27.9193 5.37245C27.8109 5.48087 27.75 5.62792 27.75 5.78125V6.9375H33.5312V6.35938H30.0625C29.7558 6.35938 29.4617 6.23756 29.2449 6.02072C29.0281 5.80388 28.9062 5.50978 28.9062 5.20312Z" fill="#01C1FF"/>
<path d="M9.53907 13.2968C9.07252 13.2969 8.62027 13.1358 8.2589 12.8407C7.89752 12.5456 7.64922 12.1347 7.55604 11.6775C7.46285 11.2204 7.53051 10.7451 7.74755 10.3321C7.96459 9.91909 8.31768 9.59379 8.74704 9.41125C8.72276 9.41646 8.69617 9.41761 8.67188 9.42282C8.22202 9.51082 7.7876 9.66472 7.38267 9.87954C7.04056 10.0528 6.73681 10.2932 6.48951 10.5863C6.2422 10.8793 6.05639 11.2192 5.94313 11.5856C5.8323 11.953 5.77772 12.335 5.78126 12.7187C5.78189 13.3129 5.89569 13.9015 6.11657 14.4531H14.6959C14.8425 14.0816 14.9416 13.6931 14.9908 13.2968H9.53907Z" fill="#99343B"/>
<path d="M13.1177 7.57344L11.5625 8.09375V8.67188H9.25V8.06542L9.22109 8.09375L7.51562 7.51562L8.67188 9.25V9.42344C9.24185 9.30193 9.8235 9.24377 10.4062 9.25C10.989 9.24377 11.5707 9.30193 12.1406 9.42344V9.25L13.1986 7.66594C13.1748 7.63249 13.1476 7.60151 13.1177 7.57344Z" fill="#628C1B"/>
<path d="M13.875 13.2969C13.7217 13.2969 13.5746 13.236 13.4662 13.1275C13.3578 13.0191 13.2969 12.8721 13.2969 12.7188C13.2969 11.7787 12.7673 10.9844 12.1406 10.9844C11.9873 10.9844 11.8402 10.9235 11.7318 10.815C11.6234 10.7066 11.5625 10.5596 11.5625 10.4062C11.5625 10.2529 11.6234 10.1059 11.7318 9.99745C11.8402 9.88903 11.9873 9.82812 12.1406 9.82812C13.4374 9.82812 14.4531 11.1 14.4531 12.7188C14.4531 12.8721 14.3922 13.0191 14.2838 13.1275C14.1754 13.236 14.0283 13.2969 13.875 13.2969Z" fill="#FF5863"/>
<path d="M24.8594 13.875L25.0039 13.2968H24.8594C24.706 13.2968 24.559 13.2359 24.4506 13.1275C24.3422 13.0191 24.2812 12.872 24.2812 12.7187V10.9843C24.2766 10.6974 24.1747 10.4206 23.9922 10.1992C23.9036 10.0889 23.8576 9.95033 23.8625 9.80887C23.8675 9.66741 23.9232 9.53245 24.0194 9.4286C23.736 9.31043 23.432 9.24971 23.125 9.24996C22.9312 9.23322 22.7361 9.25695 22.552 9.31965C22.3678 9.38235 22.1988 9.48265 22.0555 9.61417C22.1976 9.70342 22.3295 9.80812 22.4486 9.92636C22.5607 10.0416 22.6608 10.1679 22.7475 10.3033C22.9928 10.6775 23.124 11.115 23.125 11.5625V13.875C23.1269 14.0702 23.1016 14.2648 23.0498 14.4531H24.7842C24.8358 14.2648 24.8611 14.0702 24.8594 13.875ZM18.5 13.875V11.5625C18.4999 11.1739 18.5979 10.7917 18.7849 10.4511C18.9718 10.1106 19.2417 9.82268 19.5695 9.61417C19.4262 9.48265 19.2572 9.38235 19.073 9.31965C18.8889 9.25695 18.6938 9.23322 18.5 9.24996C18.1951 9.2518 17.8936 9.3145 17.6132 9.43438C17.7069 9.53871 17.7605 9.67296 17.7645 9.81317C17.7684 9.95338 17.7223 10.0904 17.6345 10.1998C17.4516 10.4208 17.349 10.6974 17.3438 10.9843V12.7187C17.3438 12.872 17.2828 13.0191 17.1744 13.1275C17.066 13.2359 16.919 13.2968 16.7656 13.2968H16.6211L16.7656 13.875C16.7639 14.0702 16.7892 14.2648 16.8408 14.4531H18.5752C18.5234 14.2648 18.4981 14.0702 18.5 13.875Z" fill="#F37924"/>
<path d="M19.6562 12.1406V10.4062C19.6562 10.0996 19.7781 9.8055 19.9949 9.58866C20.2117 9.37182 20.5058 9.25 20.8125 9.25C20.4063 9.25042 20.0074 9.35812 19.6562 9.56219L19.5695 9.61422C19.242 9.823 18.9723 10.1109 18.7854 10.4514C18.5984 10.792 18.5003 11.1741 18.5 11.5625V13.875C18.4982 14.0703 18.5235 14.2648 18.5752 14.4531H23.0498C23.1015 14.2648 23.1268 14.0703 23.125 13.875V13.2969H20.8125C20.5058 13.2969 20.2117 13.1751 19.9949 12.9582C19.7781 12.7414 19.6562 12.4473 19.6562 12.1406Z" fill="#FF9B00"/>
<path d="M21.1016 8.67188C20.8864 8.66861 20.6801 8.58545 20.5228 8.43857C20.3656 8.29168 20.2685 8.09157 20.2506 7.87712C20.2326 7.66267 20.295 7.4492 20.4257 7.27822C20.5564 7.10723 20.746 6.99094 20.9576 6.95195C20.9096 6.94391 20.8611 6.93908 20.8125 6.9375C20.5061 6.93842 20.2126 7.06053 19.9959 7.27717C19.7793 7.49381 19.6572 7.78737 19.6562 8.09375V9.56219C20.0073 9.35774 20.4063 9.25003 20.8125 9.25003C21.2187 9.25003 21.6177 9.35774 21.9688 9.56219V8.67188H21.1016Z" fill="#628C1B"/>
<path d="M7.99548 2.45072C7.92842 2.40621 7.85904 2.36805 7.7914 2.32527C6.9948 3.38184 6.07201 4.33705 5.04357 5.16964C4.71749 5.41818 4.31292 5.5412 3.90368 5.51626C3.49444 5.49132 3.10781 5.32008 2.81432 5.03378C1.43781 3.6723 0.698384 1.03027 0.593165 0.635986C0.568306 1.02217 0.359025 5.30839 2.77501 8.45224C3.04673 8.48114 3.80985 8.44067 5.06438 7.50989C5.52839 7.16423 5.9652 6.78348 6.37095 6.37099C6.78344 5.96523 7.16419 5.52843 7.50985 5.06442C8.44063 3.80931 8.4811 3.04619 8.4522 2.77505C8.30188 2.65942 8.15157 2.549 7.99548 2.45072Z" fill="#B8CFCD"/>
<path d="M4.91406 4.04688C5.393 4.04688 5.78125 3.65862 5.78125 3.17969C5.78125 2.70075 5.393 2.3125 4.91406 2.3125C4.43513 2.3125 4.04688 2.70075 4.04688 3.17969C4.04688 3.65862 4.43513 4.04688 4.91406 4.04688Z" fill="#2C3D45"/>
<path d="M2.31251 2.31244L1.62222 0.585585C0.986287 0.565351 0.595474 0.594835 0.595474 0.594835V0.620851C0.687396 0.87696 1.25916 2.31244 2.31251 2.31244Z" fill="#839D9C"/>
<path d="M4.91406 3.46875C5.07371 3.46875 5.20312 3.33933 5.20312 3.17969C5.20312 3.02004 5.07371 2.89062 4.91406 2.89062C4.75442 2.89062 4.625 3.02004 4.625 3.17969C4.625 3.33933 4.75442 3.46875 4.91406 3.46875Z" fill="white"/>
<path d="M5.06438 7.5098L5.13375 7.60808L7.35375 9.82808L7.38266 9.88011C7.7876 9.6653 8.22201 9.5114 8.67188 9.42339V9.24996L6.07783 6.65533C5.75802 6.96085 5.41955 7.24622 5.06438 7.5098ZM9.90328 7.42886L9.82813 7.35371L7.60813 5.13371L7.50985 5.06433C7.34797 5.28517 7.1543 5.52278 6.93172 5.77485L9.23613 8.07925L9.90328 7.42886Z" fill="#3E5857"/>
<path d="M9.22108 8.09376L9.23554 8.07931L6.93113 5.7749C6.65991 6.08093 6.37499 6.37453 6.07724 6.65481L8.67186 9.25001L7.51561 7.51564L9.22108 8.09376Z" fill="#516667"/>
<path d="M6.57559 6.57502C6.99766 6.15875 7.38766 5.71116 7.74224 5.23609C8.28283 4.60628 8.63011 3.83382 8.7424 3.01146C8.64585 2.9311 8.54988 2.85016 8.45334 2.77443C8.35679 2.6987 8.26371 2.63915 8.1689 2.57324C8.14923 2.62427 8.145 2.67997 8.15676 2.73338C8.16129 2.75707 8.16438 2.78101 8.16601 2.80507C8.18509 2.98834 8.17873 3.6792 7.27801 4.89384C6.94062 5.34518 6.56956 5.77036 6.16801 6.16571C5.77273 6.56787 5.34756 6.93952 4.89613 7.27745C3.68207 8.17643 2.99295 8.18337 2.80217 8.16313C2.78278 8.16196 2.76347 8.15964 2.74435 8.1562C2.68973 8.14167 2.63195 8.1445 2.57901 8.16429C2.64665 8.25968 2.70793 8.35796 2.7802 8.45335C2.85246 8.54874 2.93629 8.64702 3.01723 8.74241C3.83885 8.63053 4.61071 8.28384 5.24012 7.74399C5.71422 7.3887 6.16066 6.99792 6.57559 6.57502Z" fill="#839D9C"/>
<path d="M20.7171 11.0636C20.9484 11.2758 21.1391 11.5192 21.3733 11.7273C21.6042 11.952 21.901 12.0969 22.2202 12.1407C22.2627 12.147 22.306 12.1426 22.3463 12.128C22.3964 12.1007 22.4344 12.0555 22.4526 12.0014C22.5229 11.83 22.5541 11.6452 22.5441 11.4604C22.5341 11.2755 22.4831 11.0951 22.3948 10.9324C22.236 10.63 22.0054 10.3712 21.7233 10.1787C21.4412 9.98617 21.1161 9.86582 20.7767 9.82818C20.6548 9.8214 20.5345 9.85849 20.4375 9.93272C20.3406 10.0069 20.2735 10.1134 20.2483 10.2329C20.165 10.5982 20.4656 10.8306 20.7171 11.0636Z" fill="#FBCB00"/>
</g>
<defs>
<clipPath id="clip0_6871_3658">
<rect width="37" height="37" fill="white"/>
</clipPath>
</defs>
</svg>
