<svg width="37" height="37" viewBox="0 0 37 37" fill="none" xmlns="http://www.w3.org/2000/svg">
<path d="M1.41095 9.79712V33.1164C1.41133 33.7698 1.67105 34.3963 2.13307 34.8583C2.59509 35.3203 3.22161 35.5801 3.87501 35.5804H29.6718C29.9955 35.5807 30.316 35.5172 30.6151 35.3934C30.9142 35.2697 31.1859 35.0882 31.4148 34.8593C31.6437 34.6305 31.8252 34.3587 31.9489 34.0597C32.0726 33.7606 32.1362 33.44 32.1359 33.1164V9.79712H1.41095Z" fill="#DEDDFF"/>
<path d="M5.31516 35.5804H3.87501C3.22161 35.5801 2.59509 35.3203 2.13307 34.8583C1.67105 34.3963 1.41133 33.7698 1.41095 33.1164V9.79712H2.8511V33.1164C2.85148 33.7698 3.11121 34.3963 3.57323 34.8583C4.03524 35.3203 4.66177 35.5801 5.31516 35.5804Z" fill="#C6C6F7"/>
<path d="M32.1359 7.24909V9.84834H1.41095V7.24909C1.41133 6.5957 1.67105 5.96918 2.13307 5.50716C2.59509 5.04514 3.22161 4.78541 3.87501 4.78504H29.6718C29.9955 4.78475 30.316 4.8483 30.6151 4.97203C30.9142 5.09576 31.1859 5.27725 31.4148 5.50611C31.6437 5.73498 31.8252 6.00673 31.9489 6.30581C32.0726 6.60489 32.1362 6.92543 32.1359 7.24909Z" fill="#5B5E8B"/>
<path d="M5.31516 4.78503C4.66177 4.78541 4.03524 5.04514 3.57323 5.50716C3.11121 5.96918 2.85148 6.5957 2.8511 7.24909V9.84834H1.41095V7.24909C1.41133 6.5957 1.67105 5.96918 2.13307 5.50716C2.59509 5.04514 3.22161 4.78541 3.87501 4.78503H5.31516Z" fill="#312E4B"/>
<path d="M4.87757 8.19762C5.37154 8.19762 5.77198 7.79718 5.77198 7.30322C5.77198 6.80925 5.37154 6.40881 4.87757 6.40881C4.38361 6.40881 3.98317 6.80925 3.98317 7.30322C3.98317 7.79718 4.38361 8.19762 4.87757 8.19762Z" fill="#DEDDFF"/>
<path d="M7.65185 8.19762C8.14582 8.19762 8.54625 7.79718 8.54625 7.30322C8.54625 6.80925 8.14582 6.40881 7.65185 6.40881C7.15788 6.40881 6.75745 6.80925 6.75745 7.30322C6.75745 7.79718 7.15788 8.19762 7.65185 8.19762Z" fill="#DEDDFF"/>
<path d="M10.4261 8.19762C10.9201 8.19762 11.3205 7.79718 11.3205 7.30322C11.3205 6.80925 10.9201 6.40881 10.4261 6.40881C9.93218 6.40881 9.53174 6.80925 9.53174 7.30322C9.53174 7.79718 9.93218 8.19762 10.4261 8.19762Z" fill="#DEDDFF"/>
<path d="M29.5644 7.30679C29.5633 7.46772 29.4988 7.62174 29.3849 7.73548C29.2711 7.84921 29.117 7.91351 28.956 7.91444H17.1715C17.0917 7.91453 17.0126 7.89888 16.9388 7.86839C16.865 7.83789 16.7979 7.79315 16.7414 7.73671C16.6849 7.68028 16.6401 7.61326 16.6095 7.53949C16.5789 7.46572 16.5632 7.38664 16.5632 7.30679C16.5632 6.96738 16.8321 6.69202 17.1715 6.69202H28.956C29.2883 6.69202 29.5644 6.96738 29.5644 7.30679Z" fill="#DEDDFF"/>
<path d="M26.9929 23.1279H14.5915C14.4711 23.1279 14.3556 23.0801 14.2705 22.9949C14.1854 22.9098 14.1375 22.7943 14.1375 22.6739C14.1375 22.5535 14.1854 22.4381 14.2705 22.3529C14.3556 22.2678 14.4711 22.22 14.5915 22.22H26.9929C27.1133 22.22 27.2288 22.2678 27.3139 22.3529C27.399 22.4381 27.4469 22.5535 27.4469 22.6739C27.4469 22.7943 27.399 22.9098 27.3139 22.9949C27.2288 23.0801 27.1133 23.1279 26.9929 23.1279ZM24.7686 25.7101H14.5915C14.4711 25.7101 14.3556 25.6622 14.2705 25.5771C14.1854 25.492 14.1375 25.3765 14.1375 25.2561C14.1375 25.1357 14.1854 25.0202 14.2705 24.9351C14.3556 24.85 14.4711 24.8021 14.5915 24.8021H24.7686C24.889 24.8021 25.0045 24.85 25.0896 24.9351C25.1748 25.0202 25.2226 25.1357 25.2226 25.2561C25.2226 25.3765 25.1748 25.492 25.0896 25.5771C25.0045 25.6622 24.889 25.7101 24.7686 25.7101ZM23.6565 28.2915H14.5915C14.4711 28.2915 14.3556 28.2437 14.2705 28.1586C14.1854 28.0734 14.1375 27.958 14.1375 27.8376C14.1375 27.7172 14.1854 27.6017 14.2705 27.5166C14.3556 27.4314 14.4711 27.3836 14.5915 27.3836H23.6565C23.7769 27.3836 23.8924 27.4314 23.9775 27.5166C24.0626 27.6017 24.1105 27.7172 24.1105 27.8376C24.1105 27.958 24.0626 28.0734 23.9775 28.1586C23.8924 28.2437 23.7769 28.2915 23.6565 28.2915ZM22.5451 30.8737H14.5915C14.471 30.8737 14.3554 30.8258 14.2702 30.7406C14.185 30.6554 14.1372 30.5399 14.1372 30.4194C14.1372 30.2989 14.185 30.1833 14.2702 30.0981C14.3554 30.0129 14.471 29.9651 14.5915 29.9651H22.5451C22.6656 29.9651 22.7811 30.0129 22.8663 30.0981C22.9515 30.1833 22.9994 30.2989 22.9994 30.4194C22.9994 30.5399 22.9515 30.6554 22.8663 30.7406C22.7811 30.8258 22.6656 30.8737 22.5451 30.8737ZM25.2084 33.4552H4.18951C4.06911 33.4552 3.95365 33.4073 3.86851 33.3222C3.78338 33.2371 3.73555 33.1216 3.73555 33.0012C3.73555 32.8808 3.78338 32.7653 3.86851 32.6802C3.95365 32.5951 4.06911 32.5472 4.18951 32.5472H25.2084C25.3288 32.5472 25.4442 32.5951 25.5294 32.6802C25.6145 32.7653 25.6623 32.8808 25.6623 33.0012C25.6623 33.1216 25.6145 33.2371 25.5294 33.3222C25.4442 33.4073 25.3288 33.4552 25.2084 33.4552Z" fill="#C6C6F7"/>
<path d="M3.73555 19.4194V13.0198C3.73555 12.3972 4.24074 11.8927 4.86263 11.8927H28.6842C29.3068 11.8927 29.8113 12.3979 29.8113 13.0198V19.4194C29.8113 20.042 29.3061 20.5464 28.6842 20.5464H4.86263C4.24003 20.5464 3.73555 20.0412 3.73555 19.4194Z" fill="#65B9FF"/>
<path d="M6.65712 20.5456H4.86404C4.23789 20.5456 3.7327 20.0404 3.7327 19.4214V13.0175C3.7327 12.3985 4.23789 11.8933 4.86404 11.8933H6.65712C6.03808 11.8933 5.53289 12.3985 5.53289 13.0175V19.4214C5.53289 20.0404 6.03808 20.5456 6.65712 20.5456Z" fill="#3E7FFF"/>
<path d="M25.0931 29.4726L28.8465 31.7495L34.0706 23.221L30.3172 20.9441L25.0931 29.4726Z" fill="#46CC6B"/>
<path d="M32.1942 22.0826L34.0706 23.2211L28.8465 31.7496L26.9701 30.6111L32.1942 22.0826Z" fill="#179C5F"/>
<path d="M34.0777 23.2104L30.3243 20.9313L31.0074 19.8057L34.7615 22.084L34.0777 23.2104Z" fill="#C6C6F7"/>
<path d="M31.001 19.8178L34.7536 22.0947L35.1927 21.3505C35.3454 21.104 35.4477 20.8296 35.4938 20.5433C35.5398 20.257 35.5287 19.9645 35.4611 19.6825C35.3934 19.4005 35.2706 19.1347 35.0996 18.9005C34.9286 18.6663 34.713 18.4682 34.4651 18.3178C34.2171 18.1674 33.9419 18.0677 33.6551 18.0242C33.3684 17.9808 33.076 17.9947 32.7946 18.0649C32.5133 18.1352 32.2487 18.2605 32.016 18.4336C31.7834 18.6067 31.5874 18.8242 31.4393 19.0736L31.001 19.8178Z" fill="#312E4B"/>
<path d="M25.0917 29.4705L25.0988 31.8356L25.1031 33.3839C25.1059 33.5191 25.2525 33.6088 25.3699 33.5462L26.7453 32.8346L28.8465 31.7481L25.0917 29.4705Z" fill="#FFAF93"/>
<path d="M25.0988 31.8357L25.103 33.384C25.1059 33.5192 25.2525 33.6088 25.3699 33.5462L26.7495 32.8368L25.0988 31.8357Z" fill="#312E4B"/>
<path d="M10.8652 16.0445C10.9762 15.9605 11.0751 15.8595 11.1583 15.7421C11.3056 15.5371 11.381 15.2781 11.381 14.9736C11.381 14.1909 10.8381 13.5463 9.64771 13.5463H7.97204C7.91076 13.5464 7.85011 13.5588 7.79362 13.5825C7.73712 13.6063 7.68589 13.641 7.64289 13.6846C7.59989 13.7283 7.56596 13.7801 7.54307 13.8369C7.52019 13.8938 7.50879 13.9546 7.50954 14.0159V18.3257C7.50898 18.3864 7.52059 18.4467 7.54369 18.5029C7.56679 18.5591 7.6009 18.6101 7.64402 18.653C7.68685 18.6961 7.73787 18.7309 7.79408 18.754C7.85029 18.7771 7.91056 18.7887 7.97133 18.7882H9.69041C11.1206 18.7882 11.6578 18.1264 11.6578 17.2534C11.6578 16.6863 11.3526 16.2864 10.8644 16.0438L10.8652 16.0445ZM10.7485 17.2256C10.7485 17.8027 10.2041 17.8994 9.62637 17.8994H8.44095V16.5582H9.6342C10.7485 16.5582 10.7485 17.0605 10.7485 17.2256ZM8.44095 15.6908V14.4343H9.59862C10.0348 14.4343 10.4781 14.5887 10.4781 15.0241C10.4781 15.5791 10.0355 15.6908 9.47766 15.6908H8.44095ZM15.5414 17.8568H13.3627V13.9796C13.3627 13.3655 12.4313 13.362 12.4313 13.9796V18.1983C12.4313 18.522 12.6917 18.7882 13.0218 18.7882H15.5421C15.6034 18.7891 15.6643 18.7778 15.7213 18.755C15.7782 18.7322 15.83 18.6983 15.8737 18.6552C15.9174 18.6122 15.9522 18.5609 15.9758 18.5043C15.9995 18.4477 16.0117 18.387 16.0117 18.3257C16.0117 18.0695 15.8054 17.8568 15.5421 17.8568H15.5414ZM18.8579 13.4751C17.3551 13.4751 16.2565 14.4997 16.223 16.1697C16.2558 17.7948 17.3181 18.8593 18.8579 18.8593C20.4631 18.8593 21.4642 17.7123 21.4934 16.1647C21.4635 14.605 20.446 13.4751 18.8579 13.4751ZM20.562 16.1676C20.562 17.2192 19.9145 17.9706 18.8579 17.9706C17.7806 17.9706 17.1544 17.1972 17.1544 16.1676C17.1544 15.1451 17.7721 14.3638 18.8579 14.3638C19.9024 14.3638 20.562 15.101 20.562 16.1676ZM26.1796 15.7833H24.7807C24.2129 15.7833 24.2001 16.6507 24.7807 16.6507H25.8096V17.7073C25.4695 17.8774 25.1002 17.9635 24.7096 17.9635C23.5882 17.9635 22.92 17.2121 22.92 16.174C22.92 15.0291 23.6572 14.3852 24.674 14.3852C25.1272 14.3852 25.5293 14.4869 26.0024 14.7673C26.0881 14.8117 26.1857 14.828 26.2812 14.8139C26.3767 14.7999 26.4654 14.7562 26.5347 14.689C26.7503 14.4613 26.6506 14.1077 26.4471 14.008C25.821 13.6153 25.2695 13.4751 24.6035 13.4751C23.1556 13.4751 21.9893 14.5417 21.9893 16.174C21.9893 17.765 23.0773 18.8586 24.6242 18.8586C25.1977 18.8586 25.7662 18.7198 26.3119 18.4473C26.4187 18.3958 26.5084 18.3149 26.5706 18.214C26.6327 18.1131 26.6647 17.9966 26.6627 17.8781V16.2665C26.663 16.2029 26.6507 16.1399 26.6265 16.0811C26.6022 16.0223 26.5666 15.9689 26.5216 15.924C26.4766 15.879 26.4232 15.8435 26.3643 15.8193C26.3055 15.7952 26.2432 15.783 26.1796 15.7833Z" fill="#DEDDFF"/>
<path d="M35.5826 6.77317C35.6258 7.64662 35.4628 8.51798 35.1068 9.31676C34.7508 10.1155 34.2118 10.8193 33.5333 11.3711C32.6557 12.0915 31.5802 12.5287 30.4488 12.6249C30.3659 12.6331 30.2887 12.6707 30.2311 12.7309C29.3303 13.626 28.2708 13.8082 27.7293 13.8373C27.5941 13.8437 27.5173 13.6843 27.5998 13.5783C27.9001 13.1962 28.0118 12.8483 28.0296 12.5537C28.0314 12.4794 28.0103 12.4062 27.9692 12.3443C27.9281 12.2823 27.869 12.2344 27.7998 12.2072C26.7805 11.7794 25.9104 11.0599 25.2987 10.1392C24.687 9.21849 24.361 8.13756 24.3616 7.03217C24.3616 3.88219 26.9637 1.33275 30.1429 1.42169C31.6855 1.46296 33.0986 2.16312 34.0933 3.24679C34.9643 4.19456 35.5235 5.42481 35.5826 6.77317Z" fill="#E83D62"/>
<path d="M29.1645 12.5544C29.1467 12.8483 29.035 13.1962 28.729 13.579C28.7114 13.6013 28.6992 13.6274 28.6935 13.6552C28.3163 13.779 27.9755 13.8259 27.7343 13.8373C27.5991 13.8437 27.5166 13.6843 27.6048 13.5783C27.9051 13.1962 28.0168 12.8483 28.0346 12.5537C28.0351 12.4789 28.0129 12.4056 27.9708 12.3437C27.9288 12.2818 27.8689 12.2342 27.7991 12.2072C26.7805 11.779 25.9112 11.0594 25.3005 10.1386C24.6898 9.21782 24.3649 8.13707 24.3666 7.03217C24.3666 3.88219 26.9687 1.33275 30.1422 1.42169C30.2773 1.42738 30.4189 1.43379 30.5541 1.45087C29.1691 1.58835 27.8847 2.23565 26.9502 3.26706C26.0157 4.29847 25.4978 5.64038 25.4972 7.03217C25.4954 8.13699 25.8202 9.21768 26.4308 10.1384C27.0414 11.0592 27.9106 11.7789 28.929 12.2072C29.0706 12.2655 29.1709 12.4014 29.1645 12.5544Z" fill="#CE2955"/>
<path d="M11.9019 30.8737H4.89607C4.65942 30.8737 4.43247 30.7797 4.26514 30.6124C4.09781 30.445 4.0038 30.2181 4.0038 29.9814V23.1122C4.0038 22.6199 4.40297 22.22 4.89607 22.22H11.9019C12.395 22.22 12.7949 22.6199 12.7949 23.1122V29.9814C12.7949 30.4738 12.395 30.8737 11.9019 30.8737Z" fill="#FCB73E"/>
<path d="M7.02784 30.8701H4.89322C4.40226 30.8701 4.0038 30.4716 4.0038 29.9807V23.1143C4.0038 22.6162 4.40226 22.2178 4.89322 22.2178H7.02784C6.53688 22.2178 6.13842 22.6162 6.13842 23.1143V29.9807C6.13842 30.4716 6.53688 30.8701 7.02784 30.8701Z" fill="#FD982E"/>
<path d="M34.1125 6.56247C34.1054 6.41304 33.9859 6.30845 33.8521 6.28639L33.5611 6.24156C33.5019 6.23244 33.4466 6.20654 33.4017 6.16694C33.3568 6.12734 33.3242 6.0757 33.3078 6.01814C33.2442 5.83117 33.1617 5.65117 33.0616 5.48093C33.0316 5.4285 33.0163 5.36888 33.0176 5.30846C33.0189 5.24804 33.0365 5.18911 33.0687 5.13797L33.2402 4.88466C33.2803 4.82552 33.2999 4.75484 33.2959 4.68348C33.2919 4.61212 33.2646 4.54405 33.2181 4.48976C33.1257 4.3883 33.0313 4.28866 32.9349 4.19091C32.8343 4.09747 32.7299 4.00822 32.6219 3.92337C32.5652 3.87992 32.4958 3.85637 32.4244 3.85637C32.353 3.85637 32.2836 3.87992 32.227 3.92337L31.9729 4.09414C31.9254 4.13021 31.8683 4.15158 31.8088 4.15563C31.7492 4.15967 31.6898 4.14622 31.6378 4.11691C31.4577 4.03515 31.2734 3.96295 31.0857 3.9006C31.0279 3.88659 30.9751 3.85694 30.933 3.81489C30.891 3.77284 30.8613 3.72003 30.8473 3.66224L30.7953 3.37904C30.7831 3.3113 30.7486 3.24958 30.6973 3.20368C30.646 3.15779 30.5808 3.13035 30.5122 3.12574C30.2263 3.09817 29.9381 3.10798 29.6548 3.15491C29.5203 3.16985 29.4157 3.2901 29.4014 3.43099L29.3637 3.66935C29.3547 3.72943 29.3289 3.78576 29.2894 3.83193C29.2499 3.8781 29.1983 3.91224 29.1403 3.93049C28.957 3.99078 28.7797 4.06821 28.6109 4.16174C28.5598 4.19177 28.5013 4.20701 28.442 4.20576C28.3827 4.2045 28.3249 4.1868 28.2751 4.15462L28.0744 4.01943C28.0152 3.97898 27.9443 3.95928 27.8727 3.9634C27.8012 3.96752 27.733 3.99523 27.6788 4.0422C27.574 4.13344 27.4744 4.23061 27.3807 4.33322C27.2839 4.42999 27.2021 4.53458 27.1195 4.63918C27.0733 4.69423 27.0474 4.76349 27.0461 4.83537C27.0448 4.90725 27.0682 4.9774 27.1124 5.03408L27.254 5.22762C27.2871 5.27665 27.3065 5.33357 27.3104 5.39257C27.3143 5.45156 27.3024 5.51053 27.2761 5.56347C27.1943 5.72712 27.1267 5.91354 27.0754 6.09997C27.0615 6.15973 27.0298 6.21386 26.9844 6.25516C26.9391 6.29647 26.8822 6.32299 26.8214 6.33122L26.583 6.38316C26.4414 6.40593 26.3297 6.51764 26.3219 6.65141C26.2849 6.94314 26.2998 7.23345 26.329 7.51664C26.3414 7.5826 26.3739 7.64311 26.4221 7.68987C26.4702 7.73662 26.5317 7.76733 26.598 7.77777L26.889 7.82972C27.0078 7.84395 27.1046 7.92649 27.1423 8.04602C27.2021 8.23245 27.2917 8.41104 27.3807 8.58252C27.4404 8.69424 27.4476 8.82089 27.3736 8.92549L27.2099 9.17879C27.1712 9.23983 27.1525 9.3114 27.1563 9.38357C27.1601 9.45574 27.1863 9.52493 27.2313 9.58152C27.3209 9.67829 27.4184 9.78289 27.523 9.88037C27.619 9.96931 27.7236 10.0661 27.8282 10.1479C27.8849 10.1914 27.9543 10.2149 28.0257 10.2149C28.0971 10.2149 28.1665 10.1914 28.2231 10.1479L28.4693 9.96931C28.5184 9.93371 28.5763 9.91212 28.6367 9.90685C28.6971 9.90159 28.7578 9.91285 28.8123 9.93943C28.9909 10.0362 29.1702 10.1109 29.3637 10.1557C29.4197 10.1765 29.4699 10.2103 29.5101 10.2543C29.5503 10.2984 29.5794 10.3514 29.595 10.409L29.6548 10.6922C29.6846 10.8267 29.7963 10.9313 29.9379 10.9463C30.214 10.9676 30.5122 10.9605 30.7875 10.9164C30.9298 10.8936 31.0337 10.7741 31.0565 10.6403L31.0857 10.3941C31.0936 10.3324 31.1199 10.2745 31.1611 10.228C31.2023 10.1814 31.2566 10.1483 31.3169 10.133C31.4962 10.0739 31.6677 9.99137 31.8392 9.90954C31.8902 9.87965 31.9486 9.86449 32.0077 9.86574C32.0669 9.867 32.1246 9.88462 32.1743 9.91666L32.3686 10.044C32.427 10.086 32.4982 10.1066 32.57 10.1025C32.6419 10.0984 32.7102 10.0697 32.7635 10.0213C32.8682 9.93271 32.9678 9.83815 33.0616 9.73806C33.1584 9.64129 33.248 9.5367 33.3298 9.42499C33.3743 9.36912 33.3991 9.30014 33.4004 9.22874C33.4017 9.15734 33.3794 9.08752 33.337 9.03008L33.1961 8.84366C33.1604 8.79461 33.1388 8.73676 33.1335 8.67633C33.1282 8.6159 33.1395 8.55518 33.1662 8.5007C33.2551 8.33704 33.3227 8.15774 33.3747 7.97843C33.3877 7.91815 33.4179 7.86291 33.4616 7.81936C33.5052 7.77582 33.5605 7.74581 33.6209 7.73295L33.8671 7.68812C33.9345 7.67653 33.9964 7.64334 34.0433 7.59355C34.0903 7.54376 34.1198 7.48006 34.1275 7.41204C34.1526 7.12914 34.1471 6.84437 34.1125 6.56247ZM30.2211 8.73195C29.7703 8.73195 29.3379 8.55286 29.0192 8.23407C28.7004 7.91528 28.5213 7.48291 28.5213 7.03208C28.5213 6.58125 28.7004 6.14888 29.0192 5.8301C29.3379 5.51131 29.7703 5.33222 30.2211 5.33222C31.1533 5.33222 31.9132 6.09285 31.9132 7.03208C31.9132 7.97131 31.1533 8.73195 30.2211 8.73195Z" fill="#DEDDFF"/>
</svg>
