<svg width="15" height="14" viewBox="0 0 15 14" fill="none" xmlns="http://www.w3.org/2000/svg">
<g clip-path="url(#clip0_48_668)">
<path d="M10.6647 1.16665H12.2222C12.5524 1.16082 12.8732 1.2764 13.1237 1.49146C13.3743 1.70653 13.5371 2.0061 13.5814 2.33332V6.41665C13.5371 6.74387 13.3743 7.04344 13.1237 7.25851C12.8732 7.47358 12.5524 7.58916 12.2222 7.58332H10.6647M6.5814 8.74999V11.0833C6.5814 11.5475 6.76577 11.9926 7.09396 12.3208C7.42215 12.6489 7.86727 12.8333 8.3314 12.8333L10.6647 7.58332V1.16665H4.08473C3.80337 1.16347 3.53034 1.26208 3.31595 1.44432C3.10156 1.62655 2.96025 1.88013 2.91806 2.15832L2.11306 7.40832C2.08769 7.57553 2.09896 7.74626 2.14612 7.90867C2.19327 8.07109 2.27517 8.22132 2.38615 8.34894C2.49712 8.47656 2.63452 8.57853 2.78881 8.64778C2.94311 8.71703 3.11062 8.7519 3.27973 8.74999H6.5814Z" stroke="#777777" stroke-linecap="round" stroke-linejoin="round"/>
</g>
<defs>
<clipPath id="clip0_48_668">
<rect width="14" height="14" fill="white" transform="translate(0.748047)"/>
</clipPath>
</defs>
</svg>
