<svg width="335" height="244" viewBox="0 0 335 244" fill="none" xmlns="http://www.w3.org/2000/svg">
<g clip-path="url(#clip0_3149_697)">
<path d="M0 31.8445C0 14.5729 14.547 0.868478 31.7879 1.89778L306.788 18.3157C322.634 19.2617 335 32.3882 335 48.2624V214C335 230.569 321.569 244 305 244H221.25H167H113.75H30C13.4315 244 0 230.569 0 214V31.8445Z" fill="white"/>
<mask id="mask0_3149_697" style="mask-type:alpha" maskUnits="userSpaceOnUse" x="0" y="1" width="335" height="243">
<path d="M0 31.8445C0 14.5729 14.547 0.868478 31.7879 1.89778L306.788 18.3157C322.634 19.2617 335 32.3882 335 48.2624V214C335 230.569 321.569 244 305 244H221.25H159H113.75H30C13.4315 244 0 230.569 0 214V31.8445Z" fill="white"/>
</mask>
<g mask="url(#mask0_3149_697)">
</g>
</g>
<defs>
<clipPath id="clip0_3149_697">
<rect width="335" height="244" fill="white"/>
</clipPath>
</defs>
</svg>
