<svg width="20" height="22" viewBox="0 0 20 22" fill="none" xmlns="http://www.w3.org/2000/svg">
<path d="M4.91327 9.33332C5.47876 9.39711 6.05129 9.34742 6.59733 9.18715C7.14338 9.02689 7.65195 8.75927 8.09327 8.39998C8.99327 7.67332 9.55993 6.63998 9.6866 5.48665C9.81327 4.33332 9.47993 3.20665 8.75326 2.30665C8.21446 1.63998 7.49022 1.14788 6.67197 0.892475C5.85372 0.637068 4.97814 0.629801 4.15577 0.871592C3.33339 1.11338 2.60108 1.59339 2.05128 2.25103C1.50148 2.90866 1.15884 3.71444 1.0666 4.56665C1.00296 5.13213 1.05272 5.70463 1.21298 6.25066C1.37324 6.79668 1.64077 7.30526 1.99993 7.74665C2.73327 8.64665 3.7666 9.21332 4.91327 9.33332ZM3.05993 4.77998C3.1266 4.15998 3.43327 3.60665 3.91327 3.21332C4.33327 2.87332 4.83993 2.69998 5.37327 2.69998C5.45993 2.69998 5.53993 2.70665 5.6266 2.71332C6.2466 2.77998 6.79993 3.08665 7.19327 3.57332C7.5866 4.05998 7.75993 4.66665 7.69327 5.28665C7.6266 5.90665 7.31993 6.45998 6.83993 6.85332C6.35993 7.24665 5.7466 7.41998 5.1266 7.35332C4.5066 7.28665 3.95327 6.97998 3.55993 6.49332C3.17327 6.00665 2.99327 5.39998 3.05993 4.77998ZM18.3733 14.2533C17.8345 13.5866 17.1102 13.0945 16.292 12.8391C15.4737 12.5837 14.5981 12.5765 13.7758 12.8183C12.9534 13.0601 12.2211 13.5401 11.6713 14.1977C11.1215 14.8553 10.7788 15.6611 10.6866 16.5133C10.5599 17.6667 10.8933 18.7933 11.6199 19.6933C12.3466 20.5933 13.3799 21.16 14.5333 21.2867C15.0988 21.3504 15.6713 21.3008 16.2173 21.1405C16.7634 20.9802 17.272 20.7126 17.7133 20.3533C19.5733 18.8466 19.8733 16.1133 18.3733 14.2533ZM16.4599 18.7867C15.9733 19.18 15.3666 19.3533 14.7466 19.2867C14.1266 19.22 13.5733 18.9133 13.1799 18.4267C12.7866 17.94 12.6133 17.3333 12.6799 16.7133C12.7466 16.0933 13.0533 15.54 13.5333 15.1467C13.9666 14.8 14.4799 14.6333 14.9933 14.6333C15.6733 14.6333 16.3533 14.9333 16.8133 15.5C17.6199 16.5067 17.4599 17.98 16.4599 18.7867ZM19.0666 3.41998C18.7199 2.98665 18.0933 2.91998 17.6599 3.26665L1.0466 16.6533C0.613265 17 0.546599 17.6267 0.893265 18.06C1.09327 18.3067 1.37993 18.4333 1.67327 18.4333C1.89327 18.4333 2.11327 18.36 2.29993 18.2133L18.9133 4.83332C19.3466 4.47998 19.4133 3.85332 19.0666 3.41998Z" fill="white"/>
</svg>
