<svg width="25" height="25" viewBox="0 0 25 25" fill="none" xmlns="http://www.w3.org/2000/svg">
<path d="M20.8748 7.10417L14.8748 2.90626C13.2394 1.76042 10.729 1.82292 9.15609 3.04167L3.93734 7.11459C2.89567 7.92709 2.07275 9.59376 2.07275 10.9063V18.0938C2.07275 20.75 4.229 22.9167 6.88525 22.9167H18.1144C20.7707 22.9167 22.9269 20.7604 22.9269 18.1042V11.0417C22.9269 9.63542 22.0207 7.90626 20.8748 7.10417ZM13.2811 18.75C13.2811 19.1771 12.9269 19.5313 12.4998 19.5313C12.0728 19.5313 11.7186 19.1771 11.7186 18.75V15.625C11.7186 15.1979 12.0728 14.8438 12.4998 14.8438C12.9269 14.8438 13.2811 15.1979 13.2811 15.625V18.75Z" fill="#FFC72F"/>
</svg>
