<svg width="25" height="25" viewBox="0 0 25 25" fill="none" xmlns="http://www.w3.org/2000/svg">
<path d="M20.3127 13.0209C20.3127 11.5834 21.4793 10.4167 22.9168 10.4167V9.37502C22.9168 5.20835 21.8752 4.16669 17.7085 4.16669H7.29183C3.12516 4.16669 2.0835 5.20835 2.0835 9.37502V9.89585C3.521 9.89585 4.68766 11.0625 4.68766 12.5C4.68766 13.9375 3.521 15.1042 2.0835 15.1042V15.625C2.0835 19.7917 3.12516 20.8334 7.29183 20.8334H17.7085C21.8752 20.8334 22.9168 19.7917 22.9168 15.625C21.4793 15.625 20.3127 14.4584 20.3127 13.0209Z" stroke="#8D8F8D" stroke-width="1.2" stroke-linecap="round" stroke-linejoin="round"/>
<path d="M9.375 15.3646L15.625 9.11456" stroke="#8D8F8D" stroke-width="1.2" stroke-linecap="round" stroke-linejoin="round"/>
<path d="M15.6191 15.3646H15.6285" stroke="#8D8F8D" stroke-width="2" stroke-linecap="round" stroke-linejoin="round"/>
<path d="M9.36912 9.6354H9.37847" stroke="#8D8F8D" stroke-width="2" stroke-linecap="round" stroke-linejoin="round"/>
</svg>
