<svg width="25" height="25" viewBox="0 0 25 25" fill="none" xmlns="http://www.w3.org/2000/svg">
<path d="M2.0835 2.08331H3.896C5.021 2.08331 5.90641 3.05206 5.81266 4.16665L4.94808 14.5416C4.80225 16.2396 6.14599 17.6979 7.85432 17.6979H18.9481C20.4481 17.6979 21.7606 16.4687 21.8752 14.9792L22.4377 7.16665C22.5627 5.43749 21.2502 4.03122 19.5106 4.03122H6.06267" stroke="#8D8F8D" stroke-width="1.2" stroke-miterlimit="10" stroke-linecap="round" stroke-linejoin="round"/>
<path d="M16.9271 22.9167C17.6462 22.9167 18.2292 22.3337 18.2292 21.6146C18.2292 20.8955 17.6462 20.3125 16.9271 20.3125C16.208 20.3125 15.625 20.8955 15.625 21.6146C15.625 22.3337 16.208 22.9167 16.9271 22.9167Z" stroke="#8D8F8D" stroke-width="1.2" stroke-miterlimit="10" stroke-linecap="round" stroke-linejoin="round"/>
<path d="M8.59359 22.9167C9.31271 22.9167 9.89567 22.3337 9.89567 21.6146C9.89567 20.8955 9.31271 20.3125 8.59359 20.3125C7.87447 20.3125 7.2915 20.8955 7.2915 21.6146C7.2915 22.3337 7.87447 22.9167 8.59359 22.9167Z" stroke="#8D8F8D" stroke-width="1.2" stroke-miterlimit="10" stroke-linecap="round" stroke-linejoin="round"/>
<path d="M9.375 8.33331H21.875" stroke="#8D8F8D" stroke-width="1.2" stroke-miterlimit="10" stroke-linecap="round" stroke-linejoin="round"/>
</svg>
