<svg width="25" height="25" viewBox="0 0 25 25" fill="none" xmlns="http://www.w3.org/2000/svg">
<path d="M12.6667 11.3229C12.5625 11.3125 12.4375 11.3125 12.3229 11.3229C9.84375 11.2396 7.875 9.20831 7.875 6.70831C7.875 4.15623 9.9375 2.08331 12.5 2.08331C15.0521 2.08331 17.125 4.15623 17.125 6.70831C17.1146 9.20831 15.1458 11.2396 12.6667 11.3229Z" stroke="#8D8F8D" stroke-width="1.2" stroke-linecap="round" stroke-linejoin="round"/>
<path d="M7.4585 15.1667C4.93766 16.8542 4.93766 19.6042 7.4585 21.2813C10.3231 23.1979 15.021 23.1979 17.8856 21.2813C20.4064 19.5938 20.4064 16.8438 17.8856 15.1667C15.0314 13.2604 10.3335 13.2604 7.4585 15.1667Z" stroke="#8D8F8D" stroke-width="1.2" stroke-linecap="round" stroke-linejoin="round"/>
</svg>
