<svg width="294" height="69" viewBox="0 0 294 69" fill="none" xmlns="http://www.w3.org/2000/svg">
<path d="M18.1347 0.75H278C281.792 0.75 284.561 0.751593 286.678 1.03621C288.774 1.31792 290.118 1.86448 291.127 2.87348C292.136 3.88247 292.682 5.22642 292.964 7.32176C293.248 9.43868 293.25 12.2076 293.25 16V53C293.25 56.7924 293.248 59.5613 292.964 61.6782C292.682 63.7736 292.136 65.1175 291.127 66.1265C290.118 67.1355 288.774 67.6821 286.678 67.9638C284.561 68.2484 281.792 68.25 278 68.25H18.1347C13.4684 68.25 10.0507 68.2481 7.49506 67.8798C4.95925 67.5143 3.42117 66.8066 2.39125 65.5105C1.36133 64.2144 1.01931 62.5562 1.23608 60.0034C1.45455 57.4307 2.22477 54.1009 3.27884 49.5552L5.89253 38.2837L5.91528 38.1856C6.31097 36.4795 6.53773 35.5018 6.53773 34.5C6.53773 33.4982 6.31097 32.5205 5.91527 30.8144L5.89253 30.7163L3.27884 19.4448C2.22477 14.8991 1.45455 11.5693 1.23608 8.99659C1.01931 6.44378 1.36133 4.78557 2.39125 3.4895C3.42117 2.19344 4.95925 1.48568 7.49506 1.12019C10.0507 0.751852 13.4684 0.75 18.1347 0.75Z" fill="url(#paint0_linear_81_150)" stroke="url(#paint1_linear_81_150)" stroke-width="1.5"/>
<defs>
<linearGradient id="paint0_linear_81_150" x1="-2" y1="34.5" x2="294" y2="34.5" gradientUnits="userSpaceOnUse">
<stop stop-color="#FFC72F" stop-opacity="0.06"/>
<stop offset="1" stop-color="white" stop-opacity="0"/>
</linearGradient>
<linearGradient id="paint1_linear_81_150" x1="-2" y1="34.5" x2="294" y2="34.5" gradientUnits="userSpaceOnUse">
<stop stop-color="#FFC72F"/>
<stop offset="1" stop-color="#202020" stop-opacity="0.11"/>
</linearGradient>
</defs>
</svg>
