<svg viewBox="0 0 120 95" id="open" xmlns="http://www.w3.org/2000/svg">
    <circle cx="64.0981" cy="22.9026" r="9.51224" stroke="rgba(var(--theme-color),1)" stroke-opacity="0.17"
        stroke-width="1.2683" />
    <circle cx="64.0981" cy="22.9027" r="5.07319" fill="rgba(var(--theme-color),1)" fill-opacity="0.17" />
    <rect x="5.63469" y="43.4234" width="114.147" height="34.2441" rx="4.43904"
        transform="rotate(8.25353 5.63469 43.4234)" stroke="rgba(var(--theme-color),1)" stroke-opacity="0.17"
        stroke-width="1.2683" />
    <mask id="path-4-outside-1_295_505" maskUnits="userSpaceOnUse" x="26.0237" y="52.6767" width="62.7809"
        height="32.2068" fill="black">
        <rect fill="white" x="26.0237" y="52.6767" width="62.7809" height="32.2068" />
        <path
            d="M46.0828 65.1642C45.9753 65.9203 45.7714 66.6362 45.4711 67.3119C45.1793 67.9813 44.8118 68.5983 44.3685 69.1629C43.9263 69.7202 43.4174 70.215 42.8417 70.6474C42.2659 71.0797 41.6484 71.4343 40.9889 71.7111C40.3305 71.9805 39.6355 72.1615 38.9039 72.2541C38.1713 72.3541 37.4269 72.3504 36.6709 72.2429C35.9148 72.1354 35.1989 71.9315 34.5232 71.6312C33.8538 71.3394 33.2368 70.9719 32.6722 70.5286C32.116 70.079 31.6217 69.5663 31.1893 68.9906C30.7569 68.4149 30.4023 67.7973 30.1256 67.1379C29.8572 66.4721 29.6725 65.7765 29.5715 65.0513C29.4789 64.3197 29.4863 63.5759 29.5938 62.8198C29.7013 62.0638 29.9015 61.3474 30.1943 60.6706C30.4946 59.9948 30.8658 59.3784 31.308 58.8211C31.7576 58.265 32.2703 57.7707 32.846 57.3383C33.4217 56.9059 34.0388 56.555 34.6972 56.2857C35.363 56.0173 36.058 55.8363 36.7822 55.7427C37.5148 55.6427 38.2592 55.6464 39.0152 55.7539C39.7713 55.8614 40.4872 56.0653 41.1629 56.3655C41.8397 56.6584 42.4567 57.0259 43.014 57.4681C43.5712 57.9103 44.066 58.4193 44.4984 58.995C44.9308 59.5707 45.2816 60.1878 45.551 60.8462C45.8204 61.5046 46.0014 62.1996 46.094 62.9312C46.194 63.6638 46.1903 64.4082 46.0828 65.1642ZM42.9139 64.7137C43.013 64.0169 42.9729 63.3419 42.7935 62.6888C42.6152 62.0282 42.3284 61.4391 41.9331 60.9216C41.5463 60.3978 41.0605 59.9582 40.4758 59.6028C39.8985 59.2485 39.2615 59.0218 38.5647 58.9227C37.8605 58.8226 37.1818 58.8622 36.5287 59.0416C35.8755 59.221 35.2865 59.5078 34.7615 59.902C34.2377 60.2888 33.7981 60.7746 33.4427 61.3593C33.0884 61.9366 32.8617 62.5736 32.7626 63.2704C32.6636 63.9672 32.7037 64.6421 32.8831 65.2953C33.0635 65.9411 33.3508 66.5264 33.7451 67.0513C34.1393 67.5762 34.6251 68.0158 35.2024 68.3701C35.7796 68.7245 36.4204 68.9517 37.1246 69.0518C37.8213 69.1509 38.4963 69.1107 39.1495 68.9313C39.8101 68.753 40.3991 68.4662 40.9166 68.0709C41.4415 67.6767 41.8806 67.1947 42.2339 66.6248C42.5882 66.0475 42.8149 65.4105 42.9139 64.7137ZM49.1504 78.2937L46.0928 77.8589L48.4308 61.4144L49.1647 61.5188L50.1727 63.1254C50.4838 62.905 50.8188 62.703 51.1776 62.5196C51.5364 62.3362 51.9016 62.1877 52.2732 62.0742C52.6532 61.9543 53.0391 61.873 53.4309 61.8304C53.8226 61.7878 54.2112 61.7939 54.5966 61.8487C55.4342 61.9678 56.1984 62.2314 56.889 62.6397C57.5881 63.0416 58.1729 63.5558 58.6434 64.1823C59.1214 64.8098 59.4644 65.5354 59.6724 66.3591C59.8816 67.1753 59.9192 68.0541 59.7854 68.9954C59.6463 69.9739 59.3615 70.8333 58.931 71.5737C58.5016 72.3067 57.97 72.9079 57.3361 73.3774C56.7106 73.8405 56.0067 74.1639 55.2244 74.3476C54.4494 74.5324 53.6432 74.5652 52.8056 74.4461C52.5387 74.4082 52.2761 74.3406 52.0177 74.2434C51.7667 74.1472 51.5183 74.0325 51.2725 73.8992C51.0353 73.7596 50.7996 73.6089 50.5655 73.447C50.3388 73.2862 50.12 73.1228 49.9092 72.9567L49.1504 78.2937ZM56.7389 68.5623C56.8105 68.0583 56.7933 67.5945 56.6871 67.171C56.5884 66.7486 56.4213 66.3808 56.1861 66.0676C55.9519 65.7469 55.66 65.4861 55.3104 65.2851C54.9609 65.0842 54.5786 64.9542 54.1635 64.8952C53.7484 64.8362 53.345 64.8545 52.9533 64.95C52.569 65.0466 52.2197 65.2163 51.9054 65.4589C51.5921 65.6942 51.3255 66.0004 51.1055 66.3775C50.893 66.7556 50.7509 67.1967 50.6792 67.7007C50.6107 68.1825 50.6258 68.6347 50.7246 69.0571C50.8307 69.4805 51.0009 69.8526 51.2351 70.1732C51.4693 70.4939 51.757 70.7579 52.0981 70.9652C52.4466 71.1736 52.8283 71.3072 53.2434 71.3663C53.6585 71.4253 54.0625 71.4033 54.4552 71.3003C54.848 71.1974 55.2015 71.0245 55.5158 70.7819C55.8301 70.5392 56.0936 70.2288 56.3061 69.8506C56.5261 69.4736 56.6704 69.0441 56.7389 68.5623ZM63.6492 75.727L60.6138 75.2954L62.3069 63.3873L63.0408 63.4917L63.877 64.7903C64.4295 64.4151 65.0302 64.1526 65.6791 64.0029C66.3366 63.8468 67.0025 63.8167 67.6771 63.9126C68.4035 64.0159 69.0691 64.2542 69.674 64.6276C70.2798 64.9935 70.7889 65.4554 71.2012 66.0131C71.6145 66.5634 71.9119 67.1842 72.0934 67.8755C72.2834 68.5604 72.3262 69.2698 72.2219 70.0036L71.2544 76.8083L68.219 76.3767L69.1865 69.5721C69.2307 69.2608 69.2131 68.9595 69.1335 68.6684C69.0549 68.3699 68.9266 68.1021 68.7486 67.865C68.5705 67.628 68.3528 67.4306 68.0954 67.273C67.838 67.1155 67.5537 67.0145 67.2423 66.9703C66.9236 66.9249 66.615 66.9416 66.3164 67.0201C66.0179 67.0987 65.7501 67.227 65.5131 67.405C65.276 67.583 65.0781 67.8045 64.9195 68.0693C64.7619 68.3267 64.661 68.611 64.6167 68.9223L63.6492 75.727ZM78.5733 74.8769C78.6866 74.9308 78.8015 74.9736 78.918 75.0053C79.0355 75.0296 79.1536 75.0501 79.2722 75.067C79.5687 75.1091 79.8599 75.109 80.1457 75.0664C80.4316 75.0239 80.7036 74.9453 80.9619 74.8308C81.2287 74.7099 81.47 74.5552 81.6858 74.3666C81.9102 74.1716 82.1006 73.9491 82.2572 73.6991L84.1631 76.2501C83.8246 76.6104 83.4473 76.9235 83.0314 77.1895C82.6228 77.4566 82.1878 77.6708 81.7263 77.8321C81.2721 77.9944 80.8 78.0974 80.3098 78.1411C79.8259 78.1933 79.3357 78.1841 78.8391 78.1135C78.0015 77.9944 77.2342 77.7265 76.5372 77.3098C75.8476 76.8941 75.2644 76.3688 74.7875 75.7339C74.318 75.0999 73.9782 74.3786 73.768 73.5698C73.5589 72.7536 73.5196 71.8859 73.6503 70.9667C73.7842 70.0254 74.0658 69.1882 74.4952 68.4552C74.9246 67.7222 75.4525 67.1204 76.079 66.6499C76.713 66.1804 77.4184 65.8459 78.1955 65.6463C78.9799 65.4478 79.791 65.4081 80.6286 65.5272C81.1252 65.5978 81.6023 65.7261 82.0598 65.9122C82.5173 66.0982 82.9416 66.3325 83.3324 66.6149C83.7308 66.8984 84.092 67.2296 84.4163 67.6084C84.7416 67.9799 85.0166 68.3857 85.2414 68.826L78.5733 74.8769ZM81.0199 68.8384C80.8864 68.7665 80.7503 68.7131 80.6116 68.6782C80.4803 68.6444 80.3405 68.617 80.1923 68.5959C79.7772 68.5369 79.3732 68.5589 78.9805 68.6619C78.5962 68.7585 78.2469 68.9281 77.9326 69.1708C77.6257 69.4145 77.366 69.7255 77.1534 70.1036C76.9419 70.4743 76.8008 70.908 76.7302 71.4046C76.7144 71.5158 76.7002 71.6424 76.6876 71.7843C76.6824 71.9272 76.6803 72.0744 76.6815 72.2258C76.6911 72.3708 76.705 72.5127 76.7231 72.6514C76.7412 72.7901 76.7725 72.9155 76.817 73.0277L81.0199 68.8384Z" />
    </mask>
    <path
        d="M45.4711 67.3119L44.3121 66.7969L44.3085 66.8051L45.4711 67.3119ZM44.3685 69.1629L45.362 69.9514L45.3662 69.9461L44.3685 69.1629ZM40.9889 71.7111L41.4692 72.885L41.4798 72.8806L40.9889 71.7111ZM38.9039 72.2541L38.7446 70.9958L38.7324 70.9974L38.9039 72.2541ZM34.5232 71.6312L35.0382 70.4722L35.03 70.4686L34.5232 71.6312ZM32.6722 70.5286L31.8748 71.515L31.8818 71.5207L31.889 71.5263L32.6722 70.5286ZM30.1256 67.1379L28.9492 67.612L28.9526 67.6204L28.9561 67.6287L30.1256 67.1379ZM29.5715 65.0513L28.3132 65.2106L28.3142 65.2185L28.3153 65.2264L29.5715 65.0513ZM30.1943 60.6706L29.0352 60.1555L29.0303 60.1669L30.1943 60.6706ZM31.308 58.8211L30.3217 58.0237L30.3145 58.0327L31.308 58.8211ZM34.6972 56.2857L34.2231 55.1093L34.2169 55.1118L34.6972 56.2857ZM36.7822 55.7427L36.9449 57.0005L36.9537 56.9993L36.7822 55.7427ZM41.1629 56.3655L40.6479 57.5246L40.6593 57.5295L41.1629 56.3655ZM46.094 62.9312L44.8357 63.0904L44.8373 63.1027L46.094 62.9312ZM42.7935 62.6888L41.569 63.0193L41.5705 63.0246L42.7935 62.6888ZM41.9331 60.9216L40.9128 61.675L40.9189 61.6833L40.9252 61.6915L41.9331 60.9216ZM40.4758 59.6028L39.8123 60.6837L39.8171 60.6866L40.4758 59.6028ZM34.7615 59.902L35.515 60.9223L35.5232 60.9161L34.7615 59.902ZM33.4427 61.3593L34.5236 62.0227L34.5265 62.018L33.4427 61.3593ZM32.8831 65.2953L31.6601 65.6312L31.6616 65.6366L32.8831 65.2953ZM33.7451 67.0513L32.7309 67.813L33.7451 67.0513ZM39.1495 68.9313L38.8189 67.7069L38.8136 67.7083L39.1495 68.9313ZM40.9166 68.0709L40.1549 67.0568L40.1467 67.063L40.9166 68.0709ZM42.2339 66.6248L43.3119 67.293L43.3148 67.2882L42.2339 66.6248ZM44.8271 64.9857C44.7356 65.6295 44.5632 66.2318 44.3121 66.7969L46.6302 67.8269C46.9796 67.0406 47.215 66.2111 47.3384 65.3428L44.8271 64.9857ZM44.3085 66.8051C44.059 67.3774 43.7465 67.9013 43.3709 68.3798L45.3662 69.9461C45.8771 69.2953 46.2997 68.5851 46.6338 67.8187L44.3085 66.8051ZM43.3751 68.3745C43.001 68.8459 42.5702 69.2651 42.08 69.6332L43.6033 71.6615C44.2646 71.1649 44.8517 70.5944 45.362 69.9513L43.3751 68.3745ZM42.08 69.6332C41.5873 70.0033 41.0605 70.3056 40.4981 70.5416L41.4798 72.8806C42.2362 72.5631 42.9446 72.1562 43.6033 71.6615L42.08 69.6332ZM40.5086 70.5373C39.9568 70.763 39.37 70.9167 38.7446 70.9958L39.0632 73.5123C39.901 73.4063 40.7042 73.1979 41.4692 72.885L40.5086 70.5373ZM38.7324 70.9974C38.1197 71.0811 37.4932 71.0787 36.8494 70.9872L36.4923 73.4985C37.3607 73.622 38.2229 73.6271 39.0755 73.5107L38.7324 70.9974ZM36.8494 70.9872C36.2056 70.8957 35.6033 70.7233 35.0382 70.4722L34.0082 72.7903C34.7945 73.1397 35.624 73.3751 36.4923 73.4985L36.8494 70.9872ZM35.03 70.4686C34.4577 70.2191 33.9338 69.9066 33.4553 69.531L31.889 71.5263C32.5398 72.0372 33.25 72.4598 34.0164 72.7939L35.03 70.4686ZM33.4695 69.5423C32.9951 69.1588 32.5735 68.7217 32.2034 68.229L30.1752 69.7523C30.6699 70.411 31.2368 70.9992 31.8748 71.515L33.4695 69.5423ZM32.2034 68.229C31.8334 67.7362 31.5311 67.2095 31.295 66.647L28.9561 67.6287C29.2736 68.3852 29.6805 69.0936 30.1752 69.7523L32.2034 68.229ZM31.3019 66.6638C31.0731 66.0959 30.9147 65.501 30.8276 64.8763L28.3153 65.2264C28.4304 66.0521 28.6414 66.8482 28.9492 67.612L31.3019 66.6638ZM30.8297 64.892C30.7518 64.2766 30.7573 63.6465 30.8495 62.9984L28.3381 62.6413C28.2153 63.5054 28.2059 64.3629 28.3132 65.2106L30.8297 64.892ZM30.8495 62.9984C30.9416 62.3503 31.112 61.7436 31.3583 61.1742L29.0303 60.1669C28.691 60.9511 28.461 61.7773 28.3381 62.6413L30.8495 62.9984ZM31.3533 61.1856C31.6119 60.6037 31.9283 60.0797 32.3015 59.6095L30.3145 58.0327C29.8033 58.677 29.3773 59.3859 29.0353 60.1556L31.3533 61.1856ZM32.2943 59.6185C32.6778 59.1441 33.1149 58.7225 33.6077 58.3524L32.0844 56.3242C31.4257 56.8188 30.8375 57.3858 30.3217 58.0238L32.2943 59.6185ZM33.6077 58.3524C34.0979 57.9843 34.6205 57.6874 35.1775 57.4595L34.2169 55.1118C33.4571 55.4227 32.7456 55.8275 32.0844 56.3242L33.6077 58.3524ZM35.1713 57.462C35.7355 57.2347 36.3257 57.0806 36.9449 57.0005L36.6195 54.4849C35.7904 54.5921 34.9906 54.8 34.2231 55.1093L35.1713 57.462ZM36.9537 56.9993C37.5664 56.9157 38.1929 56.918 38.8367 57.0096L39.1938 54.4982C38.3254 54.3748 37.4632 54.3696 36.6106 54.486L36.9537 56.9993ZM38.8367 57.0096C39.4805 57.1011 40.0828 57.2735 40.6479 57.5246L41.6779 55.2065C40.8916 54.8571 40.0621 54.6217 39.1938 54.4982L38.8367 57.0096ZM40.6593 57.5295C41.2378 57.7799 41.7585 58.0909 42.2255 58.4616L43.8024 56.4746C43.155 55.9609 42.4416 55.5369 41.6666 55.2015L40.6593 57.5295ZM42.2255 58.4616C42.6969 58.8357 43.1161 59.2665 43.4842 59.7567L45.5125 58.2334C45.0159 57.5721 44.4455 56.985 43.8024 56.4746L42.2255 58.4616ZM43.4842 59.7567C43.8524 60.2468 44.1493 60.7695 44.3772 61.3264L46.7249 60.3659C46.414 59.6061 46.0091 58.8946 45.5125 58.2334L43.4842 59.7567ZM44.3772 61.3264C44.6029 61.8783 44.7566 62.465 44.8357 63.0904L47.3522 62.7719C47.2462 61.9341 47.0378 61.1309 46.7249 60.3659L44.3772 61.3264ZM44.8373 63.1027C44.921 63.7154 44.9186 64.3419 44.8271 64.9857L47.3384 65.3428C47.4619 64.4744 47.467 63.6122 47.3506 62.7596L44.8373 63.1027ZM44.1696 64.8922C44.2921 64.0304 44.2437 63.18 44.0165 62.3529L41.5705 63.0246C41.7021 63.5038 41.7339 64.0034 41.6583 64.5352L44.1696 64.8922ZM44.018 62.3582C43.7989 61.5467 43.4413 60.8068 42.941 60.1518L40.9252 61.6915C41.2154 62.0715 41.4314 62.5097 41.569 63.0193L44.018 62.3582ZM42.9534 60.1683C42.4637 59.5051 41.8528 58.9555 41.1345 58.519L39.8171 60.6866C40.2682 60.9608 40.6288 61.2904 40.9128 61.675L42.9534 60.1683ZM41.1392 58.5219C40.4082 58.0732 39.605 57.7896 38.7432 57.667L38.3862 60.1784C38.9179 60.254 39.3888 60.4238 39.8124 60.6837L41.1392 58.5219ZM38.7432 57.667C37.8759 57.5437 37.0217 57.5909 36.1928 57.8186L36.8645 60.2646C37.342 60.1335 37.8451 60.1015 38.3862 60.1784L38.7432 57.667ZM36.1928 57.8186C35.3908 58.0388 34.6564 58.3948 33.9999 58.8879L35.5232 60.9161C35.9165 60.6207 36.3602 60.4031 36.8645 60.2646L36.1928 57.8186ZM34.0082 58.8817C33.345 59.3714 32.7954 59.9823 32.3589 60.7006L34.5265 62.018C34.8007 61.5669 35.1303 61.2063 35.5149 60.9223L34.0082 58.8817ZM32.3618 60.6959C31.9131 61.4269 31.6295 62.23 31.5069 63.0919L34.0183 63.4489C34.0939 62.9172 34.2637 62.4463 34.5236 62.0227L32.3618 60.6959ZM31.5069 63.0919C31.3844 63.9537 31.4329 64.804 31.6601 65.6312L34.1061 64.9594C33.9745 64.4802 33.9427 63.9806 34.0183 63.4489L31.5069 63.0919ZM31.6616 65.6366C31.8835 66.4308 32.24 67.1593 32.7309 67.813L34.7592 66.2896C34.4617 65.8935 34.2435 65.4513 34.1046 64.954L31.6616 65.6366ZM32.7309 67.813C33.224 68.4695 33.8301 69.016 34.5389 69.4511L35.8658 67.2892C35.42 67.0156 35.0546 66.683 34.7592 66.2896L32.7309 67.813ZM34.5389 69.4511C35.2715 69.9008 36.0787 70.1842 36.946 70.3075L37.3031 67.7961C36.762 67.7192 36.2877 67.5482 35.8658 67.2892L34.5389 69.4511ZM36.946 70.3075C37.8078 70.43 38.6582 70.3815 39.4853 70.1544L38.8136 67.7083C38.3344 67.8399 37.8348 67.8717 37.3031 67.7961L36.946 70.3075ZM39.48 70.1558C40.2915 69.9368 41.0314 69.5792 41.6865 69.0788L40.1467 67.063C39.7668 67.3532 39.3286 67.5693 38.8189 67.7069L39.48 70.1558ZM41.6783 69.0851C42.3319 68.5942 42.8774 67.9939 43.3118 67.293L41.1559 65.9565C40.8838 66.3954 40.5511 66.7593 40.1549 67.0568L41.6783 69.0851ZM43.3148 67.2882C43.7635 66.5572 44.0471 65.754 44.1696 64.8922L41.6583 64.5352C41.5827 65.0669 41.4129 65.5378 41.1529 65.9613L43.3148 67.2882ZM49.1504 78.2937L48.9719 79.5493L50.2276 79.7279L50.4061 78.4722L49.1504 78.2937ZM46.0928 77.8589L44.8371 77.6804L44.6586 78.9361L45.9143 79.1146L46.0928 77.8589ZM48.4308 61.4144L48.6094 60.1588L47.3537 59.9802L47.1752 61.2359L48.4308 61.4144ZM49.1647 61.5188L50.239 60.8447L49.9261 60.346L49.3432 60.2631L49.1647 61.5188ZM50.1727 63.1254L49.0983 63.7994L49.8113 64.9358L50.9059 64.1603L50.1727 63.1254ZM51.1776 62.5196L51.7549 63.6489L51.1776 62.5196ZM52.2732 62.0742L52.6439 63.2872L52.6548 63.2837L52.2732 62.0742ZM56.889 62.6397L56.2436 63.7315L56.2502 63.7354L56.2569 63.7392L56.889 62.6397ZM58.6434 64.1823L57.6293 64.944L57.6344 64.9507L58.6434 64.1823ZM59.6724 66.3591L58.4428 66.6697L58.4438 66.6739L59.6724 66.3591ZM58.931 71.5737L60.0254 72.2148L60.0275 72.2112L58.931 71.5737ZM57.3361 73.3774L58.0908 74.3967L58.0909 74.3966L57.3361 73.3774ZM55.2244 74.3476L54.9344 73.1129L54.9302 73.1139L55.2244 74.3476ZM52.0177 74.2434L51.5638 75.4277L51.571 75.4304L52.0177 74.2434ZM51.2725 73.8992L50.6294 74.9923L50.6485 75.0036L50.668 75.0141L51.2725 73.8992ZM50.5655 73.447L49.8317 74.4815L49.838 74.4859L49.8443 74.4903L50.5655 73.447ZM49.9092 72.9567L50.6941 71.9605L48.9637 70.5971L48.6536 72.7782L49.9092 72.9567ZM56.6871 67.171L55.4521 67.4598L55.4544 67.4696L55.4569 67.4795L56.6871 67.171ZM56.1861 66.0676L55.1619 66.8156L55.1669 66.8225L55.172 66.8292L56.1861 66.0676ZM52.9533 64.95L52.6527 63.7178L52.6441 63.72L52.9533 64.95ZM51.9054 65.4589L52.6671 66.4731L52.6738 66.468L52.6805 66.4628L51.9054 65.4589ZM51.1055 66.3775L50.01 65.7384L50.0049 65.7471L50 65.756L51.1055 66.3775ZM50.7246 69.0571L49.4896 69.3458L49.4919 69.3557L49.4943 69.3655L50.7246 69.0571ZM52.0981 70.9652L51.4393 72.049L51.4472 72.0538L52.0981 70.9652ZM56.3061 69.8506L55.2106 69.2115L55.2055 69.2203L55.2005 69.2291L56.3061 69.8506ZM49.329 77.038L46.2713 76.6033L45.9143 79.1146L48.9719 79.5493L49.329 77.038ZM47.3485 78.0375L49.6865 61.593L47.1752 61.2359L44.8371 77.6804L47.3485 78.0375ZM48.2523 62.6701L48.9861 62.7744L49.3432 60.2631L48.6094 60.1588L48.2523 62.6701ZM48.0903 62.1928L49.0983 63.7994L51.247 62.4513L50.239 60.8447L48.0903 62.1928ZM50.9059 64.1603C51.1647 63.9769 51.4472 63.8062 51.7549 63.6489L50.6004 61.3903C50.1904 61.5998 49.803 61.833 49.4395 62.0905L50.9059 64.1603ZM51.7549 63.6489C52.0499 63.4981 52.3461 63.3781 52.6438 63.2871L51.9026 60.8612C51.4572 60.9973 51.023 61.1743 50.6004 61.3903L51.7549 63.6489ZM52.6548 63.2837C52.9562 63.1886 53.2602 63.1248 53.568 63.0913L53.2937 60.5695C52.8181 60.6213 52.3503 60.7199 51.8916 60.8646L52.6548 63.2837ZM53.568 63.0913C53.856 63.0599 54.1385 63.0646 54.4181 63.1044L54.7752 60.593C54.2838 60.5232 53.7892 60.5156 53.2937 60.5695L53.568 63.0913ZM54.4181 63.1044C55.1 63.2013 55.704 63.4126 56.2436 63.7315L57.5344 61.5479C56.6927 61.0503 55.7685 60.7343 54.7752 60.593L54.4181 63.1044ZM56.2569 63.7392C56.8115 64.0581 57.2649 64.4588 57.6293 64.9439L59.6575 63.4206C59.0808 62.6527 58.3646 62.0251 57.5211 61.5401L56.2569 63.7392ZM57.6344 64.9507C58.0009 65.4319 58.2734 65.9991 58.4428 66.6697L60.9021 66.0484C60.6554 65.0718 60.2418 64.1878 59.6524 63.4138L57.6344 64.9507ZM58.4438 66.6739C58.6067 67.3096 58.6431 68.0191 58.5297 68.8169L61.041 69.174C61.1953 68.089 61.1564 67.041 60.901 66.0443L58.4438 66.6739ZM58.5297 68.8169C58.4101 69.6582 58.1712 70.3572 57.8346 70.9363L60.0275 72.2112C60.5517 71.3094 60.8824 70.2896 61.041 69.174L58.5297 68.8169ZM57.8367 70.9326C57.4871 71.5294 57.0673 71.9982 56.5812 72.3582L58.0909 74.3966C58.8726 73.8177 59.5162 73.084 60.0254 72.2148L57.8367 70.9326ZM56.5813 72.3581C56.0991 72.7152 55.5544 72.9673 54.9344 73.1129L55.5143 75.5824C56.459 75.3605 57.3221 74.9659 58.0908 74.3967L56.5813 72.3581ZM54.9302 73.1139C54.3195 73.2595 53.674 73.2885 52.9841 73.1905L52.627 75.7018C53.6123 75.8419 54.5794 75.8052 55.5185 75.5814L54.9302 73.1139ZM52.9841 73.1905C52.8111 73.1659 52.6383 73.1218 52.4643 73.0563L51.571 75.4304C51.9139 75.5594 52.2663 75.6505 52.627 75.7018L52.9841 73.1905ZM52.4715 73.059C52.2742 72.9834 52.0761 72.8922 51.8771 72.7843L50.668 75.0141C50.9605 75.1727 51.2591 75.3109 51.5638 75.4277L52.4715 73.059ZM51.9157 72.8061C51.706 72.6827 51.4963 72.5486 51.2867 72.4038L49.8443 74.4903C50.1029 74.6691 50.3646 74.8365 50.6294 74.9923L51.9157 72.8061ZM51.2992 72.4125C51.0893 72.2636 50.8876 72.1129 50.6941 71.9605L49.1243 73.9529C49.3524 74.1327 49.5883 74.3089 49.8317 74.4815L51.2992 72.4125ZM48.6536 72.7782L47.8948 78.1151L50.4061 78.4722L51.1649 73.1352L48.6536 72.7782ZM57.9945 68.7408C58.0855 68.101 58.0695 67.4694 57.9173 66.8626L55.4569 67.4795C55.5171 67.7196 55.5355 68.0155 55.4832 68.3838L57.9945 68.7408ZM57.9221 66.8823C57.7876 66.3071 57.5519 65.7742 57.2002 65.3059L55.172 66.8292C55.2908 66.9874 55.3891 67.1901 55.4521 67.4598L57.9221 66.8823ZM57.2103 65.3195C56.8698 64.8533 56.4435 64.4736 55.9426 64.1856L54.6783 66.3847C54.8765 66.4986 55.034 66.6405 55.1619 66.8156L57.2103 65.3195ZM55.9426 64.1856C55.4476 63.901 54.9104 63.7203 54.342 63.6395L53.985 66.1509C54.2468 66.1881 54.4743 66.2674 54.6783 66.3847L55.9426 64.1856ZM54.342 63.6395C53.7737 63.5587 53.2074 63.5825 52.6527 63.7178L53.2539 66.1822C53.4826 66.1264 53.7231 66.1136 53.985 66.1509L54.342 63.6395ZM52.6441 63.72C52.0902 63.8592 51.5824 64.106 51.1303 64.455L52.6805 66.4628C52.857 66.3265 53.0478 66.234 53.2625 66.18L52.6441 63.72ZM51.1437 64.4448C50.6807 64.7926 50.3055 65.232 50.01 65.7384L52.2011 67.0166C52.3456 66.7688 52.5036 66.5958 52.6671 66.4731L51.1437 64.4448ZM50 65.756C49.6982 66.2928 49.5135 66.889 49.4235 67.5222L51.9349 67.8793C51.9882 67.5044 52.0877 67.2185 52.2111 66.999L50 65.756ZM49.4235 67.5222C49.3356 68.1408 49.3509 68.7527 49.4896 69.3458L51.9596 68.7683C51.9007 68.5166 51.8858 68.2243 51.9349 67.8793L49.4235 67.5222ZM49.4943 69.3655C49.6363 69.9316 49.8712 70.4562 50.2109 70.9213L52.2593 69.4252C52.1306 69.249 52.0252 69.0294 51.9548 68.7486L49.4943 69.3655ZM50.2109 70.9213C50.5442 71.3776 50.9563 71.7554 51.4393 72.049L52.7568 69.8814C52.5577 69.7604 52.3945 69.6102 52.2593 69.4252L50.2109 70.9213ZM51.4472 72.0538C51.9452 72.3515 52.4884 72.54 53.0649 72.6219L53.422 70.1106C53.1683 70.0745 52.9479 69.9956 52.7489 69.8766L51.4472 72.0538ZM53.0649 72.6219C53.6414 72.7039 54.2156 72.6743 54.7769 72.5272L54.1336 70.0735C53.9093 70.1323 53.6757 70.1467 53.422 70.1106L53.0649 72.6219ZM54.7769 72.5272C55.3304 72.3821 55.8389 72.1348 56.2909 71.7858L54.7407 69.778C54.5641 69.9143 54.3656 70.0127 54.1336 70.0735L54.7769 72.5272ZM56.2909 71.7858C56.7519 71.4298 57.1235 70.9848 57.4117 70.4721L55.2005 69.2291C55.0636 69.4727 54.9083 69.6486 54.7407 69.778L56.2909 71.7858ZM57.4016 70.4897C57.7133 69.9555 57.9056 69.3664 57.9945 68.7408L55.4832 68.3838C55.4351 68.7218 55.339 68.9916 55.2106 69.2115L57.4016 70.4897ZM63.6492 75.727L63.4707 76.9826L64.7264 77.1612L64.9049 75.9055L63.6492 75.727ZM60.6138 75.2954L59.3582 75.1169L59.1796 76.3725L60.4353 76.5511L60.6138 75.2954ZM62.3069 63.3873L62.4855 62.1317L61.2298 61.9531L61.0513 63.2088L62.3069 63.3873ZM63.0408 63.4917L64.1071 62.805L63.7932 62.3176L63.2193 62.236L63.0408 63.4917ZM63.877 64.7903L62.8107 65.477L63.5144 66.5697L64.5896 65.8395L63.877 64.7903ZM65.6791 64.0029L65.9643 65.2388L65.9721 65.2369L65.6791 64.0029ZM69.674 64.6276L69.0077 65.7069L69.0182 65.7132L69.674 64.6276ZM71.2012 66.0131L70.1812 66.767L70.187 66.7748L71.2012 66.0131ZM72.0934 67.8755L70.8667 68.1976L70.8689 68.2061L70.8712 68.2145L72.0934 67.8755ZM71.2544 76.8083L71.0759 78.0639L72.3315 78.2425L72.5101 76.9868L71.2544 76.8083ZM68.219 76.3767L66.9633 76.1982L66.7848 77.4538L68.0405 77.6324L68.219 76.3767ZM69.1335 68.6684L67.9069 68.9912L67.9101 69.0029L69.1335 68.6684ZM66.3164 67.0201L65.9937 65.7936L66.3164 67.0201ZM64.9195 68.0693L66.0012 68.7316L66.0075 68.7211L64.9195 68.0693ZM63.8278 74.4713L60.7924 74.0397L60.4353 76.5511L63.4707 76.9826L63.8278 74.4713ZM61.8695 75.4739L63.5626 63.5659L61.0513 63.2088L59.3582 75.1169L61.8695 75.4739ZM62.1284 64.643L62.8622 64.7473L63.2193 62.236L62.4855 62.1317L62.1284 64.643ZM61.9744 64.1783L62.8107 65.477L64.9434 64.1036L64.1071 62.805L61.9744 64.1783ZM64.5896 65.8395C65.0127 65.5521 65.4685 65.3531 65.9643 65.2387L65.394 62.7671C64.5918 62.9521 63.8463 63.278 63.1645 63.7411L64.5896 65.8395ZM65.9721 65.2369C66.4738 65.1178 66.9798 65.0945 67.4985 65.1683L67.8556 62.657C67.0253 62.5389 66.1993 62.5758 65.3862 62.7689L65.9721 65.2369ZM67.4985 65.1683C68.0577 65.2478 68.5564 65.4282 69.0077 65.7068L70.3402 63.5484C69.5818 63.0802 68.7493 62.784 67.8556 62.657L67.4985 65.1683ZM69.0182 65.7132C69.4852 65.9953 69.8696 66.3454 70.1812 66.767L72.2211 65.2592C71.7082 64.5654 71.0745 63.9918 70.3297 63.542L69.0182 65.7132ZM70.187 66.7748C70.4979 67.1886 70.7253 67.659 70.8667 68.1976L73.3201 67.5534C73.0985 66.7094 72.7311 65.9382 72.2153 65.2514L70.187 66.7748ZM70.8712 68.2145C71.0125 68.7239 71.047 69.2567 70.9662 69.8251L73.4775 70.1822C73.6054 69.2829 73.5542 68.397 73.3155 67.5365L70.8712 68.2145ZM70.9662 69.8251L69.9987 76.6297L72.5101 76.9868L73.4775 70.1822L70.9662 69.8251ZM71.4329 75.5526L68.3975 75.121L68.0405 77.6324L71.0759 78.0639L71.4329 75.5526ZM69.4747 76.5552L70.4421 69.7506L67.9308 69.3935L66.9633 76.1982L69.4747 76.5552ZM70.4421 69.7506C70.5097 69.2752 70.484 68.799 70.3568 68.3339L67.9101 69.0029C67.9421 69.12 67.9517 69.2463 67.9308 69.3935L70.4421 69.7506ZM70.36 68.3457C70.2415 67.8951 70.0433 67.477 69.7627 67.1034L67.7344 68.6267C67.8099 68.7271 67.8684 68.8446 67.9069 68.9911L70.36 68.3457ZM69.7627 67.1034C69.4869 66.7361 69.149 66.431 68.7577 66.1914L67.4332 68.3547C67.5567 68.4303 67.6542 68.5199 67.7344 68.6267L69.7627 67.1034ZM68.7577 66.1914C68.3464 65.9396 67.8963 65.7822 67.4209 65.7146L67.0638 68.2259C67.211 68.2469 67.3296 68.2913 67.4332 68.3547L68.7577 66.1914ZM67.4209 65.7146C66.9421 65.6465 66.4627 65.6702 65.9937 65.7936L66.6392 68.2467C66.7672 68.213 66.9051 68.2034 67.0638 68.2259L67.4209 65.7146ZM65.9937 65.7936C65.5432 65.9121 65.125 66.1102 64.7514 66.3909L66.2747 68.4191C66.3752 68.3437 66.4926 68.2852 66.6392 68.2467L65.9937 65.7936ZM64.7514 66.3909C64.3778 66.6715 64.0709 67.0178 63.8315 67.4175L66.0075 68.7211C66.0854 68.5911 66.1742 68.4946 66.2747 68.4191L64.7514 66.3909ZM63.8378 67.407C63.586 67.8183 63.4286 68.2684 63.361 68.7438L65.8724 69.1009C65.8933 68.9537 65.9378 68.8351 66.0012 68.7315L63.8378 67.407ZM63.361 68.7438L62.3936 75.5484L64.9049 75.9055L65.8724 69.1009L63.361 68.7438ZM78.5733 74.8769L77.721 73.9376L76.3197 75.2091L78.0283 76.0221L78.5733 74.8769ZM78.918 75.0053L78.5851 76.2291L78.623 76.2394L78.6615 76.2474L78.918 75.0053ZM80.9619 74.8308L81.4761 75.9903L81.4854 75.986L80.9619 74.8308ZM81.6858 74.3666L80.8539 73.4093L80.8514 73.4115L81.6858 74.3666ZM82.2572 73.6991L83.2732 72.94L82.1649 71.4567L81.1822 73.026L82.2572 73.6991ZM84.1631 76.2501L85.0873 77.1188L85.8161 76.3434L85.1792 75.491L84.1631 76.2501ZM83.0314 77.1895L82.3479 76.121L82.3373 76.128L83.0314 77.1895ZM81.7263 77.8321L81.3079 76.6347L81.2994 76.6377L81.7263 77.8321ZM80.3098 78.1411L80.1971 76.8778L80.1854 76.8789L80.1737 76.8801L80.3098 78.1411ZM76.5372 77.3098L75.8824 78.396L75.8863 78.3984L76.5372 77.3098ZM74.7875 75.7339L73.7682 76.4887L73.7734 76.4955L74.7875 75.7339ZM73.768 73.5698L72.5394 73.8846L72.5405 73.8888L73.768 73.5698ZM74.4952 68.4552L73.4008 67.8141L74.4952 68.4552ZM76.079 66.6499L75.3242 65.6307L75.3174 65.6358L76.079 66.6499ZM78.1955 65.6463L77.8843 64.4168L77.88 64.4179L78.1955 65.6463ZM83.3324 66.6149L82.5896 67.643L82.597 67.6482L83.3324 66.6149ZM84.4163 67.6084L83.4527 68.4331L83.4574 68.4386L83.4622 68.444L84.4163 67.6084ZM85.2414 68.826L86.0937 69.7653L86.8121 69.1134L86.371 68.2494L85.2414 68.826ZM81.0199 68.8384L81.9153 69.7366L83.1242 68.5316L81.6215 67.7219L81.0199 68.8384ZM80.6116 68.6782L80.2955 69.9065L80.3026 69.9083L80.6116 68.6782ZM78.9805 68.6619L79.2897 69.8919L79.3021 69.8887L78.9805 68.6619ZM77.9326 69.1708L77.1575 68.1669L77.1506 68.1722L77.1438 68.1776L77.9326 69.1708ZM77.1534 70.1036L78.255 70.7321L78.259 70.7251L77.1534 70.1036ZM76.6876 71.7843L75.4242 71.672L75.4213 71.705L75.4201 71.7382L76.6876 71.7843ZM76.6815 72.2258L75.4132 72.2355L75.4135 72.2727L75.416 72.3098L76.6815 72.2258ZM76.817 73.0277L75.6382 73.4957L76.3487 75.2853L77.7124 73.926L76.817 73.0277ZM78.0283 76.0221C78.2072 76.1072 78.3929 76.1768 78.5851 76.2291L79.2509 73.7815C79.2101 73.7704 79.166 73.7544 79.1182 73.7316L78.0283 76.0221ZM78.6615 76.2474C78.8048 76.277 78.9489 76.3021 79.0937 76.3227L79.4507 73.8113C79.3583 73.7982 79.2662 73.7821 79.1745 73.7632L78.6615 76.2474ZM79.0937 76.3227C79.5069 76.3814 79.9212 76.3821 80.3324 76.3209L79.959 73.8119C79.7986 73.8358 79.6305 73.8369 79.4507 73.8113L79.0937 76.3227ZM80.3324 76.3209C80.7286 76.2619 81.111 76.1521 81.476 75.9902L80.4478 73.6714C80.2963 73.7386 80.1346 73.7858 79.959 73.8119L80.3324 76.3209ZM81.4854 75.986C81.8626 75.8151 82.2091 75.5936 82.5203 75.3217L80.8514 73.4115C80.7308 73.5168 80.5947 73.6048 80.4384 73.6756L81.4854 75.986ZM82.5178 75.3239C82.836 75.0473 83.1085 74.7293 83.3321 74.3722L81.1822 73.026C81.0927 73.169 80.9844 73.2959 80.8539 73.4093L82.5178 75.3239ZM81.2411 74.4582L83.1471 77.0093L85.1792 75.491L83.2732 72.94L81.2411 74.4582ZM83.239 75.3815C82.972 75.6655 82.6756 75.9115 82.348 76.1211L83.7148 78.258C84.219 77.9355 84.6771 77.5552 85.0873 77.1188L83.239 75.3815ZM82.3373 76.128C82.015 76.3387 81.6726 76.5073 81.308 76.6347L82.1446 79.0294C82.703 78.8343 83.2307 78.5745 83.7254 78.2511L82.3373 76.128ZM81.2994 76.6377C80.9487 76.7631 80.5823 76.8435 80.1971 76.8778L80.4225 79.4044C81.0177 79.3513 81.5956 79.2256 82.1531 79.0264L81.2994 76.6377ZM80.1737 76.8801C79.7977 76.9207 79.4132 76.9141 79.0176 76.8578L78.6605 79.3692C79.2582 79.4541 79.8541 79.4659 80.4458 79.4021L80.1737 76.8801ZM79.0176 76.8578C78.3398 76.7615 77.7342 76.5478 77.188 76.2212L75.8863 78.3984C76.7341 78.9052 77.6631 79.2274 78.6605 79.3692L79.0176 76.8578ZM77.1919 76.2236C76.6399 75.8908 76.1793 75.4751 75.8016 74.9722L73.7734 76.4955C74.3495 77.2626 75.0553 77.8975 75.8824 78.396L77.1919 76.2236ZM75.8067 74.979C75.4396 74.4833 75.1673 73.9117 74.9955 73.2508L72.5405 73.8888C72.7891 74.8454 73.1964 75.7165 73.7683 76.4887L75.8067 74.979ZM74.9966 73.255C74.8328 72.6155 74.7963 71.9166 74.906 71.1453L72.3947 70.7882C72.243 71.8552 72.285 72.8916 72.5394 73.8846L74.9966 73.255ZM74.906 71.1453C75.0194 70.3477 75.2528 69.671 75.5895 69.0963L73.4008 67.8141C72.8787 68.7053 72.5489 69.7031 72.3947 70.7882L74.906 71.1453ZM75.5895 69.0963C75.9411 68.4961 76.3597 68.0253 76.8407 67.664L75.3174 65.6358C74.5454 66.2156 73.9081 66.9483 73.4008 67.8141L75.5895 69.0963ZM76.8339 67.6691C77.3339 67.2988 77.8897 67.0343 78.511 66.8748L77.88 64.4179C76.9471 64.6575 76.092 65.0621 75.3242 65.6307L76.8339 67.6691ZM78.5066 66.8759C79.1239 66.7197 79.7682 66.6859 80.45 66.7829L80.8071 64.2715C79.8137 64.1303 78.836 64.176 77.8843 64.4168L78.5066 66.8759ZM80.45 66.7829C80.8456 66.8391 81.2221 66.9407 81.5821 67.0871L82.5376 64.7373C81.9825 64.5116 81.4048 64.3565 80.8071 64.2715L80.45 66.7829ZM81.5821 67.0871C81.948 67.2358 82.2829 67.4213 82.5896 67.6429L84.0753 65.5869C83.6002 65.2437 83.0867 64.9606 82.5376 64.7373L81.5821 67.0871ZM82.597 67.6482C82.9094 67.8705 83.1944 68.1313 83.4527 68.4331L85.3798 66.7837C84.9897 66.3279 84.5521 65.9263 84.0679 65.5816L82.597 67.6482ZM83.4622 68.444C83.7184 68.7366 83.9345 69.0555 84.1117 69.4027L86.371 68.2494C86.0987 67.716 85.7648 67.2231 85.3704 66.7728L83.4622 68.444ZM84.3891 67.8868L77.721 73.9376L79.4256 75.8161L86.0937 69.7653L84.3891 67.8868ZM81.6215 67.7219C81.4011 67.6031 81.1671 67.5101 80.9206 67.4482L80.3026 69.9083C80.3336 69.9161 80.3718 69.9299 80.4183 69.9549L81.6215 67.7219ZM80.9277 67.45C80.7467 67.4034 80.5606 67.3673 80.3708 67.3403L80.0137 69.8516C80.1204 69.8668 80.2139 69.8855 80.2955 69.9065L80.9277 67.45ZM80.3708 67.3403C79.7943 67.2583 79.2201 67.2879 78.6588 67.435L79.3021 69.8887C79.5264 69.8299 79.76 69.8155 80.0137 69.8516L80.3708 67.3403ZM78.6713 67.4318C78.1174 67.5711 77.6096 67.8178 77.1575 68.1669L78.7077 70.1747C78.8842 70.0384 79.075 69.9459 79.2897 69.8919L78.6713 67.4318ZM77.1438 68.1776C76.6951 68.5339 76.3323 68.976 76.0478 69.4821L78.259 70.7251C78.3996 70.4749 78.5562 70.2951 78.7214 70.164L77.1438 68.1776ZM76.0518 69.4751C75.7484 70.0068 75.5638 70.5984 75.4745 71.2261L77.9859 71.5832C78.0378 71.2176 78.1353 70.9418 78.255 70.7321L76.0518 69.4751ZM75.4745 71.2261C75.4549 71.3642 75.4383 71.5135 75.4242 71.672L77.9509 71.8965C77.962 71.7712 77.9739 71.6674 77.9859 71.5832L75.4745 71.2261ZM75.4201 71.7382C75.4142 71.9007 75.4119 72.0666 75.4132 72.2355L77.9498 72.2161C77.9487 72.0822 77.9505 71.9537 77.955 71.8303L75.4201 71.7382ZM75.416 72.3098C75.4273 72.4805 75.4437 72.6491 75.4654 72.8155L77.9807 72.4873C77.9662 72.3763 77.9549 72.2611 77.947 72.1418L75.416 72.3098ZM75.4654 72.8155C75.495 73.0423 75.5494 73.2719 75.6382 73.4957L77.9958 72.5598C77.9956 72.5592 77.9873 72.5379 77.9807 72.4873L75.4654 72.8155ZM77.7124 73.926L81.9153 69.7366L80.1245 67.9401L75.9217 72.1295L77.7124 73.926Z"
        fill="rgba(var(--theme-color),1)" fill-opacity="0.5" mask="url(#path-4-outside-1_295_505)" />
    <path opacity="0.17" d="M62.1953 32.4148L23.5122 45.7319" stroke="rgba(var(--theme-color),1)"
        stroke-width="1.2683" />
    <path opacity="0.17" d="M61.0658 31.7806L92.0006 55.8783" stroke="rgba(var(--theme-color),1)"
        stroke-width="1.2683" />
    <path d="M63.4637 12.7562L68.4064 -0.560909H58.521L63.4637 12.7562Z" fill="rgba(var(--theme-color),1)"
        fill-opacity="0.17" />
</svg>