<svg width="50" height="50" viewBox="0 0 50 50" fill="none" xmlns="http://www.w3.org/2000/svg">
<g clip-path="url(#clip0_1_30)">
<path d="M41.0568 49.1477C30.3863 50.2861 19.625 50.2861 8.95455 49.1477C6.88244 48.9289 4.94794 48.0064 3.47356 46.5341C1.99918 45.0618 1.074 43.1286 0.852278 41.0568C-0.286127 30.3863 -0.286127 19.625 0.852278 8.95454C1.0711 6.88244 1.99356 4.94794 3.46587 3.47355C4.93818 1.99917 6.87139 1.074 8.94319 0.852272C19.6137 -0.286134 30.375 -0.286134 41.0455 0.852272C43.1176 1.07109 45.0521 1.99355 46.5264 3.46586C48.0008 4.93818 48.926 6.87138 49.1477 8.94318C50.2861 19.6137 50.2861 30.375 49.1477 41.0455C48.9289 43.1176 48.0065 45.0521 46.5341 46.5264C45.0618 48.0008 43.1286 48.926 41.0568 49.1477Z" fill="#E60000"/>
<path d="M39.8949 17.483C39.2699 15.5597 37.2017 14.3949 35.2983 14.1278C28.4521 13.4006 21.548 13.4006 14.7017 14.1278C12.7983 14.3949 10.7245 15.5483 10.1051 17.483C9.13072 22.4479 9.13072 27.5549 10.1051 32.5199C10.7301 34.4403 12.7983 35.608 14.7017 35.875C21.548 36.6023 28.4521 36.6023 35.2983 35.875C37.2017 35.608 39.2756 34.4545 39.8949 32.5199C40.8693 27.5549 40.8693 22.4479 39.8949 17.483ZM21.2614 30.9886V19.0114L31.0114 25C27.7245 27.0199 24.5341 28.9773 21.2614 30.9886Z" fill="white"/>
</g>
<defs>
<clipPath id="clip0_1_30">
<rect width="50" height="50" fill="white"/>
</clipPath>
</defs>
</svg>
