<svg width="50" height="50" viewBox="0 0 50 50" fill="none" xmlns="http://www.w3.org/2000/svg">
<g clip-path="url(#clip0_27_131)">
<path d="M43.1818 0H6.81818C3.0526 0 0 3.0526 0 6.81818V43.1818C0 46.9474 3.0526 50 6.81818 50H43.1818C46.9474 50 50 46.9474 50 43.1818V6.81818C50 3.0526 46.9474 0 43.1818 0Z" fill="#1C8ADB"/>
<path d="M38.6193 12.9261L38.1023 13.1136L10.0398 23.2244C9.84093 23.2859 9.66809 23.4117 9.54837 23.5819C9.42864 23.7522 9.3688 23.9574 9.37822 24.1654C9.38765 24.3733 9.4658 24.5722 9.60043 24.731C9.73507 24.8898 9.91857 24.9994 10.1222 25.0426L17.3864 27.0312L18.7415 31.0085L20.0966 34.9858C20.1745 35.1808 20.2987 35.3538 20.4586 35.4898C20.6185 35.6259 20.8092 35.7208 21.0141 35.7665C21.219 35.8121 21.432 35.807 21.6345 35.7517C21.837 35.6963 22.0229 35.5924 22.1762 35.4489L25.929 31.9034L33.2983 36.9006C34.1989 37.5142 35.483 37.0597 35.7131 36.0483L40.5938 14.4829C40.8324 13.4148 39.7074 12.5369 38.6193 12.9261ZM35.037 17.7131L22.358 28.0767L21.7614 28.5653C21.6303 28.6692 21.5448 28.82 21.5228 28.9858L21.3892 30.0881L21.0228 33.1847C21.0258 33.2223 21.0137 33.2597 20.9892 33.2884C20.9647 33.3172 20.9297 33.335 20.8921 33.3381C20.8544 33.3411 20.8171 33.329 20.7883 33.3045C20.7595 33.28 20.7417 33.2451 20.7387 33.2074L19.7074 30.1136L18.6421 26.946C18.597 26.8036 18.603 26.65 18.659 26.5116C18.715 26.3731 18.8175 26.2585 18.9489 26.1875L32.1421 18.625L34.625 17.2045C34.9858 16.9943 35.3551 17.4517 35.037 17.7131Z" fill="white"/>
</g>
<defs>
<clipPath id="clip0_27_131">
<rect width="50" height="50" fill="white"/>
</clipPath>
</defs>
</svg>
