<svg width="20" height="20" viewBox="0 0 20 20" fill="none" xmlns="http://www.w3.org/2000/svg">
<path d="M16.6999 5.68336L11.8999 2.32503C10.5915 1.40836 8.5832 1.45836 7.32487 2.43336L3.14987 5.6917C2.31654 6.3417 1.6582 7.67503 1.6582 8.72503V14.475C1.6582 16.6 3.3832 18.3334 5.5082 18.3334H14.4915C16.6165 18.3334 18.3415 16.6084 18.3415 14.4834V8.83336C18.3415 7.70836 17.6165 6.32503 16.6999 5.68336ZM10.6249 15C10.6249 15.3417 10.3415 15.625 9.99987 15.625C9.6582 15.625 9.37487 15.3417 9.37487 15V12.5C9.37487 12.1584 9.6582 11.875 9.99987 11.875C10.3415 11.875 10.6249 12.1584 10.6249 12.5V15Z" fill="white"/>
</svg>
