<svg width="20" height="20" viewBox="0 0 20 20" fill="none" xmlns="http://www.w3.org/2000/svg">
<path fill-rule="evenodd" clip-rule="evenodd" d="M9.63375 9.63374C9.14541 10.1221 8.35458 10.1221 7.86625 9.63374C7.37791 9.14541 7.37791 8.35374 7.86625 7.86624C8.35458 7.37791 9.14541 7.37791 9.63375 7.86624C10.1221 8.35374 10.1221 9.14541 9.63375 9.63374ZM17.8896 9.65126L12.5421 4.30376C12.4046 4.16626 12.2237 4.08126 12.0304 4.06376L4.24374 3.33709C3.99624 3.31209 3.75291 3.40126 3.57707 3.57709C3.40124 3.75292 3.31374 3.99709 3.33624 4.24376L4.06291 12.0304C4.08207 12.2238 4.16624 12.4054 4.30374 12.5421L9.65124 17.8904C9.94707 18.1846 10.3346 18.3321 10.7221 18.3321C11.1096 18.3321 11.4971 18.1846 11.7929 17.8896L17.8896 11.7929C18.1754 11.5079 18.3329 11.1271 18.3329 10.7221C18.3329 10.3171 18.1754 9.93709 17.8896 9.65126Z" fill="#8D8F8D"/>
<mask id="mask0_958_5370" style="mask-type:luminance" maskUnits="userSpaceOnUse" x="3" y="3" width="16" height="16">
<path fill-rule="evenodd" clip-rule="evenodd" d="M9.63375 9.63374C9.14541 10.1221 8.35458 10.1221 7.86625 9.63374C7.37791 9.14541 7.37791 8.35374 7.86625 7.86624C8.35458 7.37791 9.14541 7.37791 9.63375 7.86624C10.1221 8.35374 10.1221 9.14541 9.63375 9.63374ZM17.8896 9.65126L12.5421 4.30376C12.4046 4.16626 12.2237 4.08126 12.0304 4.06376L4.24374 3.33709C3.99624 3.31209 3.75291 3.40126 3.57707 3.57709C3.40124 3.75292 3.31374 3.99709 3.33624 4.24376L4.06291 12.0304C4.08207 12.2238 4.16624 12.4054 4.30374 12.5421L9.65124 17.8904C9.94707 18.1846 10.3346 18.3321 10.7221 18.3321C11.1096 18.3321 11.4971 18.1846 11.7929 17.8896L17.8896 11.7929C18.1754 11.5079 18.3329 11.1271 18.3329 10.7221C18.3329 10.3171 18.1754 9.93709 17.8896 9.65126Z" fill="white"/>
</mask>
<g mask="url(#mask0_958_5370)">
<rect width="20" height="20" fill="#8D8F8D"/>
</g>
</svg>
