<svg width="18" height="19" viewBox="0 0 18 19" fill="none" xmlns="http://www.w3.org/2000/svg">
<path d="M9.75 11.0833H8.25C7.0197 11.0828 5.81267 11.4373 4.75941 12.1085C3.70614 12.7796 2.8467 13.7419 2.274 14.8912C2.2579 14.6779 2.2499 14.464 2.25 14.25C2.25 9.87761 5.60775 6.33332 9.75 6.33332V1.97916L17.625 8.70832L9.75 15.4375V11.0833ZM8.25 9.49999H11.25V12.1188L15.2408 8.70832L11.25 5.29782V7.91666H9.75C8.88769 7.91563 8.03534 8.11126 7.25129 8.49016C6.46724 8.86905 5.76999 9.42227 5.20725 10.1119C6.17574 9.70679 7.20822 9.49913 8.25 9.49999Z" fill="#313131"/>
</svg>
