<svg width="13" height="16" viewBox="0 0 13 16" fill="none" xmlns="http://www.w3.org/2000/svg">
<path d="M11.4584 0.416656H1.54169C1.35383 0.416656 1.17366 0.491284 1.04082 0.624123C0.907981 0.756961 0.833354 0.937128 0.833354 1.12499V14.6846C0.833275 14.7479 0.850177 14.8101 0.8823 14.8647C0.914425 14.9193 0.960595 14.9643 1.016 14.9949C1.07141 15.0256 1.13403 15.0408 1.19733 15.0391C1.26064 15.0373 1.32231 15.0186 1.37594 14.9849L6.50002 11.7712L11.6241 14.9842C11.6777 15.0179 11.7393 15.0366 11.8025 15.0384C11.8658 15.0402 11.9283 15.025 11.9837 14.9944C12.0391 14.9638 12.0853 14.9189 12.1175 14.8645C12.1496 14.81 12.1666 14.7479 12.1667 14.6846V1.12499C12.1667 0.937128 12.0921 0.756961 11.9592 0.624123C11.8264 0.491284 11.6462 0.416656 11.4584 0.416656ZM2.25002 1.83332H10.75V12.7643L6.50002 10.1003L2.25002 12.7643V1.83332Z" fill="#313131"/>
</svg>
