<svg width="226" height="202" viewBox="0 0 226 202" fill="none" xmlns="http://www.w3.org/2000/svg">
<g clip-path="url(#clip0_371_12422)">
<path d="M115.266 0.440437L107.943 2.329L17.717 25.5965L10.3936 27.485C6.83891 28.406 3.79467 30.6994 1.92878 33.8621C0.0628858 37.0247 -0.472287 40.7984 0.440673 44.3552L32.1966 167.498C33.1176 171.052 35.411 174.097 38.5736 175.962C41.7363 177.828 45.51 178.364 49.0667 177.451L49.0857 177.446L153.921 150.411L153.94 150.406C157.494 149.485 160.539 147.192 162.404 144.029C164.27 140.866 164.805 137.093 163.893 133.536L132.137 10.3934C131.216 6.83873 128.922 3.79448 125.76 1.92857C122.597 0.0626675 118.823 -0.472517 115.266 0.440437Z" fill="#F2F2F2"/>
<path d="M116.262 4.30126L107.588 6.53813L20.0629 29.1091L11.3889 31.3459C8.85753 32.0017 6.68965 33.6349 5.36089 35.8871C4.03214 38.1393 3.65102 40.8266 4.30116 43.3595L36.0571 166.502C36.713 169.033 38.3461 171.201 40.5984 172.53C42.8506 173.859 45.5379 174.24 48.0707 173.59L48.0897 173.585L152.925 146.55L152.944 146.545C155.475 145.889 157.643 144.256 158.972 142.004C160.3 139.752 160.681 137.064 160.031 134.531L128.275 11.389C127.62 8.85766 125.986 6.6898 123.734 5.36104C121.482 4.03228 118.795 3.65115 116.262 4.30126Z" fill="white"/>
<path d="M109.712 44.178L56.6787 57.8543C56.0863 58.007 55.4576 57.9182 54.9307 57.6074C54.4039 57.2966 54.0221 56.7892 53.8693 56.1968C53.7166 55.6045 53.8054 54.9758 54.1162 54.4489C54.4271 53.9221 54.9344 53.5403 55.5268 53.3875L108.56 39.7112C109.152 39.5591 109.781 39.6483 110.307 39.9592C110.833 40.27 111.215 40.7772 111.368 41.3692C111.52 41.9612 111.432 42.5896 111.121 43.1162C110.811 43.6429 110.304 44.0248 109.712 44.178Z" fill="#F2F2F2"/>
<path d="M120.869 49.3399L58.6226 65.392C58.0303 65.5447 57.4015 65.4559 56.8747 65.1451C56.3478 64.8342 55.9661 64.3268 55.8133 63.7345C55.6606 63.1422 55.7494 62.5134 56.0602 61.9866C56.371 61.4597 56.8784 61.0779 57.4707 60.9252L119.717 44.8731C120.309 44.7204 120.938 44.8092 121.465 45.12C121.992 45.4309 122.374 45.9382 122.526 46.5306C122.679 47.1229 122.59 47.7517 122.279 48.2785C121.969 48.8054 121.461 49.1871 120.869 49.3399Z" fill="#F2F2F2"/>
<path d="M118.423 77.9579L65.3898 91.6342C65.0965 91.7098 64.7912 91.727 64.4913 91.6846C64.1914 91.6422 63.9028 91.5412 63.6419 91.3873C63.381 91.2334 63.153 91.0296 62.9709 90.7876C62.7888 90.5456 62.6561 90.2701 62.5805 89.9768C62.5049 89.6835 62.4878 89.3782 62.5301 89.0782C62.5725 88.7783 62.6735 88.4897 62.8274 88.2288C62.9813 87.968 63.1851 87.74 63.4271 87.5578C63.6691 87.3757 63.9447 87.2431 64.238 87.1674L117.271 73.4912C117.565 73.4155 117.87 73.3984 118.17 73.4408C118.47 73.4831 118.759 73.5841 119.019 73.738C119.28 73.892 119.508 74.0957 119.69 74.3378C119.872 74.5798 120.005 74.8553 120.081 75.1486C120.156 75.4419 120.174 75.7472 120.131 76.0471C120.089 76.347 119.988 76.6357 119.834 76.8965C119.68 77.1574 119.476 77.3854 119.234 77.5675C118.992 77.7496 118.717 77.8823 118.423 77.9579Z" fill="#F2F2F2"/>
<path d="M129.58 83.1198L67.3338 99.1719C67.0405 99.2475 66.7352 99.2646 66.4353 99.2223C66.1354 99.1799 65.8467 99.0789 65.5859 98.925C65.325 98.7711 65.097 98.5673 64.9149 98.3253C64.7328 98.0832 64.6001 97.8077 64.5245 97.5144C64.4488 97.2211 64.4317 96.9158 64.4741 96.6159C64.5164 96.316 64.6175 96.0274 64.7714 95.7665C64.9253 95.5056 65.1291 95.2776 65.3711 95.0955C65.6131 94.9134 65.8886 94.7807 66.1819 94.7051L128.428 78.6531C129.02 78.5003 129.649 78.5891 130.176 78.8999C130.703 79.2108 131.085 79.7182 131.237 80.3105C131.39 80.9028 131.301 81.5316 130.991 82.0584C130.68 82.5853 130.172 82.9671 129.58 83.1198Z" fill="#F2F2F2"/>
<path d="M127.135 111.738L74.1011 125.414C73.5089 125.566 72.8805 125.477 72.354 125.166C71.8275 124.856 71.446 124.348 71.2933 123.756C71.1406 123.164 71.2293 122.536 71.5398 122.009C71.8503 121.482 72.3572 121.1 72.9492 120.947L125.983 107.271C126.575 107.118 127.204 107.207 127.731 107.518C128.257 107.829 128.639 108.336 128.792 108.929C128.945 109.521 128.856 110.15 128.545 110.676C128.234 111.203 127.727 111.585 127.135 111.738Z" fill="#F2F2F2"/>
<path d="M138.291 116.9L76.0449 132.952C75.7515 133.028 75.446 133.045 75.1459 133.003C74.8458 132.961 74.557 132.86 74.2959 132.706C74.0348 132.552 73.8066 132.348 73.6243 132.106C73.442 131.864 73.3093 131.588 73.2336 131.295C73.1579 131.001 73.1408 130.696 73.1833 130.396C73.2257 130.096 73.3269 129.807 73.481 129.546C73.6351 129.285 73.8391 129.057 74.0814 128.875C74.3237 128.693 74.5995 128.56 74.893 128.485L137.139 112.433C137.732 112.28 138.36 112.369 138.887 112.68C139.414 112.991 139.796 113.498 139.949 114.09C140.101 114.683 140.012 115.311 139.702 115.838C139.391 116.365 138.883 116.747 138.291 116.9Z" fill="#F2F2F2"/>
<path d="M47.6252 71.8773L28.8571 76.7172C28.5731 76.7901 28.2718 76.7474 28.0193 76.5984C27.7667 76.4494 27.5836 76.2063 27.5101 75.9225L23.2019 59.2163C23.129 58.9323 23.1717 58.631 23.3207 58.3784C23.4697 58.1259 23.7128 57.9428 23.9966 57.8692L42.7647 53.0293C43.0487 52.9564 43.35 52.9991 43.6025 53.1481C43.8551 53.2971 44.0382 53.5402 44.1117 53.8241L48.4199 70.5302C48.4928 70.8142 48.4501 71.1156 48.3011 71.3681C48.1521 71.6207 47.909 71.8038 47.6252 71.8773Z" fill="#E6E6E6"/>
<path d="M56.3364 105.657L37.5683 110.497C37.2843 110.57 36.983 110.527 36.7305 110.378C36.4779 110.229 36.2948 109.986 36.2213 109.702L31.9131 92.9962C31.8402 92.7122 31.8829 92.4109 32.0319 92.1583C32.1809 91.9058 32.424 91.7227 32.7078 91.6492L51.4759 86.8092C51.7599 86.7363 52.0612 86.7791 52.3137 86.9281C52.5663 87.0771 52.7494 87.3201 52.8229 87.604L57.1311 104.31C57.204 104.594 57.1613 104.895 57.0123 105.148C56.8633 105.401 56.6202 105.584 56.3364 105.657Z" fill="#E6E6E6"/>
<path d="M65.0476 139.437L46.2795 144.277C45.9955 144.35 45.6942 144.307 45.4416 144.158C45.1891 144.009 45.006 143.766 44.9324 143.482L40.6243 126.776C40.5513 126.492 40.5941 126.191 40.7431 125.938C40.8921 125.686 41.1351 125.503 41.419 125.429L60.187 120.589C60.4711 120.516 60.7724 120.559 61.0249 120.708C61.2775 120.857 61.4606 121.1 61.5341 121.384L65.8423 138.09C65.9152 138.374 65.8725 138.675 65.7235 138.928C65.5745 139.18 65.3314 139.364 65.0476 139.437Z" fill="#E6E6E6"/>
<path d="M188.41 31.6555H80.106C76.434 31.6596 72.9135 33.1202 70.3169 35.7167C67.7204 38.3132 66.2599 41.8337 66.2557 45.5058V172.677C66.2599 176.349 67.7204 179.87 70.3169 182.466C72.9135 185.063 76.434 186.523 80.106 186.527H188.41C192.082 186.523 195.602 185.063 198.199 182.466C200.796 179.87 202.256 176.349 202.26 172.677V45.5058C202.256 41.8337 200.796 38.3132 198.199 35.7167C195.602 33.1202 192.082 31.6596 188.41 31.6555Z" fill="#E6E6E6"/>
<path d="M188.41 35.6427H80.1059C77.491 35.6456 74.984 36.6857 73.1349 38.5348C71.2858 40.3838 70.2457 42.8908 70.2428 45.5058V172.677C70.2457 175.292 71.2858 177.799 73.1349 179.648C74.984 181.497 77.491 182.537 80.1059 182.54H188.41C191.025 182.537 193.532 181.497 195.381 179.648C197.23 177.799 198.27 175.292 198.273 172.677V45.5058C198.27 42.8908 197.23 40.3838 195.381 38.5348C193.532 36.6857 191.025 35.6456 188.41 35.6427Z" fill="white"/>
<path d="M199.788 202C213.752 202 225.071 190.68 225.071 176.717C225.071 162.753 213.752 151.434 199.788 151.434C185.825 151.434 174.505 162.753 174.505 176.717C174.505 190.68 185.825 202 199.788 202Z" fill="#A5634D"/>
<path d="M211.88 173.419H203.086V164.625C203.086 163.75 202.738 162.911 202.12 162.293C201.501 161.674 200.662 161.327 199.788 161.327C198.913 161.327 198.074 161.674 197.456 162.293C196.838 162.911 196.49 163.75 196.49 164.625V173.419H187.696C186.821 173.419 185.982 173.766 185.364 174.385C184.746 175.003 184.398 175.842 184.398 176.717C184.398 177.591 184.746 178.43 185.364 179.049C185.982 179.667 186.821 180.015 187.696 180.015H196.49V188.809C196.49 189.683 196.838 190.522 197.456 191.141C198.074 191.759 198.913 192.107 199.788 192.107C200.662 192.107 201.501 191.759 202.12 191.141C202.738 190.522 203.086 189.683 203.086 188.809V180.015H211.88C212.754 180.015 213.593 179.667 214.212 179.049C214.83 178.43 215.178 177.591 215.178 176.717C215.178 175.842 214.83 175.003 214.212 174.385C213.593 173.766 212.754 173.419 211.88 173.419Z" fill="white"/>
<path d="M172.11 105.523H117.341C117.038 105.523 116.738 105.464 116.458 105.348C116.178 105.232 115.923 105.062 115.709 104.848C115.494 104.634 115.324 104.38 115.208 104.1C115.092 103.82 115.032 103.52 115.032 103.216C115.032 102.913 115.092 102.613 115.208 102.333C115.324 102.053 115.494 101.799 115.709 101.585C115.923 101.37 116.178 101.201 116.458 101.085C116.738 100.969 117.038 100.91 117.341 100.91H172.11C172.721 100.911 173.307 101.154 173.739 101.586C174.171 102.019 174.414 102.605 174.414 103.216C174.414 103.828 174.171 104.414 173.739 104.846C173.307 105.279 172.721 105.522 172.11 105.523Z" fill="#E6E6E6"/>
<path d="M181.624 113.307H117.341C117.038 113.308 116.738 113.248 116.458 113.132C116.178 113.017 115.923 112.847 115.709 112.633C115.494 112.418 115.324 112.164 115.208 111.884C115.092 111.604 115.032 111.304 115.032 111.001C115.032 110.698 115.092 110.397 115.208 110.117C115.324 109.837 115.494 109.583 115.709 109.369C115.923 109.155 116.178 108.985 116.458 108.869C116.738 108.753 117.038 108.694 117.341 108.694H181.624C182.236 108.694 182.823 108.937 183.255 109.37C183.688 109.802 183.931 110.389 183.931 111.001C183.931 111.612 183.688 112.199 183.255 112.632C182.823 113.064 182.236 113.307 181.624 113.307Z" fill="#E6E6E6"/>
<path d="M172.11 140.408H117.341C117.038 140.408 116.738 140.349 116.458 140.233C116.178 140.117 115.923 139.948 115.709 139.733C115.494 139.519 115.324 139.265 115.208 138.985C115.092 138.705 115.032 138.405 115.032 138.102C115.032 137.798 115.092 137.498 115.208 137.218C115.324 136.938 115.494 136.684 115.709 136.47C115.923 136.255 116.178 136.086 116.458 135.97C116.738 135.854 117.038 135.795 117.341 135.795H172.11C172.722 135.795 173.308 136.038 173.741 136.471C174.174 136.903 174.416 137.49 174.416 138.102C174.416 138.713 174.174 139.3 173.741 139.732C173.308 140.165 172.722 140.408 172.11 140.408Z" fill="#E6E6E6"/>
<path d="M181.624 148.192H117.341C117.038 148.193 116.738 148.133 116.458 148.017C116.178 147.902 115.923 147.732 115.709 147.518C115.494 147.303 115.324 147.049 115.208 146.769C115.092 146.489 115.032 146.189 115.032 145.886C115.032 145.583 115.092 145.283 115.208 145.003C115.324 144.723 115.494 144.468 115.709 144.254C115.923 144.04 116.178 143.87 116.458 143.754C116.738 143.638 117.038 143.579 117.341 143.579H181.624C181.927 143.579 182.227 143.638 182.508 143.754C182.788 143.87 183.042 144.04 183.257 144.254C183.471 144.468 183.641 144.723 183.757 145.003C183.873 145.283 183.933 145.583 183.933 145.886C183.933 146.189 183.873 146.489 183.757 146.769C183.641 147.049 183.471 147.303 183.257 147.518C183.042 147.732 182.788 147.902 182.508 148.017C182.227 148.133 181.927 148.193 181.624 148.192Z" fill="#E6E6E6"/>
<path d="M105.073 116.841H85.6913C85.3981 116.841 85.1169 116.724 84.9096 116.517C84.7023 116.309 84.5856 116.028 84.5853 115.735V98.4822C84.5856 98.189 84.7023 97.9079 84.9096 97.7006C85.1169 97.4932 85.3981 97.3766 85.6913 97.3763H105.073C105.367 97.3766 105.648 97.4932 105.855 97.7006C106.062 97.9079 106.179 98.189 106.179 98.4822V115.735C106.179 116.028 106.062 116.309 105.855 116.517C105.648 116.724 105.367 116.841 105.073 116.841Z" fill="#E6E6E6"/>
<path d="M105.073 151.726H85.6913C85.3981 151.726 85.1169 151.609 84.9096 151.402C84.7023 151.194 84.5856 150.913 84.5853 150.62V133.367C84.5856 133.074 84.7023 132.793 84.9096 132.586C85.1169 132.378 85.3981 132.262 85.6913 132.261H105.073C105.367 132.262 105.648 132.378 105.855 132.586C106.062 132.793 106.179 133.074 106.179 133.367V150.62C106.179 150.913 106.062 151.194 105.855 151.402C105.648 151.609 105.367 151.726 105.073 151.726Z" fill="#E6E6E6"/>
<path d="M172.171 66.6889H131.793C131.181 66.6889 130.594 66.4459 130.162 66.0134C129.729 65.5809 129.486 64.9942 129.486 64.3825C129.486 63.7708 129.729 63.1841 130.162 62.7516C130.594 62.319 131.181 62.076 131.793 62.076H172.171C172.783 62.076 173.37 62.319 173.802 62.7516C174.235 63.1841 174.478 63.7708 174.478 64.3825C174.478 64.9942 174.235 65.5809 173.802 66.0134C173.37 66.4459 172.783 66.6889 172.171 66.6889Z" fill="#CCCCCC"/>
<path d="M181.685 74.4732H131.793C131.49 74.4732 131.19 74.4136 130.91 74.2977C130.63 74.1817 130.376 74.0119 130.162 73.7977C129.947 73.5835 129.778 73.3292 129.662 73.0494C129.546 72.7696 129.486 72.4697 129.486 72.1668C129.486 71.8639 129.546 71.564 129.662 71.2841C129.778 71.0043 129.947 70.75 130.162 70.5359C130.376 70.3217 130.63 70.1518 130.91 70.0359C131.19 69.92 131.49 69.8603 131.793 69.8603H181.685C182.297 69.8603 182.884 70.1033 183.316 70.5359C183.749 70.9684 183.992 71.5551 183.992 72.1668C183.992 72.7785 183.749 73.3651 183.316 73.7977C182.884 74.2302 182.297 74.4732 181.685 74.4732Z" fill="#CCCCCC"/>
<path d="M122.856 83.9068H85.6301C85.3369 83.9065 85.0558 83.7899 84.8485 83.5826C84.6411 83.3752 84.5245 83.0941 84.5242 82.8009V53.7484C84.5245 53.4552 84.6411 53.1741 84.8485 52.9668C85.0558 52.7594 85.3369 52.6428 85.6301 52.6425H122.856C123.149 52.6428 123.43 52.7594 123.637 52.9668C123.845 53.1741 123.961 53.4552 123.962 53.7484V82.8009C123.961 83.0941 123.845 83.3752 123.637 83.5826C123.43 83.7899 123.149 83.9065 122.856 83.9068Z" fill="#A5634D"/>
</g>
<defs>
<clipPath id="clip0_371_12422">
<rect width="225.071" height="202" fill="white"/>
</clipPath>
</defs>
</svg>
