<svg width="20" height="20" viewBox="0 0 20 20" fill="none" xmlns="http://www.w3.org/2000/svg">
<g clip-path="url(#clip0_958_4327)">
<path d="M15.8472 12.8488C14.6969 12.8488 13.6711 13.397 13.015 14.2442L7.52079 11.1753C7.64953 10.8056 7.72013 10.407 7.72013 9.99585C7.72013 9.58056 7.64953 9.18605 7.51664 8.81229L13.0067 5.74751C13.6587 6.59884 14.6886 7.15116 15.8431 7.15116C17.8115 7.15116 19.4186 5.54817 19.4186 3.57558C19.4186 1.60299 17.8156 0 15.8431 0C13.8705 0 12.2675 1.60299 12.2675 3.57558C12.2675 3.99086 12.3381 4.38953 12.471 4.75914L6.98508 7.82392C6.33309 6.96844 5.30319 6.42027 4.1487 6.42027C2.18026 6.42027 0.57312 8.02326 0.57312 9.99585C0.57312 11.9684 2.18026 13.5714 4.15285 13.5714C5.30734 13.5714 6.33724 13.0191 6.99339 12.1636L12.4834 15.2326C12.3505 15.6063 12.2758 16.0091 12.2758 16.4244C12.2758 18.3929 13.8788 20 15.8514 20C17.824 20 19.4269 18.397 19.4269 16.4244C19.4269 14.4518 17.8198 12.8488 15.8472 12.8488ZM15.8472 1.12542C17.201 1.12542 18.3015 2.22591 18.3015 3.57973C18.3015 4.93355 17.201 6.03405 15.8472 6.03405C14.4934 6.03405 13.3929 4.93355 13.3929 3.57973C13.3929 2.22591 14.4975 1.12542 15.8472 1.12542ZM4.15285 12.4502C2.79903 12.4502 1.69854 11.3497 1.69854 9.99585C1.69854 8.64203 2.79903 7.54153 4.15285 7.54153C5.50667 7.54153 6.60717 8.64203 6.60717 9.99585C6.60717 11.3497 5.50252 12.4502 4.15285 12.4502ZM15.8472 18.8746C14.4934 18.8746 13.3929 17.7741 13.3929 16.4203C13.3929 15.0664 14.4934 13.9659 15.8472 13.9659C17.201 13.9659 18.3015 15.0664 18.3015 16.4203C18.3015 17.7741 17.201 18.8746 15.8472 18.8746Z" fill="#313131"/>
</g>
<defs>
<clipPath id="clip0_958_4327">
<rect width="20" height="20" fill="white"/>
</clipPath>
</defs>
</svg>
