<svg width="13" height="13" viewBox="0 0 13 13" fill="none" xmlns="http://www.w3.org/2000/svg">
<path d="M7.43709 1.90124L8.39043 3.80791C8.52043 4.07333 8.86709 4.32791 9.15959 4.37666L10.8875 4.66374C11.9925 4.84791 12.2525 5.64958 11.4563 6.44041L10.1129 7.78374C9.88543 8.01124 9.76084 8.44999 9.83126 8.76416L10.2158 10.4271C10.5192 11.7433 9.82043 12.2525 8.65584 11.5646L7.03626 10.6058C6.74376 10.4325 6.26168 10.4325 5.96376 10.6058L4.34418 11.5646C3.18501 12.2525 2.48084 11.7379 2.78418 10.4271L3.16876 8.76416C3.23918 8.44999 3.11459 8.01124 2.88709 7.78374L1.54376 6.44041C0.752928 5.64958 1.00751 4.84791 2.11251 4.66374L3.84043 4.37666C4.12751 4.32791 4.47418 4.07333 4.60418 3.80791L5.55751 1.90124C6.07751 0.866659 6.92251 0.866659 7.43709 1.90124Z" fill="#989898"/>
</svg>
