<svg viewBox="0 0 36 27" id="price" xmlns="http://www.w3.org/2000/svg">
    <path
        d="M2.14596 19.3126L0.0144629 5.4584C-0.14321 4.43528 1.0224 3.73684 1.85047 4.35819L8.49142 9.33832C8.66404 9.46763 8.8612 9.5604 9.07087 9.61098C9.28053 9.66155 9.49831 9.66886 9.7109 9.63247C9.92349 9.59607 10.1264 9.51673 10.3073 9.39928C10.4882 9.28184 10.6433 9.12876 10.7631 8.94939L16.2921 0.65697C16.8761 -0.21899 18.1632 -0.21899 18.7472 0.65697L24.2762 8.94939C24.396 9.12876 24.5511 9.28184 24.732 9.39928C24.9129 9.51673 25.1158 9.59607 25.3284 9.63247C25.541 9.66886 25.7588 9.66155 25.9684 9.61098C26.1781 9.5604 26.3752 9.46763 26.5479 9.33832L33.1888 4.35819C34.0181 3.73684 35.1825 4.43528 35.0248 5.4584L32.8933 19.3126H2.14596ZM31.2897 27H3.74956C3.53897 27 3.33044 26.9585 3.13589 26.8779C2.94133 26.7973 2.76455 26.6792 2.61565 26.5303C2.31491 26.2296 2.14596 25.8217 2.14596 25.3964V21.8751H32.8933V25.3964C32.8933 26.2817 32.175 27 31.2897 27Z"
        fill="#FFB743" />
</svg>