<svg width="14" height="14" viewBox="0 0 14 14" fill="none" xmlns="http://www.w3.org/2000/svg">
<path d="M11.6663 8.06191C11.6663 10.6978 9.577 12.8346 6.99967 12.8346C4.42235 12.8346 2.33301 10.6978 2.33301 8.06191C2.33301 7.10047 2.61967 5.49063 3.49967 4.66797L4.7015 6.27041C4.87195 6.49767 5.25307 6.37267 5.26661 6.08892C5.33512 4.65346 5.64615 1.95037 6.99967 1.16797C6.99967 1.16797 11.6663 5.426 11.6663 8.06191Z" stroke="#6CDFC3" stroke-width="0.875" stroke-linejoin="round"/>
<path d="M6.99967 11.0845C6.61665 11.0845 6.23738 11.0091 5.88351 10.8625C5.52965 10.7159 5.20812 10.5011 4.93728 10.2303C4.66644 9.95943 4.4516 9.6379 4.30503 9.28404C4.15845 8.93017 4.08301 8.5509 4.08301 8.16788" stroke="#6CDFC3" stroke-width="0.875" stroke-linecap="round"/>
</svg>
