<svg width="61" height="61" viewBox="0 0 61 61" fill="none" xmlns="http://www.w3.org/2000/svg">
<g clip-path="url(#clip0_3191_1010)">
<path d="M42.6999 2.1594e-05C40.2715 -0.00863758 37.8893 0.663449 35.8234 1.94004C33.7576 3.21663 32.0909 5.04662 31.0123 7.22242L30.4999 8.2521L29.9875 7.22242C28.909 5.04662 27.2423 3.21663 25.1765 1.94004C23.1106 0.663449 20.7284 -0.00863758 18.3 2.1594e-05C16.6821 2.1594e-05 15.1306 0.642698 13.9866 1.78667C12.8426 2.93064 12.2 4.4822 12.2 6.10002C12.2 7.71784 12.8426 9.2694 13.9866 10.4134C15.1306 11.5573 16.6821 12.2 18.3 12.2H42.6999C44.3178 12.2 45.8693 11.5573 47.0133 10.4134C48.1573 9.2694 48.7999 7.71784 48.7999 6.10002C48.7999 4.4822 48.1573 2.93064 47.0133 1.78667C45.8693 0.642698 44.3178 2.1594e-05 42.6999 2.1594e-05ZM18.3 9.76002C17.3293 9.76002 16.3983 9.37441 15.7119 8.68803C15.0256 8.00165 14.64 7.07071 14.64 6.10002C14.64 5.12933 15.0256 4.19839 15.7119 3.51201C16.3983 2.82563 17.3293 2.44002 18.3 2.44002C20.2746 2.43327 22.2116 2.97992 23.8914 4.01798C25.5712 5.05604 26.9265 6.54399 27.8038 8.3131L28.5235 9.76002H18.3ZM42.6999 9.76002H32.4764L33.1961 8.3131C34.0734 6.54399 35.4287 5.05604 37.1085 4.01798C38.7883 2.97992 40.7253 2.43327 42.6999 2.44002C43.6706 2.44002 44.6016 2.82563 45.288 3.51201C45.9743 4.19839 46.3599 5.12933 46.3599 6.10002C46.3599 7.07071 45.9743 8.00165 45.288 8.68803C44.6016 9.37441 43.6706 9.76002 42.6999 9.76002Z" fill="#41A7A7"/>
<path d="M54.8999 24.4H6.09988C5.77632 24.4 5.46601 24.5286 5.23721 24.7574C5.00842 24.9861 4.87988 25.2965 4.87988 25.62V57.34C4.88117 58.3103 5.26719 59.2405 5.9533 59.9266C6.6394 60.6127 7.56959 60.9987 8.53988 61H52.4599C53.4302 60.9987 54.3604 60.6127 55.0465 59.9266C55.7326 59.2405 56.1186 58.3103 56.1199 57.34V25.62C56.1199 25.2965 55.9913 24.9861 55.7626 24.7574C55.5338 24.5286 55.2234 24.4 54.8999 24.4Z" fill="#41A7A7"/>
<path d="M4.87988 24.4H56.1199V31.72H4.87988V24.4Z" fill="#54B5B5"/>
<path d="M21.96 24.4H39.04V61H21.96V24.4Z" fill="#54B5B5"/>
<path d="M21.96 24.4H39.04V31.72H21.96V24.4Z" fill="#54B5B5"/>
<path d="M57.34 9.76001H3.66C1.63864 9.76001 0 11.3986 0 13.42V23.18C0 25.2014 1.63864 26.84 3.66 26.84H57.34C59.3614 26.84 61 25.2014 61 23.18V13.42C61 11.3986 59.3614 9.76001 57.34 9.76001Z" fill="#41A7A7"/>
<path d="M21 10H40V27H21V10Z" fill="#54B5B5"/>
</g>
<defs>
<clipPath id="clip0_3191_1010">
<rect width="61" height="61" fill="white"/>
</clipPath>
</defs>
</svg>
