<svg width="38" height="38" viewBox="0 0 38 38" fill="none" xmlns="http://www.w3.org/2000/svg">
<path d="M34.6643 22.8581C35.0533 21.4034 37.071 20.1125 37.071 18.5355C37.071 16.9585 35.0533 15.6676 34.6643 14.2129C34.2622 12.708 35.3524 10.5836 34.59 9.26602C33.8167 7.92943 31.4246 7.81606 30.3398 6.73127C29.255 5.64651 29.1416 3.25435 27.805 2.48108C26.4875 1.71863 24.363 2.80879 22.8581 2.40677C21.4034 2.01777 20.1125 0 18.5355 0C16.9585 0 15.6677 2.01777 14.2129 2.40677C12.708 2.80881 10.5836 1.71863 9.26602 2.48108C7.92943 3.25433 7.81607 5.64648 6.73127 6.73127C5.64651 7.81604 3.25435 7.92943 2.48108 9.26602C1.71863 10.5836 2.80879 12.708 2.40677 14.2129C2.01777 15.6677 0 16.9585 0 18.5355C0 20.1125 2.01777 21.4034 2.40677 22.8581C2.80881 24.363 1.71863 26.4875 2.48108 27.805C3.25433 29.1416 5.64648 29.255 6.73127 30.3398C7.81604 31.4245 7.92943 33.8167 9.26602 34.59C10.5836 35.3524 12.708 34.2622 14.2129 34.6643C15.6677 35.0533 16.9585 37.071 18.5355 37.071C20.1125 37.071 21.4034 35.0533 22.8581 34.6643C24.363 34.2622 26.4875 35.3524 27.805 34.59C29.1416 33.8167 29.255 31.4245 30.3398 30.3398C31.4245 29.255 33.8167 29.1416 34.59 27.805C35.3524 26.4874 34.2622 24.363 34.6643 22.8581ZM18.5355 31.787C11.2167 31.787 5.28401 25.8543 5.28401 18.5355C5.28401 11.2167 11.2167 5.28399 18.5355 5.28399C25.8543 5.28399 31.787 11.2167 31.787 18.5355C31.787 25.8543 25.8543 31.787 18.5355 31.787Z" fill="#ECECEC"/>
<path d="M25.9714 20.211C25.8482 19.771 25.659 19.4032 25.4037 19.1078C25.1482 18.8124 24.8405 18.5909 24.4805 18.4432C24.1205 18.2955 23.7005 18.2216 23.2204 18.2216C22.2235 18.2216 21.4956 18.5248 21.0372 19.1309C20.5787 19.7372 20.3495 20.6402 20.3495 21.8403C20.3495 22.5912 20.4741 23.222 20.7234 23.7327C20.9726 24.2437 21.3172 24.6221 21.7573 24.8682C22.1972 25.1144 22.6973 25.2375 23.2574 25.2375C24.1558 25.2375 24.8636 24.9513 25.3806 24.3789C25.8975 23.8066 26.156 22.9328 26.156 21.7572C26.156 21.1664 26.0944 20.651 25.9714 20.211ZM24.1805 23.4973C24.0143 23.8882 23.7065 24.0835 23.2574 24.0835C22.8143 24.0835 22.505 23.8928 22.3296 23.5112C22.1542 23.1297 22.0665 22.5266 22.0665 21.7018C22.0665 21.1664 22.1018 20.7311 22.1727 20.3956C22.2434 20.0602 22.3649 19.8064 22.5373 19.634C22.7095 19.4618 22.9495 19.3755 23.2573 19.3755C23.6942 19.3755 23.9989 19.5587 24.1712 19.9248C24.3435 20.291 24.4297 20.871 24.4297 21.6649C24.4298 22.4957 24.3467 23.1066 24.1805 23.4973Z" fill="white"/>
<path d="M23.2019 12.0089C23.2019 11.8305 23.145 11.6874 23.0311 11.5797C22.9172 11.4721 22.7681 11.4181 22.5834 11.4181C22.3926 11.4181 22.2465 11.4751 22.1449 11.5889C22.0434 11.7028 21.9248 11.8736 21.7895 12.1012L14.0537 24.6005C13.9305 24.7851 13.869 24.9421 13.869 25.0713C13.869 25.2435 13.9397 25.3836 14.0813 25.4913C14.2228 25.599 14.3643 25.6529 14.506 25.6529C14.7521 25.6529 14.9736 25.4836 15.1706 25.1452L22.8604 12.7475C23.088 12.3844 23.2019 12.1382 23.2019 12.0089Z" fill="#ECECEC"/>
<path d="M15.9277 17.7047C16.4447 17.1324 16.7031 16.2586 16.7031 15.083C16.7031 14.4922 16.6415 13.9784 16.5185 13.5414C16.3953 13.1045 16.2077 12.7336 15.9554 12.429C15.703 12.1244 15.3953 11.8982 15.0322 11.7505C14.669 11.6028 14.2476 11.5289 13.7675 11.5289C13.1029 11.5289 12.5566 11.6674 12.129 11.9443C11.7012 12.2213 11.3919 12.6275 11.2012 13.1629C11.0104 13.6983 10.915 14.3661 10.915 15.1661C10.915 15.9108 11.0381 16.5416 11.2843 17.0585C11.5304 17.5755 11.8735 17.9556 12.3136 18.1986C12.7535 18.4418 13.2506 18.5632 13.8045 18.5632C14.7029 18.5632 15.4107 18.2771 15.9277 17.7047ZM14.7322 16.8277C14.5691 17.2154 14.2598 17.4093 13.8045 17.4093C13.5029 17.4093 13.2659 17.3216 13.0937 17.1462C12.9213 16.9708 12.8029 16.7109 12.7382 16.3662C12.6736 16.0216 12.6413 15.5754 12.6413 15.0276C12.6413 14.4984 12.6736 14.063 12.7382 13.7214C12.8029 13.3798 12.9229 13.1213 13.0983 12.9459C13.2736 12.7705 13.509 12.6829 13.8045 12.6829C14.2413 12.6829 14.546 12.866 14.7184 13.2321C14.8906 13.5984 14.9768 14.1845 14.9768 14.9907C14.9769 15.8277 14.8952 16.44 14.7322 16.8277Z" fill="#ECECEC"/>
<path d="M34.59 27.805C33.8167 29.1416 31.4246 29.2549 30.3398 30.3397C29.255 31.4245 29.1416 33.8167 27.805 34.5899C26.4875 35.3524 24.363 34.2622 22.8581 34.6642C21.4034 35.0532 20.1125 37.071 18.5355 37.071V31.7872C25.8543 31.7872 31.7872 25.8542 31.7872 18.5355C31.7872 11.2167 25.8543 5.28382 18.5355 5.28382V0C20.1125 0 21.4034 2.01777 22.8581 2.40677C24.363 2.80881 26.4875 1.71863 27.805 2.48108C29.1416 3.25432 29.255 5.64648 30.3398 6.73127C31.4246 7.81604 33.8167 7.92943 34.59 9.26602C35.3524 10.5836 34.2623 12.708 34.6643 14.2129C35.0533 15.6677 37.0711 16.9585 37.0711 18.5355C37.0711 20.1125 35.0533 21.4034 34.6643 22.8581C34.2622 24.363 35.3524 26.4874 34.59 27.805Z" fill="white"/>
<path d="M23.202 12.0091C23.202 12.1383 23.088 12.3844 22.8603 12.7474L18.5355 19.72V17.359L21.7895 12.1012C21.9248 11.8735 22.0436 11.7029 22.1449 11.5889C22.2465 11.4749 22.3926 11.4181 22.5834 11.4181C22.7682 11.4181 22.9172 11.4721 23.0312 11.5797C23.1449 11.6874 23.202 11.8306 23.202 12.0091Z" fill="white"/>
</svg>
