<svg width="32" height="32" viewBox="0 0 32 32" fill="none" xmlns="http://www.w3.org/2000/svg">
<path d="M25.4931 24.3048C25.4787 24.2934 25.4695 24.286 25.4593 24.2782C25.4545 24.2746 25.45 24.271 25.4456 24.2674C25.4614 24.2797 25.4772 24.2922 25.4931 24.3048Z" fill="#41A7A7"/>
<path d="M27.1502 13.2732C25.65 13.5354 24.1559 13.8341 22.6715 14.1757C21.4794 14.4501 20.2935 14.7533 19.116 15.0861C19.1749 15.2538 19.2333 15.4215 19.2956 15.5881C19.3879 15.8354 19.4843 16.0812 19.5839 16.3255C19.5985 16.3614 19.6134 16.3973 19.6283 16.4331C19.6392 16.4592 19.6553 16.4978 19.6599 16.5088C19.7088 16.6218 19.758 16.7348 19.8085 16.8476C20.1999 17.7218 20.6411 18.5739 21.1415 19.391C21.3704 19.7644 21.6107 20.1306 21.8626 20.4888C21.993 20.6742 22.1267 20.8577 22.2631 21.0385C22.2874 21.0707 22.312 21.1029 22.3367 21.1351C22.34 21.1391 22.3409 21.1403 22.3455 21.1458C22.4123 21.2278 22.477 21.3117 22.5436 21.3937C23.0954 22.0723 23.6919 22.715 24.3315 23.3114C24.6606 23.6183 25.0013 23.9131 25.3528 24.1939C25.3747 24.2115 25.3969 24.2288 25.4191 24.2461C25.4069 24.2364 25.4133 24.2413 25.4595 24.278C25.4716 24.2875 25.4835 24.2969 25.4908 24.3024C25.5747 24.365 25.6582 24.4275 25.7427 24.4892C25.9117 24.612 26.0827 24.7317 26.2562 24.8481C26.6257 25.0961 27.0062 25.3276 27.3957 25.543C29.6796 22.8392 31.0589 19.3463 31.0589 15.5297C31.0589 14.5652 30.9665 13.6226 30.7981 12.7068C30.3724 12.7645 29.947 12.8256 29.4444 12.901C28.6787 13.0161 27.9135 13.1398 27.1502 13.2732Z" fill="#41A7A7"/>
<path d="M5.81662 18.2424C7.0482 17.5377 8.31137 16.8926 9.59764 16.297C9.72709 16.0026 9.85593 15.7081 9.98568 15.414C11.6934 11.5439 13.4008 7.67386 15.1086 3.80381C15.3021 3.36472 15.8892 3.21583 16.3149 3.31276C16.7926 3.42155 17.0658 3.88799 17.0992 4.34288C17.1852 5.51003 17.2952 6.67535 17.445 7.83643C17.4444 7.83066 17.4639 7.97743 17.4696 8.0221C17.4757 8.06434 17.4833 8.12055 17.4851 8.13301C17.5049 8.2737 17.5252 8.41408 17.5465 8.55447C17.5884 8.83524 17.6331 9.11571 17.6805 9.39557C17.778 9.97201 17.8868 10.5466 18.009 11.1182C18.1472 11.7648 18.3047 12.4072 18.4794 13.0447C20.0245 12.6071 21.5837 12.2212 23.1483 11.8827C25.5033 11.3734 27.8807 10.966 30.2685 10.6387C28.2189 4.45925 22.3968 0 15.5294 0C6.95278 0 0 6.95279 0 15.5294C0 17.5875 0.404143 19.5505 1.1313 21.3479C2.62328 20.2114 4.19063 19.1728 5.81662 18.2424Z" fill="#41A7A7"/>
<path d="M24.6286 26.3076C21.415 23.9566 19.0998 20.6964 17.5844 17.0403C17.4009 16.5972 17.2316 16.1493 17.0721 15.6981C16.018 16.0323 14.9724 16.393 13.938 16.7841C13.577 16.9205 13.2172 17.0606 12.8593 17.2041C12.6952 17.2697 12.5317 17.3365 12.3682 17.4037C12.2941 17.4344 12.2199 17.4654 12.1458 17.4961C12.1245 17.5049 12.1084 17.5116 12.0947 17.517C12.0817 17.5228 12.0659 17.5295 12.0461 17.538C11.7754 17.6541 11.5061 17.7738 11.2369 17.8938C10.5201 19.5253 9.79568 21.1534 9.04391 22.7676C8.21436 24.5485 7.27359 26.3021 6.08911 27.857C8.70571 29.8641 11.9774 31.0595 15.5297 31.0595C19.4966 31.0595 23.1145 29.5699 25.8593 27.1223C25.4369 26.8689 25.0252 26.5978 24.6286 26.3076Z" fill="#41A7A7"/>
<path d="M14.033 11.5008C13.5095 12.6871 12.9917 13.8764 12.4739 15.066C13.7759 14.5516 15.0969 14.0821 16.4321 13.6579C15.9598 11.949 15.6253 10.2008 15.3834 8.43991C14.9334 9.4603 14.4834 10.4804 14.033 11.5008Z" fill="#41A7A7"/>
<path d="M8.25272 19.3433C7.48697 19.748 6.73095 20.1713 5.98952 20.6192C4.70902 21.3928 3.47654 22.2367 2.28204 23.1373C2.25985 23.1541 2.24527 23.165 2.23555 23.1723C2.22491 23.1808 2.21427 23.189 2.19574 23.2036C2.15775 23.2334 2.11977 23.2632 2.08179 23.2929C2.7509 24.4498 3.56253 25.5133 4.49662 26.4565C4.75886 26.0988 5.00803 25.7318 5.24504 25.3571C6.13781 23.9444 6.86678 22.4357 7.55383 20.9146C7.78993 20.3922 8.02057 19.8674 8.25272 19.3433Z" fill="#41A7A7"/>
</svg>
