<svg width="193" height="184" viewBox="0 0 193 184" fill="none" xmlns="http://www.w3.org/2000/svg">
<path opacity="0.48" d="M43.5525 176.84C56.767 180.876 69.716 184.093 84.0199 183.998C95.1852 183.923 106.439 182.212 116.91 178.258C127.333 174.325 136.81 167.91 146.954 163.145C152.251 160.657 157.588 158.142 162.34 154.726C166.527 151.713 170.204 148.039 173.54 144.106C186.611 128.7 192.071 108.086 192.078 88.085C192.085 74.4718 189.838 60.9131 186.734 47.6885C184.296 37.286 176.27 27.1084 168.529 19.9099C156.036 8.28034 139.349 1.38171 122.343 0.400083C94.3478 -1.22914 59.1226 1.10903 42.2113 26.754C34.4092 38.588 31.5226 52.9443 25.4157 65.7395C18.9821 79.1959 10.8124 92.2297 3.74555 105.359C-2.80384 117.52 0.123644 134.985 5.73352 147.153C11.534 159.737 22.3725 170.139 35.5666 174.338C38.2422 175.191 40.9042 176.036 43.5525 176.84Z" fill="#FFDCC7"/>
</svg>
