<svg width="26" height="26" viewBox="0 0 26 26" fill="none" xmlns="http://www.w3.org/2000/svg">
<path d="M23.3242 11.7758L21.6775 10.1292C21.3959 9.84751 21.1684 9.29501 21.1684 8.90501V6.56501C21.1684 5.61167 20.3884 4.83167 19.435 4.83167H17.1059C16.7159 4.83167 16.1634 4.60417 15.8817 4.32251L14.235 2.67584C13.5634 2.00417 12.4584 2.00417 11.7867 2.67584L10.1184 4.32251C9.84754 4.60417 9.29504 4.83167 8.8942 4.83167H6.56504C5.6117 4.83167 4.8317 5.61167 4.8317 6.56501V8.89417C4.8317 9.28417 4.6042 9.83667 4.32254 10.1183L2.67587 11.765C2.0042 12.4367 2.0042 13.5417 2.67587 14.2133L4.32254 15.86C4.6042 16.1417 4.8317 16.6942 4.8317 17.0842V19.4133C4.8317 20.3667 5.6117 21.1467 6.56504 21.1467H8.8942C9.2842 21.1467 9.8367 21.3742 10.1184 21.6558L11.765 23.3025C12.4367 23.9742 13.5417 23.9742 14.2134 23.3025L15.86 21.6558C16.1417 21.3742 16.6942 21.1467 17.0842 21.1467H19.4134C20.3667 21.1467 21.1467 20.3667 21.1467 19.4133V17.0842C21.1467 16.6942 21.3742 16.1417 21.6559 15.86L23.3025 14.2133C24.0067 13.5525 24.0067 12.4475 23.3242 11.7758ZM8.6667 9.75001C8.6667 9.15417 9.1542 8.66667 9.75004 8.66667C10.3459 8.66667 10.8334 9.15417 10.8334 9.75001C10.8334 10.3458 10.3567 10.8333 9.75004 10.8333C9.1542 10.8333 8.6667 10.3458 8.6667 9.75001ZM10.3242 16.8242C10.1617 16.9867 9.95587 17.0625 9.75004 17.0625C9.5442 17.0625 9.33837 16.9867 9.17587 16.8242C8.8617 16.51 8.8617 15.99 9.17587 15.6758L15.6759 9.17584C15.99 8.86167 16.51 8.86167 16.8242 9.17584C17.1384 9.49001 17.1384 10.01 16.8242 10.3242L10.3242 16.8242ZM16.25 17.3333C15.6434 17.3333 15.1559 16.8458 15.1559 16.25C15.1559 15.6542 15.6434 15.1667 16.2392 15.1667C16.835 15.1667 17.3225 15.6542 17.3225 16.25C17.3225 16.8458 16.8459 17.3333 16.25 17.3333Z" fill="#FF9B5C"/>
</svg>
