<svg width="166" height="143" viewBox="0 0 166 143" fill="none" xmlns="http://www.w3.org/2000/svg">
<path d="M62.9893 10.3882C61.0745 10.8795 58.7077 11.5933 57.2855 13.0318C55.5525 14.7838 54.9146 17.4546 54.3487 20.1172C54.2944 20.3737 53.9416 20.3737 53.8873 20.1172C53.43 17.9839 52.8424 15.4217 51.606 13.8379C50.0332 11.8227 47.6108 10.9989 45.2331 10.3882C44.9848 10.3244 44.9848 9.98515 45.2331 9.92137C47.3136 9.38803 49.6966 8.68098 51.184 7.04569C52.7351 5.33982 53.3581 2.66635 53.8873 0.192368C53.9416 -0.0641226 54.2944 -0.0641226 54.3487 0.192368C54.8427 2.51707 55.6868 5.15797 57.0928 6.81498C58.6195 8.61449 60.7773 9.3541 62.9893 9.92137C63.2377 9.98515 63.2377 10.3244 62.9893 10.3882Z" fill="url(#paint0_radial_1320_2301)"/>
<path d="M25.643 58.0629C22.9071 58.7645 19.5238 59.785 17.4909 61.841C15.0142 64.3462 14.1036 68.1624 13.2948 71.9663C13.2174 72.3327 12.7139 72.3341 12.6352 71.9663C11.9825 68.9169 11.1411 65.2555 9.37412 62.9918C7.12678 60.1121 3.66483 58.9341 0.266669 58.0629C-0.0888896 57.9719 -0.0888896 57.4861 0.266669 57.3952C3.2387 56.6338 6.64501 55.6228 8.77157 53.2845C10.9877 50.8472 11.878 47.027 12.6352 43.4904C12.7139 43.124 13.2174 43.124 13.2948 43.4904C14.0018 46.8126 15.2069 50.5866 17.2168 52.9548C19.399 55.5265 22.4836 56.5836 25.643 57.3938C25.9985 57.4861 25.9985 57.9719 25.643 58.0629Z" fill="url(#paint1_radial_1320_2301)"/>
<path d="M165.91 30.5125C164.981 30.75 163.833 31.0974 163.142 31.795C162.302 32.6445 161.993 33.9405 161.717 35.2325C161.69 35.3573 161.521 35.3573 161.494 35.2325C161.272 34.197 160.986 32.9553 160.386 32.1858C159.623 31.2087 158.448 30.8084 157.295 30.5125C157.174 30.4813 157.174 30.3171 157.295 30.2859C158.304 30.0267 159.459 29.6847 160.181 28.8908C160.933 28.063 161.236 26.7669 161.492 25.5659C161.519 25.4411 161.689 25.4411 161.716 25.5659C161.956 26.6937 162.365 27.9748 163.047 28.7782C163.788 29.6508 164.835 30.0104 165.908 30.2845C166.03 30.3171 166.03 30.4813 165.91 30.5125Z" fill="url(#paint2_radial_1320_2301)"/>
<path d="M62.8812 111.846C61.9529 112.083 60.8048 112.431 60.1141 113.128C59.274 113.978 58.9646 115.274 58.6891 116.566C58.662 116.691 58.4924 116.691 58.4652 116.566C58.244 115.53 57.9577 114.289 57.3578 113.519C56.5951 112.542 55.4199 112.142 54.2664 111.846C54.1456 111.815 54.1456 111.65 54.2664 111.619C55.2747 111.36 56.4309 111.018 57.1529 110.224C57.9047 109.396 58.2074 108.1 58.4639 106.899C58.491 106.774 58.6606 106.774 58.6878 106.899C58.928 108.027 59.3365 109.308 60.0191 110.111C60.7601 110.984 61.8064 111.344 62.8798 111.618C63.002 111.65 63.002 111.815 62.8812 111.846Z" fill="url(#paint3_radial_1320_2301)"/>
<path d="M95.8392 137.43C94.911 137.667 93.7629 138.015 93.0721 138.712C92.2321 139.562 91.9226 140.858 91.6471 142.15C91.62 142.275 91.4504 142.275 91.4232 142.15C91.202 141.114 90.9157 139.873 90.3158 139.103C89.5532 138.126 88.3779 137.726 87.2244 137.43C87.1036 137.399 87.1036 137.234 87.2244 137.203C88.2327 136.944 89.3889 136.602 90.1109 135.808C90.8627 134.98 91.1654 133.684 91.4219 132.483C91.449 132.358 91.6186 132.358 91.6458 132.483C91.886 133.611 92.2945 134.892 92.9771 135.695C93.7181 136.568 94.7644 136.928 95.8378 137.202C95.96 137.233 95.96 137.399 95.8392 137.43Z" fill="url(#paint4_radial_1320_2301)"/>
<mask id="mask0_1320_2301" style="mask-type:luminance" maskUnits="userSpaceOnUse" x="48" y="11" width="107" height="107">
<path d="M101.422 117.567C130.712 117.567 154.457 93.8226 154.457 64.5321C154.457 35.2416 130.712 11.4969 101.422 11.4969C72.1314 11.4969 48.3867 35.2416 48.3867 64.5321C48.3867 93.8226 72.1314 117.567 101.422 117.567Z" fill="white"/>
</mask>
<g mask="url(#mask0_1320_2301)">
<path d="M19.0039 -17.9639H179.282V142.445H19.0039V-17.9639Z" fill="url(#paint5_radial_1320_2301)"/>
</g>
<path d="M101.423 119.391C71.175 119.391 46.5654 94.7817 46.5654 64.5335C46.5654 34.2852 71.175 9.67569 101.423 9.67569C131.671 9.67569 156.281 34.2852 156.281 64.5335C156.281 94.7817 131.671 119.391 101.423 119.391ZM101.423 13.3208C73.1848 13.3208 50.2106 36.2951 50.2106 64.5335C50.2106 92.7719 73.1848 115.745 101.423 115.745C129.662 115.745 152.636 92.7705 152.636 64.5321C152.636 36.2937 129.662 13.3208 101.423 13.3208Z" fill="url(#paint6_radial_1320_2301)"/>
<g opacity="0.56">
<mask id="mask1_1320_2301" style="mask-type:luminance" maskUnits="userSpaceOnUse" x="69" y="37" width="65" height="57">
<path d="M130.789 39.7706C127.628 36.5407 120.981 35.9463 117.901 39.7706C112.599 46.3511 107.296 52.9316 101.994 59.5122C99.4701 62.6457 96.9445 65.7792 94.4203 68.9128C93.5246 70.0256 92.4579 71.6935 91.2949 73.2433C91.0683 73.0098 90.8403 72.7751 90.6123 72.5416C88.8983 70.7801 87.1856 69.02 85.4716 67.2585C77.2762 58.8363 64.3933 71.7315 72.582 80.1468C76.8107 84.4908 81.1289 90.5652 86.8613 92.8573C93.1474 95.3707 98.7236 92.3457 102.765 87.4425C112.234 75.9547 121.451 64.2512 130.79 52.6589C133.901 48.7979 134.493 43.5568 130.789 39.7706Z" fill="white"/>
</mask>
<g mask="url(#mask1_1320_2301)">
<path d="M69.9429 37.1124H133.357V93.7846H69.9429V37.1124Z" fill="url(#paint7_radial_1320_2301)"/>
</g>
</g>
<path d="M130.323 37.9521C127.163 34.7222 120.516 34.1278 117.435 37.9521C112.133 44.5326 106.831 51.1132 101.528 57.6937C99.0042 60.8272 96.4787 63.9608 93.9545 67.0943C93.0588 68.2071 91.9921 69.875 90.8291 71.4248C90.6025 71.1914 90.3745 70.9566 90.1465 70.7232C88.4325 68.9617 86.7198 67.2015 85.0058 65.44C76.8103 57.0179 63.9274 69.913 72.1161 78.3283C76.3448 82.6724 80.6631 88.7467 86.3955 91.0389C92.6815 93.5522 98.2578 90.5272 102.299 85.6241C111.768 74.1363 120.985 62.4327 130.325 50.8404C133.434 46.9795 134.027 41.737 130.323 37.9521Z" fill="white"/>
<path d="M117.063 16.2305C105.065 11.0939 72.0741 9.85347 55.3018 42.5689C71.078 23.6375 88.1678 14.0713 117.063 16.2305Z" fill="url(#paint8_radial_1320_2301)"/>
<path d="M90.4161 114.304C118.284 112.29 137.559 95.9855 150.894 76.3198C148.739 88.5771 140.456 99.8342 130.42 106.761C120.385 113.687 104.8 117.908 90.2817 114.304" fill="url(#paint9_radial_1320_2301)"/>
<defs>
<radialGradient id="paint0_radial_1320_2301" cx="0" cy="0" r="1" gradientTransform="matrix(-5.24161 10.0576 -8.9776 -5.87217 58.031 4.11681)" gradientUnits="userSpaceOnUse">
<stop stop-color="#6794FF"/>
<stop offset="1" stop-color="#205DEE"/>
</radialGradient>
<radialGradient id="paint1_radial_1320_2301" cx="0" cy="0" r="1" gradientTransform="matrix(-7.49132 14.3741 -12.8308 -8.39237 18.5569 49.0992)" gradientUnits="userSpaceOnUse">
<stop stop-color="#6794FF"/>
<stop offset="1" stop-color="#205DEE"/>
</radialGradient>
<radialGradient id="paint2_radial_1320_2301" cx="0" cy="0" r="1" gradientTransform="matrix(-2.54316 4.87976 -4.35582 -2.84907 163.504 27.4697)" gradientUnits="userSpaceOnUse">
<stop stop-color="#6794FF"/>
<stop offset="1" stop-color="#205DEE"/>
</radialGradient>
<radialGradient id="paint3_radial_1320_2301" cx="0" cy="0" r="1" gradientTransform="matrix(-2.54316 4.87976 -4.35582 -2.84907 60.4755 108.803)" gradientUnits="userSpaceOnUse">
<stop stop-color="#6794FF"/>
<stop offset="1" stop-color="#205DEE"/>
</radialGradient>
<radialGradient id="paint4_radial_1320_2301" cx="0" cy="0" r="1" gradientTransform="matrix(-2.54316 4.87976 -4.35582 -2.84907 93.4335 134.387)" gradientUnits="userSpaceOnUse">
<stop stop-color="#6794FF"/>
<stop offset="1" stop-color="#205DEE"/>
</radialGradient>
<radialGradient id="paint5_radial_1320_2301" cx="0" cy="0" r="1" gradientTransform="matrix(-46.3417 79.4365 -79.372 -46.3793 133.798 14.5513)" gradientUnits="userSpaceOnUse">
<stop stop-color="#6794FF"/>
<stop offset="1" stop-color="#205DEE"/>
</radialGradient>
<radialGradient id="paint6_radial_1320_2301" cx="0" cy="0" r="1" gradientUnits="userSpaceOnUse" gradientTransform="translate(125.145 31.9153) rotate(120.279) scale(62.9154)">
<stop stop-color="#6794FF"/>
<stop offset="1" stop-color="#205DEE"/>
</radialGradient>
<radialGradient id="paint7_radial_1320_2301" cx="0" cy="0" r="1" gradientTransform="matrix(-18.3351 28.0649 -31.4036 -16.3858 115.361 48.6)" gradientUnits="userSpaceOnUse">
<stop stop-color="#6794FF"/>
<stop offset="1" stop-color="#205DEE"/>
</radialGradient>
<radialGradient id="paint8_radial_1320_2301" cx="0" cy="0" r="1" gradientTransform="matrix(-17.8572 14.4099 -30.5851 -8.41328 99.5362 19.3689)" gradientUnits="userSpaceOnUse">
<stop stop-color="#6794FF"/>
<stop offset="1" stop-color="#205DEE"/>
</radialGradient>
<radialGradient id="paint9_radial_1320_2301" cx="0" cy="0" r="1" gradientTransform="matrix(-17.5249 19.4618 -30.0158 -11.3629 133.693 84.286)" gradientUnits="userSpaceOnUse">
<stop stop-color="#6794FF"/>
<stop offset="1" stop-color="#205DEE"/>
</radialGradient>
</defs>
</svg>
