<svg width="50" height="50" viewBox="0 0 50 50" fill="none" xmlns="http://www.w3.org/2000/svg">
<path d="M3.12501 3.40208C-0.804158 7.48333 8.2316e-06 11.8187 8.2316e-06 24.9896C8.2316e-06 35.9271 -1.90833 46.8917 8.07918 49.4729C11.1979 50.275 38.8313 50.275 41.9458 49.4687C46.1042 48.3958 49.4875 45.0229 49.95 39.1417C50.0146 38.3208 50.0146 11.6729 49.9479 10.8354C49.4563 4.57083 45.6 0.960416 40.5188 0.229166C39.3542 0.0604159 39.1208 0.0104159 33.1458 -7.51212e-07C11.9521 0.0104159 7.30626 -0.933334 3.12501 3.40208Z" fill="url(#paint0_linear_1_43)"/>
<path d="M24.9959 6.53958C17.4313 6.53958 10.2479 5.86667 7.50419 12.9083C6.37085 15.8167 6.53544 19.5938 6.53544 25.0021C6.53544 29.7479 6.38335 34.2083 7.50419 37.0937C10.2417 44.1396 17.4834 43.4646 24.9917 43.4646C32.2354 43.4646 39.7042 44.2187 42.4813 37.0937C43.6167 34.1562 43.45 30.4354 43.45 25.0021C43.45 17.7896 43.8479 13.1333 40.35 9.6375C36.8084 6.09583 32.0188 6.53958 24.9875 6.53958H24.9959ZM23.3417 9.86667C39.1209 9.84167 41.1292 8.0875 40.0209 32.4563C39.6271 41.075 33.0646 40.1292 24.9979 40.1292C10.2896 40.1292 9.86669 39.7083 9.86669 24.9937C9.86669 10.1083 11.0334 9.875 23.3417 9.8625V9.86667ZM34.85 12.9312C34.2627 12.9312 33.6994 13.1646 33.2841 13.5799C32.8688 13.9952 32.6354 14.5585 32.6354 15.1458C32.6354 15.7332 32.8688 16.2965 33.2841 16.7118C33.6994 17.1271 34.2627 17.3604 34.85 17.3604C35.4374 17.3604 36.0006 17.1271 36.416 16.7118C36.8313 16.2965 37.0646 15.7332 37.0646 15.1458C37.0646 14.5585 36.8313 13.9952 36.416 13.5799C36.0006 13.1646 35.4374 12.9312 34.85 12.9312ZM24.9959 15.5208C23.7509 15.521 22.5182 15.7663 21.368 16.2429C20.2179 16.7194 19.1729 17.4178 18.2926 18.2983C16.515 20.0763 15.5164 22.4878 15.5167 25.0021C15.517 27.5164 16.516 29.9276 18.2941 31.7053C20.0722 33.483 22.4836 34.4815 24.9979 34.4813C27.5122 34.481 29.9235 33.4819 31.7012 31.7038C33.4788 29.9257 34.4774 27.5143 34.4771 25C34.4768 22.4857 33.4778 20.0745 31.6997 18.2968C29.9216 16.5191 27.5102 15.5206 24.9959 15.5208ZM24.9959 18.8479C33.1313 18.8479 33.1417 31.1562 24.9959 31.1562C16.8625 31.1562 16.85 18.8479 24.9959 18.8479Z" fill="white"/>
<defs>
<linearGradient id="paint0_linear_1_43" x1="3.22088" y1="46.8064" x2="49.6906" y2="6.58745" gradientUnits="userSpaceOnUse">
<stop stop-color="#FFDD55"/>
<stop offset="0.5" stop-color="#FF543E"/>
<stop offset="1" stop-color="#C837AB"/>
</linearGradient>
</defs>
</svg>
