<svg width="50" height="50" viewBox="0 0 50 50" fill="none" xmlns="http://www.w3.org/2000/svg">
<path d="M43.1818 0H6.81818C3.0526 0 0 3.0526 0 6.81818V43.1818C0 46.9474 3.0526 50 6.81818 50H43.1818C46.9474 50 50 46.9474 50 43.1818V6.81818C50 3.0526 46.9474 0 43.1818 0Z" fill="#29A71A"/>
<path d="M36.0227 13.9773C33.4217 11.3503 29.9675 9.73923 26.2833 9.43472C22.599 9.13022 18.9272 10.1523 15.9301 12.3166C12.9331 14.4809 10.8081 17.645 9.93848 21.238C9.06885 24.8311 9.51182 28.6167 11.1875 31.9119L9.54261 39.8977C9.52555 39.9772 9.52506 40.0594 9.5412 40.139C9.55733 40.2187 9.58972 40.2942 9.63636 40.3608C9.70469 40.4619 9.80222 40.5397 9.91592 40.5838C10.0296 40.628 10.1541 40.6364 10.2727 40.608L18.0994 38.7528C21.3854 40.3861 25.1443 40.8006 28.7072 39.9226C32.27 39.0445 35.4059 36.9309 37.5567 33.9579C39.7075 30.9848 40.7338 27.3451 40.4529 23.6863C40.172 20.0276 38.6022 16.5872 36.0227 13.9773ZM33.5824 33.4545C31.7827 35.2491 29.4653 36.4338 26.9567 36.8415C24.4481 37.2493 21.8748 36.8595 19.5994 35.7273L18.5085 35.1875L13.7102 36.3239L13.7244 36.2642L14.7188 31.4347L14.1847 30.3807C13.022 28.0974 12.6119 25.5047 13.013 22.974C13.4141 20.4433 14.6059 18.1045 16.4176 16.2926C18.6941 14.0169 21.7811 12.7385 25 12.7385C28.2189 12.7385 31.306 14.0169 33.5824 16.2926C33.6018 16.3148 33.6227 16.3357 33.6449 16.3551C35.8931 18.6367 37.1482 21.7146 37.1365 24.9177C37.1248 28.1208 35.8472 31.1894 33.5824 33.4545Z" fill="white"/>
<path d="M33.1563 29.9119C32.5682 30.8381 31.6392 31.9716 30.4716 32.2528C28.4261 32.7472 25.2869 32.2699 21.3807 28.6278L21.3324 28.5852C17.8977 25.4006 17.0057 22.75 17.2216 20.6477C17.3409 19.4545 18.3352 18.375 19.1733 17.6705C19.3058 17.5574 19.4629 17.4769 19.6321 17.4354C19.8013 17.3939 19.9778 17.3925 20.1476 17.4314C20.3174 17.4704 20.4757 17.5485 20.6099 17.6595C20.7441 17.7706 20.8505 17.9115 20.9205 18.071L22.1847 20.9119C22.2668 21.0961 22.2973 21.2992 22.2727 21.4994C22.2482 21.6996 22.1696 21.8894 22.0455 22.0483L21.4063 22.8778C21.2691 23.0491 21.1863 23.2575 21.1686 23.4763C21.1509 23.695 21.199 23.914 21.3068 24.1051C21.6648 24.733 22.5227 25.6562 23.4744 26.5114C24.5426 27.4773 25.7273 28.3608 26.4773 28.6619C26.678 28.7439 26.8986 28.7639 27.1108 28.7194C27.3229 28.6748 27.5169 28.5677 27.6676 28.4119L28.4091 27.6648C28.5522 27.5237 28.7301 27.4231 28.9247 27.3732C29.1194 27.3233 29.3237 27.3259 29.517 27.3807L32.5199 28.233C32.6855 28.2838 32.8374 28.3718 32.9638 28.4903C33.0902 28.6088 33.1878 28.7546 33.2492 28.9166C33.3106 29.0786 33.3342 29.2525 33.3181 29.425C33.302 29.5976 33.2466 29.7641 33.1563 29.9119Z" fill="white"/>
</svg>
