<svg width="46" height="46" viewBox="0 0 46 46" fill="none" xmlns="http://www.w3.org/2000/svg">
<path d="M33.8887 0.291992H12.1113C5.61012 0.291992 0.339844 5.56226 0.339844 12.0635V33.8408C0.339844 40.342 5.61012 45.6123 12.1113 45.6123H33.8887C40.3899 45.6123 45.6602 40.342 45.6602 33.8408V12.0635C45.6602 5.56226 40.3899 0.291992 33.8887 0.291992Z" fill="#FFFD00"/>
<path d="M38.8672 30.7998C38.6787 30.7764 36.3877 30.5869 34.0273 27.541C31.667 24.4951 32.5869 23.9521 32.7051 23.6689C32.8232 23.3857 34.3174 22.9551 35.2783 22.583C36.7432 22.0156 36.6719 21.001 36.4355 20.4463C36.1992 19.8916 35.2314 19.3945 33.9092 19.958C32.6533 20.4961 32.1611 20.0762 32.1611 20.0762C32.1611 20.0762 32.4727 15.4277 32.3027 14.5039C30.834 6.31934 23 6.99902 23 6.99902C23 6.99902 15.166 6.31543 13.6973 14.5068C13.5313 15.4277 13.8389 20.0801 13.8389 20.0801C13.8389 20.0801 13.3506 20.5 12.0908 19.9619C10.7686 19.3945 9.80078 19.8916 9.56445 20.4502C9.32812 21.0088 9.25781 22.0195 10.7217 22.5869C11.6826 22.959 13.1777 23.3896 13.2949 23.6729C13.4121 23.9561 14.334 24.499 11.9727 27.5449C9.61133 30.5908 7.32129 30.7803 7.13281 30.8037C6.94434 30.8271 5.99902 30.8506 5.99902 31.4873C5.99902 32.124 6.31055 33.1826 10.1318 33.8486C10.7344 33.9531 10.6748 34.3916 10.6748 34.3916C10.6748 34.3916 10.6748 35.9033 11.4775 36.0449C12.2803 36.1865 13.6973 35.6904 14.7598 35.8086C15.8223 35.9268 16.4355 35.7852 18.5137 37.4375C20.5918 39.0898 23 39 23 39C23 39 25.4082 39.0977 27.4863 37.4375C29.5645 35.7773 30.1777 35.9268 31.2402 35.8086C32.3027 35.6904 33.7197 36.1836 34.5234 36.042C35.3271 35.9004 35.3262 34.3887 35.3262 34.3887C35.3262 34.3887 35.2666 33.9502 35.8691 33.8457C39.6904 33.1797 40.002 32.1221 40.002 31.4844C40.002 30.8467 39.0566 30.8232 38.8672 30.7998Z" fill="white"/>
<path d="M22.5645 7.83496C22.793 7.83496 22.9268 7.8457 22.9268 7.8457L23 7.85156L23.0713 7.8457C23.0713 7.8457 23.2061 7.83496 23.4355 7.83496C24.1191 7.83496 25.9082 7.93262 27.6162 8.86035C29.6816 9.97852 30.9766 11.9297 31.4668 14.6572C31.5645 15.2217 31.4375 18.1357 31.3135 20.0283L31.2852 20.4541L31.6094 20.7305C31.707 20.8154 32.084 21.0908 32.7715 21.0908C33.2804 21.0767 33.7813 20.9601 34.2441 20.748C34.4922 20.6347 34.7606 20.5729 35.0332 20.5664C35.4482 20.5664 35.6318 20.7432 35.6533 20.7842C35.7237 20.9356 35.7332 21.1084 35.6797 21.2666C35.5967 21.4619 35.3457 21.6504 34.9717 21.7949C34.7178 21.8926 34.4121 22 34.1172 22.1035C32.7656 22.5723 32.1797 22.7939 31.9424 23.293L31.9326 23.3066C31.7881 23.5234 31.4502 24.0293 31.6318 24.9365C31.7959 25.7559 32.3594 26.7783 33.3555 28.0615C35.6289 30.9912 37.8867 31.543 38.752 31.6416H38.7617L38.8594 31.6514C38.9707 31.6611 39.0547 31.6729 39.1162 31.6846C39.0528 31.8024 38.9616 31.9029 38.8506 31.9775C38.4805 32.2627 37.6387 32.6719 35.7256 33.0049C34.749 33.1758 34.4561 33.9082 34.4775 34.4131C34.4707 34.7109 34.3936 35.0713 34.3105 35.21H34.1924C33.8391 35.1943 33.4874 35.1542 33.1396 35.0898C32.629 34.9996 32.1122 34.9486 31.5937 34.9375C31.4434 34.9371 31.2931 34.9449 31.1436 34.9609C31.0303 34.9736 30.916 34.9834 30.8066 34.9932C29.709 35.0908 28.8477 35.2627 26.9541 36.7695C25.3096 38.0781 23.4297 38.1445 23.0703 38.1445H22.9238C22.5645 38.1445 20.6846 38.0781 19.04 36.7695C17.1465 35.2627 16.2852 35.0879 15.1875 34.9932C15.0781 34.9834 14.9648 34.9736 14.8506 34.9609C14.7011 34.9449 14.5508 34.9371 14.4004 34.9375C13.8837 34.9512 13.3689 35.0044 12.8604 35.0967C12.5126 35.161 12.1609 35.2011 11.8076 35.2168H11.6895C11.6064 35.0781 11.5283 34.7168 11.5215 34.4199C11.5488 33.916 11.251 33.1826 10.2744 33.0117C8.36035 32.6787 7.51855 32.2695 7.14941 31.9844C7.03945 31.9094 6.94931 31.8089 6.88672 31.6914C6.97174 31.6762 7.05746 31.6651 7.14355 31.6582L7.24121 31.6484H7.25195C8.11719 31.5508 10.377 31.002 12.6484 28.0684C13.6445 26.7842 14.2109 25.7617 14.3721 24.9434C14.5537 24.0361 14.2158 23.5303 14.0713 23.3135L14.0615 23.2998C13.8242 22.8018 13.2412 22.5801 11.8867 22.1064C11.5937 22.0029 11.2861 21.8955 11.0322 21.7979C10.6582 21.6533 10.4072 21.4648 10.3242 21.2695C10.2708 21.1124 10.2799 20.9407 10.3496 20.79C10.3721 20.7461 10.5557 20.5693 10.9707 20.5693C11.2433 20.5758 11.5118 20.6376 11.7598 20.751C12.2226 20.9631 12.7235 21.0796 13.2324 21.0937C13.916 21.0937 14.2959 20.8184 14.3945 20.7334L14.7187 20.457L14.6904 20.0313C14.5664 18.1436 14.4365 15.2295 14.5371 14.6602C15.0254 11.9316 16.3223 9.98145 18.3877 8.86328C20.0957 7.9375 21.8809 7.83789 22.5684 7.83789M23.4355 6.98438C23.1582 6.98438 23 6.99902 23 6.99902C23 6.99902 22.8408 6.98438 22.5645 6.98438C20.8984 6.98438 14.957 7.48438 13.6973 14.5039C13.5313 15.4248 13.8389 20.0771 13.8389 20.0771C13.8389 20.0771 13.6562 20.2334 13.2285 20.2334C12.8347 20.2194 12.4477 20.126 12.0908 19.959C11.7371 19.7997 11.3546 19.7143 10.9668 19.708C10.2354 19.708 9.72656 20.0625 9.56445 20.4434C9.32812 20.998 9.25781 22.0127 10.7217 22.5801C11.6826 22.9521 13.1777 23.3828 13.2949 23.666C13.4121 23.9492 14.334 24.4922 11.9727 27.5381C9.61133 30.584 7.32129 30.7734 7.13281 30.7969C6.94434 30.8203 5.99902 30.8437 5.99902 31.4805C5.99902 32.1172 6.31055 33.1758 10.1318 33.8418C10.7344 33.9463 10.6748 34.3848 10.6748 34.3848C10.6748 34.3848 10.6748 35.8965 11.4775 36.0381C11.5876 36.056 11.699 36.0644 11.8105 36.0635C12.5322 36.0635 13.541 35.7832 14.4033 35.7832C14.5224 35.7829 14.6414 35.7891 14.7598 35.8018C15.8223 35.9199 16.4355 35.7783 18.5137 37.4307C20.3779 38.9141 22.5098 38.9932 22.9268 38.9932H23.0732C23.4902 38.9932 25.6211 38.917 27.4863 37.4307C29.5645 35.7783 30.1777 35.9199 31.2402 35.8018C31.3586 35.7891 31.4776 35.7829 31.5967 35.7832C32.459 35.7832 33.4678 36.0635 34.1895 36.0635C34.301 36.0645 34.4124 36.056 34.5225 36.0381C35.3252 35.8965 35.3252 34.3848 35.3252 34.3848C35.3252 34.3848 35.2656 33.9463 35.8682 33.8418C39.6895 33.1758 40.001 32.1182 40.001 31.4805C40.001 30.8428 39.0566 30.8193 38.8672 30.7969C38.6777 30.7744 36.3877 30.584 34.0273 27.5381C31.667 24.4922 32.5869 23.9492 32.7051 23.666C32.8232 23.3828 34.3174 22.9521 35.2783 22.5801C36.7432 22.0127 36.6719 20.998 36.4355 20.4434C36.2734 20.0625 35.7646 19.708 35.0332 19.708C34.6454 19.7143 34.2629 19.7997 33.9092 19.959C33.5523 20.126 33.1653 20.2194 32.7715 20.2334C32.3437 20.2334 32.1611 20.0771 32.1611 20.0771C32.1611 20.0771 32.4727 15.4277 32.3027 14.5039C31.043 7.48242 25.1016 6.98438 23.4355 6.98438Z" fill="black"/>
</svg>
