<svg width="50" height="50" viewBox="0 0 50 50" fill="none" xmlns="http://www.w3.org/2000/svg">
<g clip-path="url(#clip0_1_47)">
<path d="M46.0526 0H3.94737C1.7673 0 0 1.7673 0 3.94737V46.0526C0 48.2327 1.7673 50 3.94737 50H46.0526C48.2327 50 50 48.2327 50 46.0526V3.94737C50 1.7673 48.2327 0 46.0526 0Z" fill="#03A9F4"/>
<path d="M41.1941 14.9572C39.976 15.4892 38.6875 15.8427 37.3684 16.0066C38.7589 15.182 39.7984 13.8757 40.2895 12.3355C38.988 13.108 37.564 13.6521 36.079 13.9441C35.169 12.9709 33.9872 12.2941 32.6873 12.0016C31.3874 11.7092 30.0297 11.8146 28.7905 12.3043C27.5514 12.794 26.4884 13.6452 25.7396 14.7473C24.9908 15.8493 24.591 17.1512 24.5921 18.4836C24.5874 18.9921 24.6393 19.4996 24.7467 19.9967C22.1052 19.867 19.5207 19.1814 17.1622 17.9849C14.8036 16.7883 12.724 15.1076 11.0592 13.0526C10.2035 14.5145 9.93838 16.248 10.3181 17.8988C10.6978 19.5496 11.6936 20.9931 13.102 21.9342C12.0507 21.9059 11.0218 21.6249 10.102 21.1151V21.1875C10.1049 22.7198 10.6353 24.2044 11.604 25.3917C12.5727 26.579 13.9205 27.3967 15.4211 27.7072C14.8532 27.8564 14.268 27.9294 13.6809 27.9243C13.2582 27.9322 12.8358 27.8947 12.4211 27.8125C12.851 29.1303 13.6786 30.2826 14.7901 31.1108C15.9017 31.939 17.2426 32.4025 18.6283 32.4375C16.28 34.273 13.3851 35.27 10.4046 35.2697C9.87355 35.2743 9.34278 35.2435 8.8158 35.1776C11.8548 37.137 15.3972 38.1723 19.0132 38.1579C31.2336 38.1579 37.9145 28.0362 37.9145 19.2632C37.9145 18.9704 37.9145 18.6875 37.8915 18.4046C39.1926 17.4656 40.3117 16.2974 41.1941 14.9572Z" fill="white"/>
</g>
<defs>
<clipPath id="clip0_1_47">
<rect width="50" height="50" fill="white"/>
</clipPath>
</defs>
</svg>
