<svg width="50" height="50" viewBox="0 0 50 50" fill="none" xmlns="http://www.w3.org/2000/svg">
<g clip-path="url(#clip0_6_2)">
<path d="M43.1818 0H6.81818C3.0526 0 0 3.0526 0 6.81818V43.1818C0 46.9474 3.0526 50 6.81818 50H43.1818C46.9474 50 50 46.9474 50 43.1818V6.81818C50 3.0526 46.9474 0 43.1818 0Z" fill="#0077B5"/>
<path d="M18.0114 13.6364C18.0114 14.4792 17.7615 15.3031 17.2932 16.0039C16.825 16.7046 16.1594 17.2508 15.3808 17.5734C14.6021 17.8959 13.7453 17.9803 12.9187 17.8158C12.092 17.6514 11.3327 17.2456 10.7368 16.6496C10.1408 16.0536 9.73496 15.2943 9.57053 14.4677C9.4061 13.6411 9.49049 12.7843 9.81303 12.0056C10.1356 11.2269 10.6817 10.5614 11.3825 10.0932C12.0833 9.62492 12.9072 9.375 13.75 9.375C14.8802 9.375 15.9641 9.82396 16.7633 10.6231C17.5624 11.4223 18.0114 12.5062 18.0114 13.6364ZM17.0455 20.7386V39.5653C17.0462 39.7042 17.0195 39.8419 16.9669 39.9704C16.9142 40.099 16.8367 40.2158 16.7388 40.3143C16.6408 40.4128 16.5244 40.4909 16.3961 40.5442C16.2679 40.5976 16.1304 40.625 15.9915 40.625H11.5C11.3611 40.6254 11.2235 40.5983 11.0951 40.5453C10.9668 40.4923 10.8501 40.4145 10.7519 40.3163C10.6537 40.2181 10.5759 40.1014 10.5229 39.9731C10.4699 39.8447 10.4428 39.7071 10.4432 39.5682V20.7386C10.4432 20.4584 10.5545 20.1895 10.7527 19.9914C10.9509 19.7932 11.2197 19.6818 11.5 19.6818H15.9915C16.2713 19.6826 16.5394 19.7942 16.7369 19.9924C16.9345 20.1905 17.0455 20.4588 17.0455 20.7386ZM40.5227 30.5398V39.6534C40.5231 39.7811 40.4982 39.9076 40.4495 40.0257C40.4009 40.1437 40.3293 40.251 40.239 40.3413C40.1487 40.4316 40.0415 40.5031 39.9234 40.5518C39.8054 40.6005 39.6788 40.6254 39.5511 40.625H34.7216C34.5939 40.6254 34.4674 40.6005 34.3493 40.5518C34.2313 40.5031 34.124 40.4316 34.0337 40.3413C33.9435 40.251 33.8719 40.1437 33.8232 40.0257C33.7745 39.9076 33.7496 39.7811 33.75 39.6534V30.821C33.75 29.5028 34.1364 25.0483 30.304 25.0483C27.3352 25.0483 26.7301 28.0966 26.6108 29.4659V39.6534C26.6108 39.9087 26.5104 40.1537 26.3313 40.3355C26.1521 40.5173 25.9086 40.6213 25.6534 40.625H20.9886C20.8612 40.625 20.735 40.5999 20.6173 40.551C20.4995 40.5021 20.3926 40.4305 20.3026 40.3403C20.2126 40.25 20.1413 40.1429 20.0928 40.025C20.0443 39.9071 20.0195 39.7809 20.0199 39.6534V20.6563C20.0195 20.5288 20.0443 20.4025 20.0928 20.2847C20.1413 20.1668 20.2126 20.0597 20.3026 19.9694C20.3926 19.8791 20.4995 19.8075 20.6173 19.7587C20.735 19.7098 20.8612 19.6847 20.9886 19.6847H25.6534C25.9111 19.6847 26.1582 19.787 26.3404 19.9692C26.5226 20.1514 26.625 20.3986 26.625 20.6563V22.2983C27.7273 20.6449 29.3608 19.3693 32.8466 19.3693C40.5682 19.3693 40.5227 26.5795 40.5227 30.5398Z" fill="white"/>
</g>
<defs>
<clipPath id="clip0_6_2">
<rect width="50" height="50" fill="white"/>
</clipPath>
</defs>
</svg>
