<svg width="50" height="50" viewBox="0 0 50 50" fill="none" xmlns="http://www.w3.org/2000/svg">
<path d="M39.3365 0H10.6635C4.77423 0 0 4.77423 0 10.6635V39.3365C0 45.2258 4.77423 50 10.6635 50H39.3365C45.2258 50 50 45.2258 50 39.3365V10.6635C50 4.77423 45.2258 0 39.3365 0Z" fill="#D42028"/>
<path fill-rule="evenodd" clip-rule="evenodd" d="M18.273 12.9413C14.5086 14.4353 11.9452 17.3136 11.2275 21.1879C10.7881 23.5682 10.9565 26.1608 12.0111 28.38C12.3607 29.1226 12.8226 29.8069 13.3807 30.4087C13.7149 30.29 14.0383 30.143 14.3475 29.9692C15.6218 29.2442 16.5593 28.1383 17.6505 27.2081C14.0032 22.9823 17.8702 17.7457 22.704 16.5812C27.2008 15.4973 33.3016 17.3649 34.6712 22.0009C35.2351 23.9124 34.8616 26.029 33.3016 27.4205C32.4632 28.1522 31.4395 28.6387 30.3428 28.8267C29.3405 29.0042 28.312 28.9668 27.3253 28.7169C26.7248 28.5704 26.1975 28.5924 26.1975 27.9479V20.3603C26.1975 19.8477 26.2487 19.9429 25.8166 19.8916C25.4781 19.8502 25.1386 19.816 24.7986 19.7891C23.5929 19.6552 22.3754 19.6699 21.1733 19.833C20.7339 19.9063 20.7046 19.833 20.7046 20.3164V24.3225C20.7046 27.1496 20.917 30.0132 20.7998 32.8329C20.7632 33.6751 20.7412 35.6892 19.7964 36.114C18.7125 36.5973 17.7457 35.572 16.735 35.3596C16.8815 36.7804 15.988 39.5855 17.6432 40.3032C19.1623 41.017 20.8914 41.1448 22.4989 40.6621C25.8386 39.5269 26.9225 35.799 26.4977 32.745C28.9823 33.4706 31.6433 33.2962 34.012 32.2526C36.3806 31.2089 38.3051 29.3629 39.4463 27.0397C41.021 23.722 40.3545 19.5987 37.9816 16.7716C33.5506 11.4838 24.5496 10.4731 18.2804 12.9486L18.273 12.9413Z" fill="white"/>
</svg>
