<svg width="49" height="50" viewBox="0 0 49 50" fill="none" xmlns="http://www.w3.org/2000/svg">
<g filter="url(#filter0_d_209_444)">
<circle cx="24.5" cy="20.5" r="18.5" fill="white"/>
</g>
<g clip-path="url(#clip0_209_444)">
<path d="M25 8C18.3727 8 13 13.3727 13 20C13 22.4389 13.7295 24.7069 14.9796 26.6008L13 32L18.5841 30.1388C20.44 31.3156 22.6393 32 25 32C31.6273 32 37 26.6273 37 20C37 13.3727 31.6273 8 25 8Z" fill="url(#paint0_linear_209_444)"/>
<path d="M31.6202 23.7068V25.7C31.6231 26.434 31.0293 27.0311 30.294 27.0345C30.2522 27.0345 30.2105 27.0328 30.1686 27.0291C28.12 26.8069 26.152 26.1084 24.4231 24.9891C22.8147 23.9691 21.4508 22.6077 20.4283 21.0022C19.3032 19.2688 18.6031 17.295 18.3846 15.2413C18.3185 14.5106 18.8585 13.8642 19.5908 13.798C19.6305 13.7951 19.6699 13.793 19.7096 13.793H21.707C22.3753 13.7864 22.9451 14.2755 23.0386 14.9359C23.123 15.574 23.2794 16.2001 23.5045 16.803C23.6874 17.2888 23.5703 17.8362 23.2049 18.2049L22.3595 19.0486C23.3071 20.7121 24.6875 22.0896 26.3543 23.0355L27.1997 22.1918C27.5692 21.8268 28.1179 21.7102 28.6045 21.8927C29.2086 22.1178 29.836 22.2738 30.4753 22.3578C31.1448 22.4521 31.6371 23.0323 31.6202 23.7068Z" fill="white"/>
</g>
<defs>
<filter id="filter0_d_209_444" x="0.232353" y="0.585294" width="48.5353" height="48.5353" filterUnits="userSpaceOnUse" color-interpolation-filters="sRGB">
<feFlood flood-opacity="0" result="BackgroundImageFix"/>
<feColorMatrix in="SourceAlpha" type="matrix" values="0 0 0 0 0 0 0 0 0 0 0 0 0 0 0 0 0 0 127 0" result="hardAlpha"/>
<feOffset dy="4.35294"/>
<feGaussianBlur stdDeviation="2.88382"/>
<feComposite in2="hardAlpha" operator="out"/>
<feColorMatrix type="matrix" values="0 0 0 0 0 0 0 0 0 0 0 0 0 0 0 0 0 0 0.05 0"/>
<feBlend mode="normal" in2="BackgroundImageFix" result="effect1_dropShadow_209_444"/>
<feBlend mode="normal" in="SourceGraphic" in2="effect1_dropShadow_209_444" result="shape"/>
</filter>
<linearGradient id="paint0_linear_209_444" x1="19.72" y1="11" x2="34.96" y2="32" gradientUnits="userSpaceOnUse">
<stop stop-color="#5F95FF"/>
<stop offset="1" stop-color="#226DFF"/>
</linearGradient>
<clipPath id="clip0_209_444">
<rect width="24" height="24" fill="white" transform="translate(13 8)"/>
</clipPath>
</defs>
</svg>
