<svg width="16" height="14" viewBox="0 0 16 14" fill="none" xmlns="http://www.w3.org/2000/svg">
<path d="M13.0315 0.506653C12.7028 0.506653 12.3889 0.621066 12.0955 0.826523L12.0936 0.823891C8.15675 3.68378 4.50913 3.89941 2.7561 4.00303L2.61529 4.01148C1.63172 4.0707 0.737086 4.71142 0.280634 5.68325C-0.0894229 6.47115 -0.0937785 7.42221 0.269225 8.22762C0.740986 9.27415 1.64407 9.90924 2.63733 9.91048C2.77225 9.90944 2.93289 9.9122 3.10483 9.91753C2.91143 11.25 3.70043 12.615 5.06761 13.2073C5.50674 13.3976 5.96975 13.4934 6.42855 13.4934C6.78641 13.4934 7.14175 13.4351 7.48118 13.3181C8.26612 13.0474 8.8729 12.4956 9.18969 11.7646C9.23425 11.6618 9.27004 11.5558 9.30173 11.4487C10.2079 11.8739 11.1479 12.4104 12.0936 13.0975L12.0956 13.0948C12.3889 13.3002 12.7028 13.4147 13.0316 13.4147C14.6962 13.4147 16.0001 10.5798 16.0001 6.96075C16.0001 3.34171 14.6961 0.506653 13.0315 0.506653ZM8.60244 11.51C8.35788 12.0743 7.88563 12.5015 7.27245 12.713C6.64892 12.9275 5.95636 12.8947 5.32205 12.62C4.20294 12.135 3.56037 11.0202 3.74516 9.95202C4.97107 10.0485 6.73818 10.352 8.70996 11.1855C8.68201 11.2961 8.64798 11.405 8.60244 11.51ZM2.63174 9.27035C1.92696 9.27707 1.2133 8.76404 0.852767 7.96441C0.565693 7.3273 0.568358 6.57626 0.860113 5.95541C1.21688 5.19563 1.90414 4.69556 2.65377 4.65025L2.7938 4.64196C4.37889 4.54828 7.46146 4.36561 10.9425 2.33857C10.3976 3.5025 10.0633 5.13043 10.0633 6.96069C10.0633 8.79215 10.3981 10.4209 10.9436 11.5849C7.33433 9.48429 4.00857 9.2539 2.63174 9.27035ZM12.552 6.96069C12.552 7.95986 11.8061 8.78604 10.8422 8.91687C10.7544 8.31704 10.7033 7.66365 10.7033 6.96069C10.7033 6.25766 10.7545 5.6042 10.8422 5.00434C11.8061 5.13524 12.552 5.96152 12.552 6.96069ZM13.0315 12.7745C12.8443 12.7745 12.6552 12.7042 12.4695 12.5801L12.4699 12.5795C12.4373 12.5558 12.4048 12.5357 12.3722 12.5123C11.7873 12.0531 11.2524 11.0048 10.9532 9.5467C12.2171 9.36276 13.1921 8.27488 13.1921 6.96072C13.1921 5.64643 12.2171 4.55855 10.9532 4.37458C11.2524 2.91704 11.7869 1.86899 12.3716 1.40951C12.4045 1.38595 12.437 1.36573 12.4699 1.34177L12.4695 1.34119C12.6552 1.21715 12.8444 1.14675 13.0316 1.14675C14.1561 1.14675 15.36 3.48297 15.36 6.96072C15.36 10.4385 14.1561 12.7745 13.0315 12.7745Z" fill="#313131" stroke="#313131" stroke-width="0.1"/>
</svg>
