<svg width="22" height="22" viewBox="0 0 22 22" fill="none" xmlns="http://www.w3.org/2000/svg">
<path d="M19.2305 14.3941C19.0923 14.1609 18.7036 13.7982 17.7364 13.9709C17.2009 14.0659 16.6568 14.1091 16.1127 14.0832C14.1005 13.9968 12.2782 13.0727 11.0086 11.6477C9.88591 10.3955 9.195 8.76318 9.18636 7.00136C9.18636 6.01682 9.37636 5.06682 9.765 4.16864C10.145 3.29636 9.87727 2.83864 9.68727 2.64864C9.48863 2.45 9.02227 2.17364 8.10682 2.55364C4.57454 4.03909 2.38954 7.58 2.64863 11.3714C2.90772 14.9382 5.41227 17.9868 8.72863 19.1355C9.52318 19.4118 10.3609 19.5759 11.2245 19.6105C11.3627 19.6191 11.5009 19.6277 11.6391 19.6277C14.5323 19.6277 17.2441 18.2632 18.9541 15.94C19.5327 15.1368 19.3773 14.6273 19.2305 14.3941Z" fill="url(#paint0_linear_295_12832)"/>
<defs>
<linearGradient id="paint0_linear_295_12832" x1="7.31462" y1="4.52211" x2="18.3777" y2="19.3027" gradientUnits="userSpaceOnUse">
<stop stop-color="#5F95FF"/>
<stop offset="1" stop-color="#226DFF"/>
</linearGradient>
</defs>
</svg>
