<svg width="138" height="26" viewBox="0 0 138 26" fill="none" xmlns="http://www.w3.org/2000/svg">
<rect y="7.17242" width="1" height="12.5517" fill="url(#paint0_linear_295_12607)"/>
<rect x="42" y="7.17242" width="1" height="12.5517" fill="url(#paint1_linear_295_12607)"/>
<rect x="80.5" y="6.27588" width="1" height="12.5517" fill="#8D8F8D"/>
<rect x="3.5" y="7.17242" width="1" height="12.5517" fill="url(#paint2_linear_295_12607)"/>
<rect x="45.5" y="7.17242" width="1" height="12.5517" fill="url(#paint3_linear_295_12607)"/>
<rect x="84" y="6.27588" width="1" height="12.5517" fill="#8D8F8D"/>
<rect x="7" y="7.17242" width="1" height="12.5517" fill="url(#paint4_linear_295_12607)"/>
<rect x="49" y="7.17242" width="1" height="12.5517" fill="url(#paint5_linear_295_12607)"/>
<rect x="126" y="6.27588" width="1" height="12.5517" fill="#8D8F8D"/>
<rect x="87.5" y="6.27588" width="1" height="12.5517" fill="#8D8F8D"/>
<rect x="10.5" y="6.27588" width="1" height="14.3448" fill="url(#paint6_linear_295_12607)"/>
<rect x="38.5" y="6.27588" width="1" height="14.3448" fill="url(#paint7_linear_295_12607)"/>
<rect x="52.5" y="6.27588" width="1" height="14.3448" fill="url(#paint8_linear_295_12607)"/>
<rect x="129.5" y="6.27588" width="1" height="12.5517" fill="#8D8F8D"/>
<rect x="14" y="5.3793" width="1" height="16.1379" fill="url(#paint9_linear_295_12607)"/>
<rect x="35" y="5.3793" width="1" height="16.1379" fill="url(#paint10_linear_295_12607)"/>
<rect x="56" y="5.3793" width="1" height="16.1379" fill="url(#paint11_linear_295_12607)"/>
<rect x="133" y="6.27588" width="1" height="12.5517" fill="#8D8F8D"/>
<rect x="91" y="4.48276" width="1" height="16.1379" fill="#8D8F8D"/>
<rect x="108.5" y="4.48276" width="1" height="16.1379" fill="#8D8F8D"/>
<rect x="77" y="5.3793" width="1" height="16.1379" fill="#8D8F8D"/>
<rect x="17.5" y="2.68967" width="1" height="21.5172" fill="url(#paint12_linear_295_12607)"/>
<rect x="73.5" y="2.68967" width="1" height="21.5172" fill="#8D8F8D"/>
<rect x="31.5" y="2.68967" width="1" height="21.5172" fill="url(#paint13_linear_295_12607)"/>
<rect x="59.5" y="2.68967" width="1" height="21.5172" fill="#8D8F8D"/>
<rect x="136.5" y="6.27588" width="1" height="12.5517" fill="#8D8F8D"/>
<rect x="94.5" y="1.79309" width="1" height="21.5172" fill="#8D8F8D"/>
<rect x="112" y="1.79309" width="1" height="21.5172" fill="#8D8F8D"/>
<rect x="21" y="1.79309" width="1" height="23.3103" fill="url(#paint14_linear_295_12607)"/>
<rect x="24.5" y="0.896545" width="1" height="25.1034" fill="url(#paint15_linear_295_12607)"/>
<rect x="66.5" y="0.896545" width="1" height="25.1034" fill="#8D8F8D"/>
<rect x="101.5" width="1" height="25.1034" fill="#8D8F8D"/>
<rect x="119" y="3.58621" width="1" height="17.931" fill="#8D8F8D"/>
<rect x="28" y="1.79309" width="1" height="23.3103" fill="url(#paint16_linear_295_12607)"/>
<rect x="70" y="1.79309" width="1" height="23.3103" fill="#8D8F8D"/>
<rect x="105" y="0.896545" width="1" height="23.3103" fill="#8D8F8D"/>
<rect x="122.5" y="2.68967" width="1" height="19.7241" fill="#8D8F8D"/>
<rect x="63" y="1.79309" width="1" height="23.3103" fill="#8D8F8D"/>
<rect x="98" y="0.896545" width="1" height="23.3103" fill="#8D8F8D"/>
<rect x="115.5" y="0.896545" width="1" height="23.3103" fill="#8D8F8D"/>
<defs>
<linearGradient id="paint0_linear_295_12607" x1="0.28" y1="8.74139" x2="2.09879" y2="8.94106" gradientUnits="userSpaceOnUse">
<stop stop-color="#5F95FF"/>
<stop offset="1" stop-color="#226DFF"/>
</linearGradient>
<linearGradient id="paint1_linear_295_12607" x1="42.28" y1="8.74139" x2="44.0988" y2="8.94106" gradientUnits="userSpaceOnUse">
<stop stop-color="#5F95FF"/>
<stop offset="1" stop-color="#226DFF"/>
</linearGradient>
<linearGradient id="paint2_linear_295_12607" x1="3.78" y1="8.74139" x2="5.59879" y2="8.94106" gradientUnits="userSpaceOnUse">
<stop stop-color="#5F95FF"/>
<stop offset="1" stop-color="#226DFF"/>
</linearGradient>
<linearGradient id="paint3_linear_295_12607" x1="45.78" y1="8.74139" x2="47.5988" y2="8.94106" gradientUnits="userSpaceOnUse">
<stop stop-color="#5F95FF"/>
<stop offset="1" stop-color="#226DFF"/>
</linearGradient>
<linearGradient id="paint4_linear_295_12607" x1="7.28" y1="8.74139" x2="9.09879" y2="8.94106" gradientUnits="userSpaceOnUse">
<stop stop-color="#5F95FF"/>
<stop offset="1" stop-color="#226DFF"/>
</linearGradient>
<linearGradient id="paint5_linear_295_12607" x1="49.28" y1="8.74139" x2="51.0988" y2="8.94106" gradientUnits="userSpaceOnUse">
<stop stop-color="#5F95FF"/>
<stop offset="1" stop-color="#226DFF"/>
</linearGradient>
<linearGradient id="paint6_linear_295_12607" x1="10.78" y1="8.06898" x2="12.6039" y2="8.24418" gradientUnits="userSpaceOnUse">
<stop stop-color="#5F95FF"/>
<stop offset="1" stop-color="#226DFF"/>
</linearGradient>
<linearGradient id="paint7_linear_295_12607" x1="38.78" y1="8.06898" x2="40.6039" y2="8.24418" gradientUnits="userSpaceOnUse">
<stop stop-color="#5F95FF"/>
<stop offset="1" stop-color="#226DFF"/>
</linearGradient>
<linearGradient id="paint8_linear_295_12607" x1="52.78" y1="8.06898" x2="54.6039" y2="8.24418" gradientUnits="userSpaceOnUse">
<stop stop-color="#5F95FF"/>
<stop offset="1" stop-color="#226DFF"/>
</linearGradient>
<linearGradient id="paint9_linear_295_12607" x1="14.28" y1="7.39654" x2="16.1074" y2="7.55258" gradientUnits="userSpaceOnUse">
<stop stop-color="#5F95FF"/>
<stop offset="1" stop-color="#226DFF"/>
</linearGradient>
<linearGradient id="paint10_linear_295_12607" x1="35.28" y1="7.39654" x2="37.1074" y2="7.55258" gradientUnits="userSpaceOnUse">
<stop stop-color="#5F95FF"/>
<stop offset="1" stop-color="#226DFF"/>
</linearGradient>
<linearGradient id="paint11_linear_295_12607" x1="56.28" y1="7.39654" x2="58.1074" y2="7.55258" gradientUnits="userSpaceOnUse">
<stop stop-color="#5F95FF"/>
<stop offset="1" stop-color="#226DFF"/>
</linearGradient>
<linearGradient id="paint12_linear_295_12607" x1="17.78" y1="5.37932" x2="19.6132" y2="5.49672" gradientUnits="userSpaceOnUse">
<stop stop-color="#5F95FF"/>
<stop offset="1" stop-color="#226DFF"/>
</linearGradient>
<linearGradient id="paint13_linear_295_12607" x1="31.78" y1="5.37932" x2="33.6132" y2="5.49672" gradientUnits="userSpaceOnUse">
<stop stop-color="#5F95FF"/>
<stop offset="1" stop-color="#226DFF"/>
</linearGradient>
<linearGradient id="paint14_linear_295_12607" x1="21.28" y1="4.70688" x2="23.1143" y2="4.81532" gradientUnits="userSpaceOnUse">
<stop stop-color="#5F95FF"/>
<stop offset="1" stop-color="#226DFF"/>
</linearGradient>
<linearGradient id="paint15_linear_295_12607" x1="24.78" y1="4.03448" x2="26.6152" y2="4.13521" gradientUnits="userSpaceOnUse">
<stop stop-color="#5F95FF"/>
<stop offset="1" stop-color="#226DFF"/>
</linearGradient>
<linearGradient id="paint16_linear_295_12607" x1="28.28" y1="4.70688" x2="30.1143" y2="4.81532" gradientUnits="userSpaceOnUse">
<stop stop-color="#5F95FF"/>
<stop offset="1" stop-color="#226DFF"/>
</linearGradient>
</defs>
</svg>
