<svg width="28" height="28" viewBox="0 0 28 28" fill="none" xmlns="http://www.w3.org/2000/svg">
<path d="M19.8333 11.6667H22.1666C24.5 11.6667 25.6666 10.5 25.6666 8.16671V5.83337C25.6666 3.50004 24.5 2.33337 22.1666 2.33337H19.8333C17.5 2.33337 16.3333 3.50004 16.3333 5.83337V8.16671C16.3333 10.5 17.5 11.6667 19.8333 11.6667Z" stroke="#8D8F8D" stroke-width="1.5" stroke-miterlimit="10" stroke-linecap="round" stroke-linejoin="round"/>
<path d="M5.83331 25.6667H8.16665C10.5 25.6667 11.6666 24.5 11.6666 22.1667V19.8334C11.6666 17.5 10.5 16.3334 8.16665 16.3334H5.83331C3.49998 16.3334 2.33331 17.5 2.33331 19.8334V22.1667C2.33331 24.5 3.49998 25.6667 5.83331 25.6667Z" stroke="#8D8F8D" stroke-width="1.5" stroke-miterlimit="10" stroke-linecap="round" stroke-linejoin="round"/>
<path d="M6.99998 11.6667C9.57731 11.6667 11.6666 9.57737 11.6666 7.00004C11.6666 4.42271 9.57731 2.33337 6.99998 2.33337C4.42265 2.33337 2.33331 4.42271 2.33331 7.00004C2.33331 9.57737 4.42265 11.6667 6.99998 11.6667Z" stroke="#8D8F8D" stroke-width="1.5" stroke-miterlimit="10" stroke-linecap="round" stroke-linejoin="round"/>
<path d="M21 25.6667C23.5773 25.6667 25.6666 23.5773 25.6666 21C25.6666 18.4228 23.5773 16.3334 21 16.3334C18.4227 16.3334 16.3333 18.4228 16.3333 21C16.3333 23.5773 18.4227 25.6667 21 25.6667Z" stroke="#8D8F8D" stroke-width="1.5" stroke-miterlimit="10" stroke-linecap="round" stroke-linejoin="round"/>
</svg>
