<svg width="28" height="28" viewBox="0 0 28 28" fill="none" xmlns="http://www.w3.org/2000/svg">
<path d="M19.8334 11.6667H22.1667C24.5 11.6667 25.6667 10.5 25.6667 8.16671V5.83337C25.6667 3.50004 24.5 2.33337 22.1667 2.33337H19.8334C17.5 2.33337 16.3334 3.50004 16.3334 5.83337V8.16671C16.3334 10.5 17.5 11.6667 19.8334 11.6667Z" fill="#0D9769"/>
<path d="M5.83337 25.6667H8.16671C10.5 25.6667 11.6667 24.5 11.6667 22.1667V19.8334C11.6667 17.5 10.5 16.3334 8.16671 16.3334H5.83337C3.50004 16.3334 2.33337 17.5 2.33337 19.8334V22.1667C2.33337 24.5 3.50004 25.6667 5.83337 25.6667Z" fill="#0D9769"/>
<path d="M7.00004 11.6667C9.57737 11.6667 11.6667 9.57737 11.6667 7.00004C11.6667 4.42271 9.57737 2.33337 7.00004 2.33337C4.42271 2.33337 2.33337 4.42271 2.33337 7.00004C2.33337 9.57737 4.42271 11.6667 7.00004 11.6667Z" fill="#0D9769"/>
<path d="M21 25.6667C23.5773 25.6667 25.6667 23.5773 25.6667 21C25.6667 18.4228 23.5773 16.3334 21 16.3334C18.4228 16.3334 16.3334 18.4228 16.3334 21C16.3334 23.5773 18.4228 25.6667 21 25.6667Z" fill="#0D9769"/>
</svg>
