<svg width="28" height="28" viewBox="0 0 28 28" fill="none" xmlns="http://www.w3.org/2000/svg">
<path d="M24.3017 9.34506L16.66 3.23173C15.1667 2.04173 12.8334 2.03006 11.3517 3.22006L3.71 9.34506C2.61333 10.2201 1.94833 11.97 2.18166 13.3467L3.65166 22.1434C3.99 24.115 5.82166 25.6667 7.81666 25.6667H20.1834C22.155 25.6667 24.0217 24.08 24.36 22.1317L25.83 13.335C26.04 11.97 25.375 10.2201 24.3017 9.34506ZM14.875 21C14.875 21.4784 14.4784 21.875 14 21.875C13.5217 21.875 13.125 21.4784 13.125 21V17.5C13.125 17.0217 13.5217 16.625 14 16.625C14.4784 16.625 14.875 17.0217 14.875 17.5V21Z" fill="#0D9769"/>
</svg>
