<svg width="28" height="28" viewBox="0 0 28 28" fill="none" xmlns="http://www.w3.org/2000/svg">
<path d="M14.1868 12.6817C14.0701 12.67 13.9301 12.67 13.8018 12.6817C11.0251 12.5884 8.82007 10.3134 8.82007 7.51337C8.82007 4.65504 11.1301 2.33337 14.0001 2.33337C16.8584 2.33337 19.1801 4.65504 19.1801 7.51337C19.1684 10.3134 16.9634 12.5884 14.1868 12.6817Z" stroke="#8D8F8D" stroke-width="1.5" stroke-linecap="round" stroke-linejoin="round"/>
<path d="M8.35358 16.9866C5.53025 18.8766 5.53025 21.9566 8.35358 23.835C11.5619 25.9816 16.8236 25.9816 20.0319 23.835C22.8552 21.945 22.8552 18.865 20.0319 16.9866C16.8352 14.8516 11.5736 14.8516 8.35358 16.9866Z" stroke="#8D8F8D" stroke-width="1.5" stroke-linecap="round" stroke-linejoin="round"/>
</svg>
