<svg width="26" height="30" viewBox="0 0 26 30" fill="none" xmlns="http://www.w3.org/2000/svg">
<path d="M18.6238 0C17.0244 0.110625 15.155 1.13437 14.0657 2.4675C13.0719 3.67687 12.2544 5.47312 12.5732 7.21875C14.3207 7.27312 16.1263 6.225 17.1725 4.86937C18.1513 3.6075 18.8919 1.8225 18.6238 0Z" fill="white"/>
<path d="M24.9444 10.0649C23.4088 8.13931 21.2507 7.02182 19.2126 7.02182C16.5219 7.02182 15.3838 8.30994 13.5145 8.30994C11.587 8.30994 10.1226 7.02557 7.79575 7.02557C5.51013 7.02557 3.0764 8.42244 1.53328 10.8112C-0.636079 14.1749 -0.264831 20.4992 3.25077 25.8861C4.50889 27.8136 6.18888 29.9811 8.38637 29.9998C10.342 30.0186 10.8932 28.7454 13.5426 28.7323C16.1919 28.7173 16.6944 30.0167 18.6463 29.9961C20.8457 29.9792 22.6175 27.5773 23.8757 25.6498C24.7775 24.268 25.1131 23.5723 25.8125 22.0124C20.7257 20.0755 19.91 12.8418 24.9444 10.0649Z" fill="white"/>
</svg>
