<svg width="37" height="37" viewBox="0 0 37 37" fill="none" xmlns="http://www.w3.org/2000/svg">
<g clip-path="url(#clip0_6871_3516)">
<path d="M25.912 8.83057C25.8597 8.77628 25.797 8.7331 25.7277 8.70361C25.6583 8.67412 25.5837 8.65892 25.5083 8.65894H11.4915C11.4157 8.65894 11.3406 8.67433 11.2709 8.70419C11.2011 8.73405 11.1382 8.77775 11.0858 8.83264C11.0335 8.88753 10.9928 8.95248 10.9663 9.02355C10.9398 9.09461 10.9279 9.17032 10.9315 9.24609L11.3034 17.0795C11.3081 17.1796 11.3397 17.2767 11.3947 17.3605C11.4497 17.4443 11.5262 17.5119 11.6162 17.5561L24.7305 23.9998C24.8074 24.0377 24.8919 24.0573 24.9776 24.0573C25.1227 24.0574 25.2622 24.0012 25.3667 23.9005C25.4712 23.7998 25.5326 23.6625 25.5378 23.5175L26.0685 9.24038C26.0713 9.16507 26.0589 9.08995 26.032 9.01954C26.0051 8.94913 25.9643 8.88485 25.912 8.83057Z" fill="#EB5764"/>
<path d="M25.912 8.83057C25.8597 8.77628 25.797 8.7331 25.7277 8.70361C25.6583 8.67412 25.5837 8.65892 25.5083 8.65894H11.4915C11.4157 8.65894 11.3406 8.67433 11.2709 8.70419C11.2011 8.73405 11.1382 8.77775 11.0858 8.83264C11.0335 8.88753 10.9928 8.95248 10.9663 9.02355C10.9398 9.09461 10.9279 9.17032 10.9315 9.24609L11.0034 10.7612C11.0034 10.7612 20.4445 9.89844 20.4625 13.7252L20.5431 21.9424L24.7304 23.9998C24.8073 24.0377 24.8919 24.0573 24.9776 24.0573C25.1227 24.0574 25.2621 24.0012 25.3666 23.9005C25.4711 23.7998 25.5325 23.6625 25.5378 23.5175L26.0684 9.24038C26.0713 9.16507 26.0589 9.08995 26.032 9.01954C26.0051 8.94912 25.9643 8.88485 25.912 8.83057Z" fill="black" fill-opacity="0.0627451"/>
<path d="M18.5059 6.96132L17.3476 2.63868C17.0694 1.60044 16.351 0.752114 15.3767 0.311294C14.4228 -0.120276 13.3389 -0.102355 12.4029 0.360362C10.8719 1.11734 7.39944 3.13356 7.2523 3.21897C6.45052 3.68487 6.17714 4.71617 6.64289 5.51796C7.10871 6.31975 8.14016 6.59298 8.94253 6.12709C8.97707 6.107 12.4601 4.08435 13.8939 3.3755C13.9087 3.3682 14.0633 3.35071 14.0985 3.50919L15.0972 7.23615L18.5059 6.96132Z" fill="#E2F2F6"/>
<path d="M13.9188 2.8558C13.7611 2.45285 13.2149 2.62 13.2005 2.62809C11.8253 3.39895 8.69679 5.12596 8.66225 5.14605C7.88973 5.5946 6.90634 5.35648 6.4184 4.62263C6.40872 4.92643 6.47932 5.23631 6.64293 5.51792C7.10875 6.31971 8.1402 6.59295 8.94257 6.12705C8.97711 6.10696 12.4601 4.08432 13.8939 3.37547C13.9054 3.36976 14.0008 3.35906 14.0595 3.42844L13.9188 2.8558ZM13.8619 0.322532C14.8715 0.779323 15.6159 1.65836 15.9042 2.73425L17.068 7.07727L18.506 6.96136L17.3477 2.63872C17.0695 1.60048 16.3511 0.752151 15.3768 0.311331C14.6725 -0.00728808 13.8975 -0.0801318 13.1632 0.0894033C13.4034 0.143196 13.6375 0.221309 13.8619 0.322532Z" fill="black" fill-opacity="0.0627451"/>
<path d="M26.2086 6.58289H10.7912C10.0957 6.58289 9.52989 7.14873 9.52989 7.84421V9.24226C9.52989 9.31588 9.54439 9.38879 9.57257 9.45681C9.60074 9.52483 9.64204 9.58663 9.6941 9.63869C9.74616 9.69075 9.80796 9.73205 9.87598 9.76022C9.944 9.7884 10.0169 9.8029 10.0905 9.8029H26.9094C27.0581 9.8029 27.2007 9.74383 27.3058 9.63869C27.411 9.53355 27.4701 9.39095 27.4701 9.24226V7.84421C27.47 7.14873 26.9041 6.58289 26.2086 6.58289Z" fill="#FFCD58"/>
<path d="M26.2086 6.58289H20.6026C21.2981 6.58289 21.8639 7.14873 21.8639 7.84421V9.24226C21.8639 9.39095 21.8048 9.53355 21.6997 9.63869C21.5945 9.74383 21.4519 9.8029 21.3032 9.8029H26.9092C27.0579 9.8029 27.2005 9.74383 27.3057 9.63869C27.4108 9.53355 27.4699 9.39095 27.4699 9.24226V7.84421C27.47 7.14873 26.9041 6.58289 26.2086 6.58289ZM27.9766 11.945C27.9344 11.884 27.8805 11.832 27.8181 11.792C27.7556 11.7519 27.6859 11.7247 27.6128 11.7118L25.6171 11.3599C25.4706 11.3341 25.32 11.3676 25.1982 11.4528C25.0764 11.5381 24.9935 11.6683 24.9677 11.8147L23.8692 18.0526C23.8562 18.1262 23.8581 18.2016 23.8747 18.2744L24.9617 23.045C24.9899 23.1688 25.0594 23.2794 25.1586 23.3586C25.2579 23.4379 25.3811 23.481 25.5082 23.481C25.5117 23.481 25.5152 23.481 25.519 23.4809C25.6478 23.4785 25.7719 23.4317 25.8703 23.3486C25.9687 23.2654 26.0354 23.1508 26.0592 23.0242L28.0664 12.3677C28.0801 12.2948 28.0793 12.2199 28.0638 12.1473C28.0484 12.0748 28.0188 12.006 27.9766 11.945Z" fill="#F2B841"/>
<path d="M27.9767 11.9449C27.9216 11.8654 27.8463 11.8045 27.7609 11.7627L26.2419 17.6156L24.8302 12.5949L23.8692 18.0525C23.8562 18.126 23.8581 18.2014 23.8746 18.2743L24.9015 22.7807L24.9617 23.0449C24.9899 23.1687 25.0593 23.2793 25.1586 23.3585C25.2579 23.4377 25.3811 23.4809 25.5081 23.4809C25.5117 23.4809 25.5152 23.4809 25.519 23.4808C25.6478 23.4784 25.7719 23.4316 25.8702 23.3484C25.9686 23.2652 26.0354 23.1507 26.0592 23.0241L26.7426 19.396L28.0665 12.3676C28.0802 12.2947 28.0793 12.2198 28.0639 12.1472C28.0485 12.0747 28.0188 12.0059 27.9767 11.9449Z" fill="black" fill-opacity="0.0627451"/>
<path d="M26.5763 24.395L24.3479 11.1849C24.3355 11.1119 24.3089 11.0422 24.2695 10.9796C24.2301 10.917 24.1787 10.8628 24.1183 10.8202C24.0579 10.7776 23.9896 10.7473 23.9174 10.7311C23.8453 10.715 23.7706 10.7132 23.6978 10.726L21.7019 11.0779C21.6292 11.0907 21.5598 11.1177 21.4977 11.1573C21.4355 11.197 21.3817 11.2485 21.3395 11.309C21.2973 11.3694 21.2674 11.4376 21.2516 11.5097C21.2358 11.5817 21.2343 11.6561 21.2473 11.7287L23.484 24.2399C23.5038 24.3506 23.5565 24.4528 23.6351 24.5332C23.7138 24.6136 23.8147 24.6685 23.925 24.6907L25.9221 25.0937C25.9586 25.101 25.9957 25.1047 26.033 25.1047H26.0362C26.1848 25.1046 26.3273 25.0455 26.4323 24.9404C26.5373 24.8352 26.5963 24.6927 26.5963 24.5441C26.5964 24.4937 26.5897 24.4436 26.5763 24.395ZM29.8534 10.2903H27.8267C27.678 10.2903 27.5354 10.3493 27.4302 10.4545C27.3251 10.5596 27.266 10.7022 27.266 10.8509V24.5441C27.2661 24.6403 27.2908 24.7349 27.3379 24.8187C27.385 24.9026 27.4529 24.9729 27.5351 25.023C27.6173 25.073 27.7109 25.101 27.807 25.1044C27.9032 25.1077 27.9986 25.0863 28.084 25.0422L30.1107 23.9947C30.202 23.9475 30.2786 23.8761 30.3321 23.7882C30.3856 23.7004 30.4139 23.5995 30.4139 23.4967V10.8509C30.4139 10.7773 30.3994 10.7044 30.3712 10.6364C30.3431 10.5684 30.3018 10.5066 30.2497 10.4545C30.1977 10.4024 30.1359 10.3611 30.0679 10.333C29.9999 10.3048 29.927 10.2903 29.8534 10.2903Z" fill="#E08726"/>
<path d="M23.4055 20.7679L21.1156 12.4303C21.0764 12.2875 20.9823 12.166 20.8538 12.0924C20.7253 12.0187 20.5729 11.999 20.4298 12.0374L18.4722 12.5619C18.4005 12.581 18.3335 12.6142 18.2748 12.6595C18.2161 12.7048 18.167 12.7613 18.1303 12.8257C18.0935 12.8901 18.0699 12.9611 18.0608 13.0347C18.0517 13.1082 18.0573 13.1829 18.0773 13.2542L19.8984 19.7721C19.9184 19.8437 19.9525 19.9107 19.9987 19.969C20.0448 20.0274 20.1021 20.076 20.1672 20.112L22.6085 21.4609C22.6914 21.5069 22.7847 21.531 22.8795 21.5309C22.8806 21.5309 22.8819 21.531 22.8824 21.5309C22.956 21.5309 23.0289 21.5164 23.0969 21.4882C23.165 21.4601 23.2268 21.4188 23.2788 21.3667C23.3309 21.3147 23.3722 21.2528 23.4004 21.1848C23.4285 21.1168 23.443 21.0439 23.443 20.9703C23.443 20.8989 23.4297 20.8307 23.4055 20.7679Z" fill="#F2B841"/>
<path d="M20.5548 18.9999L17.6579 13.9554C17.6211 13.8915 17.5722 13.8354 17.5137 13.7905C17.4553 13.7455 17.3886 13.7125 17.3174 13.6933C17.2462 13.6742 17.172 13.6692 17.0989 13.6788C17.0258 13.6884 16.9553 13.7123 16.8914 13.7491L15.1362 14.7625C15.0079 14.8366 14.9141 14.9585 14.8754 15.1016C14.8367 15.2447 14.8562 15.3972 14.9297 15.5259L16.5765 18.4102C16.6399 18.5212 16.7393 18.6072 16.8583 18.6539L19.8891 19.8452C19.9543 19.871 20.0238 19.8842 20.094 19.8841H20.1005C20.2486 19.8831 20.3902 19.8236 20.4945 19.7186C20.5989 19.6136 20.6574 19.4715 20.6574 19.3235C20.6577 19.2076 20.6218 19.0945 20.5548 18.9999Z" fill="#E08726"/>
<path d="M29.8534 10.2903H29.3414C29.3473 10.3226 29.3526 10.3553 29.3536 10.3893L29.7577 24.1258C29.7582 24.1434 29.7567 24.1607 29.7559 24.1781L30.1108 23.9947C30.2021 23.9475 30.2787 23.8761 30.3322 23.7882C30.3856 23.7004 30.4139 23.5995 30.4139 23.4967V10.8509C30.4139 10.7773 30.3994 10.7044 30.3713 10.6364C30.3431 10.5684 30.3018 10.5066 30.2498 10.4545C30.1977 10.4024 30.1359 10.3611 30.0679 10.333C29.9999 10.3048 29.927 10.2903 29.8534 10.2903Z" fill="black" fill-opacity="0.0627451"/>
<path d="M33.5699 12.3455L31.574 11.9936C31.4277 11.9679 31.2772 12.0012 31.1555 12.0863C31.0338 12.1714 30.9508 12.3013 30.9247 12.4476L28.8096 24.3409C28.7879 24.463 28.8073 24.5888 28.8647 24.6987C28.9222 24.8085 29.0144 24.8963 29.127 24.9482C29.2396 25 29.3663 25.0131 29.4871 24.9853C29.6079 24.9576 29.7162 24.8906 29.7948 24.7947L32.4471 21.5636C32.5083 21.489 32.5492 21.3999 32.5659 21.3048L34.0247 12.9945C34.0504 12.8481 34.017 12.6975 33.9317 12.5758C33.8464 12.4541 33.7163 12.3712 33.5699 12.3455Z" fill="#F2B841"/>
<path d="M36.5862 14.0946L34.6818 13.4014C34.6111 13.3757 34.536 13.3645 34.4609 13.3684C34.3857 13.3724 34.3122 13.3914 34.2445 13.4243C34.1769 13.4573 34.1166 13.5035 34.0672 13.5602C34.0178 13.6169 33.9803 13.683 33.957 13.7545L31.9994 19.763C31.972 19.8471 31.9649 19.9366 31.9787 20.024C31.9925 20.1114 32.0268 20.1944 32.0787 20.266C32.1307 20.3376 32.199 20.3959 32.2778 20.4361C32.3567 20.4763 32.4439 20.4973 32.5324 20.4973H34.7223C34.8416 20.4973 34.9577 20.4592 35.0539 20.3886C35.1501 20.3181 35.2212 20.2187 35.257 20.1049L36.9291 14.7896C36.9725 14.6519 36.961 14.5027 36.8971 14.3733C36.8332 14.2438 36.7218 14.144 36.5862 14.0946Z" fill="#E08726"/>
<path d="M36.6187 14.1101L33.9392 20.4972H34.7224C34.8417 20.4972 34.9578 20.4592 35.054 20.3886C35.1502 20.318 35.2213 20.2186 35.2571 20.1048L36.9292 14.7895C37.0156 14.5151 36.8786 14.2241 36.6187 14.1101ZM33.57 12.3454L33.4969 12.3325L30.7894 23.5831L32.4471 21.5635C32.5083 21.4889 32.5492 21.3998 32.5659 21.3047L34.0247 12.9944C34.0504 12.848 34.017 12.6974 33.9317 12.5757C33.8464 12.454 33.7163 12.3712 33.57 12.3454ZM26.5764 24.395L24.3479 11.1849C24.3356 11.1119 24.309 11.0422 24.2696 10.9796C24.2302 10.917 24.1788 10.8628 24.1184 10.8201C24.0364 10.7622 23.9407 10.7303 23.8424 10.7219L25.6294 25.0346L25.9222 25.0936C25.9587 25.1009 25.9958 25.1046 26.033 25.1047H26.0363C26.1849 25.1045 26.3273 25.0454 26.4324 24.9403C26.5374 24.8352 26.5964 24.6926 26.5963 24.544C26.5965 24.4937 26.5898 24.4436 26.5764 24.395ZM23.4055 20.7679L21.1156 12.4304C21.061 12.2318 20.9058 12.0898 20.72 12.0397C20.7234 12.0532 20.7285 12.0656 20.731 12.0796L22.3799 21.3346L22.6085 21.4609C22.6914 21.5068 22.7847 21.5309 22.8795 21.5308C22.8806 21.5308 22.8819 21.531 22.8824 21.5308C22.956 21.5308 23.0289 21.5164 23.0969 21.4882C23.165 21.46 23.2268 21.4187 23.2788 21.3667C23.3309 21.3146 23.3722 21.2528 23.4004 21.1848C23.4285 21.1167 23.443 21.0438 23.443 20.9702C23.443 20.8989 23.4297 20.8307 23.4055 20.7679ZM20.5548 18.9999L17.7187 14.0612L19.62 19.7394L19.8891 19.8452C19.9544 19.8709 20.0239 19.8841 20.094 19.8841H20.1006C20.2486 19.8831 20.3903 19.8236 20.4946 19.7185C20.5989 19.6135 20.6575 19.4715 20.6575 19.3234C20.6577 19.2075 20.6219 19.0944 20.5548 18.9999Z" fill="black" fill-opacity="0.0627451"/>
<path d="M36.8627 18.3388C36.8101 18.2781 36.745 18.2295 36.672 18.1961C36.5989 18.1628 36.5195 18.1455 36.4392 18.1455H32.5111C32.3818 18.1455 32.2565 18.1902 32.1564 18.272C32.0563 18.3538 31.9875 18.4677 31.9618 18.5944C31.4181 21.269 29.0391 23.2104 26.3051 23.2104C25.8797 23.2105 25.4556 23.164 25.0403 23.0716C24.917 23.0443 24.7882 23.0594 24.6745 23.1143C24.5608 23.1692 24.469 23.2608 24.4138 23.3744L18.2015 36.195C18.1601 36.2805 18.1411 36.375 18.1462 36.4699C18.1514 36.5647 18.1806 36.6566 18.231 36.7371C18.2814 36.8175 18.3515 36.8839 18.4345 36.9299C18.5176 36.9759 18.611 37 18.7059 37H33.9043C34.0393 37 34.1697 36.9513 34.2716 36.863C34.3735 36.7746 34.4402 36.6524 34.4593 36.5188L36.9942 18.7856C37.0056 18.706 36.9997 18.625 36.977 18.5479C36.9543 18.4708 36.9153 18.3995 36.8627 18.3388Z" fill="#EB5764"/>
<path d="M30.105 27.2719H22.7745V33.4597H30.1051C31.1127 33.4597 31.9324 32.64 31.9324 31.6325V29.0991C31.9323 28.0915 31.1127 27.2719 30.105 27.2719Z" fill="#8C9B9A"/>
<path d="M26.624 31.148C26.5203 31.0923 26.4143 31.0407 26.3065 30.9934C26.5788 30.7182 26.7407 30.3737 26.7407 29.9939C26.7407 29.7568 26.6773 29.5333 26.564 29.3315C27.1298 29.19 27.529 28.7812 27.529 28.2854V27.094C27.529 23.0402 23.1147 18.6153 17.4722 17.3842V37H33.9043C34.0393 37 34.1697 36.9513 34.2716 36.8629C34.3736 36.7745 34.4402 36.6524 34.4593 36.5188L35.9644 25.9901C33.8153 28.8192 30.4639 30.7645 26.624 31.148Z" fill="black" fill-opacity="0.0627451"/>
<path opacity="0.5" d="M26.3051 24.8923C26.1564 24.8923 26.0138 24.9514 25.9087 25.0565C25.8036 25.1616 25.7445 25.3042 25.7445 25.4529C25.7445 25.6016 25.8036 25.7442 25.9087 25.8494C26.0138 25.9545 26.1564 26.0136 26.3051 26.0136C29.7893 26.0136 32.9942 23.8359 34.2799 20.5948C34.307 20.5264 34.3204 20.4533 34.3193 20.3797C34.3182 20.3061 34.3026 20.2334 34.2734 20.1658C34.2442 20.0982 34.202 20.0371 34.1492 19.9858C34.0964 19.9346 34.0339 19.8942 33.9655 19.8671C33.6782 19.7528 33.352 19.8936 33.2378 20.1814C32.1199 22.999 29.334 24.8923 26.3051 24.8923Z" fill="white"/>
<path d="M24.2179 29.96H2.14432C1.99563 29.96 1.85303 30.019 1.74789 30.1242C1.64275 30.2293 1.58368 30.3719 1.58368 30.5206V33.9566C1.58368 35.364 3.20604 36.9999 5.2977 36.9999H21.0645C23.1561 36.9999 24.7786 35.364 24.7786 33.9566V30.5206C24.7785 30.3719 24.7195 30.2293 24.6143 30.1242C24.5092 30.0191 24.3666 29.96 24.2179 29.96Z" fill="#9B5E26"/>
<path d="M22.6412 26.4537H3.72101C2.52255 26.4537 1.58368 27.2098 1.58368 28.1751C1.58368 29.1404 2.52248 29.8966 3.72101 29.8966H22.6412C23.8398 29.8966 24.7786 29.1404 24.7786 28.1751C24.7786 27.2098 23.8398 26.4537 22.6412 26.4537Z" fill="#FFCD58"/>
<path opacity="0.1" d="M24.7437 34.3165C24.7534 34.2632 24.7612 34.2095 24.7669 34.1557C24.7684 34.1411 24.7702 34.1266 24.7714 34.1121C24.7757 34.0601 24.7785 34.0082 24.7785 33.9567V30.5207C24.7785 30.4905 24.7749 30.4613 24.7696 30.4326C24.7658 30.4098 24.7605 30.3873 24.7539 30.3652C24.6861 30.1318 24.4732 29.9601 24.2179 29.9601H17.1753V30.0398H4.86808C3.60473 30.0398 2.38424 30.5101 1.58368 31.2999V33.9567C1.58368 34.2107 1.63723 34.4721 1.73616 34.7301C1.86682 34.7666 2.00614 34.7867 2.15328 34.7867H2.16867C3.11997 34.7781 3.69622 34.3084 4.15923 33.931C4.5379 33.6223 4.75896 33.4536 5.06797 33.4671C5.41173 33.4824 5.70665 33.6924 6.08005 33.9582C6.56712 34.3048 7.17321 34.7364 8.04589 34.7364C8.95875 34.7364 9.53167 34.2794 9.99193 33.9122C10.364 33.6153 10.5888 33.4472 10.8857 33.4443C11.1047 33.4443 11.3504 33.63 11.6613 33.8653C12.1449 34.2311 12.807 34.7322 13.8031 34.7322C13.832 34.7322 13.8613 34.7316 13.8827 34.7311C13.9095 34.7318 13.9387 34.733 13.9626 34.7322C14.9584 34.7321 15.6206 34.2311 16.1041 33.8654C16.415 33.6301 16.6607 33.4443 16.884 33.4443H16.8841C16.9258 33.4447 16.9659 33.4494 17.0055 33.4564C16.5934 34.5785 15.4711 35.5986 14.1064 35.5986H2.25799C2.92305 36.3918 4.02279 37 5.2977 37H21.0645C22.9036 37 24.3794 35.7352 24.7091 34.4731C24.7104 34.4682 24.7114 34.4632 24.7127 34.4583C24.7245 34.4114 24.7349 34.3641 24.7437 34.3165ZM22.6412 26.4537H3.72101C2.53918 26.4537 1.61165 27.1894 1.58614 28.1356H17.0352C18.2338 28.1356 18.752 28.8916 18.752 29.8569C18.752 29.8704 18.75 29.8833 18.7497 29.8966H22.6412C23.8398 29.8966 24.7786 29.1404 24.7786 28.1751C24.7786 27.2098 23.8398 26.4537 22.6412 26.4537Z" fill="black"/>
<path d="M13.1811 16.2577C6.35161 16.2577 0.795319 20.2383 0.795319 25.1311V26.3817C0.795319 27.029 1.41261 27.5361 2.2006 27.5361H24.1617C24.9496 27.5361 25.5669 27.029 25.5669 26.3817V25.1311C25.5669 20.2383 20.0107 16.2577 13.1811 16.2577Z" fill="#E08726"/>
<path d="M13.4963 21.7069C13.6092 21.7069 13.7194 21.6729 13.8126 21.6092C13.9058 21.5455 13.9776 21.4552 14.0186 21.3501C14.0597 21.2449 14.068 21.1298 14.0426 21.0199C14.0171 20.9099 13.9591 20.8102 13.8761 20.7338L13.2454 20.1533C13.1359 20.053 12.9911 20.0003 12.8428 20.0066C12.6945 20.0129 12.5547 20.0779 12.4542 20.1871C12.3537 20.2963 12.3006 20.441 12.3065 20.5893C12.3125 20.7377 12.3771 20.8776 12.4861 20.9784L13.1168 21.5588C13.2202 21.6542 13.3557 21.707 13.4963 21.7069ZM8.857 20.5889L8.22633 21.1693C8.1197 21.2707 8.05719 21.4099 8.05228 21.557C8.04737 21.704 8.10046 21.8471 8.20009 21.9554C8.29973 22.0636 8.43793 22.1284 8.58488 22.1357C8.73183 22.143 8.87576 22.0922 8.98563 21.9944L9.61629 21.4139C9.72293 21.3125 9.78544 21.1733 9.79035 21.0263C9.79526 20.8792 9.74217 20.7361 9.64253 20.6279C9.5429 20.5196 9.4047 20.4548 9.25775 20.4475C9.11079 20.4402 8.96686 20.491 8.857 20.5889ZM12.0494 22.4733H11.1574C11.0087 22.4733 10.8661 22.5324 10.761 22.6375C10.6559 22.7427 10.5968 22.8853 10.5968 23.034C10.5968 23.1827 10.6559 23.3253 10.761 23.4304C10.8661 23.5355 11.0087 23.5946 11.1574 23.5946H12.0494C12.1981 23.5946 12.3407 23.5355 12.4458 23.4304C12.551 23.3253 12.61 23.1827 12.61 23.034C12.61 22.8853 12.551 22.7427 12.4458 22.6375C12.3407 22.5324 12.1981 22.4733 12.0494 22.4733ZM15.9274 23.7366L16.5581 23.1563C16.6122 23.1065 16.656 23.0465 16.687 22.9797C16.718 22.9129 16.7355 22.8407 16.7385 22.7671C16.7416 22.6936 16.7301 22.6201 16.7048 22.551C16.6795 22.4819 16.6408 22.4185 16.5909 22.3643C16.5411 22.3101 16.4811 22.2663 16.4143 22.2353C16.3475 22.2043 16.2753 22.1868 16.2017 22.1837C16.1282 22.1807 16.0547 22.1921 15.9856 22.2175C15.9165 22.2428 15.853 22.2815 15.7988 22.3313L15.1682 22.9116C15.114 22.9615 15.0702 23.0215 15.0392 23.0883C15.0082 23.1551 14.9907 23.2273 14.9877 23.3008C14.9846 23.3744 14.9961 23.4478 15.0214 23.5169C15.0467 23.586 15.0854 23.6495 15.1353 23.7037C15.1877 23.7608 15.2515 23.8065 15.3225 23.8376C15.3936 23.8688 15.4703 23.8849 15.5479 23.8848C15.6886 23.8849 15.8241 23.832 15.9274 23.7366ZM18.2023 21.4166C18.351 21.4166 18.4936 21.3575 18.5987 21.2524C18.7039 21.1473 18.763 21.0047 18.763 20.856C18.763 20.7073 18.7039 20.5647 18.5987 20.4595C18.4936 20.3544 18.351 20.2953 18.2023 20.2953H17.3104C17.1617 20.2953 17.0191 20.3544 16.914 20.4595C16.8088 20.5647 16.7498 20.7073 16.7498 20.856C16.7498 21.0047 16.8088 21.1473 16.914 21.2524C17.0191 21.3575 17.1617 21.4166 17.3104 21.4166H18.2023ZM20.8844 23.5945C21.0331 23.5945 21.1757 23.5355 21.2808 23.4303C21.386 23.3252 21.445 23.1826 21.445 23.0339C21.445 22.8852 21.386 22.7426 21.2808 22.6375C21.1757 22.5323 21.0331 22.4733 20.8844 22.4733H19.9924C19.8437 22.4733 19.7011 22.5323 19.596 22.6375C19.4908 22.7426 19.4318 22.8852 19.4318 23.0339C19.4318 23.1826 19.4908 23.3252 19.596 23.4303C19.7011 23.5355 19.8437 23.5945 19.9924 23.5945H20.8844ZM5.35363 22.3643C5.25297 22.4737 5.19988 22.6186 5.20605 22.7671C5.21222 22.9156 5.27713 23.0556 5.38651 23.1563L6.01717 23.7366C6.12053 23.832 6.25603 23.8848 6.39664 23.8847C6.47422 23.8848 6.55098 23.8688 6.62202 23.8376C6.69307 23.8064 6.75684 23.7608 6.80928 23.7036C6.90994 23.5942 6.96303 23.4493 6.95686 23.3008C6.95069 23.1522 6.88578 23.0122 6.7764 22.9116L6.14573 22.3313C6.09156 22.2814 6.02809 22.2427 5.95896 22.2174C5.88984 22.1921 5.8164 22.1807 5.74284 22.1837C5.66929 22.1868 5.59706 22.2043 5.53028 22.2353C5.4635 22.2663 5.40347 22.3101 5.35363 22.3643Z" fill="#F2B841"/>
<path opacity="0.5" d="M13.1811 17.9396C8.62162 17.9396 4.43448 19.9953 2.99885 22.9388C2.96658 23.0049 2.94765 23.0768 2.94315 23.1503C2.93866 23.2238 2.94868 23.2974 2.97265 23.367C2.99662 23.4366 3.03407 23.5009 3.08286 23.556C3.13164 23.6111 3.19081 23.6561 3.25698 23.6884C3.33336 23.7258 3.41728 23.7453 3.50233 23.7453C3.60745 23.7454 3.71048 23.7159 3.79965 23.6602C3.88882 23.6045 3.96053 23.5249 4.0066 23.4304C5.26142 20.8576 9.03419 19.0608 13.1811 19.0608C13.3298 19.0608 13.4724 19.0018 13.5776 18.8966C13.6827 18.7915 13.7418 18.6489 13.7418 18.5002C13.7418 18.3515 13.6827 18.2089 13.5776 18.1038C13.4724 17.9986 13.3298 17.9396 13.1811 17.9396Z" fill="white"/>
<path opacity="0.1" d="M13.1812 16.2577C12.6103 16.2577 12.0487 16.2861 11.4982 16.3399C15.0169 17.7318 17.4732 20.8334 17.4732 24.4304V25.6809C17.4732 26.3283 16.9685 26.8354 16.3244 26.8354H0.904251C1.11483 27.251 1.60971 27.5361 2.20062 27.5361H24.1617C24.9496 27.5361 25.5669 27.029 25.5669 26.3817V25.1311C25.5669 20.2383 20.0107 16.2577 13.1812 16.2577Z" fill="black"/>
<path d="M22.1968 28.7784H4.16727C2.87531 28.7784 1.62706 29.2694 0.828096 30.0917C0.274975 30.661 -0.018785 31.353 0.00101579 32.0402C0.0261642 32.9146 0.623078 33.5254 1.45254 33.5254H1.46794C2.41924 33.5168 2.99549 33.047 3.45849 32.6697C3.83716 32.361 4.05822 32.1923 4.36723 32.2059C4.711 32.2212 5.00592 32.4311 5.37931 32.6969C5.86638 33.0436 6.47247 33.4751 7.34515 33.4751C8.25801 33.4751 8.83094 33.0181 9.2912 32.6509C9.66329 32.3541 9.88804 32.186 10.185 32.183C10.404 32.183 10.6496 32.3687 10.9606 32.604C11.4441 32.9698 12.1063 33.4709 13.1023 33.4709C13.1312 33.4709 13.1606 33.4704 13.182 33.4699C13.2088 33.4705 13.238 33.4718 13.2618 33.4709C14.2577 33.4708 14.9198 32.9698 15.4033 32.6042C15.7143 32.3689 15.96 32.183 16.1833 32.183H16.1834C16.476 32.1861 16.7008 32.3541 17.073 32.6509C17.5332 33.0181 18.1061 33.4751 19.019 33.4751C19.8917 33.4751 20.4979 33.0436 20.9849 32.6969C21.3582 32.4311 21.6531 32.2212 21.9969 32.2059C22.2804 32.1919 22.4913 32.3586 22.8456 32.662C23.2958 33.0474 23.856 33.5272 24.8099 33.5272C24.8472 33.5272 24.8853 33.5264 24.9238 33.5249C25.7892 33.49 26.3483 32.8768 26.3483 31.963C26.3483 30.1774 24.5247 28.7784 22.1968 28.7784Z" fill="#88BE4D"/>
<path opacity="0.1" d="M22.1968 28.7784H18.4466C19.2593 29.3562 19.7613 30.1857 19.7613 31.1222C19.7613 32.036 19.2022 32.6492 18.3368 32.684C18.2982 32.6856 18.2601 32.6864 18.2229 32.6864C17.2689 32.6864 16.7088 32.2065 16.2586 31.8211C15.9043 31.5177 15.6933 31.351 15.4099 31.365C15.0661 31.3803 14.7712 31.5902 14.3979 31.856C13.9108 32.2027 13.3046 32.6342 12.432 32.6342C11.5191 32.6342 10.9462 32.1772 10.4859 31.8101C10.1138 31.5132 9.88903 31.3451 9.59636 31.3421H9.59629C9.37291 31.3421 9.12728 31.528 8.81632 31.7633C8.33279 32.129 7.67062 32.6299 6.6748 32.6301C6.65096 32.6309 6.62176 32.6296 6.59495 32.629C6.57356 32.6295 6.54415 32.6301 6.51531 32.6301C5.51928 32.6301 4.85711 32.129 4.37358 31.7632C4.06262 31.5279 3.81699 31.3421 3.59795 31.3421C3.30101 31.3452 3.07619 31.5132 2.70417 31.8101C2.24391 32.1772 1.67106 32.6342 0.758128 32.6342C0.514882 32.6342 0.292954 32.5999 0.0879364 32.544C0.283704 33.1399 0.794261 33.5254 1.4526 33.5254H1.46799C2.4193 33.5168 2.99554 33.047 3.45855 32.6697C3.83722 32.361 4.05828 32.1923 4.36729 32.2059C4.71106 32.2212 5.00597 32.4311 5.37937 32.6969C5.86644 33.0436 6.47253 33.4751 7.34521 33.4751C8.25807 33.4751 8.83099 33.0181 9.29125 32.6509C9.66335 32.3541 9.88809 32.186 10.185 32.183C10.4041 32.183 10.6497 32.3687 10.9607 32.604C11.4442 32.9698 12.1064 33.4709 13.1024 33.4709C13.1313 33.4709 13.1606 33.4704 13.182 33.4699C13.2088 33.4705 13.238 33.4718 13.2619 33.4709C14.2577 33.4708 14.9199 32.9698 15.4034 32.6042C15.7144 32.3689 15.9601 32.183 16.1834 32.183H16.1834C16.476 32.1861 16.7009 32.3541 17.073 32.6509C17.5333 33.0181 18.1061 33.4751 19.0191 33.4751C19.8918 33.4751 20.4979 33.0436 20.985 32.6969C21.3582 32.4311 21.6532 32.2212 21.997 32.2059C22.2804 32.1919 22.4914 32.3586 22.8457 32.662C23.2958 33.0474 23.856 33.5272 24.81 33.5272C24.8472 33.5272 24.8853 33.5264 24.9239 33.5249C25.7893 33.49 26.3484 32.8768 26.3484 31.963C26.3483 30.1774 24.5247 28.7784 22.1968 28.7784Z" fill="black"/>
</g>
<defs>
<clipPath id="clip0_6871_3516">
<rect width="37" height="37" fill="white"/>
</clipPath>
</defs>
</svg>
