<svg width="37" height="37" viewBox="0 0 37 37" fill="none" xmlns="http://www.w3.org/2000/svg">
<path d="M1.40295 21.9177V37.0001H10.266L18.399 35.5316L26.7874 37.0001H35.395V21.9177H1.40295Z" fill="#EEE07D"/>
<path d="M8.64586 1.02823C7.43975 0.332677 5.86826 -0.298852 4.46558 0.151435C3.33354 0.514642 3.03884 1.38927 2.84575 2.45519C2.74133 3.03216 2.44576 3.52927 2.0926 3.98794C1.67541 4.53023 1.12352 5.11095 1.11672 5.83925C1.11022 6.58163 1.69795 7.24416 2.37573 7.48105C3.64544 7.92476 5.06141 7.00395 5.9794 6.20787C6.08896 6.11277 6.19649 6.01536 6.29925 5.91288L8.64586 1.02823ZM15.7006 1.02823C16.9068 0.332677 18.4782 -0.298852 19.8812 0.151435C21.0129 0.514714 21.3079 1.38927 21.501 2.45519C21.6055 3.03216 21.901 3.52927 22.2541 3.98794C22.6714 4.53023 23.2232 5.11095 23.2297 5.83925C23.2365 6.58163 22.6488 7.24416 21.9707 7.48105C20.7013 7.92476 19.285 7.00395 18.3673 6.20787C18.2573 6.11317 18.1505 6.01479 18.0472 5.91288L15.7006 1.02823Z" fill="#D2614C"/>
<path d="M20.5362 15.1719C20.5362 8.30245 19.5905 0.238037 12.1734 0.238037C4.75623 0.238037 3.81035 8.30245 3.81035 15.1719L12.1734 17.1756L20.5362 15.1719Z" fill="#E08778"/>
<path d="M20.0385 11.1644C20.0385 11.1644 18.2767 9.42585 18.9254 6.08299C18.9469 5.972 19.001 5.86992 19.0807 5.78977C19.1604 5.70963 19.2622 5.65505 19.3731 5.63299C22.6883 4.97328 24.0286 6.58148 24.0286 6.58148L20.0385 11.1644ZM34.4247 11.1644C34.4247 11.1644 36.1865 9.42585 35.5378 6.08299C35.5162 5.97201 35.4622 5.86995 35.3824 5.78981C35.3027 5.70967 35.2009 5.65508 35.09 5.63299C31.7748 4.97328 30.4345 6.58148 30.4345 6.58148L34.4247 11.1644Z" fill="#E1BA68"/>
<path d="M27.2314 5.91284C22.819 5.91284 19.2422 9.48999 19.2422 13.9025V16.6652H35.2213V13.9025C35.221 9.48999 31.6442 5.91284 27.2314 5.91284Z" fill="#EEE07D"/>
<path d="M23.4522 9.93537C23.3788 9.93537 23.3062 9.94981 23.2385 9.97788C23.1707 10.0059 23.1092 10.0471 23.0573 10.0989C23.0055 10.1508 22.9644 10.2123 22.9363 10.2801C22.9083 10.3478 22.8938 10.4204 22.8938 10.4938V11.1778C22.8938 11.486 23.1439 11.7361 23.4522 11.7361C23.7604 11.7361 24.0105 11.486 24.0105 11.1778V10.4938C24.0105 10.1852 23.7604 9.93537 23.4522 9.93537ZM31.011 9.93537C30.9377 9.93534 30.865 9.94976 30.7973 9.97782C30.7295 10.0059 30.6679 10.047 30.6161 10.0989C30.5642 10.1507 30.5231 10.2123 30.495 10.28C30.467 10.3478 30.4526 10.4204 30.4526 10.4938V11.1778C30.4526 11.3258 30.5114 11.4678 30.6161 11.5725C30.7208 11.6772 30.8628 11.736 31.0108 11.736C31.1589 11.736 31.3009 11.6772 31.4056 11.5725C31.5103 11.4678 31.5691 11.3258 31.5691 11.1778V10.4938C31.5691 10.4204 31.5547 10.3478 31.5267 10.2801C31.4987 10.2124 31.4576 10.1508 31.4057 10.0989C31.3539 10.0471 31.2924 10.0059 31.2246 9.97788C31.1569 9.94981 31.0843 9.93537 31.011 9.93537ZM26.2053 11.4375C26.5172 11.5718 26.865 11.6469 27.2315 11.6469C27.5981 11.6469 27.9459 11.5718 28.2578 11.4375C28.5853 11.2963 28.4854 10.8082 28.1288 10.8082H26.3343C25.9778 10.8082 25.8779 11.2966 26.2053 11.4375ZM29.2716 12.0407C29.1601 11.9432 29.0144 11.894 28.8667 11.9039C28.7189 11.9138 28.5811 11.982 28.4836 12.0934C28.384 12.2075 28.2327 12.2727 28.0678 12.2727C27.9029 12.2727 27.7515 12.2075 27.6518 12.0935C27.4398 11.851 27.0333 11.8391 26.8111 12.0935C26.7118 12.2075 26.5602 12.2727 26.3953 12.2727C26.2305 12.2727 26.0789 12.2073 25.9795 12.0935C25.882 11.9821 25.7442 11.9139 25.5965 11.904C25.4488 11.8941 25.3031 11.9433 25.1917 12.0408C25.1364 12.089 25.0912 12.1476 25.0587 12.2134C25.0261 12.2791 25.0068 12.3506 25.0019 12.4237C24.997 12.4969 25.0066 12.5703 25.0301 12.6398C25.0536 12.7093 25.0906 12.7734 25.1389 12.8286C25.4505 13.1851 25.9084 13.3894 26.3953 13.3894C26.694 13.3894 26.9816 13.3121 27.2314 13.1704C27.4866 13.3145 27.7748 13.3899 28.0678 13.3894C28.5548 13.3894 29.013 13.1848 29.3246 12.8286C29.422 12.717 29.4711 12.5714 29.4611 12.4237C29.4512 12.2759 29.383 12.1382 29.2716 12.0407ZM8.09542 6.63232C8.02209 6.63232 7.94948 6.64677 7.88174 6.67483C7.814 6.70289 7.75244 6.74403 7.7006 6.79588C7.64875 6.84773 7.60763 6.90929 7.57957 6.97704C7.55152 7.04478 7.53708 7.11739 7.53709 7.19072V7.92855C7.53709 8.07664 7.59592 8.21866 7.70063 8.32337C7.80535 8.42809 7.94737 8.48691 8.09545 8.48691C8.24354 8.48691 8.38556 8.42809 8.49028 8.32337C8.59499 8.21866 8.65382 8.07664 8.65382 7.92855V7.19072C8.65384 7.11738 8.63942 7.04476 8.61137 6.977C8.58332 6.90924 8.54219 6.84767 8.49033 6.79581C8.43847 6.74395 8.3769 6.70282 8.30914 6.67477C8.24138 6.64672 8.16876 6.6323 8.09542 6.63232ZM16.251 6.63232C16.1777 6.63231 16.1051 6.64675 16.0373 6.67481C15.9696 6.70287 15.908 6.744 15.8562 6.79585C15.8043 6.84771 15.7632 6.90927 15.7351 6.97702C15.7071 7.04477 15.6926 7.11739 15.6926 7.19072V7.92855C15.6926 8.23684 15.9427 8.48695 16.251 8.48695C16.5593 8.48695 16.8094 8.23691 16.8094 7.92862V7.19072C16.8094 6.88215 16.5593 6.63232 16.251 6.63232ZM11.0663 8.20894C11.4027 8.35405 11.7779 8.43506 12.1734 8.43506C12.5689 8.43506 12.944 8.35405 13.2805 8.20887C13.6336 8.05675 13.5261 7.53001 13.1414 7.53001H11.2052C10.8207 7.53001 10.7128 8.05682 11.0663 8.20894ZM14.3453 8.89323C14.2901 8.84493 14.226 8.80798 14.1565 8.78449C14.087 8.76101 14.0136 8.75144 13.9404 8.75634C13.8673 8.76124 13.7958 8.78051 13.73 8.81305C13.6643 8.84559 13.6057 8.89076 13.5574 8.94598C13.3152 9.22319 12.8359 9.2229 12.5937 8.94598C12.3749 8.69587 11.9715 8.69587 11.7531 8.94598C11.5108 9.22319 11.0312 9.2229 10.7893 8.94598C10.7411 8.89072 10.6824 8.84552 10.6167 8.81296C10.551 8.7804 10.4795 8.76112 10.4063 8.75622C10.3331 8.75132 10.2597 8.7609 10.1902 8.78441C10.1208 8.80792 10.0566 8.84489 10.0014 8.89323C9.76916 9.09586 9.74539 9.44873 9.94838 9.68107C10.2761 10.0559 10.7583 10.271 11.2712 10.271C11.5944 10.271 11.9055 10.1855 12.1734 10.0282C12.4413 10.1855 12.7524 10.271 13.0755 10.271C13.5885 10.271 14.0706 10.0559 14.3984 9.68107C14.6013 9.44873 14.5776 9.09586 14.3453 8.89315V8.89323Z" fill="#424952"/>
<path d="M1.40295 25.569H35.395V21.918H1.40295V25.569Z" fill="#E1BA68"/>
<path d="M35.395 15.1719H1.40289C0.628061 15.1719 0 15.8 0 16.5749V21.9327C0 22.7076 0.628061 23.3356 1.40296 23.3356H35.395C36.1699 23.3356 36.7979 22.7076 36.7979 21.9327V16.5749C36.7979 15.8 36.1699 15.1719 35.395 15.1719Z" fill="#80C0E4"/>
<path d="M3.47353 16.8475C3.47353 16.6648 3.64154 16.5042 3.89729 16.5042H5.40981C6.37405 16.5042 7.134 16.957 7.134 18.1844V18.2211C7.134 19.4485 6.34471 19.916 5.33668 19.916H4.61344V21.4943C4.61344 21.728 4.32836 21.8448 4.04348 21.8448C3.75861 21.8448 3.47353 21.728 3.47353 21.4943V16.8475ZM4.61315 17.4979V19.0395H5.33639C5.7457 19.0395 5.99408 18.8055 5.99408 18.3089V18.2284C5.99408 17.7316 5.7457 17.4978 5.33639 17.4978L4.61315 17.4979ZM8.77016 18.7323H9.86593C10.0853 18.7323 10.2092 18.9443 10.2092 19.1781C10.2092 19.3754 10.107 19.6091 9.86593 19.6091H8.77016V20.8512H10.7281C10.9475 20.8512 11.0717 21.0849 11.0717 21.3554C11.0717 21.5891 10.9692 21.8448 10.7281 21.8448H8.12743C7.87869 21.8448 7.63061 21.728 7.63061 21.4943V16.8548C7.63061 16.6211 7.87898 16.5042 8.12743 16.5042H10.7281C10.9692 16.5042 11.0717 16.76 11.0717 16.9937C11.0717 17.2639 10.9475 17.4979 10.7281 17.4979H8.77016V18.7323ZM14.7315 16.5042C14.9725 16.5042 15.075 16.7671 15.075 17.0084C15.075 17.2859 14.9508 17.5269 14.7315 17.5269H13.7234V21.4943C13.7234 21.728 13.4386 21.8448 13.1535 21.8448C12.8686 21.8448 12.5835 21.728 12.5835 21.4943V17.5269H11.5754C11.3562 17.5269 11.232 17.2859 11.232 17.0084C11.232 16.7673 11.3344 16.5042 11.5755 16.5042H14.7315ZM19.1806 20.4128C19.1806 19.529 16.8647 19.6822 16.8647 17.9727C16.8647 16.8768 17.8216 16.4604 18.7349 16.4604C19.1222 16.4604 20.1889 16.5333 20.1889 17.1033C20.1889 17.3005 20.0574 17.7023 19.7358 17.7023C19.4728 17.7023 19.3342 17.4248 18.7349 17.4248C18.216 17.4248 18.0043 17.6365 18.0043 17.8631C18.0043 18.5937 20.3202 18.4548 20.3202 20.2959C20.3202 21.348 19.5532 21.9177 18.4938 21.9177C17.5368 21.9177 16.7332 21.4502 16.7332 20.9681C16.7332 20.7196 16.9522 20.3543 17.23 20.3543C17.5733 20.3543 17.7926 20.8949 18.472 20.8949C18.808 20.8949 19.1806 20.7634 19.1806 20.4128ZM23.4764 19.5143H22.0227V21.4943C22.0227 21.728 21.7376 21.8448 21.4527 21.8448C21.1676 21.8448 20.8828 21.728 20.8828 21.4943V16.8475C20.8828 16.6064 21.1676 16.5042 21.4527 16.5042C21.7376 16.5042 22.0227 16.6064 22.0227 16.8475V18.6375H23.4764V16.8475C23.4764 16.6064 23.7613 16.5042 24.0461 16.5042C24.3312 16.5042 24.6161 16.6064 24.6161 16.8475V21.4942C24.6161 21.728 24.3312 21.8448 24.0461 21.8448C23.7613 21.8448 23.4764 21.728 23.4764 21.4943V19.5143ZM25.3463 20.1644V18.2284C25.3463 16.9717 26.1282 16.5042 27.1363 16.5042C28.1446 16.5042 28.9336 16.9717 28.9336 18.2284V20.1644C28.9336 21.4211 28.1446 21.8886 27.1363 21.8886C26.1282 21.8886 25.3463 21.4211 25.3463 20.1644ZM27.794 18.2284C27.794 17.7243 27.5456 17.4978 27.1363 17.4978C26.7273 17.4978 26.4862 17.7243 26.4862 18.2284V20.1644C26.4862 20.6686 26.7273 20.895 27.1363 20.895C27.5456 20.895 27.794 20.6686 27.794 20.1644V18.2284ZM29.6642 16.8475C29.6642 16.6648 29.8321 16.5042 30.0879 16.5042H31.6001C32.5647 16.5042 33.3244 16.957 33.3244 18.1844V18.2211C33.3244 19.4485 32.5354 19.916 31.527 19.916H30.8038V21.4943C30.8038 21.728 30.5189 21.8448 30.2341 21.8448C29.949 21.8448 29.6642 21.728 29.6642 21.4943V16.8475ZM30.8038 17.4979V19.0395H31.527C31.9364 19.0395 32.1847 18.8055 32.1847 18.3089V18.2284C32.1847 17.7316 31.9364 17.4978 31.527 17.4978L30.8038 17.4979Z" fill="#1D1D1D"/>
<path d="M26.7874 29.2514V37H18.399L15.7358 32.694L18.399 27.3923H24.9288C25.9555 27.3923 26.7874 28.2248 26.7874 29.2514Z" fill="#80C0E4"/>
<path d="M18.399 27.3923V37H10.266V29.2515C10.266 28.2248 11.0978 27.3924 12.1245 27.3924L18.399 27.3923Z" fill="#5BA0D3"/>
</svg>
