<svg width="37" height="37" viewBox="0 0 37 37" fill="none" xmlns="http://www.w3.org/2000/svg">
<g clip-path="url(#clip0_6871_3919)">
<path d="M14.8578 30.2034H37V36.6133H14.8578V30.2034Z" fill="#A87140"/>
<path d="M14.8578 0.046875H37V23.2875H14.8578V0.046875Z" fill="#BB844C"/>
<path d="M14.8578 0.046875H37V3.69629H14.8578V0.046875ZM14.8578 23.2875H37V30.2033H14.8578V23.2875Z" fill="#A87140"/>
<path d="M25.4953 3.69629H26.3625V23.2875H25.4953V3.69629ZM28.4004 10.9301H29.2676V14.0809H28.4004V10.9301ZM22.7998 10.9301H23.667V14.0809H22.7998V10.9301ZM23.2334 25.0869H28.2125V25.9541H23.2334V25.0869ZM23.2334 32.4941H28.2125V33.3613H23.2334V32.4941ZM14.8578 29.7697H37V30.6369H14.8578V29.7697Z" fill="#915D33"/>
<path d="M10.9772 8.96465H3.20137L4.06856 2.98828H10.11L10.9772 8.96465Z" fill="#B8BCBA"/>
<path d="M7.08928 36.0859H7.52287V8.9646H6.65569V36.0859H7.08928Z" fill="#915D33"/>
<path d="M7.08928 36.5195H9.06213V36.0859H7.52287V36.5195H7.08928ZM7.08928 36.5195H5.28264V36.9531H9.06213V36.5195H7.08928ZM7.08928 36.5195H6.65569V36.0859H5.28264V36.5195H7.08928Z" fill="#915D33"/>
<path d="M7.08928 36.0859H7.52287V36.5195H7.08928V36.0859ZM6.65569 36.0859H7.08928V36.5195H6.65569V36.0859Z" fill="#915D33"/>
<path d="M21.8242 36.5194H19.9453L19.1143 33.8745H21.8242V36.5194ZM1.69824 36.5194H3.58437L4.41543 33.8745H1.69824V36.5194Z" fill="#915D33"/>
<path d="M0.932227 29.0688H22.3012C22.8143 29.0688 23.2334 29.488 23.2334 30.0011V32.9495C23.2334 33.4626 22.8143 33.8817 22.3012 33.8817H0.932227C0.419141 33.8817 0 33.4626 0 32.9495V30.0011C0 29.488 0.419141 29.0688 0.932227 29.0688Z" fill="#BB844C"/>
<path d="M2.83281 24.2559H20.3934C21.9543 24.2559 23.2262 25.5277 23.2262 27.0887V28.1293C23.2262 28.6424 22.807 29.0615 22.2939 29.0615H0.932227C0.419141 29.0615 0.00722656 28.6496 0 28.1365V27.0887C0 25.5277 1.27188 24.2559 2.83281 24.2559Z" fill="#C6CDC9"/>
<path d="M3.75782 16.7981H19.3527C20.6246 16.7981 21.6147 17.7303 21.499 18.8071L20.892 24.2559H2.21856L1.61153 18.8071C1.49591 17.7303 2.48594 16.7981 3.75782 16.7981Z" fill="#B8BCBA"/>
</g>
<defs>
<clipPath id="clip0_6871_3919">
<rect width="37" height="37" fill="white"/>
</clipPath>
</defs>
</svg>
