<svg width="37" height="37" viewBox="0 0 37 37" fill="none" xmlns="http://www.w3.org/2000/svg">
<path d="M3.68187 15.6888L33.3531 6.28206C33.8163 6.12911 34.214 5.85597 33.9802 5.06934L33.4274 3.32783C33.3051 2.93956 33.1074 2.57925 32.8456 2.26758C32.5837 1.95591 32.2629 1.69901 31.9015 1.51163C31.5402 1.32424 31.1454 1.21006 30.7398 1.17563C30.3342 1.1412 29.9257 1.1872 29.538 1.311L3.31915 9.62305C2.93088 9.74531 2.57057 9.94303 2.2589 10.2049C1.94723 10.4667 1.69033 10.7875 1.50294 11.1489C1.31556 11.5103 1.20138 11.9051 1.16695 12.3107C1.13252 12.7163 1.17852 13.1247 1.30232 13.5125L1.80926 15.112C2.02121 15.7391 2.47571 16.0734 3.68187 15.691V15.6888Z" fill="#666666"/>
<path d="M27.9079 6.06584L7.40305 12.6823C7.1174 12.2988 6.75614 11.978 6.34159 11.7398C5.92704 11.5015 5.46801 11.3508 4.9929 11.2969C3.45679 11.1309 3.20769 13.4361 4.7438 13.6C5.74894 13.8404 6.10292 14.4806 6.34328 14.8739L29.3675 7.57573C29.6079 6.63615 28.6617 5.84078 27.9079 6.06584Z" fill="#4D4D4D"/>
<path d="M2.14574 17.4281V32.7543C2.14574 34.4718 3.52889 35.8527 5.24637 35.8527H32.7478C34.4653 35.8527 35.8484 34.4718 35.8484 32.7543V17.5024C35.8484 16.6065 35.1536 15.7041 34.1353 15.7041H3.87195C2.99355 15.7041 2.14574 16.1433 2.14574 17.4281Z" fill="#55A1FF"/>
<path d="M8.43659 20.6489C6.89174 20.6489 6.89174 22.9651 8.43659 22.9651H35.9031V20.6489H8.43659Z" fill="#488BFF"/>
<path d="M35.9053 21.0905L35.9009 17.5332C35.9009 16.5237 35.1164 15.7327 34.1878 15.7327H3.87632C2.72915 15.7327 2.1501 16.4232 2.1501 17.4589V21.0905H35.9053Z" fill="#666666"/>
<path d="M7.00099 15.8527C7.00099 16.2365 6.9254 16.6166 6.77853 16.9711C6.63166 17.3257 6.41638 17.6479 6.145 17.9193C5.87362 18.1907 5.55144 18.4059 5.19686 18.5528C4.84228 18.6997 4.46224 18.7753 4.07845 18.7753C3.69465 18.7753 3.31462 18.6997 2.96004 18.5528C2.60546 18.4059 2.28328 18.1907 2.01189 17.9193C1.74051 17.6479 1.52524 17.3257 1.37836 16.9711C1.23149 16.6166 1.1559 16.2365 1.1559 15.8527C1.1559 15.0776 1.46381 14.3343 2.01189 13.7862C2.55998 13.2381 3.30334 12.9302 4.07845 12.9302C4.85355 12.9302 5.59692 13.2381 6.145 13.7862C6.69308 14.3343 7.00099 15.0776 7.00099 15.8527Z" fill="#FFC861"/>
<path d="M12.9684 15.7326L9.33683 21.0904H16.8535L19.7466 15.7326H12.9684ZM12.6953 6.6667L5.53479 8.93918L12.4549 12.9357L18.9534 10.8752L12.6953 6.6667ZM25.9151 15.7326L23.2121 21.0904H30.117L32.7609 15.7326H25.9151ZM26.5356 2.27905L19.3467 4.55809L25.4999 8.79934L32.302 6.64485L26.5356 2.27905Z" fill="#D1DCFF"/>
<path d="M17.024 9.57724L10.3638 11.7252L12.4571 12.9357L18.9556 10.8752L17.024 9.57724ZM27.9079 6.06581L23.5639 7.46645L25.4999 8.79935L29.3675 7.5757C29.6079 6.71041 28.7251 5.82764 27.9079 6.06581Z" fill="#BFD2FF"/>
<path d="M5.47581 27.2153C4.687 27.1978 4.687 28.3909 5.47581 28.3734H21.4968C22.2857 28.3909 22.2857 27.1978 21.4968 27.2153H5.47581ZM11.9393 30.6459C9.77387 30.6502 7.58442 30.6459 5.419 30.6459C4.70885 30.7354 4.75911 31.7821 5.47581 31.8018H11.8759C12.6713 31.8717 12.7368 30.6655 11.9393 30.6459Z" fill="#666666"/>
</svg>
