<svg width="37" height="37" viewBox="0 0 37 37" fill="none" xmlns="http://www.w3.org/2000/svg">
<path d="M26.2515 5.16907V31.8308C26.2515 34.0617 24.445 35.8682 22.2141 35.8682H5.3465C3.12106 35.8682 1.31459 34.0617 1.31459 31.8308V5.16907C1.31459 2.93818 3.12106 1.13171 5.3465 1.13171H22.2141C24.445 1.13171 26.2515 2.93818 26.2515 5.16907Z" fill="#51504F"/>
<path d="M26.1645 13.32C26.0012 13.3363 25.8434 13.3037 25.6258 13.2492C25.4245 13.1948 25.2231 13.1404 25.0381 13.0642C24.6627 12.9173 24.3471 12.6997 24.0315 12.4167C23.4058 11.8509 22.8889 11.1653 22.4917 10.4144C22.2958 10.0335 22.1325 9.6363 22.002 9.23365C21.8768 8.83101 21.8061 8.41748 21.9258 8.04748C22.0346 7.67748 22.3556 7.36733 22.7365 7.19321C23.1228 7.01365 23.569 6.9538 24.0098 6.93204C23.569 6.87762 23.112 6.87218 22.6712 7.0191C22.2359 7.16057 21.8115 7.45983 21.6048 7.92777C21.4034 8.39571 21.4578 8.90174 21.5558 9.34792C21.6592 9.79954 21.8115 10.2294 21.9965 10.6538C22.3665 11.4917 22.9161 12.2535 23.5799 12.901C23.9064 13.2329 24.3308 13.5213 24.777 13.7009C25 13.7934 25.2286 13.8641 25.4517 13.9239C25.6584 13.9784 25.9414 14.0491 26.2243 14.0219C26.2352 14.0219 26.2406 14.0219 26.2515 14.0164V13.3091C26.2243 13.3145 26.1917 13.32 26.1645 13.32Z" fill="#51504F"/>
<path d="M24.6192 5.16916V31.8309C24.6192 33.1531 23.5418 34.2359 22.2142 34.2359H5.34652C4.02431 34.2359 2.94696 33.1531 2.94696 31.8309V5.16916C2.94696 4.53226 3.19959 3.92136 3.64944 3.47049C4.09929 3.01962 4.70962 2.7656 5.34652 2.76416H22.2142C23.5418 2.76416 24.6192 3.84151 24.6192 5.16916Z" fill="white"/>
<path d="M24.6192 26.2809V31.8309C24.6192 33.1531 23.5418 34.2359 22.2142 34.2359H5.34652C4.02431 34.2359 2.94696 33.1531 2.94696 31.8309V28.7512C5.64034 30.9929 8.97034 32.3151 12.5724 32.3151C17.3443 32.3151 21.6374 29.9863 24.6192 26.2809Z" fill="#D1DAFE"/>
<path d="M18.6834 32.1334C15.4286 32.5421 12.1354 32.5421 8.88055 32.1334C8.59813 32.0967 8.33569 31.9679 8.13392 31.7669C7.93215 31.566 7.80232 31.304 7.76457 31.0217C7.63693 30.0416 7.63711 29.0489 7.76511 28.0688C7.8032 27.7795 7.93782 27.5116 8.14718 27.3083C8.35653 27.1051 8.62836 26.9785 8.91864 26.949C12.1532 26.6295 15.4113 26.6295 18.6458 26.949C18.9361 26.9785 19.2079 27.1051 19.4173 27.3083C19.6267 27.5116 19.7613 27.7795 19.7994 28.0688C19.9261 29.0602 19.9283 30.045 19.7994 31.0223C19.7615 31.3044 19.6317 31.5661 19.4301 31.767C19.2284 31.9679 18.9656 32.0966 18.6834 32.1334Z" fill="#B53016"/>
<path d="M19.7983 31.0201C19.7605 31.3027 19.6309 31.565 19.4293 31.7666C19.2277 31.9681 18.9654 32.0978 18.6828 32.1355C15.4181 32.5436 12.148 32.5436 8.88328 32.1355C8.59973 32.0989 8.33618 31.9697 8.13352 31.7681C7.93086 31.5664 7.80041 31.3035 7.7624 31.0201C7.72975 30.7698 7.70799 30.5195 7.69167 30.2692C9.04652 30.8732 10.717 31.2269 12.5289 31.2269C15.7392 31.2269 18.5142 30.106 19.8418 28.4736C19.9289 29.3279 19.9125 30.1767 19.7983 31.0201Z" fill="#912010"/>
<path d="M18.531 9.32775C17.7279 8.98768 16.9259 8.6846 16.1064 8.48818C15.2919 8.29556 14.4567 8.18891 13.6253 8.20959C12.79 8.21394 11.9586 8.34888 11.1354 8.54966C10.3127 8.7499 9.50575 9.03284 8.68304 9.32775C9.39039 8.80362 10.1713 8.38686 11.0004 8.09097C11.8384 7.78478 12.7208 7.61753 13.6128 7.59582H13.7194C13.6824 7.3945 13.6579 7.19426 13.6291 6.99729L13.6089 6.8667L13.7809 6.84222C14.2434 6.78454 14.5998 6.46134 14.7347 6.08045C14.7997 5.89134 14.812 5.68808 14.7702 5.49252C14.7284 5.29695 14.6341 5.11647 14.4975 4.97045C14.353 4.82292 14.1709 4.71781 13.9709 4.66658C13.7708 4.61535 13.5606 4.61996 13.363 4.6799C12.9495 4.7947 12.5811 5.17123 12.4706 5.6876C12.3477 5.16743 12.6502 4.5406 13.1954 4.27072C13.7314 3.98778 14.473 4.09007 14.9192 4.54876C15.386 4.98297 15.5253 5.72841 15.2511 6.2932C15.0215 6.8297 14.4523 7.16923 13.912 7.15726C13.8913 7.30472 13.8669 7.45218 13.8424 7.59963C14.6613 7.61215 15.484 7.7509 16.2457 8.02948C17.0783 8.32368 17.852 8.76325 18.531 9.32775Z" fill="#B53016"/>
<path d="M23.0516 13.0609L21.9111 14.6073C21.7957 14.7631 21.624 14.8675 21.4326 14.8983C21.2412 14.929 21.0454 14.8835 20.8871 14.7717L19.9593 14.1258C19.616 13.8853 19.135 13.968 18.9081 14.3255C18.2416 15.3767 17.2246 17.995 18.228 23.5124C18.247 23.6196 18.2423 23.7297 18.2141 23.8349C18.1858 23.9401 18.1348 24.0378 18.0646 24.1211C17.9944 24.2044 17.9068 24.2712 17.8079 24.3168C17.709 24.3625 17.6012 24.3858 17.4923 24.3851H10.0716C9.6037 24.3851 9.25383 23.9662 9.33654 23.5124C10.3393 17.995 9.32239 15.3767 8.65639 14.3255C8.42949 13.968 7.94849 13.8853 7.60461 14.1258L6.67743 14.7717C6.34715 15.0056 5.8939 14.9295 5.6534 14.6073L4.51239 13.0609C4.41275 12.9255 4.3613 12.7605 4.36623 12.5924C4.37116 12.4243 4.43219 12.2627 4.53959 12.1332L6.74599 9.52255C6.82044 9.43513 6.91463 9.36668 7.02077 9.32286L9.41217 8.2923L10.1195 7.98324C10.5526 7.7977 11.0608 8.05833 11.1435 8.5328C11.6245 11.3709 13.7336 11.3845 13.7825 11.3845C13.8315 11.3845 15.9399 11.3709 16.4209 8.5328C16.5031 8.05833 17.0113 7.7977 17.4444 7.98324L18.1518 8.2923L20.5437 9.32286C20.6536 9.36422 20.7429 9.43985 20.8185 9.52255L23.0238 12.1332C23.2442 12.4015 23.2578 12.7791 23.051 13.0609H23.0516Z" fill="#8A9BEA"/>
<path d="M18.1659 8.58069C18.1659 10.9998 16.2006 12.9646 13.782 12.9646C11.3634 12.9646 9.39801 10.9998 9.39801 8.58069C9.39801 8.48438 9.39801 8.38861 9.41216 8.2923L10.1195 7.98324C10.5526 7.7977 11.0608 8.05833 11.1435 8.5328C11.6245 11.3709 13.7335 11.3845 13.7825 11.3845C13.8315 11.3845 15.9399 11.3709 16.4209 8.5328C16.5031 8.05833 17.0113 7.7977 17.4444 7.98324L18.1518 8.2923C18.1659 8.38861 18.1659 8.48438 18.1659 8.58069Z" fill="#4269C4"/>
<path d="M9.6309 31.001C9.6128 30.9833 9.59854 30.962 9.589 30.9385C9.57945 30.915 9.57482 30.8898 9.5754 30.8645V28.2679C9.57489 28.2424 9.57948 28.2169 9.58889 28.1931C9.5983 28.1693 9.61235 28.1476 9.63023 28.1293C9.6481 28.1109 9.66943 28.0964 9.69299 28.0863C9.71655 28.0763 9.74187 28.0711 9.76747 28.071H10.7774C11.0821 28.071 11.3182 28.1412 11.4847 28.281C11.6517 28.4203 11.735 28.6086 11.735 28.8453C11.735 29.0107 11.6958 29.1483 11.6175 29.2582C11.5413 29.3662 11.4371 29.4513 11.316 29.5042C11.4869 29.5586 11.6273 29.6456 11.7372 29.7654C11.8471 29.8851 11.902 30.0358 11.902 30.2186C11.902 30.4809 11.8134 30.6865 11.6371 30.8345C11.4597 30.9825 11.1822 31.0565 10.8029 31.0565H9.76693C9.74158 31.0571 9.71639 31.0524 9.69291 31.0429C9.66942 31.0334 9.64813 31.0191 9.63035 31.001H9.6309ZM10.6745 29.3633C10.9281 29.3633 11.1065 29.3197 11.2088 29.2348C11.3122 29.1489 11.3634 29.0292 11.3634 28.8757C11.3649 28.8127 11.3506 28.7503 11.3218 28.6942C11.293 28.6381 11.2506 28.5902 11.1985 28.5547C11.0886 28.4747 10.9379 28.435 10.7469 28.435H9.96444V29.3627L10.6745 29.3633ZM10.7643 30.6931C11.0407 30.6931 11.2371 30.6506 11.3519 30.5647C11.4678 30.4792 11.5261 30.3579 11.5261 30.2012C11.5261 29.8764 11.2736 29.7137 10.7686 29.7137H9.96444V30.6931H10.7643ZM13.1595 30.9711C12.972 30.8861 12.812 30.7504 12.6975 30.5794C12.5778 30.4047 12.518 30.1898 12.518 29.9362V28.2467C12.518 28.1923 12.5365 28.1461 12.5735 28.1074C12.591 28.0887 12.6123 28.0739 12.6359 28.064C12.6595 28.054 12.685 28.0492 12.7106 28.0498C12.765 28.0498 12.8107 28.0688 12.8494 28.1074C12.8874 28.1461 12.907 28.1923 12.907 28.2467V29.9487C12.907 30.1201 12.9462 30.2654 13.0246 30.3851C13.1029 30.5048 13.2068 30.5946 13.3347 30.6544C13.4631 30.7143 13.6002 30.7448 13.7455 30.7448C13.8908 30.7448 14.0279 30.7148 14.1563 30.6544C14.2842 30.5946 14.3876 30.5048 14.4665 30.3851C14.548 30.2545 14.5889 30.1026 14.584 29.9487V28.2467C14.584 28.1923 14.6025 28.1461 14.6395 28.1074C14.6765 28.0693 14.7222 28.0498 14.7761 28.0498C14.8299 28.0498 14.8767 28.0688 14.9154 28.1074C14.9535 28.1461 14.973 28.1923 14.973 28.2467V29.9362C14.973 30.1898 14.9132 30.4042 14.7935 30.5799C14.6738 30.7551 14.5198 30.8857 14.331 30.9717C14.1473 31.0562 13.9475 31.1 13.7452 31.1C13.543 31.1 13.3432 31.0562 13.1595 30.9717V30.9711ZM16.5967 31.0228C16.5779 31.0053 16.563 30.9841 16.5529 30.9605C16.5429 30.9368 16.538 30.9114 16.5385 30.8857V29.7947L15.5161 28.3621C15.4942 28.3276 15.4825 28.2876 15.4823 28.2467C15.4823 28.1923 15.4997 28.1461 15.5357 28.1074C15.5526 28.0886 15.5735 28.0737 15.5968 28.0638C15.6201 28.0538 15.6453 28.049 15.6706 28.0498C15.7413 28.0498 15.7985 28.0824 15.8415 28.1482L16.7354 29.4487L17.6294 28.1482C17.6444 28.1222 17.6652 28.1 17.6902 28.0833C17.7151 28.0666 17.7436 28.0559 17.7734 28.052C17.8031 28.048 17.8334 28.051 17.8618 28.0606C17.8903 28.0702 17.9161 28.0862 17.9374 28.1074C17.9744 28.1461 17.9918 28.1923 17.9885 28.2467C17.9882 28.2876 17.9763 28.3276 17.9543 28.3621L16.9281 29.7947V30.8857C16.9281 30.9401 16.909 30.9853 16.8726 31.0228C16.835 31.0593 16.7893 31.0783 16.7354 31.0783C16.6816 31.0783 16.6348 31.0593 16.5967 31.0228Z" fill="white"/>
<path d="M33.8626 16.6347C34.077 17.1245 33.9073 17.6958 33.4747 18.0141C32.2106 18.9676 30.8166 19.7354 29.335 20.2939C28.8508 20.4735 28.3028 20.3347 27.9949 19.9212C26.4167 17.8203 25.1786 15.4844 24.3259 12.999C24.3115 12.9728 24.3028 12.944 24.3003 12.9143C24.2977 12.8846 24.3015 12.8546 24.3112 12.8265C24.5403 11.7328 24.9293 10.6821 25.443 9.66732C25.6622 9.24291 26.1068 8.97955 26.5823 9.02145C27.8899 9.13245 29.0439 9.34683 29.8889 9.75601C29.945 9.76798 29.9978 9.80716 30.0266 9.85939C31.5327 11.8955 32.8016 14.1672 33.8626 16.6347Z" fill="#617F4D"/>
<path d="M33.1156 18.2704C33.1101 18.2758 33.0992 18.2867 33.0938 18.2867C33.0666 18.3139 33.0394 18.3411 33.0067 18.3629C31.7419 19.3159 30.3476 20.0836 28.866 20.6427C28.3817 20.8223 27.8376 20.6808 27.5275 20.2673C25.9484 18.1676 24.7107 15.8318 23.8601 13.3461C23.8443 13.3202 23.8346 13.2911 23.8318 13.2609C23.829 13.2308 23.8331 13.2003 23.8438 13.172C24.0016 12.4102 24.241 11.6702 24.5457 10.9465C24.6328 10.7343 24.7307 10.5221 24.8286 10.3154C24.8776 10.2174 24.9266 10.114 24.9756 10.0161C25.1061 9.76037 25.3292 9.55905 25.585 9.45022C25.7482 9.37949 25.9278 9.35228 26.1128 9.3686C26.4066 9.39037 26.6895 9.42302 26.967 9.4611C27.201 9.48831 27.4295 9.5264 27.6526 9.56993C28.3273 9.68963 28.9258 9.86375 29.421 10.1032C29.4754 10.114 29.5298 10.1576 29.557 10.2065C31.0642 12.2415 32.3375 14.516 33.3931 16.9808C33.5889 17.427 33.4692 17.9439 33.1156 18.2704Z" fill="#AEC46E"/>
<path d="M27.2282 11.1425C27.1194 11.5832 26.6678 11.8553 26.2216 11.7464C25.9441 11.6811 25.7373 11.4798 25.6448 11.235C25.585 11.0826 25.5686 10.9139 25.6122 10.7398C25.6285 10.6691 25.6557 10.5984 25.6938 10.5385C25.8679 10.2229 26.227 10.0488 26.5916 10.125C26.6025 10.125 26.6079 10.1304 26.6188 10.1304C26.8321 10.1867 27.015 10.3238 27.1288 10.5128C27.2426 10.7018 27.2783 10.9276 27.2282 11.1425Z" fill="#51504F"/>
<path d="M26.8468 16.5009C26.5573 16.4656 26.294 16.3214 26.0567 16.07C25.8195 15.8181 25.6922 15.5471 25.6737 15.256C25.6557 14.9654 25.7711 14.7026 26.0197 14.4681C26.2678 14.2341 26.5366 14.1346 26.8261 14.1699C27.1156 14.2053 27.3789 14.3495 27.6162 14.6009C27.8534 14.8528 27.9807 15.1238 27.9992 15.4149C28.0172 15.7054 27.9013 15.9682 27.6532 16.2022C27.4045 16.4362 27.1362 16.5363 26.8468 16.5009ZM27.5351 15.4268C27.515 15.2505 27.429 15.0813 27.2772 14.9203C27.1248 14.7587 26.9616 14.6629 26.7864 14.6324C26.6123 14.6025 26.4545 14.6526 26.3163 14.7831C26.1775 14.9137 26.1177 15.0677 26.1378 15.244C26.1574 15.4203 26.2434 15.589 26.3957 15.7506C26.5481 15.9122 26.7113 16.0079 26.886 16.0384C27.0606 16.0683 27.2179 16.0183 27.3566 15.8872C27.4954 15.7566 27.5547 15.6031 27.5351 15.4268ZM29.1729 18.0386C29.1436 18.0389 29.1146 18.033 29.0878 18.0213C29.0609 18.0096 29.0369 17.9923 29.0173 17.9706C28.9897 17.9412 28.9712 17.9046 28.9639 17.865L27.9644 12.8553C27.9553 12.8187 27.9562 12.7802 27.9673 12.7441C27.9783 12.708 27.9989 12.6755 28.027 12.6502C28.0682 12.608 28.1233 12.5821 28.182 12.5773C28.2097 12.5758 28.2373 12.5807 28.2628 12.5915C28.2882 12.6024 28.3109 12.6189 28.329 12.6399C28.3621 12.6758 28.3845 12.7215 28.3948 12.7786L29.3905 17.7557C29.3988 17.7962 29.3977 17.8381 29.3873 17.8781C29.3748 17.9251 29.3468 17.9664 29.3079 17.9956C29.269 18.0247 29.2215 18.0399 29.1729 18.0386ZM30.5239 16.4639C30.2345 16.4291 29.9711 16.2854 29.7339 16.0335C29.4966 15.7816 29.3693 15.5106 29.3508 15.2195C29.3329 14.929 29.4487 14.6662 29.6969 14.4322C29.9455 14.1982 30.2143 14.0981 30.5038 14.1335C30.7927 14.1688 31.0561 14.3125 31.2933 14.5644C31.5305 14.8158 31.6579 15.0873 31.6764 15.3784C31.6943 15.669 31.579 15.9318 31.3303 16.1657C31.0816 16.3997 30.8134 16.4993 30.5239 16.4639ZM31.2122 15.3904C31.1926 15.2141 31.1067 15.0449 30.9543 14.8838C30.802 14.7222 30.6387 14.6264 30.4641 14.596C30.2894 14.5655 30.1322 14.6161 29.9934 14.7467C29.8547 14.8773 29.7954 15.0313 29.8149 15.2076C29.8351 15.3838 29.921 15.5525 30.0729 15.7141C30.2252 15.8757 30.3884 15.9715 30.5636 16.0014C30.7378 16.0319 30.8956 15.9818 31.0338 15.8512C31.1725 15.7201 31.2324 15.5667 31.2122 15.3904Z" fill="white"/>
<path d="M27.1466 10.544C26.8691 10.9194 26.4175 11.1969 25.9441 11.235C25.9332 11.2404 25.9278 11.2404 25.9169 11.2404C25.8244 11.2513 25.7319 11.2459 25.6448 11.235C25.4544 11.2241 25.2857 11.1751 25.1442 11.1425C25.0408 11.1153 24.9375 11.0826 24.8341 11.05C24.7361 11.0228 24.6436 10.9847 24.5457 10.9466C24.5185 10.9412 24.4967 10.9303 24.4695 10.9194C24.0233 10.7398 23.5989 10.4515 23.2725 10.1195C22.6086 9.47204 22.0591 8.71028 21.6891 7.87234C21.5041 7.44793 21.3517 7.01807 21.2483 6.56646C21.1504 6.12028 21.096 5.61425 21.2973 5.14631C21.5041 4.67837 21.9285 4.3791 22.3638 4.23763C22.8045 4.09072 23.2616 4.09616 23.7023 4.15057C23.2616 4.17234 22.8154 4.23219 22.4291 4.41175C22.0482 4.58587 21.7272 4.89602 21.6183 5.26602C21.4986 5.63602 21.5694 6.04954 21.6945 6.45219C21.8251 6.85484 21.9883 7.25204 22.1842 7.63293C22.5814 8.38381 23.0983 9.0694 23.7241 9.63528C24.0397 9.91822 24.3553 10.1359 24.7307 10.2828C24.7633 10.2937 24.796 10.31 24.8286 10.3154C24.9103 10.3535 24.9973 10.3807 25.0898 10.4079C25.166 10.4243 25.2422 10.446 25.3183 10.4678C25.4653 10.5004 25.585 10.5331 25.6938 10.5385C25.7482 10.544 25.8026 10.544 25.857 10.5385C25.8842 10.5385 25.9169 10.5331 25.9441 10.5276C26.1998 10.4787 26.4338 10.3372 26.5916 10.125C26.6025 10.125 26.6079 10.1304 26.6188 10.1304C26.8528 10.1903 27.0378 10.3481 27.1466 10.544ZM28.1015 7.72107C28.0749 8.21481 27.9778 8.7022 27.8131 9.16843C27.59 9.13578 27.3615 9.10313 27.1275 9.07593C27.3197 8.63369 27.4391 8.16332 27.4812 7.68299C27.5139 7.28034 27.4867 6.85049 27.4431 6.42063C27.3289 5.57181 27.2146 4.6849 26.6106 4.11357C26.4528 3.95578 26.1917 3.78166 25.9631 3.6674C25.9142 3.54769 25.8597 3.42799 25.7999 3.31372C26.1209 3.39534 26.5725 3.64563 26.8392 3.8524C27.22 4.14622 27.4812 4.57607 27.6499 5.01137C27.8186 5.4521 27.9056 5.89828 27.9872 6.33901C28.0689 6.79063 28.1233 7.24225 28.1015 7.72107Z" fill="#D1DAFE"/>
<path d="M35.6756 33.7952C35.7029 34.0546 35.6754 34.3168 35.5949 34.5648C35.5144 34.8129 35.3826 35.0413 35.2082 35.2352C35.0338 35.4291 34.8206 35.5842 34.5825 35.6904C34.3443 35.7967 34.0864 35.8517 33.8256 35.852H24.4995C23.3949 35.852 22.5352 34.8943 22.6495 33.7952L23.6778 24.1045C23.7256 23.6472 23.9412 23.224 24.2829 22.9165C24.6246 22.6089 25.0681 22.439 25.5278 22.4395H32.7973C33.7495 22.4395 34.5439 23.1577 34.6473 24.1045L35.6756 33.7952Z" fill="#FA990E"/>
<path d="M34.669 33.7952C34.6963 34.0546 34.6688 34.3168 34.5883 34.5648C34.5078 34.8129 34.376 35.0413 34.2016 35.2352C34.0272 35.4291 33.814 35.5842 33.5758 35.6904C33.3377 35.7967 33.0798 35.8517 32.819 35.852H23.4928C22.3883 35.852 21.5286 34.8943 21.6428 33.7952L22.6712 24.1045C22.7198 23.6476 22.9356 23.2248 23.2771 22.9174C23.6187 22.6101 24.0618 22.4398 24.5212 22.4395H31.7906C32.7428 22.4395 33.5427 23.1577 33.6406 24.1045L34.669 33.7952Z" fill="#FBAD3E"/>
<path d="M25.5697 24.9614C25.8748 24.9614 26.122 24.7141 26.122 24.4091C26.122 24.1041 25.8748 23.8568 25.5697 23.8568C25.2647 23.8568 25.0175 24.1041 25.0175 24.4091C25.0175 24.7141 25.2647 24.9614 25.5697 24.9614Z" fill="#3A3A3A"/>
<path d="M30.7682 24.9614C31.0733 24.9614 31.3205 24.7141 31.3205 24.4091C31.3205 24.1041 31.0733 23.8568 30.7682 23.8568C30.4632 23.8568 30.216 24.1041 30.216 24.4091C30.216 24.7141 30.4632 24.9614 30.7682 24.9614Z" fill="#3A3A3A"/>
<path d="M30.8433 27.441C30.6507 27.9709 30.2649 28.4231 29.7948 28.7545C29.3187 29.0799 28.7338 29.2425 28.1554 29.2551C27.5824 29.2425 26.998 29.0799 26.5219 28.7545C26.0518 28.4231 25.666 27.9709 25.4669 27.441C25.2438 26.9284 25.2498 26.3076 25.3222 25.8434C25.3826 25.3494 25.443 24.8553 25.5453 24.3607C25.6416 24.8553 25.702 25.3494 25.7683 25.8434C25.8043 26.362 25.8886 26.7597 26.1117 27.1395C26.5279 27.8926 27.3359 28.3627 28.1554 28.3507C28.9808 28.3627 29.7888 27.8926 30.2105 27.1455C30.4276 26.7592 30.512 26.362 30.5539 25.8434C30.6143 25.3494 30.6747 24.8553 30.771 24.3607C30.8733 24.8553 30.9342 25.3494 30.9941 25.8434C31.0604 26.3076 31.0724 26.9284 30.8433 27.441Z" fill="#FA990E"/>
</svg>
