<svg width="37" height="37" viewBox="0 0 37 37" fill="none" xmlns="http://www.w3.org/2000/svg">
<path d="M1.73438 10.4062H35.2656V31.7969C35.2656 32.2569 35.0829 32.698 34.7576 33.0233C34.4324 33.3485 33.9912 33.5312 33.5312 33.5312H3.46875C3.00877 33.5312 2.56762 33.3485 2.24236 33.0233C1.9171 32.698 1.73438 32.2569 1.73438 31.7969V10.4062Z" fill="#EBEBEB"/>
<path d="M8.67188 16.1875H14.4531V27.1719H8.67188V16.1875Z" fill="#FBB540"/>
<path d="M8.67188 22.5469H14.4531V27.1719H8.67188V22.5469Z" fill="#EA9D2D"/>
<path d="M3.46875 5.78125H33.5312C33.9912 5.78125 34.4324 5.96398 34.7576 6.28924C35.0829 6.61449 35.2656 7.05564 35.2656 7.51562V10.4062H1.73438V7.51562C1.73438 7.05564 1.9171 6.61449 2.24236 6.28924C2.56762 5.96398 3.00877 5.78125 3.46875 5.78125Z" fill="#009CF7"/>
<path d="M19.6562 4.625C19.6562 3.98642 19.1386 3.46875 18.5 3.46875C17.8614 3.46875 17.3438 3.98642 17.3438 4.625V6.9375C17.3438 7.57608 17.8614 8.09375 18.5 8.09375C19.1386 8.09375 19.6562 7.57608 19.6562 6.9375V4.625Z" fill="#CBCBCB"/>
<path d="M10.4062 4.625C10.4062 3.98642 9.88858 3.46875 9.25 3.46875C8.61142 3.46875 8.09375 3.98642 8.09375 4.625V6.9375C8.09375 7.57608 8.61142 8.09375 9.25 8.09375C9.88858 8.09375 10.4062 7.57608 10.4062 6.9375V4.625Z" fill="#CBCBCB"/>
<path d="M28.9062 4.625C28.9062 3.98642 28.3886 3.46875 27.75 3.46875C27.1114 3.46875 26.5938 3.98642 26.5938 4.625V6.9375C26.5938 7.57608 27.1114 8.09375 27.75 8.09375C28.3886 8.09375 28.9062 7.57608 28.9062 6.9375V4.625Z" fill="#CBCBCB"/>
<path d="M5.20312 16.1875H8.67188V27.1719H5.20312V16.1875Z" fill="#D18D28"/>
<path d="M11.5625 24.2812C11.8692 24.2812 12.1633 24.4031 12.3801 24.6199C12.5969 24.8367 12.7188 25.1308 12.7188 25.4375V27.1719H10.4062V25.4375C10.4062 25.1308 10.5281 24.8367 10.7449 24.6199C10.9617 24.4031 11.2558 24.2812 11.5625 24.2812Z" fill="#F55648"/>
<path d="M12.1406 20.8125H10.9844C10.831 20.8125 10.684 20.7516 10.5756 20.6432C10.4672 20.5348 10.4062 20.3877 10.4062 20.2344C10.4062 20.081 10.4672 19.934 10.5756 19.8256C10.684 19.7172 10.831 19.6562 10.9844 19.6562H12.1406C12.294 19.6562 12.441 19.7172 12.5494 19.8256C12.6578 19.934 12.7188 20.081 12.7188 20.2344C12.7188 20.3877 12.6578 20.5348 12.5494 20.6432C12.441 20.7516 12.294 20.8125 12.1406 20.8125ZM12.1406 19.0781H10.9844C10.831 19.0781 10.684 19.0172 10.5756 18.9088C10.4672 18.8004 10.4062 18.6533 10.4062 18.5C10.4062 18.3467 10.4672 18.1996 10.5756 18.0912C10.684 17.9828 10.831 17.9219 10.9844 17.9219H12.1406C12.294 17.9219 12.441 17.9828 12.5494 18.0912C12.6578 18.1996 12.7188 18.3467 12.7188 18.5C12.7188 18.6533 12.6578 18.8004 12.5494 18.9088C12.441 19.0172 12.294 19.0781 12.1406 19.0781Z" fill="#EBEBEB"/>
<path d="M8.09375 13.875H12.7188V16.1875H8.09375V13.875Z" fill="#EA9D2D"/>
<path d="M6.35938 17.9219H7.51562V19.0781H6.35938V17.9219ZM6.35938 20.2344H7.51562V21.3906H6.35938V20.2344ZM6.35938 22.5469H7.51562V23.7031H6.35938V22.5469Z" fill="#EBEBEB"/>
<path d="M5.20312 25.4375H8.67188V27.1719H5.20312V25.4375Z" fill="#C38325"/>
<path d="M19.6562 18.5C20.6141 18.5 21.3906 17.7235 21.3906 16.7656C21.3906 15.8078 20.6141 15.0312 19.6562 15.0312C18.6984 15.0312 17.9219 15.8078 17.9219 16.7656C17.9219 17.7235 18.6984 18.5 19.6562 18.5Z" fill="#ACCADC"/>
<path d="M25.4375 18.5C26.3954 18.5 27.1719 17.7235 27.1719 16.7656C27.1719 15.8078 26.3954 15.0312 25.4375 15.0312C24.4796 15.0312 23.7031 15.8078 23.7031 16.7656C23.7031 17.7235 24.4796 18.5 25.4375 18.5Z" fill="#ACCADC"/>
<path d="M31.2188 18.5C32.1766 18.5 32.9531 17.7235 32.9531 16.7656C32.9531 15.8078 32.1766 15.0312 31.2188 15.0312C30.2609 15.0312 29.4844 15.8078 29.4844 16.7656C29.4844 17.7235 30.2609 18.5 31.2188 18.5Z" fill="#ACCADC"/>
<path d="M19.6562 24.2812C20.6141 24.2812 21.3906 23.5047 21.3906 22.5469C21.3906 21.589 20.6141 20.8125 19.6562 20.8125C18.6984 20.8125 17.9219 21.589 17.9219 22.5469C17.9219 23.5047 18.6984 24.2812 19.6562 24.2812Z" fill="#ACCADC"/>
<path d="M25.4375 24.8594C24.9593 24.8589 24.493 24.7105 24.1026 24.4344C23.7121 24.1584 23.4166 23.7683 23.2567 23.3177L24.3469 22.9324C24.4267 23.1578 24.5744 23.353 24.7697 23.491C24.965 23.6291 25.1983 23.7032 25.4375 23.7032C25.6767 23.7032 25.91 23.6291 26.1053 23.491C26.3006 23.353 26.4483 23.1578 26.5281 22.9324L27.6183 23.3177C27.4584 23.7683 27.1629 24.1584 26.7724 24.4344C26.382 24.7105 25.9157 24.8589 25.4375 24.8594Z" fill="#ACCADC"/>
<path d="M31.2188 24.2812C32.1766 24.2812 32.9531 23.5047 32.9531 22.5469C32.9531 21.589 32.1766 20.8125 31.2188 20.8125C30.2609 20.8125 29.4844 21.589 29.4844 22.5469C29.4844 23.5047 30.2609 24.2812 31.2188 24.2812Z" fill="#ACCADC"/>
<path d="M19.6562 30.0625C20.6141 30.0625 21.3906 29.286 21.3906 28.3281C21.3906 27.3703 20.6141 26.5938 19.6562 26.5938C18.6984 26.5938 17.9219 27.3703 17.9219 28.3281C17.9219 29.286 18.6984 30.0625 19.6562 30.0625Z" fill="#ACCADC"/>
<path d="M25.4375 30.0625C26.3954 30.0625 27.1719 29.286 27.1719 28.3281C27.1719 27.3703 26.3954 26.5938 25.4375 26.5938C24.4796 26.5938 23.7031 27.3703 23.7031 28.3281C23.7031 29.286 24.4796 30.0625 25.4375 30.0625Z" fill="#ACCADC"/>
<path d="M31.2188 30.0625C32.1766 30.0625 32.9531 29.286 32.9531 28.3281C32.9531 27.3703 32.1766 26.5938 31.2188 26.5938C30.2609 26.5938 29.4844 27.3703 29.4844 28.3281C29.4844 29.286 30.2609 30.0625 31.2188 30.0625Z" fill="#ACCADC"/>
<path d="M23.125 12.1406H28.3281V13.2969H23.125V12.1406Z" fill="#CBCBCB"/>
<path d="M25.4375 23.1251C25.3616 23.1251 25.2864 23.1101 25.2163 23.0811C25.1461 23.052 25.0824 23.0094 25.0287 22.9557L23.8724 21.7995C23.764 21.6911 23.7031 21.544 23.7031 21.3907C23.7031 21.2373 23.764 21.0903 23.8724 20.9819C23.9809 20.8735 24.1279 20.8125 24.2813 20.8125C24.4346 20.8125 24.5816 20.8735 24.6901 20.9819L25.3987 21.6904L27.884 18.7081C27.9824 18.5913 28.1231 18.5182 28.2753 18.5048C28.4275 18.4914 28.5788 18.5388 28.6961 18.6365C28.8135 18.7343 28.8874 18.8746 28.9016 19.0267C28.9159 19.1788 28.8694 19.3303 28.7723 19.4483L25.8816 22.917C25.8302 22.9787 25.7665 23.0291 25.6945 23.0648C25.6225 23.1005 25.5439 23.1208 25.4637 23.1245C25.4549 23.1251 25.4462 23.1251 25.4375 23.1251Z" fill="#007AF6"/>
<path d="M7.51562 28.9062H8.67188V30.0625H7.51562V28.9062ZM9.82812 28.9062H10.9844V30.0625H9.82812V28.9062ZM12.1406 28.9062H13.2969V30.0625H12.1406V28.9062Z" fill="#CBCBCB"/>
<path d="M8.09375 13.875H8.67188V16.1875H8.09375V13.875Z" fill="#C38325"/>
</svg>
