<svg width="37" height="37" viewBox="0 0 37 37" fill="none" xmlns="http://www.w3.org/2000/svg">
<g clip-path="url(#clip0_6871_3740)">
<path d="M25.3323 18.5H29.3448V24.8793C29.3448 25.3868 29.5465 25.8736 29.9054 26.2325C30.2643 26.5914 30.7511 26.7931 31.2586 26.7931C31.7662 26.7931 32.253 26.5914 32.6119 26.2325C32.9708 25.8736 33.1724 25.3868 33.1724 24.8793V21.0517C33.1724 21.5592 33.3741 22.046 33.733 22.4049C34.0919 22.7638 34.5786 22.9655 35.0862 22.9655C35.5938 22.9655 36.0806 22.7638 36.4395 22.4049C36.7984 22.046 37 21.5592 37 21.0517V11.4827C37 10.9751 36.7984 10.4884 36.4395 10.1295C36.0806 9.77055 35.5938 9.56892 35.0862 9.56892C34.5786 9.56892 34.0919 9.77055 33.733 10.1295C33.3741 10.4884 33.1724 10.9751 33.1724 11.4827V7.65513C33.1724 7.14756 32.9708 6.66078 32.6119 6.30187C32.253 5.94296 31.7662 5.74133 31.2586 5.74133C30.7511 5.74133 30.2643 5.94296 29.9054 6.30187C29.5465 6.66078 29.3448 7.14756 29.3448 7.65513V14.0344H7.6807V7.65513C7.6807 7.14756 7.47907 6.66078 7.12016 6.30187C6.76126 5.94296 6.27448 5.74133 5.76691 5.74133C5.25934 5.74133 4.77256 5.94296 4.41365 6.30187C4.05475 6.66078 3.85311 7.14756 3.85311 7.65513V11.4827C3.85311 11.2314 3.80361 10.9825 3.70744 10.7503C3.61126 10.5181 3.47029 10.3072 3.29258 10.1295C3.11487 9.95174 2.90389 9.81077 2.6717 9.7146C2.43951 9.61842 2.19064 9.56892 1.93932 9.56892C1.688 9.56892 1.43914 9.61842 1.20694 9.7146C0.974752 9.81077 0.763777 9.95174 0.586065 10.1295C0.408353 10.3072 0.267384 10.5181 0.171207 10.7503C0.0750297 10.9825 0.025528 11.2314 0.025528 11.4827V21.0517C0.025528 21.5592 0.227159 22.046 0.586065 22.4049C0.944971 22.7638 1.43175 22.9655 1.93932 22.9655C2.44689 22.9655 2.93367 22.7638 3.29258 22.4049C3.65148 22.046 3.85311 21.5592 3.85311 21.0517V24.8793C3.85311 25.3868 4.05475 25.8736 4.41365 26.2325C4.77256 26.5914 5.25934 26.7931 5.76691 26.7931C6.27448 26.7931 6.76126 26.5914 7.12016 26.2325C7.47907 25.8736 7.6807 25.3868 7.6807 24.8793V18.5H25.3323Z" fill="#41C8A7"/>
<path d="M26.4614 16.5735L25.6767 17.9131L25.3323 18.5L21.8683 24.4073C21.7503 24.6014 21.6885 24.8244 21.6897 25.0516V30.8504C21.689 30.9585 21.6458 31.0619 21.5694 31.1383C21.4929 31.2148 21.3895 31.258 21.2814 31.2587H13.1605C13.1077 31.2589 13.0553 31.2487 13.0064 31.2286C12.9576 31.2085 12.9132 31.1789 12.8758 31.1415C12.8384 31.1041 12.8088 31.0597 12.7887 31.0109C12.7686 30.962 12.7584 30.9096 12.7586 30.8568V25.1154C12.7357 24.6531 12.588 24.2056 12.3312 23.8204L11.5976 22.5509C11.0694 21.6376 10.8086 20.5943 10.8448 19.5399V18.5H18.5064C18.5932 18.3438 18.6888 18.1926 18.7935 18.0471C19.6397 16.8327 20.8646 15.9331 22.2766 15.489C22.2766 15.489 21.7981 15.0042 20.8348 14.0345C20.5542 13.7475 20.2288 13.4221 19.8588 13.0521C19.8278 13.021 19.8 12.9868 19.7759 12.95C19.4336 12.5063 19.2511 11.96 19.2581 11.3996C19.265 10.8392 19.461 10.2976 19.8142 9.86246C20.0545 9.63761 20.3733 9.51573 20.7023 9.52288C21.0313 9.53003 21.3445 9.66565 21.5748 9.90073L22.9592 11.2978L24.3498 12.7012L25.6767 14.0345L26.2254 14.5895C26.751 15.1177 26.8486 15.9368 26.4614 16.5735Z" fill="#FDD7AD"/>
<path d="M29.3448 14.0344V18.5H25.3323L25.6767 17.9131L26.4614 16.5734C26.6495 16.2639 26.7285 15.9003 26.6857 15.5407C26.6429 15.1811 26.4809 14.8461 26.2254 14.5894L25.6767 14.0344H29.3448ZM22.2766 15.4889C20.8646 15.933 19.6397 16.8326 18.7935 18.047C18.689 18.1922 18.5931 18.3435 18.5064 18.5H7.68071V14.0344H10.2069V14.3151C10.2069 14.7381 10.3749 15.1437 10.674 15.4428C10.9731 15.7419 11.3788 15.91 11.8017 15.91C12.2247 15.91 12.6304 15.7419 12.9295 15.4428C13.2285 15.1437 13.3966 14.7381 13.3966 14.3151V13.2562C13.3967 13.4644 13.438 13.6706 13.5179 13.8629C13.5979 14.0552 13.715 14.2298 13.8626 14.3767C14.0101 14.5237 14.1852 14.6401 14.3778 14.7193C14.5704 14.7985 14.7768 14.8389 14.985 14.8382H14.9978C15.206 14.8389 15.4124 14.7985 15.605 14.7193C15.7976 14.6401 15.9727 14.5237 16.1202 14.3767C16.2678 14.2298 16.3849 14.0552 16.4648 13.8629C16.5448 13.6706 16.5861 13.4644 16.5862 13.2562C16.5856 13.6772 16.7534 14.0816 17.0519 14.3789C17.3543 14.6736 17.7594 14.8382 18.1811 14.8382C18.5449 14.8391 18.8987 14.7193 19.1873 14.4977C19.4758 14.2761 19.6828 13.9651 19.7759 13.6134V12.95C19.8001 12.987 19.8276 13.0208 19.8588 13.052C20.2288 13.422 20.5542 13.7474 20.8348 14.0344C21.7981 15.0041 22.2766 15.4889 22.2766 15.4889Z" fill="#7F8C8D"/>
<path d="M3.85313 11.4828V21.0517C3.85313 21.5593 3.6515 22.0461 3.29259 22.405C2.93369 22.7639 2.44691 22.9655 1.93934 22.9655C1.43177 22.9655 0.944986 22.7639 0.58608 22.405C0.227174 22.0461 0.0255432 21.5593 0.0255432 21.0517V11.4828C0.0255432 11.2314 0.0750449 10.9826 0.171222 10.7504C0.267399 10.5182 0.408368 10.3072 0.58608 10.1295C0.763792 9.95179 0.974767 9.81083 1.20696 9.71465C1.43915 9.61847 1.68801 9.56897 1.93934 9.56897C2.19066 9.56897 2.43952 9.61847 2.67171 9.71465C2.90391 9.81083 3.11488 9.95179 3.29259 10.1295C3.4703 10.3072 3.61127 10.5182 3.70745 10.7504C3.80363 10.9826 3.85313 11.2314 3.85313 11.4828ZM37 11.4828V21.0517C37 21.5593 36.7984 22.0461 36.4395 22.405C36.0806 22.7639 35.5938 22.9655 35.0862 22.9655C34.5787 22.9655 34.0919 22.7639 33.733 22.405C33.3741 22.0461 33.1724 21.5593 33.1724 21.0517V11.4828C33.1724 10.9752 33.3741 10.4884 33.733 10.1295C34.0919 9.7706 34.5787 9.56897 35.0862 9.56897C35.5938 9.56897 36.0806 9.7706 36.4395 10.1295C36.7984 10.4884 37 10.9752 37 11.4828Z" fill="#6CDFC3"/>
<path d="M18.5 18.5C18.1669 19.0565 17.9155 19.6581 17.7536 20.2862C17.7176 20.4225 17.6372 20.5429 17.5252 20.6283C17.4131 20.7138 17.2758 20.7596 17.1348 20.7583C17.0377 20.7582 16.9418 20.7359 16.8547 20.6929C16.7675 20.6499 16.6914 20.5875 16.6322 20.5104C16.5731 20.4333 16.5324 20.3437 16.5133 20.2484C16.4943 20.1531 16.4974 20.0548 16.5224 19.9609C16.65 19.4575 16.828 18.9682 17.0519 18.5H18.5Z" fill="#F9C795"/>
<path d="M21.3835 6.81306H21.3579C21.1493 6.81389 20.943 6.85581 20.7506 6.93641C20.5582 7.01701 20.3835 7.13472 20.2366 7.28281C20.0897 7.4309 19.9734 7.60648 19.8943 7.79952C19.8153 7.99256 19.775 8.19929 19.7759 8.40788V7.33616C19.7767 7.12756 19.7365 6.92084 19.6574 6.7278C19.5784 6.53476 19.4621 6.35918 19.3151 6.21109C19.1682 6.06299 18.9936 5.94528 18.8012 5.86468C18.6088 5.78408 18.4024 5.74217 18.1938 5.74133H18.1683C17.9597 5.74217 17.7533 5.78408 17.5609 5.86468C17.3685 5.94528 17.1939 6.06299 17.047 6.21109C16.9 6.35918 16.7837 6.53476 16.7047 6.7278C16.6256 6.92084 16.5854 7.12756 16.5862 7.33616V7.85926C16.5861 7.65101 16.5448 7.44484 16.4648 7.25256C16.3849 7.06027 16.2678 6.88565 16.1202 6.73869C15.9727 6.59173 15.7976 6.47532 15.605 6.39613C15.4124 6.31694 15.206 6.27652 14.9978 6.2772H14.985C14.7768 6.27652 14.5704 6.31694 14.3778 6.39613C14.1852 6.47532 14.0101 6.59173 13.8626 6.73869C13.715 6.88565 13.5979 7.06027 13.5179 7.25256C13.438 7.44484 13.3967 7.65101 13.3966 7.85926V8.93099C13.3966 8.72323 13.3556 8.5175 13.2761 8.32556C13.1966 8.13361 13.0801 7.9592 12.9332 7.8123C12.7863 7.66539 12.6119 7.54885 12.4199 7.46935C12.228 7.38984 12.0223 7.34892 11.8145 7.34892H11.789C11.3694 7.34892 10.967 7.5156 10.6703 7.8123C10.3736 8.10899 10.2069 8.5114 10.2069 8.93099V14.3151C10.2069 14.7381 10.3749 15.1438 10.674 15.4428C10.9731 15.7419 11.3788 15.91 11.8017 15.91C12.2247 15.91 12.6304 15.7419 12.9295 15.4428C13.2285 15.1438 13.3966 14.7381 13.3966 14.3151V13.2562C13.3967 13.4644 13.438 13.6706 13.5179 13.8629C13.5979 14.0552 13.715 14.2298 13.8626 14.3767C14.0101 14.5237 14.1852 14.6401 14.3778 14.7193C14.5704 14.7985 14.7768 14.8389 14.985 14.8382H14.9978C15.206 14.8389 15.4124 14.7985 15.605 14.7193C15.7976 14.6401 15.9727 14.5237 16.1202 14.3767C16.2678 14.2298 16.3849 14.0552 16.4648 13.8629C16.5448 13.6706 16.5861 13.4644 16.5862 13.2562C16.5856 13.6772 16.7534 14.0816 17.0519 14.3789C17.3543 14.6736 17.7594 14.8382 18.181 14.8382C18.6202 14.8354 19.0406 14.6601 19.3517 14.3502C19.3574 14.3445 19.3612 14.3362 19.367 14.3304C19.4531 14.2424 19.5284 14.1448 19.5915 14.0389C19.6062 14.0147 19.6189 13.9898 19.6323 13.9649C19.6949 13.8545 19.7433 13.7365 19.7759 13.6134V12.95C19.4336 12.5062 19.2511 11.9599 19.2581 11.3995C19.265 10.8391 19.4609 10.2975 19.8142 9.86237C20.0545 9.63752 20.3733 9.51564 20.7023 9.52279C21.0313 9.52994 21.3445 9.66556 21.5748 9.90064L22.9592 11.2977H22.9655V8.40788C22.9664 8.19929 22.9261 7.99256 22.8471 7.79952C22.768 7.60648 22.6517 7.4309 22.5048 7.28281C22.3579 7.13472 22.1832 7.01701 21.9908 6.93641C21.7984 6.85581 21.5921 6.81389 21.3835 6.81306Z" fill="#FDD7AD"/>
<path d="M18.9874 13.9235C18.6404 13.5355 18.3738 13.0826 18.203 12.591C18.0321 12.0993 17.9605 11.5787 17.9922 11.0592C18.0456 10.2785 18.367 9.5403 18.9019 8.9693C19.1479 8.71959 19.4465 8.52782 19.7759 8.40792C20.0619 8.29802 20.3664 8.24389 20.6728 8.24843C21.3883 8.26794 22.067 8.57001 22.5604 9.08859L22.9655 9.49878V11.2977H22.9592L21.5748 9.90067C21.3445 9.6656 21.0313 9.52998 20.7023 9.52282C20.3733 9.51567 20.0545 9.63755 19.8142 9.8624C19.4609 10.2975 19.265 10.8391 19.2581 11.3995C19.2511 11.9599 19.4336 12.5062 19.7759 12.95V13.6134C19.7076 13.8941 19.5622 14.1512 19.3548 14.3534L18.9874 13.9235Z" fill="#F9C795"/>
</g>
<defs>
<clipPath id="clip0_6871_3740">
<rect width="37" height="37" fill="white"/>
</clipPath>
</defs>
</svg>
