<svg width="37" height="37" viewBox="0 0 37 37" fill="none" xmlns="http://www.w3.org/2000/svg">
<path d="M5.64802 33.9989C4.63806 34.0976 7.69535 34.9362 8.9143 34.9664C10.1339 34.9958 11.3399 34.8129 12.5506 34.7129C18.5357 34.2209 25.0703 35.8181 30.843 34.2236C31.9941 33.9057 31.6563 33.2788 30.4716 33.1637C28.9834 33.0191 27.4773 33.2192 25.9809 33.3075C20.6721 33.6214 15.0899 32.5038 9.87424 33.2897C9.33021 33.3713 8.82317 33.5686 8.27091 33.609C7.337 33.6775 6.59769 33.9064 5.64802 33.9989Z" fill="#D0DCEE"/>
<path d="M30.8032 7.28561V10.6492C30.8025 10.7424 30.7652 10.8315 30.6993 10.8974C30.6334 10.9633 30.5442 11.0007 30.451 11.0014H29.4603V6.93274H30.451C30.6436 6.93274 30.8032 7.09239 30.8032 7.28561Z" fill="#095DA4"/>
<path d="M30.8032 10.1168V10.6492C30.8025 10.7424 30.7652 10.8315 30.6993 10.8974C30.6334 10.9633 30.5442 11.0007 30.451 11.0014H29.4603V6.93274H29.992C29.859 8.06741 29.9152 9.29389 30.7635 10.0839C30.7772 10.0976 30.7902 10.1045 30.8032 10.1168Z" fill="#19345D"/>
<path d="M6.71349 7.28561V10.6492C6.71349 10.8417 6.87245 11.0014 7.06567 11.0014H8.05576V6.93274H7.06567C6.97237 6.93346 6.8831 6.97089 6.81719 7.03693C6.75128 7.10297 6.71402 7.19231 6.71349 7.28561Z" fill="#095DA4"/>
<path d="M6.71349 10.1168V10.6492C6.71349 10.8417 6.87245 11.0014 7.06567 11.0014H8.05576V6.93274H7.52406C7.65767 8.06741 7.6008 9.29389 6.75323 10.0839C6.73952 10.0976 6.7265 10.1045 6.71349 10.1168Z" fill="#19345D"/>
<path d="M26.7421 25.1032H10.6663L11.2008 22.457C11.3155 21.8751 11.5567 21.3256 11.9075 20.8473C12.2582 20.3691 12.7098 19.9738 13.2303 19.6895C13.834 19.3558 14.5125 19.1807 15.2022 19.1804H22.2062C23.1498 19.18 24.0644 19.5061 24.7949 20.1033C25.5254 20.7006 26.0267 21.5322 26.2139 22.457L26.7421 25.1032Z" fill="#F72F43"/>
<path d="M26.7421 25.1031H10.6663L11.2008 22.4569C11.3155 21.875 11.5567 21.3255 11.9075 20.8473C12.2582 20.369 12.7098 19.9737 13.2303 19.6895C13.6818 21.2859 14.9857 22.6666 16.5123 23.3922C18.548 24.346 20.8955 24.3583 23.1285 24.1425C24.2481 24.0342 25.3615 23.8752 26.4749 23.7608L26.7421 25.1031Z" fill="#E2212E"/>
<path d="M25.6554 24.2391H11.8592L12.5204 21.9109C12.674 21.3701 12.9997 20.8943 13.4482 20.5555C13.8967 20.2167 14.4435 20.0334 15.0056 20.0334H22.5365C23.0987 20.0334 23.6454 20.2177 24.0928 20.5582C24.5402 20.8987 24.8636 21.3765 25.0134 21.9184L25.6554 24.2391Z" fill="#19345D"/>
<path d="M24.5345 20.9748C24.1303 20.7275 23.6653 20.5975 23.1915 20.5994H17.8991C16.7631 20.5979 15.6542 20.9463 14.7232 21.5973C13.7923 22.2483 13.0844 23.1702 12.6958 24.2377H11.8558L12.5177 21.9094C12.6733 21.3696 12.9999 20.8947 13.4484 20.5563C13.8969 20.2179 14.4431 20.0342 15.0049 20.0327H22.5372C23.332 20.0327 24.0576 20.3959 24.5345 20.9748Z" fill="black"/>
<path d="M28.2811 26.6811V29.785H9.23497V26.6811C9.23488 26.4739 9.27563 26.2686 9.3549 26.0772C9.43417 25.8857 9.5504 25.7117 9.69695 25.5651C9.8435 25.4186 10.0175 25.3024 10.209 25.2231C10.4005 25.1438 10.6057 25.1031 10.813 25.1031H26.7038C27.1221 25.1031 27.5233 25.2693 27.8191 25.5651C28.1149 25.8609 28.2811 26.2628 28.2811 26.6811Z" fill="#FF9F1C"/>
<path d="M28.2811 28.1063V29.785H9.23497V26.6811C9.23488 26.4739 9.27563 26.2686 9.3549 26.0772C9.43417 25.8857 9.5504 25.7117 9.69695 25.5651C9.8435 25.4186 10.0175 25.3024 10.209 25.2231C10.4005 25.1438 10.6057 25.1031 10.813 25.1031H11.22C11.1501 25.9432 11.6208 26.8079 12.2888 27.3485C13.0713 27.985 14.0827 28.2646 15.0686 28.4811C19.4196 29.4226 23.987 29.2835 28.2811 28.1063Z" fill="#F58210"/>
<path d="M28.7333 30.1022V31.4541C28.7329 31.5376 28.6999 31.6178 28.6413 31.6773C28.5826 31.7368 28.503 31.7711 28.4195 31.7727H9.0952C9.0112 31.7713 8.93105 31.7372 8.87171 31.6778C8.81238 31.6183 8.7785 31.5381 8.77727 31.4541V30.1022C8.77681 30.0602 8.78474 30.0186 8.80059 29.9797C8.81644 29.9409 8.83989 29.9056 8.86957 29.8759C8.89924 29.8462 8.93455 29.8228 8.97341 29.8069C9.01228 29.7911 9.05391 29.7831 9.09588 29.7836H28.4195C28.471 29.7831 28.5217 29.7965 28.5663 29.8222C28.6109 29.848 28.6477 29.8853 28.673 29.9302C28.7162 29.9734 28.7333 30.033 28.7333 30.1022Z" fill="#E2212E"/>
<path d="M12.8802 31.7666V33.5926C12.8802 33.8091 12.702 33.9873 12.4855 33.9873H10.138C10.0337 33.9866 9.93376 33.9447 9.86001 33.8709C9.78626 33.797 9.7446 33.697 9.74406 33.5926V31.7666H12.8802ZM27.7658 31.7735V33.5926C27.7658 33.8091 27.5877 33.9873 27.3711 33.9873H25.0305C24.9705 33.9868 24.9113 33.9728 24.8573 33.9463C24.8033 33.9199 24.756 33.8817 24.7188 33.8345C24.6661 33.7647 24.6371 33.68 24.6359 33.5926V31.7735H27.7658Z" fill="#095DA4"/>
<path d="M28.675 29.9309C26.9799 30.6757 25.0881 30.8641 23.2299 31.0354C18.3582 31.5027 13.2981 31.9317 8.79576 29.9994C8.81682 29.9368 8.8571 29.8824 8.91086 29.8441C8.96462 29.8057 9.02913 29.7852 9.09519 29.7857H28.4181C28.5298 29.7857 28.6236 29.8453 28.675 29.9309Z" fill="#F72F43"/>
<path d="M22.4919 31.772H21.7814C21.6958 31.327 21.6711 30.8725 21.7081 30.4208L21.902 30.2571C21.8957 30.8194 22.1068 31.3623 22.4912 31.7727L22.4919 31.772ZM14.393 31.772H15.1036C15.189 31.327 15.2134 30.8724 15.1762 30.4208L14.983 30.2571C14.9893 30.8194 14.7782 31.3624 14.3937 31.7727L14.393 31.772Z" fill="black"/>
<path d="M27.772 31.7734V32.5683C27.5973 32.6169 26.0241 32.7313 24.7188 33.8345C24.5701 33.6296 24.6653 33.5981 24.6359 31.7734H27.772Z" fill="#19345D"/>
<path d="M27.7692 31.772V31.8412C26.6798 31.9878 25.6123 32.3277 24.6352 32.8361V31.8405C24.6873 31.8151 24.7387 31.7932 24.79 31.772H27.7692Z" fill="black"/>
<path d="M12.8802 31.7734V32.5683C12.7357 32.5933 12.5914 32.6189 12.4471 32.645C11.4933 32.8231 10.5711 33.211 9.82629 33.8345C9.67623 33.6282 9.77216 33.5481 9.74407 31.7734H12.8802Z" fill="#19345D"/>
<path d="M12.4964 30.5237V31.0334C12.4964 31.0589 12.4864 31.0834 12.4684 31.1015C12.4504 31.1196 12.426 31.1299 12.4005 31.13H10.086C10.0603 31.13 10.0358 31.1199 10.0176 31.1018C9.99953 31.0836 9.98935 31.0591 9.98935 31.0334V30.5237C9.98935 30.4702 10.0325 30.4277 10.086 30.4277H12.3998C12.4533 30.4277 12.4964 30.4702 12.4964 30.5237ZM27.4814 30.5237V31.0334C27.4814 31.0591 27.4713 31.0836 27.4531 31.1018C27.435 31.1199 27.4105 31.13 27.3848 31.13H25.0703C25.0448 31.1299 25.0204 31.1196 25.0024 31.1015C24.9844 31.0834 24.9743 31.0589 24.9743 31.0334V30.5237C24.9743 30.4702 25.0175 30.4277 25.0703 30.4277H27.3848C27.4383 30.4277 27.4814 30.4702 27.4814 30.5237Z" fill="#095DA4"/>
<path d="M12.4937 30.5216V30.573H10.2168C10.1918 30.5732 10.1679 30.5832 10.1502 30.6009C10.1325 30.6186 10.1225 30.6425 10.1223 30.6675V31.1294H10.088C10.0284 31.1294 9.98524 31.0869 9.98524 31.0355V30.5216C9.98524 30.4702 10.0284 30.4277 10.088 30.4277H12.3998C12.4512 30.4277 12.4937 30.4702 12.4937 30.5216ZM27.4849 30.5216V30.573H25.208C25.1477 30.573 25.1052 30.6162 25.1052 30.6675V31.1294H25.071C25.0461 31.1292 25.0222 31.1193 25.0045 31.1017C24.9869 31.0842 24.9768 31.0604 24.9764 31.0355V30.5216C24.9764 30.4702 25.0196 30.4277 25.071 30.4277H27.3821C27.4424 30.4277 27.4849 30.4702 27.4849 30.5216Z" fill="#19345D"/>
<path d="M21.9369 29.8028V31.7548C21.9367 31.7993 21.9276 31.8433 21.9101 31.8843C21.8927 31.9252 21.8673 31.9623 21.8354 31.9934C21.8036 32.0244 21.7658 32.0488 21.7244 32.0652C21.6831 32.0815 21.6388 32.0894 21.5943 32.0885H15.3365C15.292 32.0894 15.2478 32.0815 15.2064 32.0652C15.165 32.0488 15.1273 32.0244 15.0954 31.9934C15.0635 31.9623 15.0382 31.9252 15.0207 31.8843C15.0033 31.8433 14.9942 31.7993 14.9939 31.7548V29.8021C14.9939 29.6143 15.1481 29.4595 15.3365 29.4595H21.595C21.7834 29.4595 21.9376 29.6143 21.9376 29.8021L21.9369 29.8028Z" fill="#D0DCEE"/>
<path d="M28.8868 24.975C28.5476 25.1867 28.2961 25.0696 26.6174 25.1031V24.1185C26.6174 23.5875 27.0457 23.151 27.5767 23.1428H28.4071C29.4061 23.1428 29.759 24.4762 28.8868 24.975Z" fill="#F72F43"/>
<path d="M28.8868 24.975C28.5476 25.1867 28.2961 25.0696 26.6174 25.1031V24.1185C26.6174 23.5875 27.0457 23.151 27.5767 23.1428C27.426 24.0425 27.8665 24.8818 28.8868 24.975Z" fill="#E2212E"/>
<path d="M10.9075 24.1185V25.1031H9.11781C8.53882 25.1031 8.13319 24.6167 8.13319 24.1185C8.13319 23.5793 8.57034 23.1428 9.11781 23.1428H9.93112C9.99964 23.1428 10.0682 23.151 10.1367 23.16C10.5731 23.2627 10.9075 23.6471 10.9075 24.1185Z" fill="#F72F43"/>
<path d="M10.9075 24.1185V25.1031H9.1178C8.74095 25.1031 8.4244 24.8975 8.26132 24.5892C8.29558 24.581 8.33875 24.5639 8.37301 24.555C9.25279 24.3083 9.93797 24.0424 10.1367 23.1599C10.5731 23.2627 10.9075 23.6471 10.9075 24.1185Z" fill="#E2212E"/>
<path d="M21.9369 30.9587V31.7548C21.9367 31.7993 21.9276 31.8433 21.9101 31.8843C21.8927 31.9252 21.8673 31.9623 21.8354 31.9934C21.8036 32.0244 21.7658 32.0488 21.7244 32.0652C21.683 32.0815 21.6388 32.0894 21.5943 32.0885H15.3365C15.292 32.0894 15.2478 32.0815 15.2064 32.0652C15.165 32.0488 15.1273 32.0244 15.0954 31.9934C15.0635 31.9623 15.0382 31.9252 15.0207 31.8843C15.0033 31.8433 14.9942 31.7993 14.9939 31.7548V29.8021C14.9939 29.6143 15.1481 29.4595 15.3365 29.4595H15.7559C15.7216 29.6568 15.773 29.8452 15.8669 30.0254C16.2478 30.7867 17.0659 31.0409 17.8964 31.1724C19.2407 31.3862 20.6275 31.3095 21.9369 30.9587Z" fill="#A5C0DD"/>
<path d="M18.4829 30.5695C18.5106 30.5474 18.5323 30.5187 18.5461 30.486C18.5599 30.4534 18.5652 30.4178 18.5617 30.3825C18.5329 30.081 18.0369 30.0769 18.0478 30.3256C18.0547 30.5099 18.3219 30.6915 18.4829 30.5695ZM19.2907 30.7737C19.3079 30.7599 19.3214 30.742 19.3299 30.7217C19.3384 30.7013 19.3416 30.6792 19.3394 30.6573C19.3216 30.4688 19.0132 30.4668 19.0194 30.6216C19.0242 30.736 19.1907 30.8491 19.2907 30.7737Z" fill="#A5C0DD"/>
<path d="M21.1565 19.3332C21.1499 19.4056 21.116 19.4728 21.0617 19.5212C21.0073 19.5695 20.9366 19.5954 20.8639 19.5936H16.5445C16.5002 19.5936 16.4564 19.584 16.4163 19.5653C16.3761 19.5466 16.3405 19.5194 16.3119 19.4855C16.2834 19.4516 16.2626 19.4119 16.2511 19.3691C16.2395 19.3264 16.2375 19.2816 16.2451 19.2379L16.5192 17.8381C16.5326 17.7703 16.5691 17.7093 16.6224 17.6653C16.6757 17.6213 16.7426 17.5972 16.8117 17.5969H20.5905C20.7303 17.5969 20.8578 17.6983 20.8831 17.8381C21.1613 19.2948 21.173 19.2496 21.1565 19.3332Z" fill="#FFCA28"/>
<path d="M25.3279 24.3549C11.5023 24.3672 12.1408 24.3254 11.7523 24.3905C11.6407 24.407 11.618 24.2446 11.7249 24.2261C12.1374 24.1569 11.5331 24.2014 25.3279 24.1891C25.5424 24.1891 25.7637 24.2124 25.9864 24.259C25.9971 24.2612 26.0073 24.2655 26.0164 24.2716C26.0254 24.2778 26.0332 24.2857 26.0392 24.2949C26.0452 24.304 26.0493 24.3143 26.0513 24.3251C26.0533 24.3359 26.0531 24.3469 26.0508 24.3576C26.022 24.4981 25.8733 24.3549 25.3279 24.3549ZM12.8795 31.772V31.9406C11.7078 32.0125 10.5334 32.2585 9.74544 32.5216V31.7727L12.8795 31.772Z" fill="black"/>
<path d="M23.739 25.1031V27.3485C23.739 27.7493 23.4149 28.0741 23.0202 28.0741H14.4965C14.4012 28.0742 14.3068 28.0555 14.2187 28.0191C14.1306 27.9826 14.0506 27.9292 13.9832 27.8618C13.9158 27.7944 13.8624 27.7144 13.8259 27.6263C13.7895 27.5382 13.7708 27.4438 13.7709 27.3485V25.1031H23.739Z" fill="#FFD880"/>
<path d="M23.739 27.0182V27.3485C23.739 27.7493 23.4149 28.0741 23.0202 28.0741H14.4965C14.4012 28.0742 14.3068 28.0555 14.2187 28.0191C14.1306 27.9826 14.0506 27.9292 13.9832 27.8618C13.9158 27.7944 13.8624 27.7144 13.8259 27.6263C13.7895 27.5382 13.7708 27.4438 13.7709 27.3485V25.1031H13.9874C14.1142 25.5163 13.9997 25.9494 14.1971 26.3625C14.6445 27.3225 15.723 27.5808 16.7542 27.7055C19.0955 27.9789 21.4936 27.737 23.739 27.0182Z" fill="#FFCA28"/>
<path d="M27.4671 27.1327V28.2646C27.4671 28.2838 27.4671 28.3092 27.4602 28.3283C27.4473 28.4032 27.4083 28.4711 27.3501 28.52C27.2919 28.5689 27.2183 28.5957 27.1423 28.5956H25.0813C25.0378 28.5957 24.9947 28.5873 24.9545 28.5707C24.9143 28.5541 24.8778 28.5298 24.8471 28.499C24.8164 28.4682 24.7921 28.4317 24.7756 28.3914C24.7591 28.3512 24.7507 28.3081 24.751 28.2646V27.1334C24.751 26.9552 24.8969 26.8086 25.0813 26.8086H27.1423C27.3204 26.8086 27.4671 26.9545 27.4671 27.1327ZM12.7596 27.1327V28.2646C12.7592 28.3181 12.7463 28.3707 12.7219 28.4183C12.6975 28.4659 12.6623 28.5071 12.6191 28.5387C12.5642 28.5745 12.5003 28.5942 12.4348 28.5956H10.3738C10.3302 28.5958 10.2871 28.5875 10.2468 28.5709C10.2065 28.5544 10.1699 28.53 10.1391 28.4992C10.1083 28.4684 10.084 28.4319 10.0674 28.3916C10.0509 28.3513 10.0425 28.3081 10.0428 28.2646V27.1334C10.0428 26.9552 10.1894 26.8086 10.3738 26.8086H12.4348C12.6129 26.8086 12.7596 26.9545 12.7596 27.1327Z" fill="#095DA4"/>
<path d="M15.168 25.715V27.4232C15.168 27.445 15.1593 27.4659 15.1439 27.4813C15.1285 27.4968 15.1076 27.5054 15.0858 27.5054H14.6781C14.6563 27.5054 14.6354 27.4968 14.6199 27.4813C14.6045 27.4659 14.5959 27.445 14.5959 27.4232V25.715C14.5959 25.6932 14.6045 25.6723 14.6199 25.6569C14.6354 25.6415 14.6563 25.6328 14.6781 25.6328H15.0858C15.1076 25.6328 15.1285 25.6415 15.1439 25.6569C15.1593 25.6723 15.168 25.6932 15.168 25.715Z" fill="#19345D"/>
<path d="M15.1707 25.7137V25.8281H14.8144C14.8035 25.8278 14.7926 25.8298 14.7825 25.8339C14.7723 25.8379 14.7631 25.844 14.7554 25.8518C14.7477 25.8596 14.7417 25.8688 14.7377 25.879C14.7337 25.8892 14.7318 25.9001 14.7322 25.911V27.5075H14.6808C14.6699 27.5078 14.6591 27.5059 14.649 27.5018C14.6389 27.4978 14.6297 27.4917 14.6221 27.4841C14.6144 27.4764 14.6083 27.4672 14.6043 27.4571C14.6003 27.447 14.5983 27.4362 14.5986 27.4253V25.7137C14.5986 25.6692 14.6301 25.6315 14.6808 25.6315H15.0878C15.1324 25.6315 15.1707 25.6692 15.1707 25.7137Z" fill="black"/>
<path d="M16.4589 25.715V27.4232C16.4589 27.445 16.4502 27.4659 16.4348 27.4813C16.4194 27.4968 16.3985 27.5054 16.3767 27.5054H15.969C15.9472 27.5054 15.9263 27.4968 15.9108 27.4813C15.8954 27.4659 15.8867 27.445 15.8867 27.4232V25.715C15.8867 25.6932 15.8954 25.6723 15.9108 25.6569C15.9263 25.6415 15.9472 25.6328 15.969 25.6328H16.3767C16.3985 25.6328 16.4194 25.6415 16.4348 25.6569C16.4502 25.6723 16.4589 25.6932 16.4589 25.715Z" fill="#19345D"/>
<path d="M16.4616 25.7137V25.8281H16.1053C16.0944 25.8278 16.0835 25.8298 16.0734 25.8339C16.0632 25.8379 16.054 25.844 16.0463 25.8518C16.0386 25.8596 16.0326 25.8688 16.0286 25.879C16.0246 25.8892 16.0227 25.9001 16.0231 25.911V27.5075H15.9724C15.9615 27.5079 15.9506 27.506 15.9404 27.502C15.9302 27.498 15.9209 27.492 15.9132 27.4843C15.9054 27.4766 15.8993 27.4674 15.8952 27.4572C15.8912 27.4471 15.8892 27.4362 15.8895 27.4253V25.7137C15.8895 25.6692 15.921 25.6315 15.9717 25.6315H16.3794C16.4239 25.6315 16.4616 25.6692 16.4616 25.7137Z" fill="black"/>
<path d="M17.7498 25.715V27.4232C17.7498 27.445 17.7411 27.4659 17.7257 27.4813C17.7103 27.4968 17.6893 27.5054 17.6675 27.5054H17.2605C17.2387 27.5054 17.2178 27.4968 17.2024 27.4813C17.187 27.4659 17.1783 27.445 17.1783 27.4232V25.715C17.1783 25.6932 17.187 25.6723 17.2024 25.6569C17.2178 25.6415 17.2387 25.6328 17.2605 25.6328H17.6682C17.69 25.6328 17.7109 25.6415 17.7264 25.6569C17.7418 25.6723 17.7498 25.6932 17.7498 25.715Z" fill="#19345D"/>
<path d="M17.7532 25.7137V25.8281H17.3969C17.386 25.8278 17.3751 25.8298 17.3649 25.8339C17.3548 25.8379 17.3456 25.844 17.3379 25.8518C17.3302 25.8596 17.3241 25.8688 17.3201 25.879C17.3162 25.8892 17.3143 25.9001 17.3147 25.911V27.5075H17.2633C17.2524 27.5078 17.2416 27.5059 17.2315 27.5018C17.2214 27.4978 17.2122 27.4917 17.2045 27.4841C17.1968 27.4764 17.1908 27.4672 17.1867 27.4571C17.1827 27.447 17.1808 27.4362 17.1811 27.4253V25.7137C17.1811 25.6692 17.2126 25.6315 17.2633 25.6315H17.6703C17.7148 25.6315 17.7532 25.6692 17.7532 25.7137Z" fill="black"/>
<path d="M19.0413 25.715V27.4232C19.0413 27.445 19.0327 27.4659 19.0173 27.4813C19.0018 27.4968 18.9809 27.5054 18.9591 27.5054H18.5514C18.5296 27.5054 18.5087 27.4968 18.4933 27.4813C18.4779 27.4659 18.4692 27.445 18.4692 27.4232V25.715C18.4692 25.6932 18.4779 25.6723 18.4933 25.6569C18.5087 25.6415 18.5296 25.6328 18.5514 25.6328H18.9591C18.9809 25.6328 19.0018 25.6415 19.0173 25.6569C19.0327 25.6723 19.0413 25.6932 19.0413 25.715Z" fill="#19345D"/>
<path d="M19.0441 25.7137V25.8281H18.6878C18.6769 25.8278 18.666 25.8298 18.6558 25.8339C18.6457 25.8379 18.6365 25.844 18.6288 25.8518C18.6211 25.8596 18.615 25.8688 18.611 25.879C18.607 25.8892 18.6052 25.9001 18.6056 25.911V27.5075H18.5542C18.5433 27.5078 18.5325 27.5059 18.5224 27.5018C18.5123 27.4978 18.5031 27.4917 18.4954 27.4841C18.4877 27.4764 18.4817 27.4672 18.4776 27.4571C18.4736 27.447 18.4717 27.4362 18.472 27.4253V25.7137C18.472 25.6692 18.5035 25.6315 18.5542 25.6315H18.9612C19.0057 25.6315 19.0441 25.6692 19.0441 25.7137Z" fill="black"/>
<path d="M20.3322 25.715V27.4232C20.3322 27.434 20.3301 27.4447 20.326 27.4547C20.3218 27.4646 20.3158 27.4737 20.3081 27.4813C20.3005 27.489 20.2914 27.495 20.2815 27.4992C20.2715 27.5033 20.2608 27.5054 20.25 27.5054H19.8423C19.8205 27.5054 19.7996 27.4968 19.7842 27.4813C19.7688 27.4659 19.7601 27.445 19.7601 27.4232V25.715C19.7601 25.6932 19.7688 25.6723 19.7842 25.6569C19.7996 25.6415 19.8205 25.6328 19.8423 25.6328H20.25C20.2608 25.6328 20.2715 25.6349 20.2815 25.6391C20.2914 25.6432 20.3005 25.6493 20.3081 25.6569C20.3158 25.6645 20.3218 25.6736 20.326 25.6836C20.3301 25.6935 20.3322 25.7042 20.3322 25.715Z" fill="#19345D"/>
<path d="M20.335 25.7137V25.8281H19.9787C19.9677 25.8278 19.9569 25.8298 19.9467 25.8339C19.9366 25.8379 19.9274 25.844 19.9197 25.8518C19.912 25.8596 19.9059 25.8688 19.9019 25.879C19.8979 25.8892 19.8961 25.9001 19.8965 25.911V27.5075H19.8451C19.8342 27.5078 19.8234 27.5059 19.8133 27.5018C19.8032 27.4978 19.794 27.4917 19.7863 27.4841C19.7786 27.4764 19.7726 27.4672 19.7685 27.4571C19.7645 27.447 19.7626 27.4362 19.7628 27.4253V25.7137C19.7628 25.6692 19.7944 25.6315 19.8451 25.6315H20.2528C20.2973 25.6315 20.335 25.6692 20.335 25.7137Z" fill="black"/>
<path d="M21.6231 25.715V27.4232C21.6231 27.445 21.6144 27.4659 21.599 27.4813C21.5836 27.4968 21.5627 27.5054 21.5409 27.5054H21.1339C21.1231 27.5054 21.1124 27.5033 21.1024 27.4992C21.0924 27.495 21.0834 27.489 21.0757 27.4813C21.0681 27.4737 21.0621 27.4646 21.0579 27.4547C21.0538 27.4447 21.0517 27.434 21.0517 27.4232V25.715C21.0517 25.7042 21.0538 25.6935 21.0579 25.6836C21.0621 25.6736 21.0681 25.6645 21.0757 25.6569C21.0834 25.6493 21.0924 25.6432 21.1024 25.6391C21.1124 25.6349 21.1231 25.6328 21.1339 25.6328H21.5416C21.5634 25.6328 21.5843 25.6415 21.5997 25.6569C21.6151 25.6723 21.6231 25.6932 21.6231 25.715Z" fill="#19345D"/>
<path d="M21.6265 25.7137V25.8281H21.2702C21.2593 25.8278 21.2484 25.8298 21.2383 25.8339C21.2281 25.8379 21.2189 25.844 21.2112 25.8518C21.2035 25.8596 21.1975 25.8688 21.1935 25.879C21.1895 25.8892 21.1877 25.9001 21.188 25.911V27.5075H21.1366C21.1258 27.5078 21.1149 27.5059 21.1048 27.5018C21.0947 27.4978 21.0856 27.4917 21.0779 27.4841C21.0702 27.4764 21.0641 27.4672 21.0601 27.4571C21.0561 27.447 21.0541 27.4362 21.0544 27.4253V25.7137C21.0544 25.6692 21.0852 25.6315 21.1366 25.6315H21.5436C21.5882 25.6315 21.6265 25.6692 21.6265 25.7137Z" fill="black"/>
<path d="M22.9147 25.715V27.4232C22.9147 27.445 22.906 27.4659 22.8906 27.4813C22.8752 27.4968 22.8543 27.5054 22.8325 27.5054H22.4248C22.403 27.5054 22.3821 27.4968 22.3666 27.4813C22.3512 27.4659 22.3426 27.445 22.3426 27.4232V25.715C22.3426 25.6932 22.3512 25.6723 22.3666 25.6569C22.3821 25.6415 22.403 25.6328 22.4248 25.6328H22.8325C22.8543 25.6328 22.8752 25.6415 22.8906 25.6569C22.906 25.6723 22.9147 25.6932 22.9147 25.715Z" fill="#19345D"/>
<path d="M22.9174 25.7137V25.8281H22.5611C22.5502 25.8278 22.5393 25.8298 22.5292 25.8339C22.519 25.8379 22.5098 25.844 22.5021 25.8518C22.4944 25.8596 22.4884 25.8688 22.4844 25.879C22.4804 25.8892 22.4785 25.9001 22.4789 25.911V27.5075H22.4275C22.4166 27.5078 22.4058 27.5059 22.3957 27.5018C22.3856 27.4978 22.3764 27.4917 22.3688 27.4841C22.3611 27.4764 22.355 27.4672 22.351 27.4571C22.347 27.447 22.345 27.4362 22.3453 27.4253V25.7137C22.3453 25.6692 22.3768 25.6315 22.4275 25.6315H22.8345C22.8791 25.6315 22.9174 25.6692 22.9174 25.7137Z" fill="black"/>
<path d="M12.6191 28.538C12.5643 28.5741 12.5004 28.594 12.4348 28.5956H10.3738C10.3302 28.5958 10.2871 28.5875 10.2468 28.5709C10.2065 28.5544 10.1699 28.53 10.1391 28.4992C10.1083 28.4684 10.084 28.4319 10.0674 28.3916C10.0509 28.3513 10.0425 28.3081 10.0428 28.2646V27.1334C10.0428 26.9552 10.1894 26.8086 10.3738 26.8086H10.482C10.6739 27.5774 11.4008 28.3475 12.6198 28.5387L12.6191 28.538ZM27.4609 28.3283C27.4479 28.4033 27.4088 28.4713 27.3505 28.5203C27.2922 28.5692 27.2184 28.5959 27.1423 28.5956H25.0813C25.0378 28.5957 24.9947 28.5873 24.9545 28.5707C24.9143 28.5541 24.8778 28.5298 24.8471 28.499C24.8164 28.4682 24.7921 28.4317 24.7756 28.3914C24.7591 28.3512 24.7507 28.3081 24.751 28.2646V27.1334C24.751 26.9552 24.8969 26.8086 25.0813 26.8086H25.1326C25.1388 26.8339 25.145 26.8531 25.1511 26.8723C25.4012 27.8884 26.4201 28.2824 27.4602 28.329L27.4609 28.3283Z" fill="#19345D"/>
<path d="M21.1565 19.3332C21.1499 19.4056 21.116 19.4728 21.0617 19.5212C21.0073 19.5695 20.9366 19.5954 20.8639 19.5936H16.5445C16.5002 19.5936 16.4564 19.584 16.4163 19.5653C16.3761 19.5466 16.3405 19.5194 16.3119 19.4855C16.2834 19.4516 16.2626 19.4119 16.2511 19.3691C16.2395 19.3264 16.2375 19.2816 16.2451 19.2379L16.5192 17.8381C16.5326 17.7703 16.5691 17.7093 16.6224 17.6653C16.6757 17.6213 16.7426 17.5972 16.8117 17.5969H17.2379C17.3202 17.8319 17.473 18.0546 17.658 18.2266C18.3932 18.9152 20.1397 19.2715 21.1565 19.3332Z" fill="#FF9F1C"/>
<path d="M29.4603 2.79827V15.7538C29.4603 16.1525 29.1417 16.4718 28.749 16.4718H8.77384C8.67941 16.4723 8.58583 16.454 8.49851 16.4181C8.41118 16.3822 8.33184 16.3293 8.26507 16.2625C8.1983 16.1958 8.14543 16.1164 8.1095 16.0291C8.07357 15.9418 8.05531 15.8482 8.05576 15.7538V2.79827C8.05576 2.3995 8.37506 2.0802 8.77384 2.0802H28.749C29.1417 2.0802 29.4603 2.3995 29.4603 2.79827Z" fill="#095DA4"/>
<path d="M29.4603 11.052C29.4471 11.0519 29.4346 11.0465 29.4253 11.0371C29.4161 11.0278 29.4109 11.0152 29.4109 11.002V2.79829C29.4117 2.62196 29.3424 2.45254 29.2182 2.32728C29.0941 2.20201 28.9254 2.13114 28.749 2.13024H9.70775C9.69558 2.1288 9.68436 2.12295 9.67622 2.1138C9.66807 2.10464 9.66357 2.09281 9.66357 2.08056C9.66357 2.06831 9.66807 2.05648 9.67622 2.04732C9.68436 2.03816 9.69558 2.03232 9.70775 2.03088H28.749C29.1691 2.03088 29.5103 2.37553 29.5103 2.79829V11.002C29.5103 11.0294 29.4877 11.052 29.4603 11.052Z" fill="black"/>
<path d="M29.4603 14.737V15.7538C29.4603 16.1525 29.1417 16.4718 28.749 16.4718H8.77384C8.67941 16.4723 8.58583 16.454 8.49851 16.4181C8.41118 16.3822 8.33184 16.3293 8.26507 16.2625C8.1983 16.1958 8.14543 16.1164 8.1095 16.0291C8.07357 15.9418 8.05531 15.8482 8.05576 15.7538V10.4628C8.24967 12.2031 9.13699 13.6804 10.3361 14.6109C12.2635 16.1066 14.883 16.2923 17.3291 16.2526C21.4159 16.1907 25.4838 15.6824 29.4603 14.737Z" fill="#19345D"/>
<path d="M28.5496 13.8229V3.94664C28.5496 3.8207 28.4996 3.69993 28.4106 3.61088C28.3215 3.52183 28.2007 3.4718 28.0748 3.4718H9.81326C9.68732 3.4718 9.56655 3.52183 9.4775 3.61088C9.38845 3.69993 9.33842 3.8207 9.33842 3.94664V13.8229C9.33842 14.0853 9.55083 14.2977 9.81326 14.2977H28.0748C28.3372 14.2977 28.5496 14.0853 28.5496 13.8229Z" fill="black"/>
<path d="M28.364 13.579V3.70201C28.364 3.57607 28.3139 3.4553 28.2249 3.36625C28.1358 3.2772 28.0151 3.22717 27.8891 3.22717H9.62757C9.50164 3.22717 9.38086 3.2772 9.29182 3.36625C9.20277 3.4553 9.15274 3.57607 9.15274 3.70201V13.579C9.15274 13.8407 9.36515 14.0538 9.62757 14.0538H27.8891C28.1516 14.0538 28.364 13.8414 28.364 13.579Z" fill="#F2F8FD"/>
<path d="M17.1852 14.0524H16.3513L15.0522 10.8177C13.7723 11.1993 10.9705 12.1743 9.14932 12.817V12.0209C11.2062 11.3014 14.4472 10.1428 15.1858 9.92008C15.2788 9.89186 15.3789 9.89975 15.4663 9.94217C15.5537 9.9846 15.6219 10.0584 15.6572 10.1489L17.1852 14.0524Z" fill="#D0DCEE"/>
<path d="M28.3667 4.3543L22.6297 7.57673L25.6164 14.0517H24.7695L21.9609 7.95838L18.0074 10.1996L19.6436 14.0524H18.8152L15.6442 6.55032L9.14932 11.1733V10.1229L11.6139 8.40991V3.22717H12.5047V7.7864L15.6127 5.62806L18.9557 3.22717H20.2863L16.2876 6.09262L17.7073 9.48017L23.3429 6.30365V3.22717H24.0555V5.90214L28.3167 3.49439C28.4017 3.66432 28.353 3.74791 28.3674 4.35362L28.3667 4.3543Z" fill="#D0DCEE"/>
<path d="M9.10272 11.9024V3.7021C9.10272 3.41295 9.33774 3.17725 9.62757 3.17725H24.8935C24.9068 3.17725 24.9195 3.18252 24.9289 3.1919C24.9382 3.20128 24.9435 3.214 24.9435 3.22726C24.9435 3.24053 24.9382 3.25325 24.9289 3.26263C24.9195 3.27201 24.9068 3.27728 24.8935 3.27728H9.62689C9.51427 3.27746 9.40633 3.32228 9.3267 3.40191C9.24707 3.48154 9.20225 3.58949 9.20207 3.7021V11.9024C9.20207 11.9689 9.10272 11.9689 9.10272 11.9024Z" fill="black"/>
<path d="M24.5345 7.25134C22.5159 7.25134 21.6067 9.80023 23.1805 11.0699C24.1371 11.8503 24.3029 12.2436 24.4427 12.4087C24.4899 12.4683 24.5811 12.4683 24.6208 12.4087C24.7421 12.2648 24.9319 11.8352 25.8733 11.0795C27.4458 9.82764 26.5736 7.25134 24.5345 7.25134ZM24.5043 10.1613C24.0494 10.1613 23.6752 9.7879 23.6752 9.33019C23.6752 8.87249 24.0494 8.50112 24.5043 8.50112C25.2176 8.50112 25.626 9.3576 25.1087 9.90164C24.9579 10.0627 24.7421 10.162 24.5043 10.162V10.1613Z" fill="#F72F43"/>
<path d="M26.2488 10.6793C26.1385 10.8289 26.0085 10.9631 25.8624 11.078C24.9086 11.8468 24.7352 12.2566 24.6078 12.408C24.5687 12.469 24.4762 12.469 24.4324 12.408C24.2953 12.2463 24.1117 11.8331 23.1682 11.0712C21.9061 9.99134 22.2254 8.16189 23.5382 7.48767C22.2576 9.70767 23.9781 11.8146 26.2488 10.6793ZM25.7294 8.47708C25.8562 8.34689 25.5479 7.95223 25.4567 8.20574C25.4129 8.32702 25.5986 8.61274 25.7294 8.47708ZM25.3656 8.00567C25.3848 7.98512 25.3841 7.95223 25.3772 7.92413C25.3498 7.81108 25.2354 7.79121 25.2128 7.85424C25.1881 7.92139 25.293 8.08173 25.3656 8.00567Z" fill="#E2212E"/>
<path d="M26.1673 10.7745V10.7965C25.8569 11.1589 25.3019 11.4385 24.7599 12.2086L24.6187 12.408C24.5797 12.469 24.4879 12.469 24.444 12.408C24.3084 12.2484 24.1227 11.8331 23.1799 11.0712L23.1312 11.0301L23.2648 11.076C23.5053 11.3261 23.7657 11.555 24.0452 11.7564C24.1912 11.8612 24.3536 11.9654 24.5317 11.9585C24.7832 11.9489 24.8839 11.8284 26.168 10.7745H26.1673Z" fill="black"/>
<path d="M24.4954 8.15164C24.3388 8.14401 24.1823 8.16828 24.0353 8.22296C23.8883 8.27764 23.754 8.3616 23.6405 8.46975C23.5269 8.5779 23.4365 8.70799 23.3747 8.85212C23.313 8.99625 23.2811 9.15142 23.2811 9.30823C23.2811 9.46504 23.313 9.62021 23.3747 9.76434C23.4365 9.90848 23.5269 10.0386 23.6405 10.1467C23.754 10.2549 23.8883 10.3388 24.0353 10.3935C24.1823 10.4482 24.3388 10.4725 24.4954 10.4648C24.8022 10.4648 25.0963 10.343 25.3133 10.1261C25.5302 9.90916 25.652 9.61498 25.652 9.30823C25.652 9.00148 25.5302 8.7073 25.3133 8.4904C25.0963 8.27349 24.8022 8.15164 24.4954 8.15164ZM24.4934 10.162C24.3842 10.1617 24.2761 10.1399 24.1753 10.0979C24.0746 10.0559 23.983 9.99439 23.906 9.91699C23.829 9.83959 23.768 9.74777 23.7264 9.64679C23.6849 9.54581 23.6637 9.43763 23.6639 9.32844C23.6642 9.21925 23.686 9.11119 23.728 9.01041C23.7701 8.90963 23.8315 8.81813 23.9089 8.74111C23.9863 8.66409 24.0781 8.60307 24.1791 8.56153C24.2801 8.52 24.3883 8.49876 24.4975 8.49903C24.718 8.49957 24.9293 8.5877 25.0848 8.74401C25.2404 8.90033 25.3274 9.11204 25.3269 9.33256C25.3263 9.55308 25.2382 9.76435 25.0819 9.91989C24.9256 10.0754 24.7139 10.1625 24.4934 10.162Z" fill="#E2212E"/>
<path d="M17.0029 4.38379C15.3996 4.38379 14.6808 6.40783 15.9285 7.41436C16.6877 8.03377 16.8207 8.34759 16.9303 8.47709C16.968 8.52436 17.0399 8.52436 17.0721 8.47709C17.168 8.36266 17.3188 8.02212 18.0656 7.4219C19.3188 6.4229 18.6179 4.38379 17.0029 4.38379ZM16.3212 6.03372C16.3212 5.67057 16.6178 5.37594 16.9789 5.37594C17.5456 5.37594 17.8697 6.05564 17.4586 6.48731C17.0536 6.91897 16.3212 6.62777 16.3212 6.03372Z" fill="#FF9F1C"/>
<path d="M18.3637 7.10474C18.2761 7.22356 18.1728 7.33003 18.0567 7.42129C17.3003 8.03111 17.1626 8.35657 17.0612 8.47648C17.0303 8.52444 16.957 8.52444 16.9221 8.47648C16.8138 8.34835 16.6679 8.02015 15.919 7.41513L15.8806 7.38292C14.9624 6.59085 15.1344 5.12455 16.2122 4.57092C15.1961 6.3339 16.5623 8.00507 18.3637 7.10474ZM17.9519 5.35683C18.0519 5.25268 17.808 4.94024 17.7354 5.141C17.7011 5.23692 17.8478 5.4644 17.9519 5.35683ZM17.6628 4.98272C17.6785 4.96627 17.6778 4.93955 17.6723 4.91763C17.6504 4.82855 17.5593 4.81211 17.5415 4.86213C17.5223 4.91557 17.6045 5.04233 17.6628 4.98272Z" fill="#F58210"/>
<path d="M18.2993 7.18005V7.19718C18.2289 7.27906 18.1509 7.35409 18.0663 7.42124C17.3092 8.03105 17.1715 8.35652 17.0701 8.47642C17.0392 8.52439 16.9659 8.52439 16.9316 8.47642C16.822 8.34829 16.6747 8.01941 15.9279 7.41507L15.8895 7.38287L15.9957 7.41918C16.1896 7.62131 16.7199 8.13178 17.0009 8.11944C17.2002 8.11259 17.2763 8.01941 18.2993 7.18005Z" fill="black"/>
<path d="M16.9707 6.6943C16.8009 6.68656 16.6406 6.61366 16.5232 6.49077C16.4058 6.36787 16.3403 6.20444 16.3403 6.03447C16.3403 5.86449 16.4058 5.70106 16.5232 5.57817C16.6406 5.45527 16.8009 5.38237 16.9707 5.37463C17.1457 5.37463 17.3135 5.44415 17.4373 5.56789C17.561 5.69164 17.6305 5.85947 17.6305 6.03447C17.6305 6.20947 17.561 6.3773 17.4373 6.50104C17.3135 6.62478 17.1457 6.6943 16.9707 6.6943Z" fill="#F58210"/>
<path d="M22.5324 10.2716C22.4118 9.99666 22.3497 9.69961 22.3501 9.39937C22.3501 7.85565 23.8966 6.82307 25.3067 7.35889C25.3478 7.37465 25.3259 7.43631 25.2834 7.42124C23.541 6.75867 21.8438 8.5285 22.5927 10.2449C22.6105 10.286 22.5488 10.3107 22.5324 10.2716ZM15.438 6.80389C15.4315 6.80382 15.4251 6.80183 15.4198 6.79818C15.4144 6.79452 15.4102 6.78935 15.4078 6.78333C14.7939 5.37733 16.1841 3.91994 17.6189 4.46261C17.6593 4.47837 17.6381 4.53935 17.5956 4.52428C16.5116 4.11454 15.329 4.90867 15.329 6.08856C15.329 6.61478 15.5318 6.76552 15.4517 6.80115C15.4473 6.80282 15.4426 6.80352 15.438 6.8032V6.80389ZM17.0543 8.92591C17.0477 8.92589 17.0413 8.92392 17.0358 8.92027C17.0303 8.91661 17.026 8.91143 17.0235 8.90535L16.992 8.82861C16.9755 8.78819 17.0365 8.76215 17.0536 8.80326L17.0851 8.88C17.0873 8.88505 17.0882 8.89057 17.0877 8.89605C17.0872 8.90153 17.0853 8.90679 17.0822 8.91136C17.0792 8.91593 17.075 8.91965 17.0701 8.9222C17.0653 8.92474 17.0598 8.92601 17.0543 8.92591ZM17.3928 9.79815L17.3311 9.64946C17.314 9.60835 17.375 9.58437 17.3928 9.62411L17.4545 9.7728C17.4709 9.81391 17.4092 9.83789 17.3928 9.79815ZM17.3003 9.52133C17.2937 9.52131 17.2873 9.51935 17.2818 9.51569C17.2763 9.51204 17.272 9.50685 17.2695 9.50078L17.2078 9.35209C17.1913 9.31098 17.253 9.28563 17.2695 9.32674L17.3311 9.47543C17.3333 9.48048 17.3342 9.486 17.3337 9.49148C17.3332 9.49696 17.3313 9.50222 17.3282 9.50679C17.3252 9.51136 17.321 9.51508 17.3161 9.51762C17.3112 9.52016 17.3058 9.52144 17.3003 9.52133ZM17.1468 9.20341L17.0851 9.05472C17.068 9.01361 17.1297 8.98894 17.1468 9.02869L17.2085 9.17806C17.2249 9.21917 17.1633 9.24315 17.1468 9.20341ZM17.5161 10.0448C17.5124 10.0446 17.5087 10.0439 17.5052 10.0428C17.5008 10.0412 17.4967 10.0387 17.4933 10.0356C17.4899 10.0324 17.4872 10.0285 17.4853 10.0243L17.4538 9.94683C17.4366 9.90641 17.4976 9.88106 17.5154 9.92148L17.5326 9.96396L17.5737 9.94204C17.6114 9.92011 17.6436 9.97904 17.6052 10.0003L17.5326 10.0407C17.5275 10.0432 17.5218 10.0451 17.5161 10.0448ZM17.7347 9.92422C17.6991 9.92422 17.6888 9.87763 17.7183 9.86256L17.8635 9.78239C17.9012 9.76046 17.9348 9.81939 17.8957 9.84063L17.7505 9.92011C17.7456 9.92273 17.7402 9.92414 17.7347 9.92422ZM18.0245 9.76457C18.0186 9.76456 18.0129 9.76296 18.0078 9.75995C18.0027 9.75693 17.9986 9.75261 17.9958 9.74744C17.9916 9.7397 17.9906 9.73063 17.993 9.72217C17.9955 9.71371 18.0011 9.70655 18.0088 9.70222L18.154 9.62206C18.191 9.60013 18.2253 9.65906 18.1862 9.6803L18.041 9.76046C18.0359 9.76316 18.0303 9.76457 18.0245 9.76457ZM18.3151 9.60424C18.3092 9.60422 18.3034 9.60263 18.2983 9.59961C18.2933 9.5966 18.2891 9.59228 18.2863 9.58711C18.2823 9.57944 18.2814 9.57053 18.2839 9.56223C18.2863 9.55394 18.2918 9.5469 18.2993 9.54257L18.4446 9.46172C18.4836 9.44117 18.5144 9.49872 18.4768 9.51996L18.3315 9.60013C18.3264 9.60286 18.3208 9.60427 18.3151 9.60424ZM18.6056 9.44391C18.5706 9.44391 18.5603 9.398 18.5898 9.38224L18.7351 9.30207C18.7734 9.28015 18.805 9.33976 18.7666 9.36031L18.6213 9.44048C18.6164 9.44286 18.611 9.44404 18.6056 9.44391ZM18.8961 9.28426C18.8611 9.28426 18.8509 9.23767 18.8796 9.22259L19.0256 9.14243C19.0646 9.1205 19.0955 9.17943 19.0578 9.19998L18.9118 9.28015C18.907 9.28276 18.9016 9.28418 18.8961 9.28426ZM19.1866 9.12461C19.1807 9.1246 19.1749 9.123 19.1699 9.11998C19.1648 9.11697 19.1607 9.11265 19.1578 9.10748C19.1536 9.09974 19.1527 9.09067 19.1551 9.08221C19.1575 9.07375 19.1632 9.06659 19.1708 9.06226L19.3161 8.98209C19.3552 8.96085 19.3867 9.01978 19.3483 9.04033L19.2031 9.1205C19.198 9.1232 19.1923 9.12461 19.1866 9.12461ZM19.4771 8.96428C19.4422 8.96428 19.4319 8.91837 19.4614 8.90261L19.6059 8.82244C19.645 8.80052 19.6772 8.85944 19.6381 8.88069L19.4929 8.96017C19.488 8.96278 19.4826 8.96419 19.4771 8.96428ZM19.7676 8.80394C19.7327 8.80394 19.7224 8.75804 19.7512 8.74228L19.8965 8.66211C19.9341 8.64019 19.9677 8.69911 19.9287 8.72035L19.7834 8.80052C19.7785 8.8029 19.7731 8.80407 19.7676 8.80394ZM20.0582 8.6443C20.0225 8.6443 20.0123 8.5977 20.0417 8.58263L20.187 8.50178C20.226 8.48122 20.2576 8.53946 20.2192 8.56002L20.0739 8.64018C20.0691 8.6428 20.0637 8.64421 20.0582 8.6443ZM20.348 8.48465C20.3137 8.48465 20.3028 8.43806 20.3322 8.4223L20.4775 8.34213C20.5152 8.32089 20.5481 8.37913 20.5097 8.40037L20.3644 8.48054C20.3594 8.48326 20.3537 8.48468 20.348 8.48465ZM20.6385 8.32431C20.6043 8.32431 20.5933 8.27841 20.6228 8.26265L20.768 8.18248C20.8057 8.16056 20.8386 8.21948 20.8002 8.24072L20.655 8.3202C20.6499 8.32293 20.6443 8.32434 20.6385 8.32431ZM20.929 8.16398C20.8941 8.16398 20.8838 8.11807 20.9133 8.10231L21.0585 8.02215C21.0955 8.00022 21.1298 8.05915 21.0901 8.08039L20.9455 8.15987C20.9404 8.1626 20.9348 8.16401 20.929 8.16398ZM21.2196 8.00433C21.1846 8.00433 21.1743 7.95774 21.2038 7.94267L21.3491 7.86181C21.3854 7.8392 21.421 7.89881 21.3813 7.92006L21.2353 8.00022C21.2305 8.00281 21.2251 8.00422 21.2196 8.00433ZM21.5101 7.844C21.4758 7.844 21.4648 7.79809 21.4943 7.78233L21.6396 7.70217C21.6766 7.68024 21.7108 7.73917 21.6718 7.76041L21.5265 7.84057C21.5214 7.84306 21.5158 7.84424 21.5101 7.844ZM21.8006 7.68435C21.7656 7.68435 21.7554 7.63776 21.7848 7.62268L21.9301 7.54252C21.9657 7.51991 22.002 7.57883 21.9616 7.60076L21.817 7.68024C21.812 7.68297 21.8063 7.68438 21.8006 7.68435ZM22.2021 7.55828C22.196 7.55832 22.1901 7.55668 22.1849 7.55353C22.1797 7.55039 22.1754 7.54586 22.1726 7.54046L22.15 7.49661L22.1069 7.52059C22.0658 7.54046 22.0383 7.48291 22.0753 7.46235L22.1473 7.42193C22.1678 7.4137 22.185 7.42056 22.1932 7.43563L22.2316 7.50963C22.2357 7.51745 22.2366 7.52659 22.234 7.53506C22.2315 7.54353 22.2256 7.55064 22.2179 7.55485C22.213 7.55728 22.2076 7.55846 22.2021 7.55828ZM22.3645 7.87415C22.3583 7.8744 22.3521 7.87286 22.3468 7.8697C22.3414 7.86654 22.3371 7.86189 22.3343 7.85633L22.2535 7.69874C22.2343 7.66037 22.2926 7.62748 22.3124 7.66791L22.3933 7.82618C22.3953 7.83001 22.3966 7.83419 22.397 7.8385C22.3974 7.84281 22.3969 7.84716 22.3957 7.8513C22.3944 7.85544 22.3923 7.85928 22.3896 7.86262C22.3868 7.86595 22.3834 7.8687 22.3796 7.87072C22.3747 7.87327 22.37 7.87446 22.3645 7.87415ZM22.4536 8.08861L22.4166 8.01461C22.3967 7.97693 22.4549 7.94404 22.4748 7.98446L22.5132 8.05846C22.5337 8.09889 22.4721 8.12698 22.4536 8.08861Z" fill="black"/>
<path d="M19.8704 15.0439V15.6688C19.8704 15.6924 19.861 15.7151 19.8443 15.7318C19.8276 15.7485 19.805 15.7579 19.7813 15.7579H17.412C17.3883 15.7579 17.3657 15.7485 17.349 15.7318C17.3323 15.7151 17.3229 15.6924 17.3229 15.6688V15.0439C17.3229 15.0203 17.3323 14.9976 17.349 14.9809C17.3657 14.9642 17.3883 14.9548 17.412 14.9548H19.782C19.8056 14.9548 19.8283 14.9642 19.845 14.9809C19.8617 14.9976 19.8704 15.0203 19.8704 15.0439Z" fill="#19345D"/>
</svg>
