<svg width="38" height="38" viewBox="0 0 38 38" fill="none" xmlns="http://www.w3.org/2000/svg">
<path d="M34.6861 13.6349H33.1418L31.9308 15.2233V30.4709H6.06096C5.97153 30.7171 5.92188 30.8532 5.92188 30.8532V34.7144L6.40615 35.5045L7.05445 35.7572H15.0446C15.6047 35.7572 16.1152 36.0589 16.4056 36.5378C16.9372 37.4143 17.9 38 19 38C20.0999 38 21.0627 37.4143 21.5943 36.5378C21.8848 36.0589 22.3951 35.7572 22.9552 35.7572H34.6861C35.3719 35.7572 35.9278 35.2012 35.9278 34.5154V14.8767C35.9279 14.1909 35.3719 13.6349 34.6861 13.6349Z" fill="#CE7BBC"/>
<path d="M6.21186 34.5154V30.4708H5.56497V14.4961L4.85811 13.6349H3.31384C2.62798 13.6349 2.07208 14.1909 2.07208 14.8766V34.5154C2.07208 35.2011 2.62806 35.7571 3.31384 35.7571H7.45368C6.76783 35.7571 6.21186 35.2011 6.21186 34.5154Z" fill="#C464B0"/>
<path d="M32.4693 11.2626C30.5006 10.6012 28.498 10.2956 26.5289 10.3195L25.0496 11.2966L20.9477 17.2468L18.1683 23.326V31.9491L19 33.5272C23.0522 31.5452 27.7438 31.1496 32.2554 32.6048C32.693 32.7459 33.1419 32.4244 33.1419 31.9646V12.1943C33.1419 11.7713 32.8702 11.3973 32.4693 11.2626Z" fill="#C9F0FE"/>
<path d="M17.0523 21.4689V18.3853L15.8394 16.7044V13.9324L12.8334 10.8973L11.4711 10.3196C10.4842 10.3079 9.49803 10.3786 8.52287 10.5309L7.45367 11.2414V31.6465L8.3371 31.9733C12.0207 31.3584 15.7198 31.9229 19 33.5273V23.6586L17.0523 21.4689Z" fill="#9BE8FD"/>
<path d="M8.19491 31.555V11.2726C8.19491 10.9837 8.31893 10.7176 8.52281 10.5308C7.50653 10.6896 6.50557 10.9344 5.53068 11.2625C5.12975 11.3972 4.85803 11.7713 4.85803 12.1942V31.9645C4.85803 32.4243 5.30691 32.7458 5.7445 32.6047C6.59207 32.331 7.45857 32.12 8.33704 31.9732C8.24452 31.8534 8.19451 31.7063 8.19491 31.555Z" fill="#62DDFC"/>
<path d="M16.4789 29.4644C16.421 29.4643 16.3635 29.4555 16.3082 29.4383C13.6637 28.6147 10.8182 28.4517 8.07926 28.9669C7.92979 28.995 7.77528 28.9626 7.64971 28.8768C7.52414 28.7909 7.43781 28.6588 7.4097 28.5093C7.38159 28.3598 7.41401 28.2053 7.49983 28.0797C7.58564 27.9542 7.71782 27.8678 7.86729 27.8397C10.7897 27.29 13.8265 27.4642 16.6492 28.3433C16.7801 28.3842 16.892 28.4705 16.9647 28.5868C17.0373 28.703 17.066 28.8414 17.0454 28.977C17.0248 29.1125 16.9563 29.2362 16.8524 29.3256C16.7485 29.415 16.616 29.4642 16.4789 29.4644ZM16.4789 26.7138C16.421 26.7137 16.3635 26.7049 16.3082 26.6877C13.6637 25.8641 10.8182 25.701 8.07926 26.2163C8.00526 26.2302 7.92923 26.2294 7.85552 26.214C7.78182 26.1985 7.71188 26.1687 7.6497 26.1262C7.58752 26.0837 7.53433 26.0294 7.49316 25.9663C7.45198 25.9033 7.42364 25.8327 7.40974 25.7587C7.39581 25.6847 7.39659 25.6087 7.41205 25.535C7.42751 25.4613 7.45733 25.3913 7.49982 25.3291C7.54231 25.267 7.59663 25.2138 7.65968 25.1726C7.72273 25.1314 7.79328 25.103 7.86729 25.0891C10.7897 24.5394 13.8265 24.7136 16.6492 25.5927C16.7801 25.6335 16.892 25.7199 16.9647 25.8361C17.0373 25.9524 17.066 26.0908 17.0454 26.2264C17.0248 26.3619 16.9563 26.4856 16.8524 26.575C16.7485 26.6644 16.616 26.7136 16.4789 26.7138ZM7.97269 23.4754C7.82984 23.4753 7.6922 23.4219 7.58668 23.3256C7.48117 23.2293 7.41538 23.0971 7.4022 22.9549C7.38902 22.8126 7.42939 22.6706 7.51541 22.5566C7.60143 22.4426 7.72691 22.3647 7.86729 22.3383C9.78555 21.9776 11.731 21.9241 13.65 22.1797C13.7996 22.2012 13.9347 22.2808 14.0259 22.4012C14.1172 22.5217 14.1571 22.6733 14.1372 22.8231C14.1172 22.9729 14.039 23.1088 13.9194 23.2012C13.7998 23.2936 13.6486 23.3351 13.4986 23.3166C11.7008 23.0771 9.87744 23.1272 8.07934 23.4655C8.04417 23.4721 8.00847 23.4754 7.97269 23.4754ZM7.97269 20.7248C7.82984 20.7247 7.6922 20.6712 7.58668 20.575C7.48117 20.4787 7.41538 20.3465 7.4022 20.2043C7.38902 20.062 7.42939 19.92 7.51541 19.806C7.60143 19.6919 7.72691 19.6141 7.86729 19.5877C9.00915 19.373 10.1723 19.269 11.3258 19.2707C11.4768 19.2726 11.6209 19.3341 11.7268 19.4416C11.8328 19.5492 11.8921 19.6942 11.8918 19.8452C11.8915 19.9962 11.8317 20.1409 11.7253 20.2481C11.619 20.3553 11.4746 20.4161 11.3237 20.4176C11.3009 20.4172 11.2792 20.4174 11.257 20.4174C10.1909 20.418 9.12708 20.5176 8.07934 20.7149C8.04349 20.7216 8.00779 20.7248 7.97269 20.7248ZM7.97269 17.9741C7.82984 17.9739 7.6922 17.9205 7.58668 17.8242C7.48117 17.7279 7.41538 17.5957 7.4022 17.4535C7.38902 17.3113 7.42939 17.1692 7.51541 17.0552C7.60143 16.9412 7.72691 16.8633 7.86729 16.8369C9.00871 16.6222 10.1711 16.5142 11.3258 16.5199C11.4011 16.5202 11.4756 16.5353 11.5451 16.5644C11.6146 16.5934 11.6776 16.6359 11.7307 16.6894C11.7837 16.7428 11.8257 16.8062 11.8543 16.8759C11.8828 16.9456 11.8974 17.0202 11.8971 17.0955C11.8965 17.2472 11.8358 17.3925 11.7284 17.4996C11.6209 17.6067 11.4754 17.6668 11.3237 17.6668C11.3017 17.6678 11.2799 17.6667 11.2581 17.6666C10.1978 17.6666 9.12879 17.7667 8.07941 17.9641C8.04422 17.9707 8.00849 17.9741 7.97269 17.9741ZM7.97269 15.2234C7.82984 15.2232 7.6922 15.1698 7.58668 15.0735C7.48117 14.9772 7.41538 14.845 7.4022 14.7028C7.38902 14.5606 7.42939 14.4185 7.51541 14.3045C7.60143 14.1905 7.72691 14.1126 7.86729 14.0863C9.00871 13.8715 10.1739 13.7645 11.3257 13.7692C11.401 13.7695 11.4756 13.7846 11.545 13.8137C11.6145 13.8428 11.6776 13.8852 11.7306 13.9387C11.7836 13.9921 11.8256 14.0555 11.8542 14.1252C11.8828 14.1949 11.8973 14.2695 11.897 14.3448C11.8958 14.6615 11.6409 14.9188 11.3214 14.9161C10.2337 14.9126 9.1482 15.0121 8.07934 15.2134C8.04417 15.22 8.00847 15.2234 7.97269 15.2234ZM21.521 29.4644C21.384 29.4642 21.2515 29.4149 21.1476 29.3255C21.0438 29.236 20.9753 29.1124 20.9548 28.9769C20.9342 28.8414 20.9628 28.703 21.0355 28.5867C21.1081 28.4705 21.2199 28.3841 21.3508 28.3432C24.1735 27.4641 27.2102 27.2901 30.1327 27.8397C30.2067 27.8536 30.2773 27.8819 30.3403 27.9231C30.4034 27.9643 30.4577 28.0175 30.5002 28.0797C30.5427 28.1419 30.5725 28.2118 30.5879 28.2855C30.6034 28.3592 30.6042 28.4352 30.5903 28.5093C30.5318 28.8205 30.2318 29.0256 29.9207 28.9668C27.1817 28.4514 24.3363 28.6146 21.6918 29.4383C21.6365 29.4556 21.5789 29.4644 21.521 29.4644ZM21.521 26.7138C21.384 26.7135 21.2515 26.6643 21.1476 26.5748C21.0438 26.4854 20.9753 26.3618 20.9548 26.2262C20.9342 26.0907 20.9628 25.9523 21.0355 25.8361C21.1081 25.7199 21.2199 25.6335 21.3508 25.5926C24.1735 24.7135 27.2102 24.5395 30.1327 25.089C30.2822 25.1171 30.4144 25.2035 30.5002 25.329C30.586 25.4546 30.6184 25.6091 30.5903 25.7586C30.5622 25.9081 30.4758 26.0403 30.3503 26.1261C30.2247 26.2119 30.0702 26.2443 29.9207 26.2162C27.1817 25.7008 24.3363 25.8639 21.6918 26.6876C21.6365 26.7049 21.5789 26.7137 21.521 26.7138ZM30.0272 23.4754C29.9914 23.4755 29.9557 23.4721 29.9206 23.4655C28.1225 23.1272 26.2992 23.077 24.5013 23.3166C24.1873 23.3588 23.899 23.1379 23.8571 22.8239C23.8371 22.6731 23.8777 22.5206 23.9701 22.3998C24.0625 22.279 24.1991 22.1998 24.3499 22.1797C26.2688 21.9241 28.2144 21.9775 30.1326 22.3383C30.273 22.3647 30.3985 22.4426 30.4845 22.5566C30.5705 22.6706 30.6109 22.8126 30.5977 22.9549C30.5845 23.0971 30.5188 23.2293 30.4132 23.3256C30.3077 23.4219 30.1701 23.4753 30.0272 23.4754ZM30.0272 20.7248C29.9914 20.7248 29.9557 20.7215 29.9206 20.7149C28.85 20.5135 27.7595 20.4131 26.6786 20.4176H26.6763C26.5254 20.4161 26.381 20.3553 26.2747 20.2481C26.1683 20.1409 26.1085 19.9962 26.1082 19.8452C26.1079 19.6942 26.1672 19.5492 26.2731 19.4416C26.3791 19.3341 26.5232 19.2726 26.6742 19.2707C27.8289 19.2658 28.9909 19.3729 30.1327 19.5877C30.2731 19.6141 30.3986 19.6919 30.4846 19.806C30.5706 19.92 30.611 20.0621 30.5978 20.2043C30.5846 20.3465 30.5188 20.4787 30.4133 20.575C30.3077 20.6713 30.1701 20.7247 30.0272 20.7248ZM30.0272 17.9741C29.9914 17.9741 29.9557 17.9707 29.9206 17.9641C28.8516 17.7636 27.7662 17.6641 26.6786 17.6668H26.6763C26.5246 17.6668 26.3791 17.6067 26.2716 17.4996C26.1642 17.3925 26.1035 17.2472 26.1029 17.0955C26.1026 17.0202 26.1172 16.9456 26.1457 16.8759C26.1743 16.8062 26.2163 16.7428 26.2693 16.6894C26.3224 16.6359 26.3854 16.5934 26.4549 16.5644C26.5244 16.5353 26.5989 16.5202 26.6742 16.5199C27.8344 16.5166 28.9923 16.6228 30.1326 16.8369C30.273 16.8633 30.3985 16.9412 30.4845 17.0552C30.5705 17.1692 30.6109 17.3113 30.5977 17.4535C30.5845 17.5957 30.5188 17.7279 30.4132 17.8242C30.3077 17.9205 30.1701 17.9739 30.0272 17.9741ZM30.0272 15.2234C29.9914 15.2234 29.9557 15.22 29.9206 15.2134C28.8503 15.0121 27.7598 14.9116 26.6786 14.9161H26.6763C26.5246 14.9161 26.3791 14.856 26.2716 14.7489C26.1642 14.6418 26.1035 14.4965 26.1029 14.3448C26.1026 14.2695 26.1172 14.1949 26.1457 14.1252C26.1743 14.0555 26.2163 13.9921 26.2693 13.9387C26.3224 13.8852 26.3854 13.8428 26.4549 13.8137C26.5244 13.7846 26.5989 13.7695 26.6742 13.7692C27.8344 13.7658 28.9924 13.872 30.1326 14.0863C30.273 14.1126 30.3985 14.1905 30.4845 14.3045C30.5705 14.4185 30.6109 14.5606 30.5977 14.7028C30.5845 14.845 30.5188 14.9772 30.4132 15.0735C30.3077 15.1698 30.1701 15.2232 30.0272 15.2234Z" fill="#62DDFC"/>
<path d="M21.7746 18.0972H18.6428V20.923L18.867 21.2708L18.7288 21.4868V21.6652H21.2692L21.9119 21.2708V18.3851L21.7746 18.0972Z" fill="#00C2FB"/>
<path d="M18.867 18.3851L19.0793 18.0972H16.2695L16.0571 18.3851V21.2708L16.4478 21.6652H19.2577L18.867 21.2708V18.3851Z" fill="#00ABF2"/>
<path d="M18.867 21.2708L18.7289 21.4868V22.4646L19.7037 23.5679H20.3894C21.2702 23.3031 21.9119 22.4864 21.9119 21.5195V21.2708L18.867 21.2708Z" fill="#00ABF2"/>
<path d="M18.867 21.5194V21.2708H16.057V21.5194C16.057 22.7008 17.0148 23.6585 18.1962 23.6585H19.7727C19.9871 23.6585 20.1941 23.6266 20.3894 23.5679C19.5087 23.3031 18.867 22.4863 18.867 21.5194Z" fill="#0092D1"/>
<path d="M20.9083 0.232544H19L16.6997 2.12987C16.6997 2.12987 14.3458 4.704 14.4984 4.78045C14.651 4.85689 14.1922 7.55845 14.1922 7.55845L14.5317 9.91891L16.3331 12.7832L17.4545 14.3379V18.1855L17.5963 18.1226L18.1335 18.3928H19.8353L20.3599 18.1226L20.9822 18.3928H21.7905C22.647 18.3928 23.3413 17.6985 23.3413 16.842V15.6707C23.3413 14.9889 23.6299 14.334 24.1478 13.8904C25.832 12.4478 26.9016 10.3083 26.909 7.91864C26.9204 4.2909 24.4155 1.1009 20.9083 0.232544Z" fill="#FFE02F"/>
<path d="M17.6393 13.8592C15.9758 12.417 14.9211 10.2914 14.9138 7.91868C14.9023 4.22875 17.4651 1.09137 20.9083 0.232589C20.2606 0.0722022 19.5786 -0.00906735 18.8721 0.000803745C14.5676 0.0606983 11.0775 3.61385 11.0908 7.91868C11.0982 10.3084 12.1678 12.4479 13.8519 13.8905C14.3698 14.334 14.6585 14.9888 14.6585 15.6708V16.8421C14.6585 17.6986 15.3528 18.3929 16.2093 18.3929H16.9866L17.5963 18.1226L17.6392 18.1443V13.8592H17.6393Z" fill="#FBC700"/>
<path d="M22.1296 7.97876C21.9775 7.97876 21.8317 8.03917 21.7242 8.14671C21.6166 8.25424 21.5562 8.40009 21.5562 8.55217V11.2259C21.5562 11.3956 21.4982 11.5624 21.3931 11.6956L20.3291 13.0421C20.01 13.4472 19.8362 13.9477 19.8354 14.4634V18.3928H20.9823V14.4634C20.9827 14.2057 21.0696 13.9555 21.2291 13.7531L22.293 12.4066C22.5581 12.07 22.7025 11.6542 22.7031 11.2258V8.5521C22.7031 8.4768 22.6883 8.40224 22.6594 8.33267C22.6306 8.2631 22.5884 8.1999 22.5351 8.14666C22.4819 8.09342 22.4186 8.05119 22.3491 8.02238C22.2795 7.99357 22.2049 7.97875 22.1296 7.97876ZM18.1335 18.3929V14.4635C18.1335 13.9499 17.9582 13.4452 17.6398 13.0422L16.5759 11.6957C16.4704 11.5618 16.413 11.3964 16.4128 11.226V8.55225C16.4128 8.47695 16.3979 8.40238 16.3691 8.33281C16.3403 8.26324 16.2981 8.20003 16.2448 8.14678C16.1916 8.09354 16.1284 8.0513 16.0588 8.02248C15.9892 7.99367 15.9147 7.97883 15.8394 7.97883C15.7641 7.97883 15.6895 7.99367 15.6199 8.02248C15.5504 8.0513 15.4871 8.09354 15.4339 8.14678C15.3806 8.20003 15.3384 8.26324 15.3096 8.33281C15.2808 8.40238 15.2659 8.47695 15.2659 8.55225V11.226C15.2666 11.6544 15.411 12.0702 15.6761 12.4067L16.74 13.7532C16.8995 13.9557 16.9864 14.2058 16.9867 14.4635V18.393L18.1335 18.3929Z" fill="#FFF1AF"/>
<path d="M22.9281 10.3012H15.0719C14.9198 10.3012 14.7739 10.2408 14.6664 10.1333C14.5589 10.0258 14.4984 9.87991 14.4984 9.72783C14.4984 9.57575 14.5589 9.4299 14.6664 9.32237C14.7739 9.21483 14.9198 9.15442 15.0719 9.15442H22.9281C23.0801 9.15442 23.226 9.21483 23.3335 9.32237C23.4411 9.4299 23.5015 9.57575 23.5015 9.72783C23.5015 9.87991 23.4411 10.0258 23.3335 10.1333C23.226 10.2408 23.0801 10.3012 22.9281 10.3012Z" fill="#FFF1AF"/>
</svg>
