<svg width="28" height="28" viewBox="0 0 28 28" fill="none" xmlns="http://www.w3.org/2000/svg">
<path d="M18.9583 26.25C20.0859 26.25 21 25.3359 21 24.2083C21 23.0807 20.0859 22.1666 18.9583 22.1666C17.8307 22.1666 16.9166 23.0807 16.9166 24.2083C16.9166 25.3359 17.8307 26.25 18.9583 26.25Z" fill="#0D9769"/>
<path d="M9.62504 26.25C10.7526 26.25 11.6667 25.3359 11.6667 24.2083C11.6667 23.0807 10.7526 22.1666 9.62504 22.1666C8.49746 22.1666 7.58337 23.0807 7.58337 24.2083C7.58337 25.3359 8.49746 26.25 9.62504 26.25Z" fill="#0D9769"/>
<path d="M5.64671 4.59671L5.41337 7.45504C5.36671 8.00337 5.79837 8.45837 6.34671 8.45837H24.2084C24.6984 8.45837 25.1067 8.08504 25.1417 7.59504C25.2934 5.53004 23.7184 3.85004 21.6534 3.85004H7.31504C7.19837 3.33671 6.96504 2.84671 6.60337 2.43837C6.02004 1.82004 5.20337 1.45837 4.36337 1.45837H2.33337C1.85504 1.45837 1.45837 1.85504 1.45837 2.33337C1.45837 2.81171 1.85504 3.20837 2.33337 3.20837H4.36337C4.72504 3.20837 5.06337 3.36004 5.30837 3.61671C5.55337 3.88504 5.67004 4.23504 5.64671 4.59671Z" fill="#0D9769"/>
<path d="M23.9284 10.2084H6.03169C5.54169 10.2084 5.14502 10.5817 5.09835 11.06L4.67835 16.135C4.51502 18.13 6.07835 19.8334 8.07335 19.8334H21.0467C22.7967 19.8334 24.3367 18.3984 24.4651 16.6484L24.8501 11.2C24.8967 10.6634 24.4767 10.2084 23.9284 10.2084Z" fill="#0D9769"/>
</svg>
