<svg width="28" height="28" viewBox="0 0 28 28" fill="none" xmlns="http://www.w3.org/2000/svg">
<path d="M2.33337 2.33337H4.36339C5.62339 2.33337 6.61504 3.41837 6.51004 4.66671L5.54171 16.2867C5.37837 18.1884 6.88336 19.8217 8.7967 19.8217H21.2217C22.9017 19.8217 24.3717 18.445 24.5 16.7767L25.13 8.02671C25.27 6.09004 23.8 4.51504 21.8517 4.51504H6.79005" stroke="#8D8F8D" stroke-width="1.5" stroke-miterlimit="10" stroke-linecap="round" stroke-linejoin="round"/>
<path d="M18.9583 25.6667C19.7638 25.6667 20.4167 25.0138 20.4167 24.2083C20.4167 23.4029 19.7638 22.75 18.9583 22.75C18.1529 22.75 17.5 23.4029 17.5 24.2083C17.5 25.0138 18.1529 25.6667 18.9583 25.6667Z" stroke="#8D8F8D" stroke-width="1.5" stroke-miterlimit="10" stroke-linecap="round" stroke-linejoin="round"/>
<path d="M9.62496 25.6667C10.4304 25.6667 11.0833 25.0138 11.0833 24.2083C11.0833 23.4029 10.4304 22.75 9.62496 22.75C8.81954 22.75 8.16663 23.4029 8.16663 24.2083C8.16663 25.0138 8.81954 25.6667 9.62496 25.6667Z" stroke="#8D8F8D" stroke-width="1.5" stroke-miterlimit="10" stroke-linecap="round" stroke-linejoin="round"/>
<path d="M10.5 9.33337H24.5" stroke="#8D8F8D" stroke-width="1.5" stroke-miterlimit="10" stroke-linecap="round" stroke-linejoin="round"/>
</svg>
