<svg width="256" height="247" viewBox="0 0 256 247" fill="none" xmlns="http://www.w3.org/2000/svg">
<path d="M128.09 247C198.645 247 255.841 241.416 255.841 234.528C255.841 227.641 198.645 222.057 128.09 222.057C57.535 222.057 0.338867 227.641 0.338867 234.528C0.338867 241.416 57.535 247 128.09 247Z" fill="#F5F5F5"/>
<mask id="mask0_295_15288" style="mask-type:luminance" maskUnits="userSpaceOnUse" x="117" y="2" width="122" height="227">
<path d="M124.134 228.879H231.871C235.428 228.879 238.317 225.995 238.317 222.432V8.44675C238.317 4.88932 235.434 2 231.871 2H124.134C120.576 2 117.687 4.88346 117.687 8.44675V222.438C117.687 225.995 120.57 228.879 124.134 228.879Z" fill="white"/>
</mask>
<g mask="url(#mask0_295_15288)">
<path d="M111.687 228.879L244.32 228.879L244.32 2.00011L111.687 2.00011L111.687 228.879Z" fill="#F5F5F5"/>
<path d="M242.18 54.8927H208.381" stroke="white" stroke-width="0.763706" stroke-linecap="round" stroke-linejoin="round" stroke-dasharray="1.44 1.44"/>
<path d="M207.666 54.8927H206.957V54.1894" stroke="white" stroke-width="0.763706" stroke-linecap="round" stroke-linejoin="round"/>
<path d="M206.957 52.8004V3.40073" stroke="white" stroke-width="0.763706" stroke-linecap="round" stroke-linejoin="round" stroke-dasharray="1.39 1.39"/>
<path d="M206.957 2.70329V2" stroke="white" stroke-width="0.763706" stroke-linecap="round" stroke-linejoin="round"/>
<path d="M206.957 54.8927V55.5959" stroke="white" stroke-width="0.763706" stroke-linecap="round" stroke-linejoin="round"/>
<path d="M206.957 57.0435V105.476" stroke="white" stroke-width="0.763706" stroke-linecap="round" stroke-linejoin="round" stroke-dasharray="1.45 1.45"/>
<path d="M206.957 106.203V106.906H206.253" stroke="white" stroke-width="0.763706" stroke-linecap="round" stroke-linejoin="round"/>
<path d="M204.853 106.906H113.092" stroke="white" stroke-width="0.763706" stroke-linecap="round" stroke-linejoin="round" stroke-dasharray="1.4 1.4"/>
<path d="M175.397 56.7863C179.072 47.9136 174.859 37.7415 165.986 34.0663C157.113 30.391 146.941 34.6043 143.266 43.477C139.591 52.3497 143.804 62.5217 152.677 66.197C161.549 69.8723 171.722 65.6589 175.397 56.7863Z" stroke="white" stroke-width="0.763706" stroke-linecap="round" stroke-linejoin="round" stroke-dasharray="1.4 1.4"/>
<path d="M167.105 53.3775C168.896 49.0849 166.868 44.153 162.575 42.3618C158.283 40.5706 153.351 42.5984 151.56 46.891C149.768 51.1836 151.796 56.1155 156.089 57.9067C160.382 59.6979 165.313 57.6701 167.105 53.3775Z" fill="#E8E8E8"/>
<path d="M242.209 213.512C230.376 211.941 221.245 201.838 221.245 189.577C221.245 177.076 230.739 166.82 242.912 165.56" stroke="white" stroke-width="0.763706" stroke-linecap="round" stroke-linejoin="round" stroke-dasharray="1.42 1.42"/>
<path d="M244.319 177.522V201.644C237.902 201.357 232.779 196.077 232.779 189.583C232.785 183.089 237.902 177.809 244.319 177.522Z" fill="#D3D3D3"/>
<path d="M149.089 36.074L148.567 35.5993" stroke="white" stroke-width="0.763706" stroke-linecap="round" stroke-linejoin="round"/>
<path d="M147.53 34.6557L112.723 2.94943" stroke="white" stroke-width="0.763706" stroke-linecap="round" stroke-linejoin="round" stroke-dasharray="1.41 1.41"/>
<path d="M206.957 106.906L207.443 107.416" stroke="white" stroke-width="0.763706" stroke-linecap="round" stroke-linejoin="round"/>
<path d="M208.428 108.459L243.346 145.434" stroke="white" stroke-width="0.763706" stroke-linecap="round" stroke-linejoin="round" stroke-dasharray="1.43 1.43"/>
<path d="M242.209 146.466H178.116" stroke="white" stroke-width="0.763706" stroke-linecap="round" stroke-linejoin="round" stroke-dasharray="1.41 1.41"/>
<path d="M177.413 146.466H176.71V147.169" stroke="white" stroke-width="0.763706" stroke-linecap="round" stroke-linejoin="round"/>
<path d="M176.71 148.587V227.466" stroke="white" stroke-width="0.763706" stroke-linecap="round" stroke-linejoin="round" stroke-dasharray="1.42 1.42"/>
<path d="M176.71 228.176V228.879" stroke="white" stroke-width="0.763706" stroke-linecap="round" stroke-linejoin="round"/>
<path d="M221.245 189.583H220.542" stroke="white" stroke-width="0.763706" stroke-linecap="round" stroke-linejoin="round"/>
<path d="M219.147 189.583H178.111" stroke="white" stroke-width="0.763706" stroke-linecap="round" stroke-linejoin="round" stroke-dasharray="1.39 1.39"/>
<path d="M177.413 189.583H176.71" stroke="white" stroke-width="0.763706" stroke-linecap="round" stroke-linejoin="round"/>
<path d="M141.933 228.879V228.175" stroke="white" stroke-width="0.763706" stroke-linecap="round" stroke-linejoin="round"/>
<path d="M141.933 226.787V169.287" stroke="white" stroke-width="0.763706" stroke-linecap="round" stroke-linejoin="round" stroke-dasharray="1.39 1.39"/>
<path d="M141.933 168.596V167.893H142.636" stroke="white" stroke-width="0.763706" stroke-linecap="round" stroke-linejoin="round"/>
<path d="M144.09 167.893H175.28" stroke="white" stroke-width="0.763706" stroke-linecap="round" stroke-linejoin="round" stroke-dasharray="1.45 1.45"/>
<path d="M176.007 167.893H176.71" stroke="white" stroke-width="0.763706" stroke-linecap="round" stroke-linejoin="round"/>
<path d="M141.933 167.893L141.358 167.488" stroke="white" stroke-width="0.763706" stroke-linecap="round" stroke-linejoin="round"/>
<path d="M140.198 166.662L112.84 147.286" stroke="white" stroke-width="0.763706" stroke-linecap="round" stroke-linejoin="round" stroke-dasharray="1.43 1.43"/>
<path d="M113.801 146.466H175.297" stroke="white" stroke-width="0.763706" stroke-linecap="round" stroke-linejoin="round" stroke-dasharray="1.41 1.41"/>
<path d="M176.007 146.466H176.71" stroke="white" stroke-width="0.763706" stroke-linecap="round" stroke-linejoin="round"/>
<path d="M192.305 146.466L191.86 145.927" stroke="white" stroke-width="0.763706" stroke-linecap="round" stroke-linejoin="round"/>
<path d="M190.946 144.831L159.321 106.906V68.9349" stroke="white" stroke-width="0.763706" stroke-linecap="round" stroke-linejoin="round" stroke-dasharray="1.42 1.42"/>
<path d="M159.321 68.2258V67.5225" stroke="white" stroke-width="0.763706" stroke-linecap="round" stroke-linejoin="round"/>
<path d="M114.381 103.058H155.312V87.6736H114.381V103.058Z" fill="#CDD4E0"/>
<path d="M210.519 71.7425H241.575V58.556H210.519V71.7425Z" fill="#E6E6E6"/>
<path d="M181.413 186.023H196.247V150.583H181.413V186.023Z" fill="#CDD4E0"/>
<path d="M145.421 225.584H173.992V213.704H145.421V225.584Z" fill="#CDD4E0"/>
</g>
<path d="M124.134 228.879H231.871C235.428 228.879 238.317 225.995 238.317 222.432V8.44675C238.317 4.88932 235.434 2 231.871 2H124.134C120.576 2 117.687 4.88346 117.687 8.44675V222.438C117.687 225.995 120.57 228.879 124.134 228.879Z" stroke="#1C2547" stroke-width="2.40399" stroke-miterlimit="10"/>
<path d="M158.132 8.14786H197.873C201.266 8.14786 204.021 5.39334 204.021 2H151.99C151.984 5.39334 154.738 8.14786 158.132 8.14786Z" fill="#1C2547"/>
<path d="M169.818 189.02H114.2V231.733H169.818V189.02Z" fill="#FFCCA8"/>
<path d="M135.111 189.02H114.2V231.733H135.111V189.02Z" fill="#EEBE9C"/>
<path d="M148.939 199.957H156.441V189.026H148.939V199.957Z" fill="#FF9C54"/>
<path d="M121.94 199.957H127.367V189.026H121.94V199.957Z" fill="#FF9C54"/>
<path d="M116.818 230.39H127.068V225.848H116.818V230.39Z" fill="#FF9C54"/>
<path d="M119.004 227.311H124.876V226.813H119.004V227.311Z" fill="white"/>
<path d="M119.004 228.369H124.876V227.87H119.004V228.369Z" fill="white"/>
<path d="M119.004 229.426H124.876V228.928H119.004V229.426Z" fill="white"/>
<path d="M135.345 34.8843C135.345 34.9136 135.345 34.9429 135.351 34.9722C135.269 41.4072 141.095 48.0415 143.216 50.2393C143.357 50.3917 143.486 50.5206 143.597 50.6261C143.703 50.5206 143.831 50.3917 143.978 50.2393C146.111 48.0298 151.978 41.3486 151.849 34.8843C151.849 30.3305 148.157 26.6383 143.597 26.6383C139.037 26.6325 135.345 30.3247 135.345 34.8843ZM141.223 35.7751C141.223 34.4623 142.284 33.4015 143.597 33.4015C144.91 33.4015 145.971 34.4623 145.971 35.7751C145.971 37.0879 144.91 38.1487 143.597 38.1487C142.284 38.1487 141.223 37.0879 141.223 35.7751Z" fill="#FF9C54"/>
<path d="M111.597 80.2909L92.2213 86.5595L95.0336 95.2523L114.41 88.9836L111.597 80.2909Z" fill="#41A7A7"/>
<path d="M111.892 81.1997L92.5155 87.4684L94.7397 94.3434L114.116 88.0748L111.892 81.1997Z" fill="#318484"/>
<path d="M106.065 86.892C106.557 88.404 105.725 90.0274 104.213 90.5197C102.701 91.012 101.077 90.1798 100.585 88.6678C100.093 87.1557 100.925 85.5323 102.437 85.04C103.949 84.5477 105.578 85.3799 106.065 86.892Z" fill="#00B29B"/>
<path d="M103.566 89.1147L103.896 89.0129L104.189 89.9179L103.86 90.0242L103.566 89.1147ZM103.594 89.0162L102.846 86.7065L103.054 86.5796L103.822 88.9524L103.594 89.0162ZM102.494 85.801L102.822 85.6946L103.082 86.496L102.77 86.6564L102.494 85.801ZM103.94 86.8897C103.926 86.8777 103.888 86.8653 103.824 86.8528C103.759 86.8373 103.68 86.8246 103.588 86.8148C103.495 86.805 103.396 86.8021 103.291 86.8062C103.187 86.8102 103.086 86.8278 102.99 86.8589C102.864 86.8997 102.774 86.9537 102.719 87.0211C102.667 87.0845 102.655 87.1612 102.684 87.2513C102.708 87.3233 102.752 87.3721 102.816 87.3976C102.881 87.4231 102.968 87.4363 103.078 87.4373C103.187 87.4353 103.32 87.432 103.477 87.4274C103.699 87.4154 103.898 87.4241 104.073 87.4536C104.247 87.4801 104.393 87.5407 104.51 87.6356C104.63 87.7294 104.722 87.8754 104.786 88.0735C104.844 88.2536 104.86 88.4173 104.835 88.5648C104.812 88.7082 104.756 88.8374 104.667 88.9524C104.577 89.0643 104.466 89.1616 104.334 89.2442C104.2 89.3239 104.057 89.3884 103.904 89.438C103.748 89.4885 103.583 89.5254 103.408 89.5488C103.235 89.5682 103.064 89.5737 102.896 89.5652C102.726 89.5537 102.565 89.5264 102.412 89.4831L102.528 88.7344C102.547 88.7445 102.596 88.7604 102.672 88.7821C102.751 88.7997 102.846 88.8155 102.956 88.8295C103.069 88.8394 103.191 88.8415 103.321 88.8357C103.452 88.8299 103.579 88.8071 103.702 88.7672C103.837 88.7235 103.929 88.6705 103.979 88.6081C104.028 88.5457 104.041 88.4769 104.017 88.4019C103.99 88.3208 103.935 88.269 103.852 88.2463C103.771 88.2226 103.667 88.2117 103.538 88.2136C103.412 88.2145 103.267 88.2167 103.102 88.2202C102.888 88.2233 102.704 88.2082 102.551 88.1749C102.4 88.1406 102.276 88.0797 102.178 87.992C102.083 87.9034 102.009 87.778 101.957 87.6159C101.884 87.3908 101.875 87.1847 101.931 86.9977C101.988 86.8066 102.095 86.6429 102.25 86.5066C102.403 86.3673 102.587 86.2632 102.8 86.1943C102.953 86.1447 103.105 86.1156 103.254 86.107C103.404 86.0983 103.549 86.1011 103.69 86.1153C103.83 86.1295 103.956 86.1486 104.066 86.1725L103.94 86.8897Z" fill="white"/>
<path d="M106.487 74.7495L90.4832 87.3458L96.1343 94.5255L112.138 81.9292L106.487 74.7495Z" fill="#41A7A7"/>
<path d="M107.078 75.5001L91.0741 88.0964L95.5435 93.7747L111.547 81.1784L107.078 75.5001Z" fill="#318484"/>
<path d="M103.568 82.854C104.553 84.1023 104.336 85.9132 103.088 86.8978C101.839 87.8824 100.029 87.6656 99.0439 86.4173C98.0593 85.1689 98.2762 83.358 99.5245 82.3734C100.773 81.3829 102.584 81.5998 103.568 82.854Z" fill="#00B29B"/>
<path d="M102.008 85.8055L102.282 85.5956L102.87 86.343L102.599 86.5567L102.008 85.8055ZM101.999 85.7035L100.498 83.7958L100.649 83.6048L102.191 85.5646L101.999 85.7035ZM99.8533 83.0686L100.125 82.8549L100.646 83.5168L100.409 83.7751L99.8533 83.0686ZM101.588 83.5886C101.57 83.582 101.53 83.5839 101.466 83.5943C101.399 83.6021 101.321 83.6175 101.231 83.6405C101.14 83.6634 101.047 83.6949 100.95 83.735C100.853 83.7752 100.765 83.8265 100.686 83.8889C100.582 83.9709 100.516 84.0529 100.488 84.1349C100.461 84.2126 100.476 84.2886 100.535 84.363C100.582 84.4225 100.64 84.453 100.709 84.4545C100.779 84.456 100.865 84.4383 100.968 84.4011C101.07 84.3615 101.194 84.3122 101.34 84.2533C101.544 84.1652 101.733 84.1046 101.907 84.0715C102.08 84.0359 102.238 84.0424 102.38 84.0908C102.525 84.1373 102.662 84.2423 102.791 84.406C102.908 84.5547 102.98 84.7026 103.008 84.8497C103.036 84.9923 103.028 85.1329 102.984 85.2715C102.939 85.4076 102.868 85.5374 102.773 85.6608C102.675 85.7817 102.563 85.892 102.437 85.9915C102.308 86.093 102.166 86.185 102.01 86.2675C101.854 86.3456 101.696 86.4099 101.535 86.4603C101.372 86.5083 101.211 86.5386 101.053 86.5511L100.902 85.8086C100.924 85.8112 100.975 85.8094 101.054 85.8032C101.134 85.7925 101.228 85.7745 101.337 85.7492C101.446 85.7195 101.561 85.6793 101.681 85.6285C101.802 85.5777 101.913 85.5123 102.015 85.4323C102.126 85.3445 102.195 85.2628 102.219 85.1871C102.244 85.1114 102.232 85.0426 102.183 84.9806C102.131 84.9137 102.061 84.884 101.975 84.8917C101.891 84.8975 101.789 84.9235 101.669 84.9699C101.551 85.0143 101.416 85.0667 101.263 85.127C101.063 85.2043 100.885 85.2539 100.729 85.2758C100.576 85.2958 100.439 85.2816 100.317 85.2334C100.197 85.1832 100.084 85.0911 99.9787 84.9572C99.8324 84.7713 99.7528 84.581 99.7401 84.3862C99.7279 84.1871 99.7708 83.9967 99.8688 83.8152C99.9648 83.6312 100.101 83.4699 100.277 83.3313C100.403 83.2318 100.535 83.1521 100.673 83.092C100.81 83.032 100.947 82.9843 101.084 82.949C101.221 82.9136 101.345 82.888 101.457 82.8721L101.588 83.5886Z" fill="white"/>
<path d="M68.3398 173.636C65.7259 154.413 62.6315 121.347 62.6315 121.347H39.4232C39.4232 121.347 35.4262 128.679 37.3543 137.757L42.1894 178.02C33.3808 187.913 27.0278 202.418 22.1869 217.023C21.6301 218.711 21.0851 220.398 20.5635 222.08L25.8381 224.53C25.8381 224.53 27.0161 222.936 28.8974 220.322C35.7426 210.828 51.9474 187.813 55.1591 178.442C56.4484 181.167 57.2572 182.867 57.2572 182.867C56.7063 189.067 58.0132 201.527 61.6469 221.828C62.0044 223.839 62.3853 225.919 62.7956 228.082H69.4474C69.4474 228.082 69.5471 225.696 69.6526 221.828C69.9573 210.834 70.2738 187.86 68.3398 173.636Z" fill="#F8AFB4"/>
<path d="M46.9659 72.5802C46.9483 72.5509 46.9308 72.5157 46.919 72.4864C46.796 72.1758 46.9601 71.8359 47.0011 71.5077C47.1242 70.5172 46.163 69.7788 45.407 69.1341C43.5433 67.5459 42.3653 65.2895 41.5682 62.9745C40.8474 60.8764 40.402 58.62 40.8122 56.4399C41.2459 54.1483 42.6173 52.0912 44.44 50.6378C46.2626 49.1843 48.5014 48.3111 50.7988 47.9302C54.1335 47.3793 57.8902 47.9771 60.2052 50.4444C61.94 52.2964 62.6081 54.9102 62.8073 57.4362C62.9363 59.042 62.9246 60.7533 63.8095 62.0954C64.296 62.828 65.0051 63.3789 65.6088 64.0236C65.7201 64.1408 65.8256 64.2639 65.8666 64.4221C65.9604 64.8031 65.5853 65.1313 65.2278 65.2895C64.8703 65.4477 63.8564 65.4243 63.6747 65.7701C63.4755 66.151 63.5517 67.499 63.4462 67.8799C63.0594 69.2279 63.3407 68.9114 63.1883 69.896C63.0359 70.8923 63.1004 71.3494 63.1004 72.4102C63.0945 73.6175 62.9773 74.69 61.8579 75.153C61.2425 75.4109 59.6016 75.3464 58.9686 75.153C57.2338 74.6314 56.6595 74.8248 55.1709 73.7875C55.1709 75.3171 54.8603 77.8079 54.8603 79.3376C52.2581 77.5266 49.9666 74.7486 47.3703 72.9377C47.2121 72.8439 47.0597 72.7326 46.9659 72.5802Z" fill="#F8AFB4"/>
<path d="M62.3447 60.8999C61.911 60.7827 61.489 60.7475 61.0671 60.8002C60.6451 60.8413 60.2348 60.976 59.8011 61.1108C59.9711 60.9585 60.1645 60.8354 60.3696 60.7416C60.5806 60.642 60.8033 60.5951 61.0319 60.5541C61.4949 60.5189 61.993 60.5892 62.3447 60.8999Z" fill="#283563"/>
<path d="M60.5454 61.3159C60.5454 61.6793 60.8384 61.9723 61.2018 61.9723C61.5652 61.9723 61.8582 61.6793 61.8582 61.3159C61.8582 60.9526 61.5652 60.6595 61.2018 60.6595C60.8384 60.6595 60.5454 60.9526 60.5454 61.3159Z" fill="#283563"/>
<path d="M61.278 61.1577C61.278 61.2456 61.4069 61.316 61.5651 61.316C61.7234 61.316 61.8523 61.2456 61.8523 61.1577C61.8523 61.0698 61.7234 60.9995 61.5651 60.9995C61.4069 60.9995 61.278 61.0698 61.278 61.1577Z" fill="white"/>
<path d="M62.6727 59.3468C61.9752 59.0244 61.272 58.8662 60.598 58.9834C60.2522 59.042 59.9064 59.1475 59.5724 59.2764C59.2383 59.4112 58.8984 59.5636 58.5643 59.7511C59.0039 59.1065 59.7365 58.6786 60.5218 58.5321C61.3423 58.3915 62.198 58.7314 62.6727 59.3468Z" fill="#283563"/>
<path d="M62.995 68.1436C62.2624 68.0909 60.8265 68.3077 60.8265 68.3077C60.8265 68.3077 62.5554 70.6169 63.1708 70.3473C63.7862 70.0718 63.499 69.2396 63.499 69.2396C63.6221 69.1458 63.6924 68.9876 63.6807 68.7297C63.669 68.7356 63.7276 68.2023 62.995 68.1436Z" fill="#FF9C54"/>
<path d="M63.4872 69.2455C63.0125 69.2161 62.5436 69.1107 62.0865 68.9583C61.6352 68.8059 61.1956 68.6066 60.8147 68.3136L60.8206 68.3077C61.2074 68.5832 61.6528 68.7707 62.104 68.9114C62.5553 69.0462 63.0183 69.1458 63.4872 69.2396V69.2455Z" fill="#283563"/>
<path d="M62.2974 115.404C62.1685 112.708 62.0864 110.124 62.1216 108.266C62.2037 103.806 65.5853 100.002 65.2629 95.5248C64.8996 90.4084 61.1839 86.388 58.0777 82.643C57.1928 81.5822 47.1593 71.0916 47.0421 71.2791C47.0421 71.285 40.3492 81.6291 38.7844 92.8523C37.8701 99.4221 38.4737 109.655 39.136 117.028C39.136 117.028 33.9083 134.463 34.7874 142.973C35.6665 151.483 38.3214 182.708 38.3214 182.708H70.5961L62.2974 115.404Z" fill="#F3893C"/>
<path d="M51.7717 66.0983C49.9021 65.6587 49.0172 61.8083 50.453 61.316C51.883 60.8237 52.9028 64.0353 52.9028 64.0353C52.9028 64.0353 53.5826 61.5855 58.5642 58.7255C59.3847 58.2567 60.0587 57.7644 60.6213 57.2662C63.8095 54.4355 63.0125 49.2078 59.203 47.2913C56.6302 45.9961 52.516 44.9353 46.4912 46.0723C34.8226 48.2759 37.9053 61.2632 39.4467 65.1137C40.988 68.9642 38.8958 79.6423 39.7749 79.9764C40.654 80.3046 47.8099 80.5976 51.3321 79.9764C54.8544 79.3551 51.7717 66.0983 51.7717 66.0983Z" fill="#283563"/>
<path d="M100.644 93.9131C100.966 93.7607 101.353 93.5732 101.611 93.4325C102.126 93.1512 104.037 92.3717 103.773 91.7739C103.51 91.1703 98.7039 93.3563 98.7039 93.3563C98.7039 93.3563 103.041 91.2113 102.8 90.7659C102.56 90.3146 99.6298 91.2465 98.5104 91.7564C97.391 92.2662 95.3808 92.6882 95.3808 92.6882C95.3808 92.6882 95.9083 92.1959 96.4475 92.0904C96.9867 91.9849 97.9009 90.9476 97.6841 90.5784C97.4673 90.2091 96.4299 90.8597 96.1252 91.0062C95.8204 91.1527 94.2908 91.8091 93.5054 92.2721C92.7201 92.741 92.0051 95.6127 92.0051 95.6127C91.9875 95.6361 91.9758 95.6772 91.9641 95.724C90.9971 96.0581 75.4018 101.479 66.3587 106.619C66.7866 106.373 65.0577 103.589 62.8306 100.389C59.9178 96.1929 56.1611 91.2817 55.3113 90.426C52.7209 87.8063 47.6983 83.0415 43.7072 85.6964C36.6627 90.385 60.9376 118.458 65.2745 116.694C69.1308 115.123 88.7173 102.183 93.0483 99.3108C93.4937 99.0236 96.8929 98.3379 97.4204 98.0273C97.9478 97.7167 98.4929 97.4412 99.5419 96.7731C100.591 96.105 102.343 95.1145 102.203 94.7512C102.056 94.3878 100.38 95.3138 100.38 95.3138C100.38 95.3138 100.966 94.9387 102.044 94.3233C103.123 93.708 103.685 93.3036 103.474 92.9812C103.31 92.741 101.581 93.4853 100.644 93.9131Z" fill="#F8AFB4"/>
<path d="M70.4964 224.348C70.2503 224.348 72.366 228.328 75.1264 229.219C77.8867 230.11 82.839 230.842 83.0852 231.897C83.3313 232.952 83.5716 234.171 83.0852 234.411C82.5987 234.657 61.3245 234.411 61.3245 234.411V224.747L70.4964 224.348Z" fill="#251A12"/>
<path d="M30.7668 219.613C30.5558 219.496 30.4679 223.997 32.4488 226.118C34.4297 228.24 38.4033 231.282 38.1044 232.325C37.8055 233.368 37.4245 234.552 36.8795 234.523C36.3345 234.499 17.8557 223.956 17.8557 223.956L22.5501 215.511L30.7668 219.613Z" fill="#251A12"/>
<path d="M142.05 82.6547C142.05 82.6547 141.44 79.7595 140.667 79.2672C139.893 78.7749 138.393 78.0599 138.094 77.9076C137.795 77.7552 136.781 77.0695 136.552 77.427C136.324 77.7845 137.197 78.857 137.73 78.9801C138.264 79.1031 138.774 79.613 138.774 79.613C138.774 79.613 136.781 79.1207 135.679 78.5757C134.577 78.0306 131.688 76.9933 131.43 77.4328C131.172 77.8724 135.433 80.1698 135.433 80.1698C135.433 80.1698 130.703 77.8138 130.422 78.4057C130.141 78.9977 132.016 79.8416 132.526 80.1405C133.036 80.4394 134.062 80.9551 134.062 80.9551C134.062 80.9551 130.914 79.3024 130.686 79.613C130.457 79.9295 131.008 80.3515 132.069 81.0079C133.13 81.6643 133.698 82.0569 133.698 82.0569C133.698 82.0569 132.057 81.0723 131.899 81.4298C131.741 81.7873 133.458 82.8423 134.484 83.5455C135.509 84.2488 136.043 84.5477 136.558 84.8759C137.074 85.2041 140.444 86.007 140.878 86.3118C141.311 86.6165 142.343 83.1236 142.05 82.6547Z" fill="#EC756E"/>
<path d="M170.949 87.0795C174.008 82.9888 177.935 78.2182 178.814 77.386C181.492 74.86 186.685 70.2711 190.576 73.0666C197.451 78.0013 172.203 105.201 167.931 103.284C163.658 101.368 140.028 86.347 140.028 86.347L143.029 80.9376C143.029 80.9376 157.258 86.0715 166.395 91.7036C165.979 91.4458 168.616 90.2033 170.949 87.0795Z" fill="#41A7A7"/>
<path d="M196.372 179.713L201.207 139.433C201.207 139.433 179.3 168.18 183.397 180.135C186.608 189.513 202.813 212.522 209.659 222.016C211.985 221.236 214.435 220.293 216.369 218.716C211.534 204.112 205.181 189.606 196.372 179.713Z" fill="#1C2547"/>
<path d="M209.659 222.016C211.54 224.63 212.718 226.224 212.718 226.224L217.993 223.774C217.471 222.092 216.932 220.404 216.369 218.716C214.435 220.293 211.985 221.242 209.659 222.016Z" fill="#F8AFB4"/>
<path d="M190.869 65.2485C190.887 65.2192 190.904 65.184 190.916 65.1547C191.039 64.8441 190.875 64.5042 190.834 64.176C190.711 63.1855 191.672 62.4471 192.428 61.8024C194.292 60.2141 195.47 57.9578 196.267 55.6428C196.988 53.5447 197.433 51.2883 197.023 49.1082C196.589 46.8166 195.218 44.7595 193.395 43.3061C191.573 41.8526 189.334 40.9794 187.036 40.5984C183.702 40.0475 179.945 40.6453 177.63 43.1127C175.895 44.9646 175.227 47.5785 175.028 50.1045C174.899 51.7103 174.911 53.4216 174.026 54.7637C173.539 55.4963 172.83 56.0472 172.226 56.6919C172.115 56.8091 172.01 56.9322 171.969 57.0904C171.875 57.4713 172.25 57.7995 172.607 57.9578C172.965 58.116 173.387 58.245 173.569 58.5907C173.768 58.9717 173.791 59.6281 173.785 60.0266C173.78 60.8998 173.92 61.3453 174.073 62.3299C174.225 63.3262 174.735 64.0177 174.741 65.0844C174.747 66.2917 174.864 67.3642 175.983 67.8272C176.598 68.085 178.24 68.0206 178.872 67.8272C180.607 67.3056 181.182 67.499 182.67 66.4616C182.67 67.9913 182.67 69.5209 182.67 71.0564C185.272 69.2455 187.869 67.4286 190.471 65.6177C190.617 65.5122 190.776 65.4008 190.869 65.2485Z" fill="#EC756E"/>
<path d="M169.109 229.775H175.76C176.165 227.613 176.546 225.532 176.909 223.522C174.243 223.522 171.576 223.522 168.903 223.522C169.009 227.384 169.109 229.775 169.109 229.775Z" fill="#F8AFB4"/>
<path d="M199.139 123.041L174.072 126.733C174.072 126.733 172.842 156.107 170.228 175.33C168.294 189.554 168.61 212.527 168.909 223.522C171.576 223.522 174.242 223.522 176.915 223.522C180.548 203.215 181.855 190.755 181.305 184.56C181.305 184.56 198.599 148.277 200.68 141.496C203.751 131.498 199.139 123.041 199.139 123.041Z" fill="#283563"/>
<path d="M191.754 67.8272V63.9064C191.754 63.9064 183.754 68.1378 181.756 71.5194L181.949 75.0241L191.754 67.8272Z" fill="#41A7A7"/>
<path d="M191.754 67.8272C191.754 67.8272 180.22 72.9025 175.145 85.3624C170.07 97.8222 174.067 126.733 174.067 126.733C174.067 126.733 193.29 127.964 199.133 123.041C199.139 123.041 203.903 71.0564 191.754 67.8272Z" fill="#318484"/>
<path d="M175.239 51.2239C175.239 51.2239 176.493 50.7726 177.524 51.0012C178.556 51.2239 179.81 52.0795 179.722 52.437C179.634 52.7945 179.007 52.9293 178.151 52.437C177.302 51.9447 175.057 52.7359 174.852 52.2495C174.653 51.7572 174.676 51.3763 175.239 51.2239Z" fill="#1C2547"/>
<path d="M175.491 53.5681C175.842 53.2575 176.34 53.1872 176.798 53.2224C177.026 53.2634 177.255 53.3103 177.46 53.4099C177.671 53.5037 177.864 53.6267 178.028 53.7791C177.595 53.6443 177.19 53.5095 176.762 53.4685C176.346 53.4158 175.924 53.4509 175.491 53.5681Z" fill="#283563"/>
<path d="M177.29 53.9842C177.29 54.3476 176.997 54.6406 176.634 54.6406C176.27 54.6406 175.977 54.3476 175.977 53.9842C175.977 53.6209 176.27 53.3279 176.634 53.3279C176.997 53.3279 177.29 53.6209 177.29 53.9842Z" fill="#283563"/>
<path d="M176.552 53.826C176.552 53.9139 176.423 53.9842 176.264 53.9842C176.106 53.9842 175.977 53.9139 175.977 53.826C175.977 53.7381 176.106 53.6678 176.264 53.6678C176.423 53.6678 176.552 53.7381 176.552 53.826Z" fill="white"/>
<path d="M173.92 61.7086C173.92 61.7086 174.863 62.1013 175.825 60.5541" stroke="#283563" stroke-width="0.124715" stroke-miterlimit="10" stroke-linecap="round" stroke-linejoin="round"/>
<path d="M168.593 221.559C168.839 221.559 166.723 225.538 163.963 226.429C161.202 227.32 156.25 228.052 156.004 229.107C155.758 230.162 155.518 231.381 156.004 231.627C156.49 231.874 177.765 231.627 177.765 231.627V221.963L168.593 221.559Z" fill="#009B9C"/>
<path d="M208.053 220.058C208.275 219.953 208.058 224.454 205.937 226.435C203.821 228.416 199.648 231.188 199.877 232.249C200.106 233.309 200.404 234.511 200.949 234.528C201.494 234.54 220.641 225.269 220.641 225.269L216.527 216.524L208.053 220.058Z" fill="#009B9C"/>
<path d="M181.809 39.2974C178.427 38.0608 174.676 39.778 173.293 43.101C172.666 44.6072 172.32 46.4474 173.258 47.9829C175.233 51.2239 179.722 47.432 179.722 47.432C179.722 47.432 179.201 52.7535 183.344 52.7535C187.306 52.7535 187.159 52.0151 187.159 52.0151C187.159 52.0151 186.573 55.426 187.124 54.7051C187.675 53.9843 188.83 52.777 189.932 53.9843C191.033 55.1916 189.879 57.3366 188.443 57.2252C187.013 57.1139 187.997 64.8734 190.365 65.0961C192.733 65.3188 197.029 59.3175 198.183 56.3461C199.338 53.3747 198.183 47.5375 198.183 47.5375C198.183 47.5375 199.777 42.8021 196.642 39.778C193.507 36.7538 190.365 39.2271 190.365 39.2271C190.365 39.2271 188.162 36.1971 185.302 36.4198C182.442 36.6425 182.055 39.3912 182.055 39.3912C182.055 39.3912 181.973 39.356 181.809 39.2974Z" fill="#1C2547"/>
<path d="M168.68 61.0934H119.703V98.7072H168.68V61.0934Z" fill="#FFCCA8"/>
<path d="M138.117 61.0934H119.703V98.7072H138.117V79.9003V61.0934Z" fill="#EEBE9C"/>
<path d="M150.3 70.7158H156.905V61.0867H150.3V70.7158Z" fill="#FF9C54"/>
<path d="M126.522 70.7158H131.299V61.0867H126.522V70.7158Z" fill="#FF9C54"/>
<path d="M122.007 97.5234H131.032V93.5206H122.007V97.5234Z" fill="#FF9C54"/>
<path d="M123.935 94.8134H129.11V94.3738H123.935V94.8134Z" fill="white"/>
<path d="M123.935 95.7419H129.11V95.3024H123.935V95.7419Z" fill="white"/>
<path d="M123.935 96.6703H129.11V96.2308H123.935V96.6703Z" fill="white"/>
<path d="M148.063 97.3357C148.063 97.3357 146.727 94.6984 145.853 94.4171C144.98 94.1358 143.345 93.8428 143.017 93.7666C142.689 93.6962 141.534 93.2919 141.405 93.7021C141.276 94.1065 142.396 94.9153 142.946 94.8977C143.497 94.8801 144.119 95.2376 144.119 95.2376C144.119 95.2376 142.067 95.2786 140.86 95.0325C139.659 94.7863 136.593 94.5343 136.459 95.0266C136.324 95.5189 141.03 96.6325 141.03 96.6325C141.03 96.6325 135.855 95.5775 135.732 96.2222C135.609 96.8669 137.643 97.1951 138.211 97.3533C138.779 97.5115 139.905 97.746 139.905 97.746C139.905 97.746 136.435 96.9606 136.3 97.324C136.166 97.6874 136.804 97.957 137.994 98.3145C139.184 98.672 139.834 98.9064 139.834 98.9064C139.834 98.9064 137.994 98.3789 137.936 98.7657C137.877 99.1525 139.811 99.7269 140.977 100.143C142.149 100.559 142.741 100.706 143.322 100.893C143.902 101.081 147.371 100.981 147.869 101.163C148.368 101.35 148.467 97.7108 148.063 97.3357Z" fill="#EC756E"/>
<path d="M177.12 94.1475C179.019 89.4062 181.58 83.78 182.219 82.7543C184.153 79.6189 187.986 73.852 192.463 75.5457C200.381 78.5347 183.01 111.337 178.386 110.587C173.762 109.837 147.061 101.426 147.061 101.426L148.561 95.4252C148.561 95.4252 163.635 96.7086 173.914 99.7914C173.446 99.6448 175.673 97.7636 177.12 94.1475Z" fill="#41A7A7"/>
<path d="M75.5429 58.6904H103.873C106.083 58.6904 107.87 56.9029 107.87 54.6934C107.87 52.4839 106.083 50.6964 103.873 50.6964H75.5429C73.3334 50.6964 71.5459 52.4839 71.5459 54.6934C71.5459 56.897 73.3393 58.6904 75.5429 58.6904Z" fill="#DBDBDB"/>
<path d="M101.675 52.7183L101.189 54.2245H99.6006L100.884 55.1564L100.398 56.6684L101.675 55.7366L102.959 56.6684L102.472 55.1564L103.756 54.2245H102.168L101.675 52.7183Z" fill="white"/>
<path d="M95.6915 52.7183L95.2051 54.2245H93.6168L94.9003 55.1564L94.4139 56.6684L95.6915 55.7366L96.975 56.6684L96.4886 55.1564L97.7662 54.2245H96.1838L95.6915 52.7183Z" fill="white"/>
<path d="M89.7077 52.7183L89.2213 54.2245H87.6331L88.9165 55.1564L88.4242 56.6684L89.7077 55.7366L90.9912 56.6684L90.5048 55.1564L91.7824 54.2245H90.2L89.7077 52.7183Z" fill="white"/>
<path d="M83.724 52.7183L83.2375 54.2245H81.6493L82.9328 55.1564L82.4405 56.6684L83.724 55.7366L85.0075 56.6684L84.5152 55.1564L85.7987 54.2245H84.2163L83.724 52.7183Z" fill="white"/>
<path d="M77.7404 52.7183L77.2482 54.2245H75.6658L76.9493 55.1564L76.457 56.6684L77.7404 55.7366L79.0239 56.6684L78.5316 55.1564L79.8151 54.2245H78.2327L77.7404 52.7183Z" fill="#BEBEBE"/>
<path d="M80.3895 58.6904L74.9567 61.316V58.7255L80.3895 58.6904Z" fill="#DBDBDB"/>
</svg>
