<svg width="28" height="22" viewBox="0 0 28 22" fill="none" xmlns="http://www.w3.org/2000/svg">
<path d="M24.7217 15.9948L5.84867 21.2341C5.2971 21.3875 4.70719 21.3158 4.20845 21.0347C3.70971 20.7536 3.34291 20.2861 3.18859 19.7347L2.69579 17.9567L0.11543 8.66217C0.0394714 8.38875 0.0181407 8.10304 0.0526567 7.82138C0.0871728 7.53971 0.176859 7.26761 0.316589 7.02063C0.456319 6.77364 0.643354 6.55661 0.867003 6.38195C1.09065 6.20728 1.34653 6.0784 1.62001 6.00268L3.06408 5.5989L7.19848 4.4533L20.493 0.763405C20.7664 0.687436 21.0521 0.666081 21.3337 0.70056C21.6153 0.735038 21.8874 0.824674 22.1344 0.964347C22.3814 1.10402 22.5984 1.29099 22.7731 1.51457C22.9478 1.73816 23.0767 1.99398 23.1525 2.26741L23.7599 4.45388L26.2257 13.3348C26.3017 13.6082 26.3232 13.8939 26.2887 14.1756C26.2543 14.4573 26.1647 14.7294 26.025 14.9765C25.8853 15.2235 25.6983 15.4406 25.4747 15.6154C25.2511 15.7901 24.9952 15.919 24.7217 15.9948Z" fill="#F7CC6D"/>
<path d="M24.7217 15.9949L5.84867 21.2342C5.29711 21.3876 4.7072 21.3159 4.20846 21.0348C3.70972 20.7537 3.34292 20.2861 3.1886 19.7348L2.6958 17.9568V6.89003C2.6958 6.41643 2.8302 5.97308 3.06409 5.59956L7.19849 4.45396H23.7594L26.2251 13.3348C26.3012 13.6082 26.3226 13.894 26.2882 14.1757C26.2537 14.4574 26.1641 14.7295 26.0244 14.9766C25.8847 15.2236 25.6977 15.4407 25.4741 15.6154C25.2505 15.7902 24.9946 15.9191 24.7211 15.9949H24.7217Z" fill="#F4BC5F"/>
<path d="M25.9714 15.0686C25.8772 15.2129 25.7678 15.3473 25.6427 15.4718C25.3937 15.7162 25.0853 15.8954 24.7263 15.9949H24.7217L5.84867 21.2342C5.62535 21.298 5.39277 21.3232 5.16096 21.3086C4.60824 21.3878 3.47311 20.7868 3.1886 19.7348L2.6958 17.9568V6.89003C2.6958 6.41643 2.8302 5.97308 3.06409 5.59956L7.19849 4.45396H23.7594L26.2251 13.3348C26.3062 13.6256 26.3255 13.93 26.2817 14.2287C26.2379 14.5273 26.1326 14.8134 25.9714 15.0686Z" fill="#F4BC5F"/>
<path d="M23.1511 2.26748L26.2249 13.3372C26.3789 13.8885 26.3075 14.4784 26.0266 14.9772C25.7456 15.4759 25.278 15.8426 24.7267 15.9966L5.85137 21.2382C5.57784 21.3142 5.29202 21.3355 5.01025 21.301C4.72848 21.2665 4.45626 21.1768 4.20914 21.0371C3.71006 20.755 3.34351 20.2861 3.19013 19.7337C3.03675 19.1812 3.1091 18.5905 3.39126 18.0914C3.67342 17.5924 4.14229 17.2258 4.69471 17.0724L10.1906 15.5463C13.9084 14.5142 16.4073 11.2548 16.6394 7.61207C16.7064 6.67552 16.6175 5.73436 16.3765 4.8269C16.3675 4.77363 16.3553 4.72097 16.3398 4.66923L16.3381 4.66283C16.2452 4.32741 16.2193 3.97697 16.262 3.63155C16.3046 3.28613 16.4149 2.9525 16.5866 2.64974C16.7583 2.34698 16.9879 2.08103 17.2624 1.86709C17.537 1.65315 17.851 1.49541 18.1865 1.4029L20.4963 0.761156C21.0481 0.608901 21.6378 0.682062 22.1357 0.964546C22.6335 1.24703 22.9988 1.7157 23.1511 2.26748Z" fill="#F4BC5F"/>
<path d="M25.9712 15.0686C25.877 15.2129 25.7676 15.3473 25.6425 15.4718C25.3935 15.7162 25.0851 15.8954 24.7261 15.9949H24.7215L5.84844 21.2394C5.62534 21.3042 5.39231 21.3279 5.16073 21.3092C4.60801 21.3884 3.47288 20.7873 3.18837 19.7354C3.03595 19.1826 3.10867 18.5919 3.39063 18.0925C3.67259 17.5931 4.14084 17.2257 4.69295 17.0707L10.1911 15.5463C13.9072 14.5153 16.4079 11.2525 16.6365 7.61207C16.7054 6.67613 16.6179 5.73524 16.3776 4.82807C16.3677 4.77279 16.3532 4.72334 16.338 4.66865V4.66341C16.3183 4.59359 16.3031 4.52377 16.288 4.45396H23.7591L26.2249 13.3348C26.306 13.6256 26.3252 13.93 26.2814 14.2287C26.2377 14.5273 26.1324 14.8134 25.9712 15.0686Z" fill="#E0A958"/>
<path d="M22.4592 11.2804L20.296 11.8814C20.2276 11.9005 20.1562 11.9058 20.0858 11.8972C20.0154 11.8886 19.9473 11.8662 19.8856 11.8313C19.8238 11.7964 19.7695 11.7497 19.7258 11.6938C19.6821 11.6379 19.6499 11.5739 19.6309 11.5056L19.0305 9.34239C19.0115 9.27404 19.0061 9.20262 19.0147 9.1322C19.0233 9.06179 19.0457 8.99375 19.0806 8.93199C19.1155 8.87023 19.1623 8.81596 19.2182 8.77227C19.274 8.72858 19.338 8.69633 19.4064 8.67737L21.5696 8.07693C21.6379 8.05792 21.7093 8.05256 21.7797 8.06116C21.8502 8.06976 21.9182 8.09215 21.98 8.12705C22.0417 8.16196 22.096 8.20869 22.1397 8.26458C22.1834 8.32048 22.2156 8.38443 22.2346 8.45279L22.835 10.616C22.8732 10.7539 22.8551 10.9014 22.7846 11.026C22.7142 11.1506 22.5971 11.2421 22.4592 11.2804Z" fill="#F7CC6D"/>
<path d="M21.5695 8.07693C21.2111 8.17584 21.001 8.54763 21.1005 8.90603L21.129 9.00726C21.2484 9.43747 21.192 9.89746 20.9722 10.2861C20.7525 10.6747 20.3874 10.9602 19.9573 11.0797L19.5447 11.1943L19.6309 11.5056C19.6498 11.5739 19.6821 11.6379 19.7258 11.6938C19.7694 11.7497 19.8237 11.7964 19.8855 11.8313C19.9472 11.8662 20.0153 11.8886 20.0857 11.8972C20.1561 11.9058 20.2275 11.9005 20.2959 11.8814L22.4591 11.2804C22.597 11.2421 22.7141 11.1506 22.7846 11.026C22.855 10.9014 22.8732 10.7539 22.8349 10.616L22.2345 8.45279C22.2155 8.38443 22.1833 8.32048 22.1396 8.26458C22.0959 8.20869 22.0416 8.16196 21.9799 8.12705C21.9181 8.09215 21.8501 8.06976 21.7797 8.06116C21.7092 8.05256 21.6378 8.05792 21.5695 8.07693ZM10.2421 12.7641L4.54605 14.346C4.42978 14.3793 4.30806 14.3893 4.18792 14.3753C4.06778 14.3613 3.95159 14.3237 3.84606 14.2646C3.74053 14.2055 3.64774 14.1261 3.57305 14.031C3.49836 13.9358 3.44324 13.8268 3.41087 13.7103C3.3785 13.5938 3.36952 13.472 3.38445 13.3519C3.39938 13.2319 3.43792 13.116 3.49786 13.011C3.55779 12.9059 3.63793 12.8138 3.73365 12.7398C3.82938 12.6659 3.93879 12.6117 4.05558 12.5802L9.75158 10.9977C9.98504 10.9348 10.2339 10.9668 10.4439 11.0866C10.6539 11.2064 10.808 11.4043 10.8727 11.6373C10.9374 11.8702 10.9075 12.1193 10.7893 12.3303C10.6712 12.5412 10.4745 12.6975 10.2421 12.7641ZM8.95565 18.3926L6.40147 19.1018C6.25079 19.1436 6.08967 19.1239 5.95352 19.047C5.81737 18.9701 5.71732 18.8423 5.67536 18.6916L5.67129 18.6759C5.58402 18.3617 5.76787 18.0371 6.08147 17.9498L8.63565 17.2412C8.94925 17.1539 9.27391 17.3377 9.36118 17.6513L9.36584 17.6665C9.45311 17.9806 9.26925 18.3053 8.95565 18.3926ZM13.7295 17.0672L11.1753 17.7758C11.0247 17.8175 10.8637 17.7977 10.7277 17.7208C10.5917 17.6439 10.4917 17.5162 10.4498 17.3657L10.4457 17.3505C10.3584 17.0364 10.5423 16.7117 10.8559 16.6244L13.4101 15.9152C13.7237 15.8279 14.0483 16.0118 14.1356 16.326L14.1397 16.3411C14.2269 16.6553 14.0431 16.9799 13.7295 17.0672ZM18.5033 15.7412L15.9503 16.4505C15.7995 16.4923 15.6383 16.4725 15.5022 16.3954C15.366 16.3184 15.266 16.1904 15.2242 16.0397L15.2201 16.0246C15.1328 15.7104 15.3167 15.3857 15.6303 15.2985L18.1839 14.5892C18.4981 14.502 18.8227 14.6864 18.91 15L18.9141 15.0151C19.0013 15.3293 18.8169 15.654 18.5033 15.7412ZM23.2783 14.4153L20.7241 15.1251C20.5734 15.1667 20.4124 15.1468 20.2763 15.0698C20.1403 14.9928 20.0404 14.8649 19.9986 14.7143L19.9939 14.6986C19.9066 14.385 20.0905 14.0598 20.4047 13.9731L22.9583 13.2633C23.2725 13.1766 23.5971 13.3604 23.6844 13.674L23.6885 13.6892C23.7757 14.0033 23.5919 14.3286 23.2783 14.4153Z" fill="#F7CC6D"/>
<path d="M25.8033 21.2673H6.21519C5.64275 21.2672 5.09381 21.0397 4.68903 20.6349C4.28426 20.2302 4.05679 19.6812 4.05664 19.1088V7.61788C4.05656 7.33434 4.11234 7.05357 4.22077 6.79158C4.32921 6.52959 4.48818 6.29153 4.68862 6.09098C4.88906 5.89043 5.12704 5.73133 5.38897 5.62275C5.6509 5.51418 5.93165 5.45825 6.21519 5.45818H25.8033C26.0869 5.4581 26.3678 5.51391 26.6298 5.62242C26.8919 5.73093 27.13 5.89001 27.3306 6.09057C27.5311 6.29113 27.6902 6.52925 27.7987 6.79131C27.9072 7.05337 27.963 7.33425 27.963 7.61788V19.1088C27.9629 19.3923 27.907 19.6731 27.7984 19.935C27.6898 20.1969 27.5307 20.4349 27.3302 20.6354C27.1296 20.8358 26.8916 20.9948 26.6296 21.1032C26.3676 21.2116 26.0868 21.2674 25.8033 21.2673Z" fill="#63AFFA"/>
<path d="M27.9616 7.61963V19.1082C27.9624 19.6806 27.7358 20.2298 27.3316 20.6352C26.9275 21.0405 26.3789 21.2687 25.8065 21.2697H6.21673C5.93271 21.2702 5.65138 21.2146 5.38896 21.106C5.12654 20.9973 4.88821 20.8378 4.68771 20.6366C4.48662 20.4362 4.32716 20.198 4.21852 19.9357C4.10988 19.6733 4.0542 19.3921 4.05469 19.1082C4.05531 18.5351 4.28321 17.9856 4.68841 17.5803C5.09361 17.175 5.64303 16.9469 6.21615 16.9462H11.9203C15.7789 16.9462 19.0586 14.4752 20.2577 11.0268C20.5673 10.1651 20.7354 9.23592 20.7488 8.27243C20.7558 8.2189 20.7558 8.16479 20.7558 8.11126V8.10428C20.756 7.75624 20.8248 7.41165 20.9583 7.09023C21.0918 6.7688 21.2874 6.47684 21.5338 6.23104C21.7802 5.98523 22.0726 5.7904 22.3943 5.65769C22.7161 5.52497 23.0608 5.45698 23.4089 5.45759H25.806C26.0895 5.45797 26.3701 5.5142 26.6319 5.62307C26.8937 5.73194 27.1315 5.89131 27.3316 6.09208C27.5318 6.29285 27.6905 6.53109 27.7986 6.79319C27.9067 7.05529 27.9621 7.33612 27.9616 7.61963Z" fill="#529FFB"/>
<path d="M4.05615 8.27534H27.9631V11.025H4.05615V8.27534Z" fill="#626681"/>
<path d="M27.9618 8.27243V11.0268H20.2573C20.5674 10.1651 20.7356 9.23592 20.749 8.27243H27.9618Z" fill="#4D5471"/>
<path d="M12.7144 14.2791H6.80308C6.56005 14.2791 6.32697 14.1826 6.15512 14.0107C5.98326 13.8389 5.88672 13.6058 5.88672 13.3628C5.88672 13.1197 5.98326 12.8866 6.15512 12.7148C6.32697 12.5429 6.56005 12.4464 6.80308 12.4464H12.7144C12.9574 12.4464 13.1905 12.5429 13.3623 12.7148C13.5342 12.8866 13.6307 13.1197 13.6307 13.3628C13.6307 13.6058 13.5342 13.8389 13.3623 14.0107C13.1905 14.1826 12.9574 14.2791 12.7144 14.2791ZM9.96817 19.3584H7.31857C6.99276 19.3584 6.72861 19.0943 6.72861 18.7684V18.7527C6.72861 18.4269 6.99276 18.1633 7.31857 18.1633H9.96875C10.2946 18.1633 10.5581 18.4269 10.5581 18.7527V18.7684C10.5581 19.0943 10.294 19.3584 9.96817 19.3584ZM14.9235 19.3584H12.2733C11.9475 19.3584 11.6834 19.0943 11.6834 18.7684V18.7527C11.6834 18.4269 11.9475 18.1633 12.2733 18.1633H14.9235C15.2493 18.1633 15.5135 18.4269 15.5135 18.7527V18.7684C15.5135 19.0943 15.2493 19.3584 14.9235 19.3584ZM19.8783 19.3584H17.2281C16.9023 19.3584 16.6387 19.0943 16.6387 18.7684V18.7527C16.6387 18.4269 16.9023 18.1633 17.2281 18.1633H19.8783C20.2041 18.1633 20.4682 18.4269 20.4682 18.7527V18.7684C20.4682 19.0943 20.2041 19.3584 19.8783 19.3584ZM24.8336 19.3584H22.1834C21.8576 19.3584 21.5935 19.0943 21.5935 18.7684V18.7527C21.5935 18.4269 21.8576 18.1633 22.1834 18.1633H24.8336C25.1594 18.1633 25.423 18.4269 25.423 18.7527V18.7684C25.423 19.0943 25.1594 19.3584 24.8336 19.3584Z" fill="#82C8FB"/>
<path d="M21.3687 12.8793L23.4132 14.9244L21.3687 16.9683L19.3242 14.9244L21.3687 12.8793Z" fill="#F7CC6D"/>
<path d="M21.5003 13.9789V13.9964C21.5003 14.6422 20.9766 15.1658 20.3308 15.1658C20.2677 15.1656 20.206 15.1842 20.1535 15.2192C20.101 15.2542 20.06 15.304 20.0359 15.3623C20.0118 15.4207 20.0055 15.4848 20.0179 15.5467C20.0304 15.6085 20.0609 15.6653 20.1056 15.7098L21.3694 16.9729L23.4139 14.9284L22.1816 13.6961C22.1257 13.6405 22.0547 13.6027 21.9773 13.5874C21.9 13.5722 21.8199 13.5801 21.7471 13.6103C21.6743 13.6405 21.6121 13.6915 21.5683 13.757C21.5244 13.8225 21.501 13.8995 21.5008 13.9783L21.5003 13.9789Z" fill="#F4BC5F"/>
<path d="M23.9438 12.8793L25.9883 14.9238L23.9438 16.9677L21.8999 14.9238L23.9438 12.8793Z" fill="#FC4A32"/>
<path d="M24.652 14.0022C24.652 14.7591 24.0387 15.3724 23.2824 15.3724C23.2055 15.3723 23.1304 15.3951 23.0665 15.4377C23.0025 15.4804 22.9527 15.5411 22.9232 15.6121C22.8938 15.6831 22.886 15.7612 22.901 15.8366C22.9159 15.912 22.9529 15.9812 23.0072 16.0356L23.9445 16.9729L25.989 14.9284L24.9429 13.8823C24.9191 13.8585 24.8887 13.8423 24.8557 13.8358C24.8226 13.8292 24.7884 13.8326 24.7573 13.8455C24.7261 13.8583 24.6995 13.8802 24.6808 13.9082C24.662 13.9362 24.652 13.9685 24.652 14.0022Z" fill="#E23E2D"/>
</svg>
