<svg width="36" height="36" viewBox="0 0 36 36" fill="none" xmlns="http://www.w3.org/2000/svg">
<path fill-rule="evenodd" clip-rule="evenodd" d="M7.2001 7.20001C6.24532 7.20001 5.32964 7.5793 4.65451 8.25443C3.97938 8.92956 3.6001 9.84523 3.6001 10.8V18C3.6001 18.9548 3.97938 19.8705 4.65451 20.5456C5.32964 21.2207 6.24532 21.6 7.2001 21.6V10.8H25.2001C25.2001 9.84523 24.8208 8.92956 24.1457 8.25443C23.4706 7.5793 22.5549 7.20001 21.6001 7.20001H7.2001ZM10.8001 18C10.8001 17.0452 11.1794 16.1296 11.8545 15.4544C12.5296 14.7793 13.4453 14.4 14.4001 14.4H28.8001C29.7549 14.4 30.6706 14.7793 31.3457 15.4544C32.0208 16.1296 32.4001 17.0452 32.4001 18V25.2C32.4001 26.1548 32.0208 27.0705 31.3457 27.7456C30.6706 28.4207 29.7549 28.8 28.8001 28.8H14.4001C13.4453 28.8 12.5296 28.4207 11.8545 27.7456C11.1794 27.0705 10.8001 26.1548 10.8001 25.2V18ZM21.6001 25.2C22.5549 25.2 23.4706 24.8207 24.1457 24.1456C24.8208 23.4705 25.2001 22.5548 25.2001 21.6C25.2001 20.6452 24.8208 19.7296 24.1457 19.0544C23.4706 18.3793 22.5549 18 21.6001 18C20.6453 18 19.7296 18.3793 19.0545 19.0544C18.3794 19.7296 18.0001 20.6452 18.0001 21.6C18.0001 22.5548 18.3794 23.4705 19.0545 24.1456C19.7296 24.8207 20.6453 25.2 21.6001 25.2Z" fill="url(#paint0_radial_653_3787)"/>
<defs>
<radialGradient id="paint0_radial_653_3787" cx="0" cy="0" r="1" gradientUnits="userSpaceOnUse" gradientTransform="translate(18.0001 18) rotate(90) scale(10.8 14.4)">
<stop stop-color="#F8CB46"/>
<stop offset="1" stop-color="#FFAB07"/>
</radialGradient>
</defs>
</svg>
