<svg viewBox="0 0 51 25" id="yash" xmlns="http://www.w3.org/2000/svg">
<g clip-path="url(#clip0_464_2332)">
<path d="M19.5265 20.0399C20.5331 20.0399 21.507 20.0399 22.5054 20.0399C22.5054 20.3473 22.5054 20.6464 22.5054 20.987C21.8916 20.987 21.2778 20.987 20.6477 20.987C20.6395 21.1532 20.6313 21.2695 20.6313 21.4357C21.2042 21.4357 21.7525 21.4357 22.3335 21.4357C22.3335 21.7597 22.3335 22.0339 22.3335 22.3579C21.777 22.3579 21.2205 22.3579 20.6477 22.3579C20.6477 22.5241 20.6477 22.657 20.6477 22.8398C21.2942 22.8398 21.9243 22.8398 22.5791 22.8398C22.5791 23.1721 22.5791 23.4546 22.5791 23.762C21.5561 23.762 20.5495 23.762 19.5183 23.762C19.5265 22.5324 19.5265 21.3111 19.5265 20.0399Z" fill="rgba(var(--theme-color),1)" fill-opacity="0.39"/>
<path d="M28.3241 22.5324C28.6351 22.5324 28.9052 22.5158 29.1752 22.5407C29.2816 22.549 29.4126 22.6404 29.4617 22.7401C29.6499 23.0891 29.9363 23.0724 30.2391 22.9894C30.3291 22.9644 30.4437 22.8232 30.4437 22.7318C30.4519 22.6404 30.3455 22.4992 30.2637 22.4659C29.9445 22.3413 29.6172 22.2582 29.2898 22.1502C28.6924 21.9508 28.3978 21.6102 28.4141 21.1449C28.4387 20.5965 28.7742 20.1396 29.3471 20.0399C29.7808 19.9651 30.2391 19.9817 30.6729 20.0731C31.1803 20.1811 31.4258 20.5965 31.4094 21.1615C31.1312 21.1615 30.8529 21.1698 30.5747 21.1532C30.501 21.1449 30.4437 21.0535 30.3701 21.012C30.2391 20.9289 30.1 20.7959 29.9691 20.7959C29.8299 20.7959 29.6826 20.9206 29.5353 20.987C29.6417 21.095 29.7399 21.2446 29.8709 21.2861C30.2146 21.4191 30.5747 21.4855 30.9266 21.6102C31.3276 21.7514 31.5976 22.0173 31.6222 22.4909C31.6467 22.9977 31.4667 23.3965 31.0166 23.6208C30.3128 23.9614 29.5926 23.9864 28.897 23.5959C28.5123 23.3882 28.2914 23.0475 28.3241 22.5324Z" fill="rgba(var(--theme-color),1)" fill-opacity="0.39"/>
<path d="M9.24773 23.762C8.87946 23.762 8.56029 23.762 8.19202 23.762C8.19202 22.5324 8.19202 21.3111 8.19202 20.0565C8.52755 20.0565 8.87127 20.0565 9.24773 20.0565C9.24773 21.2778 9.24773 22.4992 9.24773 23.762Z" fill="rgba(var(--theme-color),1)" fill-opacity="0.39"/>
<path d="M38.9795 21.66C38.0302 21.768 37.2282 21.3775 36.4753 20.8707C35.8042 20.4221 35.5341 20.0814 35.5751 19.7076C36.5653 20.6796 37.7028 21.2778 38.9795 21.66Z" fill="rgba(var(--theme-color),1)" fill-opacity="0.39"/>
<path d="M34.3801 22.7069C35.3294 23.787 36.4097 24.4932 37.7109 24.9252C36.9498 25.3656 34.3883 23.7122 34.3801 22.7069Z" fill="rgba(var(--theme-color),1)" fill-opacity="0.39"/>
<path d="M38.0219 24.4517C37.1708 24.8006 35.043 23.438 34.7484 22.3496C35.6896 23.2968 36.7534 24.0362 38.0219 24.4517Z" fill="rgba(var(--theme-color),1)" fill-opacity="0.39"/>
<path d="M39.3477 21.1366C38.3083 21.4191 36.2542 20.339 35.7877 19.2423C36.3933 19.6577 36.9007 20.0731 37.4654 20.3722C38.0383 20.6713 38.6766 20.8707 39.3477 21.1366Z" fill="rgba(var(--theme-color),1)" fill-opacity="0.39"/>
<path fill-rule="evenodd" clip-rule="evenodd" d="M16.0594 9.73699C16.058 9.13575 16.0567 8.53479 16.0567 7.93451V4.3619C16.0567 4.01571 16.0585 3.66953 16.0603 3.32335C16.064 2.63098 16.0676 1.93861 16.0567 1.24624C16.0403 0.265852 15.6966 -0.108027 14.7964 0.0165993C13.4624 0.199384 12.1285 0.398786 10.8191 0.706197C10.1371 0.861778 9.49102 1.20673 8.86065 1.54329C8.81776 1.56619 8.77494 1.58905 8.73218 1.61181C8.34754 1.81952 8.13476 2.21002 8.20842 2.70022C8.27389 3.17379 8.60942 3.35658 9.00225 3.48951C9.03907 3.50198 9.07795 3.51652 9.11682 3.53106C9.15569 3.5456 9.19457 3.56014 9.23139 3.5726C9.95975 3.84678 10.2134 4.2622 10.1316 5.03488C10.0334 5.99865 9.91065 6.06512 9.05135 5.69124C7.36549 4.95179 5.64689 4.89363 3.99376 5.74109C1.53043 7.00397 0.163739 9.08938 0.0164308 11.8644C-0.130878 14.6145 1.03941 16.8079 3.24085 18.3865C5.13131 19.7408 7.28365 19.666 9.18229 18.2951C9.22869 18.2625 9.27469 18.2295 9.32065 18.1965C9.48546 18.0783 9.64963 17.9605 9.82881 17.8631C10.1562 17.6803 10.4099 17.8215 10.4835 18.1954C10.4917 18.2452 10.4937 18.293 10.4958 18.3408C10.4978 18.3886 10.4999 18.4363 10.5081 18.4862C10.5981 19.101 10.7863 19.317 11.3919 19.2589L11.4125 19.257C12.6251 19.1496 13.8456 19.0415 15.0337 18.8102C15.6884 18.6856 16.3186 18.3616 16.9078 18.0375C17.6607 17.6138 17.6689 16.4839 16.9242 16.0352C16.2449 15.6281 16.0403 15.0133 16.0485 14.2489C16.066 12.7472 16.0627 11.2412 16.0594 9.73699ZM10.2134 11.7481C10.2319 11.7501 10.2503 11.7522 10.2707 11.7564C10.2707 11.7569 10.2706 11.7574 10.2705 11.7579C10.2321 12.0289 10.1967 12.3007 10.1614 12.5723C10.0957 13.0772 10.0301 13.5818 9.94452 14.0818C9.91177 14.2851 9.87635 14.4877 9.83699 14.6892C9.69787 15.3539 9.3296 15.894 8.56851 15.9604C8.52392 15.9643 8.47944 15.9663 8.43517 15.9663C7.81012 15.9705 7.22639 15.5976 6.98083 14.8887C6.7435 14.2074 6.57164 13.4846 6.52254 12.7617C6.4407 11.6733 6.57982 10.5766 6.98901 9.55469C7.15269 9.15588 7.39002 8.75708 7.69282 8.45798C7.96683 8.18649 8.29545 8.05562 8.61366 8.05392C9.08658 8.04951 9.53962 8.32959 9.75516 8.85674C9.96137 9.36849 10.0464 9.93812 10.13 10.4981C10.136 10.5382 10.142 10.5782 10.148 10.6181C10.1872 10.8683 10.1766 11.1262 10.166 11.384C10.1611 11.5029 10.1562 11.6217 10.1562 11.7398C10.1766 11.7439 10.195 11.746 10.2134 11.7481Z" fill="rgba(var(--theme-color),1)" fill-opacity="0.39"/>
<path fill-rule="evenodd" clip-rule="evenodd" d="M35.1749 20.413C35.1435 20.4042 35.1077 20.3941 35.0675 20.3805C34.9447 21.0286 35.0348 21.5852 35.3539 22.1087C35.7713 22.8066 36.3851 23.2718 37.1053 23.6125C38.4638 24.2522 39.9205 24.435 41.4018 24.4599C43.2513 24.4932 45.0763 24.327 46.8113 23.6125C48.3825 22.9644 49.6838 21.984 50.3221 20.3307C51.0996 18.3283 50.4449 16.4174 48.3089 15.761C47.8342 15.6115 47.3105 15.5284 46.8194 15.5533C45.8608 15.6067 44.9021 15.7025 43.9434 15.7983C43.56 15.8367 43.1765 15.875 42.793 15.9106C42.7249 15.9169 42.6568 15.9235 42.5885 15.9302C41.8443 16.0026 41.0916 16.0758 40.387 15.7029C39.9778 15.4869 39.8223 15.1047 39.9696 14.6893C40.1087 14.2905 40.4443 14.2406 40.8043 14.2489C40.9948 14.2536 41.1859 14.261 41.3774 14.2684C41.8609 14.2871 42.3474 14.306 42.8339 14.2821C44.217 14.2074 45.5428 13.8667 46.7785 13.1937C48.4153 12.2964 49.3155 10.7428 49.0945 9.06447C49.0454 8.63243 49.1764 8.37487 49.4137 8.06746C49.7329 7.65204 50.052 7.22831 50.2894 6.77135C50.6167 6.14822 50.6658 5.47524 50.3303 4.81887C50.0848 4.34529 49.7083 4.26221 49.2828 4.56131C49.2296 4.60285 49.1743 4.6444 49.1191 4.68594C49.0638 4.72748 49.0086 4.76902 48.9554 4.81056C47.8097 5.70787 46.533 5.94051 45.1008 5.69125C43.9633 5.49185 42.8012 5.30907 41.6555 5.33399C39.7977 5.36723 38.0873 5.95712 36.6715 7.23662C35.1575 8.60751 34.9529 10.6015 36.1314 12.2798C36.3933 12.6537 36.6879 13.0027 36.9907 13.335C37.228 13.6009 37.1953 13.767 36.9089 13.9581C36.557 14.1908 36.1969 14.4317 35.8859 14.7142C34.8302 15.6697 34.7483 16.9242 35.6322 18.0375C36.0577 18.5693 36.5733 19.0013 37.2198 19.2257C38.8402 19.7823 40.5015 20.1396 42.2201 20.0897C42.5162 20.0814 42.8102 20.0521 43.1032 20.0228C43.3933 19.9939 43.6824 19.9651 43.9715 19.9568C44.4625 19.9485 44.839 20.2144 44.929 20.5799C45.019 20.9538 44.8471 21.4025 44.438 21.6351C44.127 21.8096 43.7669 21.9591 43.415 22.0173C41.8519 22.2831 40.2888 22.2333 38.7338 21.9757C37.4817 21.768 36.246 21.4606 35.313 20.4719C35.2855 20.444 35.2395 20.4311 35.1749 20.413ZM40.6346 9.4698C40.6312 9.45655 40.6277 9.4433 40.6243 9.43004C40.6352 9.39324 40.6458 9.3564 40.656 9.31955C40.6909 9.19245 40.7217 9.06527 40.7522 8.93943C40.7993 8.74483 40.8456 8.55345 40.9054 8.37055C40.954 8.21613 41.0106 8.06708 41.0826 7.92622C41.4132 7.32883 42.0893 7.12104 42.656 7.32152C42.9202 7.41389 43.1612 7.59545 43.3332 7.86806C44.0616 9.02293 44.168 10.3024 43.7261 11.5985C43.5215 12.1884 43.0632 12.4709 42.433 12.4958C41.9934 12.5132 41.6653 12.3527 41.4431 12.0734C41.3429 11.9507 41.2636 11.8045 41.2054 11.6401C41.0778 11.2731 40.9789 10.895 40.8859 10.5103C40.8534 10.3773 40.8217 10.2435 40.7898 10.1089C40.7398 9.89788 40.6894 9.68483 40.6346 9.4698Z" fill="rgba(var(--theme-color),1)" fill-opacity="0.39"/>
<path fill-rule="evenodd" clip-rule="evenodd" d="M33.9219 10.535C33.1608 7.47756 30.4275 5.07643 26.7529 5.09304C26.525 5.12234 26.296 5.14544 26.067 5.16853C25.6467 5.21093 25.2266 5.2533 24.8134 5.33399C22.7592 5.73279 20.9833 6.65502 19.6494 8.34163C17.2843 11.3243 17.3988 17.4227 23.0211 18.993C26.2373 19.8903 29.1917 19.1758 31.7614 17.0572C33.7992 15.3789 34.5766 13.1688 33.9219 10.535ZM27.334 10.2941C27.7923 11.5404 27.9478 12.8614 28.0214 14.2821C28.0213 14.2826 28.0213 14.283 28.0212 14.2835C28.0201 14.2937 28.0191 14.3043 28.0179 14.3153C28.0093 14.3987 27.9986 14.5027 27.9848 14.6154C27.9838 14.6263 27.9828 14.6373 27.9818 14.6483C27.9737 14.736 27.9655 14.8266 27.9559 14.9136C27.9084 15.2032 27.8131 15.4583 27.6259 15.6429C27.5208 15.7521 27.3854 15.8381 27.2111 15.894C26.7365 16.0436 26.2864 15.9272 25.9754 15.57C25.6562 15.2044 25.378 14.7724 25.1897 14.332C24.6005 12.903 24.4287 11.3742 24.3386 9.84548C24.3154 9.38171 24.4826 8.97 24.8265 8.65959C24.8512 8.63618 24.8768 8.61328 24.9034 8.59088C25.3617 8.2087 26.0246 8.18377 26.4092 8.66566C26.7938 9.14755 27.1212 9.71252 27.334 10.2941Z" fill="rgba(var(--theme-color),1)" fill-opacity="0.39"/>
<path fill-rule="evenodd" clip-rule="evenodd" d="M24.613 20.0288C24.3945 20.0302 24.1749 20.0315 23.954 20.0315V23.7454H25.0752V22.4991C25.9754 22.4078 26.1063 22.5158 26.1882 23.3549C26.1909 23.3771 26.1909 23.4011 26.1909 23.4251C26.1909 23.4731 26.1909 23.5211 26.2127 23.5543C26.2184 23.5615 26.2243 23.569 26.2303 23.5768C26.2937 23.6582 26.3753 23.7627 26.45 23.7703C26.6586 23.788 26.8712 23.7848 27.0966 23.7814C27.1897 23.7801 27.2849 23.7786 27.383 23.7786C27.3254 23.5821 27.308 23.3796 27.2909 23.1806C27.2545 22.7573 27.2195 22.3501 26.8019 22.0505C27.2521 21.6932 27.383 21.2363 27.2111 20.7128C27.0556 20.2476 26.6628 20.0565 26.2209 20.0399C25.6901 20.0221 25.1551 20.0254 24.613 20.0288ZM25.067 21.6766C25.067 21.6766 25.067 21.6766 25.067 21.6766C25.067 21.6323 25.067 21.5903 25.067 21.5502V20.9455C25.0697 20.9455 25.0724 20.9455 25.0752 20.9455C25.0754 20.9455 25.0757 20.9455 25.0759 20.9455C25.1483 20.9453 25.2208 20.9426 25.2926 20.94C25.3643 20.9374 25.4354 20.9348 25.5055 20.9346C25.6174 20.9342 25.7276 20.94 25.8363 20.9621C25.9508 20.987 26.1145 21.1615 26.1227 21.2778C26.1309 21.3858 25.9836 21.5935 25.869 21.6185C25.7256 21.656 25.5769 21.6644 25.4245 21.6676C25.3912 21.6683 25.3576 21.6687 25.3239 21.6692C25.2394 21.6703 25.1536 21.6715 25.067 21.6766V21.6766Z" fill="rgba(var(--theme-color),1)" fill-opacity="0.39"/>
<path fill-rule="evenodd" clip-rule="evenodd" d="M3.36353 20.0814V23.7787C3.56917 23.7787 3.76915 23.7796 3.96539 23.7806C4.34706 23.7824 4.71459 23.7842 5.08212 23.7787C6.1542 23.7454 6.70252 23.2552 6.87438 22.1834C7.02987 21.1864 6.50611 20.206 5.64681 20.098C5.13392 20.0351 4.60938 20.051 4.08122 20.0669C3.84249 20.0742 3.60301 20.0814 3.36353 20.0814ZM4.99464 21.019C4.83906 21.0023 4.66256 21.0154 4.46834 21.0618C4.46833 21.0618 4.46833 21.0618 4.46833 21.0618C4.46833 21.1876 4.46782 21.3145 4.46731 21.4422C4.46662 21.6154 4.46593 21.7902 4.46648 21.9663C4.46673 22.0522 4.46729 22.138 4.46829 22.2237C4.46982 22.3564 4.47239 22.4899 4.47651 22.6238C4.47651 22.6986 4.5829 22.8149 4.65655 22.8315C5.20487 22.9644 5.67953 22.6072 5.73681 22.0422C5.79965 21.4553 5.51027 21.0741 4.99464 21.019Z" fill="rgba(var(--theme-color),1)" fill-opacity="0.39"/>
<path fill-rule="evenodd" clip-rule="evenodd" d="M15.7555 20.0335C15.5413 20.0367 15.3255 20.0399 15.1073 20.0399C15.1073 21.3111 15.1073 22.5324 15.1155 23.7454H16.2285V22.6238C16.3337 22.6238 16.4359 22.6262 16.536 22.6284C16.7627 22.6336 16.9784 22.6386 17.1942 22.6155C17.9143 22.549 18.3317 22.0672 18.3317 21.3526C18.3317 20.6215 17.8898 20.0897 17.1696 20.0482C16.7009 20.0195 16.2323 20.0265 15.7555 20.0335ZM16.2797 20.9947C16.2626 20.9951 16.2455 20.9954 16.2285 20.9954V20.9954C16.2285 20.9954 16.2284 20.9954 16.2284 20.9954V21.7348C16.2469 21.7348 16.2653 21.7351 16.2835 21.7355C16.3429 21.7371 16.4005 21.7407 16.4563 21.7443C16.5242 21.7486 16.5894 21.7528 16.6524 21.7528C16.7403 21.7529 16.8227 21.7451 16.8985 21.7185C16.8989 21.7184 16.8992 21.7183 16.8996 21.7182C16.8997 21.7182 16.8998 21.7181 16.8999 21.7181C16.9305 21.7089 16.9591 21.692 16.9865 21.67C17.05 21.621 17.1051 21.5484 17.1594 21.4769C17.1925 21.4332 17.2253 21.3899 17.2596 21.3526C17.2594 21.3524 17.2591 21.3521 17.2589 21.3519C17.2252 21.3177 17.1928 21.2797 17.1604 21.2418C17.075 21.1418 16.9899 21.0422 16.8834 21.0121C16.8833 21.012 16.8833 21.012 16.8832 21.012C16.7895 20.9842 16.6884 20.9792 16.5833 20.9815C16.5338 20.9826 16.4833 20.9853 16.4324 20.988M16.4323 20.988C16.3818 20.9908 16.3308 20.9935 16.2797 20.9947L16.4323 20.988Z" fill="rgba(var(--theme-color),1)" fill-opacity="0.39"/>
<path fill-rule="evenodd" clip-rule="evenodd" d="M11.3201 20.0353C11.1112 20.0376 10.9007 20.0399 10.688 20.0399V23.7454H11.801V22.6653C11.9181 22.6599 12.0318 22.6572 12.1428 22.6545C12.3732 22.6488 12.5922 22.6435 12.8076 22.6155C13.5114 22.5241 13.9124 22.0422 13.9124 21.3111C13.9124 20.6298 13.4377 20.0897 12.7503 20.0482C12.2763 20.025 11.8024 20.0301 11.3201 20.0353ZM11.8174 20.9953V20.9953C11.8857 20.9953 11.9541 20.9926 12.0219 20.9898C12.1894 20.9831 12.3533 20.9765 12.5048 21.012C12.6275 21.0369 12.8076 21.2114 12.8076 21.3111C12.8076 21.444 12.6767 21.6517 12.5539 21.6932C12.5538 21.6933 12.5536 21.6933 12.5535 21.6934C12.3879 21.7493 12.2085 21.7493 12.0152 21.7493C11.9508 21.7493 11.8848 21.7493 11.8173 21.7514V20.9953C11.8173 20.9953 11.8173 20.9953 11.8174 20.9953Z" fill="rgba(var(--theme-color),1)" fill-opacity="0.39"/>
</g>
<defs>
<clipPath id="clip0_464_2332">
<rect width="50.625" height="25" fill="red"/>
</clipPath>
</defs>
</svg>
