<svg width="15" height="16" viewBox="0 0 15 16" fill="none" xmlns="http://www.w3.org/2000/svg">
<path d="M12.8875 5.43658C12.2312 2.46415 9.7125 1.12592 7.5 1.12592C7.5 1.12592 7.5 1.12592 7.49375 1.12592C5.2875 1.12592 2.7625 2.45772 2.10625 5.43014C1.375 8.75 3.35 11.5616 5.1375 13.3309C5.8 13.9871 6.65 14.3153 7.5 14.3153C8.35 14.3153 9.2 13.9871 9.85625 13.3309C11.6437 11.5616 13.6187 8.75643 12.8875 5.43658ZM7.5 8.65992C6.4125 8.65992 5.53125 7.75275 5.53125 6.63327C5.53125 5.51378 6.4125 4.60661 7.5 4.60661C8.5875 4.60661 9.46875 5.51378 9.46875 6.63327C9.46875 7.75275 8.5875 8.65992 7.5 8.65992Z" fill="#898970"/>
</svg>
