<svg width="24" height="24" viewBox="0 0 24 24" fill="none" xmlns="http://www.w3.org/2000/svg">
<path d="M7.39976 6.49496H4.59976C4.26839 6.49496 3.99976 6.76738 3.99976 7.10342V16.0274C3.99976 16.3634 4.26839 16.6358 4.59976 16.6358H7.39976C7.73113 16.6358 7.99976 16.3634 7.99976 16.0274V7.10342C7.99976 6.76738 7.73113 6.49496 7.39976 6.49496Z" stroke="white" stroke-width="1.5" stroke-linecap="round" stroke-linejoin="round"/>
<path d="M19.3998 6.49496H16.5998C16.2684 6.49496 15.9998 6.76738 15.9998 7.10342V16.0274C15.9998 16.3634 16.2684 16.6358 16.5998 16.6358H19.3998C19.7312 16.6358 19.9998 16.3634 19.9998 16.0274V7.10342C19.9998 6.76738 19.7312 6.49496 19.3998 6.49496Z" stroke="white" stroke-width="1.5" stroke-linecap="round" stroke-linejoin="round"/>
<path d="M0.999756 13.9992V9.13158C0.999756 8.79555 1.26839 8.52313 1.59976 8.52313H3.39976C3.73113 8.52313 3.99976 8.79555 3.99976 9.13158V13.9992C3.99976 14.3353 3.73113 14.6076 3.39976 14.6076H1.59976C1.26839 14.6076 0.999756 14.3353 0.999756 13.9992Z" stroke="white" stroke-width="1.5" stroke-linecap="round" stroke-linejoin="round"/>
<path d="M23.0002 13.9992V9.13158C23.0002 8.79555 22.7316 8.52313 22.4002 8.52313H20.6002C20.2688 8.52313 20.0002 8.79555 20.0002 9.13158V13.9992C20.0002 14.3353 20.2688 14.6076 20.6002 14.6076H22.4002C22.7316 14.6076 23.0002 14.3353 23.0002 13.9992Z" stroke="white" stroke-width="1.5" stroke-linecap="round" stroke-linejoin="round"/>
<path d="M8.00024 11.5654H16.0002" stroke="white" stroke-width="1.5" stroke-linecap="round" stroke-linejoin="round"/>
</svg>
