<svg width="16" height="16" viewBox="0 0 16 16" fill="none" xmlns="http://www.w3.org/2000/svg">
<g clip-path="url(#clip0_295_18620)">
<path d="M5.67775 6.19489C5.52626 6.19489 5.40344 6.3177 5.40344 6.46919V10.6313C5.40344 10.7828 5.52626 10.9056 5.67775 10.9056H8.4524H11.2271H14.0017C14.1532 10.9056 14.276 10.7828 14.276 10.6313V6.46919C14.276 6.3177 14.1532 6.19489 14.0017 6.19489C13.8502 6.19489 13.7275 6.3177 13.7275 6.46919V10.357H11.5014V6.46919C11.5014 6.3177 11.3787 6.19489 11.2272 6.19489H8.45246C8.30098 6.19489 8.17822 6.3177 8.17822 6.46919V10.357H5.95211V6.46919C5.95205 6.3177 5.82923 6.19489 5.67775 6.19489ZM8.72665 6.74349H10.9529V10.357H8.72665V6.74349Z" fill="black"/>
<path d="M4.14766 6.66313L9.83952 0.971276L15.5317 6.66319C15.5853 6.71675 15.6555 6.74349 15.7257 6.74349C15.7959 6.74349 15.8661 6.71669 15.9196 6.66313C16.0267 6.55603 16.0267 6.38235 15.9196 6.27524L13.0569 3.41273V0.583387C13.0569 0.431902 12.9342 0.309082 12.7827 0.309082C12.6312 0.309082 12.5084 0.431902 12.5084 0.583387V2.86424L10.0335 0.389442C9.9263 0.282335 9.75268 0.282335 9.64551 0.389442L3.75977 6.27524C3.65267 6.38235 3.65267 6.55603 3.75977 6.66313C3.86688 6.77024 4.04056 6.77024 4.14766 6.66313Z" fill="black"/>
<path d="M15.7256 12.6213C15.5741 12.6213 15.4513 12.7441 15.4513 12.8956V14.0365H4.22793V12.8956C4.22793 12.7441 4.10511 12.6213 3.95363 12.6213C3.80214 12.6213 3.67932 12.7441 3.67932 12.8956V15.7257C3.67932 15.8772 3.80214 16 3.95363 16C4.10511 16 4.22793 15.8772 4.22793 15.7257V14.585H15.4513V15.7257C15.4513 15.8772 15.5741 16 15.7256 16C15.8771 16 15.9998 15.8772 15.9998 15.7257V12.8956C15.9999 12.7441 15.8771 12.6213 15.7256 12.6213Z" fill="black"/>
<path d="M3.10455 0.54855C3.25604 0.54855 3.37886 0.42573 3.37886 0.274245C3.37886 0.12276 3.25604 0 3.10455 0H0.274427C0.122942 0 0.000182041 0.122819 0.000182041 0.274305C0.000182041 0.42579 0.123002 0.54861 0.274487 0.54861H1.41519V11.772H0.274427C0.122942 11.772 0.00012207 11.8948 0.00012207 12.0463C0.00012207 12.1978 0.122942 12.3206 0.274427 12.3206H3.10455C3.25604 12.3206 3.37886 12.1978 3.37886 12.0463C3.37886 11.8948 3.25604 11.772 3.10455 11.772H1.96374V0.54855H3.10455Z" fill="black"/>
</g>
<defs>
<clipPath id="clip0_295_18620">
<rect width="16" height="16" fill="white"/>
</clipPath>
</defs>
</svg>
