<svg width="16" height="16" viewBox="0 0 16 16" fill="none" xmlns="http://www.w3.org/2000/svg">
<g clip-path="url(#clip0_295_18606)">
<path d="M15.2 14.4H14.6666H14.4V1.557C14.7157 1.45103 14.9333 1.15906 14.9333 0.8C14.9333 0.346656 14.5867 0 14.1333 0H1.86664C1.41329 0 1.06664 0.346656 1.06664 0.8C1.06664 1.15506 1.29567 1.44466 1.59998 1.55353V14.4H1.33333H0.799982C0.639981 14.4 0.533325 14.5067 0.533325 14.6667C0.533325 14.8267 0.639981 14.9333 0.799982 14.9333H1.06664V15.2C1.06664 15.6533 1.41329 16 1.86664 16H14.1333C14.5866 16 14.9333 15.6533 14.9333 15.2V14.9333H15.2C15.36 14.9333 15.4666 14.8267 15.4666 14.6667C15.4666 14.5067 15.36 14.4 15.2 14.4ZM1.86664 0.533344H14.1333C14.2933 0.533344 14.4 0.64 14.4 0.8C14.4 0.96 14.2933 1.06666 14.1333 1.06666H1.86664C1.70664 1.06666 1.59998 0.933312 1.59998 0.8C1.59998 0.666687 1.73333 0.533344 1.86664 0.533344ZM2.13333 1.6H13.8667V14.4H13.3333V10.1333V2.4C13.3333 2.24 13.2267 2.13334 13.0667 2.13334H2.93333C2.77333 2.13334 2.66667 2.24 2.66667 2.4V10.1333V14.4H2.13333V1.6ZM12.8 9.86666H3.19998V2.66666H12.8V9.86666ZM3.19998 10.4H12.8V14.4H3.19998V10.4ZM14.4 15.2C14.4 15.36 14.2933 15.4667 14.1333 15.4667H1.86664C1.70664 15.4667 1.59998 15.36 1.59998 15.2V14.9333H1.86664H2.93329H13.0666H14.1333H14.4L14.4 15.2Z" fill="black"/>
<path d="M3.99996 4.53333C4.07996 4.53333 4.1333 4.50667 4.18661 4.45333L4.98661 3.65333C5.09327 3.54667 5.09327 3.38667 4.98661 3.27999C4.87996 3.1733 4.71996 3.17333 4.61327 3.27999L3.81327 4.07999C3.70661 4.18664 3.70661 4.34664 3.81327 4.45333C3.86661 4.50664 3.91996 4.53333 3.99996 4.53333Z" fill="black"/>
<path d="M5.9467 4.98664C6.00004 5.03999 6.05335 5.06664 6.13335 5.06664C6.21335 5.06664 6.2667 5.03999 6.32001 4.98664L7.65335 3.6533C7.76001 3.54664 7.76001 3.38664 7.65335 3.27996C7.5467 3.17327 7.3867 3.1733 7.28001 3.27996L5.94666 4.6133C5.84004 4.71999 5.84004 4.87999 5.9467 4.98664Z" fill="black"/>
<path d="M3.99996 7.19999C4.07996 7.19999 4.1333 7.17334 4.18661 7.11999L4.71996 6.58665C4.82661 6.47999 4.82661 6.31999 4.71996 6.2133C4.6133 6.10662 4.4533 6.10665 4.34661 6.2133L3.81327 6.74665C3.70661 6.8533 3.70661 7.0133 3.81327 7.11999C3.86661 7.17334 3.91996 7.19999 3.99996 7.19999Z" fill="black"/>
<path d="M3.99996 5.86665C4.07996 5.86665 4.1333 5.83999 4.18661 5.78665L4.71996 5.25331C4.82661 5.14665 4.82661 4.98665 4.71996 4.87996C4.6133 4.77327 4.4533 4.7733 4.34661 4.87996L3.81327 5.4133C3.70661 5.51996 3.70661 5.67996 3.81327 5.78665C3.86661 5.83999 3.91996 5.86665 3.99996 5.86665Z" fill="black"/>
<path d="M5.14665 4.45333C5.19999 4.50667 5.2533 4.53333 5.3333 4.53333C5.4133 4.53333 5.46665 4.50667 5.51996 4.45333L6.31996 3.65333C6.42662 3.54667 6.42662 3.38667 6.31996 3.27999C6.2133 3.1733 6.0533 3.17333 5.94662 3.27999L5.14662 4.07999C5.03999 4.18664 5.03999 4.34664 5.14665 4.45333Z" fill="black"/>
<path d="M5.33331 5.33334C5.17331 5.33334 5.06665 5.44 5.06665 5.6C5.06665 5.76 5.17331 5.86666 5.33331 5.86666C5.49331 5.86666 5.59996 5.76 5.59996 5.6C5.59996 5.44 5.49331 5.33334 5.33331 5.33334Z" fill="black"/>
</g>
<defs>
<clipPath id="clip0_295_18606">
<rect width="16" height="16" fill="white"/>
</clipPath>
</defs>
</svg>
