<svg width="16" height="16" viewBox="0 0 16 16" fill="none" xmlns="http://www.w3.org/2000/svg">
<path d="M0.549479 10.2643H15.4336V9.65626C15.4336 9.50912 15.4049 9.37241 15.3542 9.25001C15.2995 9.1198 15.2187 9.00392 15.1185 8.90366C15.0573 8.84246 14.9883 8.78647 14.9141 8.73699C14.8385 8.68621 14.7578 8.64194 14.6732 8.60418C14.4453 8.5547 14.2188 8.50782 13.9935 8.46355C13.7669 8.41928 13.5391 8.37761 13.3099 8.33855C13.2995 8.33725 13.2917 8.33595 13.2812 8.33334C13.1654 8.31381 13.0547 8.29558 12.9492 8.27866C12.8437 8.26173 12.7318 8.2448 12.6146 8.22657H12.612C11.8151 8.12501 11.0208 8.04689 10.2279 7.9948C9.43359 7.94272 8.64323 7.91668 7.85807 7.91538C7.39193 7.91538 6.92708 7.92319 6.46224 7.94142C6 7.95965 5.53516 7.98569 5.07031 8.02215H5.06771C4.63281 8.06251 4.19922 8.11329 3.76432 8.17189C3.33073 8.23048 2.89583 8.29949 2.45833 8.37631L2.41016 8.38803C2.40104 8.39064 2.39193 8.39194 2.38411 8.39194C2.3763 8.39324 2.36849 8.39324 2.36068 8.39324C2.15625 8.4297 1.94661 8.47006 1.73047 8.51303C1.52083 8.5547 1.3112 8.59897 1.10286 8.64454C1.05078 8.67319 1.0013 8.70574 0.954427 8.73959C0.907552 8.77475 0.861979 8.81251 0.821615 8.85288C0.734375 8.94011 0.665365 9.04038 0.61849 9.15235C0.574219 9.25782 0.549479 9.37501 0.549479 9.50261V10.2643ZM1.84896 1.4935H13.957C14.1146 1.4935 14.2656 1.52475 14.4036 1.58204C14.5469 1.64194 14.6758 1.72918 14.7839 1.83595C14.8919 1.94402 14.9792 2.07293 15.0378 2.21616C15.0951 2.35418 15.1263 2.50522 15.1263 2.66277V8.22136C15.1927 8.26043 15.2578 8.3034 15.3177 8.35027C15.3854 8.40235 15.4492 8.45704 15.5078 8.51564C15.6589 8.66668 15.7812 8.84246 15.8633 9.04038C15.9414 9.22657 15.9844 9.4336 15.9844 9.65756V10.4505C15.9883 10.4636 15.9922 10.4766 15.9948 10.4896V10.4922C15.9974 10.5091 15.9987 10.5248 15.9987 10.5404C15.9987 10.5573 15.9974 10.5742 15.9935 10.5912C15.9909 10.6042 15.987 10.6172 15.9831 10.6302V14.2318C15.9831 14.3073 15.9518 14.3763 15.9023 14.4258C15.8529 14.4753 15.7839 14.5065 15.7083 14.5065H15.1419C15.0781 14.5065 15.0195 14.4844 14.9727 14.4479C14.9258 14.4115 14.8906 14.3594 14.8763 14.2995C14.7721 14 14.6667 13.763 14.5534 13.5781C14.4414 13.3958 14.3216 13.2656 14.1836 13.1732C14.0443 13.0807 13.8776 13.0221 13.6758 12.987C13.4701 12.9505 13.2305 12.9388 12.9453 12.9401L2.5599 12.9531H2.55469C2.35026 12.9492 2.18229 12.9753 2.04167 13.03C1.90234 13.0846 1.78906 13.1667 1.69531 13.2721C1.58984 13.3893 1.5013 13.5391 1.42057 13.7136C1.33854 13.8919 1.26432 14.0951 1.1901 14.3177C1.17188 14.375 1.13542 14.4206 1.08984 14.4531C1.04688 14.4844 0.994792 14.5026 0.941406 14.5052C0.9375 14.5065 0.933594 14.5065 0.929687 14.5065H0.27474C0.199219 14.5065 0.130208 14.4753 0.0807292 14.4258C0.03125 14.3763 0 14.3073 0 14.2318V9.50392C0 9.29949 0.0390625 9.11199 0.109375 8.94272C0.184896 8.76303 0.295573 8.60288 0.433594 8.46485C0.472656 8.42579 0.515625 8.38673 0.561198 8.35027C0.60026 8.31902 0.639323 8.28907 0.68099 8.26173V2.65105C0.68099 2.4935 0.71224 2.34376 0.769531 2.20834C0.829427 2.06642 0.916667 1.93881 1.02474 1.83204C1.13281 1.72527 1.26172 1.64064 1.40365 1.58204C1.54167 1.52475 1.69141 1.4935 1.84896 1.4935ZM13.957 2.04298H1.84896C1.76432 2.04298 1.68359 2.05991 1.60937 2.08985C1.53255 2.1211 1.46484 2.16668 1.40755 2.22267C1.35156 2.27735 1.30599 2.34506 1.27474 2.41798C1.24609 2.48959 1.23047 2.56772 1.23047 2.65105V7.99741C1.26953 7.98439 1.30859 7.97397 1.34896 7.96355C1.41276 7.94663 1.47656 7.9323 1.54036 7.92189C1.62891 7.90626 1.72526 7.88933 1.82943 7.8711C1.90755 7.85808 1.99089 7.84376 2.07682 7.83074V6.46616C2.07682 6.26043 2.11849 6.06381 2.19271 5.88413C2.27083 5.69663 2.38411 5.52866 2.52474 5.38803C2.66536 5.24741 2.83333 5.13413 3.02083 5.056C3.20052 4.98178 3.39714 4.94011 3.60286 4.94011H6.18359C6.38932 4.94011 6.58594 4.98178 6.76562 5.056C6.95312 5.13413 7.12109 5.24741 7.26172 5.38803C7.40234 5.52866 7.51562 5.69663 7.59375 5.88413C7.66797 6.06381 7.70963 6.26043 7.70963 6.46616V7.33725C7.80078 7.33595 7.89193 7.33595 7.98437 7.33595V6.46616C7.98437 6.26043 8.02604 6.06381 8.10026 5.88413C8.17838 5.69663 8.29167 5.52866 8.43229 5.38803C8.57292 5.24741 8.74088 5.13413 8.92838 5.056C9.10807 4.98178 9.30469 4.94011 9.51042 4.94011H12.0911C12.2969 4.94011 12.4935 4.98178 12.6732 5.056C12.8607 5.13413 13.0286 5.24741 13.1693 5.38803C13.3099 5.52866 13.4232 5.69663 13.5013 5.88413C13.5755 6.06381 13.6172 6.26043 13.6172 6.46616V7.81251C13.7148 7.82683 13.819 7.84376 13.931 7.86199C14.0547 7.88152 14.1732 7.90105 14.2878 7.92058C14.3464 7.931 14.4062 7.94272 14.4661 7.95704C14.5039 7.96616 14.5404 7.97527 14.5755 7.98569V2.66277C14.5755 2.57944 14.5586 2.50001 14.5286 2.42709C14.4974 2.35157 14.4505 2.28386 14.3932 2.22527C14.3359 2.16798 14.2669 2.1211 14.1927 2.08985C14.1198 2.05991 14.0404 2.04298 13.957 2.04298ZM5.6263 7.42579C5.88802 7.40626 6.15104 7.38933 6.41797 7.37631C6.66406 7.36329 6.91276 7.35418 7.16146 7.34767V6.46616C7.16146 6.33465 7.13542 6.20834 7.08724 6.09376C7.03776 5.97397 6.96484 5.8672 6.8737 5.77605C6.78385 5.68621 6.67578 5.61329 6.55599 5.56251C6.44141 5.51433 6.3151 5.48829 6.18359 5.48829H3.60286C3.47135 5.48829 3.34505 5.51433 3.23047 5.56251C3.11068 5.61199 3.00391 5.68491 2.91276 5.77605C2.82292 5.8659 2.75 5.97397 2.69922 6.09376C2.65104 6.20834 2.625 6.33465 2.625 6.46616V7.7435C2.83594 7.71225 3.04948 7.6836 3.26823 7.65496C3.50391 7.62501 3.73828 7.59767 3.97005 7.57163C4.0599 7.56121 4.15625 7.54949 4.25651 7.53907C4.35026 7.52866 4.44792 7.51954 4.55208 7.50913C4.72917 7.4922 4.90495 7.47657 5.07812 7.46225C5.25651 7.45053 5.4388 7.43751 5.6263 7.42579ZM8.53385 7.33985C8.69141 7.34246 8.84896 7.34636 9.00651 7.35157C9.18099 7.35678 9.35547 7.36459 9.52865 7.37241H9.52995C9.8151 7.38282 10.0937 7.39584 10.3646 7.41147C10.6354 7.42709 10.8997 7.44663 11.1523 7.46876C11.5195 7.50131 11.875 7.54038 12.2122 7.58595C12.5143 7.62761 12.8008 7.67449 13.069 7.72657V6.46616C13.069 6.33465 13.043 6.20834 12.9948 6.09376C12.9453 5.97397 12.8724 5.8672 12.7812 5.77605C12.6914 5.68621 12.5833 5.61329 12.4635 5.56251C12.349 5.51433 12.2227 5.48829 12.0911 5.48829H9.51172C9.38021 5.48829 9.25391 5.51433 9.13932 5.56251C9.01953 5.61199 8.91276 5.68491 8.82161 5.77605C8.73177 5.8659 8.65885 5.97397 8.60807 6.09376C8.5599 6.20834 8.53385 6.33465 8.53385 6.46616V7.33985ZM15.4349 10.8151H0.549479V13.957H0.735677C0.808594 13.7513 0.884115 13.5599 0.96875 13.3893C1.0599 13.207 1.16276 13.0456 1.28776 12.9063C1.4362 12.7396 1.61068 12.6107 1.82031 12.5248C2.02995 12.4401 2.27474 12.3971 2.56901 12.4037L12.9453 12.3906C13.2799 12.3906 13.5664 12.4063 13.8164 12.4544C14.0703 12.5026 14.2891 12.5846 14.4857 12.7149C14.668 12.8359 14.8242 12.9961 14.9648 13.2057C15.099 13.4063 15.2188 13.6524 15.3333 13.9557H15.4323V10.8151H15.4349Z" fill="black"/>
</svg>
