<svg width="139" height="164" viewBox="0 0 139 164" fill="none" xmlns="http://www.w3.org/2000/svg">
<path d="M139 39.4163C139 39.4163 130.16 110.197 115.63 126.123C98.1871 145.229 85.5292 142.436 78.4864 152.287C78.4716 152.287 78.4715 152.302 78.4715 152.302C71.4287 142.436 58.7708 145.244 41.3132 126.123C26.7835 110.197 17.9578 39.4163 17.9578 39.4163C56.2451 20.8297 78.4715 0 78.4715 0C78.4715 0 78.4716 2.13541e-06 78.4864 0.0148036C79.1699 0.653957 101.307 21.1271 139 39.4163Z" fill="#007AC4"/>
<path opacity="0.1" d="M78.4864 0.0161484V152.288C78.4716 152.288 78.4715 152.303 78.4715 152.303C71.4287 142.437 58.7708 145.245 41.3132 126.125C26.7835 110.198 17.9578 39.4176 17.9578 39.4176C56.2451 20.8297 78.4715 0 78.4715 0C78.4715 0 78.4716 1.39604e-06 78.4864 0.0161484Z" fill="black"/>
<path d="M27.3487 45.1189C27.3487 45.1189 34.8153 104.91 47.0884 118.37C61.8361 134.533 72.5349 132.16 78.4864 140.485C84.4366 132.16 95.1367 134.535 109.884 118.37C122.157 104.91 129.609 45.1189 129.609 45.1189C97.2681 29.4132 78.4864 11.8183 78.4864 11.8183C78.4864 11.8183 59.6899 29.4132 27.3487 45.1189Z" fill="#007AC4"/>
<path opacity="0.2" d="M129.593 45.1216C129.593 45.1216 122.128 104.906 109.851 118.373C95.1165 134.524 84.4285 132.165 78.4702 140.466V11.8358C79.0448 12.3754 97.7525 29.6581 129.593 45.1216Z" fill="white"/>
<path d="M78.4782 99.8601C91.5724 99.8601 102.187 89.2451 102.187 76.1508C102.187 63.0566 91.5724 52.4416 78.4782 52.4416C65.3839 52.4416 54.769 63.0566 54.769 76.1508C54.769 89.2451 65.3839 99.8601 78.4782 99.8601Z" fill="white"/>
<path d="M75.7763 91.5551L65.2175 80.5738L69.1359 76.8075L74.9569 82.8613L87.5045 63.61L92.0579 66.5784L75.7763 91.5551Z" fill="#272826"/>
<path d="M129.593 141.899L126.24 142.518L125.49 146.053L124.742 142.518L121.389 141.896L124.727 141.081L125.49 137.742L126.255 141.081L129.593 141.899Z" fill="#007AC4"/>
<path d="M30.2751 115.022L26.9233 115.641L26.1738 119.176L25.4243 115.641L22.0711 115.019L25.4095 114.204L26.1738 110.866L26.9367 114.204L30.2751 115.022Z" fill="#007AC4"/>
<path d="M45.5787 21.8469L42.2254 22.4673L41.4759 26.0021L40.7264 22.4673L37.3732 21.8456L40.7117 21.0302L41.4759 17.6918L42.2402 21.0302L45.5787 21.8469Z" fill="#007AC4"/>
<path d="M123.593 126.001L121.72 126.348L121.3 128.323L120.882 126.348L119.009 126.001L120.874 125.545L121.3 123.678L121.728 125.545L123.593 126.001Z" fill="#007AC4"/>
<path d="M136.554 86.6747L134.679 87.0218L134.261 88.9971L133.842 87.0218L131.968 86.6747L133.834 86.2185L134.261 84.3522L134.688 86.2185L136.554 86.6747Z" fill="#007AC4"/>
<path d="M120.645 17.6917L118.772 18.0389L118.353 20.0142L117.934 18.0389L116.061 17.6904L117.925 17.2342L118.353 15.3693L118.78 17.2342L120.645 17.6917Z" fill="#007AC4"/>
<path d="M72.7797 160.796L70.9053 161.142L70.4868 163.117L70.0683 161.142L68.1939 160.795L70.0603 160.339L70.4868 158.472L70.9134 160.339L72.7797 160.796Z" fill="#007AC4"/>
<path d="M19.8576 119.621L17.9846 119.968L17.5648 121.944L17.1463 119.968L15.2719 119.621L17.1382 119.165L17.5648 117.299L17.9927 119.165L19.8576 119.621Z" fill="#007AC4"/>
<path d="M22.7735 64.8586L20.9005 65.2044L20.4806 67.1798L20.0621 65.2044L18.1891 64.8573L20.0541 64.4011L20.4806 62.5348L20.9085 64.4011L22.7735 64.8586Z" fill="#007AC4"/>
<path d="M101.383 134.866C100.683 134.866 100.683 135.951 101.383 135.951C102.082 135.951 102.084 134.866 101.383 134.866Z" fill="#007AC4"/>
<path d="M15.0027 36.4008C14.3029 36.4008 14.3029 37.4867 15.0027 37.4867C15.701 37.4881 15.7024 36.4008 15.0027 36.4008Z" fill="#007AC4"/>
<path d="M118.353 137.927C117.654 137.927 117.654 139.013 118.353 139.013C119.052 139.013 119.053 137.927 118.353 137.927Z" fill="#007AC4"/>
<path d="M63.327 53.0793C62.6286 53.0793 62.6273 54.1652 63.327 54.1652C64.0254 54.1666 64.0267 53.0793 63.327 53.0793Z" fill="#007AC4"/>
<path d="M13.0395 74.96C12.3398 74.96 12.3398 76.0458 13.0395 76.0458C13.7378 76.0458 13.7392 74.96 13.0395 74.96Z" fill="#007AC4"/>
<path d="M0.370878 69.0367C-0.122953 69.0367 -0.124298 69.805 0.370878 69.805C0.864708 69.805 0.866054 69.0367 0.370878 69.0367Z" fill="#007AC4"/>
<path d="M104.032 10.6005C103.539 10.6005 103.537 11.3689 104.032 11.3689C104.526 11.3689 104.528 10.6005 104.032 10.6005Z" fill="#007AC4"/>
<path d="M50.3918 142.161C49.898 142.161 49.8967 142.93 50.3918 142.93C50.8857 142.93 50.887 142.161 50.3918 142.161Z" fill="#007AC4"/>
<path d="M38.3797 135.097C37.0395 135.097 37.0368 137.18 38.3797 137.18C39.7199 137.18 39.7226 135.097 38.3797 135.097Z" fill="#007AC4"/>
</svg>
