<svg width="25" height="25" viewBox="0 0 25 25" fill="none" xmlns="http://www.w3.org/2000/svg">
<g clip-path="url(#clip0_165_839)">
<path fill-rule="evenodd" clip-rule="evenodd" d="M18.2803 17.8726L16.3333 22.8665L9.15553 22.7705L7.16985 17.8706C8.8768 14.8081 10.6102 11.0719 11.5013 7.8032L12.4474 7.90528L12.4107 16.713C12.2078 16.7896 12.0388 16.9363 11.934 17.1267C11.8291 17.3172 11.7954 17.5389 11.8387 17.752C11.8821 17.9652 11.9998 18.1559 12.1707 18.2898C12.3415 18.4237 12.5543 18.4922 12.7709 18.4828C12.9875 18.4735 13.1937 18.3869 13.3525 18.2388C13.5112 18.0906 13.6122 17.8905 13.6372 17.6744C13.6621 17.4583 13.6095 17.2403 13.4888 17.0596C13.3681 16.8789 13.1871 16.7473 12.9784 16.6885L13.0089 7.96245L14.0912 7.91345C14.8847 11.2087 16.6018 14.9326 18.2803 17.8767V17.8726ZM10.8686 1.52588e-05H14.6202C14.6861 1.47124e-05 14.7514 0.013073 14.8122 0.0384408C14.8731 0.0638086 14.9283 0.100986 14.9748 0.147841C15.0213 0.194695 15.0582 0.250303 15.0832 0.311475C15.1082 0.372646 15.121 0.438175 15.1207 0.504303V1.72929H21.037C21.1383 1.44035 21.3031 1.17798 21.5192 0.961632C21.7082 0.771807 21.9326 0.621217 22.1795 0.518472C22.4265 0.415728 22.6913 0.362844 22.9586 0.362844C23.226 0.362844 23.4907 0.415728 23.7377 0.518472C23.9847 0.621217 24.2091 0.771807 24.398 0.961632C24.5872 1.15125 24.7373 1.37642 24.8397 1.62427C24.942 1.87212 24.9947 2.13779 24.9947 2.4061C24.9947 2.6744 24.942 2.94008 24.8397 3.18793C24.7373 3.43578 24.5872 3.66095 24.398 3.85057C24.209 4.04101 23.9844 4.19211 23.737 4.29522C23.4897 4.39833 23.2244 4.4514 22.9566 4.4514C22.6887 4.4514 22.4235 4.39833 22.1762 4.29522C21.9288 4.19211 21.7042 4.04101 21.5152 3.85057L21.4785 3.80973C21.2798 3.60152 21.1279 3.35298 21.033 3.08086H17.9812C18.967 3.65618 19.859 4.37985 20.6261 5.22664C22.1546 6.91743 23.166 9.01392 23.5395 11.2658H24.3533C24.5152 11.2658 24.6704 11.3304 24.7849 11.4452C24.8993 11.5601 24.9636 11.7159 24.9636 11.8783V14.6366C24.9636 14.799 24.8993 14.9548 24.7849 15.0697C24.6704 15.1846 24.5152 15.2491 24.3533 15.2491H21.6535C21.4916 15.2491 21.3364 15.1846 21.2219 15.0697C21.1074 14.9548 21.0431 14.799 21.0431 14.6366V11.8783C21.0431 11.7159 21.1074 11.5601 21.2219 11.4452C21.3364 11.3304 21.4916 11.2658 21.6535 11.2658H22.2822C21.9198 9.33091 21.0304 7.53453 19.7126 6.07596C18.4831 4.70931 16.8899 3.72394 15.1207 3.23603V4.31402C15.1207 4.44741 15.068 4.57537 14.9742 4.66989C14.8804 4.7644 14.7531 4.81777 14.6202 4.81831H10.8686C10.7372 4.81512 10.6123 4.76065 10.5204 4.66648C10.4284 4.5723 10.3767 4.44586 10.3762 4.31402V3.23807C8.56105 3.74113 6.93361 4.7693 5.69687 6.19438C4.43564 7.63542 3.58085 9.38835 3.22088 11.272H3.83123C3.99311 11.272 4.14835 11.3365 4.26281 11.4514C4.37728 11.5662 4.44158 11.722 4.44158 11.8845V14.6366C4.44158 14.799 4.37728 14.9548 4.26281 15.0697C4.14835 15.1846 3.99311 15.2491 3.83123 15.2491H1.1172C0.955326 15.2491 0.80008 15.1846 0.685617 15.0697C0.571154 14.9548 0.506849 14.799 0.506849 14.6366V11.8783C0.506849 11.7159 0.571154 11.5601 0.685617 11.4452C0.80008 11.3304 0.955326 11.2658 1.1172 11.2658H1.95135C2.32628 9.07639 3.29726 7.03364 4.75693 5.36343C5.55173 4.45911 6.48757 3.6903 7.52793 3.08699H3.96347C3.86189 3.3752 3.69711 3.63685 3.4813 3.85261C3.10056 4.23403 2.58478 4.4486 2.04679 4.44936C1.50881 4.45013 0.992422 4.23703 0.610609 3.85669C0.421448 3.66708 0.271385 3.44191 0.169 3.19405C0.0666151 2.9462 0.013916 2.68053 0.013916 2.41222C0.013916 2.14392 0.0666151 1.87825 0.169 1.63039C0.271385 1.38254 0.421448 1.15737 0.610609 0.967757C0.79956 0.777932 1.02394 0.627342 1.27093 0.524597C1.51791 0.421853 1.78266 0.368969 2.05002 0.368969C2.31739 0.368969 2.58213 0.421853 2.82912 0.524597C3.0761 0.627342 3.30048 0.777932 3.48943 0.967757C3.70734 1.18381 3.87299 1.44713 3.97365 1.73746H10.3762V0.512469C10.3741 0.379066 10.4246 0.250233 10.5169 0.154184C10.6092 0.0581345 10.7357 0.00269815 10.8686 1.52588e-05ZM16.1583 25H9.19622V23.6076H16.1624V25H16.1583Z" fill="#FF9B5C"/>
</g>
<defs>
<clipPath id="clip0_165_839">
<rect width="25" height="25" fill="white"/>
</clipPath>
</defs>
</svg>
