<svg width="32" height="26" viewBox="0 0 32 26" fill="none" xmlns="http://www.w3.org/2000/svg">
<g clip-path="url(#clip0_165_845)">
<path d="M11.5115 3.28665H7.1086L0 12.6376L7.1086 21.9886H11.5115L4.40288 12.6376L11.5115 3.28665ZM19.9435 3.28665H24.3464L31.455 12.6376L24.3464 21.9886H19.9435L27.0521 12.6376L19.9435 3.28665ZM17.9622 0.0100876L19.4878 0.365901C19.7285 0.422217 19.8769 0.662839 19.8232 0.903462L14.0636 25.6543C14.0073 25.8923 13.7667 26.0434 13.526 25.9896L12.003 25.6338C11.7623 25.5775 11.6139 25.3369 11.6676 25.0962L17.4272 0.345423C17.4835 0.10736 17.7241 -0.0436685 17.9622 0.0100876Z" fill="#99BB4E" fill-opacity="0.976471"/>
</g>
<defs>
<clipPath id="clip0_165_845">
<rect width="31.455" height="26" fill="white"/>
</clipPath>
</defs>
</svg>
