<svg width="25" height="25" viewBox="0 0 25 25" fill="none" xmlns="http://www.w3.org/2000/svg">
<g clip-path="url(#clip0_165_852)">
<path fill-rule="evenodd" clip-rule="evenodd" d="M21.2105 1.22122L24.1076 4.11831C24.4964 4.50714 24.4964 5.14378 24.1076 5.53462L21.8854 7.7568L17.572 3.44541L19.7962 1.22122C20.1851 0.83239 20.8217 0.83239 21.2105 1.22122ZM6.22543 3.40512L10.9196 10.0958L16.7279 4.28754L21.0393 8.60094L14.4775 15.1647L17.5458 19.5366L15.4325 21.0657L12.2009 17.4433L7.46646 22.1778C7.07763 22.5666 6.441 22.5666 6.05217 22.1778L3.15306 19.2807C2.76423 18.8919 2.76423 18.2552 3.15306 17.8644L8.13332 12.8841L1.21898 5.1337C-1.90577 1.58789 1.41642 -3.45079 6.22543 3.40512ZM1.80323 19.1074L6.13477 23.437L1.21495 24.2489L1.80323 19.1074ZM17.018 21.0476C18.7244 19.7864 19.9252 19.9133 20.6001 21.3598C20.7592 21.7023 21.2448 23.169 22.244 23.9708C23.2252 24.7586 24.7583 24.8674 24.7583 24.9157C22.3569 25.1393 12.4971 25.2199 17.018 21.0476Z" fill="#96C5D9"/>
</g>
<defs>
<clipPath id="clip0_165_852">
<rect width="24.7562" height="25" fill="white"/>
</clipPath>
</defs>
</svg>
