<svg width="27" height="22" viewBox="0 0 27 22" fill="none" xmlns="http://www.w3.org/2000/svg">
<path d="M14.4376 11.9475H12.4508C12.4179 11.9475 12.3917 11.9606 12.3698 11.9803C12.3479 12.0022 12.337 12.0306 12.337 12.0613V16.2495C12.337 16.2823 12.3501 16.3085 12.3698 16.3304C12.3917 16.3523 12.4201 16.3632 12.4508 16.3632H14.4354C14.4683 16.3632 14.4945 16.3501 14.5164 16.3304C14.5383 16.3085 14.5492 16.2801 14.5492 16.2495V12.0613C14.5492 12.0284 14.5361 12.0022 14.5164 11.9803C14.4967 11.9562 14.4683 11.9475 14.4376 11.9475ZM1.52735 3.05689H8.41794V1.08096C8.41794 0.781182 8.54048 0.512035 8.73523 0.317287C8.93217 0.122538 9.2035 0 9.49891 0H17.3895C17.6893 0 17.9562 0.122538 18.1532 0.317287C18.3479 0.512035 18.4705 0.785558 18.4705 1.08096V3.05689H25.361C25.7834 3.05689 26.1641 3.22976 26.4376 3.50766C26.7155 3.78556 26.8884 4.1663 26.8884 4.58425V8.27352C25.1619 9.45733 23.3807 10.4661 21.5449 11.2888C19.698 12.116 17.7943 12.7571 15.8249 13.1991V11.7243C15.8249 11.3873 15.6871 11.0766 15.4661 10.8534C15.2451 10.6324 14.9344 10.4945 14.5952 10.4945H12.291C11.954 10.4945 11.6433 10.6324 11.4201 10.8534C11.1991 11.0744 11.0613 11.3851 11.0613 11.7243V13.1663C9.14442 12.7265 7.28665 12.0963 5.48578 11.2888C3.59956 10.4442 1.77243 9.40044 0 8.17505V4.58425C0 4.16193 0.172867 3.78118 0.450766 3.50766C0.726477 3.22976 1.10941 3.05689 1.52735 3.05689ZM26.8884 10.4617V20.4748C26.8884 20.8972 26.7155 21.2779 26.4376 21.5514C26.1597 21.8293 25.779 22.0022 25.361 22.0022H1.52735C1.10503 22.0022 0.724289 21.8293 0.450766 21.5514C0.172867 21.2735 0 20.8928 0 20.4748V10.3698C1.50766 11.337 3.05908 12.1816 4.65427 12.8972C6.71335 13.8206 8.84902 14.5274 11.0635 15V16.5864C11.0635 16.9234 11.2013 17.2341 11.4223 17.4573C11.6433 17.6783 11.9562 17.8162 12.2932 17.8162H14.5974C14.9344 17.8162 15.2451 17.6783 15.4683 17.4573C15.6893 17.2363 15.8271 16.9256 15.8271 16.5864V14.9234L15.8512 15.0241C18.1072 14.5492 20.2823 13.8359 22.3786 12.895C23.9234 12.2035 25.4267 11.3895 26.8884 10.4617ZM16.5667 1.47265H10.326C10.2888 1.47265 10.2582 1.48578 10.2298 1.51422C10.2079 1.53611 10.1882 1.5733 10.1882 1.6105V3.01532H16.698V1.6105C16.698 1.5733 16.6849 1.54267 16.6565 1.51422C16.6346 1.49234 16.5974 1.47265 16.5602 1.47265H16.5667Z" fill="#F9CF7D"/>
</svg>
