<svg width="25" height="23" viewBox="0 0 25 23" fill="none" xmlns="http://www.w3.org/2000/svg">
<g clip-path="url(#clip0_45_232)">
<path fill-rule="evenodd" clip-rule="evenodd" d="M-5.12697e-06 13.6625C-0.0121317 12.4842 0.43655 11.4393 1.48954 11.0978L1.51581 11.0533C1.5466 10.9928 1.58763 10.9381 1.63708 10.8916C1.70081 10.8449 1.77281 10.8106 1.84929 10.7906L1.9079 10.7683C7.01318 8.89277 9.3152 6.07739 10.639 4.16544C10.639 6.04304 11.1099 8.49058 11.9386 10.8593C12.7894 13.2846 14.0183 15.6513 15.5179 17.2783C13.9556 16.8336 11.9952 16.2677 8.80588 16.7023C8.67233 17.0276 8.59576 17.3736 8.57952 17.7249C8.569 17.8345 8.58155 17.9451 8.61636 18.0495C8.65117 18.1539 8.70747 18.2499 8.78163 18.3313L8.83013 18.3757C9.03224 18.5596 9.13128 18.6506 9.17574 18.8143C9.20547 19.0311 9.19657 19.2514 9.14947 19.4651L9.13128 19.6005C9.0565 20.1927 9.34349 20.3139 9.62847 20.4352C9.91344 20.5565 10.1358 20.6535 10.251 20.9789C10.2591 21.0052 10.2591 21.0334 10.251 21.0597C10.1337 21.6661 9.74569 21.9975 9.35562 22.331C9.26063 22.4139 9.16361 22.4967 9.08075 22.5755H9.06862C8.27636 23.2102 7.74077 23.0404 7.33453 22.5311C7.0152 22.1269 6.79288 21.5205 6.58673 20.9526L6.4978 20.706C6.16395 19.7076 5.89393 18.6889 5.68936 17.6562L5.62064 17.3531C5.44481 17.4016 5.26089 17.4561 5.06889 17.5127C4.82636 17.5835 4.58383 17.6603 4.34332 17.7371L4.26651 17.7654C4.22661 17.7916 4.17988 17.8056 4.13211 17.8056C4.08434 17.8056 4.03762 17.7916 3.99771 17.7654C2.7224 18.1898 1.65729 17.5835 0.945865 16.5729C0.645527 16.1464 0.413042 15.676 0.256673 15.1784C0.0965141 14.6886 0.0100103 14.1777 -5.12697e-06 13.6625ZM17.7472 3.26606C17.6833 3.31478 17.6104 3.35031 17.5326 3.3706C17.4549 3.39089 17.3739 3.39553 17.2944 3.38425C17.2148 3.37296 17.1383 3.34598 17.0693 3.30488C17.0002 3.26377 16.9401 3.20935 16.8923 3.14479L16.8781 3.1266C16.7855 2.99646 16.747 2.83544 16.7707 2.67746C16.7945 2.51949 16.8786 2.37691 17.0054 2.27977C17.9877 1.55419 18.9659 0.82256 19.9481 0.113158C20.0777 0.0193698 20.2383 -0.0211408 20.3968 -2.33101e-05C20.5586 0.0247903 20.704 0.112732 20.801 0.244529V0.254634C20.8943 0.385064 20.9321 0.547116 20.9061 0.705337C20.8945 0.78565 20.8669 0.862811 20.8249 0.932244C20.7828 1.00168 20.7273 1.06197 20.6616 1.10955L17.7472 3.26606ZM20.9385 14.9277C20.8585 14.9261 20.7797 14.9086 20.7065 14.8764C20.6333 14.8441 20.5672 14.7977 20.512 14.7398C20.4563 14.6826 20.4125 14.6149 20.383 14.5407C20.3535 14.4664 20.339 14.3871 20.3402 14.3073V14.2931C20.3402 14.2123 20.3564 14.1323 20.3877 14.0578C20.4191 13.9833 20.465 13.9158 20.5228 13.8593C20.5806 13.8028 20.6491 13.7585 20.7243 13.7288C20.7995 13.6992 20.8799 13.6849 20.9607 13.6868C22.046 13.6868 23.1496 13.7272 24.2349 13.7474C24.398 13.7511 24.5531 13.819 24.6666 13.9363C24.7801 14.0535 24.8428 14.2108 24.8412 14.374C24.838 14.5379 24.7705 14.6939 24.6532 14.8085C24.5957 14.8651 24.5275 14.9096 24.4525 14.9394C24.3775 14.9693 24.2974 14.9838 24.2167 14.9823L20.9445 14.9197L20.9385 14.9277ZM21.0335 11.7526C20.9533 11.7595 20.8726 11.7504 20.796 11.7258C20.7194 11.7012 20.6485 11.6616 20.5873 11.6093C20.5262 11.557 20.4761 11.493 20.4399 11.4212C20.4037 11.3493 20.3822 11.271 20.3766 11.1908V11.1766C20.3675 11.0165 20.4207 10.8592 20.5251 10.7375C20.6295 10.6158 20.7769 10.5392 20.9365 10.5238C21.947 10.4429 22.9757 10.356 23.9883 10.2914C24.1501 10.2813 24.3094 10.3352 24.4319 10.4414C24.5543 10.5476 24.6302 10.6977 24.6431 10.8593C24.6495 10.9398 24.6398 11.0208 24.6144 11.0975C24.5891 11.1742 24.5487 11.2451 24.4956 11.306C24.389 11.4298 24.238 11.5067 24.0752 11.5202C23.095 11.6172 22.0177 11.698 21.0335 11.7506V11.7526ZM20.5969 8.80384C20.5188 8.82604 20.437 8.83261 20.3563 8.82318C20.2756 8.81376 20.1975 8.78853 20.1266 8.74892C20.0556 8.70932 19.9932 8.65612 19.9428 8.59237C19.8924 8.52863 19.8551 8.45557 19.8329 8.37739C19.8108 8.30016 19.8042 8.21929 19.8136 8.13949C19.8229 8.05969 19.8481 7.98255 19.8875 7.91254C19.9675 7.76962 20.1003 7.6637 20.2574 7.61746C21.3104 7.34057 22.3593 7.00103 23.4123 6.71808C23.4895 6.69592 23.5704 6.68933 23.6502 6.6987C23.73 6.70807 23.8071 6.73321 23.8771 6.77265C24.0184 6.85127 24.1234 6.98173 24.1702 7.13645C24.2145 7.29402 24.1948 7.46274 24.1153 7.60583C24.0358 7.74893 23.903 7.85481 23.7458 7.90042L20.5949 8.7998L20.5969 8.80384ZM19.3236 5.90964C19.2512 5.94574 19.1723 5.96721 19.0916 5.97283C19.0108 5.97845 18.9297 5.96811 18.853 5.9424C18.7762 5.91669 18.7053 5.87611 18.6442 5.82298C18.5831 5.76985 18.5331 5.70521 18.497 5.63275C18.4601 5.56055 18.438 5.48167 18.4321 5.40078C18.4262 5.31989 18.4366 5.23864 18.4626 5.16184C18.5149 5.00667 18.6259 4.87821 18.7719 4.80411L21.8035 3.29031C21.8757 3.25282 21.9547 3.23024 22.0358 3.22391C22.1169 3.21758 22.1984 3.22764 22.2755 3.25347C22.3527 3.27931 22.4238 3.3204 22.4847 3.37429C22.5456 3.42819 22.5951 3.4938 22.6301 3.5672C22.6667 3.63954 22.6885 3.71849 22.694 3.79938C22.6996 3.88027 22.6888 3.96145 22.6625 4.03811C22.6102 4.19274 22.4991 4.32054 22.3532 4.39383L19.3216 5.90964H19.3236ZM11.8739 2.42528C11.9002 2.39497 11.9285 2.36667 11.9547 2.3404C12.0377 2.24553 12.1396 2.16911 12.2539 2.11606C12.3843 2.07234 12.5245 2.06674 12.6581 2.09989C13.1128 2.17265 13.5999 2.50411 14.0951 3.0114C15.3077 4.26246 16.5851 6.64936 17.4945 9.15754C18.404 11.6657 18.9497 14.283 18.6769 15.9828C18.5738 16.6154 18.3596 17.1267 18.0079 17.4642L17.9897 17.4784C17.8418 17.5846 17.6707 17.6539 17.4905 17.6805C17.4746 17.6659 17.4577 17.6524 17.44 17.64C16.2293 16.775 15.1582 15.34 14.2568 13.6524C14.4872 13.6969 14.7822 13.5251 15.0652 13.2321C16.48 11.7405 15.7847 9.13328 14.0203 8.52898C13.3008 8.28645 12.5853 8.28644 12.3024 8.4259L12.2721 8.44207C11.6253 5.94602 11.4414 3.63794 11.8739 2.42528Z" fill="#FF9B5C"/>
</g>
<defs>
<clipPath id="clip0_45_232">
<rect width="24.8351" height="23" fill="white"/>
</clipPath>
</defs>
</svg>
