<svg width="26" height="26" viewBox="0 0 26 26" fill="none" xmlns="http://www.w3.org/2000/svg">
<path d="M13 2.59998C15.7582 2.59998 18.4035 3.69569 20.3539 5.64606C22.3043 7.59644 23.4 10.2417 23.4 13C23.4 15.7582 22.3043 18.4035 20.3539 20.3539C18.4035 22.3043 15.7582 23.4 13 23.4C10.2417 23.4 7.59647 22.3043 5.64609 20.3539C3.69571 18.4035 2.6 15.7582 2.6 13C2.6 10.2417 3.69571 7.59644 5.64609 5.64606C7.59647 3.69569 10.2417 2.59998 13 2.59998ZM13 3.89998C11.805 3.89998 10.6216 4.13535 9.51758 4.59267C8.41352 5.04999 7.41034 5.72029 6.56533 6.5653C5.72031 7.41032 5.05001 8.41349 4.59269 9.51756C4.13538 10.6216 3.9 11.8049 3.9 13C3.9 14.195 4.13538 15.3783 4.59269 16.4824C5.05001 17.5865 5.72031 18.5896 6.56533 19.4346C7.41034 20.2797 8.41352 20.95 9.51758 21.4073C10.6216 21.8646 11.805 22.1 13 22.1C15.4135 22.1 17.7281 21.1412 19.4347 19.4346C21.1413 17.7281 22.1 15.4134 22.1 13C22.1 10.5865 21.1413 8.27188 19.4347 6.5653C17.7281 4.85872 15.4135 3.89998 13 3.89998ZM9.3015 16.1551C10.2412 17.1011 11.5075 17.6512 12.8403 17.6923C14.1731 17.7334 15.4709 17.2624 16.4671 16.3761L16.6985 16.1551C16.8127 16.039 16.9663 15.97 17.1289 15.9618C17.2916 15.9536 17.4514 16.0067 17.5767 16.1106C17.7021 16.2146 17.7838 16.3618 17.8058 16.5231C17.8279 16.6844 17.7885 16.8482 17.6956 16.9819L17.6215 17.0729L17.5916 17.1015C16.9847 17.7045 16.265 18.1821 15.4735 18.5069C14.6821 18.8318 13.8344 18.9976 12.9789 18.9948C12.1233 18.992 11.2767 18.8207 10.4874 18.4907C9.69805 18.1608 8.98145 17.6785 8.3785 17.0716C8.25696 16.9492 8.18903 16.7835 8.18964 16.611C8.19025 16.4385 8.25935 16.2734 8.38175 16.1518C8.50415 16.0303 8.66981 15.9624 8.8423 15.963C9.01478 15.9636 9.17996 16.0327 9.3015 16.1551ZM16.25 9.74998C16.5948 9.74998 16.9254 9.88694 17.1692 10.1307C17.413 10.3745 17.55 10.7052 17.55 11.05C17.55 11.3948 17.413 11.7254 17.1692 11.9692C16.9254 12.213 16.5948 12.35 16.25 12.35C15.9052 12.35 15.5746 12.213 15.3308 11.9692C15.087 11.7254 14.95 11.3948 14.95 11.05C14.95 10.7052 15.087 10.3745 15.3308 10.1307C15.5746 9.88694 15.9052 9.74998 16.25 9.74998ZM9.75 9.74998C10.0948 9.74998 10.4254 9.88694 10.6692 10.1307C10.913 10.3745 11.05 10.7052 11.05 11.05C11.05 11.3948 10.913 11.7254 10.6692 11.9692C10.4254 12.213 10.0948 12.35 9.75 12.35C9.40522 12.35 9.07456 12.213 8.83076 11.9692C8.58696 11.7254 8.45 11.3948 8.45 11.05C8.45 10.7052 8.58696 10.3745 8.83076 10.1307C9.07456 9.88694 9.40522 9.74998 9.75 9.74998Z" fill="#989898"/>
</svg>
