<svg width="15" height="14" viewBox="0 0 15 14" fill="none" xmlns="http://www.w3.org/2000/svg">
<path d="M4.83146 12.8334H3.08146C2.77204 12.8334 2.4753 12.7104 2.2565 12.4916C2.03771 12.2729 1.91479 11.9761 1.91479 11.6667V7.58335C1.91479 7.27393 2.03771 6.97719 2.2565 6.7584C2.4753 6.5396 2.77204 6.41669 3.08146 6.41669H4.83146M8.91479 5.25002V2.91669C8.91479 2.45256 8.73042 2.00744 8.40223 1.67925C8.07404 1.35106 7.62892 1.16669 7.16479 1.16669L4.83146 6.41669V12.8334H11.4115C11.6928 12.8365 11.9658 12.7379 12.1802 12.5557C12.3946 12.3735 12.5359 12.1199 12.5781 11.8417L13.3831 6.59169C13.4085 6.42448 13.3972 6.25375 13.3501 6.09133C13.3029 5.92892 13.221 5.77869 13.11 5.65107C12.9991 5.52345 12.8617 5.42148 12.7074 5.35223C12.5531 5.28298 12.3856 5.24811 12.2165 5.25002H8.91479Z" stroke="#777777" stroke-linecap="round" stroke-linejoin="round"/>
</svg>
