<svg width="31" height="31" viewBox="0 0 31 31" fill="none" xmlns="http://www.w3.org/2000/svg">
<path d="M22.023 26.195C20.7571 27.4221 19.375 27.2283 18.0446 26.6471C16.6367 26.0529 15.345 26.0271 13.8596 26.6471C11.9996 27.4479 11.018 27.2154 9.90713 26.195C3.6038 19.6979 4.5338 9.80376 11.6896 9.44209C13.4334 9.53251 14.6475 10.3979 15.668 10.4754C17.1921 10.1654 18.6517 9.27417 20.2792 9.39042C22.2296 9.54542 23.7021 10.3204 24.6709 11.7154C20.6409 14.1308 21.5967 19.4396 25.2909 20.925C24.5546 22.8625 23.5988 24.7871 22.01 26.2079L22.023 26.195ZM15.5388 9.36459C15.345 6.48417 17.683 4.10751 20.3696 3.87501C20.7442 7.20751 17.3471 9.68751 15.5388 9.36459Z" fill="#313131"/>
</svg>
