<svg width="37" height="22" viewBox="0 0 37 22" fill="none" xmlns="http://www.w3.org/2000/svg">
<g clip-path="url(#clip0_54_2324)">
<path fill-rule="evenodd" clip-rule="evenodd" d="M4.0258 0H37V18.2983H34.6694L34.832 4.87191V4.71232C34.832 4.14265 34.6059 3.59627 34.2034 3.19317C33.8009 2.79008 33.2548 2.56322 32.6851 2.56242H4.01978V0H4.0258ZM0 4.34196H32.9742V21.4569H0V4.34196Z" fill="#427D2A"/>
<path fill-rule="evenodd" clip-rule="evenodd" d="M27.6177 7.00076C27.6304 7.63874 27.8873 8.24756 28.3354 8.70184C28.7835 9.15612 29.3888 9.42129 30.0265 9.44274V16.2146C29.6852 16.2149 29.3473 16.2835 29.0328 16.4162C28.7182 16.5489 28.4334 16.7431 28.195 16.9874C27.9565 17.2317 27.7693 17.5212 27.6443 17.8389C27.5194 18.1565 27.4591 18.496 27.4671 18.8373H5.54655C5.55647 18.1782 5.30809 17.5414 4.85455 17.0631C4.401 16.5848 3.7783 16.303 3.11963 16.2779V9.50597C3.79182 9.5132 4.43942 9.2535 4.92037 8.78385C5.40132 8.31419 5.67633 7.67293 5.68506 7.00076H27.6177Z" fill="#87CC71"/>
<path fill-rule="evenodd" clip-rule="evenodd" d="M12.1287 10.593C12.5979 9.71199 13.3179 8.98996 14.1975 8.51818C15.0772 8.04641 16.0769 7.84608 17.0704 7.94254C18.0639 8.03899 19.0065 8.4279 19.7789 9.06007C20.5514 9.69224 21.119 10.5393 21.4101 11.4941C21.7011 12.4489 21.7024 13.4685 21.4139 14.4241C21.1254 15.3796 20.56 16.2282 19.7893 16.8624C19.0185 17.4966 18.077 17.888 17.0837 17.9871C16.0905 18.0862 15.0902 17.8885 14.2093 17.4191C13.6243 17.1077 13.1063 16.6841 12.6851 16.1725C12.2638 15.6608 11.9475 15.0712 11.7543 14.4372C11.5611 13.8033 11.4947 13.1375 11.5589 12.4778C11.6231 11.8182 11.8168 11.1777 12.1287 10.593Z" fill="#427D2A"/>
<path d="M16.6272 16.6753C16.5653 16.6761 16.5038 16.6645 16.4465 16.6412C16.3891 16.6179 16.337 16.5833 16.2932 16.5395C16.2494 16.4958 16.2149 16.4437 16.1915 16.3863C16.1682 16.3289 16.1566 16.2675 16.1574 16.2056V15.7479C15.8856 15.7326 15.6166 15.684 15.3565 15.6034C15.1556 15.5366 14.9602 15.4541 14.7723 15.3565C14.7081 15.3288 14.6507 15.2876 14.6039 15.2356C14.5571 15.1836 14.5221 15.1221 14.5013 15.0554C14.4656 14.9293 14.472 14.7951 14.5194 14.673C14.5664 14.5563 14.6557 14.4617 14.7693 14.408C14.8367 14.3818 14.9093 14.3715 14.9813 14.3777C15.0533 14.384 15.123 14.4067 15.1849 14.4441C15.352 14.5287 15.5263 14.5983 15.7058 14.6519C15.9721 14.7272 16.2481 14.7628 16.5248 14.7573C16.7904 14.7804 17.0566 14.7204 17.2866 14.5856C17.3568 14.5374 17.4142 14.4726 17.4535 14.397C17.4929 14.3214 17.5131 14.2373 17.5124 14.152C17.5137 14.0859 17.5003 14.0203 17.4732 13.9599C17.4462 13.8995 17.4061 13.8458 17.3558 13.8028C17.1907 13.6824 16.9983 13.6048 16.7958 13.5769L15.9406 13.3902C14.9952 13.1895 14.5224 12.6877 14.5224 11.8847C14.5184 11.6795 14.5558 11.4757 14.6324 11.2853C14.709 11.0949 14.8231 10.9219 14.9681 10.7766C15.2919 10.4628 15.7097 10.264 16.1574 10.2106V9.72276C16.1564 9.66152 16.1676 9.60068 16.1903 9.54381C16.2131 9.48694 16.2469 9.43517 16.2899 9.39155C16.3339 9.34713 16.3865 9.31219 16.4445 9.28889C16.5025 9.26558 16.5647 9.25441 16.6272 9.25605C16.6878 9.25462 16.7481 9.26594 16.8041 9.28928C16.8602 9.31262 16.9107 9.34746 16.9524 9.39155C16.9954 9.43517 17.0292 9.48694 17.052 9.54381C17.0747 9.60068 17.0859 9.66152 17.0848 9.72276V10.1895C17.2895 10.2165 17.4912 10.2629 17.6871 10.328C17.8792 10.3905 18.0617 10.4797 18.2291 10.593C18.2853 10.6254 18.3345 10.6687 18.3738 10.7204C18.4131 10.7721 18.4417 10.8312 18.4579 10.8941C18.4854 11.0103 18.4727 11.1323 18.4218 11.2403C18.3974 11.2937 18.3624 11.3415 18.3189 11.3809C18.2754 11.4202 18.2244 11.4503 18.1688 11.4692C18.098 11.4897 18.0236 11.4952 17.9505 11.4854C17.8774 11.4755 17.8072 11.4505 17.7443 11.412C17.5977 11.3399 17.4444 11.2824 17.2866 11.2403C17.0898 11.1905 16.8873 11.1673 16.6844 11.1711C16.4346 11.1559 16.1866 11.2214 15.9768 11.3578C15.8972 11.4102 15.832 11.4818 15.7873 11.566C15.7426 11.6502 15.7197 11.7442 15.7208 11.8395C15.719 11.9048 15.7316 11.9696 15.7576 12.0294C15.7836 12.0892 15.8225 12.1426 15.8714 12.1858C16.029 12.3011 16.2116 12.3774 16.4043 12.4086L17.2685 12.5953C17.6784 12.6612 18.0597 12.8466 18.3646 13.1283C18.4827 13.2549 18.5747 13.4036 18.6352 13.5658C18.6956 13.7281 18.7234 13.9007 18.7168 14.0738C18.7234 14.2766 18.6871 14.4785 18.6103 14.6663C18.5335 14.8541 18.418 15.0236 18.2712 15.1638C17.9472 15.4612 17.5411 15.6542 17.1059 15.7178V16.2056C17.1071 16.2669 17.096 16.3277 17.0733 16.3846C17.0505 16.4415 17.0166 16.4933 16.9734 16.5368C16.9319 16.5813 16.8815 16.6166 16.8255 16.6404C16.7695 16.6643 16.7091 16.6762 16.6482 16.6753H16.6272Z" fill="white"/>
</g>
<defs>
<clipPath id="clip0_54_2324">
<rect width="37" height="21.4569" fill="white"/>
</clipPath>
</defs>
</svg>
