<svg width="28" height="20" viewBox="0 0 28 20" fill="none" xmlns="http://www.w3.org/2000/svg">
<path d="M26.6078 18.9874C26.6078 18.7393 26.6075 18.491 26.6071 18.2428V18.241C26.6056 17.3094 26.6024 16.3778 26.6084 15.4463C26.6202 13.6157 26.6447 11.7853 26.6558 9.95457L26.6564 9.84938L26.657 9.7467C26.6593 9.33201 26.6323 8.91638 26.5962 8.50163C26.5691 8.1897 26.4497 8.10695 25.9767 8.05351C25.7686 8.03001 25.5583 8.00957 25.3478 7.99582C25.2229 7.98753 25.0978 7.98194 24.9726 7.97907H24.9716C24.8415 7.97626 24.7114 7.97357 24.5813 7.97101L24.5083 7.96957C24.3815 7.96707 24.2548 7.96469 24.128 7.96238L24.0713 7.96138C22.9659 7.94132 21.8605 7.92657 20.7552 7.90226C18.9542 7.8627 17.1534 7.81145 15.3525 7.76938C14.1516 7.74132 12.9506 7.71895 11.7497 7.69695C11.34 7.68945 10.93 7.69813 10.5206 7.68651C9.65685 7.66201 8.79335 7.63057 7.92991 7.59907C7.21291 7.57295 6.49635 7.53482 5.77916 7.51632C5.67156 7.51354 5.56395 7.51091 5.45635 7.50844H5.45616C5.29335 7.50469 5.13053 7.50126 4.96766 7.49832L4.94822 7.49794C4.87128 7.49657 4.79441 7.49532 4.71747 7.49413L4.6906 7.49376C4.61303 7.49263 4.53541 7.49157 4.45785 7.4907L4.44822 7.49057C4.37218 7.48971 4.29614 7.489 4.2201 7.48845L4.19841 7.48826C4.12428 7.48771 4.05016 7.48731 3.97603 7.48707L3.93666 7.48695C3.86372 7.48676 3.79085 7.48663 3.71791 7.4867L3.68272 7.48676C3.6066 7.48688 3.53053 7.48713 3.45447 7.48763C3.31091 7.48851 3.16703 7.50195 3.0241 7.52101C2.88116 7.54007 2.73922 7.56488 2.59947 7.58851C2.50985 7.6037 2.4336 7.62701 2.37153 7.65845C2.36591 7.66132 2.36035 7.66426 2.35497 7.66726C2.32438 7.68405 2.29602 7.70461 2.27053 7.72845C2.25498 7.74326 2.24099 7.75964 2.22878 7.77732C2.21986 7.79031 2.212 7.804 2.20528 7.81826C2.18923 7.85281 2.17964 7.89 2.17697 7.92801C2.17385 7.96714 2.17021 8.00623 2.16603 8.04526C2.15772 8.12338 2.1476 8.20144 2.13728 8.27944C2.1321 8.31844 2.12691 8.35744 2.12185 8.39651C2.11678 8.43551 2.11185 8.47451 2.10722 8.51357C2.09341 8.63063 2.0826 8.74776 2.0801 8.86513C2.079 8.9168 2.07807 8.96846 2.07728 9.02013L2.07678 9.05819C2.07622 9.09838 2.07566 9.13863 2.07528 9.17882L2.07497 9.21232C2.07453 9.25563 2.07422 9.29895 2.07397 9.34232L2.07385 9.36188C2.07041 9.96176 2.07941 10.5619 2.06685 11.1616C2.02741 13.0466 1.98235 14.9315 1.93778 16.8164V16.8176C1.92435 17.3851 1.91097 17.9525 1.89785 18.5199C1.89691 18.5603 1.89766 18.5981 1.90035 18.6334C1.90122 18.6452 1.90235 18.6567 1.90372 18.6679C1.90772 18.7017 1.91378 18.7331 1.9221 18.7623C1.93041 18.7914 1.94097 18.8184 1.9541 18.8434C1.96494 18.864 1.97771 18.8835 1.99222 18.9018C2.0126 18.9271 2.03666 18.95 2.06478 18.9706C2.07685 18.9794 2.08966 18.9878 2.10328 18.9958C2.11691 19.0038 2.13128 19.0115 2.14647 19.0188C2.17338 19.0316 2.20106 19.0427 2.22935 19.0521C2.35522 19.0948 2.52341 19.1213 2.74435 19.1394C2.76616 19.1412 2.7881 19.1422 2.81003 19.1429C2.83203 19.1438 2.85403 19.1443 2.87597 19.1451L2.87891 19.1452L3.12903 19.1545L3.21616 19.1578L3.38116 19.1641L3.48778 19.1683L3.5971 19.1725C4.10341 19.1922 4.60966 19.2124 5.11597 19.2307H5.1161C5.49647 19.2444 5.87685 19.257 6.25728 19.2674C8.79066 19.3364 11.3243 19.3959 13.8579 19.4593L13.858 19.4563C14.7515 19.4786 15.6449 19.5086 16.5384 19.5218C19.1013 19.5596 21.6642 19.5932 24.2272 19.6227C24.4357 19.6251 24.6442 19.6257 24.8527 19.6243C25.2002 19.6223 25.5475 19.6154 25.894 19.6053C25.9033 19.605 25.9124 19.6046 25.9215 19.6043L25.9283 19.6039L25.9532 19.6028L25.9552 19.6026C25.9659 19.602 25.9766 19.6013 25.9873 19.6006C25.9951 19.6 26.0028 19.5994 26.0104 19.5988L26.013 19.5986C26.0215 19.5978 26.03 19.5971 26.0383 19.5962L26.0427 19.5958L26.0652 19.5933L26.0675 19.593L26.092 19.5899L26.0945 19.5896L26.117 19.5863L26.1188 19.586C26.1268 19.5848 26.1348 19.5834 26.1427 19.582L26.143 19.5819C26.1508 19.5806 26.1584 19.5791 26.166 19.5776L26.1671 19.5774C26.1825 19.5743 26.1974 19.5709 26.2118 19.5674L26.2124 19.5673C26.227 19.5636 26.2411 19.5598 26.2547 19.5556L26.2549 19.5555C26.4585 19.4935 26.5607 19.3726 26.597 19.1808C26.6088 19.1171 26.6078 19.052 26.6078 18.9874Z" fill="#66CC99"/>
<path d="M23.1958 17.6957C23.3424 17.4312 23.5388 17.2138 23.7889 17.0437C24.0367 16.8752 24.3093 16.7663 24.606 16.7356C24.8064 16.7149 25.01 16.7152 25.2117 16.7223C25.2525 16.7237 25.2928 16.7271 25.3327 16.732C25.3307 16.203 25.3294 15.674 25.332 15.1451C25.3389 13.7651 25.3551 12.3853 25.363 11.0054C25.2047 11.0047 25.0467 10.9937 24.89 10.9634C24.525 10.8929 24.214 10.7194 23.9389 10.4724C23.6497 10.2127 23.4324 9.90493 23.3075 9.53706C23.2407 9.34056 23.2035 9.14624 23.1966 8.95431C22.1588 8.93449 21.1209 8.91999 20.0831 8.89693C18.4719 8.86118 16.8609 8.81574 15.2497 8.77787C14.1754 8.75262 13.101 8.73212 12.0266 8.71187C11.6601 8.70499 11.2934 8.71149 10.9271 8.70118C10.1544 8.67949 9.38186 8.65199 8.60942 8.62449C7.96799 8.60168 7.32686 8.56893 6.6853 8.55243C6.28505 8.54212 5.88449 8.53374 5.48411 8.52887C5.47396 8.63738 5.45441 8.7448 5.42567 8.84993C5.39324 8.96937 5.35168 9.08637 5.3143 9.20449C5.16149 9.52774 4.98318 9.83093 4.70718 10.0652C4.43349 10.2974 4.11824 10.4336 3.75799 10.4517C3.62986 10.4581 3.50168 10.4609 3.3738 10.4554C3.37505 10.8238 3.37805 11.1922 3.37049 11.5604C3.33886 13.0979 3.3023 14.6354 3.26611 16.1729C3.2928 16.1736 3.31943 16.1743 3.34605 16.1752C3.6173 16.1847 3.8688 16.2764 4.11024 16.3954C4.19968 16.4396 4.28693 16.4882 4.37524 16.5346C4.53193 16.6168 4.67336 16.7191 4.78593 16.8568C4.82836 16.9087 4.8683 16.9642 4.90018 17.023C4.98486 17.1793 5.08136 17.3321 5.14261 17.4976C5.22694 17.7236 5.26153 17.9653 5.24405 18.2059C5.87355 18.2299 6.50305 18.2532 7.13274 18.2702C9.39917 18.3317 11.6658 18.3851 13.9324 18.4418L13.9325 18.4393C14.7318 18.4593 15.5311 18.4857 16.3304 18.4981C18.5378 18.5324 20.7452 18.5631 22.9525 18.5912C22.9545 18.2862 23.0342 17.9874 23.1958 17.6957Z" fill="#339966"/>
<path d="M7.83622 13.7819C7.75947 13.9443 7.66991 14.0966 7.53122 14.2143C7.39372 14.331 7.23535 14.3994 7.05435 14.4085C6.93116 14.4147 6.80772 14.4143 6.68585 14.3907C6.50247 14.3554 6.34622 14.2682 6.2081 14.1441C6.06278 14.0137 5.95366 13.8591 5.89085 13.6742C5.79935 13.405 5.81778 13.1438 5.95678 12.8931C6.02865 12.7617 6.13078 12.6495 6.25472 12.5655C6.37922 12.4808 6.51616 12.4261 6.66522 12.4107C6.76585 12.4002 6.86816 12.4004 6.96947 12.404C7.10572 12.4087 7.2321 12.4548 7.35341 12.5146C7.39835 12.5368 7.44216 12.5612 7.48653 12.5846C7.56528 12.6259 7.63628 12.6772 7.69285 12.7464C7.71416 12.7725 7.73422 12.8004 7.75022 12.8299C7.79278 12.9084 7.84122 12.9852 7.87203 13.0683C7.93678 13.2431 7.94109 13.4236 7.89216 13.6039C7.87591 13.6638 7.85503 13.7226 7.83622 13.7819ZM22.7857 14.1559C22.7089 14.3182 22.6193 14.4706 22.4807 14.5882C22.3432 14.7049 22.1848 14.7733 22.0038 14.7824C21.8806 14.7886 21.7572 14.7882 21.6352 14.7647C21.4519 14.7293 21.2956 14.6421 21.1575 14.5181C21.0122 14.3876 20.903 14.233 20.8402 14.0482C20.7487 13.7789 20.7672 13.5177 20.9062 13.267C20.978 13.1357 21.0802 13.0234 21.2041 12.9394C21.3286 12.8547 21.4655 12.8001 21.6146 12.7846C21.7152 12.7742 21.8175 12.7744 21.9188 12.7779C22.0551 12.7827 22.1815 12.8287 22.3028 12.8886C22.3477 12.9107 22.3915 12.9352 22.4359 12.9585C22.5147 12.9998 22.5857 13.0512 22.6422 13.1204C22.6635 13.1464 22.6836 13.1743 22.6996 13.2039C22.7422 13.2824 22.7906 13.3591 22.8214 13.4422C22.8862 13.6171 22.8905 13.7975 22.8415 13.9779C22.8253 14.0377 22.8045 14.0965 22.7857 14.1559Z" fill="#66CC99"/>
<path d="M18.166 15.1383C17.8894 15.8026 17.4442 16.3998 16.8482 16.8417C15.4021 17.9138 13.2898 17.9149 11.8576 16.8159C11.8164 16.7841 11.7757 16.7515 11.7356 16.7184C9.62912 14.9677 9.64955 11.3697 12.1916 10.0303C13.8415 9.16099 16.1594 9.46575 17.4605 10.826C18.5788 11.9953 18.7567 13.7196 18.166 15.1383Z" fill="#66CC99"/>
<path d="M14.6518 16.0223C14.6483 16.1628 14.6452 16.3207 14.6401 16.4785C14.636 16.608 14.6188 16.6291 14.487 16.6257C14.3105 16.6211 14.1341 16.6091 13.9581 16.5959C13.8534 16.5881 13.827 16.556 13.8282 16.4468C13.8298 16.3024 13.8349 16.1581 13.8387 16.0059C13.7773 15.9893 13.7265 15.9743 13.675 15.9619C13.2683 15.8645 12.9711 15.6237 12.7622 15.2666C12.6711 15.1109 12.6446 14.9347 12.6034 14.7638C12.5826 14.6773 12.6181 14.6284 12.7063 14.6011C12.7494 14.5875 12.7943 14.5807 12.8395 14.5809C13.0115 14.5833 13.1834 14.5908 13.3554 14.5946C13.4355 14.5964 13.4745 14.6381 13.4997 14.712C13.5375 14.8229 13.5805 14.9328 13.6316 15.0382C13.7254 15.2316 13.8983 15.3179 14.0995 15.3454C14.3239 15.3762 14.5514 15.3495 14.7489 15.2455C15.2214 14.9968 15.2796 14.5353 14.9215 14.1554C14.7678 13.9924 14.5583 13.9056 14.3509 13.823C13.9768 13.6739 13.5994 13.5294 13.2629 13.3035C13.1392 13.2201 13.0253 13.123 12.9233 13.0141C12.6931 12.7679 12.6435 12.4711 12.7329 12.1536C12.8755 11.6468 13.2107 11.3348 13.7205 11.209C13.7861 11.1928 13.8529 11.1813 13.9333 11.1646C13.9376 11.0956 13.9431 11.0251 13.9459 10.9544C13.9493 10.8685 13.9496 10.7824 13.9527 10.6964C13.9561 10.6016 13.9803 10.5648 14.0683 10.5634C14.258 10.5604 14.4479 10.5666 14.6378 10.5715C14.7129 10.5734 14.7534 10.6216 14.7638 10.691C14.775 10.7669 14.7818 10.8439 14.7837 10.9206C14.7859 11.006 14.7804 11.0916 14.7781 11.182C14.8427 11.2024 14.8931 11.2191 14.9439 11.2343C15.5461 11.4151 15.7808 11.8608 15.9331 12.4264C15.956 12.5114 15.9206 12.5666 15.8349 12.5914C15.7881 12.6051 15.7369 12.6099 15.6879 12.6086C15.5703 12.6054 15.4529 12.5936 15.3352 12.5903C15.238 12.5874 15.1797 12.549 15.1429 12.4529C15.108 12.3616 15.0508 12.2777 14.9961 12.1953C14.7405 11.8105 14.0956 11.8538 13.8183 12.1558C13.681 12.3054 13.6678 12.5304 13.7939 12.6914C13.8779 12.7995 13.9909 12.8815 14.1196 12.9279C14.2639 12.9804 14.412 13.0224 14.5575 13.0716C14.7545 13.1383 14.9544 13.1982 15.1463 13.2774C15.6998 13.5061 16.0854 14.0861 16.0533 14.6536C16.0391 14.9039 15.9648 15.1346 15.8113 15.3341C15.6544 15.5379 15.4633 15.7034 15.223 15.8027C15.0442 15.8765 14.8617 15.9419 14.6518 16.0223Z" fill="white"/>
<path d="M26.5967 14.4054C26.3609 11.8418 26.8493 10.8548 26.4022 8.37769C26.3485 8.15725 25.7571 7.968 25.2759 7.97757C24.9383 7.98425 24.5956 7.99706 24.2579 8.02563C17.6906 8.58244 11.1256 9.17194 4.55289 9.65781C3.73645 9.73781 2.01845 8.18738 1.85401 7.40119C1.25801 4.55225 1.28414 10.0071 1.26514 10.969C1.48726 12.8654 1.62914 14.7696 1.79126 16.6719C1.82557 17.0796 1.85989 17.4872 1.89445 17.8948C1.89607 18.0653 2.0152 18.1994 2.18701 18.2266C2.48314 18.2913 2.9327 18.2418 3.27657 18.2182C3.91676 18.1715 4.55701 18.1262 5.19714 18.0786C8.14082 17.8528 11.0824 17.5998 14.0251 17.3603L14.0249 17.3581C17.1112 17.1151 20.1929 16.82 23.2761 16.542C24.2398 16.4542 25.2054 16.3701 26.1655 16.2504C26.4733 16.2278 26.7649 16.1469 26.5967 14.4054Z" fill="#2B8958"/>
<path d="M26.4717 15.1626C26.4452 14.9158 26.4184 14.6691 26.3915 14.4223L26.3914 14.4205C26.2903 13.4944 26.1877 12.5684 26.0942 11.6417C25.9104 9.82025 25.7392 7.99769 25.5547 6.17632L25.544 6.07163L25.5337 5.9695C25.4916 5.55694 25.4203 5.14663 25.3402 4.73807C25.2799 4.43082 25.1524 4.36125 24.6763 4.35869C24.4669 4.35757 24.2557 4.35969 24.045 4.3685C23.9197 4.37375 23.7946 4.38131 23.6701 4.39194L23.6691 4.392C23.5394 4.40307 23.4098 4.41432 23.2802 4.42569L23.2075 4.43206C23.0812 4.44313 22.9548 4.45432 22.8285 4.4655L22.772 4.47057C21.6708 4.56869 20.5702 4.67207 19.4686 4.76594C17.6737 4.91894 15.8777 5.06038 14.0825 5.21088C12.8855 5.31125 11.689 5.41732 10.4926 5.52369C10.0845 5.56 9.67779 5.61244 9.26947 5.64463C8.4081 5.71256 7.54616 5.7735 6.68429 5.83444C5.9686 5.885 5.25204 5.92369 4.53704 5.98188C4.42979 5.99063 4.32247 5.9995 4.21522 6.0085H4.21504C4.05272 6.02213 3.89047 6.03613 3.72822 6.05063L3.70885 6.05238C3.63222 6.05925 3.5556 6.06619 3.47904 6.07325L3.45229 6.07575C3.37504 6.08294 3.29779 6.09019 3.22054 6.09757L3.21097 6.0985C3.13529 6.10575 3.0596 6.11319 2.98391 6.12075L2.96229 6.12288C2.88854 6.13025 2.81479 6.13782 2.74104 6.14544L2.70185 6.1495C2.62935 6.15707 2.55685 6.16475 2.48435 6.17263L2.44941 6.17644C2.37379 6.18469 2.2981 6.19307 2.22254 6.20169C2.07991 6.21788 1.93829 6.24657 1.79816 6.28082C1.6581 6.31507 1.5196 6.35482 1.38322 6.39325C1.29572 6.41794 1.22241 6.44925 1.1641 6.48713C1.15884 6.49053 1.15365 6.49403 1.14854 6.49763C1.11993 6.51757 1.09393 6.54103 1.07116 6.56744C1.05697 6.58425 1.04491 6.60194 1.03485 6.6205C1.02735 6.63444 1.02097 6.64882 1.01585 6.66375C1.0036 6.69984 0.998035 6.73786 0.99941 6.77594C1.00054 6.81513 1.00104 6.85438 1.00104 6.89363C1.0011 6.97219 0.99941 7.05088 0.997473 7.12957C0.996535 7.16894 0.995473 7.20825 0.994598 7.24757C0.993723 7.28688 0.992972 7.32619 0.992535 7.3655C0.991285 7.48338 0.993098 7.601 1.0031 7.71794C1.01203 7.82214 1.02159 7.92629 1.03179 8.03038L1.03504 8.06369C1.03922 8.10682 1.04354 8.14994 1.04791 8.193L1.04991 8.21244C1.1106 8.80925 1.1836 9.40507 1.23516 10.0026C1.39729 11.8811 1.55385 13.7599 1.71085 15.6388L1.71097 15.64C1.75822 16.2056 1.80554 16.7712 1.8531 17.3368C1.85647 17.3771 1.86129 17.4146 1.86772 17.4494C1.86985 17.4611 1.87222 17.4724 1.87472 17.4834C1.88235 17.5166 1.89172 17.5471 1.9031 17.5753C1.91447 17.6034 1.92791 17.6291 1.9436 17.6525C1.95138 17.6641 1.95981 17.6753 1.96885 17.686C1.99661 17.7186 2.02992 17.7461 2.06722 17.7672C2.08016 17.7747 2.09379 17.7817 2.10816 17.7882C2.12254 17.7947 2.13766 17.8008 2.15354 17.8064C2.17472 17.8138 2.19722 17.8205 2.22122 17.8264C2.22722 17.8279 2.23329 17.8293 2.23947 17.8308C2.36922 17.8598 2.53922 17.8682 2.76085 17.8625C2.78272 17.8619 2.80466 17.8606 2.8266 17.8591C2.84854 17.8575 2.87047 17.8557 2.89241 17.8541L2.89535 17.8539C2.97854 17.8481 3.06178 17.8423 3.14504 17.8365L3.23204 17.8305L3.39672 17.8191L3.50316 17.8118L3.61229 17.8044C4.11779 17.7699 4.62329 17.7359 5.12866 17.7H5.12879C5.50841 17.673 5.88797 17.6449 6.26735 17.6146C8.7936 17.4128 11.3192 17.2012 13.845 16.9936L13.8448 16.9906C14.7355 16.9174 15.6271 16.8519 16.5169 16.7696C18.6705 16.5703 20.8238 16.3678 22.9768 16.1628L22.9797 16.1625C23.3773 16.1246 23.7748 16.0867 24.1725 16.0486C24.38 16.0287 24.5874 16.007 24.7945 15.9834C25.1486 15.943 25.5021 15.8983 25.855 15.8494L25.8618 15.8484L25.8863 15.8445L25.8883 15.8442L25.9141 15.8398L25.9199 15.8387L25.9427 15.8344L25.9452 15.8339C25.9624 15.8307 25.9794 15.8271 25.9964 15.8231C26.0134 15.8191 26.0303 15.8149 26.0472 15.8105L26.0489 15.8101C26.0568 15.8079 26.0646 15.8058 26.0723 15.8035L26.0726 15.8034C26.0802 15.8013 26.0876 15.799 26.0949 15.7967L26.096 15.7963C26.111 15.7916 26.1255 15.7867 26.1395 15.7816L26.14 15.7814C26.1542 15.7762 26.1677 15.7708 26.1809 15.7653L26.181 15.7652C26.3769 15.6818 26.4656 15.5507 26.4812 15.3561C26.4865 15.2914 26.4786 15.2268 26.4717 15.1626Z" fill="#66CC99"/>
<path d="M22.9409 14.2428C23.0584 13.9641 23.2305 13.7269 23.461 13.5311C23.6894 13.3371 23.9488 13.1997 24.2406 13.1374C24.4375 13.0954 24.6401 13.0741 24.8414 13.0595C24.8817 13.0566 24.9222 13.0555 24.9627 13.0562C24.9042 12.5304 24.8465 12.0046 24.7925 11.4784C24.6519 10.1056 24.5207 8.73195 24.3812 7.35901C24.2237 7.3752 24.0655 7.38113 23.9064 7.36782C23.536 7.33676 23.2082 7.19738 22.9084 6.98126C22.593 6.75394 22.3442 6.47113 22.1806 6.1187C22.0932 5.93045 22.0355 5.74126 22.0081 5.55113C20.9741 5.64226 19.9405 5.73876 18.9063 5.82663C17.3005 5.96313 15.6939 6.09007 14.0879 6.22451C13.017 6.31413 11.9465 6.40851 10.8762 6.50313C10.511 6.53545 10.1471 6.58107 9.7818 6.60995C9.01117 6.67088 8.24017 6.72607 7.46917 6.78126C6.82892 6.82707 6.18805 6.86301 5.54836 6.91513C5.14919 6.94737 4.75024 6.98233 4.35155 7.02001C4.35302 7.12897 4.34505 7.23786 4.32773 7.34544C4.30823 7.46769 4.27942 7.58845 4.25486 7.70988C4.13742 8.04763 3.99255 8.36813 3.74311 8.63051C3.4958 8.89069 3.19692 9.05969 2.84061 9.11619C2.71392 9.13626 2.58673 9.15276 2.45898 9.16101C2.49955 9.52713 2.54192 9.89307 2.57373 10.2599C2.70648 11.7921 2.83436 13.3247 2.96261 14.8572C2.98923 14.855 3.0158 14.8529 3.04236 14.851C3.31305 14.8314 3.57292 14.8957 3.82573 14.9883C3.91942 15.0226 4.0113 15.0617 4.10411 15.0983C4.26867 15.1633 4.42023 15.2499 4.54686 15.3748C4.59461 15.4219 4.64023 15.4727 4.67823 15.5278C4.77911 15.6742 4.89142 15.8158 4.96998 15.9738C5.07796 16.1896 5.13816 16.4261 5.14648 16.6673C5.77492 16.6238 6.4033 16.5798 7.03123 16.5294C9.29123 16.3484 11.5507 16.1595 13.8103 15.9738L13.8101 15.9713C14.607 15.9058 15.4045 15.8466 16.2006 15.7736C18.399 15.5719 20.597 15.3667 22.7947 15.1588C22.7641 14.8556 22.8113 14.5501 22.9409 14.2428Z" fill="#339966"/>
<path d="M7.25111 11.9919C7.19211 12.1616 7.11936 12.3226 6.99405 12.4544C6.8698 12.5851 6.71968 12.67 6.54068 12.6984C6.41886 12.7177 6.29611 12.7304 6.17236 12.7201C5.9863 12.7044 5.82161 12.6344 5.67099 12.5259C5.51261 12.4117 5.38755 12.2696 5.30536 12.0926C5.18568 11.8346 5.17611 11.573 5.28749 11.3088C5.34492 11.1706 5.43448 11.048 5.54874 10.9513C5.66349 10.8538 5.7938 10.7848 5.94036 10.7536C6.0393 10.7324 6.14105 10.7217 6.24218 10.7144C6.37818 10.7046 6.50874 10.7369 6.63574 10.7834C6.6828 10.8006 6.72899 10.8202 6.77561 10.8387C6.8583 10.8713 6.93443 10.9148 6.99805 10.9776C7.02205 11.0012 7.04499 11.0267 7.06405 11.0544C7.11474 11.1279 7.17111 11.1991 7.21061 11.2784C7.29361 11.4453 7.31718 11.6242 7.2878 11.8088C7.27793 11.8702 7.26343 11.9309 7.25111 11.9919ZM22.1549 10.7669C22.0959 10.9366 22.0232 11.0976 21.8979 11.2294C21.7736 11.3601 21.6235 11.4451 21.4445 11.4734C21.3227 11.4927 21.1999 11.5055 21.0762 11.4951C20.8901 11.4795 20.7254 11.4095 20.5748 11.3009C20.4164 11.1867 20.2914 11.0446 20.2092 10.8676C20.0894 10.6097 20.0799 10.3481 20.1913 10.0839C20.2487 9.94564 20.3383 9.82308 20.4525 9.72637C20.5673 9.62887 20.6976 9.55987 20.8442 9.52862C20.9431 9.5075 21.0449 9.49675 21.146 9.4895C21.282 9.47968 21.4125 9.51193 21.5395 9.55843C21.5866 9.57568 21.6328 9.59531 21.6794 9.61375C21.7621 9.64637 21.8382 9.68987 21.9019 9.75262C21.9259 9.77631 21.9488 9.80181 21.9679 9.8295C22.0185 9.903 22.0749 9.97418 22.1144 10.0535C22.1974 10.2204 22.221 10.3993 22.1916 10.5839C22.1817 10.6452 22.1673 10.7059 22.1549 10.7669Z" fill="#66CC99"/>
<path d="M17.667 12.2372C17.463 12.9272 17.0842 13.5686 16.5388 14.0716C15.2154 15.2921 13.1153 15.5187 11.574 14.579C11.5296 14.5518 11.4857 14.5238 11.4422 14.4951C9.16078 12.9794 8.79678 9.39987 11.1812 7.79662C12.7288 6.75606 15.066 6.8115 16.5049 8.02494C17.7418 9.06806 18.1028 10.7636 17.667 12.2372Z" fill="#66CC99"/>
<path d="M14.2672 13.4914C14.2787 13.6316 14.2924 13.7889 14.3043 13.9463C14.314 14.0755 14.2991 14.0983 14.1677 14.109C13.9918 14.1233 13.8151 14.1302 13.6386 14.1359C13.5337 14.1393 13.504 14.1102 13.4935 14.0015C13.4797 13.8578 13.4694 13.7138 13.4569 13.5621C13.3941 13.5521 13.342 13.5426 13.2895 13.5359C12.8746 13.4824 12.5535 13.2747 12.3076 12.9419C12.2005 12.7969 12.1552 12.6245 12.096 12.459C12.0661 12.3752 12.0962 12.3229 12.181 12.2862C12.2224 12.2682 12.2663 12.2566 12.3112 12.252C12.4825 12.2359 12.6542 12.2251 12.8257 12.2105C12.9055 12.2037 12.9487 12.2411 12.9816 12.3117C13.031 12.4179 13.0855 12.5227 13.1476 12.6219C13.2615 12.8042 13.4426 12.8715 13.6457 12.8774C13.8721 12.8841 14.0953 12.8332 14.2807 12.7087C14.7238 12.411 14.7325 11.9459 14.3359 11.6065C14.1657 11.4608 13.948 11.3969 13.7331 11.3369C13.3452 11.2286 12.9545 11.1252 12.5958 10.9366C12.4639 10.8669 12.3402 10.7825 12.2273 10.6851C11.9721 10.4649 11.8911 10.1751 11.946 9.84981C12.0337 9.33075 12.3337 8.98469 12.8271 8.80512C12.8906 8.782 12.9558 8.76343 13.034 8.73825C13.0308 8.66918 13.0288 8.59844 13.024 8.52794C13.0182 8.44212 13.0094 8.3565 13.0032 8.27068C12.9965 8.17606 13.0167 8.13687 13.1039 8.12612C13.2923 8.10287 13.4818 8.08875 13.671 8.07331C13.746 8.06719 13.7914 8.11081 13.8091 8.17868C13.8285 8.25309 13.8433 8.3286 13.8535 8.40481C13.8647 8.4895 13.8685 8.57525 13.8758 8.66537C13.9422 8.67875 13.9941 8.68994 14.0462 8.69969C14.6643 8.81519 14.9453 9.23318 15.1571 9.77925C15.1889 9.86131 15.1595 9.91993 15.0771 9.95381C15.032 9.97237 14.9816 9.98268 14.9328 9.98656C14.8155 9.99593 14.6975 9.99675 14.5801 10.006C14.4832 10.0136 14.4211 9.98162 14.3743 9.89C14.3298 9.80294 14.2639 9.72562 14.2007 9.64956C13.9055 9.29425 13.2689 9.40618 13.0255 9.73612C12.905 9.8995 12.9159 10.1246 13.0585 10.2712C13.1535 10.3697 13.2746 10.4392 13.4076 10.4716C13.5567 10.5082 13.7083 10.5342 13.8583 10.5677C14.0612 10.6129 14.2665 10.6511 14.4657 10.7094C15.0404 10.8776 15.4858 11.4131 15.5145 11.9809C15.5272 12.2312 15.4779 12.4685 15.3465 12.6832C15.2123 12.9026 15.04 13.0876 14.8117 13.212C14.6417 13.3046 14.4672 13.3892 14.2672 13.4914Z" fill="white"/>
<path d="M26.6579 11.5787C26.0013 9.14774 25.6062 6.64593 24.8677 4.24018C24.7884 4.02774 24.6591 3.99574 24.1929 4.06137C23.8657 4.10743 23.5346 4.16006 23.2101 4.22781C16.8999 5.54643 10.5959 6.89724 4.27175 8.14618C3.48857 8.32081 1.62957 6.98274 1.37325 6.22187C0.444441 3.46449 1.13988 8.87418 1.2395 9.83087C1.68813 11.6868 2.05982 13.5597 2.451 15.4284C2.53438 15.8289 2.61782 16.2294 2.70144 16.6297C2.724 16.7988 2.85613 16.9179 3.02632 16.9249C3.32188 16.9546 3.75244 16.853 4.08357 16.7894C4.69963 16.6684 5.31594 16.5488 5.93181 16.4269C8.76319 15.8594 11.5891 15.2652 14.4178 14.6842L14.4174 14.6821C17.3852 14.081 20.3421 13.4287 23.3025 12.7931C24.2277 12.5936 25.1553 12.3975 26.0731 12.1666C26.3691 12.1083 26.7962 11.923 26.6579 11.5787Z" fill="#2B8958"/>
<path d="M27.1352 10.9012C27.079 10.6595 27.0226 10.4177 26.9659 10.1761L26.9655 10.1743C26.7531 9.26725 26.5391 8.3605 26.334 7.45187C25.931 5.66606 25.5405 3.87762 25.1369 2.092L25.1137 1.98937L25.091 1.88925C24.9994 1.48481 24.879 1.08612 24.7499 0.690311C24.6529 0.392623 24.5179 0.338999 24.045 0.394124C23.837 0.418374 23.6276 0.446061 23.4194 0.480311C23.2959 0.500507 23.1727 0.523409 23.0502 0.548998L23.0492 0.549186C22.9219 0.575874 22.7945 0.602748 22.6672 0.629686L22.5959 0.644811C22.4718 0.671124 22.3477 0.697436 22.2237 0.723874L22.1683 0.735686C21.0871 0.966436 20.007 1.20225 18.9249 1.42887C17.1617 1.79806 15.3961 2.15587 13.6324 2.52262C12.4564 2.76712 11.2815 3.01731 10.1067 3.26775C9.70599 3.35319 9.30861 3.4545 8.90724 3.53587C8.06042 3.70756 7.21217 3.87244 6.36405 4.03725C5.65974 4.17412 4.95317 4.29925 4.25042 4.44362C4.14499 4.46531 4.03955 4.48706 3.93417 4.509L3.93399 4.50906C3.77455 4.54225 3.61517 4.57581 3.45586 4.60981L3.43686 4.61387C3.36161 4.62994 3.28642 4.64612 3.21124 4.66244L3.18499 4.66812C3.10916 4.68455 3.03337 4.70113 2.95761 4.71787L2.94824 4.71994C2.87399 4.73631 2.79974 4.75287 2.72555 4.7695L2.70436 4.77425C2.63205 4.7905 2.55974 4.80694 2.48749 4.82344L2.44905 4.83225C2.37799 4.84856 2.30692 4.865 2.23592 4.88156L2.20167 4.88956C2.12755 4.90694 2.05349 4.92437 1.97949 4.94206C1.83986 4.97544 1.70274 5.02106 1.56786 5.072C1.43299 5.12294 1.3003 5.17919 1.16955 5.23387C1.08567 5.26894 1.01667 5.30887 0.963361 5.35356C0.958571 5.35757 0.953861 5.36167 0.949236 5.36587C0.923222 5.38912 0.900248 5.41556 0.880861 5.44456C0.868861 5.463 0.858986 5.482 0.851299 5.50162C0.845561 5.5163 0.841005 5.53141 0.837674 5.54681C0.829869 5.5841 0.828958 5.62251 0.834986 5.66012C0.840861 5.69887 0.846049 5.73781 0.850861 5.77675C0.860424 5.85469 0.868299 5.933 0.875861 6.01137C0.879674 6.05056 0.883424 6.08975 0.887299 6.12887C0.891174 6.168 0.895236 6.20712 0.899549 6.24619C0.912611 6.36331 0.928611 6.47987 0.952736 6.59475C0.963361 6.64531 0.974174 6.69587 0.985049 6.74637L0.993174 6.78356C1.00174 6.82287 1.0103 6.86212 1.01899 6.90144L1.0263 6.93412C1.03567 6.97644 1.04517 7.01869 1.05474 7.06094L1.05905 7.08C1.19155 7.66506 1.33611 8.24769 1.45967 8.83462C1.84805 10.6796 2.23086 12.5257 2.61424 14.3717L2.61449 14.373C2.72986 14.9287 2.8453 15.4844 2.96099 16.0401C2.96924 16.0797 2.97849 16.1163 2.98917 16.1501C2.99274 16.1614 2.99642 16.1724 3.00024 16.183C3.0118 16.2149 3.0248 16.2441 3.03949 16.2707C3.05417 16.2972 3.07061 16.3211 3.08905 16.3425C3.10427 16.3601 3.12112 16.3762 3.13936 16.3907C3.16492 16.4108 3.19355 16.4276 3.22561 16.4413C3.23936 16.4472 3.25374 16.4525 3.2688 16.4572C3.28386 16.4619 3.29961 16.4661 3.31605 16.4697C3.34515 16.4762 3.37462 16.4808 3.4043 16.4835C3.53661 16.4966 3.70642 16.4844 3.92574 16.4519C3.94736 16.4487 3.96899 16.4447 3.99055 16.4406C4.01211 16.4364 4.03367 16.4319 4.05524 16.4277L4.05811 16.4271C4.13999 16.4112 4.22192 16.3954 4.3038 16.3796L4.38942 16.3631L4.55155 16.3319L4.6563 16.3118L4.76374 16.2912C5.26136 16.1957 5.75905 16.1008 6.25636 16.004H6.25649C6.6301 15.9314 7.0034 15.8572 7.37636 15.7814C9.85961 15.2751 12.341 14.7594 14.8231 14.2475L14.8225 14.2445C15.6978 14.064 16.5749 13.8909 17.4482 13.7016C19.9531 13.1581 22.4571 12.6106 24.9602 12.059C25.1638 12.0142 25.367 11.9675 25.5697 11.9189C25.9074 11.8381 26.2441 11.7533 26.5797 11.6646C26.5988 11.6595 26.6178 11.6543 26.6367 11.6487L26.6387 11.6482L26.6637 11.6407L26.6694 11.6389L26.6915 11.6319L26.694 11.6311C26.7022 11.6285 26.7102 11.6258 26.7181 11.6231L26.7222 11.6217L26.7436 11.6142L26.7459 11.6134C26.7537 11.6106 26.7614 11.6077 26.769 11.6047L26.7714 11.6039C26.7785 11.6011 26.7856 11.5983 26.7926 11.5955L26.7942 11.5949C26.8018 11.5918 26.8093 11.5887 26.8166 11.5856L26.8169 11.5854C26.8241 11.5823 26.8312 11.5792 26.8382 11.5761L26.8392 11.5756C26.8535 11.5691 26.8673 11.5624 26.8805 11.5557L26.881 11.5554C26.8944 11.5486 26.9073 11.5416 26.9196 11.5345L26.9198 11.5344C27.1041 11.4279 27.1763 11.287 27.1682 11.0919C27.1654 11.0273 27.1497 10.9641 27.1352 10.9012Z" fill="#66CC99"/>
<path d="M23.5188 10.4156C23.6017 10.1248 23.7438 9.8685 23.9489 9.64625C24.1521 9.42594 24.393 9.25819 24.6751 9.16107C24.8655 9.0955 25.064 9.04975 25.262 9.01094C25.3017 9.00317 25.3418 8.99717 25.3821 8.99294C25.2599 8.4783 25.1399 7.96313 25.0221 7.44744C24.7163 6.10175 24.4198 4.75407 24.1151 3.40813C23.9608 3.44325 23.8044 3.46832 23.6449 3.47432C23.2735 3.48832 22.9312 3.38969 22.6074 3.21144C22.2669 3.024 21.9856 2.77332 21.7806 2.44332C21.6711 2.26707 21.5908 2.08619 21.5406 1.90082C20.5253 2.11644 19.511 2.33732 18.495 2.54988C16.9175 2.87982 15.338 3.20032 13.7601 3.52819C12.708 3.74682 11.6568 3.97007 10.6057 4.19363C10.2471 4.26988 9.89139 4.35926 9.53233 4.43213C8.77477 4.58594 8.01608 4.73407 7.25745 4.88219C6.62745 5.00519 5.99564 5.11844 5.36695 5.24763C4.97462 5.32797 4.58284 5.41097 4.19164 5.49663C4.20627 5.60288 4.21145 5.71163 4.20739 5.82257C4.20289 5.94625 4.18889 6.06963 4.1792 6.19313C4.10352 6.54257 3.99852 6.87825 3.7827 7.16894C3.5687 7.45713 3.29252 7.66113 2.94564 7.76032C2.82233 7.79557 2.69802 7.82732 2.57227 7.851C2.65689 8.2095 2.7432 8.56769 2.8192 8.928C3.13652 10.4328 3.44895 11.9386 3.76183 13.4444C3.78795 13.439 3.81414 13.4338 3.84027 13.4286C4.10664 13.3764 4.37233 13.4088 4.63445 13.4701C4.73158 13.4928 4.82752 13.5205 4.92408 13.5456C5.09533 13.5902 5.2562 13.6578 5.39702 13.7664C5.45014 13.8074 5.50158 13.8524 5.54595 13.9024C5.66383 14.0355 5.79239 14.1624 5.88958 14.3098C6.02289 14.5109 6.1113 14.7384 6.14877 14.9768C6.76733 14.8575 7.38577 14.7378 8.00295 14.6118C10.2245 14.1585 12.4443 13.6974 14.6649 13.2395L14.6644 13.2371C15.4475 13.0756 16.232 12.9203 17.0134 12.7514C19.1711 12.285 21.3282 11.8155 23.4846 11.3429C23.4176 11.0454 23.4275 10.7364 23.5188 10.4156Z" fill="#339966"/>
<path d="M7.67204 10.0808C7.63404 10.2564 7.58129 10.425 7.47285 10.571C7.36535 10.7158 7.2266 10.8182 7.05235 10.8681C6.93379 10.902 6.81348 10.9295 6.68935 10.9342C6.50273 10.9412 6.33085 10.8917 6.16817 10.8021C5.9971 10.7079 5.85579 10.5821 5.75279 10.4162C5.60273 10.1747 5.56154 9.91612 5.64017 9.64043C5.68041 9.49624 5.75448 9.36374 5.85623 9.25393C5.95835 9.14324 6.07935 9.05899 6.22104 9.01018C6.31667 8.97724 6.41642 8.95424 6.51585 8.93481C6.64967 8.90856 6.78317 8.92481 6.91485 8.95562C6.96367 8.96706 7.01185 8.98093 7.06035 8.99356C7.14635 9.01593 7.22723 9.04993 7.29798 9.10449C7.32467 9.12506 7.35048 9.14768 7.37279 9.17281C7.43198 9.23968 7.4966 9.30343 7.54542 9.37743C7.64804 9.53306 7.6931 9.70781 7.68623 9.89456C7.68398 9.95681 7.67692 10.0188 7.67204 10.0808ZM22.318 7.06049C22.28 7.23606 22.2272 7.40468 22.1188 7.55068C22.0113 7.69549 21.8725 7.79793 21.6983 7.84774C21.5797 7.88168 21.4594 7.90918 21.3353 7.91387C21.1487 7.92087 20.9768 7.87137 20.8141 7.78181C20.643 7.68762 20.5017 7.56174 20.3987 7.39593C20.2487 7.15437 20.2075 6.89581 20.2861 6.62012C20.3263 6.47593 20.4004 6.34343 20.5022 6.23362C20.6043 6.12293 20.7253 6.03868 20.867 5.98987C20.9626 5.95693 21.0624 5.93393 21.1618 5.91449C21.2956 5.88824 21.4291 5.90449 21.5608 5.93531C21.6096 5.94674 21.6578 5.96062 21.7063 5.97324C21.7923 5.99562 21.8732 6.02962 21.9439 6.08418C21.9706 6.10474 21.9964 6.12737 22.0187 6.15249C22.0779 6.21937 22.1425 6.28312 22.1914 6.35712C22.294 6.51274 22.339 6.68749 22.3322 6.87424C22.3299 6.93649 22.3229 6.99849 22.318 7.06049Z" fill="#66CC99"/>
<path d="M18.0412 9.06331C17.9221 9.77294 17.6238 10.4554 17.1433 11.0208C15.9774 12.3925 13.9202 12.8717 12.2764 12.1255C12.2291 12.1038 12.1821 12.0814 12.1355 12.0582C9.68728 10.8299 8.89266 7.32069 11.0654 5.44056C12.4756 4.22031 14.8023 3.99231 16.3776 5.02269C17.7317 5.90844 18.2953 7.54775 18.0412 9.06331Z" fill="#66CC99"/>
<path d="M14.8181 10.7199C14.8465 10.8577 14.8792 11.0121 14.91 11.167C14.9353 11.2941 14.9233 11.3186 14.7942 11.345C14.6213 11.3805 14.4468 11.4088 14.2723 11.4358C14.1685 11.4518 14.1356 11.4265 14.112 11.3199C14.0809 11.1789 14.0532 11.0373 14.0225 10.8881C13.959 10.8858 13.906 10.8827 13.8531 10.8823C13.4348 10.8795 13.0908 10.7123 12.8065 10.4116C12.6826 10.2806 12.6168 10.115 12.538 9.95782C12.4981 9.87832 12.5217 9.82269 12.6014 9.77607C12.6403 9.75312 12.6825 9.73632 12.7266 9.72625C12.8946 9.68963 13.0638 9.658 13.2322 9.62282C13.3106 9.60644 13.358 9.63825 13.3993 9.7045C13.4612 9.80394 13.528 9.90125 13.6016 9.99232C13.7366 10.1594 13.9246 10.2044 14.1269 10.1857C14.3525 10.1649 14.568 10.0873 14.7368 9.94132C15.1407 9.59213 15.093 9.12944 14.6581 8.8405C14.4715 8.7165 14.2478 8.67938 14.0271 8.64588C13.6289 8.58538 13.2286 8.53 12.8496 8.38619C12.7102 8.33302 12.5773 8.26422 12.4534 8.18113C12.1735 7.99344 12.058 7.71563 12.0731 7.38607C12.0973 6.86019 12.3531 6.48038 12.8212 6.24238C12.8815 6.21176 12.9439 6.18538 13.0185 6.15094C13.007 6.08275 12.9964 6.01282 12.9831 5.94338C12.967 5.85888 12.9478 5.77494 12.9313 5.69051C12.9131 5.59744 12.9285 5.55607 13.0138 5.53482C13.1979 5.48888 13.3843 5.45201 13.5703 5.41369C13.644 5.39857 13.6944 5.43632 13.7201 5.50157C13.7483 5.57294 13.7723 5.64638 13.7915 5.72063C13.813 5.80332 13.827 5.88794 13.8453 5.97657C13.9128 5.98182 13.9656 5.98663 14.0186 5.99001C14.6461 6.02982 14.9757 6.41076 15.2521 6.92713C15.2936 7.00476 15.2716 7.0665 15.1938 7.11013C15.1513 7.134 15.1025 7.15032 15.0545 7.16013C14.9392 7.18363 14.8221 7.19875 14.7068 7.22207C14.6115 7.24132 14.546 7.21713 14.4884 7.13188C14.4337 7.05088 14.359 6.98207 14.287 6.91426C13.951 6.59732 13.3326 6.78551 13.131 7.14244C13.0311 7.31919 13.0692 7.54138 13.2285 7.66957C13.3347 7.75588 13.4633 7.81022 13.5993 7.82626C13.7517 7.84463 13.9054 7.85207 14.0583 7.86707C14.2652 7.88738 14.4736 7.90044 14.6784 7.93419C15.2692 8.03157 15.7762 8.50919 15.8734 9.06925C15.9163 9.31625 15.8961 9.55775 15.7917 9.78682C15.685 10.0208 15.5363 10.2254 15.3248 10.3764C15.1673 10.4891 15.0043 10.5942 14.8181 10.7199Z" fill="white"/>
</svg>
