<svg width="31" height="31" viewBox="0 0 31 31" fill="none" xmlns="http://www.w3.org/2000/svg">
<path d="M10.4948 2.58333C9.76683 2.58333 9.06868 2.87252 8.55393 3.38726C8.03918 3.90201 7.75 4.60016 7.75 5.32813V25.6719C7.75 26.3998 8.03918 27.098 8.55393 27.6127C9.06868 28.1275 9.76683 28.4167 10.4948 28.4167H20.5052C21.2332 28.4167 21.9313 28.1275 22.4461 27.6127C22.9608 27.098 23.25 26.3998 23.25 25.6719V5.32813C23.25 4.60016 22.9608 3.90201 22.4461 3.38726C21.9313 2.87252 21.2332 2.58333 20.5052 2.58333H10.4948ZM13.724 22.9271H17.276C17.4901 22.9271 17.6955 23.0121 17.8469 23.1635C17.9983 23.3149 18.0833 23.5203 18.0833 23.7344C18.0833 23.9485 17.9983 24.1538 17.8469 24.3052C17.6955 24.4566 17.4901 24.5417 17.276 24.5417H13.724C13.5099 24.5417 13.3045 24.4566 13.1531 24.3052C13.0017 24.1538 12.9167 23.9485 12.9167 23.7344C12.9167 23.5203 13.0017 23.3149 13.1531 23.1635C13.3045 23.0121 13.5099 22.9271 13.724 22.9271Z" fill="#A5634D"/>
</svg>
